<?xml version="1.0" encoding="utf-8"?>
<!-- Generator: Adobe Illustrator 16.0.0, SVG Export Plug-In . SVG Version: 6.00 Build 0)  -->
<!DOCTYPE svg PUBLIC "-//W3C//DTD SVG 1.1//EN" "http://www.w3.org/Graphics/SVG/1.1/DTD/svg11.dtd">
<svg version="1.1" id="Livello_1" xmlns="http://www.w3.org/2000/svg" xmlns:xlink="http://www.w3.org/1999/xlink" x="0px" y="0px"
	 width="1200px" height="684px" viewBox="0 0 1200 684" enable-background="new 0 0 1200 684" xml:space="preserve">
<rect x="1.398" y="0.303" fill="#98D1F4" width="1200" height="684"/>
<rect x="651.782" y="258.927" display="none" fill="#2C3E50" width="58.343" height="6.646"/>
<g>
	<g>
		
			<linearGradient id="SVGID_1_" gradientUnits="userSpaceOnUse" x1="-370.9778" y1="707.031" x2="-370.9778" y2="737.3458" gradientTransform="matrix(10.4167 0 0 10.4167 4464.3516 -7166.9326)">
			<stop  offset="0" style="stop-color:#43BCE8"/>
			<stop  offset="1" style="stop-color:#24A6DC"/>
		</linearGradient>
		<circle fill="url(#SVGID_1_)" cx="600" cy="356.447" r="158.469"/>
		<path fill="#FFFFFF" d="M680.63,283.637l-30.244,154.444c0,0-4.231,10.714-15.864,5.572l-69.796-54.197l-25.38-12.425
			l-42.722-14.563c0,0-6.561-2.353-7.195-7.495c-0.634-5.142,7.4-7.923,7.4-7.923l169.847-67.477
			C666.67,279.565,680.63,273.353,680.63,283.637z"/>
		<path fill="#D1E4F0" d="M559.353,436.339c0,0-2.037-0.19-4.58-8.336c-2.535-8.137-15.442-50.979-15.442-50.979l102.584-65.979
			c0,0,5.919-3.645,5.714,0c0,0,1.053,0.642-2.116,3.645c-3.171,3.004-80.589,73.474-80.589,73.474"/>
		<path fill="#B4CEE3" d="M591.483,410.231l-27.606,25.489c0,0-2.154,1.657-4.517,0.618l5.286-47.351"/>
	</g>
	<g>
		<path d="M220.244,87.161c-0.482-0.516-0.138-1.204,0.997-2.821c0.275-0.344,0.551-0.413,0.895-0.275
			c3.681,1.892,5.745,1.892,7.431,1.892c3.337,0,4.782-1.754,3.061-3.956c-0.859-1.136-3.612-1.652-4.782-2.03
			c-3.612-1.067-5.71-2.512-6.398-4.886c-1.445-4.438,1.514-8.428,7.362-9.048c1.996-0.172,4.267,0.207,6.09,0.963
			c1.789,0.895,2.58,1.686,2.373,2.271c-0.274,0.654-1.101,1.651-1.583,2.305c-0.413,0.517-1.72-0.585-3.303-0.929
			c-1.341-0.275-2.855-0.653-4.816,0.035c-2.064,0.998-2.477,2.786-0.894,3.991c1.651,1.17,3.75,1.892,5.022,2.339
			c1.272,0.481,3.303,1.17,4.335,2.443c0.929,0.894,1.617,2.717,1.617,4.163c0,3.819-3.234,6.227-7.844,6.296
			C226.057,89.982,221.688,88.469,220.244,87.161z"/>
		<path d="M243.193,89.294V66.623c0-0.344,0.274-0.62,0.618-0.62h15.413c0.344,0,0.619,0.275,0.619,0.62v2.889
			c0,0.345-0.275,0.62-0.619,0.62h-11.112c-0.344,0-0.619,0.275-0.619,0.619v5.057c0,0.448-0.034,0.654,0.792,0.654h8.601
			c0.309,0,0.584,0.241,0.584,0.55v2.924c0,0.31-0.275,0.551-0.584,0.551h-8.635c-0.723,0-0.757,0.619-0.757,0.791v3.647
			c0,0.344,0.069,0.826,0.963,0.826h11.009c0.344,0,0.619,0.31,0.619,0.654v2.89c0,0.344-0.275,0.62-0.619,0.62h-15.653
			C243.467,89.914,243.193,89.638,243.193,89.294z"/>
		<path d="M264.731,77.975c0-6.915,5.573-12.487,12.488-12.487c0.551,0,1.032,0.034,1.549,0.103
			c0.412,0.034,0.653,0.413,0.584,0.826l-0.55,2.993c-0.069,0.413-0.413,0.585-0.792,0.55c-0.275-0.034-0.515-0.034-0.791-0.034
			c-4.438,0-8.05,3.612-8.05,8.049c0,4.438,3.612,8.051,8.05,8.051c3.44,0,6.021-2.167,7.19-5.229h-4.438
			c-0.379,0-0.688-0.31-0.688-0.688v-2.512c0-0.378,0.31-0.688,0.688-0.688h7.327c1.101,0,1.72,0.378,1.72,1.066
			c0,6.916-4.885,12.488-11.8,12.488C270.304,90.464,264.731,84.891,264.731,77.975z"/>
		<path d="M293.667,81.829v-15.24c0-0.344,0.275-0.654,0.619-0.654h3.303c0.344,0,0.619,0.31,0.619,0.654v15.24
			c0,2.236,1.79,4.059,4.025,4.059c2.615,0,4.816-1.823,4.816-4.059v-15.24c0-0.344,0.275-0.654,0.619-0.654h3.303
			c0.343,0,0.619,0.31,0.619,0.654v15.24c0,4.679-3.854,8.463-9.357,8.463C297.554,90.292,293.667,86.508,293.667,81.829z"/>
		<path d="M318.472,89.397V66.554c0-0.344,0.311-0.654,0.654-0.654h3.578c0.345,0,0.62,0.31,0.62,0.654v22.843
			c0,0.344-0.275,0.619-0.62,0.619h-3.578C318.783,90.016,318.472,89.741,318.472,89.397z"/>
		<path d="M328.314,77.975c0-6.812,5.435-12.351,12.178-12.351c3.44,0,6.674,1.445,8.979,3.991c0.275,0.31,0.241,0.653-0.035,0.894
			c-0.792,0.654-2.408,2.065-2.442,2.099c-0.275,0.276-0.688,0.276-0.929,0c-1.479-1.583-3.475-2.477-5.574-2.477
			c-4.231,0-7.671,3.543-7.671,7.843c0,4.3,3.44,7.844,7.671,7.844c1.996,0,3.887-0.826,5.333-2.27
			c0.413-0.344,1.032-0.379,1.307-0.069c0.138,0.104,1.686,1.411,2.03,1.755c0.413,0.344,0.516,0.928,0.172,1.238
			c-2.305,2.477-5.47,3.853-8.842,3.853C333.749,90.326,328.314,84.822,328.314,77.975z"/>
		<path d="M355.907,89.397V66.554c0-0.344,0.311-0.654,0.654-0.654h3.578c0.345,0,0.619,0.31,0.619,0.654v22.843
			c0,0.344-0.274,0.619-0.619,0.619h-3.578C356.218,90.016,355.907,89.741,355.907,89.397z"/>
		<path d="M382.091,87.161c-0.482-0.516-0.138-1.204,0.997-2.821c0.276-0.344,0.551-0.413,0.895-0.275
			c3.681,1.892,5.746,1.892,7.431,1.892c3.337,0,4.782-1.754,3.062-3.956c-0.86-1.136-3.612-1.652-4.782-2.03
			c-3.612-1.067-5.711-2.512-6.398-4.886c-1.445-4.438,1.514-8.428,7.361-9.048c1.996-0.172,4.267,0.207,6.09,0.963
			c1.789,0.895,2.581,1.686,2.374,2.271c-0.275,0.654-1.101,1.651-1.582,2.305c-0.413,0.517-1.721-0.585-3.303-0.929
			c-1.341-0.275-2.855-0.653-4.816,0.035c-2.064,0.998-2.477,2.786-0.894,3.991c1.651,1.17,3.75,1.892,5.023,2.339
			c1.272,0.481,3.302,1.17,4.334,2.443c0.929,0.894,1.617,2.717,1.617,4.163c0,3.819-3.234,6.227-7.844,6.296
			C387.904,89.982,383.535,88.469,382.091,87.161z"/>
		<path d="M405.039,81.829v-15.24c0-0.344,0.275-0.654,0.619-0.654h3.303c0.344,0,0.619,0.31,0.619,0.654v15.24
			c0,2.236,1.789,4.059,4.025,4.059c2.615,0,4.816-1.823,4.816-4.059v-15.24c0-0.344,0.275-0.654,0.62-0.654h3.303
			c0.344,0,0.619,0.31,0.619,0.654v15.24c0,4.679-3.853,8.463-9.358,8.463C408.927,90.292,405.039,86.508,405.039,81.829z"/>
		<path d="M450.317,89.57V70.923c0-0.413-0.413-0.825-0.86-0.825h-5.779c-0.207,0-0.413-0.207-0.413-0.413v-3.337
			c0-0.206,0.172-0.377,0.413-0.377h18.165c0.275,0,0.481,0.206,0.481,0.447v3.233c0,0.241-0.207,0.448-0.481,0.448h-5.711
			c-0.447,0-0.826,0.378-0.826,0.825V89.57c0,0.241-0.172,0.447-0.447,0.447h-4.094C450.489,90.016,450.317,89.81,450.317,89.57z"/>
		<path d="M467.831,89.294V66.623c0-0.344,0.275-0.62,0.619-0.62h15.412c0.345,0,0.62,0.275,0.62,0.62v2.889
			c0,0.345-0.275,0.62-0.62,0.62H472.75c-0.344,0-0.62,0.275-0.62,0.619v5.057c0,0.448-0.034,0.654,0.792,0.654h8.601
			c0.31,0,0.585,0.241,0.585,0.55v2.924c0,0.31-0.275,0.551-0.585,0.551h-8.635c-0.722,0-0.757,0.619-0.757,0.791v3.647
			c0,0.344,0.069,0.826,0.964,0.826h11.008c0.344,0,0.62,0.31,0.62,0.654v2.89c0,0.344-0.275,0.62-0.62,0.62H468.45
			C468.106,89.914,467.831,89.638,467.831,89.294z"/>
		<path d="M490.745,89.294V66.623c0-0.379,0.344-0.723,0.722-0.723h3.543c0.413,0,0.723,0.344,0.723,0.723v18.13
			c0,0.378,0.31,0.722,0.688,0.722h8.325c0.413,0,0.722,0.31,0.722,0.688v3.131c0,0.413-0.309,0.722-0.722,0.722h-13.279
			C491.089,90.016,490.745,89.707,490.745,89.294z"/>
		<path d="M511.147,89.294V66.623c0-0.344,0.275-0.62,0.619-0.62h15.413c0.344,0,0.619,0.275,0.619,0.62v2.889
			c0,0.345-0.275,0.62-0.619,0.62h-11.112c-0.345,0-0.619,0.275-0.619,0.619v5.057c0,0.448-0.034,0.654,0.791,0.654h8.601
			c0.31,0,0.585,0.241,0.585,0.55v2.924c0,0.31-0.275,0.551-0.585,0.551h-8.635c-0.723,0-0.757,0.619-0.757,0.791v3.647
			c0,0.344,0.069,0.826,0.963,0.826h11.009c0.344,0,0.62,0.31,0.62,0.654v2.89c0,0.344-0.275,0.62-0.62,0.62h-15.653
			C511.423,89.914,511.147,89.638,511.147,89.294z"/>
		<path d="M532.686,77.975c0-6.915,5.572-12.487,12.487-12.487c0.551,0,1.032,0.034,1.549,0.103
			c0.412,0.034,0.653,0.413,0.584,0.826l-0.551,2.993c-0.068,0.413-0.412,0.585-0.79,0.55c-0.276-0.034-0.517-0.034-0.792-0.034
			c-4.438,0-8.051,3.612-8.051,8.049c0,4.438,3.613,8.051,8.051,8.051c3.44,0,6.021-2.167,7.19-5.229h-4.438
			c-0.379,0-0.688-0.31-0.688-0.688v-2.512c0-0.378,0.31-0.688,0.688-0.688h7.327c1.102,0,1.72,0.378,1.72,1.066
			c0,6.916-4.885,12.488-11.8,12.488S532.686,84.891,532.686,77.975z"/>
		<path d="M561.552,89.431V66.554c0-0.344,0.311-0.619,0.654-0.619h7.225c4.334,0,7.843,3.371,7.843,7.637
			c0,2.443-1.238,4.576-3.062,6.021c-0.344,0.31-0.138,0.723-0.138,0.723l3.991,8.91c0.275,0.619,0.034,0.826-0.344,0.826h-3.027
			c-0.448,0-0.688,0-0.895-0.413c0,0-3.476-7.775-3.612-8.05c-0.104-0.275-0.275-0.344-0.929-0.378h-2.752
			c-0.654,0-0.895,0.137-0.895,0.653v7.568c0,0.344-0.31,0.62-0.655,0.62h-2.751C561.863,90.051,561.552,89.776,561.552,89.431z
			 M569.431,76.771c1.788,0,3.268-1.444,3.268-3.199c0-1.789-1.479-3.199-3.268-3.199h-3.199c-0.413,0-0.619,0.207-0.619,0.688v5.16
			c0,0.344,0.206,0.55,0.516,0.55H569.431z"/>
		<path d="M582.335,89.603l6.089-23.152c0.104-0.275,0.379-0.516,0.688-0.516h7.155c0.31,0,0.585,0.241,0.688,0.482l6.089,23.153
			c0.069,0.275-0.103,0.481-0.344,0.481h-3.372c-0.275,0-0.619-0.241-0.688-0.516l-1.686-6.399
			c-0.104-0.413-0.517-0.722-0.928-0.722h-6.676c-0.412,0-0.825,0.31-0.929,0.722l-1.686,6.364c-0.068,0.31-0.412,0.551-0.688,0.551
			h-3.371C582.438,90.051,582.264,89.844,582.335,89.603z M594.96,78.732c0.481,0,0.757-0.378,0.654-0.791l-1.927-7.086
			c-0.069-0.378-0.481-0.688-0.896-0.688h-0.205c-0.413,0-0.826,0.31-0.894,0.688l-1.894,7.086c-0.104,0.413,0.137,0.791,0.62,0.791
			H594.96z"/>
		<path d="M607.728,89.397V66.589c0-0.344,0.275-0.619,0.584-0.619h3.372c0.206,0,0.413,0.137,0.516,0.344l5.229,8.669
			c0,0,0.207,0.344,0.586,0.344h0.068c0.378,0,0.517-0.378,0.517-0.378l5.195-8.601c0.136-0.206,0.274-0.377,0.549-0.377h3.405
			c0.311,0,0.586,0.274,0.586,0.619v22.809c0,0.344-0.275,0.619-0.586,0.619h-3.37c-0.38,0-0.62-0.275-0.62-0.619V75.74
			c0-0.413-0.172-0.481-0.446-0.069l-3.612,5.126c-0.379,0.55-0.55,0.722-1.308,0.722h-0.585c-0.894,0-1.065-0.103-1.376-0.55
			l-3.717-5.264c-0.274-0.413-0.445-0.413-0.445,0v13.692c0,0.344-0.275,0.619-0.619,0.619h-3.338
			C608.003,90.016,607.728,89.741,607.728,89.397z"/>
		<path d="M648.396,89.397V66.589c0-0.344,0.274-0.619,0.619-0.619h8.017c4.23,0,7.603,3.405,7.603,7.602
			c0,4.231-3.372,7.603-7.603,7.603h-3.441c-0.515,0-0.859,0.138-0.859,0.688v7.534c0,0.344-0.274,0.619-0.619,0.619h-3.097
			C648.67,90.016,648.396,89.741,648.396,89.397z M657.031,76.771c1.753,0,3.198-1.41,3.198-3.199c0-1.754-1.445-3.165-3.198-3.165
			h-3.475c-0.586,0-0.826,0.241-0.826,0.688v5.676H657.031z"/>
		<path d="M669.763,89.294V66.623c0-0.344,0.273-0.62,0.618-0.62h15.414c0.343,0,0.619,0.275,0.619,0.62v2.889
			c0,0.345-0.276,0.62-0.619,0.62h-11.114c-0.343,0-0.619,0.275-0.619,0.619v5.057c0,0.448-0.034,0.654,0.791,0.654h8.603
			c0.31,0,0.584,0.241,0.584,0.55v2.924c0,0.31-0.274,0.551-0.584,0.551h-8.635c-0.724,0-0.759,0.619-0.759,0.791v3.647
			c0,0.344,0.068,0.826,0.964,0.826h11.01c0.343,0,0.619,0.31,0.619,0.654v2.89c0,0.344-0.276,0.62-0.619,0.62h-15.654
			C670.036,89.914,669.763,89.638,669.763,89.294z"/>
		<path d="M692.092,89.431V66.554c0-0.344,0.31-0.619,0.653-0.619h7.225c4.334,0,7.843,3.371,7.843,7.637
			c0,2.443-1.236,4.576-3.062,6.021c-0.343,0.31-0.138,0.723-0.138,0.723l3.991,8.91c0.274,0.619,0.034,0.826-0.344,0.826h-3.028
			c-0.447,0-0.688,0-0.893-0.413c0,0-3.478-7.775-3.613-8.05c-0.104-0.275-0.275-0.344-0.93-0.378h-2.751
			c-0.655,0-0.896,0.137-0.896,0.653v7.568c0,0.344-0.308,0.62-0.653,0.62h-2.751C692.402,90.051,692.092,89.776,692.092,89.431z
			 M699.97,76.771c1.789,0,3.269-1.444,3.269-3.199c0-1.789-1.479-3.199-3.269-3.199h-3.2c-0.412,0-0.62,0.207-0.62,0.688v5.16
			c0,0.344,0.208,0.55,0.517,0.55H699.97z"/>
		<path d="M728.357,89.466V66.451c0-0.275,0.24-0.481,0.515-0.481h3.509c0.208,0,0.274,0.068,0.379,0.24l8.154,13.796
			c0.516,0.928,0.895,0.894,0.895-0.07l-0.069-13.485c0-0.275,0.24-0.481,0.515-0.481h3.612c0.276,0,0.518,0.206,0.518,0.481v23.015
			c0,0.275-0.241,0.482-0.518,0.482h-2.441c-0.758,0-0.998-0.034-1.376-0.654l-8.671-13.795c-0.308-0.482-0.653-0.379-0.653,0.171
			l0.069,13.795c0,0.275-0.24,0.482-0.482,0.482h-3.439C728.597,89.948,728.357,89.741,728.357,89.466z"/>
		<path d="M751.509,82.001l-0.067-0.172c-1.271-3.888-0.585-8.394,2.271-11.8c2.201-2.339,4.472-4.128,8.738-4.369h0.102
			c1.928-0.103,3.818,0.241,5.644,1.032c2.306,1.032,4.678,3.234,5.641,5.126c2.408,4.231,2.134,9.392-0.688,13.314
			c-1.066,1.514-2.305,2.718-4.369,3.818c-3.233,1.617-7.121,1.858-10.699,0.31C754.881,87.78,752.542,85.097,751.509,82.001z
			 M770.327,81.175c1.756-3.99,0-8.634-3.956-10.424c-2.957-1.307-6.397-0.722-8.668,1.479l-0.586,0.62
			c-2.785,3.406-2.372,8.394,0.964,11.146c2.443,2.064,5.849,2.442,8.635,1.033C768.643,83.927,769.847,82.31,770.327,81.175z"/>
		<path d="M779.827,89.466V66.451c0-0.275,0.24-0.481,0.516-0.481h3.51c0.206,0,0.274,0.068,0.379,0.24l8.153,13.796
			c0.515,0.928,0.894,0.894,0.894-0.07l-0.068-13.485c0-0.275,0.24-0.481,0.516-0.481h3.612c0.276,0,0.517,0.206,0.517,0.481v23.015
			c0,0.275-0.24,0.482-0.517,0.482h-2.442c-0.758,0-0.999-0.034-1.375-0.654l-8.672-13.795c-0.308-0.482-0.652-0.379-0.652,0.171
			l0.068,13.795c0,0.275-0.241,0.482-0.481,0.482h-3.44C780.068,89.948,779.827,89.741,779.827,89.466z"/>
		<path d="M817.846,89.397V66.589c0-0.344,0.277-0.619,0.62-0.619h8.015c4.232,0,7.604,3.405,7.604,7.602
			c0,4.231-3.371,7.603-7.604,7.603h-3.438c-0.516,0-0.86,0.138-0.86,0.688v7.534c0,0.344-0.275,0.619-0.619,0.619h-3.097
			C818.123,90.016,817.846,89.741,817.846,89.397z M826.481,76.771c1.756,0,3.2-1.41,3.2-3.199c0-1.754-1.444-3.165-3.2-3.165
			h-3.473c-0.587,0-0.826,0.241-0.826,0.688v5.676H826.481z"/>
		<path d="M839.213,89.294V66.623c0-0.344,0.276-0.62,0.619-0.62h15.412c0.345,0,0.619,0.275,0.619,0.62v2.889
			c0,0.345-0.274,0.62-0.619,0.62h-11.111c-0.345,0-0.619,0.275-0.619,0.619v5.057c0,0.448-0.036,0.654,0.791,0.654h8.6
			c0.31,0,0.584,0.241,0.584,0.55v2.924c0,0.31-0.274,0.551-0.584,0.551h-8.635c-0.723,0-0.756,0.619-0.756,0.791v3.647
			c0,0.344,0.069,0.826,0.963,0.826h11.008c0.346,0,0.62,0.31,0.62,0.654v2.89c0,0.344-0.274,0.62-0.62,0.62h-15.652
			C839.49,89.914,839.213,89.638,839.213,89.294z"/>
		<path d="M861.541,89.431V66.554c0-0.344,0.311-0.619,0.654-0.619h7.226c4.335,0,7.845,3.371,7.845,7.637
			c0,2.443-1.24,4.576-3.064,6.021c-0.343,0.31-0.136,0.723-0.136,0.723l3.991,8.91c0.274,0.619,0.032,0.826-0.346,0.826h-3.029
			c-0.444,0-0.686,0-0.893-0.413c0,0-3.474-7.775-3.612-8.05c-0.103-0.275-0.274-0.344-0.928-0.378h-2.753
			c-0.654,0-0.895,0.137-0.895,0.653v7.568c0,0.344-0.31,0.62-0.652,0.62h-2.754C861.852,90.051,861.541,89.776,861.541,89.431z
			 M869.421,76.771c1.788,0,3.267-1.444,3.267-3.199c0-1.789-1.479-3.199-3.267-3.199h-3.199c-0.412,0-0.62,0.207-0.62,0.688v5.16
			c0,0.344,0.208,0.55,0.515,0.55H869.421z"/>
		<path d="M883.838,88.881V66.795c0-0.413,0.31-0.757,0.722-0.757h6.881c6.604,0,11.902,5.333,11.902,11.938
			c0,6.571-5.298,11.903-11.902,11.903h-6.606C884.283,89.879,883.838,89.431,883.838,88.881z M891.441,85.441
			c4.128,0,7.498-3.337,7.498-7.466c0-4.128-3.37-7.499-7.498-7.499h-2.754c-0.24,0-0.412,0.171-0.412,0.413v14.552H891.441z"/>
		<path d="M907.855,89.294V66.623c0-0.344,0.274-0.62,0.618-0.62h15.412c0.344,0,0.619,0.275,0.619,0.62v2.889
			c0,0.345-0.275,0.62-0.619,0.62h-11.112c-0.343,0-0.62,0.275-0.62,0.619v5.057c0,0.448-0.032,0.654,0.792,0.654h8.603
			c0.309,0,0.584,0.241,0.584,0.55v2.924c0,0.31-0.275,0.551-0.584,0.551h-8.637c-0.722,0-0.758,0.619-0.758,0.791v3.647
			c0,0.344,0.069,0.826,0.965,0.826h11.008c0.344,0,0.619,0.31,0.619,0.654v2.89c0,0.344-0.275,0.62-0.619,0.62h-15.652
			C908.129,89.914,907.855,89.638,907.855,89.294z"/>
		<path d="M930.184,89.431V66.554c0-0.344,0.31-0.619,0.652-0.619h7.225c4.334,0,7.844,3.371,7.844,7.637
			c0,2.443-1.237,4.576-3.062,6.021c-0.343,0.31-0.138,0.723-0.138,0.723l3.99,8.91c0.274,0.619,0.034,0.826-0.343,0.826h-3.028
			c-0.448,0-0.688,0-0.894-0.413c0,0-3.476-7.775-3.612-8.05c-0.104-0.275-0.275-0.344-0.929-0.378h-2.753
			c-0.654,0-0.896,0.137-0.896,0.653v7.568c0,0.344-0.308,0.62-0.653,0.62h-2.752C930.493,90.051,930.184,89.776,930.184,89.431z
			 M938.061,76.771c1.79,0,3.27-1.444,3.27-3.199c0-1.789-1.479-3.199-3.27-3.199h-3.199c-0.412,0-0.62,0.207-0.62,0.688v5.16
			c0,0.344,0.208,0.55,0.517,0.55H938.061z"/>
		<path d="M957.259,89.57V70.923c0-0.413-0.412-0.825-0.86-0.825h-5.779c-0.205,0-0.411-0.207-0.411-0.413v-3.337
			c0-0.206,0.171-0.377,0.411-0.377h18.164c0.278,0,0.483,0.206,0.483,0.447v3.233c0,0.241-0.205,0.448-0.483,0.448h-5.709
			c-0.448,0-0.825,0.378-0.825,0.825V89.57c0,0.241-0.174,0.447-0.447,0.447h-4.095C957.432,90.016,957.259,89.81,957.259,89.57z"/>
		<path d="M975.118,89.397V66.554c0-0.344,0.309-0.654,0.653-0.654h3.578c0.343,0,0.619,0.31,0.619,0.654v22.843
			c0,0.344-0.276,0.619-0.619,0.619h-3.578C975.427,90.016,975.118,89.741,975.118,89.397z"/>
		<path d="M310.698,130.685v-22.843c0-0.344,0.31-0.654,0.653-0.654h3.578c0.344,0,0.619,0.31,0.619,0.654v22.843
			c0,0.344-0.274,0.62-0.619,0.62h-3.578C311.008,131.305,310.698,131.029,310.698,130.685z"/>
		<path d="M336.675,130.685v-22.809c0-0.344,0.276-0.619,0.584-0.619h3.372c0.206,0,0.413,0.138,0.516,0.344l5.229,8.67
			c0,0,0.207,0.344,0.584,0.344h0.069c0.378,0,0.516-0.379,0.516-0.379l5.194-8.601c0.138-0.206,0.276-0.378,0.55-0.378h3.406
			c0.309,0,0.585,0.275,0.585,0.619v22.809c0,0.344-0.276,0.62-0.585,0.62h-3.372c-0.378,0-0.619-0.276-0.619-0.62v-13.658
			c0-0.413-0.172-0.481-0.447-0.068l-3.612,5.126c-0.379,0.55-0.55,0.722-1.308,0.722h-0.584c-0.895,0-1.066-0.103-1.376-0.55
			l-3.716-5.264c-0.275-0.413-0.447-0.413-0.447,0v13.692c0,0.344-0.275,0.62-0.62,0.62h-3.337
			C336.95,131.305,336.675,131.029,336.675,130.685z"/>
		<path d="M363.959,130.685v-22.843c0-0.344,0.31-0.654,0.654-0.654h3.577c0.345,0,0.619,0.31,0.619,0.654v22.843
			c0,0.344-0.274,0.62-0.619,0.62h-3.577C364.268,131.305,363.959,131.029,363.959,130.685z"/>
		<path d="M374.487,119.263c0-6.915,5.573-12.487,12.488-12.487c0.55,0,1.032,0.034,1.548,0.104
			c0.413,0.033,0.653,0.412,0.584,0.825l-0.55,2.993c-0.068,0.413-0.413,0.585-0.791,0.55c-0.276-0.035-0.516-0.035-0.792-0.035
			c-4.438,0-8.05,3.613-8.05,8.05c0,4.438,3.612,8.051,8.05,8.051c3.44,0,6.021-2.167,7.19-5.229h-4.438
			c-0.379,0-0.688-0.31-0.688-0.688v-2.511c0-0.378,0.309-0.688,0.688-0.688h7.328c1.101,0,1.72,0.379,1.72,1.066
			c0,6.916-4.885,12.488-11.8,12.488C380.06,131.752,374.487,126.179,374.487,119.263z"/>
		<path d="M403.423,130.582v-22.671c0-0.378,0.344-0.722,0.722-0.722h3.543c0.413,0,0.722,0.344,0.722,0.722v18.13
			c0,0.378,0.31,0.723,0.688,0.723h8.326c0.413,0,0.722,0.31,0.722,0.688v3.131c0,0.413-0.309,0.723-0.722,0.723h-13.279
			C403.767,131.305,403.423,130.995,403.423,130.582z"/>
		<path d="M425.029,130.685v-22.843c0-0.344,0.31-0.654,0.654-0.654h3.578c0.344,0,0.619,0.31,0.619,0.654v22.843
			c0,0.344-0.275,0.62-0.619,0.62h-3.578C425.339,131.305,425.029,131.029,425.029,130.685z"/>
		<path d="M436.314,123.289l-0.068-0.172c-1.273-3.888-0.585-8.394,2.271-11.8c2.202-2.339,4.473-4.128,8.738-4.369h0.103
			c1.926-0.103,3.819,0.241,5.642,1.033c2.305,1.032,4.679,3.233,5.642,5.126c2.408,4.231,2.133,9.392-0.688,13.313
			c-1.067,1.515-2.305,2.719-4.37,3.819c-3.233,1.617-7.121,1.858-10.699,0.31C439.686,129.068,437.346,126.385,436.314,123.289z
			 M455.133,122.463c1.754-3.99,0-8.635-3.956-10.424c-2.959-1.307-6.399-0.722-8.669,1.479l-0.584,0.62
			c-2.787,3.406-2.374,8.394,0.963,11.146c2.442,2.064,5.849,2.442,8.635,1.032C453.447,125.216,454.651,123.598,455.133,122.463z"
			/>
		<path d="M464.837,130.72v-22.877c0-0.344,0.31-0.62,0.654-0.62h7.225c4.335,0,7.844,3.371,7.844,7.637
			c0,2.443-1.239,4.576-3.063,6.021c-0.344,0.31-0.137,0.723-0.137,0.723l3.99,8.91c0.275,0.619,0.034,0.826-0.344,0.826h-3.027
			c-0.448,0-0.688,0-0.895-0.413c0,0-3.475-7.775-3.613-8.049c-0.103-0.276-0.275-0.345-0.928-0.379h-2.752
			c-0.654,0-0.895,0.138-0.895,0.653v7.569c0,0.344-0.31,0.619-0.654,0.619h-2.752C465.147,131.339,464.837,131.064,464.837,130.72z
			 M472.716,118.059c1.789,0,3.268-1.444,3.268-3.199c0-1.789-1.479-3.199-3.268-3.199h-3.199c-0.413,0-0.62,0.206-0.62,0.688v5.161
			c0,0.344,0.207,0.55,0.516,0.55H472.716z"/>
		<path d="M487.614,130.685v-22.843c0-0.344,0.31-0.654,0.654-0.654h3.577c0.345,0,0.62,0.31,0.62,0.654v22.843
			c0,0.344-0.275,0.62-0.62,0.62h-3.577C487.923,131.305,487.614,131.029,487.614,130.685z"/>
		<path d="M513.762,130.685v-22.809c0-0.344,0.275-0.619,0.62-0.619h8.015c4.231,0,7.604,3.406,7.604,7.603
			c0,4.232-3.372,7.603-7.604,7.603h-3.44c-0.516,0-0.86,0.138-0.86,0.688v7.534c0,0.344-0.274,0.62-0.62,0.62h-3.095
			C514.038,131.305,513.762,131.029,513.762,130.685z M522.397,118.059c1.755,0,3.2-1.41,3.2-3.199c0-1.754-1.445-3.165-3.2-3.165
			h-3.475c-0.585,0-0.826,0.241-0.826,0.688v5.676H522.397z"/>
		<path d="M535.06,130.72v-22.877c0-0.344,0.31-0.62,0.653-0.62h7.225c4.335,0,7.844,3.371,7.844,7.637
			c0,2.443-1.238,4.576-3.062,6.021c-0.345,0.31-0.138,0.723-0.138,0.723l3.99,8.91c0.275,0.619,0.034,0.826-0.344,0.826h-3.027
			c-0.447,0-0.688,0-0.895-0.413c0,0-3.475-7.775-3.613-8.049c-0.103-0.276-0.274-0.345-0.928-0.379h-2.752
			c-0.654,0-0.896,0.138-0.896,0.653v7.569c0,0.344-0.31,0.619-0.653,0.619h-2.752C535.37,131.339,535.06,131.064,535.06,130.72z
			 M542.938,118.059c1.789,0,3.269-1.444,3.269-3.199c0-1.789-1.479-3.199-3.269-3.199h-3.199c-0.413,0-0.62,0.206-0.62,0.688v5.161
			c0,0.344,0.207,0.55,0.517,0.55H542.938z"/>
		<path d="M556.013,123.289l-0.068-0.172c-1.273-3.888-0.585-8.394,2.27-11.8c2.203-2.339,4.474-4.128,8.738-4.369h0.104
			c1.928-0.103,3.819,0.241,5.643,1.033c2.305,1.032,4.679,3.233,5.642,5.126c2.408,4.231,2.134,9.392-0.688,13.313
			c-1.065,1.515-2.305,2.719-4.368,3.819c-3.234,1.617-7.122,1.858-10.699,0.31C559.385,129.068,557.046,126.385,556.013,123.289z
			 M574.832,122.463c1.755-3.99,0-8.635-3.956-10.424c-2.959-1.307-6.399-0.722-8.669,1.479l-0.585,0.62
			c-2.787,3.406-2.374,8.394,0.963,11.146c2.442,2.064,5.849,2.442,8.635,1.032C573.146,125.216,574.35,123.598,574.832,122.463z"/>
		<path d="M585.156,130.17v-22.086c0-0.413,0.31-0.757,0.722-0.757h6.882c6.604,0,11.903,5.333,11.903,11.938
			c0,6.572-5.298,11.903-11.903,11.903h-6.606C585.602,131.167,585.156,130.72,585.156,130.17z M592.76,126.729
			c4.127,0,7.5-3.336,7.5-7.465c0-4.128-3.373-7.499-7.5-7.499h-2.753c-0.241,0-0.413,0.172-0.413,0.413v14.551H592.76z"/>
		<path d="M609.757,123.289l-0.067-0.172c-1.275-3.888-0.586-8.394,2.269-11.8c2.202-2.339,4.473-4.128,8.738-4.369h0.104
			c1.926-0.103,3.817,0.241,5.641,1.033c2.307,1.032,4.68,3.233,5.644,5.126c2.407,4.231,2.132,9.392-0.688,13.313
			c-1.066,1.515-2.306,2.719-4.37,3.819c-3.232,1.617-7.121,1.858-10.697,0.31C613.129,129.068,610.789,126.385,609.757,123.289z
			 M628.576,122.463c1.754-3.99,0-8.635-3.958-10.424c-2.958-1.307-6.398-0.722-8.669,1.479l-0.584,0.62
			c-2.787,3.406-2.374,8.394,0.964,11.146c2.441,2.064,5.848,2.442,8.633,1.032C626.889,125.216,628.094,123.598,628.576,122.463z"
			/>
		<path d="M642.993,130.857v-18.646c0-0.413-0.414-0.825-0.859-0.825h-5.78c-0.206,0-0.413-0.207-0.413-0.413v-3.338
			c0-0.206,0.173-0.378,0.413-0.378h18.165c0.275,0,0.481,0.206,0.481,0.447v3.234c0,0.241-0.206,0.447-0.481,0.447h-5.712
			c-0.446,0-0.824,0.378-0.824,0.825v18.646c0,0.241-0.174,0.448-0.448,0.448h-4.094
			C643.166,131.305,642.993,131.098,642.993,130.857z"/>
		<path d="M667.561,130.857v-18.646c0-0.413-0.414-0.825-0.861-0.825h-5.779c-0.206,0-0.412-0.207-0.412-0.413v-3.338
			c0-0.206,0.172-0.378,0.412-0.378h18.165c0.273,0,0.482,0.206,0.482,0.447v3.234c0,0.241-0.209,0.447-0.482,0.447h-5.712
			c-0.446,0-0.825,0.378-0.825,0.825v18.646c0,0.241-0.172,0.448-0.447,0.448h-4.096
			C667.732,131.305,667.561,131.098,667.561,130.857z"/>
		<path d="M685.416,130.685v-22.843c0-0.344,0.311-0.654,0.654-0.654h3.577c0.344,0,0.62,0.31,0.62,0.654v22.843
			c0,0.344-0.276,0.62-0.62,0.62h-3.577C685.727,131.305,685.416,131.029,685.416,130.685z"/>
		<path d="M712.633,130.685v-22.843c0-0.344,0.308-0.654,0.653-0.654h3.577c0.345,0,0.619,0.31,0.619,0.654v22.843
			c0,0.344-0.274,0.62-0.619,0.62h-3.577C712.941,131.305,712.633,131.029,712.633,130.685z"/>
		<path d="M724.434,130.755V107.74c0-0.276,0.241-0.482,0.516-0.482h3.509c0.208,0,0.275,0.068,0.38,0.241l8.153,13.795
			c0.515,0.929,0.894,0.895,0.894-0.069l-0.068-13.485c0-0.276,0.24-0.482,0.515-0.482h3.612c0.276,0,0.517,0.206,0.517,0.482
			v23.015c0,0.274-0.24,0.481-0.517,0.481h-2.441c-0.758,0-0.998-0.035-1.375-0.654l-8.672-13.795
			c-0.308-0.481-0.653-0.378-0.653,0.172l0.069,13.795c0,0.274-0.24,0.481-0.482,0.481h-3.439
			C724.675,131.236,724.434,131.029,724.434,130.755z"/>
		<path d="M762.487,128.449c-0.481-0.515-0.139-1.204,0.998-2.821c0.274-0.344,0.55-0.413,0.895-0.275
			c3.681,1.892,5.746,1.892,7.432,1.892c3.336,0,4.78-1.754,3.062-3.956c-0.861-1.136-3.612-1.652-4.783-2.03
			c-3.612-1.066-5.71-2.511-6.398-4.885c-1.444-4.438,1.514-8.428,7.362-9.048c1.995-0.172,4.265,0.207,6.088,0.963
			c1.791,0.895,2.581,1.686,2.376,2.271c-0.276,0.653-1.102,1.651-1.583,2.305c-0.413,0.516-1.72-0.585-3.303-0.929
			c-1.342-0.275-2.856-0.653-4.815,0.034c-2.065,0.998-2.478,2.786-0.896,3.99c1.652,1.17,3.75,1.893,5.023,2.34
			c1.272,0.482,3.302,1.169,4.334,2.442c0.93,0.895,1.618,2.718,1.618,4.163c0,3.818-3.234,6.227-7.843,6.295
			C768.301,131.27,763.931,129.757,762.487,128.449z"/>
		<path d="M783.888,119.263c0-6.811,5.436-12.351,12.179-12.351c3.439,0,6.673,1.446,8.979,3.991c0.274,0.31,0.24,0.653-0.033,0.895
			c-0.793,0.654-2.411,2.065-2.444,2.099c-0.274,0.276-0.688,0.276-0.93,0c-1.478-1.582-3.473-2.477-5.571-2.477
			c-4.231,0-7.673,3.544-7.673,7.843c0,4.301,3.441,7.844,7.673,7.844c1.995,0,3.886-0.826,5.331-2.271
			c0.414-0.344,1.033-0.378,1.309-0.069c0.136,0.104,1.687,1.411,2.029,1.755c0.412,0.344,0.517,0.929,0.171,1.239
			c-2.306,2.477-5.469,3.853-8.84,3.853C789.323,131.615,783.888,126.11,783.888,119.263z"/>
		<path d="M809.314,123.289l-0.068-0.172c-1.273-3.888-0.585-8.394,2.27-11.8c2.203-2.339,4.473-4.128,8.738-4.369h0.104
			c1.927-0.103,3.817,0.241,5.641,1.033c2.307,1.032,4.679,3.233,5.643,5.126c2.408,4.231,2.132,9.392-0.688,13.313
			c-1.066,1.515-2.307,2.719-4.369,3.819c-3.235,1.617-7.122,1.858-10.699,0.31C812.685,129.068,810.347,126.385,809.314,123.289z
			 M828.132,122.463c1.755-3.99,0-8.635-3.957-10.424c-2.957-1.307-6.398-0.722-8.669,1.479l-0.584,0.62
			c-2.787,3.406-2.375,8.394,0.963,11.146c2.441,2.064,5.848,2.442,8.635,1.032C826.447,125.216,827.651,123.598,828.132,122.463z"
			/>
		<path d="M837.63,130.755V107.74c0-0.276,0.24-0.482,0.517-0.482h3.508c0.207,0,0.276,0.068,0.379,0.241l8.153,13.795
			c0.516,0.929,0.895,0.895,0.895-0.069l-0.069-13.485c0-0.276,0.241-0.482,0.518-0.482h3.612c0.274,0,0.515,0.206,0.515,0.482
			v23.015c0,0.274-0.24,0.481-0.515,0.481h-2.443c-0.757,0-0.997-0.035-1.377-0.654l-8.669-13.795
			c-0.31-0.481-0.653-0.378-0.653,0.172l0.069,13.795c0,0.274-0.24,0.481-0.481,0.481h-3.44
			C837.87,131.236,837.63,131.029,837.63,130.755z"/>
		<path d="M867.941,130.857v-18.646c0-0.413-0.412-0.825-0.861-0.825h-5.778c-0.205,0-0.413-0.207-0.413-0.413v-3.338
			c0-0.206,0.173-0.378,0.413-0.378h18.165c0.275,0,0.481,0.206,0.481,0.447v3.234c0,0.241-0.206,0.447-0.481,0.447h-5.71
			c-0.448,0-0.825,0.378-0.825,0.825v18.646c0,0.241-0.174,0.448-0.448,0.448h-4.094
			C868.113,131.305,867.941,131.098,867.941,130.857z"/>
		<path d="M883.286,123.289l-0.068-0.172c-1.271-3.888-0.584-8.394,2.271-11.8c2.202-2.339,4.474-4.128,8.739-4.369h0.103
			c1.926-0.103,3.819,0.241,5.643,1.033c2.306,1.032,4.678,3.233,5.641,5.126c2.409,4.231,2.135,9.392-0.687,13.313
			c-1.067,1.515-2.306,2.719-4.37,3.819c-3.232,1.617-7.121,1.858-10.699,0.31C886.657,129.068,884.32,126.385,883.286,123.289z
			 M902.106,122.463c1.754-3.99,0-8.635-3.956-10.424c-2.958-1.307-6.399-0.722-8.67,1.479l-0.585,0.62
			c-2.785,3.406-2.373,8.394,0.963,11.146c2.444,2.064,5.848,2.442,8.635,1.032C900.419,125.216,901.623,123.598,902.106,122.463z"
			/>
	</g>
	<g>
		<path fill="#1D1D1B" d="M393.51,616.749V590.19c0-0.588-0.589-1.179-1.225-1.179h-8.233c-0.293,0-0.589-0.293-0.589-0.587v-4.751
			c0-0.296,0.247-0.54,0.589-0.54h25.874c0.391,0,0.686,0.293,0.686,0.635v4.608c0,0.342-0.295,0.635-0.686,0.635h-8.135
			c-0.637,0-1.176,0.54-1.176,1.179v26.559c0,0.344-0.245,0.636-0.637,0.636h-5.832C393.755,617.385,393.51,617.093,393.51,616.749z
			"/>
		<path fill="#1D1D1B" d="M412.575,614.739c0-2.156,1.666-3.872,3.773-3.872c2.107,0,3.774,1.716,3.774,3.872
			c0,2.107-1.667,3.772-3.774,3.772C414.241,618.511,412.575,616.846,412.575,614.739z"/>
		<path fill="#1D1D1B" d="M426.689,616.505v-32.489c0-0.492,0.392-0.882,0.832-0.882h4.803c0.293,0,0.588,0.196,0.735,0.489
			l7.448,12.348c0,0,0.293,0.491,0.833,0.491h0.099c0.538,0,0.734-0.539,0.734-0.539l7.399-12.249
			c0.196-0.296,0.393-0.54,0.784-0.54h4.852c0.441,0,0.833,0.39,0.833,0.882v32.489c0,0.488-0.392,0.88-0.833,0.88h-4.803
			c-0.539,0-0.881-0.392-0.881-0.88V597.05c0-0.588-0.245-0.686-0.638-0.099l-5.145,7.302c-0.539,0.784-0.784,1.029-1.862,1.029
			h-0.833c-1.274,0-1.52-0.146-1.96-0.785l-5.293-7.498c-0.391-0.588-0.637-0.588-0.637,0v19.506c0,0.488-0.392,0.88-0.883,0.88
			h-4.753C427.081,617.385,426.689,616.993,426.689,616.505z"/>
		<path fill="#1D1D1B" d="M464.571,616.355v-32.292c0-0.489,0.391-0.882,0.882-0.882h21.952c0.49,0,0.882,0.393,0.882,0.882v4.116
			c0,0.489-0.392,0.883-0.882,0.883h-15.827c-0.49,0-0.883,0.391-0.883,0.883v7.203c0,0.635-0.048,0.931,1.128,0.931h12.251
			c0.44,0,0.833,0.343,0.833,0.783v4.164c0,0.442-0.392,0.785-0.833,0.785h-12.3c-1.029,0-1.079,0.883-1.079,1.127v5.195
			c0,0.489,0.099,1.176,1.372,1.176h15.68c0.491,0,0.882,0.441,0.882,0.93v4.116c0,0.491-0.391,0.884-0.882,0.884h-22.294
			C464.962,617.239,464.571,616.846,464.571,616.355z"/>
		<path fill="#1D1D1B" d="M495.886,615.621l14.357-30.871c0.197-0.441,0.785-0.832,1.274-0.832h4.95
			c0.489,0,0.735,0.391,0.539,0.832l-14.359,30.871c-0.196,0.442-0.783,0.785-1.273,0.785h-4.949
			C495.935,616.406,495.69,616.063,495.886,615.621z"/>
		<path fill="#1D1D1B" d="M524.654,613.319c-0.687-0.736-0.196-1.715,1.421-4.02c0.392-0.49,0.784-0.588,1.274-0.392
			c5.243,2.696,8.184,2.696,10.584,2.696c4.753,0,6.812-2.499,4.361-5.637c-1.226-1.617-5.146-2.351-6.812-2.89
			c-5.145-1.521-8.134-3.579-9.114-6.959c-2.058-6.322,2.156-12.007,10.486-12.887c2.842-0.245,6.076,0.291,8.674,1.371
			c2.547,1.274,3.675,2.401,3.381,3.233c-0.392,0.931-1.568,2.354-2.255,3.284c-0.587,0.733-2.449-0.833-4.704-1.324
			c-1.91-0.392-4.066-0.932-6.859,0.051c-2.94,1.419-3.528,3.97-1.274,5.685c2.352,1.664,5.341,2.693,7.154,3.33
			c1.813,0.687,4.704,1.665,6.174,3.479c1.323,1.276,2.303,3.871,2.303,5.929c0,5.44-4.604,8.87-11.172,8.97
			C532.935,617.337,526.712,615.18,524.654,613.319z"/>
		<path fill="#1D1D1B" d="M557.096,616.699V583.72c0-0.391,0.294-0.686,0.687-0.686h5.145c0.392,0,0.687,0.343,0.687,0.686v12.79
			c0,0.587,0.538,1.126,1.127,1.126h9.311c0.587,0,1.078-0.488,1.127-1.126v-12.79c0-0.343,0.293-0.686,0.686-0.686h5.146
			c0.391,0,0.687,0.295,0.687,0.686v32.979c0,0.394-0.296,0.686-0.687,0.686h-5.146c-0.393,0-0.686-0.343-0.686-0.686v-11.367
			c-0.049-0.686-0.54-1.127-1.127-1.127h-9.311c-0.589,0-1.078,0.441-1.127,1.077v11.417c0,0.343-0.295,0.686-0.687,0.686h-5.145
			C557.39,617.385,557.096,617.093,557.096,616.699z"/>
		<path fill="#1D1D1B" d="M589.147,605.968l-0.099-0.245c-1.813-5.538-0.833-11.956,3.234-16.807
			c3.137-3.334,6.371-5.881,12.448-6.224h0.146c2.744-0.146,5.439,0.343,8.036,1.47c3.284,1.471,6.665,4.605,8.037,7.301
			c3.43,6.028,3.036,13.377-0.98,18.963c-1.519,2.157-3.284,3.872-6.224,5.441c-4.606,2.302-10.144,2.645-15.24,0.44
			C593.95,614.199,590.617,610.379,589.147,605.968z M615.951,604.792c2.5-5.684,0-12.3-5.635-14.847
			c-4.214-1.863-9.114-1.029-12.349,2.106l-0.834,0.883c-3.969,4.849-3.381,11.956,1.373,15.875c3.48,2.941,8.331,3.48,12.3,1.47
			C613.551,608.712,615.266,606.409,615.951,604.792z"/>
		<path fill="#1D1D1B" d="M630.068,616.505v-32.489c0-0.492,0.394-0.882,0.884-0.882h11.416c6.027,0,10.829,4.85,10.829,10.829
			c0,6.027-4.802,10.829-10.829,10.829h-4.899c-0.734,0-1.226,0.197-1.226,0.979v10.734c0,0.488-0.393,0.88-0.882,0.88h-4.409
			C630.461,617.385,630.068,616.993,630.068,616.505z M642.367,598.52c2.5,0,4.558-2.01,4.558-4.558c0-2.5-2.058-4.51-4.558-4.51
			h-4.948c-0.835,0-1.177,0.344-1.177,0.981v8.086H642.367z"/>
		<path fill="#1D1D1B" d="M660.501,616.355v-32.292c0-0.489,0.393-0.882,0.883-0.882h21.952c0.49,0,0.882,0.393,0.882,0.882v4.116
			c0,0.489-0.392,0.883-0.882,0.883h-15.827c-0.489,0-0.882,0.391-0.882,0.883v7.203c0,0.635-0.048,0.931,1.127,0.931h12.251
			c0.44,0,0.833,0.343,0.833,0.783v4.164c0,0.442-0.393,0.785-0.833,0.785h-12.3c-1.029,0-1.078,0.883-1.078,1.127v5.195
			c0,0.489,0.098,1.176,1.372,1.176h15.68c0.49,0,0.882,0.441,0.882,0.93v4.116c0,0.491-0.392,0.884-0.882,0.884h-22.295
			C660.894,617.239,660.501,616.846,660.501,616.355z"/>
		<path fill="#1D1D1B" d="M693.777,616.355l-1.176-2.646c-0.342-0.733-0.342-1.077,0.099-1.666l15.777-21.413
			c0.638-0.934,0.244-1.715-0.883-1.715h-14.603c-0.538,0-0.979-0.44-0.979-0.98v-3.823c0-0.538,0.44-0.979,0.979-0.979h23.865
			c0.538,0,0.979,0.44,0.979,0.979v3.626c0,0.492-0.146,0.884-0.441,1.324l-15.631,20.875c-0.687,0.93-0.442,1.667,0.735,1.667
			l14.406-0.099c0.587,0,1.028,0.441,1.028,1.029v3.722c0,0.54-0.441,0.982-0.979,0.982h-21.61
			C694.463,617.239,694.072,617.042,693.777,616.355z"/>
		<path fill="#1D1D1B" d="M725.143,616.699V583.72c0-0.391,0.293-0.686,0.687-0.686h5.145c0.391,0,0.686,0.343,0.686,0.686v12.79
			c0,0.587,0.538,1.126,1.127,1.126h9.31c0.589,0,1.079-0.488,1.127-1.126v-12.79c0-0.343,0.295-0.686,0.686-0.686h5.146
			c0.392,0,0.687,0.295,0.687,0.686v32.979c0,0.394-0.295,0.686-0.687,0.686h-5.146c-0.391,0-0.686-0.343-0.686-0.686v-11.367
			c-0.048-0.686-0.538-1.127-1.127-1.127h-9.31c-0.589,0-1.079,0.441-1.127,1.077v11.417c0,0.343-0.295,0.686-0.686,0.686h-5.145
			C725.436,617.385,725.143,617.093,725.143,616.699z"/>
		<path fill="#1D1D1B" d="M758.32,605.722v-21.707c0-0.492,0.391-0.933,0.88-0.933h4.705c0.49,0,0.881,0.44,0.881,0.933v21.707
			c0,3.186,2.55,5.783,5.734,5.783c3.724,0,6.861-2.598,6.861-5.783v-21.707c0-0.492,0.391-0.933,0.881-0.933h4.705
			c0.489,0,0.881,0.44,0.881,0.933v21.707c0,6.663-5.488,12.056-13.328,12.056C763.856,617.778,758.32,612.385,758.32,605.722z"/>
		<path fill="#1D1D1B" d="M792.574,616.406v-32.244c0-0.832,0.147-0.98,1.079-0.98h9.212c5.488,0,9.947,4.411,9.947,9.95
			c0,1.907-0.54,3.772-1.617,5.338c3.382,1.911,5.342,5.243,5.342,8.87c0,5.487-4.411,9.899-9.997,9.946l-12.69,0.051
			C792.967,617.337,792.574,617.042,792.574,616.406z M802.963,597.344c2.253,0,4.165-1.912,4.165-4.213
			c0-2.354-1.96-4.267-4.263-4.267h-3.577c-0.688,0-1.031,0.442-1.031,1.325v5.929c0,0.785,0.442,1.226,1.226,1.226H802.963z
			 M806,611.604c2.4,0,4.266-1.864,4.266-4.265c0-2.401-1.865-4.262-4.266-4.262h-6.518c-0.783,0-1.226,0.44-1.226,1.226v6.122
			c0,0.785,0.442,1.226,1.226,1.226L806,611.604z"/>
	</g>
</g>
</svg>
