<?xml version="1.0" encoding="utf-8"?>
<!-- Generator: Adobe Illustrator 16.0.0, SVG Export Plug-In . SVG Version: 6.00 Build 0)  -->
<!DOCTYPE svg PUBLIC "-//W3C//DTD SVG 1.1//EN" "http://www.w3.org/Graphics/SVG/1.1/DTD/svg11.dtd">
<svg version="1.1" id="Livello_1" xmlns="http://www.w3.org/2000/svg" xmlns:xlink="http://www.w3.org/1999/xlink" x="0px" y="0px"
	 width="1200px" height="684px" viewBox="0 0 1200 684" enable-background="new 0 0 1200 684" xml:space="preserve">
<rect fill="#1D99B5" width="1200" height="684"/>
<g>
	<g id="Layer_1_110_">
		<g>
			<path fill="#4FAF46" d="M535.368,286.622l-31.145-29.435c3.628-6.591,5.872-14.053,5.872-22.103
				c0-25.514-20.666-46.179-46.189-46.179s-46.222,20.654-46.222,46.179c0,25.523,20.698,46.199,46.222,46.199
				c8.998,0,17.321-2.68,24.424-7.124l31.101,29.401C524.137,297.342,529.442,291.645,535.368,286.622z"/>
			<path fill="#4FAF46" d="M667.104,282.94l41.386-69.644c4.074,1.166,8.301,2.005,12.734,2.005c25.567,0,46.232-20.676,46.232-46.2
				c0-25.513-20.665-46.178-46.232-46.178c-25.523,0-46.179,20.654-46.179,46.178c0,12.67,5.109,24.119,13.367,32.475
				l-41.254,69.446C654.25,274.236,660.939,278.245,667.104,282.94z"/>
			<path fill="#4FAF46" d="M809.833,341.243c-19.87,0-36.7,12.625-43.226,30.229l-57.497-5.676c0,0.436,0.065,0.85,0.065,1.274
				c0,7.495-0.827,14.815-2.32,21.886l57.475,5.676c3.476,22.048,22.463,38.955,45.503,38.955c25.513,0,46.167-20.654,46.167-46.167
				C856,361.919,835.346,341.243,809.833,341.243z"/>
			<path fill="#4FAF46" d="M651.168,522.861l-12.854-56.168c-7.256,2.527-14.805,4.336-22.681,5.24l12.876,56.178
				c-14.761,7.724-24.946,22.986-24.946,40.808c0,25.513,20.654,46.156,46.222,46.156c25.513,0,46.167-20.654,46.167-46.156
				C695.984,543.875,676.026,523.602,651.168,522.861z"/>
			<path fill="#4FAF46" d="M500.4,389.371l-71.571,23.977c-8.258-12.615-22.474-20.981-38.65-20.981
				c-25.524,0-46.179,20.665-46.179,46.178c0,25.546,20.654,46.211,46.179,46.211c25.502,0,46.21-20.665,46.21-46.211
				c0-1.067-0.229-2.048-0.315-3.094l71.8-24.042C504.638,404.426,502.066,397.072,500.4,389.371z"/>
			<circle fill="#4FAF46" cx="603.595" cy="367.072" r="79.208"/>
		</g>
	</g>
</g>
<g>
	<path d="M244.326,91.56V38.519c0-0.8,0.64-1.44,1.44-1.44h18.64c9.84,0,17.681,7.92,17.681,17.681c0,9.84-7.84,17.68-17.681,17.68
		h-8c-1.2,0-2,0.32-2,1.6V91.56c0,0.8-0.64,1.44-1.44,1.44h-7.2C244.965,93,244.326,92.36,244.326,91.56z M264.406,62.199
		c4.08,0,7.44-3.28,7.44-7.44c0-4.08-3.36-7.36-7.44-7.36h-8.08c-1.36,0-1.92,0.56-1.92,1.6v13.2H264.406z"/>
	<path d="M294.005,91.32V38.599c0-0.8,0.64-1.44,1.44-1.44h35.841c0.8,0,1.44,0.64,1.44,1.44v6.72c0,0.8-0.64,1.44-1.44,1.44
		h-25.841c-0.8,0-1.44,0.64-1.44,1.44v11.76c0,1.04-0.08,1.52,1.84,1.52h20c0.72,0,1.36,0.56,1.36,1.28v6.8
		c0,0.72-0.64,1.28-1.36,1.28h-20.08c-1.68,0-1.76,1.44-1.76,1.84v8.48c0,0.8,0.16,1.92,2.24,1.92h25.601c0.8,0,1.44,0.72,1.44,1.52
		v6.72c0,0.8-0.64,1.44-1.44,1.44h-36.401C294.645,92.76,294.005,92.12,294.005,91.32z"/>
	<path d="M345.924,91.64V38.439c0-0.8,0.72-1.44,1.52-1.44h16.801c10.08,0,18.24,7.84,18.24,17.761c0,5.68-2.88,10.64-7.12,14
		c-0.8,0.72-0.32,1.68-0.32,1.68l9.28,20.721c0.641,1.44,0.08,1.92-0.8,1.92h-7.04c-1.04,0-1.6,0-2.08-0.96
		c0,0-8.08-18.081-8.4-18.721c-0.239-0.64-0.64-0.8-2.16-0.88h-6.399c-1.521,0-2.08,0.32-2.08,1.52V91.64
		c0,0.8-0.721,1.44-1.521,1.44h-6.4C346.644,93.08,345.924,92.44,345.924,91.64z M364.245,62.199c4.16,0,7.601-3.36,7.601-7.44
		c0-4.16-3.44-7.44-7.601-7.44h-7.44c-0.96,0-1.439,0.48-1.439,1.6v12c0,0.8,0.479,1.28,1.2,1.28H364.245z"/>
	<path d="M392.883,65c0-15.84,12.641-28.721,28.32-28.721c8,0,15.521,3.36,20.881,9.28c0.64,0.72,0.56,1.52-0.08,2.08
		c-1.84,1.52-5.601,4.8-5.681,4.88c-0.64,0.64-1.6,0.64-2.159,0c-3.44-3.68-8.081-5.76-12.961-5.76c-9.84,0-17.84,8.24-17.84,18.241
		c0,10,8,18.24,17.84,18.24c4.641,0,9.04-1.92,12.4-5.28c0.96-0.8,2.4-0.88,3.04-0.16c0.32,0.24,3.92,3.28,4.721,4.08
		c0.96,0.8,1.199,2.16,0.399,2.88c-5.36,5.76-12.72,8.96-20.561,8.96C405.524,93.72,392.883,80.92,392.883,65z"/>
	<path d="M454.242,91.88V38.039c0-0.64,0.48-1.12,1.12-1.12h8.4c0.64,0,1.12,0.56,1.12,1.12v20.881c0,0.96,0.88,1.84,1.84,1.84h15.2
		c0.96,0,1.76-0.8,1.84-1.84V38.039c0-0.56,0.48-1.12,1.12-1.12h8.4c0.64,0,1.12,0.48,1.12,1.12V91.88c0,0.64-0.48,1.12-1.12,1.12
		h-8.4c-0.64,0-1.12-0.56-1.12-1.12V73.319c-0.08-1.12-0.88-1.84-1.84-1.84h-15.2c-0.96,0-1.76,0.72-1.84,1.76v18.64
		c0,0.56-0.48,1.12-1.12,1.12h-8.4C454.722,93,454.242,92.52,454.242,91.88z"/>
	<path d="M506.722,45.319v-6.88c0-0.8,0.64-1.44,1.439-1.44h37.121c0.8,0,1.521,0.64,1.521,1.44v6.88c0,0.8-0.721,1.52-1.521,1.52
		h-37.121C507.362,46.839,506.722,46.119,506.722,45.319z M506.722,91.56V54.599c0-0.8,0.64-1.44,1.439-1.44h6.801
		c0.8,0,1.439,0.64,1.439,1.44v5.76c0,0.24,0,1.52,2.08,1.52h20.161c0.72,0,1.359,0.56,1.359,1.28v6.88c0,0.72-0.64,1.28-1.359,1.28
		h-20.4c-0.881,0-1.841,0.24-1.841,1.68v8.72c0,0.8,0.721,1.52,1.521,1.52h27.521c0.8,0,1.44,0.64,1.44,1.44v6.88
		c0,0.8-0.641,1.44-1.44,1.44h-37.281C507.362,93,506.722,92.36,506.722,91.56z M525.203,33.958l-1.76-8.08
		c-0.08-0.64,0.319-1.28,1.039-1.28h2.961c0.72,0,1.439,0.64,1.52,1.28l1.76,8.08c0.08,0.64-0.319,1.28-1.04,1.28h-2.96
		C526.002,35.239,525.283,34.599,525.203,33.958z"/>
	<path d="M594,86.36c-1.12-1.2-0.32-2.8,2.319-6.56c0.641-0.8,1.28-0.96,2.08-0.64c8.561,4.4,13.36,4.4,17.282,4.4
		c7.76,0,11.119-4.08,7.119-9.2c-2-2.64-8.4-3.84-11.121-4.72c-8.398-2.48-13.28-5.84-14.879-11.36
		c-3.36-10.32,3.521-19.601,17.12-21.041c4.641-0.4,9.922,0.48,14.16,2.24c4.16,2.08,6.002,3.92,5.521,5.28
		c-0.641,1.52-2.561,3.84-3.68,5.36c-0.961,1.2-4-1.36-7.682-2.16c-3.119-0.64-6.639-1.52-11.199,0.08
		c-4.801,2.32-5.76,6.48-2.08,9.28c3.84,2.72,8.721,4.4,11.68,5.44c2.961,1.12,7.68,2.72,10.08,5.68c2.16,2.08,3.76,6.32,3.76,9.68
		c0,8.88-7.52,14.48-18.24,14.64C607.521,92.92,597.36,89.4,594,86.36z"/>
	<path d="M646.959,91.88V38.039c0-0.64,0.48-1.12,1.121-1.12h8.4c0.639,0,1.119,0.56,1.119,1.12v20.881c0,0.96,0.881,1.84,1.84,1.84
		h15.201c0.959,0,1.76-0.8,1.84-1.84V38.039c0-0.56,0.48-1.12,1.119-1.12h8.4c0.641,0,1.121,0.48,1.121,1.12V91.88
		c0,0.64-0.48,1.12-1.121,1.12h-8.4c-0.639,0-1.119-0.56-1.119-1.12V73.319c-0.08-1.12-0.881-1.84-1.84-1.84h-15.201
		c-0.959,0-1.76,0.72-1.84,1.76v18.64c0,0.56-0.48,1.12-1.119,1.12h-8.4C647.439,93,646.959,92.52,646.959,91.88z"/>
	<path d="M699.279,74.359l-0.16-0.4c-2.961-9.04-1.361-19.521,5.279-27.44c5.121-5.44,10.4-9.6,20.32-10.16h0.24
		c4.48-0.24,8.881,0.56,13.121,2.4c5.359,2.4,10.879,7.52,13.119,11.92c5.602,9.84,4.961,21.84-1.6,30.96
		c-2.48,3.52-5.359,6.32-10.16,8.88c-7.52,3.76-16.561,4.32-24.881,0.72C707.119,87.8,701.68,81.56,699.279,74.359z M743.039,72.439
		c4.08-9.28,0-20.081-9.199-24.24c-6.881-3.041-14.881-1.68-20.16,3.44l-1.361,1.44c-6.479,7.92-5.52,19.521,2.24,25.92
		c5.682,4.8,13.602,5.68,20.08,2.4C739.119,78.84,741.92,75.08,743.039,72.439z"/>
	<path d="M766.078,91.56V38.519c0-0.8,0.639-1.44,1.439-1.44h18.641c9.84,0,17.68,7.92,17.68,17.681c0,9.84-7.84,17.68-17.68,17.68
		h-8c-1.201,0-2,0.32-2,1.6V91.56c0,0.8-0.641,1.44-1.441,1.44h-7.199C766.717,93,766.078,92.36,766.078,91.56z M786.158,62.199
		c4.08,0,7.439-3.28,7.439-7.44c0-4.08-3.359-7.36-7.439-7.36h-8.08c-1.361,0-1.92,0.56-1.92,1.6v13.2H786.158z"/>
	<path d="M815.758,91.32V38.599c0-0.8,0.639-1.44,1.439-1.44h35.84c0.801,0,1.441,0.64,1.441,1.44v6.72c0,0.8-0.641,1.44-1.441,1.44
		h-25.84c-0.801,0-1.439,0.64-1.439,1.44v11.76c0,1.04-0.08,1.52,1.84,1.52h20c0.721,0,1.359,0.56,1.359,1.28v6.8
		c0,0.72-0.639,1.28-1.359,1.28h-20.08c-1.68,0-1.76,1.44-1.76,1.84v8.48c0,0.8,0.16,1.92,2.24,1.92h25.6
		c0.801,0,1.439,0.72,1.439,1.52v6.72c0,0.8-0.639,1.44-1.439,1.44h-36.4C816.396,92.76,815.758,92.12,815.758,91.32z"/>
	<path d="M870.076,91.32L868.154,87c-0.559-1.2-0.559-1.76,0.16-2.72l25.762-34.961c1.039-1.52,0.4-2.8-1.439-2.8h-23.842
		c-0.879,0-1.6-0.72-1.6-1.6v-6.24c0-0.88,0.721-1.6,1.6-1.6h38.961c0.881,0,1.6,0.72,1.6,1.6v5.92c0,0.8-0.24,1.44-0.719,2.16
		L883.115,80.84c-1.119,1.52-0.719,2.72,1.201,2.72l23.52-0.16c0.961,0,1.68,0.72,1.68,1.68v6.081c0,0.88-0.719,1.6-1.6,1.6h-35.281
		C871.195,92.76,870.555,92.44,870.076,91.32z"/>
	<path d="M932.635,79.16v-18.32c0-0.64,0.48-1.2,1.361-1.52c0,0,0.639-0.24,1.279-0.4c2.48-0.88,6.08-1.12,8.4-3.12
		c2.24-2.08,2.4-6.48-0.881-8.16c-3.52-1.84-9.52,0.16-14.719,2.72c-1.041,0.56-2.32,0.48-2.961-0.32
		c-1.121-1.36-2.801-3.52-3.439-5.12c-0.48-1.12,0.08-2.32,0.879-2.96c3.68-3.12,11.521-5.521,17.041-5.521
		c10.48,0.56,14.881,5.041,16.561,12.641c1.76,7.68-2.881,15.6-10.881,18.16c-2,0.88-3.359,0.72-3.359,2.4v9.28
		c0,0.88-0.561,1.2-1.121,1.2h-7.119C932.955,80.12,932.635,79.8,932.635,79.16z M931.756,87.72c0-3.2,2.479-5.76,5.68-5.76
		c3.119,0,5.68,2.56,5.68,5.76c0,3.12-2.561,5.68-5.68,5.68C934.234,93.4,931.756,90.84,931.756,87.72z"/>
</g>
<g id="XMLID_76_">
	<path id="XMLID_112_" fill="#FAC176" d="M419.318,438.473c-1.125-1.57-2.062-1.943-5.979,0.117l-7.805,4.77
		c-0.892,0.475-2.32,0.719-3.906,0.84c0.002,0.021,0.013,0.041,0.013,0.062c0,0.497-0.402,0.899-0.899,0.899h-15.298
		c-2.7,0-2.7,1.355-2.7,1.799c0,0.498-0.401,0.9-0.9,0.9c-0.498,0-0.899-0.402-0.899-0.9c0-2.252,1.681-3.6,4.499-3.6h12.811
		c0.482-0.502,0.56-1.275-0.237-2.463c-1.264-1.889-3.446-2.961-5.717-2.961h-3.51c-2.047,0-4.064-0.608-5.698-1.839
		c-3.813-2.874-11.146-2.636-11.146-2.636v21.598h12.598c1.797,0,3.592-0.135,5.368-0.405l11.729-1.784
		c0.399,0,0.789-0.047,1.165-0.131c0.007-0.002,0.014-0.002,0.019-0.002c0.95-0.135,1.818-0.615,2.51-1.277l13.673-10.649
		C419.704,440.232,419.846,439.209,419.318,438.473"/>
	<path id="XMLID_111_" fill="#3091CF" d="M395.095,444.27c-0.33-0.004-0.641-0.009-0.906-0.009
		C394.188,444.261,394.563,444.285,395.095,444.27"/>
	<path id="XMLID_110_" fill="#E2AD6A" d="M380.945,446.961c0,0.496,0.402,0.898,0.899,0.898c0.499,0,0.9-0.402,0.9-0.898
		c0-0.445,0-1.8,2.7-1.8h15.298c0.498,0,0.899-0.403,0.899-0.9c0-0.022-0.011-0.038-0.012-0.06
		c-2.239,0.172-4.777,0.098-6.535,0.068c-0.53,0.018-0.907-0.009-0.907-0.009c0.267,0,0.578,0.005,0.907,0.009
		c0.974-0.027,2.475-0.193,3.16-0.908h-12.811C382.626,443.361,380.945,444.707,380.945,446.961"/>
	<path id="XMLID_109_" fill="#E4B018" d="M411.539,414.566c0,3.974-3.223,7.197-7.199,7.197c-3.975,0-7.199-3.224-7.199-7.197
		c0-3.977,3.224-7.2,7.199-7.2C408.316,407.366,411.539,410.59,411.539,414.566"/>
	<path id="XMLID_74_" fill="#E4B018" d="M387.068,437.784c0.566,0.099,1.141,0.153,1.721,0.153h3.509
		c0.571,0,1.135,0.067,1.68,0.198c2.402-1.168,4.063-3.623,4.063-6.474c0-3.975-3.223-7.198-7.199-7.198
		c-3.977,0-7.199,3.224-7.199,7.198C383.644,434.253,385.015,436.516,387.068,437.784"/>
	<path id="XMLID_73_" fill="#FCC62F" d="M394.441,431.662c0,1.988-1.611,3.6-3.599,3.6c-1.988,0-3.6-1.611-3.6-3.6
		c0-1.987,1.611-3.599,3.6-3.599C392.83,428.063,394.441,429.675,394.441,431.662"/>
	<path id="XMLID_72_" fill="#FCC62F" d="M407.94,414.566c0,1.987-1.612,3.6-3.6,3.6s-3.599-1.612-3.599-3.6
		c0-1.988,1.611-3.601,3.599-3.601S407.94,412.578,407.94,414.566"/>
	<rect id="XMLID_75_" x="367.446" y="430.738" fill="#566280" width="4.5" height="27.021"/>
</g>
<g>
	<polygon fill="#E6AF78" points="619.745,380.561 619.745,368.544 588.842,368.544 588.842,380.561 604.293,394.296 	"/>
	<path fill="#EFF2FB" d="M643.638,386.184l-21.245-4.999c-0.321-0.076-0.616-0.204-0.892-0.359l-17.208,10.037l-16.536-10.522
		c-0.428,0.402-0.959,0.703-1.563,0.845l-21.244,4.999c-3.103,0.729-5.295,3.498-5.295,6.685v13.446
		c0,1.896,1.537,3.434,3.434,3.434h82.408c1.897,0,3.434-1.537,3.434-3.434v-13.446
		C648.931,389.682,646.739,386.913,643.638,386.184z"/>
	<path fill="#D29B6E" d="M588.842,368.544v12.68c19.466,7.013,30.903-10.539,30.903-10.539v-2.141H588.842L588.842,368.544z"/>
	<path fill="#F0C087" d="M581.975,329.057l1.496,32.914c0.14,3.074,1.647,5.926,4.109,7.772l7.099,5.324
		c1.783,1.338,3.952,2.061,6.181,2.061h6.868c2.229,0,4.397-0.723,6.181-2.061l7.099-5.324c2.463-1.847,3.97-4.698,4.109-7.772
		l1.496-32.914H581.975z"/>
	<path fill="#E6AF78" d="M599.144,335.924c6.867,0,17.168-1.717,19.611-6.868h-36.78l1.496,32.915
		c0.14,3.074,1.647,5.926,4.11,7.772l7.098,5.324c1.783,1.338,3.952,2.061,6.181,2.061h3.434c-3.434,0-10.301-6.867-10.301-15.451
		c0-4.199,0-15.452,0-20.603C593.992,339.357,595.709,335.924,599.144,335.924z"/>
	<g>
		<path fill="#E4EAF6" d="M572.26,398.605l-11.125-9.994c-0.933,1.182-1.479,2.667-1.479,4.257v13.446
			c0,1.896,1.538,3.434,3.434,3.434h12.019v-4.757C575.106,402.556,574.071,400.233,572.26,398.605z"/>
		<path fill="#E4EAF6" d="M636.327,398.605l11.126-9.994c0.932,1.182,1.478,2.667,1.478,4.257v13.446
			c0,1.896-1.536,3.434-3.434,3.434H633.48v-4.757C633.48,402.556,634.516,400.233,636.327,398.605z"/>
	</g>
	<polygon fill="#5C5E6F" points="608.586,409.748 600.001,409.748 601.075,394.296 607.513,394.296 	"/>
	<path fill="#535363" d="M608.586,390.862h-8.585v3.231c0,1.06,0.859,1.92,1.92,1.92h4.744c1.061,0,1.921-0.86,1.921-1.92V390.862
		L608.586,390.862z"/>
	<g>
		<path fill="#E4EAF6" d="M588.601,376.739l15.692,14.123c0,0-4.394,2.219-9.817,6.69c-1.119,0.922-2.811,0.549-3.411-0.771
			l-7.372-16.22l2.332-3.499C586.604,376.191,587.823,376.039,588.601,376.739z"/>
		<path fill="#E4EAF6" d="M619.986,376.739l-15.693,14.123c0,0,4.395,2.219,9.819,6.69c1.118,0.922,2.811,0.549,3.411-0.771
			l7.372-16.22l-2.332-3.499C621.982,376.191,620.765,376.039,619.986,376.739z"/>
	</g>
	<path fill="#795651" d="M614.702,317.683l1.609,11.374c7.348,1.469,8.406,13,8.558,16.293c0.028,0.597,0.219,1.174,0.543,1.677
		l2.804,4.349c0,0-0.959-7.188,3.434-12.018C631.649,339.357,633.157,310.814,614.702,317.683z"/>
	<path fill="#F0C087" d="M629.938,350.643L628,358.396c-0.229,0.92-1.056,1.563-2.003,1.563l0,0c-1.041,0-1.92-0.774-2.049-1.808
		l-0.99-7.93c-0.266-2.123,1.389-3.997,3.527-3.997h0.002C628.802,346.225,630.499,348.399,629.938,350.643z"/>
	<path fill="#6A4C4C" d="M583.62,314.605l2.539,1.735c-11.481,8.477-9.336,23.017-9.336,23.017
		c3.434,3.434,3.434,12.018,3.434,12.018l3.434-3.434c0,0-1.324-9.919,5.15-13.735c6.01-3.541,11.268-1.716,16.633-1.716
		c14.379,0,18.402-5.419,17.705-12.018c-0.361-3.415-5.582-10.527-18.886-10.301C598.925,310.262,588.842,311.888,583.62,314.605z"
		/>
	<path fill="#5B4247" d="M582.618,330.988c0,0-1.824-7.189,3.541-14.647c-11.481,8.478-9.336,23.017-9.336,23.017
		c3.434,3.434,3.434,12.018,3.434,12.018l3.434-3.434c0,0-1.324-9.918,5.15-13.734c6.01-3.542,11.268-1.717,16.633-1.717
		c2.338,0,4.377-0.157,6.191-0.425C600.592,332.437,594.064,324.048,582.618,330.988z"/>
	<path fill="#E6AF78" d="M578.649,350.643l1.938,7.753c0.23,0.92,1.056,1.563,2.003,1.563l0,0c1.042,0,1.919-0.774,2.049-1.808
		l0.991-7.93c0.266-2.123-1.39-3.997-3.529-3.997H582.1C579.786,346.225,578.088,348.399,578.649,350.643z"/>
	<path fill="#E4EAF6" d="M626.613,406.314h-12.019c-0.948,0-1.717,0.768-1.717,1.716v1.718h15.451v-1.718
		C628.329,407.083,627.561,406.314,626.613,406.314z"/>
</g>
<g>
	<circle fill="#B0B9D2" cx="721.427" cy="169" r="36.25"/>
	<circle fill="#9097AC" cx="721.427" cy="169" r="32.5"/>
	<circle fill="#FFFFFF" cx="721.427" cy="169" r="30"/>
	<path fill="#B0B9D2" d="M707.677,184c-0.32,0-0.64-0.122-0.884-0.366c-0.488-0.488-0.488-1.279,0-1.768l16.875-16.875
		c0.488-0.488,1.279-0.488,1.768,0s0.488,1.279,0,1.768l-16.875,16.875C708.316,183.878,707.997,184,707.677,184z"/>
	<g>
		<path fill="#5C5E6F" d="M721.427,147.75L721.427,147.75c-0.69,0-1.25-0.56-1.25-1.25v-3.75c0-0.69,0.56-1.25,1.25-1.25l0,0
			c0.69,0,1.25,0.56,1.25,1.25v3.75C722.677,147.19,722.117,147.75,721.427,147.75z"/>
		<path fill="#5C5E6F" d="M721.427,196.5L721.427,196.5c-0.69,0-1.25-0.56-1.25-1.25v-3.75c0-0.69,0.56-1.25,1.25-1.25l0,0
			c0.69,0,1.25,0.56,1.25,1.25v3.75C722.677,195.94,722.117,196.5,721.427,196.5z"/>
		<path fill="#5C5E6F" d="M742.677,169L742.677,169c0-0.69,0.56-1.25,1.25-1.25h3.75c0.69,0,1.25,0.56,1.25,1.25l0,0
			c0,0.69-0.56,1.25-1.25,1.25h-3.75C743.236,170.25,742.677,169.69,742.677,169z"/>
		<path fill="#5C5E6F" d="M693.927,169L693.927,169c0-0.69,0.56-1.25,1.25-1.25h3.75c0.69,0,1.25,0.56,1.25,1.25l0,0
			c0,0.69-0.56,1.25-1.25,1.25h-3.75C694.486,170.25,693.927,169.69,693.927,169z"/>
	</g>
	<g>
		<path fill="#9097AC" d="M745.242,182.75L745.242,182.75c-0.345,0.598-1.109,0.803-1.707,0.458l-1.083-0.625
			c-0.598-0.345-0.803-1.109-0.457-1.707l0,0c0.346-0.598,1.109-0.803,1.707-0.458l1.083,0.625
			C745.383,181.388,745.588,182.152,745.242,182.75z"/>
		<path fill="#9097AC" d="M700.858,157.125L700.858,157.125c-0.345,0.598-1.109,0.803-1.707,0.458l-1.083-0.625
			c-0.598-0.345-0.802-1.11-0.457-1.708l0,0c0.345-0.598,1.109-0.803,1.707-0.458l1.083,0.625
			C700.999,155.763,701.204,156.527,700.858,157.125z"/>
		<path fill="#9097AC" d="M697.611,182.75L697.611,182.75c0.345,0.598,1.109,0.803,1.707,0.458l1.083-0.625
			c0.598-0.345,0.803-1.109,0.457-1.707l0,0c-0.345-0.598-1.109-0.803-1.707-0.458l-1.083,0.625
			C697.471,181.388,697.266,182.152,697.611,182.75z"/>
		<path fill="#9097AC" d="M741.995,157.125L741.995,157.125c0.346,0.598,1.109,0.803,1.707,0.458l1.083-0.625
			c0.598-0.345,0.803-1.11,0.457-1.708l0,0c-0.345-0.598-1.109-0.803-1.707-0.458l-1.083,0.625
			C741.854,155.763,741.649,156.527,741.995,157.125z"/>
		<path fill="#9097AC" d="M707.677,192.815L707.677,192.815c-0.598-0.345-0.803-1.109-0.457-1.707l0.625-1.083
			c0.345-0.598,1.109-0.803,1.707-0.457l0,0c0.598,0.345,0.803,1.109,0.457,1.707l-0.625,1.083
			C709.039,192.956,708.274,193.161,707.677,192.815z"/>
		<path fill="#9097AC" d="M733.302,148.432L733.302,148.432c-0.598-0.345-0.803-1.109-0.457-1.707l0.625-1.083
			c0.345-0.598,1.109-0.803,1.707-0.457l0,0c0.598,0.345,0.803,1.109,0.458,1.707l-0.626,1.083
			C734.664,148.572,733.899,148.777,733.302,148.432z"/>
		<path fill="#9097AC" d="M707.677,145.185L707.677,145.185c-0.598,0.345-0.803,1.109-0.457,1.707l0.625,1.083
			c0.345,0.598,1.109,0.802,1.707,0.457l0,0c0.598-0.345,0.803-1.109,0.457-1.707l-0.625-1.083
			C709.039,145.044,708.274,144.839,707.677,145.185z"/>
		<path fill="#9097AC" d="M733.302,189.568L733.302,189.568c-0.598,0.345-0.803,1.109-0.457,1.707l0.625,1.083
			c0.345,0.598,1.109,0.802,1.707,0.457l0,0c0.598-0.345,0.803-1.109,0.458-1.707l-0.626-1.083
			C734.664,189.428,733.899,189.223,733.302,189.568z"/>
	</g>
	<path fill="#5C5E6F" d="M738.927,167.75h-16.25V154c0-0.69-0.56-1.25-1.25-1.25s-1.25,0.56-1.25,1.25v13.75h-2.5
		c-0.69,0-1.25,0.56-1.25,1.25s0.56,1.25,1.25,1.25h2.5v2.5c0,0.69,0.56,1.25,1.25,1.25s1.25-0.56,1.25-1.25v-2.5h16.25
		c0.69,0,1.25-0.56,1.25-1.25S739.617,167.75,738.927,167.75z"/>
	<circle fill="#C7CFE2" cx="721.427" cy="169" r="2.5"/>
</g>
<g>
	<path fill="#EFF2FB" d="M666.801,536.428h-33.023c-1.178,0-2.13,0.955-2.13,2.131v57.526c0,1.175,0.952,2.13,2.13,2.13h40.48
		c1.176,0,2.13-0.955,2.13-2.13v-50.069L666.801,536.428z"/>
	<g>
		<path fill="#D8DEED" d="M676.389,546.016h-8.388c-0.662,0-1.2-0.536-1.2-1.197v-8.391L676.389,546.016z"/>
		
			<rect x="640.107" y="576.159" transform="matrix(-0.7071 -0.7071 0.7071 -0.7071 685.1965 1443.4163)" fill="#D8DEED" width="2.866" height="7.281"/>
	</g>
	<path fill="#C7CFE2" d="M641.288,578.023c0.618,0.732,1.295,1.41,2.026,2.027l1.813-1.813l-2.026-2.026L641.288,578.023z"/>
	<path fill="#707588" d="M625.269,597.751l-1.68-1.68c-0.619-0.619-0.619-1.622,0-2.24l13.369-13.369
		c0.619-0.619,1.622-0.619,2.239,0l1.681,1.679c0.619,0.619,0.619,1.622,0,2.241l-13.368,13.369
		C626.892,598.369,625.888,598.369,625.269,597.751z"/>
	<path fill="#5C5E6F" d="M625.173,595.414l13.369-13.369c0.618-0.619,1.621-0.619,2.24,0l0.098,0.099c0,0-0.002-0.001-0.002-0.003
		l-1.681-1.681c-0.617-0.617-1.62-0.617-2.239,0.002l-13.369,13.369c-0.619,0.618-0.619,1.621,0,2.24l1.583,1.582
		C624.555,597.035,624.555,596.033,625.173,595.414z"/>
	<path fill="#C7CFE2" d="M639.902,585.357l0.976-0.976c0.619-0.619,0.619-1.622,0-2.241l-1.681-1.679
		c-0.617-0.619-1.62-0.619-2.239,0l-0.976,0.976L639.902,585.357z"/>
	<g opacity="0.97">
		<path fill="#B0B9D2" d="M637.566,583.021l0.976-0.976c0.618-0.619,1.621-0.619,2.24,0l0.098,0.099c0,0-0.002-0.001-0.002-0.003
			l-1.681-1.679c-0.617-0.619-1.62-0.619-2.239,0l-0.976,0.976L637.566,583.021z"/>
	</g>
	<circle fill="#FFFFFF" cx="654.019" cy="567.322" r="10.653"/>
	<g>
		<path fill="#D8DEED" d="M654.019,582.236c-8.225,0-14.914-6.691-14.914-14.914c0-8.225,6.689-14.914,14.914-14.914
			c8.224,0,14.913,6.689,14.913,14.914C668.932,575.545,662.242,582.236,654.019,582.236z M654.019,554.539
			c-7.05,0-12.784,5.734-12.784,12.783s5.734,12.782,12.784,12.782c7.048,0,12.782-5.733,12.782-12.782
			S661.066,554.539,654.019,554.539z"/>
		<path fill="#D8DEED" d="M660.41,568.387h-12.784c-0.589,0-1.065-0.478-1.065-1.064l0,0c0-0.589,0.477-1.066,1.065-1.066h12.784
			c0.588,0,1.063,0.478,1.063,1.066l0,0C661.474,567.909,660.998,568.387,660.41,568.387z"/>
		<path fill="#D8DEED" d="M658.278,564.126h-3.195c-0.588,0-1.065-0.478-1.065-1.065l0,0c0-0.589,0.478-1.066,1.065-1.066h3.195
			c0.589,0,1.065,0.478,1.065,1.066l0,0C659.344,563.649,658.867,564.126,658.278,564.126z"/>
		<path fill="#D8DEED" d="M649.756,572.648h-1.064c-0.589,0-1.065-0.478-1.065-1.066l0,0c0-0.588,0.477-1.065,1.065-1.065h1.064
			c0.59,0,1.066,0.478,1.066,1.065l0,0C650.822,572.171,650.346,572.648,649.756,572.648z"/>
	</g>
	<g>
		<path fill="#C7CFE2" d="M650.822,564.126h-2.131c-0.588,0-1.065-0.478-1.065-1.065l0,0c0-0.589,0.478-1.066,1.065-1.066h2.131
			c0.588,0,1.065,0.478,1.065,1.066l0,0C651.887,563.649,651.41,564.126,650.822,564.126z"/>
		<path fill="#C7CFE2" d="M658.278,572.648h-4.26c-0.589,0-1.065-0.478-1.065-1.066l0,0c0-0.588,0.477-1.065,1.065-1.065h4.26
			c0.589,0,1.065,0.478,1.065,1.065l0,0C659.344,572.171,658.867,572.648,658.278,572.648z"/>
	</g>
</g>
<g>
	<path d="M803.34,169.74v-19.949c0-0.3,0.27-0.54,0.57-0.54h6.299c3.78,0,6.84,2.94,6.84,6.66c0,2.13-1.08,3.99-2.67,5.25
		c-0.299,0.27-0.119,0.63-0.119,0.63l3.479,7.77c0.24,0.54,0.03,0.72-0.3,0.72h-2.641c-0.389,0-0.6,0-0.779-0.36
		c0,0-3.029-6.78-3.15-7.02c-0.09-0.24-0.24-0.3-0.81-0.33h-2.399c-0.57,0-0.78,0.12-0.78,0.57v6.6c0,0.3-0.271,0.54-0.57,0.54
		h-2.399C803.609,170.28,803.34,170.04,803.34,169.74z M810.209,158.701c1.561,0,2.851-1.26,2.851-2.79c0-1.56-1.29-2.79-2.851-2.79
		h-2.789c-0.36,0-0.54,0.18-0.54,0.6v4.5c0,0.3,0.18,0.48,0.45,0.48H810.209z"/>
	<path d="M823.199,169.71v-19.919c0-0.3,0.271-0.57,0.57-0.57h3.12c0.3,0,0.54,0.27,0.54,0.57v19.919c0,0.3-0.24,0.54-0.54,0.54
		h-3.12C823.47,170.25,823.199,170.01,823.199,169.71z"/>
	<path d="M833.129,167.76c-0.42-0.45-0.119-1.05,0.871-2.46c0.239-0.3,0.479-0.36,0.779-0.24c3.21,1.65,5.01,1.65,6.48,1.65
		c2.909,0,4.169-1.53,2.669-3.45c-0.749-0.99-3.149-1.44-4.169-1.77c-3.15-0.93-4.98-2.19-5.58-4.26c-1.26-3.87,1.32-7.35,6.42-7.89
		c1.739-0.15,3.719,0.18,5.309,0.84c1.561,0.78,2.25,1.47,2.07,1.98c-0.24,0.57-0.959,1.44-1.38,2.01
		c-0.36,0.45-1.499-0.51-2.88-0.81c-1.17-0.24-2.49-0.57-4.199,0.03c-1.801,0.87-2.16,2.43-0.78,3.48c1.44,1.02,3.27,1.65,4.38,2.04
		c1.109,0.42,2.88,1.02,3.779,2.13c0.811,0.78,1.41,2.37,1.41,3.63c0,3.33-2.82,5.43-6.84,5.49
		C838.199,170.22,834.389,168.9,833.129,167.76z"/>
	<path d="M853.109,169.71v-19.889c0-0.3,0.24-0.54,0.539-0.54h6.99c3.689,0,6.63,2.97,6.63,6.63c0,3.69-2.94,6.63-6.63,6.63h-3
		c-0.449,0-0.75,0.12-0.75,0.6v6.57c0,0.3-0.24,0.54-0.539,0.54h-2.701C853.35,170.25,853.109,170.01,853.109,169.71z
		 M860.639,158.701c1.53,0,2.79-1.23,2.79-2.79c0-1.53-1.26-2.76-2.79-2.76h-3.029c-0.51,0-0.721,0.21-0.721,0.6v4.95H860.639z"/>
	<path d="M868.649,169.89l5.31-20.189c0.09-0.24,0.33-0.45,0.6-0.45h6.24c0.27,0,0.51,0.21,0.6,0.42l5.311,20.189
		c0.06,0.24-0.09,0.42-0.301,0.42h-2.939c-0.24,0-0.54-0.21-0.6-0.45l-1.471-5.58c-0.09-0.36-0.449-0.63-0.81-0.63h-5.819
		c-0.36,0-0.721,0.27-0.811,0.63l-1.47,5.55c-0.06,0.27-0.36,0.48-0.601,0.48h-2.939C868.739,170.28,868.59,170.1,868.649,169.89z
		 M879.659,160.41c0.42,0,0.659-0.33,0.569-0.69l-1.68-6.18c-0.06-0.33-0.42-0.6-0.779-0.6h-0.181c-0.36,0-0.72,0.27-0.78,0.6
		l-1.649,6.18c-0.09,0.36,0.12,0.69,0.54,0.69H879.659z"/>
	<path d="M890.909,169.74v-19.949c0-0.3,0.271-0.54,0.569-0.54h6.301c3.779,0,6.84,2.94,6.84,6.66c0,2.13-1.08,3.99-2.67,5.25
		c-0.301,0.27-0.121,0.63-0.121,0.63l3.48,7.77c0.24,0.54,0.03,0.72-0.3,0.72h-2.64c-0.391,0-0.601,0-0.78-0.36
		c0,0-3.03-6.78-3.149-7.02c-0.09-0.24-0.24-0.3-0.811-0.33h-2.4c-0.569,0-0.779,0.12-0.779,0.57v6.6c0,0.3-0.27,0.54-0.57,0.54
		h-2.4C891.18,170.28,890.909,170.04,890.909,169.74z M897.779,158.701c1.56,0,2.85-1.26,2.85-2.79c0-1.56-1.29-2.79-2.85-2.79
		h-2.79c-0.36,0-0.54,0.18-0.54,0.6v4.5c0,0.3,0.18,0.48,0.449,0.48H897.779z"/>
	<path d="M909.988,169.71v-19.889c0-0.3,0.24-0.54,0.51-0.54h2.94c0.18,0,0.36,0.12,0.45,0.3l4.56,7.56c0,0,0.18,0.3,0.51,0.3h0.06
		c0.33,0,0.451-0.33,0.451-0.33l4.529-7.5c0.119-0.18,0.24-0.33,0.48-0.33h2.969c0.271,0,0.51,0.24,0.51,0.54v19.889
		c0,0.3-0.239,0.54-0.51,0.54h-2.939c-0.33,0-0.54-0.24-0.54-0.54V157.8c0-0.36-0.149-0.42-0.39-0.06l-3.15,4.47
		c-0.33,0.48-0.479,0.63-1.14,0.63h-0.51c-0.78,0-0.931-0.09-1.2-0.48l-3.24-4.59c-0.24-0.36-0.39-0.36-0.39,0v11.939
		c0,0.3-0.239,0.54-0.54,0.54h-2.91C910.229,170.25,909.988,170.01,909.988,169.71z"/>
	<path d="M933.778,169.71v-19.919c0-0.3,0.271-0.57,0.569-0.57h3.121c0.299,0,0.539,0.27,0.539,0.57v19.919
		c0,0.3-0.24,0.54-0.539,0.54h-3.121C934.049,170.25,933.778,170.01,933.778,169.71z"/>
	<path d="M962.758,169.86v-16.259c0-0.36-0.36-0.72-0.75-0.72h-5.04c-0.18,0-0.36-0.18-0.36-0.36v-2.91c0-0.18,0.15-0.33,0.36-0.33
		h15.839c0.24,0,0.42,0.18,0.42,0.39v2.82c0,0.21-0.18,0.39-0.42,0.39h-4.979c-0.391,0-0.721,0.33-0.721,0.72v16.259
		c0,0.21-0.15,0.39-0.391,0.39h-3.569C962.908,170.25,962.758,170.07,962.758,169.86z"/>
	<path d="M978.027,169.62v-19.77c0-0.3,0.24-0.54,0.541-0.54h13.439c0.299,0,0.539,0.24,0.539,0.54v2.52c0,0.3-0.24,0.54-0.539,0.54
		h-9.689c-0.301,0-0.541,0.24-0.541,0.54v4.41c0,0.39-0.029,0.57,0.69,0.57h7.499c0.271,0,0.511,0.21,0.511,0.48v2.55
		c0,0.27-0.24,0.48-0.511,0.48h-7.529c-0.63,0-0.66,0.54-0.66,0.69v3.18c0,0.3,0.061,0.72,0.84,0.72h9.6
		c0.301,0,0.541,0.27,0.541,0.57v2.52c0,0.3-0.24,0.54-0.541,0.54h-13.648C978.268,170.16,978.027,169.92,978.027,169.62z"/>
	<path d="M997.377,169.71v-19.889c0-0.3,0.24-0.54,0.51-0.54h2.94c0.18,0,0.36,0.12,0.45,0.3l4.56,7.56c0,0,0.18,0.3,0.51,0.3h0.06
		c0.33,0,0.451-0.33,0.451-0.33l4.529-7.5c0.119-0.18,0.24-0.33,0.48-0.33h2.969c0.271,0,0.51,0.24,0.51,0.54v19.889
		c0,0.3-0.239,0.54-0.51,0.54h-2.939c-0.33,0-0.54-0.24-0.54-0.54V157.8c0-0.36-0.149-0.42-0.39-0.06l-3.15,4.47
		c-0.33,0.48-0.479,0.63-1.14,0.63h-0.51c-0.78,0-0.931-0.09-1.2-0.48l-3.24-4.59c-0.24-0.36-0.39-0.36-0.39,0v11.939
		c0,0.3-0.239,0.54-0.54,0.54h-2.91C997.617,170.25,997.377,170.01,997.377,169.71z"/>
	<path d="M1020.537,169.71v-19.889c0-0.3,0.24-0.54,0.539-0.54h6.99c3.689,0,6.63,2.97,6.63,6.63c0,3.69-2.94,6.63-6.63,6.63h-3
		c-0.449,0-0.75,0.12-0.75,0.6v6.57c0,0.3-0.24,0.54-0.539,0.54h-2.701C1020.777,170.25,1020.537,170.01,1020.537,169.71z
		 M1028.066,158.701c1.53,0,2.79-1.23,2.79-2.79c0-1.53-1.26-2.76-2.79-2.76h-3.029c-0.51,0-0.721,0.21-0.721,0.6v4.95H1028.066z"/>
	<path d="M1039.076,163.26l-0.06-0.15c-1.11-3.39-0.511-7.32,1.979-10.29c1.92-2.04,3.9-3.6,7.62-3.81h0.09
		c1.681-0.09,3.33,0.21,4.92,0.9c2.01,0.9,4.079,2.82,4.92,4.47c2.1,3.689,1.86,8.189-0.601,11.609c-0.93,1.32-2.01,2.37-3.81,3.33
		c-2.819,1.41-6.21,1.62-9.329,0.27C1042.017,168.3,1039.977,165.96,1039.076,163.26z M1055.486,162.541
		c1.529-3.48,0-7.53-3.45-9.09c-2.58-1.14-5.58-0.63-7.56,1.29l-0.51,0.54c-2.43,2.97-2.07,7.319,0.84,9.719
		c2.129,1.8,5.1,2.13,7.529,0.9C1054.016,164.94,1055.066,163.53,1055.486,162.541z"/>
</g>
<g>
	<path d="M33.84,448.766v-19.949c0-0.3,0.27-0.539,0.57-0.539h6.3c3.78,0,6.84,2.939,6.84,6.659c0,2.13-1.08,3.989-2.67,5.249
		c-0.3,0.271-0.12,0.631-0.12,0.631l3.48,7.77c0.24,0.54,0.03,0.72-0.3,0.72h-2.64c-0.39,0-0.6,0-0.78-0.36
		c0,0-3.03-6.779-3.15-7.02c-0.09-0.24-0.24-0.3-0.81-0.33h-2.4c-0.57,0-0.78,0.121-0.78,0.57v6.6c0,0.301-0.27,0.54-0.57,0.54h-2.4
		C34.11,449.306,33.84,449.066,33.84,448.766z M40.709,437.727c1.56,0,2.85-1.26,2.85-2.79c0-1.56-1.29-2.79-2.85-2.79h-2.79
		c-0.36,0-0.54,0.18-0.54,0.6v4.5c0,0.301,0.18,0.48,0.45,0.48H40.709z"/>
	<path d="M53.7,448.736v-19.92c0-0.3,0.27-0.57,0.57-0.57h3.12c0.3,0,0.54,0.271,0.54,0.57v19.92c0,0.299-0.24,0.539-0.54,0.539
		h-3.12C53.97,449.275,53.7,449.035,53.7,448.736z"/>
	<path d="M63.629,446.786c-0.42-0.45-0.12-1.05,0.87-2.46c0.24-0.301,0.48-0.359,0.78-0.24c3.21,1.65,5.01,1.65,6.48,1.65
		c2.91,0,4.169-1.53,2.669-3.45c-0.75-0.989-3.149-1.44-4.169-1.771c-3.15-0.93-4.98-2.189-5.58-4.26
		c-1.26-3.869,1.32-7.35,6.42-7.889c1.74-0.15,3.72,0.18,5.31,0.84c1.56,0.779,2.25,1.47,2.07,1.979
		c-0.24,0.569-0.96,1.44-1.38,2.011c-0.36,0.449-1.5-0.511-2.88-0.811c-1.17-0.24-2.49-0.57-4.2,0.029
		c-1.8,0.871-2.16,2.431-0.78,3.48c1.44,1.02,3.27,1.65,4.38,2.04c1.11,0.42,2.88,1.021,3.78,2.13c0.81,0.779,1.41,2.369,1.41,3.63
		c0,3.329-2.82,5.43-6.839,5.489C68.699,449.246,64.889,447.926,63.629,446.786z"/>
	<path d="M83.609,448.736v-19.89c0-0.3,0.24-0.54,0.54-0.54h6.99c3.69,0,6.63,2.971,6.63,6.63c0,3.69-2.94,6.63-6.63,6.63h-3
		c-0.45,0-0.75,0.119-0.75,0.6v6.57c0,0.299-0.24,0.539-0.54,0.539h-2.7C83.849,449.275,83.609,449.035,83.609,448.736z
		 M91.139,437.727c1.53,0,2.79-1.23,2.79-2.79c0-1.53-1.26-2.76-2.79-2.76h-3.03c-0.51,0-0.72,0.21-0.72,0.6v4.95H91.139z"/>
	<path d="M99.149,448.916l5.31-20.189c0.09-0.24,0.33-0.449,0.6-0.449h6.24c0.27,0,0.51,0.209,0.6,0.42l5.31,20.188
		c0.06,0.24-0.09,0.42-0.3,0.42h-2.94c-0.24,0-0.54-0.21-0.6-0.45l-1.47-5.58c-0.09-0.359-0.45-0.629-0.81-0.629h-5.82
		c-0.36,0-0.72,0.27-0.81,0.629l-1.47,5.551c-0.06,0.27-0.36,0.479-0.6,0.479h-2.94C99.239,449.306,99.089,449.126,99.149,448.916z
		 M110.159,439.436c0.42,0,0.66-0.329,0.57-0.689l-1.68-6.18c-0.06-0.33-0.42-0.6-0.78-0.6h-0.18c-0.36,0-0.72,0.27-0.78,0.6
		l-1.65,6.18c-0.09,0.36,0.12,0.689,0.54,0.689H110.159z"/>
	<path d="M121.409,448.766v-19.949c0-0.3,0.27-0.539,0.57-0.539h6.3c3.78,0,6.84,2.939,6.84,6.659c0,2.13-1.08,3.989-2.67,5.249
		c-0.3,0.271-0.12,0.631-0.12,0.631l3.48,7.77c0.24,0.54,0.03,0.72-0.3,0.72h-2.64c-0.39,0-0.6,0-0.78-0.36
		c0,0-3.03-6.779-3.15-7.02c-0.09-0.24-0.24-0.3-0.81-0.33h-2.4c-0.57,0-0.78,0.121-0.78,0.57v6.6c0,0.301-0.27,0.54-0.57,0.54h-2.4
		C121.679,449.306,121.409,449.066,121.409,448.766z M128.279,437.727c1.56,0,2.85-1.26,2.85-2.79c0-1.56-1.29-2.79-2.85-2.79h-2.79
		c-0.36,0-0.54,0.18-0.54,0.6v4.5c0,0.301,0.18,0.48,0.45,0.48H128.279z"/>
	<path d="M140.488,448.736v-19.89c0-0.3,0.24-0.54,0.51-0.54h2.94c0.18,0,0.36,0.12,0.45,0.301l4.56,7.559
		c0,0,0.18,0.301,0.51,0.301h0.06c0.33,0,0.45-0.33,0.45-0.33l4.53-7.5c0.12-0.18,0.24-0.33,0.48-0.33h2.97
		c0.27,0,0.51,0.24,0.51,0.54v19.89c0,0.299-0.24,0.539-0.51,0.539h-2.94c-0.33,0-0.54-0.24-0.54-0.539v-11.91
		c0-0.359-0.15-0.42-0.39-0.06l-3.15,4.47c-0.33,0.48-0.48,0.63-1.14,0.63h-0.51c-0.78,0-0.93-0.09-1.2-0.479l-3.24-4.59
		c-0.24-0.36-0.39-0.36-0.39,0v11.939c0,0.299-0.24,0.539-0.54,0.539h-2.91C140.729,449.275,140.488,449.035,140.488,448.736z"/>
	<path d="M164.278,448.736v-19.92c0-0.3,0.27-0.57,0.57-0.57h3.12c0.3,0,0.54,0.271,0.54,0.57v19.92c0,0.299-0.24,0.539-0.54,0.539
		h-3.12C164.548,449.275,164.278,449.035,164.278,448.736z"/>
	<path d="M187.288,448.286v-19.259c0-0.361,0.27-0.66,0.63-0.66h6c5.76,0,10.38,4.649,10.38,10.409c0,5.729-4.62,10.38-10.38,10.38
		h-5.76C187.678,449.156,187.288,448.766,187.288,448.286z M193.917,445.286c3.6,0,6.54-2.91,6.54-6.51c0-3.601-2.94-6.54-6.54-6.54
		h-2.4c-0.21,0-0.36,0.15-0.36,0.36v12.689H193.917z"/>
	<path d="M208.228,448.646v-19.77c0-0.301,0.24-0.54,0.54-0.54h13.439c0.3,0,0.54,0.239,0.54,0.54v2.52c0,0.301-0.24,0.54-0.54,0.54
		h-9.689c-0.3,0-0.54,0.24-0.54,0.54v4.41c0,0.39-0.03,0.57,0.69,0.57h7.5c0.27,0,0.51,0.209,0.51,0.479v2.55
		c0,0.27-0.24,0.48-0.51,0.48h-7.53c-0.63,0-0.66,0.539-0.66,0.689v3.18c0,0.301,0.06,0.721,0.84,0.721h9.6
		c0.3,0,0.54,0.27,0.54,0.569v2.521c0,0.299-0.24,0.539-0.54,0.539h-13.649C208.468,449.186,208.228,448.945,208.228,448.646z"/>
	<path d="M227.518,448.796v-20.069c0-0.24,0.21-0.42,0.45-0.42h3.06c0.18,0,0.24,0.061,0.33,0.21l7.11,12.03
		c0.45,0.809,0.78,0.779,0.78-0.061l-0.06-11.76c0-0.24,0.21-0.42,0.45-0.42h3.15c0.24,0,0.45,0.18,0.45,0.42v20.069
		c0,0.239-0.21,0.42-0.45,0.42h-2.13c-0.66,0-0.87-0.03-1.2-0.569l-7.56-12.03c-0.27-0.42-0.57-0.329-0.57,0.15l0.06,12.029
		c0,0.239-0.21,0.42-0.42,0.42h-3C227.728,449.216,227.518,449.035,227.518,448.796z"/>
	<path d="M247.258,448.916l5.31-20.189c0.09-0.24,0.33-0.449,0.6-0.449h6.24c0.27,0,0.51,0.209,0.6,0.42l5.31,20.188
		c0.06,0.24-0.09,0.42-0.3,0.42h-2.94c-0.24,0-0.54-0.21-0.6-0.45l-1.47-5.58c-0.09-0.359-0.45-0.629-0.81-0.629h-5.82
		c-0.36,0-0.72,0.27-0.81,0.629l-1.47,5.551c-0.06,0.27-0.36,0.479-0.6,0.479h-2.94
		C247.348,449.306,247.198,449.126,247.258,448.916z M258.268,439.436c0.42,0,0.66-0.329,0.57-0.689l-1.68-6.18
		c-0.06-0.33-0.42-0.6-0.78-0.6h-0.18c-0.36,0-0.72,0.27-0.78,0.6l-1.65,6.18c-0.09,0.36,0.12,0.689,0.54,0.689H258.268z"/>
	<path d="M269.518,448.766v-19.949c0-0.3,0.27-0.539,0.57-0.539h6.3c3.78,0,6.84,2.939,6.84,6.659c0,2.13-1.08,3.989-2.67,5.249
		c-0.3,0.271-0.12,0.631-0.12,0.631l3.48,7.77c0.24,0.54,0.03,0.72-0.3,0.72h-2.64c-0.39,0-0.6,0-0.78-0.36
		c0,0-3.03-6.779-3.15-7.02c-0.09-0.24-0.24-0.3-0.81-0.33h-2.4c-0.57,0-0.78,0.121-0.78,0.57v6.6c0,0.301-0.27,0.54-0.57,0.54h-2.4
		C269.788,449.306,269.518,449.066,269.518,448.766z M276.387,437.727c1.56,0,2.85-1.26,2.85-2.79c0-1.56-1.29-2.79-2.85-2.79h-2.79
		c-0.36,0-0.54,0.18-0.54,0.6v4.5c0,0.301,0.18,0.48,0.45,0.48H276.387z"/>
	<path d="M287.788,442.286l-0.06-0.149c-1.11-3.391-0.51-7.32,1.98-10.29c1.92-2.04,3.9-3.601,7.62-3.81h0.09
		c1.68-0.09,3.33,0.209,4.92,0.899c2.01,0.899,4.08,2.819,4.92,4.47c2.1,3.689,1.86,8.189-0.6,11.609
		c-0.93,1.32-2.01,2.37-3.81,3.33c-2.82,1.41-6.209,1.62-9.33,0.27C290.728,447.326,288.688,444.986,287.788,442.286z
		 M304.197,441.566c1.53-3.48,0-7.529-3.45-9.09c-2.58-1.141-5.58-0.63-7.56,1.29l-0.51,0.54c-2.43,2.97-2.07,7.319,0.84,9.719
		c2.13,1.801,5.1,2.131,7.53,0.9C302.728,443.967,303.777,442.557,304.197,441.566z"/>
</g>
<g>
	<path d="M734.076,578.158c-0.42-0.449-0.119-1.05,0.871-2.459c0.239-0.301,0.479-0.36,0.779-0.24c3.21,1.649,5.01,1.649,6.48,1.649
		c2.909,0,4.169-1.53,2.669-3.45c-0.749-0.989-3.149-1.439-4.169-1.77c-3.15-0.93-4.98-2.189-5.58-4.26
		c-1.26-3.869,1.32-7.35,6.42-7.89c1.739-0.149,3.719,0.181,5.309,0.84c1.561,0.78,2.25,1.47,2.07,1.979
		c-0.24,0.57-0.959,1.44-1.38,2.011c-0.36,0.45-1.499-0.511-2.88-0.81c-1.17-0.24-2.49-0.57-4.199,0.029
		c-1.801,0.87-2.16,2.43-0.78,3.48c1.44,1.02,3.27,1.649,4.38,2.039c1.109,0.42,2.88,1.021,3.779,2.131
		c0.811,0.779,1.41,2.369,1.41,3.629c0,3.33-2.82,5.43-6.84,5.49C739.146,580.619,735.336,579.299,734.076,578.158z"/>
	<path d="M754.086,580.019v-19.77c0-0.3,0.24-0.54,0.541-0.54h13.439c0.299,0,0.539,0.24,0.539,0.54v2.521
		c0,0.3-0.24,0.539-0.539,0.539h-9.689c-0.301,0-0.541,0.24-0.541,0.541v4.409c0,0.39-0.029,0.57,0.69,0.57h7.499
		c0.271,0,0.511,0.21,0.511,0.479v2.551c0,0.27-0.24,0.479-0.511,0.479h-7.529c-0.63,0-0.66,0.54-0.66,0.69v3.18
		c0,0.3,0.061,0.72,0.84,0.72h9.6c0.301,0,0.541,0.271,0.541,0.569v2.521c0,0.3-0.24,0.54-0.541,0.54h-13.648
		C754.326,580.559,754.086,580.318,754.086,580.019z"/>
	<path d="M773.436,580.108v-19.89c0-0.299,0.24-0.539,0.511-0.539h2.94c0.18,0,0.359,0.119,0.449,0.3l4.561,7.56
		c0,0,0.18,0.3,0.51,0.3h0.06c0.33,0,0.45-0.33,0.45-0.33l4.529-7.499c0.12-0.181,0.24-0.33,0.48-0.33h2.97
		c0.271,0,0.51,0.24,0.51,0.539v19.89c0,0.3-0.239,0.54-0.51,0.54h-2.94c-0.33,0-0.539-0.24-0.539-0.54v-11.909
		c0-0.36-0.15-0.42-0.391-0.061l-3.149,4.471c-0.33,0.479-0.479,0.629-1.14,0.629h-0.51c-0.781,0-0.931-0.09-1.201-0.479
		l-3.239-4.59c-0.24-0.36-0.39-0.36-0.39,0v11.939c0,0.3-0.24,0.54-0.541,0.54h-2.909
		C773.676,580.648,773.436,580.408,773.436,580.108z"/>
	<path d="M796.596,580.108v-19.89c0-0.299,0.24-0.539,0.539-0.539h6.99c3.689,0,6.63,2.97,6.63,6.629c0,3.69-2.94,6.631-6.63,6.631
		h-3c-0.449,0-0.75,0.119-0.75,0.6v6.569c0,0.3-0.24,0.54-0.539,0.54h-2.701C796.836,580.648,796.596,580.408,796.596,580.108z
		 M804.125,569.1c1.53,0,2.79-1.23,2.79-2.791c0-1.529-1.26-2.76-2.79-2.76h-3.029c-0.51,0-0.721,0.211-0.721,0.6v4.951H804.125z"/>
	<path d="M815.165,580.139v-19.949c0-0.301,0.271-0.54,0.569-0.54h6.301c3.779,0,6.84,2.94,6.84,6.659c0,2.131-1.08,3.99-2.67,5.25
		c-0.301,0.27-0.121,0.631-0.121,0.631l3.48,7.77c0.24,0.539,0.03,0.719-0.3,0.719h-2.64c-0.391,0-0.601,0-0.78-0.359
		c0,0-3.03-6.779-3.149-7.02c-0.09-0.24-0.24-0.301-0.811-0.33h-2.4c-0.569,0-0.779,0.12-0.779,0.57v6.6
		c0,0.3-0.27,0.539-0.57,0.539h-2.4C815.436,580.678,815.165,580.438,815.165,580.139z M822.035,569.1c1.56,0,2.85-1.261,2.85-2.791
		c0-1.56-1.29-2.789-2.85-2.789h-2.79c-0.36,0-0.54,0.18-0.54,0.6v4.5c0,0.3,0.18,0.48,0.449,0.48H822.035z"/>
	<path d="M834.125,580.019v-19.77c0-0.3,0.24-0.54,0.54-0.54h13.439c0.3,0,0.54,0.24,0.54,0.54v2.521c0,0.3-0.24,0.539-0.54,0.539
		h-9.689c-0.3,0-0.54,0.24-0.54,0.541v4.409c0,0.39-0.03,0.57,0.689,0.57h7.5c0.27,0,0.51,0.21,0.51,0.479v2.551
		c0,0.27-0.24,0.479-0.51,0.479h-7.529c-0.631,0-0.66,0.54-0.66,0.69v3.18c0,0.3,0.061,0.72,0.84,0.72h9.6
		c0.3,0,0.54,0.271,0.54,0.569v2.521c0,0.3-0.24,0.54-0.54,0.54h-13.649C834.365,580.559,834.125,580.318,834.125,580.019z"/>
	<path d="M866.014,580.289l5.311-20.189c0.09-0.24,0.33-0.45,0.6-0.45h6.24c0.27,0,0.51,0.21,0.6,0.42l5.31,20.188
		c0.06,0.24-0.09,0.42-0.3,0.42h-2.939c-0.24,0-0.541-0.209-0.601-0.449l-1.47-5.58c-0.09-0.359-0.45-0.63-0.811-0.63h-5.819
		c-0.36,0-0.72,0.271-0.81,0.63l-1.471,5.55c-0.06,0.271-0.359,0.479-0.6,0.479h-2.939
		C866.104,580.678,865.954,580.498,866.014,580.289z M877.023,570.809c0.42,0,0.66-0.33,0.57-0.689l-1.68-6.18
		c-0.061-0.33-0.42-0.6-0.78-0.6h-0.18c-0.36,0-0.72,0.27-0.78,0.6l-1.65,6.18c-0.09,0.359,0.121,0.689,0.541,0.689H877.023z"/>
	<path d="M886.084,570.148c0-6.029,4.86-10.889,10.891-10.889c0.479,0,0.899,0.029,1.35,0.09c0.359,0.029,0.57,0.359,0.51,0.72
		l-0.48,2.61c-0.06,0.359-0.359,0.51-0.689,0.479c-0.24-0.03-0.45-0.03-0.689-0.03c-3.871,0-7.021,3.15-7.021,7.02
		c0,3.87,3.149,7.02,7.021,7.02c3,0,5.249-1.889,6.27-4.559h-3.87c-0.33,0-0.601-0.271-0.601-0.601v-2.19
		c0-0.33,0.271-0.6,0.601-0.6h6.39c0.96,0,1.5,0.33,1.5,0.93c0,6.03-4.26,10.891-10.289,10.891
		C890.944,581.039,886.084,576.179,886.084,570.148z"/>
	<path d="M910.564,570.148c0-6.029,4.859-10.889,10.89-10.889c0.479,0,0.899,0.029,1.351,0.09c0.359,0.029,0.569,0.359,0.51,0.72
		l-0.48,2.61c-0.061,0.359-0.359,0.51-0.689,0.479c-0.24-0.03-0.451-0.03-0.69-0.03c-3.87,0-7.02,3.15-7.02,7.02
		c0,3.87,3.149,7.02,7.02,7.02c3,0,5.249-1.889,6.27-4.559h-3.87c-0.33,0-0.6-0.271-0.6-0.601v-2.19c0-0.33,0.27-0.6,0.6-0.6h6.391
		c0.959,0,1.5,0.33,1.5,0.93c0,6.03-4.26,10.891-10.29,10.891S910.564,576.179,910.564,570.148z"/>
	<path d="M936.095,580.108v-19.919c0-0.301,0.271-0.57,0.569-0.57h3.121c0.299,0,0.539,0.27,0.539,0.57v19.919
		c0,0.3-0.24,0.54-0.539,0.54h-3.121C936.365,580.648,936.095,580.408,936.095,580.108z"/>
	<path d="M945.935,573.658l-0.06-0.149c-1.11-3.39-0.511-7.319,1.979-10.29c1.92-2.039,3.899-3.6,7.62-3.81h0.09
		c1.68-0.09,3.33,0.21,4.92,0.899c2.01,0.9,4.079,2.82,4.92,4.471c2.1,3.689,1.859,8.189-0.601,11.609
		c-0.931,1.32-2.01,2.369-3.81,3.33c-2.82,1.41-6.21,1.619-9.33,0.27C948.875,578.699,946.834,576.358,945.935,573.658z
		 M962.344,572.939c1.529-3.48,0-7.53-3.449-9.09c-2.58-1.141-5.58-0.631-7.561,1.289l-0.51,0.541
		c-2.43,2.969-2.07,7.318,0.84,9.719c2.13,1.801,5.1,2.13,7.529,0.9C960.874,575.339,961.924,573.929,962.344,572.939z"/>
	<path d="M970.805,580.139v-19.949c0-0.301,0.27-0.54,0.569-0.54h6.3c3.779,0,6.84,2.94,6.84,6.659c0,2.131-1.08,3.99-2.67,5.25
		c-0.3,0.27-0.12,0.631-0.12,0.631l3.479,7.77c0.24,0.539,0.031,0.719-0.299,0.719h-2.641c-0.39,0-0.6,0-0.779-0.359
		c0,0-3.03-6.779-3.15-7.02c-0.09-0.24-0.24-0.301-0.811-0.33h-2.399c-0.569,0-0.78,0.12-0.78,0.57v6.6c0,0.3-0.27,0.539-0.57,0.539
		h-2.399C971.074,580.678,970.805,580.438,970.805,580.139z M977.674,569.1c1.561,0,2.85-1.261,2.85-2.791
		c0-1.56-1.289-2.789-2.85-2.789h-2.789c-0.361,0-0.541,0.18-0.541,0.6v4.5c0,0.3,0.18,0.48,0.45,0.48H977.674z"/>
	<path d="M989.523,580.168V560.1c0-0.24,0.211-0.42,0.45-0.42h3.06c0.18,0,0.24,0.06,0.33,0.209l7.109,12.03
		c0.451,0.81,0.781,0.78,0.781-0.06l-0.061-11.76c0-0.24,0.21-0.42,0.449-0.42h3.15c0.24,0,0.45,0.18,0.45,0.42v20.068
		c0,0.24-0.21,0.42-0.45,0.42h-2.13c-0.66,0-0.87-0.029-1.2-0.569l-7.56-12.03c-0.271-0.42-0.569-0.329-0.569,0.15l0.06,12.029
		c0,0.24-0.21,0.42-0.42,0.42h-3C989.734,580.588,989.523,580.408,989.523,580.168z"/>
	<path d="M1009.264,580.289l5.311-20.189c0.09-0.24,0.329-0.45,0.6-0.45h6.239c0.271,0,0.511,0.21,0.601,0.42l5.31,20.188
		c0.06,0.24-0.091,0.42-0.3,0.42h-2.94c-0.239,0-0.54-0.209-0.6-0.449l-1.47-5.58c-0.09-0.359-0.45-0.63-0.811-0.63h-5.82
		c-0.359,0-0.719,0.271-0.809,0.63l-1.471,5.55c-0.061,0.271-0.359,0.479-0.6,0.479h-2.94
		C1009.354,580.678,1009.203,580.498,1009.264,580.289z M1020.273,570.809c0.42,0,0.66-0.33,0.57-0.689l-1.681-6.18
		c-0.06-0.33-0.42-0.6-0.78-0.6h-0.18c-0.359,0-0.72,0.27-0.779,0.6l-1.65,6.18c-0.09,0.359,0.12,0.689,0.54,0.689H1020.273z"/>
	<path d="M1034.584,580.258v-16.259c0-0.36-0.361-0.72-0.75-0.72h-5.041c-0.18,0-0.359-0.18-0.359-0.36v-2.909
		c0-0.181,0.15-0.33,0.359-0.33h15.84c0.24,0,0.42,0.18,0.42,0.39v2.819c0,0.211-0.18,0.391-0.42,0.391h-4.979
		c-0.39,0-0.72,0.33-0.72,0.72v16.259c0,0.211-0.15,0.391-0.391,0.391h-3.57C1034.733,580.648,1034.584,580.469,1034.584,580.258z"
		/>
	<path d="M1047.964,573.658l-0.06-0.149c-1.11-3.39-0.511-7.319,1.979-10.29c1.92-2.039,3.899-3.6,7.62-3.81h0.09
		c1.68-0.09,3.33,0.21,4.92,0.899c2.01,0.9,4.079,2.82,4.92,4.471c2.1,3.689,1.859,8.189-0.601,11.609
		c-0.931,1.32-2.01,2.369-3.81,3.33c-2.82,1.41-6.21,1.619-9.33,0.27C1050.904,578.699,1048.863,576.358,1047.964,573.658z
		 M1064.373,572.939c1.529-3.48,0-7.53-3.449-9.09c-2.58-1.141-5.58-0.631-7.561,1.289l-0.51,0.541
		c-2.43,2.969-2.07,7.318,0.84,9.719c2.13,1.801,5.1,2.13,7.529,0.9C1062.903,575.339,1063.953,573.929,1064.373,572.939z"/>
</g>
<g>
	<path d="M128.37,244.194v-19.889c0-0.3,0.24-0.54,0.54-0.54h6.99c3.69,0,6.63,2.97,6.63,6.63c0,3.69-2.94,6.63-6.63,6.63h-3
		c-0.45,0-0.75,0.12-0.75,0.6v6.57c0,0.3-0.24,0.54-0.54,0.54h-2.7C128.61,244.734,128.37,244.494,128.37,244.194z M135.899,233.185
		c1.53,0,2.79-1.23,2.79-2.79c0-1.53-1.26-2.76-2.79-2.76h-3.03c-0.51,0-0.72,0.21-0.72,0.6v4.95H135.899z"/>
	<path d="M146.939,244.224v-19.949c0-0.3,0.27-0.54,0.57-0.54h6.3c3.78,0,6.84,2.94,6.84,6.66c0,2.13-1.08,3.99-2.67,5.25
		c-0.3,0.27-0.12,0.63-0.12,0.63l3.48,7.77c0.24,0.54,0.03,0.72-0.3,0.72h-2.64c-0.39,0-0.6,0-0.78-0.36c0,0-3.03-6.78-3.15-7.02
		c-0.09-0.24-0.24-0.3-0.81-0.33h-2.4c-0.57,0-0.78,0.12-0.78,0.57v6.6c0,0.3-0.27,0.54-0.57,0.54h-2.4
		C147.209,244.764,146.939,244.524,146.939,244.224z M153.809,233.185c1.56,0,2.85-1.26,2.85-2.79c0-1.56-1.29-2.79-2.85-2.79h-2.79
		c-0.36,0-0.54,0.18-0.54,0.6v4.5c0,0.3,0.18,0.48,0.45,0.48H153.809z"/>
	<path d="M165.21,237.744l-0.06-0.15c-1.11-3.39-0.51-7.32,1.98-10.29c1.92-2.04,3.9-3.6,7.62-3.81h0.09
		c1.68-0.09,3.33,0.21,4.92,0.9c2.01,0.9,4.08,2.82,4.92,4.47c2.1,3.689,1.86,8.189-0.6,11.609c-0.93,1.32-2.01,2.37-3.81,3.33
		c-2.82,1.41-6.209,1.62-9.33,0.27C168.15,242.784,166.11,240.444,165.21,237.744z M181.619,237.024c1.53-3.48,0-7.53-3.45-9.09
		c-2.58-1.14-5.58-0.63-7.56,1.29l-0.51,0.54c-2.43,2.97-2.07,7.319,0.84,9.719c2.13,1.8,5.1,2.13,7.53,0.9
		C180.149,239.424,181.199,238.014,181.619,237.024z"/>
	<path d="M190.079,244.224v-19.949c0-0.3,0.24-0.54,0.54-0.54h12.569c0.3,0,0.54,0.24,0.54,0.54v2.55c0,0.3-0.24,0.54-0.54,0.54
		h-8.25c-0.42,0-0.75,0.33-0.75,0.75v3.63c0,0.42,0.33,0.75,0.75,0.75h5.58c0.39,0,0.72,0.36,0.72,0.78v2.4
		c0,0.45-0.33,0.78-0.72,0.78h-5.819c-0.3,0-0.54,0.24-0.54,0.54v7.23c0,0.3-0.24,0.54-0.54,0.54h-3
		C190.319,244.764,190.079,244.524,190.079,244.224z"/>
	<path d="M208.169,244.104v-19.77c0-0.3,0.24-0.54,0.54-0.54h13.439c0.3,0,0.54,0.24,0.54,0.54v2.52c0,0.3-0.24,0.54-0.54,0.54
		h-9.689c-0.3,0-0.54,0.24-0.54,0.54v4.41c0,0.39-0.03,0.57,0.69,0.57h7.5c0.27,0,0.51,0.21,0.51,0.48v2.55
		c0,0.27-0.24,0.48-0.51,0.48h-7.53c-0.63,0-0.66,0.54-0.66,0.69v3.18c0,0.3,0.06,0.72,0.84,0.72h9.6c0.3,0,0.54,0.27,0.54,0.57
		v2.52c0,0.3-0.24,0.54-0.54,0.54h-13.649C208.409,244.644,208.169,244.404,208.169,244.104z"/>
	<path d="M227.099,242.244c-0.42-0.45-0.12-1.05,0.87-2.46c0.24-0.3,0.48-0.36,0.78-0.24c3.21,1.65,5.01,1.65,6.48,1.65
		c2.91,0,4.169-1.53,2.669-3.45c-0.75-0.99-3.149-1.44-4.169-1.77c-3.15-0.93-4.98-2.19-5.58-4.26c-1.26-3.87,1.32-7.35,6.42-7.89
		c1.74-0.15,3.72,0.18,5.31,0.84c1.56,0.78,2.25,1.47,2.07,1.98c-0.24,0.57-0.96,1.44-1.38,2.01c-0.36,0.45-1.5-0.51-2.88-0.81
		c-1.17-0.24-2.49-0.57-4.2,0.03c-1.8,0.87-2.16,2.43-0.78,3.48c1.44,1.02,3.27,1.65,4.38,2.04c1.11,0.42,2.88,1.02,3.78,2.13
		c0.81,0.78,1.41,2.37,1.41,3.63c0,3.33-2.82,5.43-6.839,5.49C232.169,244.704,228.359,243.384,227.099,242.244z"/>
	<path d="M247.109,242.244c-0.42-0.45-0.12-1.05,0.87-2.46c0.24-0.3,0.48-0.36,0.78-0.24c3.21,1.65,5.01,1.65,6.48,1.65
		c2.91,0,4.169-1.53,2.669-3.45c-0.75-0.99-3.149-1.44-4.169-1.77c-3.15-0.93-4.98-2.19-5.58-4.26c-1.26-3.87,1.32-7.35,6.42-7.89
		c1.74-0.15,3.72,0.18,5.31,0.84c1.56,0.78,2.25,1.47,2.07,1.98c-0.24,0.57-0.96,1.44-1.38,2.01c-0.36,0.45-1.5-0.51-2.88-0.81
		c-1.17-0.24-2.49-0.57-4.2,0.03c-1.8,0.87-2.16,2.43-0.78,3.48c1.44,1.02,3.27,1.65,4.38,2.04c1.11,0.42,2.88,1.02,3.78,2.13
		c0.81,0.78,1.41,2.37,1.41,3.63c0,3.33-2.82,5.43-6.839,5.49C252.179,244.704,248.369,243.384,247.109,242.244z"/>
	<path d="M267.419,244.194v-19.919c0-0.3,0.27-0.57,0.57-0.57h3.12c0.3,0,0.54,0.27,0.54,0.57v19.919c0,0.3-0.24,0.54-0.54,0.54
		h-3.12C267.689,244.734,267.419,244.494,267.419,244.194z"/>
	<path d="M277.259,237.744l-0.06-0.15c-1.11-3.39-0.51-7.32,1.98-10.29c1.92-2.04,3.9-3.6,7.62-3.81h0.09
		c1.68-0.09,3.33,0.21,4.92,0.9c2.01,0.9,4.08,2.82,4.92,4.47c2.1,3.689,1.86,8.189-0.6,11.609c-0.93,1.32-2.01,2.37-3.81,3.33
		c-2.82,1.41-6.209,1.62-9.33,0.27C280.199,242.784,278.159,240.444,277.259,237.744z M293.668,237.024c1.53-3.48,0-7.53-3.45-9.09
		c-2.58-1.14-5.58-0.63-7.56,1.29l-0.51,0.54c-2.43,2.97-2.07,7.319,0.84,9.719c2.13,1.8,5.1,2.13,7.53,0.9
		C292.199,239.424,293.249,238.014,293.668,237.024z"/>
	<path d="M301.948,244.254v-20.069c0-0.24,0.21-0.42,0.45-0.42h3.06c0.18,0,0.24,0.06,0.33,0.21l7.11,12.03
		c0.45,0.81,0.78,0.78,0.78-0.06l-0.06-11.76c0-0.24,0.21-0.42,0.45-0.42h3.15c0.24,0,0.45,0.18,0.45,0.42v20.069
		c0,0.24-0.21,0.42-0.45,0.42h-2.13c-0.66,0-0.87-0.03-1.2-0.57l-7.56-12.03c-0.27-0.42-0.57-0.33-0.57,0.15l0.06,12.029
		c0,0.24-0.21,0.42-0.42,0.42h-3C302.159,244.674,301.948,244.494,301.948,244.254z"/>
	<path d="M321.688,244.374l5.31-20.189c0.09-0.24,0.33-0.45,0.6-0.45h6.24c0.27,0,0.51,0.21,0.6,0.42l5.31,20.189
		c0.06,0.24-0.09,0.42-0.3,0.42h-2.94c-0.24,0-0.54-0.21-0.6-0.45l-1.47-5.58c-0.09-0.36-0.45-0.63-0.81-0.63h-5.82
		c-0.36,0-0.72,0.27-0.81,0.63l-1.47,5.55c-0.06,0.27-0.36,0.48-0.6,0.48h-2.94C321.778,244.764,321.628,244.584,321.688,244.374z
		 M332.698,234.894c0.42,0,0.66-0.33,0.57-0.69l-1.68-6.18c-0.06-0.33-0.42-0.6-0.78-0.6h-0.18c-0.36,0-0.72,0.27-0.78,0.6
		l-1.65,6.18c-0.09,0.36,0.12,0.69,0.54,0.69H332.698z"/>
	<path d="M344.008,244.104v-19.77c0-0.33,0.3-0.63,0.63-0.63h3.09c0.36,0,0.63,0.3,0.63,0.63v15.81c0,0.33,0.27,0.63,0.6,0.63h7.26
		c0.36,0,0.63,0.27,0.63,0.6v2.73c0,0.36-0.27,0.63-0.63,0.63h-11.58C344.308,244.734,344.008,244.464,344.008,244.104z"/>
	<path d="M361.798,244.104v-19.77c0-0.3,0.24-0.54,0.54-0.54h13.439c0.3,0,0.54,0.24,0.54,0.54v2.52c0,0.3-0.24,0.54-0.54,0.54
		h-9.689c-0.3,0-0.54,0.24-0.54,0.54v4.41c0,0.39-0.03,0.57,0.69,0.57h7.5c0.27,0,0.51,0.21,0.51,0.48v2.55
		c0,0.27-0.24,0.48-0.51,0.48h-7.53c-0.63,0-0.66,0.54-0.66,0.69v3.18c0,0.3,0.06,0.72,0.84,0.72h9.6c0.3,0,0.54,0.27,0.54,0.57
		v2.52c0,0.3-0.24,0.54-0.54,0.54h-13.649C362.038,244.644,361.798,244.404,361.798,244.104z"/>
</g>
<g>
	<path fill="#C2D77A" d="M484.083,266.247h-41.391c-1.203,0-2.178-0.975-2.178-2.179v-56.64c0-1.204,0.976-2.178,2.178-2.178h41.391
		c1.203,0,2.179,0.975,2.179,2.178v56.64C486.262,265.272,485.286,266.247,484.083,266.247z"/>
	<path fill="#EFF2FB" d="M481.904,257.533v-43.569c-2.406,0-4.356-1.951-4.356-4.357h-28.32c0,2.407-1.951,4.357-4.356,4.357v43.569
		c2.406,0,4.356,1.951,4.356,4.357h28.32C477.548,259.483,479.498,257.533,481.904,257.533z"/>
	<path fill="#FFD782" d="M477.548,262.979h-28.32c-0.602,0-1.089-0.488-1.089-1.089c0-1.802-1.466-3.268-3.268-3.268
		c-0.601,0-1.089-0.488-1.089-1.089v-43.569c0-0.602,0.488-1.089,1.089-1.089c1.802,0,3.268-1.466,3.268-3.268
		c0-0.601,0.488-1.089,1.089-1.089h28.32c0.602,0,1.089,0.488,1.089,1.089c0,1.802,1.466,3.268,3.268,3.268
		c0.601,0,1.089,0.487,1.089,1.089v43.569c0,0.602-0.488,1.089-1.089,1.089c-1.802,0-3.268,1.466-3.268,3.268
		C478.637,262.491,478.149,262.979,477.548,262.979z M450.208,260.801h26.36c0.434-2.131,2.117-3.813,4.248-4.248v-41.61
		c-2.131-0.434-3.813-2.117-4.247-4.248h-26.361c-0.434,2.131-2.117,3.813-4.248,4.248v41.61
		C448.09,256.987,449.773,258.67,450.208,260.801z"/>
	<g>
		<path fill="#EC6567" d="M478.852,266.669l-2.537-0.628l-1.555,2.1c-0.334,0.452-1.037,0.348-1.227-0.181l-3.61-10.038l6.15-2.211
			l3.609,10.038C479.873,266.277,479.397,266.804,478.852,266.669z"/>
		<path fill="#EC6567" d="M463.172,266.669l2.537-0.628l1.556,2.1c0.334,0.452,1.037,0.348,1.227-0.181l3.609-10.038l-6.15-2.211
			l-3.609,10.038C462.152,266.277,462.627,266.804,463.172,266.669z"/>
	</g>
	<circle fill="#FFD782" cx="471.012" cy="252.087" r="7.625"/>
	<circle fill="#FBC270" cx="471.012" cy="252.087" r="5.446"/>
	<path fill="#FFD782" d="M473.191,222.677h-19.606c-0.602,0-1.089-0.488-1.089-1.089l0,0c0-0.602,0.488-1.09,1.089-1.09h19.606
		c0.602,0,1.089,0.488,1.089,1.09l0,0C474.28,222.189,473.792,222.677,473.191,222.677z"/>
	<g opacity="0.97">
		<path fill="#B0B9D2" d="M454.673,231.391h-2.178c-0.601,0-1.089-0.487-1.089-1.089l0,0c0-0.602,0.488-1.089,1.089-1.089h2.178
			c0.602,0,1.09,0.487,1.09,1.089l0,0C455.763,230.904,455.275,231.391,454.673,231.391z"/>
	</g>
	<g opacity="0.97">
		<path fill="#C7CFE2" d="M474.28,231.391h-15.25c-0.602,0-1.089-0.487-1.089-1.089l0,0c0-0.602,0.488-1.089,1.089-1.089h15.25
			c0.601,0,1.089,0.487,1.089,1.089l0,0C475.369,230.904,474.881,231.391,474.28,231.391z"/>
	</g>
	<g opacity="0.97">
		<path fill="#B0B9D2" d="M454.673,235.748h-2.178c-0.601,0-1.089-0.488-1.089-1.089l0,0c0-0.601,0.488-1.089,1.089-1.089h2.178
			c0.602,0,1.09,0.488,1.09,1.089l0,0C455.763,235.26,455.275,235.748,454.673,235.748z"/>
	</g>
	<g opacity="0.97">
		<path fill="#C7CFE2" d="M474.28,235.748h-15.25c-0.602,0-1.089-0.488-1.089-1.089l0,0c0-0.601,0.488-1.089,1.089-1.089h15.25
			c0.601,0,1.089,0.488,1.089,1.089l0,0C475.369,235.26,474.881,235.748,474.28,235.748z"/>
	</g>
	<g opacity="0.97">
		<path fill="#B0B9D2" d="M454.673,240.105h-2.178c-0.601,0-1.089-0.488-1.089-1.089l0,0c0-0.602,0.488-1.089,1.089-1.089h2.178
			c0.602,0,1.09,0.488,1.09,1.089l0,0C455.763,239.618,455.275,240.105,454.673,240.105z"/>
	</g>
	<g opacity="0.97">
		<path fill="#C7CFE2" d="M474.28,240.105h-15.25c-0.602,0-1.089-0.488-1.089-1.089l0,0c0-0.602,0.488-1.089,1.089-1.089h15.25
			c0.601,0,1.089,0.488,1.089,1.089l0,0C475.369,239.618,474.881,240.105,474.28,240.105z"/>
	</g>
	<g>
		<path fill="#D8DEED" d="M460.12,249.908h-7.625c-0.601,0-1.089-0.487-1.089-1.089l0,0c0-0.602,0.488-1.09,1.089-1.09h7.625
			c0.602,0,1.089,0.488,1.089,1.09l0,0C461.209,249.421,460.722,249.908,460.12,249.908z"/>
		<path fill="#D8DEED" d="M456.853,254.266h-4.357c-0.601,0-1.089-0.488-1.089-1.09l0,0c0-0.602,0.488-1.089,1.089-1.089h4.357
			c0.601,0,1.089,0.488,1.089,1.089l0,0C457.941,253.778,457.454,254.266,456.853,254.266z"/>
	</g>
	<path fill="#FFD782" d="M469.923,218.32h-13.07c-0.602,0-1.089-0.487-1.089-1.089l0,0c0-0.602,0.488-1.089,1.089-1.089h13.07
		c0.602,0,1.089,0.487,1.089,1.089l0,0C471.012,217.833,470.524,218.32,469.923,218.32z"/>
</g>
<g>
	<polygon fill="#1FB8D1" points="832.807,361.986 824.252,383.227 824.349,383.227 845,383.227 833.005,361.986 	"/>
	<polygon fill="#5DC2D6" points="832.807,361.986 810.19,361.986 824.252,383.227 	"/>
	<g>
		<polygon fill="#5DC2D6" points="824.252,383.227 824.152,383.227 796.325,383.227 796.03,383.227 775.382,383.227 810.19,416.756 
			845,383.227 824.349,383.227 		"/>
		<polygon fill="#5DC2D6" points="796.325,383.127 810.19,361.986 787.573,361.986 796.227,382.93 		"/>
	</g>
	<polygon fill="#1FB8D1" points="796.325,383.227 824.152,383.227 824.252,383.227 810.19,361.986 796.325,383.127 796.227,382.93 
		787.573,361.986 775.382,383.227 796.03,383.227 	"/>
</g>
<g>
	<path d="M905.47,398.993l-1.29-1.89c-0.12-0.18-0.21-0.3-0.511-0.21c-2.189,0.57-4.56,0.39-6.779-0.63c-2.7-1.2-4.71-3.45-5.7-6.39
		c-1.109-3.42-0.479-7.29,1.92-10.229c2.221-2.55,4.5-3.66,7.47-3.84c4.021-0.15,7.65,1.77,9.69,5.22
		c2.67,5.16,1.619,10.17-2.7,14.01c-0.12,0.09-0.21,0.149-0.03,0.449l0.96,1.41c0.24,0.33,0.15,0.811-0.18,1.021l-1.83,1.289
		C906.159,399.414,905.68,399.354,905.47,398.993z M907.479,389.484c1.47-3.24-0.03-7.771-3.48-9.33
		c-2.67-1.2-5.939-0.479-8.039,1.89c-2.43,2.94-2.04,7.32,0.87,9.81c2.159,1.83,5.159,2.07,7.499,0.811
		C904.479,392.574,906.31,391.854,907.479,389.484z"/>
	<path d="M915.789,389.874v-13.289c0-0.301,0.24-0.57,0.54-0.57h2.88c0.301,0,0.54,0.27,0.54,0.57v13.289
		c0,1.95,1.561,3.54,3.51,3.54c2.28,0,4.2-1.59,4.2-3.54v-13.289c0-0.301,0.24-0.57,0.54-0.57h2.88c0.3,0,0.54,0.27,0.54,0.57
		v13.289c0,4.08-3.36,7.38-8.16,7.38C919.18,397.254,915.789,393.954,915.789,389.874z"/>
	<path d="M935.68,396.653l5.31-20.188c0.09-0.24,0.33-0.45,0.6-0.45h6.24c0.27,0,0.51,0.21,0.6,0.42l5.31,20.189
		c0.061,0.239-0.09,0.42-0.3,0.42h-2.939c-0.24,0-0.54-0.21-0.601-0.45l-1.47-5.58c-0.09-0.359-0.45-0.63-0.81-0.63h-5.82
		c-0.359,0-0.72,0.271-0.81,0.63l-1.47,5.55c-0.061,0.271-0.36,0.48-0.601,0.48h-2.939
		C935.77,397.044,935.619,396.863,935.68,396.653z M946.688,387.174c0.42,0,0.66-0.33,0.57-0.689l-1.68-6.18
		c-0.061-0.33-0.42-0.601-0.78-0.601h-0.18c-0.36,0-0.721,0.271-0.78,0.601l-1.649,6.18c-0.091,0.359,0.119,0.689,0.539,0.689
		H946.688z"/>
	<path d="M958,396.384v-19.77c0-0.33,0.3-0.63,0.63-0.63h3.09c0.359,0,0.63,0.3,0.63,0.63v15.81c0,0.33,0.27,0.63,0.6,0.63h7.26
		c0.36,0,0.63,0.271,0.63,0.601v2.729c0,0.36-0.27,0.63-0.63,0.63H958.63C958.3,397.014,958,396.744,958,396.384z"/>
	<path d="M976.839,396.474v-19.919c0-0.3,0.271-0.57,0.57-0.57h3.119c0.301,0,0.54,0.271,0.54,0.57v19.919
		c0,0.3-0.239,0.54-0.54,0.54h-3.119C977.109,397.014,976.839,396.773,976.839,396.474z"/>
	<path d="M992.019,396.624v-16.26c0-0.36-0.36-0.72-0.75-0.72h-5.04c-0.18,0-0.359-0.18-0.359-0.36v-2.909
		c0-0.181,0.149-0.33,0.359-0.33h15.84c0.239,0,0.42,0.18,0.42,0.39v2.819c0,0.211-0.181,0.391-0.42,0.391h-4.98
		c-0.39,0-0.72,0.33-0.72,0.72v16.26c0,0.21-0.15,0.39-0.39,0.39h-3.57C992.168,397.014,992.019,396.834,992.019,396.624z"/>
	<path d="M1006.749,396.653l5.31-20.188c0.09-0.24,0.33-0.45,0.6-0.45h6.24c0.27,0,0.51,0.21,0.6,0.42l5.31,20.189
		c0.061,0.239-0.09,0.42-0.3,0.42h-2.939c-0.24,0-0.54-0.21-0.601-0.45l-1.47-5.58c-0.09-0.359-0.45-0.63-0.81-0.63h-5.82
		c-0.359,0-0.72,0.271-0.81,0.63l-1.47,5.55c-0.061,0.271-0.36,0.48-0.601,0.48h-2.939
		C1006.839,397.044,1006.688,396.863,1006.749,396.653z M1017.758,387.174c0.42,0,0.66-0.33,0.57-0.689l-1.68-6.18
		c-0.061-0.33-0.42-0.601-0.78-0.601h-0.18c-0.36,0-0.72,0.271-0.78,0.601l-1.649,6.18c-0.091,0.359,0.119,0.689,0.539,0.689
		H1017.758z M1014.908,374.574l-0.66-3.029c-0.029-0.24,0.12-0.48,0.391-0.48h1.109c0.271,0,0.54,0.24,0.57,0.48l0.66,3.029
		c0.029,0.24-0.12,0.48-0.391,0.48h-1.109C1015.208,375.055,1014.938,374.814,1014.908,374.574z"/>
</g>
</svg>
