<?xml version="1.0" encoding="utf-8"?>
<!-- Generator: Adobe Illustrator 16.0.0, SVG Export Plug-In . SVG Version: 6.00 Build 0)  -->
<!DOCTYPE svg PUBLIC "-//W3C//DTD SVG 1.1//EN" "http://www.w3.org/Graphics/SVG/1.1/DTD/svg11.dtd">
<svg version="1.1" id="Layer_1" xmlns="http://www.w3.org/2000/svg" xmlns:xlink="http://www.w3.org/1999/xlink" x="0px" y="0px"
	 width="1200px" height="684px" viewBox="0 0 1200 684" enable-background="new 0 0 1200 684" xml:space="preserve">
<circle fill="#2FAC66" cx="600" cy="342" r="342"/>
<path fill="#2FAC66" d="M932.685,421.153L696.058,184.535l-2.784-2.79c-2.515-1.967-5.694-3.171-9.083-3.171h-45.4l-16.953-16.949
	c-1.916-1.915-4.429-2.899-7-2.899h-29.704c-2.514,0-5.03,0.984-7,2.899c-1.916,1.971-2.9,4.488-2.9,7.056v9.894h-59.402
	c-8.204,0-14.881,6.676-14.881,14.829v104.468v212.487c0,3.078,0.93,5.913,2.521,8.267c0.051,0.059,0.109,0.104,0.109,0.171
	l3.773,3.772c0.059,0,0.112,0.049,0.167,0.104l155.438,155.449C795.887,653.366,901.723,551.782,932.685,421.153z"/>
<rect x="500.957" y="235.408" fill="#34495E" width="198.09" height="266.76"/>
<g>
	<polygon fill="#FF8E31" points="595.977,360.286 588.396,290.738 577.091,394.278 603.981,377.294 611.597,446.866 
		622.901,343.306 	"/>
	<path fill="#FF8E31" d="M699.04,193.436v41.97H500.95v-41.97c0-8.178,6.683-14.863,14.863-14.863H684.18
		C692.344,178.573,699.04,185.258,699.04,193.436z"/>
</g>
<polygon fill="#34495E" points="614.656,203.329 603.66,203.329 603.66,192.34 596.347,192.34 596.347,203.329 585.343,203.329 
	585.343,210.658 596.347,210.658 596.347,221.654 603.66,221.654 603.66,210.658 614.656,210.658 "/>
<path fill="#FF8E31" d="M699.04,510.366v-8.184H500.95v8.184c0,8.185,6.683,14.864,14.863,14.864H684.18
	C692.344,525.231,699.04,518.551,699.04,510.366z"/>
<path fill="#FFFFFF" d="M575.232,178.573h49.518v-9.905c0-2.523-0.976-5.064-2.911-7.007c-1.932-1.925-4.459-2.9-7-2.9h-29.717
	c-2.521,0-5.058,0.978-6.993,2.9c-1.937,1.942-2.9,4.483-2.9,7.007v9.905H575.232z"/>
<rect x="515.801" y="235.408" fill="#5D7D99" width="16.155" height="266.76"/>
<g>
	<rect x="515.801" y="178.421" fill="#FFAE7D" width="16.155" height="57.002"/>
	<rect x="515.801" y="502.192" fill="#FFAE7D" width="16.155" height="23.044"/>
</g>
</svg>
