<?xml version="1.0" encoding="utf-8"?>
<!-- Generator: Adobe Illustrator 16.0.0, SVG Export Plug-In . SVG Version: 6.00 Build 0)  -->
<!DOCTYPE svg PUBLIC "-//W3C//DTD SVG 1.1//EN" "http://www.w3.org/Graphics/SVG/1.1/DTD/svg11.dtd">
<svg version="1.1" id="Capa_1" xmlns="http://www.w3.org/2000/svg" xmlns:xlink="http://www.w3.org/1999/xlink" x="0px" y="0px"
	 width="1200px" height="684px" viewBox="0 0 1200 684" enable-background="new 0 0 1200 684" xml:space="preserve">
<circle fill="#2FAC66" cx="600" cy="342" r="342"/>
<path fill="#38454F" d="M600,414.849h67.645c12.182,0,23.961,4.361,33.214,12.289l65.368,56.059
	c4.375,3.752,10.777,4.396,15.639,1.31c68.004-43.038-14.479-212.888-30.828-243.724c-1.733-3.273-4.59-21.026-8.063-22.294
	l-54.97-19.986c-4.82-1.754-10.184-1.11-14.443,1.733c0,0-15.498,9.904-18.971,9.904h-60.333h-46.899
	c-3.473,0-20.918-9.904-20.918-9.904c-4.268-2.844-9.631-3.488-14.443-1.733l-54.97,19.986c-3.48,1.268-6.33,19.021-8.063,22.294
	c-16.349,30.836-98.832,200.686-30.828,243.724c4.869,3.079,11.271,2.435,15.64-1.31l65.367-56.059
	c9.252-7.928,21.032-12.289,33.214-12.289H600z"/>
<circle fill="#546A79" cx="655.077" cy="350.399" r="28.645"/>
<circle fill="#546A79" cx="490.369" cy="278.787" r="28.645"/>
<circle fill="#EBBA16" cx="705.205" cy="250.142" r="14.323"/>
<circle fill="#7383BF" cx="676.561" cy="278.787" r="14.322"/>
<circle fill="#D75A4A" cx="733.85" cy="278.787" r="14.322"/>
<circle fill="#61B872" cx="705.205" cy="307.431" r="14.322"/>
<path fill="#AFB6BB" d="M619.271,217.516c0-1.375-0.136-2.721-0.387-4.018c-0.251-1.296-0.795-2.42-1.539-3.358
	c-8.387,0-14.896,0-17.753,0c-0.608,0.05-1.182,0.214-1.798,0.214c-0.622,0-1.195-0.158-1.798-0.214c-0.093,0-1.732,0-1.732,0
	h-16.091c-0.63,0.816-1.132,1.754-1.375,2.865c-0.623,2.85-0.674,5.922,0,9.102c1.775,8.378,8.772,15.131,17.215,16.571
	C607.541,240.982,619.271,230.621,619.271,217.516z"/>
<path fill="#546A79" d="M587.045,333.592h-23.531v-23.532c0-2.828-2.291-5.112-5.113-5.112H539.99c-2.829,0-5.113,2.291-5.113,5.112
	v23.532h-23.532c-2.828,0-5.112,2.291-5.112,5.113v18.411c0,2.829,2.291,5.113,5.112,5.113h23.525v23.532
	c0,2.828,2.291,5.112,5.112,5.112h18.412c2.829,0,5.112-2.291,5.112-5.112v-23.532h23.532c2.829,0,5.113-2.292,5.113-5.113v-18.411
	C592.158,335.883,589.867,333.592,587.045,333.592z"/>
</svg>
