<?xml version="1.0" encoding="utf-8"?>
<!-- Generator: Adobe Illustrator 16.0.0, SVG Export Plug-In . SVG Version: 6.00 Build 0)  -->
<!DOCTYPE svg PUBLIC "-//W3C//DTD SVG 1.1//EN" "http://www.w3.org/Graphics/SVG/1.1/DTD/svg11.dtd">
<svg version="1.1" id="Capa_1" xmlns="http://www.w3.org/2000/svg" xmlns:xlink="http://www.w3.org/1999/xlink" x="0px" y="0px"
	 width="1200px" height="684px" viewBox="0 0 1200 684" enable-background="new 0 0 1200 684" xml:space="preserve">
<circle fill="#2FAC66" cx="600" cy="342" r="342"/>
<g>
	<path d="M848.627,510.823l-78.393-242.304c-3.467-10.712-13.441-17.969-24.701-17.969h-82.728
		c6.706-11.078,10.641-24.011,10.641-37.877c0-40.496-32.95-73.447-73.448-73.447c-40.495,0-73.446,32.951-73.446,73.447
		c0,13.866,3.935,26.799,10.641,37.877h-82.727c-11.259,0-21.234,7.256-24.7,17.969l-78.393,242.304
		c-5.426,16.768,7.078,33.951,24.701,33.951h447.852C841.549,544.776,854.051,527.591,848.627,510.823z M561.168,212.673
		c0-21.415,17.418-38.832,38.832-38.832s38.832,17.417,38.832,38.832c0,18.543-13.08,34.041-30.484,37.877h-16.695
		C574.247,246.714,561.168,231.216,561.168,212.673z M565.668,460.447l-22.439-43.086h-10.691v43.086h-25.996V354.232h25.996v41.006
		h10.691l21.992-41.006h27.929l-28.68,50.803v0.303l30.312,55.109H565.668z M702.387,460.447h-21.688v-2.977
		c0-2.227,0.145-4.451,0.145-4.451h-0.289c0,0-10.259,9.205-27.93,9.205c-27.19,0-52.146-20.346-52.146-55.109
		c0-30.893,23.32-54.662,55.715-54.662c27.179,0,40.847,14.105,40.847,14.105l-12.482,19.463c0,0-10.839-9.799-25.848-9.799
		c-22.281,0-31.341,14.262-31.341,29.998c0,20.213,13.959,32.236,30.458,32.236c12.47,0,21.528-7.717,21.528-7.717v-8.178h-14.998
		v-22.137h38.029V460.447L702.387,460.447z"/>
</g>
</svg>
