<?xml version="1.0" encoding="utf-8"?>
<!-- Generator: Adobe Illustrator 16.0.0, SVG Export Plug-In . SVG Version: 6.00 Build 0)  -->
<!DOCTYPE svg PUBLIC "-//W3C//DTD SVG 1.1//EN" "http://www.w3.org/Graphics/SVG/1.1/DTD/svg11.dtd">
<svg version="1.1" id="Layer_1" xmlns="http://www.w3.org/2000/svg" xmlns:xlink="http://www.w3.org/1999/xlink" x="0px" y="0px"
	 width="1200px" height="684px" viewBox="0 0 1200 684" enable-background="new 0 0 1200 684" xml:space="preserve">
<circle fill="#2FAC66" cx="600" cy="342" r="342"/>
<path fill="#2FAC66" d="M932.26,422.999c-79.224-79.232-148.366-148.312-148.719-148.564c-1.006-0.673-2.21-1.07-3.519-1.07
	c-2.289,0-4.269,1.208-5.452,3.011c-0.533-0.77-113.866-114.147-114.629-114.7c-1.043-0.756-2.309-1.21-3.714-1.21
	c-3.595,0-6.579,2.927-6.579,6.572c0,2.388,1.361,4.405,3.255,5.558c0.253,0.428,0.555,0.796,0.893,1.16v35.934
	c0,0-34.329-34.272-34.84-34.744c-1.125-1.025-2.589-1.665-4.22-1.672c-0.524-0.695-11.659-11.758-11.987-12.11
	c-1.18-1.289-2.826-2.127-4.721-2.127c-3.595,0-6.521,2.941-6.521,6.577c0,2.411,1.333,4.435,3.245,5.592
	c0.236,0.4,0.517,0.763,0.835,1.099v16.823l-18.896,16.699c0,0-45.157-45.473-45.849-46.003c-1.067-0.835-2.397-1.342-3.871-1.342
	c-3.611,0-6.588,2.928-6.588,6.573c0,1.207,0.338,2.309,0.917,3.249c0.585,0.958,24.494,24.825,25.448,25.394
	c0.023,0.037,0.059,0.078,0.085,0.127v42.202c-0.581,0.178-1.146,0.444-1.613,0.898c-0.697,0.711-1.107,1.711-1.107,2.723v12.948
	h-4.146c-1.009,0-2.411,0.563-3.096,1.303l-22.958,22.914c-0.68,0.732-1.252,2.089-1.252,3.091v4.203h-12.947
	c-1.037,0-2.004,0.349-2.71,1.111c-0.469,0.432-0.759,0.985-0.947,1.566H469.58c-0.354-0.318-0.722-0.609-1.139-0.855
	c-1.138-1.925-3.177-3.253-5.626-3.253c-3.595,0-6.572,2.92-6.572,6.573c0,1.337,0.423,2.561,1.132,3.563
	c0.563,0.812,20.793,20.698,20.793,20.698h-1.83l-9.332,9.337h-42.498c-0.338-0.312-0.694-0.593-1.098-0.835
	c-1.149-1.916-3.185-3.245-5.647-3.245c-3.587,0-6.563,2.927-6.563,6.565c0,1.116,0.301,2.164,0.824,3.074
	c0.592,1.033,41.662,42.179,41.662,42.179l-20.506,20.526c-0.759-0.318-1.625-0.544-2.545-0.544c-3.65,0-6.577,2.976-6.577,6.57
	c0,1.21,0.342,2.335,0.921,3.293c0.581,0.937,109.475,109.765,110.15,110.271l-0.77,0.77c-0.75-0.243-1.502-0.4-2.335-0.4
	c-3.578,0-6.566,2.944-6.566,6.566c0,1.354,0.432,2.571,1.159,3.584c0.216,0.301,68.606,68.749,153.162,153.319
	C804.154,644.821,902.09,547.193,932.26,422.999z"/>
<g>
	<path fill="#FFFFFF" d="M600.524,171.698c2.387-0.984,4.086-3.321,4.086-6.081c0-3.636-2.931-6.577-6.572-6.577
		c-3.598,0-6.522,2.941-6.522,6.577c0,2.76,1.69,5.095,4.077,6.081v17.431l-22,19.446v37.639h4.936v-35.432l21.997-19.433
		L600.524,171.698L600.524,171.698z M598.038,168.9c-1.796,0-3.297-1.478-3.297-3.283c0-1.792,1.501-3.304,3.297-3.304
		c1.844,0,3.284,1.512,3.284,3.304C601.32,167.422,599.88,168.9,598.038,168.9z"/>
	<path fill="#FFFFFF" d="M533.55,165.059c0-3.646-2.932-6.572-6.573-6.572c-3.61,0-6.587,2.927-6.587,6.572
		c0,3.659,2.975,6.58,6.587,6.58c0.812,0,1.543-0.145,2.224-0.424l17.64,17.62v57.374h4.928v-59.381l0,0l-18.882-18.934
		C533.321,167.06,533.55,166.085,533.55,165.059z M526.976,168.356c-1.809,0-3.293-1.487-3.293-3.297
		c0-1.795,1.484-3.275,3.293-3.275c1.792,0,3.28,1.478,3.28,3.275C530.257,166.869,528.768,168.356,526.976,168.356z"/>
	<path fill="#FFFFFF" d="M653.797,246.213h4.925v-73.089c2.384-0.984,4.08-3.331,4.08-6.084c0-3.646-2.925-6.573-6.566-6.573
		c-3.604,0-6.59,2.928-6.59,6.573c0,2.753,1.758,5.1,4.147,6.084v73.089H653.797L653.797,246.213z M652.945,167.036
		c0-1.851,1.49-3.284,3.293-3.284c1.837,0,3.283,1.434,3.283,3.284c0,1.802-1.446,3.286-3.283,3.286
		C654.437,170.326,652.945,168.838,652.945,167.036z"/>
	<path fill="#FFFFFF" d="M621.253,179.83c0-3.659-2.966-6.572-6.57-6.572c-3.646,0-6.577,2.913-6.577,6.572
		c0,3.585,2.927,6.566,6.577,6.566c0.835,0,1.689-0.215,2.432-0.5l9.924,9.945v50.366h4.925V193.78l-11.269-11.282
		C621.02,181.65,621.253,180.781,621.253,179.83z M614.682,183.1c-1.837,0-3.293-1.484-3.293-3.27c0-1.815,1.457-3.297,3.293-3.297
		c1.802,0,3.293,1.484,3.293,3.297C617.975,181.615,616.484,183.1,614.682,183.1z"/>
	<path fill="#FFFFFF" d="M600.359,246.213h4.942v-29.784l7.168-7.172c0.685,0.27,1.399,0.407,2.213,0.407
		c3.604,0,6.57-2.913,6.57-6.572c0-3.585-2.966-6.566-6.57-6.566c-3.646,0-6.577,2.986-6.577,6.566c0,1.043,0.232,2.021,0.667,2.865
		l-8.414,8.465L600.359,246.213L600.359,246.213z M614.682,199.821c1.802,0,3.293,1.473,3.293,3.269
		c0,1.813-1.491,3.304-3.293,3.304c-1.837,0-3.293-1.491-3.293-3.304C611.389,201.291,612.845,199.821,614.682,199.821z"/>
	<path fill="#FFFFFF" d="M546.844,499.004l-12.479,12.477c-0.749-0.243-1.501-0.4-2.335-0.4c-3.573,0-6.566,2.944-6.566,6.565
		c0,3.604,2.993,6.56,6.566,6.56c3.659,0,6.588-2.955,6.588-6.56c0-1.006-0.22-1.979-0.641-2.841l13.797-13.793v-62.504h-4.929
		L546.844,499.004L546.844,499.004z M532.028,520.951c-1.782,0-3.284-1.484-3.284-3.304c0-1.847,1.502-3.273,3.284-3.273
		c1.867,0,3.293,1.427,3.293,3.273C535.318,519.471,533.891,520.951,532.028,520.951z"/>
	<path fill="#FFFFFF" d="M627.039,474.621l-20.247,20.246c-0.704-0.232-1.457-0.441-2.298-0.441c-3.584,0-6.576,2.976-6.576,6.588
		c0,3.649,2.992,6.57,6.576,6.57c3.657,0,6.595-2.921,6.595-6.57c0-1.013-0.232-1.925-0.643-2.805l21.521-21.532v-38.168h-4.924
		v36.112H627.039z M604.494,504.289c-1.777,0-3.283-1.427-3.283-3.275c0-1.8,1.504-3.304,3.283-3.304c1.868,0,3.3,1.501,3.3,3.304
		C607.794,502.863,606.362,504.289,604.494,504.289z"/>
	<path fill="#FFFFFF" d="M573.592,459.573l-7.141,7.141c-0.866-0.414-1.775-0.64-2.784-0.64c-3.639,0-6.573,2.936-6.573,6.577
		c0,3.611,2.932,6.587,6.573,6.587c3.595,0,6.566-2.975,6.566-6.587c0-0.845-0.145-1.598-0.445-2.353l8.738-8.671v-23.431h-4.935
		V459.573z M563.663,475.934c-1.792,0-3.284-1.484-3.284-3.283c0-1.851,1.495-3.284,3.284-3.284c1.806,0,3.286,1.434,3.286,3.284
		C566.953,474.452,565.469,475.934,563.663,475.934z"/>
	<path fill="#FFFFFF" d="M589.34,512.846v-22.613l15.962-14.148v-37.576h-4.942v35.353l-15.961,14.132v24.856
		c-2.432,1.002-4.131,3.341-4.131,6.097c0,3.585,2.975,6.577,6.566,6.577c3.658,0,6.587-2.992,6.587-6.577
		C593.427,516.188,591.733,513.848,589.34,512.846z M586.838,522.216c-1.792,0-3.293-1.483-3.293-3.272
		c0-1.803,1.501-3.293,3.293-3.293c1.802,0,3.293,1.49,3.293,3.293C590.131,520.737,588.639,522.216,586.838,522.216z"/>
	<path fill="#FFFFFF" d="M675.743,505.022c-0.976,0-1.905,0.188-2.701,0.592l-14.32-14.338v-52.767h-4.925v54.802l15.849,15.828
		c-0.328,0.743-0.479,1.576-0.479,2.411c0,3.659,2.918,6.57,6.577,6.57c3.595,0,6.57-2.911,6.57-6.57
		C682.312,507.945,679.338,505.022,675.743,505.022z M675.743,514.823c-1.8,0-3.294-1.434-3.294-3.273
		c0-1.809,1.495-3.304,3.294-3.304c1.791,0,3.293,1.495,3.293,3.304C679.037,513.39,677.538,514.823,675.743,514.823z"/>
	<path fill="#FFFFFF" d="M769.411,302.845c0.835,0.315,1.696,0.544,2.654,0.544c3.639,0,6.56-2.976,6.56-6.566
		c0-3.649-2.921-6.588-6.56-6.588c-3.67,0-6.588,2.938-6.588,6.588c0,0.844,0.209,1.71,0.507,2.473l-14.255,14.244h-52.788v4.924
		h54.84L769.411,302.845z M772.068,293.529c1.781,0,3.272,1.442,3.272,3.293c0,1.795-1.491,3.283-3.272,3.283
		c-1.81,0-3.294-1.488-3.294-3.283C768.773,294.971,770.255,293.529,772.068,293.529z"/>
	<path fill="#FFFFFF" d="M745.918,282.371h27.989c0.985,2.438,3.365,4.129,6.126,4.129c3.595,0,6.565-2.932,6.565-6.566
		c0-3.659-2.973-6.566-6.565-6.566c-2.761,0-5.141,1.69-6.126,4.139h-30.045l0,0h-0.011l-9.333,9.289h-35.567v4.918h37.575
		L745.918,282.371z M780.033,276.648c1.791,0,3.293,1.483,3.293,3.283s-1.498,3.286-3.293,3.286c-1.857,0-3.294-1.488-3.294-3.286
		C776.739,278.131,778.176,276.648,780.033,276.648z"/>
	<path fill="#FFFFFF" d="M779.243,414.243c-0.752,0-1.528,0.188-2.195,0.414l-20.934-20.924h-54.813v4.936h52.771l19.336,19.281
		c-0.451,0.893-0.743,1.809-0.743,2.863c0,3.646,2.973,6.565,6.577,6.565c3.649,0,6.588-2.92,6.588-6.565
		C785.829,417.22,782.895,414.243,779.243,414.243z M779.243,424.097c-1.791,0-3.304-1.436-3.304-3.283
		c0-1.803,1.508-3.287,3.304-3.287c1.847,0,3.284,1.484,3.284,3.287C782.525,422.661,781.09,424.097,779.243,424.097z"/>
	<path fill="#FFFFFF" d="M729.186,376.039c3.657,0,6.577-2.911,6.577-6.56c0-3.649-2.92-6.576-6.577-6.576
		c-2.753,0-5.095,1.696-6.07,4.063h-21.815v4.945h21.815C724.092,374.35,726.437,376.039,729.186,376.039z M729.186,366.176
		c1.8,0,3.294,1.502,3.294,3.304c0,1.803-1.495,3.276-3.294,3.276c-1.791,0-3.286-1.474-3.286-3.276
		C725.9,367.681,727.395,366.176,729.186,366.176z"/>
	<path fill="#FFFFFF" d="M782.224,358.861c-2.767,0-5.16,1.706-6.136,4.091H749.04l-22.668-22.678h-25.071v4.929h23.01
		l22.732,22.675h29.046c0.976,2.39,3.369,4.09,6.136,4.09c3.596,0,6.57-2.92,6.57-6.532
		C788.795,361.794,785.818,358.861,782.224,358.861z M782.224,368.676c-1.856,0-3.293-1.427-3.293-3.238
		c0-1.847,1.437-3.284,3.293-3.284c1.792,0,3.287,1.437,3.287,3.284C785.511,367.249,784.02,368.676,782.224,368.676z"/>
	<path fill="#FFFFFF" d="M462.821,282.687c-3.595,0-6.566,2.921-6.566,6.573c0,3.649,2.976,6.566,6.566,6.566
		c2.814,0,5.16-1.676,6.136-4.122h42.042v-4.917h-42.042C467.981,284.39,465.635,282.687,462.821,282.687z M462.821,292.554
		c-1.792,0-3.284-1.494-3.284-3.293c0-1.789,1.495-3.283,3.284-3.283c1.86,0,3.293,1.497,3.293,3.283
		C466.114,291.06,464.684,292.554,462.821,292.554z"/>
	<path fill="#FFFFFF" d="M433.183,391.125c-0.759-0.318-1.625-0.544-2.545-0.544c-3.65,0-6.577,2.975-6.577,6.57
		c0,3.649,2.927,6.587,6.577,6.587c3.598,0,6.576-2.934,6.576-6.587c0-0.866-0.215-1.748-0.52-2.497l22.678-22.739h48.239v-4.948
		h-50.298L433.183,391.125z M430.638,400.445c-1.857,0-3.293-1.447-3.293-3.293c0-1.792,1.436-3.287,3.293-3.287
		c1.791,0,3.293,1.495,3.293,3.287C433.932,398.997,432.431,400.445,430.638,400.445z"/>
	<path fill="#FFFFFF" d="M466.808,386.743c0.338-0.825,0.599-1.755,0.599-2.729c0-3.604-2.975-6.588-6.577-6.588
		c-3.639,0-6.565,2.982-6.565,6.588c0,3.639,2.927,6.565,6.565,6.565c0.814,0,1.645-0.16,2.354-0.409l8.561,8.499h34.432v-4.936
		h-32.435L466.808,386.743z M460.833,387.297c-1.851,0-3.283-1.436-3.283-3.283c0-1.81,1.436-3.293,3.283-3.293
		c1.81,0,3.286,1.483,3.286,3.293C464.121,385.862,462.643,387.297,460.833,387.297z"/>
	<path fill="#FFFFFF" d="M478.395,318.46h28.943v-4.938H476.34l-9.333,9.337h-43.105c-0.984-2.388-3.321-4.08-6.139-4.08
		c-3.587,0-6.563,2.927-6.563,6.566c0,3.587,2.975,6.587,6.563,6.587c2.817,0,5.154-1.765,6.139-4.154h45.157L478.395,318.46z
		 M417.762,328.631c-1.796,0-3.28-1.484-3.28-3.286c0-1.857,1.484-3.294,3.28-3.294c1.86,0,3.293,1.437,3.293,3.294
		C421.055,327.15,419.622,328.631,417.762,328.631z"/>
	<path fill="#FFFFFF" d="M435.053,336.149c-3.649,0-6.573,2.961-6.573,6.583c0,3.65,2.921,6.57,6.573,6.57
		c2.767,0,5.095-1.69,6.084-4.1h69.864v-4.929h-69.864C440.15,337.821,437.82,336.149,435.053,336.149z M435.053,345.998
		c-1.796,0-3.286-1.447-3.286-3.27c0-1.815,1.49-3.304,3.286-3.304c1.806,0,3.286,1.488,3.286,3.304
		C438.34,344.551,436.859,345.998,435.053,345.998z"/>
</g>
<g>
	<path fill="#FF8E31" d="M544.121,252.602v-12.948c0-1.013,0.41-2.008,1.107-2.723c0.77-0.745,1.754-1.107,2.726-1.107h2.709
		c1.032,0,1.997,0.362,2.712,1.107c0.711,0.711,1.118,1.69,1.118,2.723v12.948H544.121z"/>
	<path fill="#FF8E31" d="M570.869,252.602v-12.948c0-1.013,0.414-2.008,1.122-2.723c0.708-0.745,1.669-1.107,2.709-1.107h2.712
		c1.037,0,1.949,0.362,2.712,1.107c0.704,0.711,1.112,1.71,1.112,2.723v12.948H570.869z"/>
	<path fill="#FF8E31" d="M597.631,252.602v-12.948c0-1.032,0.353-2.008,1.115-2.723c0.704-0.745,1.68-1.107,2.701-1.107h2.712
		c0.982,0,1.96,0.362,2.671,1.107c0.752,0.711,1.107,1.69,1.107,2.723v12.948H597.631z"/>
	<path fill="#FF8E31" d="M624.32,252.602v-12.948c0-1.032,0.42-2.008,1.115-2.723c0.759-0.745,1.686-1.107,2.712-1.107h2.712
		c1.021,0,2.018,0.362,2.719,1.107c0.704,0.711,1.118,1.71,1.118,2.723v12.948H624.32z"/>
	<path fill="#FF8E31" d="M651.07,252.602v-12.948c0-1.032,0.421-2.008,1.125-2.723c0.695-0.745,1.68-1.107,2.712-1.107h2.712
		c1.022,0,1.94,0.362,2.71,1.107c0.704,0.711,1.118,1.69,1.118,2.723v12.948H651.07z"/>
	<path fill="#FF8E31" d="M661.448,432.831v13.007c0,1.043-0.414,1.949-1.118,2.712c-0.77,0.694-1.686,1.125-2.709,1.125h-2.712
		c-1.033,0-2.018-0.414-2.712-1.125c-0.704-0.763-1.125-1.669-1.125-2.712v-13.007H661.448z"/>
	<path fill="#FF8E31" d="M634.7,432.831v13.007c0,1.043-0.414,1.949-1.118,2.712c-0.701,0.694-1.696,1.125-2.719,1.125h-2.712
		c-1.026,0-1.953-0.432-2.712-1.125c-0.694-0.763-1.115-1.669-1.115-2.712v-13.007H634.7z"/>
	<path fill="#FF8E31" d="M607.938,432.831v13.007c0,1.043-0.355,1.949-1.107,2.712c-0.711,0.694-1.69,1.125-2.671,1.125h-2.712
		c-1.021,0-1.997-0.432-2.701-1.125c-0.766-0.763-1.115-1.669-1.115-2.712v-13.007H607.938z"/>
	<path fill="#FF8E31" d="M581.232,432.831v13.007c0,1.043-0.408,1.949-1.112,2.712c-0.763,0.711-1.675,1.125-2.712,1.125h-2.712
		c-1.036,0-1.997-0.432-2.719-1.125c-0.694-0.763-1.111-1.679-1.111-2.712v-13.007H581.232z"/>
	<path fill="#FF8E31" d="M554.488,432.831v13.007c0,1.043-0.404,1.949-1.119,2.712c-0.71,0.711-1.679,1.125-2.712,1.125h-2.709
		c-0.971,0-1.956-0.414-2.705-1.125c-0.711-0.763-1.129-1.669-1.129-2.712v-13.007H554.488z"/>
	<path fill="#FF8E31" d="M692.894,284.113h13.007c1.033,0,1.942,0.349,2.712,1.111c0.704,0.711,1.125,1.68,1.125,2.701v2.661
		c0,1.037-0.421,2.021-1.125,2.716c-0.77,0.77-1.679,1.125-2.712,1.125h-13.007V284.113L692.894,284.113z"/>
	<path fill="#FF8E31" d="M692.894,310.799h13.007c1.033,0,1.942,0.414,2.712,1.125c0.704,0.749,1.125,1.679,1.125,2.709v2.716
		c0,1.033-0.421,2.008-1.125,2.719c-0.77,0.684-1.679,1.107-2.712,1.107h-13.007V310.799L692.894,310.799z"/>
	<path fill="#FF8E31" d="M692.894,337.561h13.007c1.033,0,1.96,0.423,2.712,1.111c0.704,0.708,1.125,1.689,1.125,2.716v2.723
		c0,1.009-0.421,1.936-1.136,2.705c-0.742,0.715-1.668,1.107-2.701,1.107h-13.007V337.561L692.894,337.561z"/>
	<path fill="#FF8E31" d="M692.894,364.265h13.007c1.033,0,1.942,0.414,2.701,1.118c0.715,0.749,1.136,1.744,1.136,2.718v2.712
		c0,1.016-0.421,1.991-1.136,2.702c-0.759,0.763-1.668,1.124-2.701,1.124h-13.007V364.265L692.894,364.265z"/>
	<path fill="#FF8E31" d="M692.894,391.022h13.007c1.033,0,1.942,0.403,2.701,1.118c0.715,0.702,1.136,1.676,1.136,2.701v2.719
		c0,1.026-0.421,2.002-1.125,2.695c-0.77,0.721-1.679,1.124-2.712,1.124h-13.007V391.022L692.894,391.022z"/>
	<path fill="#FF8E31" d="M512.664,401.381h-12.948c-1.037,0-2.004-0.403-2.71-1.125c-0.758-0.694-1.184-1.669-1.184-2.694v-2.719
		c0-1.026,0.424-2.001,1.184-2.701c0.705-0.715,1.669-1.118,2.71-1.118h12.948V401.381z"/>
	<path fill="#FF8E31" d="M512.664,374.641h-12.948c-1.037,0-2.004-0.362-2.71-1.136c-0.758-0.701-1.184-1.675-1.184-2.709v-2.695
		c0-0.975,0.424-1.97,1.184-2.718c0.705-0.704,1.669-1.129,2.71-1.129h12.948V374.641z"/>
	<path fill="#FF8E31" d="M512.664,347.919h-12.948c-1.037,0-2.004-0.393-2.71-1.107c-0.758-0.77-1.184-1.696-1.184-2.723v-2.701
		c0-1.026,0.424-2.008,1.184-2.716c0.705-0.69,1.669-1.111,2.71-1.111h12.948V347.919z"/>
	<path fill="#FF8E31" d="M512.664,321.179h-12.948c-1.037,0-2.004-0.423-2.71-1.107c-0.758-0.711-1.184-1.689-1.184-2.719v-2.716
		c0-1.026,0.424-1.956,1.184-2.709c0.705-0.711,1.669-1.125,2.71-1.125h12.948V321.179z"/>
	<path fill="#FF8E31" d="M512.664,294.427h-12.948c-1.037,0-2.004-0.355-2.71-1.125c-0.758-0.694-1.184-1.679-1.184-2.716v-2.661
		c0-1.021,0.424-1.99,1.184-2.701c0.705-0.766,1.669-1.111,2.71-1.111h12.948V294.427z"/>
</g>
<path fill="#283A4D" d="M691.638,276.819l-22.951-22.914c-0.684-0.743-2.1-1.303-3.102-1.303H539.972
	c-1.009,0-2.411,0.563-3.096,1.303l-22.958,22.914c-0.68,0.731-1.251,2.089-1.251,3.091v125.674c0,0.958,0.571,2.363,1.251,3.041
	l22.958,22.962c0.685,0.695,2.087,1.245,3.096,1.245h125.613c1.002,0,2.418-0.55,3.102-1.245l22.951-22.962
	c0.695-0.673,1.256-2.079,1.256-3.041V279.909C692.894,278.907,692.334,277.55,691.638,276.819z"/>
<polygon fill="#A6B83D" points="683.906,403.625 663.687,423.843 541.878,423.843 521.707,403.625 521.707,281.804 541.878,261.644 
	663.687,261.644 683.906,281.804 "/>
<polygon fill="#D0E070" points="657.864,272.061 547.705,272.061 532.062,287.635 532.062,397.852 547.705,413.43 657.864,413.43 
	673.493,397.852 673.493,287.635 "/>
<path d="M577.39,329.085v-1.68c0-0.571,0.117-0.937,0.366-1.245c0.198-0.212,0.458-0.368,0.855-0.368c0.368,0,0.64,0.16,0.893,0.368
	c0.197,0.305,0.291,0.671,0.291,1.245v6.744c0,0.578-0.093,0.978-0.291,1.252c-0.253,0.219-0.521,0.39-0.893,0.39
	c-0.355,0-0.603-0.171-0.796-0.365c-0.253-0.206-0.373-0.599-0.421-1.116c-0.079-1.613-0.979-3.089-2.62-4.302
	c-2.223-1.692-4.781-2.575-7.609-2.575c-1.84,0-3.596,0.423-5.229,1.269c-1.272,0.609-2.21,1.31-2.979,2.186
	c-1.234,1.474-2.261,3.116-2.993,4.99c-0.53,1.324-0.828,2.839-0.828,4.527v4.255c0,3.557,1.345,6.73,3.96,9.374
	c2.565,2.686,5.626,3.968,9.063,3.968c2.071,0,3.912-0.458,5.563-1.313c1.643-0.921,3.231-2.319,4.775-4.128
	c0.346-0.41,0.68-0.592,1.098-0.592c0.355,0,0.609,0.074,0.796,0.338c0.246,0.188,0.338,0.481,0.338,0.78
	c0,0.451-0.416,1.118-1.214,2.027c-1.58,1.758-3.341,3.061-5.328,3.978c-1.936,0.923-3.952,1.344-5.98,1.344
	c-1.745,0-3.495-0.329-5.339-0.984c-1.351-0.524-2.486-1.136-3.416-1.857c-0.861-0.673-1.971-1.819-3.32-3.464
	c-1.287-1.659-2.206-3.181-2.699-4.538c-0.486-1.427-0.701-2.958-0.701-4.631v-4.924c0-2.374,0.629-4.762,1.942-7.285
	c1.263-2.438,3.003-4.371,5.212-5.69c2.209-1.361,4.593-2.018,7.192-2.018C571.064,325.044,574.539,326.432,577.39,329.085z
	 M596.861,345.683v11.354h8.28c0.574,0,0.995,0.16,1.275,0.365c0.236,0.206,0.331,0.514,0.331,0.893c0,0.308-0.092,0.63-0.331,0.835
	c-0.28,0.271-0.701,0.373-1.275,0.373h-13.931c-0.581,0-1.008-0.103-1.228-0.373c-0.283-0.208-0.39-0.526-0.39-0.835
	c0-0.376,0.109-0.688,0.39-0.893c0.22-0.208,0.646-0.365,1.228-0.365h3.245v-28.807h-3.245c-0.581,0-1.008-0.093-1.228-0.339
	c-0.283-0.208-0.39-0.532-0.39-0.854c0-0.38,0.109-0.704,0.39-0.899c0.22-0.208,0.646-0.349,1.228-0.349h14.073
	c3.311,0,6.012,0.995,8.074,2.955c2.109,1.932,3.164,4.279,3.164,6.864c0,1.569-0.312,2.969-1.022,4.227
	c-0.667,1.222-1.474,2.21-2.442,2.911c-1.464,1.088-2.962,1.885-4.445,2.395c-1.118,0.328-2.524,0.543-4.184,0.543L596.861,345.683
	L596.861,345.683z M596.861,343.244h7.701c1.826,0,3.495-0.361,5.063-1.184c1.528-0.786,2.674-1.765,3.426-2.91
	c0.702-1.153,1.07-2.37,1.07-3.543c0-1.886-0.835-3.564-2.469-5.11c-1.635-1.519-3.659-2.271-6.176-2.271h-8.618v15.018
	L596.861,343.244L596.861,343.244z M649.211,328.235v20.222c0,3.376-1.184,6.218-3.444,8.516c-2.249,2.291-4.979,3.464-8.197,3.464
	c-2.147,0-4.035-0.462-5.704-1.416c-1.68-0.937-3.115-2.329-4.279-4.288c-1.152-1.857-1.744-3.999-1.744-6.276v-20.223h-2.048
	c-0.581,0-0.937-0.092-1.229-0.338c-0.215-0.208-0.383-0.533-0.383-0.854c0-0.38,0.171-0.704,0.414-0.935
	c0.261-0.182,0.618-0.314,1.201-0.314h8.96c0.571,0,0.937,0.14,1.21,0.349c0.236,0.197,0.343,0.52,0.343,0.898
	c0,0.322-0.104,0.646-0.343,0.855c-0.27,0.243-0.64,0.338-1.21,0.338h-4.501v20.222c0,2.616,0.921,4.925,2.729,6.772
	c1.857,1.839,4.015,2.777,6.484,2.777c1.598,0,3.078-0.384,4.354-1.085c1.352-0.715,2.493-1.819,3.444-3.369
	c1.002-1.52,1.498-3.225,1.498-5.093v-20.222h-4.457c-0.574,0-1.006-0.093-1.217-0.338c-0.274-0.209-0.393-0.533-0.393-0.855
	c0-0.379,0.12-0.704,0.393-0.899c0.215-0.208,0.643-0.349,1.217-0.349h8.912c0.572,0,0.991,0.141,1.265,0.349
	c0.233,0.198,0.35,0.521,0.35,0.899c0,0.322-0.112,0.646-0.35,0.855c-0.273,0.243-0.694,0.338-1.265,0.338H649.211L649.211,328.235
	L649.211,328.235z"/>
</svg>
