<?xml version="1.0" encoding="utf-8"?>
<!-- Generator: Adobe Illustrator 16.0.0, SVG Export Plug-In . SVG Version: 6.00 Build 0)  -->
<!DOCTYPE svg PUBLIC "-//W3C//DTD SVG 1.1//EN" "http://www.w3.org/Graphics/SVG/1.1/DTD/svg11.dtd">
<svg version="1.1" id="Capa_1" xmlns="http://www.w3.org/2000/svg" xmlns:xlink="http://www.w3.org/1999/xlink" x="0px" y="0px"
	 width="1200px" height="684px" viewBox="0 0 1200 684" enable-background="new 0 0 1200 684" xml:space="preserve">
<circle fill="#2FAC66" cx="600" cy="342" r="342"/>
<g>
	<g>
		<path fill="#32373B" d="M579.703,351.826c-7.266-3.009-15.522-1.369-21.073,4.196l-29.395,29.395
			c-8.271,8.26-12.814,19.239-12.814,30.912v78.479c0,10.665,8.679,19.346,19.345,19.346h36.539c10.665,0,19.345-8.68,19.345-19.346
			v-125.11C591.634,361.847,586.939,354.837,579.703,351.826z"/>
	</g>
</g>
<g>
	<g>
		<path fill="#32373B" d="M489.447,442.081c-7.265-3.009-15.522-1.366-21.072,4.197l-34.854,34.854
			c-5.55,5.551-7.205,13.821-4.197,21.072c3.011,7.251,10.021,11.931,17.871,11.931h34.854c10.665,0,19.345-8.682,19.345-19.347
			v-34.853C501.379,452.102,496.684,445.092,489.447,442.081z"/>
	</g>
</g>
<g>
	<g>
		<path fill="#222426" d="M760.216,171.318c-7.268-3.009-15.524-1.369-21.075,4.196l-29.395,29.395
			c-8.271,8.26-12.815,19.238-12.815,30.912v258.987c0,10.665,8.68,19.346,19.346,19.346h36.539c10.664,0,19.345-8.68,19.345-19.346
			v-305.62C772.143,181.335,767.45,174.325,760.216,171.318z"/>
	</g>
</g>
<g>
	<g>
		<path fill="#222426" d="M669.961,261.573c-7.268-3.009-15.523-1.366-21.075,4.197l-29.395,29.396
			c-8.259,8.259-12.813,19.237-12.813,30.927v168.731c0,10.664,8.678,19.347,19.344,19.347h36.539
			c10.665,0,19.346-8.682,19.346-19.347v-215.38C681.887,271.591,677.195,264.581,669.961,261.573z"/>
	</g>
</g>
</svg>
