<?xml version="1.0" encoding="utf-8"?>
<!-- Generator: Adobe Illustrator 16.0.0, SVG Export Plug-In . SVG Version: 6.00 Build 0)  -->
<!DOCTYPE svg PUBLIC "-//W3C//DTD SVG 1.1//EN" "http://www.w3.org/Graphics/SVG/1.1/DTD/svg11.dtd">
<svg version="1.1" id="Capa_1" xmlns="http://www.w3.org/2000/svg" xmlns:xlink="http://www.w3.org/1999/xlink" x="0px" y="0px"
	 width="1200px" height="684px" viewBox="0 0 1200 684" enable-background="new 0 0 1200 684" xml:space="preserve">
<circle fill="#2FAC66" cx="600" cy="342" r="342"/>
<g>
	<path fill="#020202" d="M737.455,175.451H462.542c-16.069,0-29.091,13.024-29.091,29.091v274.914
		c0,16.068,13.021,29.092,29.092,29.092h274.912c16.07,0,29.093-13.023,29.093-29.092V352.996v-89.239v-59.214
		C766.547,188.475,753.526,175.451,737.455,175.451z M744.341,479.457c0,3.795-3.092,6.885-6.886,6.885H633.199V382.088
		c0-3.795,3.091-6.887,6.886-6.887h104.256V479.457L744.341,479.457z M640.085,352.996c-16.069,0-29.091,13.023-29.091,29.092
		v104.256h-67.038V292.847c0-3.795,3.085-6.884,6.88-6.884h193.505v67.033H640.085z M550.836,263.757
		c-16.064,0-29.086,13.023-29.086,29.09v193.494h-59.208c-3.795,0-6.885-3.09-6.885-6.885V204.543c0-3.795,3.09-6.885,6.885-6.885
		h274.913c3.795,0,6.886,3.091,6.886,6.885v59.213L550.836,263.757L550.836,263.757z"/>
	<circle fill="#020202" cx="482.423" cy="223.464" r="13.879"/>
	<circle fill="#020202" cx="569.861" cy="310.49" r="13.879"/>
	<circle fill="#020202" cx="658.03" cy="400.033" r="13.879"/>
</g>
</svg>
