<?xml version="1.0" encoding="utf-8"?>
<!-- Generator: Adobe Illustrator 16.0.0, SVG Export Plug-In . SVG Version: 6.00 Build 0)  -->
<!DOCTYPE svg PUBLIC "-//W3C//DTD SVG 1.1//EN" "http://www.w3.org/Graphics/SVG/1.1/DTD/svg11.dtd">
<svg version="1.1" id="Capa_1" xmlns="http://www.w3.org/2000/svg" xmlns:xlink="http://www.w3.org/1999/xlink" x="0px" y="0px"
	 width="1200px" height="684px" viewBox="0 0 1200 684" enable-background="new 0 0 1200 684" xml:space="preserve">
<circle fill="#2FAC66" cx="600" cy="342" r="342"/>
<g>
	<path fill="#E9E9E0" d="M658.964,158.25H468.508c-5.303,0-9.602,4.298-9.602,12.64v348.298c0,2.264,4.299,6.563,9.602,6.563
		h262.984c5.303,0,9.602-4.299,9.602-6.563v-275.77c0-4.567-0.61-6.037-1.687-7.12l-76.361-76.361
		C661.963,158.86,660.493,158.25,658.964,158.25z"/>
	<polygon fill="#D9D7CA" points="662.344,159.241 662.344,237 740.104,237 	"/>
	<path fill="#71C285" d="M731.492,525.75H468.508c-5.303,0-9.602-4.299-9.602-9.602V414.187h282.188v101.961
		C741.094,521.451,736.795,525.75,731.492,525.75z"/>
	<g>
		<path fill="#FFFFFF" d="M550.473,506.062h-10.946v-66.124h10.946V506.062z"/>
		<path fill="#FFFFFF" d="M604.397,487.937c0,2.389-0.492,4.711-1.482,6.955c-0.991,2.245-2.376,4.221-4.174,5.92
			c-1.799,1.699-4.01,3.064-6.642,4.082s-5.624,1.522-8.971,1.522c-1.438,0-2.914-0.079-4.442-0.224
			c-1.529-0.145-3.072-0.406-4.621-0.761c-1.555-0.36-3.038-0.854-4.442-1.483s-2.618-1.391-3.636-2.29l1.884-7.718
			c0.833,0.479,1.896,0.945,3.183,1.392s2.611,0.866,3.99,1.253c1.371,0.395,2.75,0.703,4.128,0.945
			c1.371,0.236,2.657,0.361,3.858,0.361c3.648,0,6.444-0.854,8.387-2.56c1.943-1.706,2.914-4.233,2.914-7.58
			c0-2.034-0.689-3.767-2.061-5.204c-1.379-1.438-3.098-2.736-5.158-3.904s-4.292-2.33-6.688-3.498
			c-2.395-1.168-4.64-2.546-6.727-4.128c-2.094-1.581-3.832-3.452-5.204-5.604c-1.378-2.152-2.06-4.843-2.06-8.071
			c0-2.927,0.537-5.532,1.613-7.803s2.527-4.207,4.352-5.788c1.824-1.582,3.95-2.796,6.372-3.636
			c2.421-0.841,4.981-1.254,7.671-1.254c2.75,0,5.533,0.257,8.342,0.762s5.079,1.332,6.818,2.468
			c-0.361,0.773-0.781,1.627-1.254,2.559c-0.479,0.932-0.932,1.792-1.346,2.6c-0.42,0.807-0.78,1.482-1.076,2.021
			c-0.301,0.538-0.479,0.84-0.537,0.899c-0.361-0.178-0.762-0.414-1.215-0.715c-0.453-0.303-1.096-0.598-1.93-0.9
			c-0.84-0.301-1.948-0.505-3.32-0.629c-1.378-0.125-3.143-0.092-5.296,0.092c-1.2,0.124-2.329,0.459-3.412,1.029
			c-1.083,0.572-2.041,1.268-2.874,2.107c-0.84,0.84-1.504,1.778-1.976,2.828c-0.479,1.043-0.716,2.055-0.716,3.006
			c0,2.389,0.683,4.318,2.061,5.788c1.372,1.47,3.078,2.749,5.112,3.858s4.239,2.186,6.642,3.229
			c2.389,1.044,4.62,2.324,6.688,3.813c2.066,1.489,3.779,3.366,5.158,5.604C603.701,481.525,604.397,484.406,604.397,487.937z"/>
		<path fill="#FFFFFF" d="M669.353,472.685c0,5.565-0.702,10.467-2.106,14.713s-3.354,7.777-5.834,10.586s-5.381,4.935-8.702,6.372
			c-3.321,1.437-6.956,2.152-10.9,2.152s-7.579-0.716-10.9-2.152c-3.32-1.438-6.222-3.558-8.702-6.372
			c-2.48-2.815-4.43-6.34-5.834-10.586s-2.105-9.154-2.105-14.713s0.701-10.454,2.105-14.667s3.354-7.73,5.834-10.54
			c2.48-2.809,5.382-4.947,8.702-6.418c3.321-1.47,6.956-2.198,10.9-2.198s7.579,0.729,10.9,2.198
			c3.321,1.471,6.222,3.604,8.702,6.418c2.48,2.816,4.43,6.327,5.834,10.54S669.353,467.121,669.353,472.685z M641.541,497.721
			c2.211,0,4.318-0.433,6.326-1.3c2.008-0.865,3.799-2.29,5.381-4.259s2.828-4.562,3.721-7.763
			c0.893-3.203,1.372-7.102,1.438-11.708c-0.065-4.489-0.525-8.302-1.391-11.438c-0.867-3.137-2.061-5.729-3.59-7.764
			s-3.262-3.498-5.205-4.396c-1.941-0.899-3.989-1.346-6.148-1.346c-2.219,0-4.318,0.414-6.326,1.254s-3.8,2.258-5.381,4.259
			c-1.582,2.001-2.829,4.587-3.722,7.764c-0.892,3.176-1.378,7.054-1.437,11.661c0.059,4.488,0.524,8.314,1.391,11.484
			s2.061,5.756,3.59,7.764s3.262,3.465,5.204,4.396S639.389,497.721,641.541,497.721z"/>
	</g>
	<circle fill="#C8BDB8" cx="596.719" cy="296.062" r="78.75"/>
	<circle fill="#E9E9E0" cx="596.719" cy="296.062" r="19.688"/>
	<path fill="#D3CCC9" d="M582.8,282.143c0.866-0.866,1.812-1.608,2.789-2.277l-15.494-57.835
		c-10.599,3.799-20.567,9.863-29.052,18.349c-8.492,8.485-14.549,18.454-18.35,29.052l57.836,15.494
		C581.192,283.955,581.934,283.01,582.8,282.143z"/>
	<path fill="#D3CCC9" d="M613.591,312.377l14.917,55.67c8.662-3.819,16.8-9.201,23.894-16.302
		c8.224-8.223,14.175-17.83,18.001-28.055l-53.733-14.397C614.799,308.787,613.086,310.5,613.591,312.377z"/>
</g>
</svg>
