<?xml version="1.0" encoding="utf-8"?>
<!-- Generator: Adobe Illustrator 16.0.0, SVG Export Plug-In . SVG Version: 6.00 Build 0)  -->
<!DOCTYPE svg PUBLIC "-//W3C//DTD SVG 1.1//EN" "http://www.w3.org/Graphics/SVG/1.1/DTD/svg11.dtd">
<svg version="1.1" id="Capa_1" xmlns="http://www.w3.org/2000/svg" xmlns:xlink="http://www.w3.org/1999/xlink" x="0px" y="0px"
	 width="1200px" height="684px" viewBox="0 0 1200 684" enable-background="new 0 0 1200 684" xml:space="preserve">
<circle fill="#2FAC66" cx="600" cy="342" r="342"/>
<g>
	<g>
		<g>
			<path fill="#333232" d="M376.349,180.003h-0.629c-8.079,0-14.667,6.609-14.667,14.667v63.854c0,8.089,6.587,14.677,14.667,14.677
				h0.641c8.078,0,14.665-6.609,14.665-14.677v-63.854C391.016,186.612,384.419,180.003,376.349,180.003z"/>
			<path fill="#333232" d="M398.045,283.171c0,7.417,6.064,13.458,13.478,13.458h14.405v34.492c0,8.101,6.608,14.688,14.665,14.688
				h0.631c8.088,0,14.687-6.597,14.687-14.688v-34.492h20.129v34.492c0,8.101,6.629,14.688,14.688,14.688h0.621
				c8.089,0,14.676-6.597,14.676-14.688v-34.492h14.414c7.405,0,13.468-6.04,13.468-13.458V182.347H398.045V283.171z"/>
			<path fill="#333232" d="M499.815,121.205l11.442-17.662c0.733-1.112,0.407-2.637-0.715-3.362
				c-1.113-0.736-2.636-0.431-3.363,0.714l-11.861,18.27c-8.898-3.646-18.836-5.695-29.331-5.695
				c-10.507,0-20.424,2.048-29.343,5.695l-11.842-18.27c-0.723-1.144-2.258-1.45-3.382-0.714c-1.123,0.725-1.449,2.248-0.714,3.362
				l11.451,17.662c-20.643,10.116-34.564,29.185-34.564,51.057c0,1.346,0.083,2.669,0.2,3.982H534.19
				c0.115-1.315,0.188-2.636,0.188-3.982C534.378,150.388,520.447,131.321,499.815,121.205z M434.363,152.826
				c-3.625,0-6.566-2.919-6.566-6.556c0-3.635,2.941-6.544,6.566-6.544c3.645,0,6.567,2.909,6.567,6.544
				C440.93,149.906,437.989,152.826,434.363,152.826z M497.598,152.826c-3.626,0-6.566-2.919-6.566-6.556
				c0-3.635,2.94-6.544,6.566-6.544c3.635,0,6.556,2.909,6.556,6.544C504.154,149.906,501.232,152.826,497.598,152.826z"/>
			<path fill="#333232" d="M556.23,180.003h-0.608c-8.08,0-14.688,6.609-14.688,14.667v63.854c0,8.089,6.619,14.677,14.688,14.677
				h0.621c8.089,0,14.665-6.609,14.665-14.677v-63.854C570.908,186.612,564.309,180.003,556.23,180.003z"/>
		</g>
	</g>
</g>
<g id="XMLID_228_">
	<path id="XMLID_229_" fill="#333232" d="M636.022,403.714c-22.047,38.258-8.032,96.313,16.347,131.516
		c12.17,17.599,24.489,33.396,41.364,33.396c0.318,0,0.636-0.007,0.963-0.021c7.929-0.314,13.658-2.756,19.196-5.115
		c6.221-2.651,12.65-5.392,22.741-5.392c9.597,0,15.721,2.651,21.646,5.214c5.837,2.526,11.851,5.142,20.736,4.973
		c19.009-0.354,30.68-17.4,40.975-32.439c10.746-15.702,16.136-30.944,17.953-36.772l0.073-0.229
		c0.348-1.036-0.143-2.17-1.132-2.626c-0.03-0.013-0.129-0.055-0.156-0.063c-3.349-1.369-32.711-14.396-33.019-49.898
		c-0.286-28.844,22.026-44.118,26.503-46.888l0.206-0.131c0.488-0.313,0.823-0.805,0.938-1.371c0.114-0.567-0.005-1.153-0.328-1.629
		c-15.402-22.54-39.01-25.935-48.516-26.345c-1.377-0.139-2.801-0.206-4.231-0.206c-11.162,0-21.855,4.215-30.446,7.603
		c-5.931,2.338-11.053,4.357-14.584,4.357c-3.972,0-9.122-2.045-15.089-4.411c-7.976-3.164-17.018-6.753-26.588-6.753
		c-0.229,0-0.455,0.003-0.676,0.008C668.646,370.819,647.615,383.55,636.022,403.714z"/>
	<path id="XMLID_230_" fill="#333232" d="M782.536,307.856c-13.479,0.55-29.646,8.845-39.309,20.165
		c-8.212,9.513-16.234,25.374-14.122,41.363c0.134,0.999,0.947,1.771,1.952,1.851c0.912,0.07,1.838,0.106,2.765,0.106
		c13.177,0,27.393-7.29,37.102-19.028c10.218-12.396,15.386-28.304,13.821-42.555C784.625,308.642,783.641,307.813,782.536,307.856z
		"/>
</g>
<rect x="258.135" y="325.759" transform="matrix(-0.7071 0.7071 -0.7071 -0.7071 1266.0941 159.5665)" fill="#333232" width="683.729" height="32.482"/>
</svg>
