<?xml version="1.0" encoding="utf-8"?>
<!-- Generator: Adobe Illustrator 16.0.0, SVG Export Plug-In . SVG Version: 6.00 Build 0)  -->
<!DOCTYPE svg PUBLIC "-//W3C//DTD SVG 1.1//EN" "http://www.w3.org/Graphics/SVG/1.1/DTD/svg11.dtd">
<svg version="1.1" id="Capa_1" xmlns="http://www.w3.org/2000/svg" xmlns:xlink="http://www.w3.org/1999/xlink" x="0px" y="0px"
	 width="1200px" height="684px" viewBox="0 0 1200 684" enable-background="new 0 0 1200 684" xml:space="preserve">
<circle fill="#2FAC66" cx="600" cy="342" r="342"/>
<rect x="534.112" y="458.326" fill="#CEE2F2" width="131.813" height="66.873"/>
<path fill="#E1EFFA" d="M429.285,534.506c0-5.234,1.993-10.465,5.99-14.463c3.989-3.979,9.237-6.012,14.479-6.012h300.491
	c5.244,0,10.489,2.033,14.487,6.012c3.978,3.998,5.979,9.229,5.979,14.463v10.242H429.285V534.506z"/>
<path fill="#A6C8E6" d="M534.099,482.191c20.489,7.877,42.692,12.236,65.901,12.236c23.208,0,45.419-4.359,65.908-12.236v-23.869
	h-131.81V482.191z"/>
<path fill="#E1EFFA" d="M770.884,310.159c0,94.374-76.499,170.875-170.886,170.875c-94.382,0-170.881-76.502-170.881-170.875
	c0-94.4,76.499-170.909,170.881-170.909C694.389,139.249,770.884,215.761,770.884,310.159z"/>
<path fill="#B6D4ED" d="M770.073,326.647l-91.119-91.12l-4.305-4.31c-19.478-18.416-45.78-29.745-74.653-29.745
	c-59.922,0-108.677,48.755-108.677,108.689c0,28.234,10.839,54.019,28.558,73.378l6.771,6.742l89.946,89.963
	C697.755,472.398,762.298,407.826,770.073,326.647z"/>
<path fill="#F2F9FF" d="M702.509,307.583c-1.377-55.422-46.756-99.95-102.521-99.95c-27.788,0-53.063,11.123-71.502,29.088
	c-19.146,18.599-31.015,44.63-31.015,73.43c0,56.651,45.904,102.534,102.518,102.534c28.785,0,54.8-11.889,73.441-30.982
	c17.416-17.865,28.403-42.147,29.081-68.963c0-0.485,0.036-1.049,0-1.567c0.036-0.356,0.036-0.701,0.036-1.021
	C702.542,309.292,702.542,308.409,702.509,307.583z"/>
<path fill="#03628A" d="M600,230.392c-44.037,0-79.744,35.698-79.744,79.768c0,44.042,35.711,79.749,79.744,79.749
	c44.029,0,79.739-35.707,79.739-79.749C679.744,266.093,644.03,230.392,600,230.392L600,230.392z"/>
<path fill="#0684BA" d="M600,248.138c34.195,0,62.02,27.816,62.02,62.02c0,34.196-27.82,62.008-62.02,62.008
	s-62.02-27.813-62.02-62.007C537.983,275.956,565.799,248.138,600,248.138L600,248.138z"/>
<path fill="#03628A" d="M630.753,310.159c0,16.967-13.755,30.753-30.753,30.753c-16.982,0-30.758-13.783-30.758-30.753
	c0-16.995,13.771-30.766,30.758-30.766C616.994,279.394,630.753,293.165,630.753,310.159z"/>
<path fill="#44C0E0" d="M595.957,279.674c0.365,6.076-2.349,13.042-7.855,18.551c-5.508,5.508-12.516,8.261-18.59,7.857
	C571.332,292.311,582.187,281.455,595.957,279.674z"/>
<path fill="#46CEED" d="M595.957,279.674c-13.771,1.782-24.625,12.637-26.447,26.407c-3.604-0.202-6.886-1.498-9.357-4.009
	c-6.641-6.642-4.9-19.116,3.848-27.905c8.789-8.75,21.305-10.49,27.947-3.848C594.418,272.788,595.755,276.068,595.957,279.674z"/>
<path fill="#44C0E0" d="M628.684,321.106c0.041,0,0.041,0,0,0.041c-3.079,8.142-9.559,14.662-17.74,17.741
	c-0.086-0.042-0.161-0.123-0.247-0.203c-3.767-3.767-2.755-10.774,2.146-15.674c4.941-4.901,11.948-5.914,15.634-2.146
	C628.562,320.945,628.643,321.025,628.684,321.106z"/>
<path fill="#46CEED" d="M626.334,336.496c-4.819,4.82-11.624,5.832-15.391,2.39c8.182-3.079,14.661-9.599,17.74-17.74
	C632.207,324.914,631.154,331.718,626.334,336.496z"/>
</svg>
