<?xml version="1.0" encoding="utf-8"?>
<!-- Generator: Adobe Illustrator 16.0.0, SVG Export Plug-In . SVG Version: 6.00 Build 0)  -->
<!DOCTYPE svg PUBLIC "-//W3C//DTD SVG 1.1//EN" "http://www.w3.org/Graphics/SVG/1.1/DTD/svg11.dtd">
<svg version="1.1" id="Capa_1" xmlns="http://www.w3.org/2000/svg" xmlns:xlink="http://www.w3.org/1999/xlink" x="0px" y="0px"
	 width="1200px" height="684px" viewBox="0 0 1200 684" enable-background="new 0 0 1200 684" xml:space="preserve">
<circle fill="#2FAC66" cx="600" cy="342" r="342"/>
<g>
	<polygon fill="#5D6D7E" points="658.381,410.76 665.639,418.027 674.125,426.459 677.384,429.75 694.32,412.808 675.335,393.805 	
		"/>
	<path fill="#FF8E31" d="M711.575,412.707l58.419,58.406c4.393,4.373,7.118,10.461,7.111,17.152c0,6.706-2.719,12.787-7.111,17.176
		c-4.381,4.377-10.454,7.083-17.154,7.083c-6.701,0-12.766-2.706-17.157-7.095l-58.419-58.408L711.575,412.707z"/>
	<path fill="#FEC979" d="M703.52,420.773L703.52,420.773l4.739-4.758l58.426,58.424c3.699,3.696,5.729,8.602,5.719,13.826
		c0,5.248-2.03,10.162-5.719,13.853c-0.666,0.655-1.525,0.978-2.375,0.978c-0.863,0-1.727-0.322-2.385-0.988
		c-1.301-1.308-1.301-3.432,0-4.733c2.439-2.429,3.77-5.675,3.77-9.113c0.004-3.426-1.328-6.646-3.759-9.065L703.52,420.773z"/>
	<g>
		<path fill="#34495E" d="M677.267,447.017l34.309-34.311l-2.559-2.568c-1.545-1.553-3.657-2.5-6.008-2.5
			c-2.358,0-4.473,0.945-6.01,2.48l-22.307,22.323c-1.531,1.519-2.49,3.642-2.49,6.001c0,2.336,0.959,4.479,2.49,6L677.267,447.017z
			"/>
		<path fill="#34495E" d="M481.796,326.906c0-60.571,49.105-109.687,109.686-109.687c60.577,0,109.688,49.114,109.679,109.687
			c0.011,60.58-49.104,109.676-109.679,109.695C530.905,436.582,481.796,387.486,481.796,326.906z"/>
	</g>
	<path fill="#5D6D7E" d="M591.482,424.721c54.004,0,97.805-43.794,97.805-97.818c0-54.003-43.801-97.811-97.805-97.811
		c-54.017,0-97.817,43.805-97.817,97.811C493.664,380.929,537.462,424.721,591.482,424.721z"/>
	<path fill="#E1EFFA" d="M591.482,416.886c49.678,0,89.981-40.273,89.981-89.984c0-49.681-40.303-89.977-89.981-89.977
		c-49.691,0-89.981,40.292-89.981,89.977C501.504,376.613,541.788,416.886,591.482,416.886z"/>
	<g>
		<path fill="#FFFFFF" d="M593.841,251.696c-1.529-2.27-4.157-3.695-7.059-3.526c-12.421,0.751-24.154,4.252-34.885,10.472
			c-3.778,2.218-5.071,7.093-2.875,10.874c2.199,3.756,7.073,5.09,10.842,2.855c8.56-4.934,17.922-7.738,27.854-8.34
			c4.36-0.226,7.719-3.989,7.439-8.349C595.117,254.159,594.612,252.806,593.841,251.696z"/>
		<path fill="#FFFFFF" d="M542.903,277.782c-0.421-0.64-0.972-1.212-1.579-1.722c-3.41-2.786-8.403-2.245-11.16,1.152
			c-8.105,9.954-13.678,21.903-16.143,34.608c-2.91,15.091-1.388,30.531,4.396,44.706c1.69,4.076,6.328,5.99,10.374,4.319
			c4.064-1.652,5.993-6.271,4.336-10.355c-4.619-11.284-5.815-23.623-3.477-35.659c1.922-10.147,6.377-19.675,12.848-27.614
			C544.745,284.463,544.806,280.578,542.903,277.782z"/>
	</g>
	<path fill="#34495E" d="M615.591,458.746c0.006,0,0.006,0,0.017,0v-17.463c-7.789,1.643-15.854,2.506-24.126,2.506
		c-64.553,0-116.889-52.326-116.889-116.882c0-64.536,52.336-116.882,116.889-116.882c64.557,0,116.886,52.346,116.886,116.882
		c0,8.271-0.865,16.33-2.501,24.101h17.526l23.526-8.042v-32.138l-23.594-8.05v0.025c-1.303-7.197-3.188-14.185-5.594-20.934
		l16.385-18.749l-16.063-27.85l-24.45,4.83l0.076,0.13c-2.384-2.786-4.861-5.485-7.448-8.07c-2.599-2.602-5.287-5.081-8.079-7.458
		l0.135,0.085l4.829-24.45l-27.844-16.079l-18.769,16.39c-6.746-2.41-13.732-4.272-20.93-5.605h0.022l-8.037-23.568h-32.161
		l-8.038,23.568h0.022c-7.188,1.334-14.199,3.195-20.952,5.605l-18.749-16.39l-27.84,16.079l4.829,24.45l0.141-0.085
		c-2.798,2.377-5.504,4.855-8.089,7.458c-2.598,2.587-5.074,5.284-7.456,8.07l0.092-0.13l-24.46-4.83l-16.078,27.85l16.399,18.749
		c-2.394,6.752-4.288,13.735-5.6,20.934v-0.025l-23.578,8.05v32.147l23.578,8.061v-0.029c1.312,7.207,3.206,14.19,5.6,20.924
		l-16.399,18.769l16.087,27.85l24.45-4.822l-0.092-0.14c2.381,2.795,4.864,5.486,7.455,8.078c2.586,2.588,5.285,5.064,8.07,7.424
		l-4.949,24.381l27.85,16.088l18.739-16.4c6.753,2.412,13.745,4.281,20.93,5.588l0,0l8.038,23.589h32.163l8.048-23.589
		L615.591,458.746L615.591,458.746z"/>
</g>
</svg>
