<?xml version="1.0" encoding="utf-8"?>
<!-- Generator: Adobe Illustrator 16.0.0, SVG Export Plug-In . SVG Version: 6.00 Build 0)  -->
<!DOCTYPE svg PUBLIC "-//W3C//DTD SVG 1.1//EN" "http://www.w3.org/Graphics/SVG/1.1/DTD/svg11.dtd">
<svg version="1.1" id="Livello_1" xmlns="http://www.w3.org/2000/svg" xmlns:xlink="http://www.w3.org/1999/xlink" x="0px" y="0px"
	 width="900px" height="650px" viewBox="0 0 900 650" enable-background="new 0 0 900 650" xml:space="preserve">
<rect x="0.005" y="0.017" fill="#C0C0C0" width="899.999" height="649.999"/>
<path fill="#39B54A" d="M618.897,323.693c0,93.283-75.617,168.9-168.896,168.9s-168.896-75.617-168.896-168.9
	c0-93.282,75.617-168.896,168.896-168.896S618.897,230.411,618.897,323.693z"/>
<circle fill="#C0C0C0" cx="449.791" cy="299.404" r="93.679"/>
<g>
	<path fill="#40596B" d="M373.901,354.208l-32.232,55.873l37.619-1.996l17.093,33.581l29.817-51.693
		C404.832,384.445,386.487,371.579,373.901,354.208z"/>
	<path fill="#40596B" d="M525.868,353.931c-12.493,17.416-30.84,30.328-52.157,35.946l29.91,51.788l17.093-33.581l37.62,1.996
		L525.868,353.931z"/>
</g>
<circle fill="#898989" cx="449.791" cy="299.404" r="67.902"/>
<path fill="#FFFFFF" d="M496.329,292.066c2.091-2.043,0.93-5.621-1.95-6.039l-26.8-3.9c-1.161-0.186-2.136-0.883-2.646-1.95
	l-11.982-24.291c-1.301-2.647-5.063-2.647-6.362,0l-11.937,24.291c-0.512,1.021-1.533,1.766-2.646,1.95l-26.8,3.9
	c-2.88,0.418-4.041,3.996-1.95,6.039l19.368,18.902c0.836,0.836,1.206,1.998,1.021,3.11l-4.552,26.66
	c-0.512,2.879,2.555,5.109,5.154,3.717l23.967-12.588c1.021-0.557,2.274-0.557,3.298,0l23.965,12.588
	c2.602,1.347,5.62-0.838,5.155-3.717l-4.599-26.66c-0.186-1.16,0.187-2.321,1.022-3.11L496.329,292.066z"/>
</svg>
