<?xml version="1.0" encoding="utf-8"?>
<!-- Generator: Adobe Illustrator 16.0.0, SVG Export Plug-In . SVG Version: 6.00 Build 0)  -->
<!DOCTYPE svg PUBLIC "-//W3C//DTD SVG 1.1//EN" "http://www.w3.org/Graphics/SVG/1.1/DTD/svg11.dtd">
<svg version="1.1" id="Layer_1" xmlns="http://www.w3.org/2000/svg" xmlns:xlink="http://www.w3.org/1999/xlink" x="0px" y="0px"
	 width="1200px" height="684px" viewBox="0 0 1200 684" enable-background="new 0 0 1200 684" xml:space="preserve">
<path fill="#2FAC66" d="M942,342c0,188.887-153.118,342-342,342c-188.883,0-342-153.113-342-342C258,153.111,411.117,0,600,0
	C788.882,0,942,153.111,942,342z"/>
<path fill="#34495E" d="M679.103,146.572H520.911c-14.97,0-27.248,12.259-27.248,27.263V510.17
	c0,14.992,12.277,27.258,27.248,27.258h158.188c14.986,0,27.236-12.264,27.236-27.258V173.835
	C706.336,158.832,694.086,146.572,679.103,146.572z"/>
<rect x="509.092" y="205.644" fill="#CEE2F2" width="181.808" height="272.676"/>
<polygon fill="#F2F9FF" points="509.092,478.346 509.092,205.651 690.912,205.651 "/>
<path fill="#283A4D" d="M606.855,176.105c0,3.789-3.051,6.854-6.853,6.854c-3.775,0-6.854-3.064-6.854-6.854
	c0-3.786,3.078-6.856,6.854-6.856C603.804,169.248,606.855,172.319,606.855,176.105z"/>
<g>
	<path fill="#5D6D7E" d="M602.752,176.094c0,1.52-1.232,2.74-2.75,2.74c-1.504,0-2.741-1.222-2.741-2.74
		c0-1.504,1.237-2.749,2.741-2.749C601.515,173.349,602.752,174.591,602.752,176.094z"/>
	<path fill="#5D6D7E" d="M583.142,516.487c-4.124,0-7.475-3.348-7.475-7.484v-2.225c0-4.139,3.349-7.486,7.475-7.486h33.713
		c4.125,0,7.477,3.35,7.477,7.486v2.225c0,4.139-3.348,7.484-7.477,7.484H583.142z"/>
</g>
<path fill="#283A4D" d="M622.205,508.996c0,2.955-2.404,5.357-5.346,5.357h-33.713c-2.941,0-5.345-2.402-5.345-5.357v-2.223
	c0-2.936,2.403-5.354,5.345-5.354h33.713c2.941,0,5.346,2.42,5.346,5.354V508.996z"/>
</svg>
