<?xml version="1.0" encoding="utf-8"?>
<!-- Generator: Adobe Illustrator 16.0.0, SVG Export Plug-In . SVG Version: 6.00 Build 0)  -->
<!DOCTYPE svg PUBLIC "-//W3C//DTD SVG 1.1//EN" "http://www.w3.org/Graphics/SVG/1.1/DTD/svg11.dtd">
<svg version="1.1" id="Capa_1" xmlns="http://www.w3.org/2000/svg" xmlns:xlink="http://www.w3.org/1999/xlink" x="0px" y="0px"
	 width="1200px" height="684px" viewBox="0 0 1200 684" enable-background="new 0 0 1200 684" xml:space="preserve">
<circle fill="#2FAC66" cx="600" cy="342" r="342"/>
<path fill="#2FAC66" d="M613.755,683.7c182.217-7.211,327.78-156.963,328.235-340.842L701.028,101.898l-42.691,47.281l-70.159,8.706
	L520.271,89.98l9.815,55.638l-71.118,109.156l50.448,50.449l-15.494,14.658l-55.238-55.238l-42.043,179.791l142.642,142.643
	l-14.558,4.233L613.755,683.7z"/>
<path fill="#FFFFFF" d="M415.782,254.774L415.782,254.774c-17.416,0-31.536,14.12-31.536,31.536v133.067
	c0,17.417,14.12,31.536,31.536,31.536l0,0c17.417,0,31.536-14.119,31.536-31.536V286.31
	C447.318,268.892,433.199,254.774,415.782,254.774z"/>
<path fill="#E6E6E6" d="M784.219,254.774L784.219,254.774c-17.417,0-31.537,14.12-31.537,31.536v133.067
	c0,17.417,14.12,31.536,31.537,31.536l0,0c17.416,0,31.535-14.119,31.535-31.536V286.31
	C815.754,268.892,801.635,254.774,784.219,254.774z"/>
<path fill="#FFFFFF" d="M677.558,140.808l23.47-38.909l-19.76-11.918l-24.085,39.93c-17.291-7.5-36.364-11.665-56.414-11.665l0,0
	c-20.049,0-39.123,4.164-56.414,11.665L520.271,89.98l-19.76,11.918l23.47,38.91c-37.762,24.35-63.228,66.128-65.014,113.966H742.57
	C740.785,206.936,715.32,165.157,677.558,140.808z M536.543,200.932c-7.965,0-14.421-6.457-14.421-14.422
	s6.456-14.421,14.421-14.421s14.422,6.456,14.422,14.421C550.965,194.474,544.508,200.932,536.543,200.932z M663.457,200.932
	c-7.965,0-14.421-6.457-14.421-14.422s6.456-14.421,14.421-14.421s14.422,6.456,14.422,14.421
	C677.879,194.474,671.422,200.932,663.457,200.932z"/>
<path fill="#E6E6E6" d="M677.558,140.808l23.47-38.909l-19.76-11.918l-24.086,39.93c-17.291-7.5-36.364-11.665-56.414-11.665l0,0
	c-0.108,0-0.215,0.004-0.323,0.004v136.524H742.57C740.785,206.936,715.32,165.157,677.558,140.808z M663.457,200.932
	c-7.965,0-14.421-6.457-14.421-14.422s6.456-14.421,14.421-14.421s14.422,6.456,14.422,14.421S671.422,200.932,663.457,200.932z"/>
<path fill="#FFFFFF" d="M458.088,497.448h56.149v70.38c0,17.416,14.119,31.536,31.536,31.536l0,0
	c17.417,0,31.536-14.12,31.536-31.536v-70.38h43.843v70.38c0,17.416,14.119,31.536,31.536,31.536l0,0
	c17.417,0,31.536-14.12,31.536-31.536v-70.38h57.688V275.926H458.088V497.448z"/>
<path fill="#E6E6E6" d="M600.445,275.926v221.522h20.707v70.38c0,17.416,14.119,31.536,31.536,31.536l0,0
	c17.417,0,31.536-14.12,31.536-31.536v-70.38h57.688V275.926H600.445z"/>
</svg>
