<?xml version="1.0" encoding="utf-8"?>
<!-- Generator: Adobe Illustrator 16.0.0, SVG Export Plug-In . SVG Version: 6.00 Build 0)  -->
<!DOCTYPE svg PUBLIC "-//W3C//DTD SVG 1.1//EN" "http://www.w3.org/Graphics/SVG/1.1/DTD/svg11.dtd">
<svg version="1.1" id="Livello_1" xmlns="http://www.w3.org/2000/svg" xmlns:xlink="http://www.w3.org/1999/xlink" x="0px" y="0px"
	 width="900px" height="650px" viewBox="0 0 900 650" enable-background="new 0 0 900 650" xml:space="preserve">
<rect x="0.005" y="0.017" fill="#C0C0C0" width="900" height="649.999"/>
<path fill="#39B54A" d="M618.897,323.693c0,93.283-75.617,168.9-168.897,168.9c-93.279,0-168.896-75.617-168.896-168.9
	c0-93.282,75.617-168.896,168.896-168.896C543.28,154.797,618.897,230.411,618.897,323.693z"/>
<circle fill="#C0C0C0" cx="449.792" cy="299.404" r="93.679"/>
<g>
	<path fill="#40596B" d="M373.901,354.208l-32.233,55.873l37.62-1.996l17.092,33.58l29.818-51.693
		C404.833,384.445,386.487,371.579,373.901,354.208z"/>
	<path fill="#40596B" d="M525.869,353.931c-12.494,17.416-30.84,30.328-52.158,35.947l29.911,51.787l17.092-33.58l37.62,1.996
		L525.869,353.931z"/>
</g>
<circle fill="#898989" cx="449.792" cy="299.404" r="67.902"/>
<path fill="#FFFFFF" d="M496.33,292.066c2.09-2.043,0.929-5.621-1.951-6.039l-26.799-3.9c-1.161-0.186-2.136-0.883-2.647-1.951
	l-11.982-24.291c-1.301-2.647-5.063-2.647-6.363,0l-11.936,24.291c-0.512,1.021-1.533,1.766-2.647,1.951l-26.799,3.9
	c-2.88,0.418-4.041,3.996-1.951,6.039l19.368,18.902c0.836,0.836,1.207,1.998,1.021,3.111l-4.552,26.66
	c-0.511,2.879,2.555,5.109,5.155,3.717l23.966-12.588c1.021-0.557,2.275-0.557,3.298,0l23.965,12.588
	c2.602,1.346,5.62-0.838,5.155-3.717l-4.598-26.66c-0.186-1.16,0.186-2.322,1.022-3.111L496.33,292.066z"/>
<g>
	<path d="M118.095,98.101V57.452c0-0.9-0.899-1.8-1.875-1.8h-12.6c-0.449,0-0.899-0.45-0.899-0.9v-7.274
		c0-0.45,0.375-0.825,0.899-0.825h39.599c0.6,0,1.05,0.45,1.05,0.975v7.049c0,0.525-0.45,0.975-1.05,0.975H130.77
		c-0.976,0-1.8,0.825-1.8,1.8v40.648c0,0.525-0.375,0.975-0.976,0.975h-8.925C118.47,99.076,118.095,98.626,118.095,98.101z"/>
	<path d="M156.119,97.801V47.928c0-0.75,0.675-1.35,1.425-1.35h15.75c9.449,0,17.099,7.35,17.099,16.649
		c0,5.325-2.699,9.975-6.675,13.125c-0.75,0.675-0.3,1.575-0.3,1.575l8.7,19.424c0.6,1.35,0.074,1.8-0.75,1.8h-6.6
		c-0.976,0-1.5,0-1.95-0.9c0,0-7.575-16.949-7.875-17.549c-0.225-0.6-0.6-0.75-2.024-0.825h-6c-1.425,0-1.95,0.3-1.95,1.425v16.5
		c0,0.75-0.675,1.35-1.425,1.35h-6C156.794,99.151,156.119,98.551,156.119,97.801z M173.294,70.202c3.899,0,7.124-3.15,7.124-6.975
		c0-3.9-3.225-6.975-7.124-6.975h-6.975c-0.9,0-1.351,0.45-1.351,1.5v11.25c0,0.75,0.45,1.2,1.125,1.2H173.294z"/>
	<path d="M201.419,98.176l13.274-50.473c0.226-0.6,0.825-1.125,1.5-1.125h15.6c0.675,0,1.275,0.525,1.5,1.05l13.274,50.473
		c0.15,0.6-0.225,1.05-0.75,1.05h-7.35c-0.6,0-1.35-0.525-1.5-1.125l-3.675-13.95c-0.225-0.9-1.125-1.575-2.024-1.575h-14.55
		c-0.9,0-1.8,0.675-2.025,1.575l-3.675,13.875c-0.149,0.675-0.899,1.2-1.5,1.2h-7.35C201.645,99.151,201.27,98.701,201.419,98.176z
		 M228.944,74.477c1.05,0,1.649-0.825,1.425-1.725l-4.2-15.45c-0.149-0.825-1.05-1.5-1.949-1.5h-0.45c-0.9,0-1.8,0.675-1.95,1.5
		l-4.125,15.45c-0.225,0.9,0.301,1.725,1.351,1.725H228.944z"/>
	<path d="M310.093,97.426V64.577c0-1.35-0.75-1.575-1.425-0.375l-6.975,11.549c-0.676,1.05-0.15,2.1,1.125,2.1h2.25
		c0.749,0,1.499,0.675,1.499,1.5v5.7c0,0.825-0.675,1.575-1.499,1.575h-12.6c-0.9,0-1.801-0.75-1.875-1.575l-0.976-4.875
		c-0.225-0.9,0.075-2.325,0.525-3.15l18.824-28.949c0.6-0.75,1.8-1.425,2.774-1.425h5.625c0.9,0,1.65,0.675,1.65,1.575v27.374
		c0,1.275,0.899,2.25,2.1,2.25h2.4c0.899,0,1.574,0.675,1.574,1.5v5.7c0,0.825-0.675,1.575-1.574,1.575h-2.4
		c-1.2,0-2.1,0.975-2.1,2.175v8.625c0,0.9-0.75,1.575-1.65,1.575h-5.625C310.843,99.001,310.093,98.326,310.093,97.426z"/>
	<path d="M337.618,72.527c0-14.625,9.3-26.174,21.225-26.174c2.625,0,4.875,0.45,6.899,1.125h-0.075
		c1.051,0.6,1.351,1.35,0.825,2.175v0.075c0,0-1.649,3.375-2.475,4.875c-0.675,1.2-1.425,1.125-4.35,1.05
		c-8.325,0-13.425,8.925-13.425,17.924c0,9.525,5.85,16.875,13.425,16.875c7.8,0,13.199-9.075,13.199-17.475
		c0-2.7-0.6-6.075-1.425-8.325c-0.3-0.6-0.675-1.425,0.075-2.7c0,0,2.999-4.725,3.749-6c0.375-0.75,1.125-0.675,1.575,0.15
		c3.225,4.875,4.875,10.5,4.875,16.574c0,14.85-9.824,26.774-22.049,26.774C347.069,99.451,337.618,87.902,337.618,72.527z"/>
	<path d="M391.767,72.527c0-14.625,9.3-26.174,21.225-26.174c2.625,0,4.875,0.45,6.899,1.125h-0.075
		c1.051,0.6,1.351,1.35,0.825,2.175v0.075c0,0-1.649,3.375-2.475,4.875c-0.675,1.2-1.425,1.125-4.35,1.05
		c-8.325,0-13.425,8.925-13.425,17.924c0,9.525,5.85,16.875,13.425,16.875c7.8,0,13.199-9.075,13.199-17.475
		c0-2.7-0.6-6.075-1.425-8.325c-0.3-0.6-0.675-1.425,0.075-2.7c0,0,2.999-4.725,3.749-6c0.375-0.75,1.125-0.675,1.575,0.15
		c3.225,4.875,4.875,10.5,4.875,16.574c0,14.85-9.824,26.774-22.049,26.774C401.217,99.451,391.767,87.902,391.767,72.527z"/>
	<path d="M479.14,97.501V48.078c0-0.75,0.6-1.35,1.35-1.35h33.6c0.75,0,1.35,0.6,1.35,1.35v6.3c0,0.75-0.6,1.35-1.35,1.35h-24.225
		c-0.75,0-1.35,0.6-1.35,1.35v11.024c0,0.975-0.074,1.425,1.725,1.425h18.75c0.674,0,1.273,0.525,1.273,1.2v6.375
		c0,0.675-0.6,1.2-1.273,1.2h-18.824c-1.576,0-1.65,1.35-1.65,1.725v7.95c0,0.75,0.15,1.8,2.1,1.8h24c0.75,0,1.35,0.675,1.35,1.425
		v6.3c0,0.75-0.6,1.35-1.35,1.35H480.49C479.74,98.851,479.14,98.251,479.14,97.501z"/>
	<path d="M562.763,97.576v-5.625c0-1.425-0.074-3.075,2.775-5.1c7.275-4.575,18.523-12.6,20.324-18.224
		c1.049-3.3,0-7.275-2.25-9.825c-2.85-2.55-6.824-2.4-8.324-2.175c-2.25,0.525-4.35,1.425-7.275,4.05
		c-0.525,0.45-1.426,0.375-1.875,0.15c-1.275-0.9-3.6-2.025-4.949-2.85c-0.826-0.525-1.201-1.5-0.75-2.4
		c1.725-3.375,4.799-6.075,9.225-7.875c3.75-1.5,8.398-1.8,12.523-0.825c7.275,1.725,13.426,7.725,13.426,17.549
		c0,5.774-1.801,10.5-5.551,14.624c-3.824,4.275-8.023,7.05-11.924,9.3c-1.65,0.975-1.426,1.5,0.75,1.5l14.699-0.15
		c1.35,0,2.1,0.825,2.1,2.025v5.625c0,0.975-0.9,1.725-1.949,1.725h-29.549C563.215,99.076,562.763,98.626,562.763,97.576z"/>
	<path d="M607.463,72.527c0-14.625,9.301-26.174,21.225-26.174c2.625,0,4.875,0.45,6.9,1.125h-0.076
		c1.051,0.6,1.352,1.35,0.826,2.175v0.075c0,0-1.65,3.375-2.475,4.875c-0.676,1.2-1.426,1.125-4.35,1.05
		c-8.326,0-13.426,8.925-13.426,17.924c0,9.525,5.85,16.875,13.426,16.875c7.799,0,13.199-9.075,13.199-17.475
		c0-2.7-0.6-6.075-1.426-8.325c-0.299-0.6-0.674-1.425,0.076-2.7c0,0,2.998-4.725,3.748-6c0.375-0.75,1.125-0.675,1.576,0.15
		c3.225,4.875,4.875,10.5,4.875,16.574c0,14.85-9.824,26.774-22.049,26.774C616.914,99.451,607.463,87.902,607.463,72.527z"/>
	<path d="M661.613,72.527c0-14.625,9.299-26.174,21.225-26.174c2.625,0,4.875,0.45,6.898,1.125h-0.074
		c1.051,0.6,1.35,1.35,0.824,2.175v0.075c0,0-1.648,3.375-2.475,4.875c-0.674,1.2-1.424,1.125-4.35,1.05
		c-8.324,0-13.424,8.925-13.424,17.924c0,9.525,5.85,16.875,13.424,16.875c7.801,0,13.199-9.075,13.199-17.475
		c0-2.7-0.6-6.075-1.424-8.325c-0.301-0.6-0.676-1.425,0.074-2.7c0,0,3-4.725,3.75-6c0.375-0.75,1.125-0.675,1.574,0.15
		c3.225,4.875,4.875,10.5,4.875,16.574c0,14.85-9.824,26.774-22.049,26.774C671.062,99.451,661.613,87.902,661.613,72.527z"/>
	<path d="M748.236,70.427v-5.1c0-0.75,0.6-1.275,1.273-1.275h3.525c3.449-10.35,13.125-17.85,24.449-17.85
		c7.574,0,14.324,3.3,19.049,8.55c0.451,0.45,0.451,1.05-0.074,1.5l-5.25,4.5c-0.225,0.225-0.975,0.6-1.5,0
		c-3.074-3.3-7.424-5.4-12.225-5.4c-6.225,0-11.699,3.525-14.549,8.7h13.049c0.676,0,1.199,0.525,1.199,1.275v5.1
		c0,0.675-0.523,1.2-1.199,1.2H749.51C748.836,71.627,748.236,71.102,748.236,70.427z M753.635,83.252h-4.125
		c-0.674,0-1.273-0.6-1.273-1.275v-5.1c0-0.675,0.6-1.275,1.273-1.275h26.475c0.676,0,1.199,0.6,1.199,1.275v5.1
		c0,0.675-0.523,1.275-1.199,1.275h-12.148c3.074,4.35,8.023,7.2,13.648,7.2c4.574,0,8.625-1.875,11.699-4.875
		c1.051-0.9,2.1-0.45,2.4-0.225c0.301,0.3,3.6,3.075,4.35,3.75c0.824,0.675,0.9,1.725,0.301,2.25c-4.65,5.1-11.326,8.25-18.75,8.25
		C766.685,99.601,757.461,92.851,753.635,83.252z"/>
</g>
</svg>
