<?xml version="1.0" encoding="utf-8"?>
<!-- Generator: Adobe Illustrator 16.0.0, SVG Export Plug-In . SVG Version: 6.00 Build 0)  -->
<!DOCTYPE svg PUBLIC "-//W3C//DTD SVG 1.1//EN" "http://www.w3.org/Graphics/SVG/1.1/DTD/svg11.dtd">
<svg version="1.1" id="Livello_1" xmlns="http://www.w3.org/2000/svg" xmlns:xlink="http://www.w3.org/1999/xlink" x="0px" y="0px"
	 width="900px" height="650px" viewBox="0 0 900 650" enable-background="new 0 0 900 650" xml:space="preserve">
<rect x="0.32" y="0" fill="#CD7F32" width="900" height="650"/>
<path fill="#39B54A" d="M618.166,326.748c0,93.283-75.617,168.9-168.897,168.9c-93.279,0-168.896-75.617-168.896-168.9
	c0-93.282,75.617-168.896,168.896-168.896C542.549,157.852,618.166,233.466,618.166,326.748z"/>
<circle fill="#BA712F" cx="449.061" cy="302.459" r="93.68"/>
<g>
	<path fill="#40596B" d="M373.17,357.264l-32.233,55.873l37.62-1.996l17.092,33.58l29.818-51.693
		C404.102,387.5,385.756,374.635,373.17,357.264z"/>
	<path fill="#40596B" d="M525.138,356.987c-12.494,17.416-30.84,30.328-52.158,35.947l29.91,51.787l17.092-33.58l37.621,1.996
		L525.138,356.987z"/>
</g>
<circle fill="#75663F" cx="449.061" cy="302.459" r="67.903"/>
<path fill="#FFFFFF" d="M495.599,295.12c2.09-2.043,0.928-5.62-1.951-6.038l-26.799-3.901c-1.162-0.186-2.137-0.882-2.648-1.95
	l-11.982-24.291c-1.301-2.647-5.062-2.647-6.363,0l-11.936,24.291c-0.512,1.021-1.533,1.765-2.647,1.95l-26.799,3.901
	c-2.88,0.418-4.041,3.995-1.951,6.038l19.368,18.903c0.836,0.836,1.207,1.997,1.021,3.111l-4.552,26.66
	c-0.511,2.879,2.555,5.109,5.155,3.717l23.966-12.588c1.021-0.557,2.275-0.557,3.297,0l23.965,12.588
	c2.602,1.346,5.621-0.838,5.156-3.717l-4.598-26.66c-0.186-1.161,0.186-2.322,1.021-3.111L495.599,295.12z"/>
<g>
	<path d="M150.331,95.936c-1.05-1.125-0.3-2.625,2.175-6.15c0.6-0.75,1.2-0.9,1.95-0.6c8.024,4.125,12.524,4.125,16.199,4.125
		c7.274,0,10.424-3.825,6.675-8.625c-1.875-2.475-7.875-3.6-10.425-4.425c-7.875-2.325-12.449-5.475-13.949-10.65
		c-3.15-9.674,3.3-18.374,16.049-19.724c4.35-0.375,9.3,0.45,13.274,2.1c3.9,1.95,5.625,3.675,5.175,4.95
		c-0.6,1.425-2.399,3.6-3.449,5.025c-0.9,1.125-3.75-1.275-7.2-2.025c-2.925-0.6-6.225-1.425-10.5,0.075
		c-4.499,2.175-5.399,6.075-1.949,8.7c3.6,2.55,8.175,4.125,10.949,5.1c2.775,1.05,7.2,2.55,9.45,5.325
		c2.024,1.95,3.524,5.925,3.524,9.075c0,8.324-7.05,13.574-17.1,13.724C163.005,102.085,153.481,98.785,150.331,95.936z"/>
	<path d="M198.255,84.686l-0.149-0.375c-2.775-8.475-1.275-18.299,4.949-25.724c4.8-5.1,9.75-9,19.05-9.524h0.225
		c4.2-0.225,8.325,0.525,12.3,2.25c5.024,2.25,10.199,7.05,12.3,11.175c5.249,9.225,4.649,20.474-1.5,29.024
		c-2.325,3.3-5.025,5.925-9.525,8.325c-7.05,3.525-15.524,4.05-23.323,0.675C205.605,97.285,200.505,91.436,198.255,84.686z
		 M239.279,82.886c3.825-8.699,0-18.824-8.624-22.724c-6.45-2.85-13.95-1.575-18.899,3.225l-1.275,1.35
		c-6.074,7.424-5.175,18.299,2.101,24.299c5.324,4.5,12.749,5.325,18.824,2.25C235.604,88.886,238.229,85.361,239.279,82.886z"/>
	<path d="M270.705,101.185V60.537c0-0.9-0.899-1.8-1.875-1.8h-12.6c-0.449,0-0.899-0.45-0.899-0.9v-7.274
		c0-0.45,0.375-0.825,0.899-0.825h39.599c0.6,0,1.05,0.45,1.05,0.975v7.049c0,0.525-0.45,0.975-1.05,0.975H283.38
		c-0.976,0-1.8,0.825-1.8,1.8v40.648c0,0.525-0.375,0.975-0.976,0.975h-8.925C271.08,102.16,270.705,101.71,270.705,101.185z"/>
	<path d="M324.254,101.185V60.537c0-0.9-0.899-1.8-1.875-1.8h-12.6c-0.449,0-0.899-0.45-0.899-0.9v-7.274
		c0-0.45,0.375-0.825,0.899-0.825h39.599c0.6,0,1.05,0.45,1.05,0.975v7.049c0,0.525-0.45,0.975-1.05,0.975h-12.449
		c-0.976,0-1.8,0.825-1.8,1.8v40.648c0,0.525-0.375,0.975-0.976,0.975h-8.925C324.629,102.16,324.254,101.71,324.254,101.185z"/>
	<path d="M357.703,84.686l-0.149-0.375c-2.775-8.475-1.275-18.299,4.949-25.724c4.8-5.1,9.75-9,19.05-9.524h0.225
		c4.2-0.225,8.325,0.525,12.3,2.25c5.024,2.25,10.199,7.05,12.3,11.175c5.249,9.225,4.649,20.474-1.5,29.024
		c-2.325,3.3-5.025,5.925-9.525,8.325c-7.05,3.525-15.524,4.05-23.323,0.675C365.053,97.285,359.953,91.436,357.703,84.686z
		 M398.727,82.886c3.825-8.699,0-18.824-8.624-22.724c-6.45-2.85-13.95-1.575-18.899,3.225l-1.275,1.35
		c-6.074,7.424-5.175,18.299,2.101,24.299c5.324,4.5,12.749,5.325,18.824,2.25C395.052,88.886,397.677,85.361,398.727,82.886z"/>
	<path d="M454.527,100.81V51.012c0-0.75,0.676-1.425,1.426-1.425h7.799c0.75,0,1.35,0.675,1.35,1.425v49.798
		c0,0.75-0.6,1.35-1.35,1.35h-7.799C455.203,102.16,454.527,101.56,454.527,100.81z"/>
	<path d="M514.152,100.66v-5.625c0-1.425-0.076-3.075,2.773-5.1c7.275-4.575,18.525-12.6,20.324-18.224
		c1.051-3.3,0-7.275-2.25-9.825c-2.85-2.55-6.824-2.4-8.324-2.175c-2.25,0.525-4.35,1.425-7.273,4.05
		c-0.525,0.45-1.426,0.375-1.875,0.15c-1.275-0.9-3.602-2.025-4.951-2.85c-0.824-0.525-1.199-1.5-0.75-2.4
		c1.725-3.375,4.801-6.075,9.225-7.875c3.75-1.5,8.4-1.8,12.525-0.825C540.851,51.687,547,57.687,547,67.512
		c0,5.774-1.799,10.5-5.549,14.624c-3.826,4.275-8.025,7.05-11.926,9.3c-1.648,0.975-1.424,1.5,0.75,1.5l14.699-0.15
		c1.352,0,2.102,0.825,2.102,2.025v5.625c0,0.975-0.9,1.725-1.951,1.725h-29.549C514.601,102.16,514.152,101.71,514.152,100.66z"/>
	<path d="M558.851,75.612c0-14.625,9.299-26.174,21.225-26.174c2.625,0,4.875,0.45,6.898,1.125H586.9
		c1.051,0.6,1.35,1.35,0.824,2.175v0.075c0,0-1.648,3.375-2.475,4.875c-0.674,1.2-1.424,1.125-4.35,1.05
		c-8.324,0-13.424,8.925-13.424,17.924c0,9.525,5.85,16.875,13.424,16.875c7.801,0,13.199-9.075,13.199-17.475
		c0-2.7-0.6-6.075-1.424-8.325c-0.301-0.6-0.676-1.425,0.074-2.7c0,0,3-4.725,3.75-6c0.375-0.75,1.125-0.675,1.574,0.15
		c3.225,4.875,4.875,10.5,4.875,16.574c0,14.85-9.824,26.774-22.049,26.774C568.301,102.535,558.851,90.986,558.851,75.612z"/>
	<path d="M613,75.612c0-14.625,9.299-26.174,21.225-26.174c2.625,0,4.875,0.45,6.898,1.125h-0.074c1.051,0.6,1.35,1.35,0.824,2.175
		v0.075c0,0-1.648,3.375-2.475,4.875c-0.674,1.2-1.424,1.125-4.35,1.05c-8.324,0-13.424,8.925-13.424,17.924
		c0,9.525,5.85,16.875,13.424,16.875c7.801,0,13.199-9.075,13.199-17.475c0-2.7-0.6-6.075-1.424-8.325
		c-0.301-0.6-0.676-1.425,0.074-2.7c0,0,3-4.725,3.75-6c0.375-0.75,1.125-0.675,1.574,0.15c3.225,4.875,4.875,10.5,4.875,16.574
		c0,14.85-9.824,26.774-22.049,26.774C622.449,102.535,613,90.986,613,75.612z"/>
	<path d="M699.623,73.511v-5.1c0-0.75,0.6-1.275,1.275-1.275h3.525c3.449-10.35,13.123-17.85,24.449-17.85
		c7.574,0,14.324,3.3,19.049,8.55c0.449,0.45,0.449,1.05-0.076,1.5l-5.25,4.5c-0.225,0.225-0.975,0.6-1.5,0
		c-3.074-3.3-7.424-5.4-12.223-5.4c-6.227,0-11.701,3.525-14.551,8.7h13.051c0.674,0,1.199,0.525,1.199,1.275v5.1
		c0,0.675-0.525,1.2-1.199,1.2h-26.475C700.222,74.712,699.623,74.187,699.623,73.511z M705.023,86.336h-4.125
		c-0.676,0-1.275-0.6-1.275-1.275v-5.1c0-0.675,0.6-1.275,1.275-1.275h26.475c0.674,0,1.199,0.6,1.199,1.275v5.1
		c0,0.675-0.525,1.275-1.199,1.275h-12.15c3.074,4.35,8.025,7.2,13.65,7.2c4.574,0,8.623-1.875,11.699-4.875
		c1.049-0.9,2.1-0.45,2.398-0.225c0.301,0.3,3.602,3.075,4.352,3.75c0.824,0.675,0.898,1.725,0.299,2.25
		c-4.65,5.1-11.324,8.25-18.748,8.25C718.072,102.685,708.847,95.936,705.023,86.336z"/>
</g>
</svg>
