<?xml version="1.0" encoding="utf-8"?>
<!-- Generator: Adobe Illustrator 16.0.0, SVG Export Plug-In . SVG Version: 6.00 Build 0)  -->
<!DOCTYPE svg PUBLIC "-//W3C//DTD SVG 1.1//EN" "http://www.w3.org/Graphics/SVG/1.1/DTD/svg11.dtd">
<svg version="1.1" id="Livello_1" xmlns="http://www.w3.org/2000/svg" xmlns:xlink="http://www.w3.org/1999/xlink" x="0px" y="0px"
	 width="900px" height="650px" viewBox="0 0 900 650" enable-background="new 0 0 900 650" xml:space="preserve">
<rect fill="#BCA91F" width="900" height="650"/>
<circle fill="#1076A6" cx="462.432" cy="325.36" r="171.278"/>
<path fill="#085F91" d="M627.061,372.577l-79.982-79.988l-1.265-1.259c-1.391-1.112-3.153-1.785-5.051-1.785h-6.572l-43.096-43.083
	c-0.026-0.024-0.046-0.057-0.069-0.083l-0.079-0.078c-0.271-0.315-0.567-0.611-0.879-0.883l-0.085-0.084
	c-0.024-0.013-0.047-0.032-0.067-0.05c-0.094-0.081-0.195-0.153-0.296-0.232c-0.122-0.094-0.244-0.187-0.366-0.274
	c-0.112-0.072-0.222-0.144-0.332-0.214c-0.127-0.081-0.255-0.159-0.392-0.235c-0.113-0.063-0.226-0.122-0.339-0.183
	c-0.141-0.071-0.281-0.142-0.422-0.206c-0.112-0.051-0.23-0.101-0.343-0.146c-0.154-0.063-0.316-0.117-0.47-0.17
	c-0.111-0.04-0.221-0.078-0.343-0.109c-0.164-0.053-0.336-0.091-0.512-0.134c-0.107-0.025-0.216-0.056-0.326-0.076
	c-0.188-0.04-0.394-0.065-0.59-0.088c-0.09-0.014-0.182-0.033-0.281-0.04c-0.292-0.029-0.593-0.045-0.89-0.045h-38.992
	c-5.05,0-9.18,4.117-9.18,9.13v16.01c0,0.415,0.043,0.818,0.094,1.22c0.014,0.106,0.035,0.208,0.052,0.315
	c0.059,0.363,0.138,0.721,0.25,1.07c0.009,0.031,0.009,0.064,0.02,0.099c0.118,0.365,0.264,0.716,0.423,1.063
	c0.045,0.106,0.1,0.211,0.15,0.315c0.146,0.287,0.306,0.567,0.479,0.839c0.033,0.044,0.053,0.095,0.085,0.142
	c0.008,0.011,0.019,0.023,0.019,0.036l0.016,0.015c0.66,0.959,1.492,1.788,2.45,2.441l0.014,0.007l6.971,6.973h-5.275
	c-0.752,0-1.492,0.112-2.232,0.376c-0.738,0.272-1.409,0.625-1.987,1.1l-6.586,5.266h-6.663l-8.096-8.096h-13.495v6.743l1.342,1.353
	h-15.59c-4.445,0-8.096,3.639-8.096,8.098v10.643c-2.345,0.284-4.162,2.283-4.162,4.693v71.209c0,2.403,1.817,4.406,4.162,4.679
	v10.656c0,2.021,0.752,3.879,1.987,5.288l0.743,0.738l90.688,90.692C546.861,491.518,607.543,440.76,627.061,372.577z"/>
<path fill="#F3F9FE" d="M540.754,289.544h-42.501l-6.592-5.272c-0.569-0.469-1.232-0.831-1.979-1.104
	c-0.738-0.259-1.485-0.377-2.236-0.377h-45.868c-0.745,0-1.485,0.12-2.226,0.377c-0.743,0.271-1.404,0.633-1.99,1.104l-6.576,5.272
	h-42.51c-4.449,0-8.096,3.632-8.096,8.096v101.873c0,4.459,3.646,8.088,8.096,8.088h152.478c4.454,0,8.097-3.629,8.097-8.088V297.64
	C548.849,293.175,545.207,289.544,540.754,289.544z"/>
<rect x="380.179" y="308.25" fill="#F28D3A" width="168.675" height="80.653"/>
<polygon fill="#5E6E7E" points="498.502,382.253 510.045,362.893 515.173,371.339 508.373,382.743 "/>
<path fill="#364A5E" d="M515.454,348.586c0,28.124-22.809,50.927-50.941,50.927c-28.136,0-50.938-22.803-50.938-50.927
	c0-28.14,22.803-50.946,50.938-50.946C492.646,297.64,515.454,320.446,515.454,348.586z"/>
<path fill="#B8D1E6" d="M510.065,348.586c0,25.149-20.398,45.534-45.552,45.534s-45.543-20.385-45.543-45.534
	c0-25.167,20.392-45.556,45.543-45.556C489.665,303.029,510.065,323.418,510.065,348.586z"/>
<path fill="#CEE2F2" d="M506.525,348.586c0,23.19-18.808,41.995-42.012,41.995c-23.197,0-42.007-18.805-42.007-41.995
	c0-23.213,18.81-42.022,42.007-42.022C487.717,306.563,506.525,325.371,506.525,348.586z"/>
<path fill="#B8D1E6" d="M483.306,348.586c0,10.367-8.423,18.777-18.792,18.777c-10.374,0-18.784-8.41-18.784-18.777
	c0-10.388,8.412-18.804,18.784-18.804C474.883,329.781,483.306,338.197,483.306,348.586z"/>
<g>
	<path fill="#F3F9FE" d="M442.448,343.947l-12.42-2.521c2.801-13.811,13.527-24.54,27.338-27.346l2.524,12.424
		C451.084,328.292,444.239,335.138,442.448,343.947z"/>
	<path fill="#F3F9FE" d="M477.722,380.835l-4.83-11.725c5.475-2.25,9.905-6.687,12.167-12.169l11.72,4.845
		C493.242,370.353,486.292,377.292,477.722,380.835z"/>
</g>
<path fill="#364A5E" d="M403.001,384.18c0,2.6-2.123,4.714-4.717,4.714h-17.545c-2.604,0-4.727-2.114-4.727-4.714v-71.207
	c0-2.603,2.123-4.727,4.727-4.727h17.545c2.596,0,4.717,2.123,4.717,4.727V384.18z"/>
<path fill="#E1EFFA" d="M514.317,302.118c0,0.77,0.62,1.382,1.383,1.382h13.372c0.766,0,1.378-0.609,1.378-1.382v-6.441
	c0-0.768-0.61-1.386-1.378-1.386H515.7c-0.762,0-1.383,0.619-1.383,1.386V302.118z"/>
<path fill="#B8D1E6" d="M529.07,294.29H515.7c-0.762,0-1.383,0.619-1.383,1.386v6.441c0,0.77,0.62,1.382,1.383,1.382h13.372
	c0.766,0,1.378-0.609,1.378-1.382v-6.441C530.448,294.909,529.836,294.29,529.07,294.29z M529.874,302.118
	c0,0.449-0.36,0.806-0.804,0.806H515.7c-0.442,0-0.806-0.356-0.806-0.806v-6.441c0-0.456,0.363-0.817,0.806-0.817h13.372
	c0.442,0,0.804,0.361,0.804,0.817v6.441H529.874z"/>
<path fill="#F28D3A" d="M412.643,298.888c0,1.864-1.506,3.377-3.376,3.377c-1.858,0-3.363-1.513-3.363-3.377
	c0-1.865,1.505-3.374,3.363-3.374C411.137,295.517,412.643,297.025,412.643,298.888z"/>
<rect x="456.078" y="277.396" fill="#5E6E7E" width="16.866" height="5.394"/>
<path fill="#364A5E" d="M493.194,252.257c0-5.023-4.129-9.139-9.185-9.139h-38.991c-5.046,0-9.183,4.116-9.183,9.139v16.003
	c0,5.02,4.137,9.136,9.183,9.136h38.989c5.056,0,9.186-4.116,9.186-9.136L493.194,252.257L493.194,252.257z"/>
<path fill="#F3F9FE" d="M445.017,273.349c-2.832,0-5.131-2.287-5.131-5.088v-16.003c0-2.812,2.297-5.079,5.131-5.079h38.991
	c2.832,0,5.137,2.267,5.137,5.079v16.003c0,2.801-2.305,5.088-5.137,5.088H445.017z"/>
<rect x="405.562" y="288.192" fill="#5E6E7E" width="7.42" height="1.357"/>
<g>
	<rect x="402.519" y="281.443" fill="#364A5E" width="13.495" height="6.746"/>
	<rect x="514.312" y="286.085" fill="#364A5E" width="10.362" height="3.46"/>
</g>
<path fill="#B8D1E6" d="M491.66,284.271c-0.569-0.469-1.234-0.831-1.979-1.104c-0.738-0.259-1.485-0.377-2.237-0.377h-45.865
	c-0.745,0-1.486,0.12-2.227,0.377c-0.743,0.271-1.403,0.633-1.991,1.104l-6.574,5.272h67.467L491.66,284.271z"/>
<g>
	<path d="M178.243,105.324c-0.294-0.292-0.44-0.626-0.44-1v-53.2c0-0.426,0.146-0.772,0.44-1.04c0.292-0.266,0.626-0.4,1-0.4h33.52
		c0.426,0,0.772,0.134,1.04,0.4c0.266,0.268,0.4,0.614,0.4,1.04v6.8c0,0.374-0.134,0.707-0.4,1c-0.268,0.293-0.614,0.44-1.04,0.44
		h-22c-0.534,0-1,0.188-1.4,0.56c-0.4,0.374-0.6,0.854-0.6,1.44v9.68c0,0.534,0.2,1,0.6,1.4c0.4,0.4,0.866,0.6,1.4,0.6h14.88
		c0.532,0,0.986,0.2,1.36,0.6c0.373,0.4,0.56,0.894,0.56,1.48v6.4c0,0.588-0.188,1.08-0.56,1.48c-0.374,0.4-0.828,0.6-1.36,0.6
		h-15.52c-0.374,0-0.708,0.134-1,0.4c-0.294,0.268-0.44,0.614-0.44,1.04v19.28c0,0.374-0.134,0.708-0.4,1
		c-0.268,0.293-0.614,0.44-1.04,0.44h-8C178.869,105.764,178.536,105.617,178.243,105.324z"/>
	<path d="M226.803,96.924c-2.64-2.96-4.574-6.253-5.8-9.88l-0.16-0.4c-0.96-2.88-1.44-5.866-1.44-8.96c0-3.306,0.56-6.56,1.68-9.76
		c1.12-3.2,2.8-6.106,5.04-8.72c2.933-3.146,5.906-5.56,8.92-7.24c3.012-1.68,6.813-2.652,11.4-2.92h0.24
		c4.48-0.266,8.853,0.534,13.12,2.4c2.667,1.174,5.24,2.894,7.72,5.16c2.48,2.268,4.28,4.52,5.4,6.76
		c2.506,4.374,3.76,9.12,3.76,14.24c0,2.988-0.454,5.908-1.36,8.76c-0.908,2.854-2.24,5.507-4,7.96
		c-1.333,1.867-2.788,3.507-4.36,4.92c-1.574,1.414-3.508,2.734-5.8,3.96c-4.107,2.08-8.534,3.12-13.28,3.12
		c-4.054,0-7.92-0.8-11.6-2.4C232.603,102.217,229.443,99.884,226.803,96.924z M261.643,89.844c1.44-1.653,2.48-3.227,3.12-4.72
		c1.066-2.453,1.6-4.96,1.6-7.52c0-3.52-0.96-6.813-2.88-9.88c-1.92-3.066-4.56-5.346-7.92-6.84c-2.454-1.066-4.988-1.6-7.6-1.6
		c-2.348,0-4.6,0.427-6.76,1.28c-2.16,0.854-4.094,2.107-5.8,3.76l-1.36,1.44c-1.44,1.76-2.52,3.654-3.24,5.68
		c-0.72,2.028-1.08,4.108-1.08,6.24c0,2.667,0.56,5.24,1.68,7.72s2.746,4.574,4.88,6.28c3.466,2.88,7.413,4.32,11.84,4.32
		c2.933,0,5.68-0.64,8.24-1.92C258.443,92.911,260.203,91.498,261.643,89.844z"/>
	<path d="M298.563,105.364c-0.188-0.213-0.28-0.453-0.28-0.72v-43.36c0-0.48-0.2-0.92-0.6-1.32c-0.4-0.4-0.868-0.6-1.4-0.6h-13.44
		c-0.213,0-0.427-0.106-0.64-0.32c-0.214-0.212-0.32-0.426-0.32-0.64v-7.76c0-0.266,0.093-0.48,0.28-0.64
		c0.186-0.16,0.412-0.24,0.68-0.24h42.24c0.32,0,0.586,0.107,0.8,0.32c0.212,0.214,0.32,0.454,0.32,0.72v7.52
		c0,0.268-0.108,0.507-0.32,0.72c-0.214,0.214-0.48,0.32-0.8,0.32h-13.28c-0.534,0-0.987,0.188-1.36,0.56
		c-0.374,0.374-0.56,0.827-0.56,1.36v43.36c0,0.268-0.094,0.507-0.28,0.72c-0.188,0.213-0.44,0.32-0.76,0.32h-9.52
		C299.002,105.684,298.749,105.577,298.563,105.364z"/>
	<path d="M339.762,96.924c-2.64-2.96-4.574-6.253-5.8-9.88l-0.16-0.4c-0.96-2.88-1.44-5.866-1.44-8.96c0-3.306,0.56-6.56,1.68-9.76
		c1.12-3.2,2.8-6.106,5.04-8.72c2.933-3.146,5.906-5.56,8.92-7.24c3.012-1.68,6.813-2.652,11.4-2.92h0.24
		c4.48-0.266,8.853,0.534,13.12,2.4c2.667,1.174,5.24,2.894,7.72,5.16c2.48,2.268,4.28,4.52,5.4,6.76
		c2.506,4.374,3.76,9.12,3.76,14.24c0,2.988-0.454,5.908-1.36,8.76c-0.908,2.854-2.24,5.507-4,7.96
		c-1.333,1.867-2.788,3.507-4.36,4.92c-1.574,1.414-3.508,2.734-5.8,3.96c-4.107,2.08-8.534,3.12-13.28,3.12
		c-4.054,0-7.92-0.8-11.6-2.4C345.562,102.217,342.402,99.884,339.762,96.924z M374.602,89.844c1.44-1.653,2.48-3.227,3.12-4.72
		c1.066-2.453,1.6-4.96,1.6-7.52c0-3.52-0.96-6.813-2.88-9.88c-1.92-3.066-4.56-5.346-7.92-6.84c-2.454-1.066-4.988-1.6-7.6-1.6
		c-2.348,0-4.6,0.427-6.76,1.28c-2.16,0.854-4.094,2.107-5.8,3.76l-1.36,1.44c-1.44,1.76-2.52,3.654-3.24,5.68
		c-0.72,2.028-1.08,4.108-1.08,6.24c0,2.667,0.56,5.24,1.68,7.72s2.746,4.574,4.88,6.28c3.466,2.88,7.413,4.32,11.84,4.32
		c2.933,0,5.68-0.64,8.24-1.92C371.402,92.911,373.162,91.498,374.602,89.844z"/>
	<path d="M413.361,102.563c-4.347-2.56-7.787-6.04-10.32-10.44c-2.534-4.4-3.8-9.212-3.8-14.44c0-5.172,1.266-9.96,3.8-14.36
		c2.533-4.4,5.973-7.893,10.32-10.48c4.346-2.586,9.08-3.88,14.2-3.88c4,0,7.813,0.8,11.44,2.4c3.626,1.6,6.772,3.894,9.44,6.88
		c0.32,0.32,0.48,0.667,0.48,1.04c0,0.32-0.188,0.667-0.56,1.04c-1.12,0.907-2.24,1.854-3.36,2.84
		c-1.12,0.987-1.894,1.667-2.32,2.04c-0.32,0.32-0.694,0.48-1.12,0.48c-0.374,0-0.72-0.16-1.04-0.48
		c-1.708-1.866-3.68-3.292-5.92-4.28c-2.24-0.986-4.587-1.48-7.04-1.48c-3.2,0-6.174,0.828-8.92,2.48
		c-2.748,1.653-4.92,3.867-6.52,6.64c-1.6,2.774-2.4,5.814-2.4,9.12c0,3.308,0.8,6.348,2.4,9.12c1.6,2.773,3.772,4.987,6.52,6.64
		c2.746,1.654,5.72,2.48,8.92,2.48c2.292,0,4.506-0.453,6.64-1.36c2.132-0.906,4.052-2.212,5.76-3.92
		c0.533-0.426,1.12-0.64,1.76-0.64c0.532,0,0.96,0.16,1.28,0.48c0.533,0.428,1.28,1.054,2.24,1.88c0.96,0.827,1.786,1.56,2.48,2.2
		c0.586,0.48,0.88,1.067,0.88,1.76c0,0.427-0.16,0.8-0.48,1.12c-2.667,2.88-5.774,5.094-9.32,6.64
		c-3.547,1.547-7.293,2.32-11.24,2.32C422.441,106.404,417.707,105.124,413.361,102.563z"/>
	<path d="M459.721,105.443c-0.16-0.212-0.215-0.452-0.16-0.72l14.16-53.84c0.105-0.32,0.306-0.6,0.6-0.84
		c0.293-0.24,0.626-0.36,1-0.36h16.64c0.32,0,0.64,0.107,0.96,0.32c0.32,0.214,0.533,0.48,0.641,0.8l14.16,53.84v0.24
		c0,0.587-0.268,0.88-0.801,0.88h-7.84c-0.32,0-0.654-0.12-1-0.36c-0.348-0.24-0.547-0.52-0.6-0.84l-3.92-14.88
		c-0.107-0.48-0.374-0.88-0.801-1.2c-0.428-0.32-0.88-0.48-1.359-0.48H475.88c-0.479,0-0.934,0.16-1.36,0.48
		c-0.427,0.32-0.693,0.72-0.799,1.2l-3.92,14.8c-0.055,0.374-0.254,0.68-0.601,0.92c-0.348,0.24-0.681,0.36-1,0.36h-7.841
		C460.093,105.764,459.88,105.657,459.721,105.443z M488.92,79.443c0.533,0,0.946-0.186,1.24-0.56c0.293-0.373,0.387-0.8,0.279-1.28
		l-4.479-16.48c-0.054-0.426-0.294-0.8-0.72-1.12c-0.428-0.32-0.881-0.48-1.36-0.48H483.4c-0.48,0-0.934,0.16-1.36,0.48
		c-0.427,0.32-0.667,0.694-0.72,1.12l-4.4,16.48l-0.08,0.4c0,0.428,0.133,0.774,0.4,1.04c0.266,0.268,0.64,0.4,1.119,0.4H488.92z"/>
	<path d="M519,105.244c-0.268-0.292-0.4-0.626-0.4-1v-53.04c0-0.373,0.133-0.706,0.4-1c0.266-0.292,0.586-0.44,0.959-0.44h7.841
		c0.532,0,0.933,0.268,1.2,0.8l12.16,20.16c0.053,0.107,0.199,0.268,0.439,0.48c0.24,0.214,0.547,0.32,0.92,0.32h0.16
		c0.373,0,0.652-0.12,0.84-0.36c0.187-0.24,0.307-0.413,0.36-0.52l12.079-20c0.373-0.586,0.801-0.88,1.281-0.88h7.92
		c0.372,0,0.691,0.147,0.959,0.44c0.267,0.294,0.4,0.627,0.4,1v53.04c0,0.374-0.134,0.708-0.4,1c-0.268,0.293-0.587,0.44-0.959,0.44
		h-7.84c-0.428,0-0.774-0.132-1.041-0.4c-0.268-0.266-0.399-0.613-0.399-1.04v-31.76c0-0.532-0.108-0.8-0.32-0.8
		c-0.214,0-0.454,0.214-0.72,0.64l-8.4,11.92c-0.48,0.694-0.894,1.147-1.24,1.36c-0.348,0.214-0.947,0.32-1.799,0.32h-1.361
		c-1.014,0-1.707-0.08-2.08-0.24s-0.746-0.506-1.119-1.04l-8.641-12.24c-0.319-0.48-0.56-0.72-0.72-0.72
		c-0.214,0-0.319,0.24-0.319,0.72v31.84c0,0.374-0.135,0.708-0.4,1c-0.268,0.293-0.613,0.44-1.04,0.44h-7.761
		C519.586,105.684,519.266,105.537,519,105.244z"/>
	<path d="M580.878,105.003c-0.293-0.292-0.439-0.626-0.439-1v-52.72c0-0.426,0.146-0.772,0.439-1.04c0.293-0.266,0.627-0.4,1-0.4
		h35.84c0.428,0,0.773,0.134,1.041,0.4c0.266,0.268,0.4,0.614,0.4,1.04v6.72c0,0.374-0.135,0.708-0.4,1
		c-0.268,0.294-0.613,0.44-1.041,0.44h-25.84c-0.373,0-0.707,0.134-1,0.4c-0.293,0.268-0.439,0.614-0.439,1.04v11.76v0.24
		c0,0.48,0.105,0.813,0.32,1c0.213,0.188,0.721,0.28,1.52,0.28h20c0.373,0,0.693,0.12,0.961,0.36c0.266,0.24,0.398,0.548,0.398,0.92
		v6.8c0,0.374-0.133,0.68-0.398,0.92c-0.268,0.24-0.588,0.36-0.961,0.36h-20.08c-0.693,0-1.16,0.2-1.4,0.6s-0.359,0.814-0.359,1.24
		v8.48c0,0.534,0.146,0.987,0.439,1.36c0.293,0.374,0.893,0.56,1.801,0.56h25.6c0.373,0,0.707,0.147,1,0.44
		c0.293,0.294,0.439,0.654,0.439,1.08v6.72c0,0.374-0.133,0.708-0.398,1c-0.268,0.294-0.615,0.44-1.041,0.44h-36.4
		C581.505,105.443,581.171,105.297,580.878,105.003z"/>
	<path d="M632.797,105.324c-0.293-0.292-0.439-0.626-0.439-1v-53.2c0-0.373,0.146-0.706,0.439-1c0.293-0.292,0.652-0.44,1.08-0.44
		h16.8c3.307,0,6.36,0.788,9.16,2.36c2.8,1.574,5.013,3.72,6.641,6.44c1.626,2.72,2.439,5.708,2.439,8.96
		c0,2.774-0.64,5.36-1.92,7.76s-3.014,4.48-5.2,6.24c-0.319,0.268-0.479,0.614-0.479,1.04c0,0.16,0.026,0.294,0.08,0.4
		c0.052,0.107,0.08,0.188,0.08,0.24l9.279,20.72c0.16,0.374,0.24,0.72,0.24,1.04c0,0.587-0.348,0.88-1.04,0.88h-7.04
		c-0.587,0-1.027-0.054-1.319-0.16c-0.294-0.106-0.548-0.373-0.761-0.8l-8.399-18.72c-0.107-0.32-0.308-0.532-0.601-0.64
		c-0.294-0.106-0.813-0.186-1.56-0.24h-6.4c-0.8,0-1.348,0.107-1.64,0.32c-0.294,0.214-0.44,0.614-0.44,1.2v17.6
		c0,0.374-0.147,0.708-0.439,1c-0.294,0.293-0.654,0.44-1.08,0.44h-6.4C633.449,105.764,633.09,105.617,632.797,105.324z
		 M650.677,74.884c2.08,0,3.866-0.733,5.36-2.2c1.492-1.466,2.24-3.212,2.24-5.24c0-2.08-0.748-3.84-2.24-5.28
		c-1.494-1.44-3.28-2.16-5.36-2.16h-7.439c-0.96,0-1.44,0.534-1.44,1.6v12c0,0.374,0.106,0.68,0.32,0.92
		c0.213,0.24,0.506,0.36,0.88,0.36H650.677z"/>
	<path d="M683.356,105.003c-0.294-0.292-0.439-0.626-0.439-1v-52.72c0-0.426,0.146-0.772,0.439-1.04c0.293-0.266,0.626-0.4,1-0.4
		h35.84c0.427,0,0.772,0.134,1.04,0.4c0.267,0.268,0.4,0.614,0.4,1.04v6.72c0,0.374-0.134,0.708-0.4,1
		c-0.268,0.294-0.613,0.44-1.04,0.44h-25.84c-0.374,0-0.707,0.134-1,0.4c-0.294,0.268-0.439,0.614-0.439,1.04v11.76v0.24
		c0,0.48,0.105,0.813,0.319,1c0.213,0.188,0.721,0.28,1.521,0.28h20c0.372,0,0.692,0.12,0.96,0.36
		c0.266,0.24,0.399,0.548,0.399,0.92v6.8c0,0.374-0.134,0.68-0.399,0.92c-0.268,0.24-0.588,0.36-0.96,0.36h-20.08
		c-0.694,0-1.16,0.2-1.4,0.6s-0.359,0.814-0.359,1.24v8.48c0,0.534,0.146,0.987,0.439,1.36c0.293,0.374,0.893,0.56,1.8,0.56h25.601
		c0.372,0,0.706,0.147,1,0.44c0.292,0.294,0.439,0.654,0.439,1.08v6.72c0,0.374-0.134,0.708-0.399,1
		c-0.268,0.294-0.614,0.44-1.04,0.44h-36.4C683.982,105.443,683.649,105.297,683.356,105.003z"/>
</g>
</svg>
