<?xml version="1.0" encoding="utf-8"?>
<!-- Generator: Adobe Illustrator 16.0.0, SVG Export Plug-In . SVG Version: 6.00 Build 0)  -->
<!DOCTYPE svg PUBLIC "-//W3C//DTD SVG 1.1//EN" "http://www.w3.org/Graphics/SVG/1.1/DTD/svg11.dtd">
<svg version="1.1" id="Livello_1" xmlns="http://www.w3.org/2000/svg" xmlns:xlink="http://www.w3.org/1999/xlink" x="0px" y="0px"
	 width="900px" height="650px" viewBox="0 0 900 650" enable-background="new 0 0 900 650" xml:space="preserve">
<rect fill="#F39200" width="900" height="650"/>
<g>
	<path d="M239.696,104.003c-0.213-0.213-0.32-0.48-0.32-0.8v-53.84c0-0.32,0.106-0.586,0.32-0.8c0.213-0.213,0.48-0.32,0.8-0.32h8.4
		c0.32,0,0.586,0.12,0.8,0.36c0.213,0.24,0.32,0.494,0.32,0.76v20.88c0,0.48,0.186,0.908,0.56,1.28c0.372,0.374,0.8,0.56,1.28,0.56
		h15.2c0.48,0,0.892-0.172,1.24-0.52c0.346-0.347,0.546-0.787,0.6-1.32v-20.88c0-0.266,0.106-0.52,0.32-0.76
		c0.213-0.24,0.48-0.36,0.8-0.36h8.4c0.32,0,0.586,0.107,0.8,0.32c0.213,0.213,0.32,0.48,0.32,0.8v53.84
		c0,0.32-0.107,0.587-0.32,0.8c-0.213,0.213-0.48,0.32-0.8,0.32h-8.4c-0.32,0-0.587-0.12-0.8-0.36c-0.213-0.24-0.32-0.493-0.32-0.76
		v-18.56c-0.054-0.532-0.254-0.972-0.6-1.32c-0.348-0.346-0.76-0.52-1.24-0.52h-15.2c-0.48,0-0.894,0.16-1.24,0.48
		c-0.348,0.32-0.548,0.748-0.6,1.28v18.64c0,0.268-0.107,0.52-0.32,0.76c-0.213,0.24-0.48,0.36-0.8,0.36h-8.4
		C240.176,104.323,239.909,104.216,239.696,104.003z"/>
	<path d="M290.656,104.083c-0.16-0.212-0.214-0.452-0.16-0.72l14.16-53.84c0.106-0.32,0.306-0.6,0.6-0.84
		c0.292-0.24,0.626-0.36,1-0.36h16.64c0.32,0,0.64,0.107,0.96,0.32c0.32,0.214,0.533,0.48,0.64,0.8l14.16,53.84v0.24
		c0,0.587-0.268,0.88-0.8,0.88h-7.84c-0.32,0-0.654-0.12-1-0.36c-0.348-0.24-0.547-0.52-0.6-0.84l-3.92-14.88
		c-0.107-0.48-0.374-0.88-0.8-1.2c-0.428-0.32-0.88-0.48-1.36-0.48h-15.52c-0.48,0-0.934,0.16-1.36,0.48
		c-0.427,0.32-0.694,0.72-0.8,1.2l-3.92,14.8c-0.054,0.374-0.254,0.68-0.6,0.92c-0.348,0.24-0.68,0.36-1,0.36h-7.84
		C291.028,104.403,290.815,104.296,290.656,104.083z M319.855,78.083c0.533,0,0.946-0.186,1.24-0.56
		c0.292-0.373,0.386-0.8,0.28-1.28l-4.48-16.48c-0.054-0.426-0.293-0.8-0.72-1.12c-0.428-0.32-0.88-0.48-1.36-0.48h-0.48
		c-0.48,0-0.934,0.16-1.36,0.48c-0.427,0.32-0.667,0.694-0.72,1.12l-4.4,16.48l-0.08,0.4c0,0.428,0.132,0.774,0.4,1.04
		c0.266,0.268,0.64,0.4,1.12,0.4H319.855z"/>
	<path d="M350.295,103.963c-0.294-0.292-0.44-0.626-0.44-1v-53.2c0-0.373,0.146-0.706,0.44-1c0.292-0.292,0.652-0.44,1.08-0.44h16.8
		c3.306,0,6.36,0.788,9.16,2.36c2.8,1.574,5.012,3.72,6.64,6.44c1.626,2.72,2.44,5.708,2.44,8.96c0,2.774-0.64,5.36-1.92,7.76
		c-1.28,2.4-3.014,4.48-5.2,6.24c-0.32,0.268-0.48,0.614-0.48,1.04c0,0.16,0.026,0.294,0.08,0.4c0.053,0.107,0.08,0.188,0.08,0.24
		l9.28,20.72c0.16,0.374,0.24,0.72,0.24,1.04c0,0.587-0.347,0.88-1.04,0.88h-7.04c-0.587,0-1.027-0.054-1.32-0.16
		c-0.294-0.106-0.547-0.373-0.76-0.8l-8.4-18.72c-0.107-0.32-0.307-0.532-0.6-0.64c-0.294-0.106-0.814-0.186-1.56-0.24h-6.4
		c-0.8,0-1.347,0.107-1.64,0.32c-0.294,0.214-0.44,0.614-0.44,1.2v17.6c0,0.374-0.147,0.708-0.44,1
		c-0.294,0.293-0.654,0.44-1.08,0.44h-6.4C350.948,104.403,350.588,104.256,350.295,103.963z M368.175,73.523
		c2.08,0,3.866-0.733,5.36-2.2c1.493-1.466,2.24-3.212,2.24-5.24c0-2.08-0.748-3.84-2.24-5.28c-1.494-1.44-3.28-2.16-5.36-2.16
		h-7.44c-0.96,0-1.44,0.534-1.44,1.6v12c0,0.374,0.106,0.68,0.32,0.92c0.212,0.24,0.506,0.36,0.88,0.36H368.175z"/>
	<path d="M402.374,103.323c-0.454-0.453-0.68-1-0.68-1.64v-51.36c0-0.48,0.16-0.893,0.48-1.24c0.32-0.346,0.72-0.52,1.2-0.52h16
		c5.012,0,9.64,1.24,13.88,3.72c4.239,2.48,7.6,5.854,10.079,10.12c2.48,4.268,3.721,8.907,3.721,13.92
		c0,5.014-1.24,9.64-3.721,13.88c-2.479,4.24-5.84,7.6-10.079,10.08c-4.24,2.48-8.868,3.72-13.88,3.72h-15.36
		C403.374,104.003,402.827,103.776,402.374,103.323z M419.374,93.683c3.146,0,6.052-0.772,8.72-2.32
		c2.666-1.546,4.786-3.652,6.359-6.32c1.573-2.667,2.36-5.573,2.36-8.72c0-3.146-0.787-6.053-2.36-8.72
		c-1.573-2.666-3.693-4.786-6.359-6.36c-2.668-1.572-5.574-2.36-8.72-2.36h-6.4c-0.268,0-0.494,0.094-0.68,0.28
		c-0.188,0.188-0.28,0.414-0.28,0.68v33.84H419.374z"/>
	<path d="M466.613,104.123c-0.24-0.132-0.387-0.412-0.439-0.84l-10.32-53.12c-0.055-0.16-0.08-0.373-0.08-0.64
		c0-0.747,0.293-1.12,0.881-1.12h8.16c0.799,0,1.279,0.32,1.439,0.96l6.32,35.6c0.16,0.694,0.291,1.04,0.398,1.04
		s0.293-0.373,0.561-1.12c0.16-0.586,0.826-2.573,2-5.96c1.172-3.386,2.188-6.333,3.041-8.84l0.719-2c0.16-0.48,0.361-0.84,0.6-1.08
		c0.24-0.24,0.654-0.36,1.24-0.36h7.92c1.227,0,2,0.48,2.32,1.44c3.52,9.44,5.547,15.068,6.08,16.88
		c0.268,0.748,0.453,1.12,0.561,1.12c0.16,0,0.32-0.4,0.48-1.2c0.691-4.32,1.652-10.44,2.879-18.36
		c1.227-7.92,2.107-13.613,2.641-17.08c0.053-0.426,0.199-0.707,0.439-0.84c0.24-0.132,0.572-0.2,1-0.2h8.16
		c0.32,0,0.561,0.174,0.721,0.52c0.16,0.347,0.186,0.76,0.08,1.24l-9.6,53.12c-0.16,0.694-0.641,1.04-1.441,1.04h-8.639
		c-0.428,0-0.762-0.066-1-0.2c-0.24-0.132-0.389-0.412-0.441-0.84c-0.746-2.132-2.146-6.146-4.199-12.04
		c-2.055-5.893-3.135-9.132-3.24-9.72c-0.107-0.533-0.24-0.8-0.4-0.8c-0.107,0-0.213,0.268-0.32,0.8
		c-0.053,0.32-1.107,3.48-3.16,9.48s-3.453,10.094-4.199,12.28c-0.16,0.694-0.668,1.04-1.52,1.04h-8.641
		C467.186,104.323,466.854,104.256,466.613,104.123z"/>
	<path d="M520.254,104.083c-0.16-0.212-0.213-0.452-0.16-0.72l14.16-53.84c0.107-0.32,0.307-0.6,0.6-0.84
		c0.293-0.24,0.627-0.36,1-0.36h16.641c0.32,0,0.641,0.107,0.961,0.32c0.318,0.214,0.531,0.48,0.639,0.8l14.16,53.84v0.24
		c0,0.587-0.268,0.88-0.799,0.88h-7.84c-0.32,0-0.654-0.12-1-0.36c-0.348-0.24-0.549-0.52-0.602-0.84l-3.92-14.88
		c-0.107-0.48-0.373-0.88-0.799-1.2c-0.428-0.32-0.881-0.48-1.361-0.48h-15.52c-0.48,0-0.934,0.16-1.359,0.48
		c-0.428,0.32-0.693,0.72-0.801,1.2l-3.92,14.8c-0.053,0.374-0.254,0.68-0.6,0.92c-0.348,0.24-0.68,0.36-1,0.36h-7.84
		C520.627,104.403,520.414,104.296,520.254,104.083z M549.455,78.083c0.531,0,0.945-0.186,1.238-0.56
		c0.293-0.373,0.387-0.8,0.281-1.28l-4.48-16.48c-0.053-0.426-0.293-0.8-0.721-1.12c-0.426-0.32-0.879-0.48-1.359-0.48h-0.48
		c-0.479,0-0.934,0.16-1.359,0.48c-0.428,0.32-0.668,0.694-0.721,1.12l-4.398,16.48l-0.08,0.4c0,0.428,0.131,0.774,0.398,1.04
		c0.268,0.268,0.641,0.4,1.121,0.4H549.455z"/>
	<path d="M579.893,103.963c-0.293-0.292-0.439-0.626-0.439-1v-53.2c0-0.373,0.146-0.706,0.439-1c0.293-0.292,0.652-0.44,1.08-0.44
		h16.801c3.307,0,6.359,0.788,9.16,2.36c2.799,1.574,5.012,3.72,6.641,6.44c1.625,2.72,2.439,5.708,2.439,8.96
		c0,2.774-0.641,5.36-1.92,7.76c-1.281,2.4-3.014,4.48-5.201,6.24c-0.318,0.268-0.479,0.614-0.479,1.04c0,0.16,0.025,0.294,0.08,0.4
		c0.051,0.107,0.08,0.188,0.08,0.24l9.279,20.72c0.16,0.374,0.24,0.72,0.24,1.04c0,0.587-0.348,0.88-1.041,0.88h-7.039
		c-0.588,0-1.027-0.054-1.32-0.16c-0.293-0.106-0.547-0.373-0.76-0.8l-8.4-18.72c-0.107-0.32-0.307-0.532-0.6-0.64
		c-0.295-0.106-0.814-0.186-1.561-0.24h-6.4c-0.799,0-1.348,0.107-1.639,0.32c-0.295,0.214-0.441,0.614-0.441,1.2v17.6
		c0,0.374-0.146,0.708-0.439,1c-0.293,0.293-0.654,0.44-1.08,0.44h-6.4C580.545,104.403,580.186,104.256,579.893,103.963z
		 M597.773,73.523c2.08,0,3.865-0.733,5.359-2.2c1.492-1.466,2.24-3.212,2.24-5.24c0-2.08-0.748-3.84-2.24-5.28
		c-1.494-1.44-3.279-2.16-5.359-2.16h-7.439c-0.961,0-1.441,0.534-1.441,1.6v12c0,0.374,0.107,0.68,0.32,0.92
		c0.213,0.24,0.506,0.36,0.881,0.36H597.773z"/>
	<path d="M630.453,103.643c-0.295-0.292-0.439-0.626-0.439-1v-52.72c0-0.426,0.145-0.772,0.439-1.04c0.293-0.266,0.625-0.4,1-0.4
		h35.84c0.426,0,0.771,0.134,1.039,0.4c0.268,0.268,0.4,0.614,0.4,1.04v6.72c0,0.374-0.133,0.708-0.4,1
		c-0.268,0.294-0.613,0.44-1.039,0.44h-25.84c-0.375,0-0.707,0.134-1,0.4c-0.295,0.268-0.439,0.614-0.439,1.04v11.76v0.24
		c0,0.48,0.105,0.813,0.318,1c0.213,0.188,0.721,0.28,1.521,0.28h20c0.371,0,0.691,0.12,0.959,0.36c0.266,0.24,0.4,0.548,0.4,0.92
		v6.8c0,0.374-0.135,0.68-0.4,0.92c-0.268,0.24-0.588,0.36-0.959,0.36h-20.08c-0.695,0-1.16,0.2-1.4,0.6s-0.359,0.814-0.359,1.24
		v8.48c0,0.534,0.145,0.987,0.439,1.36c0.293,0.374,0.893,0.56,1.799,0.56h25.602c0.371,0,0.705,0.147,1,0.44
		c0.291,0.294,0.439,0.654,0.439,1.08v6.72c0,0.374-0.135,0.708-0.4,1c-0.268,0.294-0.613,0.44-1.039,0.44h-36.4
		C631.078,104.083,630.746,103.937,630.453,103.643z"/>
</g>
<circle fill="#1076A6" cx="462.254" cy="325" r="169.6"/>
<path fill="#085F91" d="M627.023,365.167c-39.287-39.292-73.576-73.549-73.75-73.673c-0.499-0.334-1.096-0.531-1.744-0.531
	c-1.136,0-2.117,0.599-2.704,1.493c-0.265-0.382-56.467-56.606-56.846-56.88c-0.517-0.375-1.145-0.6-1.842-0.6
	c-1.782,0-3.264,1.451-3.264,3.259c0,1.185,0.676,2.185,1.616,2.756c0.123,0.213,0.274,0.395,0.441,0.576v17.819
	c0,0-17.024-16.995-17.278-17.229c-0.557-0.509-1.283-0.827-2.092-0.83c-0.259-0.344-5.781-5.831-5.944-6.005
	c-0.585-0.64-1.401-1.055-2.34-1.055c-1.783,0-3.235,1.459-3.235,3.262c0,1.196,0.662,2.2,1.609,2.773
	c0.117,0.199,0.257,0.377,0.414,0.544v8.344l-9.37,8.281c0,0-22.394-22.55-22.737-22.813c-0.528-0.414-1.188-0.665-1.919-0.665
	c-1.791,0-3.268,1.452-3.268,3.26c0,0.599,0.168,1.145,0.455,1.611c0.291,0.474,12.146,12.311,12.621,12.592
	c0.012,0.019,0.027,0.039,0.04,0.063v20.928c-0.286,0.088-0.567,0.221-0.8,0.446c-0.346,0.353-0.549,0.848-0.549,1.35v6.421h-2.056
	c-0.501,0-1.195,0.28-1.535,0.646l-11.385,11.363c-0.338,0.363-0.621,1.035-0.621,1.532v2.085h-6.42
	c-0.515,0-0.994,0.173-1.345,0.552c-0.232,0.213-0.377,0.488-0.469,0.775h-13.131c-0.176-0.157-0.358-0.301-0.564-0.423
	c-0.564-0.955-1.575-1.613-2.79-1.613c-1.782,0-3.26,1.448-3.26,3.259c0,0.663,0.21,1.27,0.562,1.767
	c0.279,0.402,10.312,10.264,10.312,10.264h-0.907l-4.629,4.63h-21.074c-0.167-0.154-0.346-0.294-0.545-0.415
	c-0.568-0.949-1.579-1.608-2.801-1.608c-1.778,0-3.254,1.451-3.254,3.255c0,0.554,0.148,1.073,0.408,1.525
	c0.294,0.512,20.66,20.918,20.66,20.918l-10.168,10.178c-0.377-0.158-0.807-0.27-1.263-0.27c-1.81,0-3.261,1.475-3.261,3.256
	c0,0.602,0.168,1.162,0.455,1.635c0.288,0.465,54.29,54.434,54.625,54.684l-0.382,0.383c-0.372-0.121-0.744-0.199-1.157-0.199
	c-1.774,0-3.257,1.461-3.257,3.258c0,0.67,0.214,1.273,0.574,1.775c0.107,0.148,34.023,34.094,75.955,76.031
	C563.496,475.169,612.063,426.757,627.023,365.167z"/>
<g>
	<path fill="#FFFFFF" d="M462.514,240.545c1.185-0.488,2.026-1.647,2.026-3.016c0-1.803-1.452-3.262-3.258-3.262
		c-1.784,0-3.235,1.458-3.235,3.262c0,1.369,0.838,2.526,2.022,3.016v8.645l-10.911,9.643v18.667h2.447v-17.571l10.908-9.637
		V240.545L462.514,240.545z M461.282,239.158c-0.891,0-1.637-0.733-1.637-1.628c0-0.889,0.746-1.638,1.637-1.638
		c0.913,0,1.627,0.749,1.627,1.638C462.909,238.425,462.195,239.158,461.282,239.158z"/>
	<path fill="#FFFFFF" d="M429.302,237.254c0-1.808-1.454-3.26-3.261-3.26c-1.791,0-3.266,1.452-3.266,3.26
		c0,1.814,1.475,3.263,3.266,3.263c0.403,0,0.766-0.072,1.102-0.21l8.749,8.738v28.452h2.443v-29.448l0,0l-9.362-9.388
		C429.188,238.246,429.302,237.762,429.302,237.254z M426.041,238.889c-0.896,0-1.634-0.739-1.634-1.635
		c0-0.891,0.737-1.625,1.634-1.625c0.889,0,1.627,0.732,1.627,1.625C427.668,238.151,426.93,238.889,426.041,238.889z"/>
	<path fill="#FFFFFF" d="M488.933,277.499h2.441v-36.246c1.183-0.488,2.023-1.652,2.023-3.018c0-1.808-1.45-3.259-3.256-3.259
		c-1.787,0-3.269,1.452-3.269,3.259c0,1.366,0.872,2.529,2.058,3.018v36.246H488.933z M488.51,238.234
		c0-0.918,0.74-1.628,1.633-1.628c0.911,0,1.63,0.71,1.63,1.628c0,0.894-0.719,1.629-1.63,1.629
		C489.25,239.866,488.51,239.128,488.51,238.234z"/>
	<path fill="#FFFFFF" d="M472.793,244.579c0-1.814-1.471-3.26-3.257-3.26c-1.809,0-3.263,1.445-3.263,3.26
		c0,1.778,1.452,3.256,3.263,3.256c0.413,0,0.837-0.106,1.206-0.248l4.921,4.931v24.978h2.441v-26l-5.588-5.595
		C472.678,245.481,472.793,245.051,472.793,244.579z M469.536,246.2c-0.912,0-1.635-0.736-1.635-1.621
		c0-0.901,0.724-1.636,1.635-1.636c0.894,0,1.633,0.737,1.633,1.636C471.169,245.464,470.43,246.2,469.536,246.2z"/>
	<path fill="#FFFFFF" d="M462.432,277.499h2.452v-14.771l3.556-3.556c0.338,0.133,0.692,0.202,1.097,0.202
		c1.786,0,3.257-1.444,3.257-3.259c0-1.777-1.471-3.256-3.257-3.256c-1.809,0-3.263,1.48-3.263,3.256
		c0,0.518,0.115,1.002,0.331,1.421l-4.173,4.198V277.499L462.432,277.499z M469.536,254.492c0.894,0,1.633,0.731,1.633,1.622
		c0,0.899-0.739,1.638-1.633,1.638c-0.912,0-1.635-0.739-1.635-1.638C467.901,255.221,468.624,254.492,469.536,254.492z"/>
	<path fill="#FFFFFF" d="M435.894,402.86l-6.188,6.184c-0.371-0.117-0.744-0.197-1.158-0.197c-1.771,0-3.256,1.461-3.256,3.258
		c0,1.787,1.484,3.252,3.256,3.252c1.814,0,3.267-1.465,3.267-3.252c0-0.5-0.107-0.982-0.317-1.41l6.842-6.838v-30.998h-2.444
		V402.86L435.894,402.86z M428.547,413.741c-0.885,0-1.629-0.734-1.629-1.637c0-0.916,0.744-1.623,1.629-1.623
		c0.926,0,1.633,0.707,1.633,1.623C430.179,413.009,429.471,413.741,428.547,413.741z"/>
	<path fill="#FFFFFF" d="M475.663,390.767l-10.04,10.041c-0.35-0.117-0.724-0.219-1.141-0.219c-1.777,0-3.262,1.477-3.262,3.268
		c0,1.809,1.484,3.258,3.262,3.258c1.814,0,3.271-1.449,3.271-3.258c0-0.504-0.115-0.955-0.318-1.391l10.673-10.678V372.86h-2.442
		v17.906H475.663z M464.482,405.481c-0.881,0-1.628-0.709-1.628-1.625c0-0.893,0.747-1.639,1.628-1.639
		c0.927,0,1.638,0.744,1.638,1.639C466.12,404.772,465.409,405.481,464.482,405.481z"/>
	<path fill="#FFFFFF" d="M449.158,383.306l-3.541,3.539c-0.43-0.205-0.881-0.316-1.381-0.316c-1.805,0-3.259,1.457-3.259,3.262
		c0,1.791,1.454,3.268,3.259,3.268c1.782,0,3.256-1.477,3.256-3.268c0-0.418-0.072-0.793-0.221-1.166l4.334-4.301v-11.619h-2.447
		V383.306z M444.234,391.419c-0.889,0-1.628-0.736-1.628-1.629c0-0.916,0.741-1.627,1.628-1.627c0.896,0,1.629,0.711,1.629,1.627
		C445.865,390.685,445.13,391.419,444.234,391.419z"/>
	<path fill="#FFFFFF" d="M456.968,409.724v-11.215l7.916-7.016v-18.635h-2.452v17.531l-7.914,7.008v12.328
		c-1.206,0.496-2.049,1.656-2.049,3.023c0,1.777,1.476,3.262,3.256,3.262c1.815,0,3.267-1.484,3.267-3.262
		C458.994,411.38,458.155,410.22,456.968,409.724z M455.727,414.37c-0.888,0-1.633-0.736-1.633-1.623
		c0-0.895,0.745-1.633,1.633-1.633c0.894,0,1.633,0.738,1.633,1.633C457.359,413.636,456.62,414.37,455.727,414.37z"/>
	<path fill="#FFFFFF" d="M499.815,405.843c-0.484,0-0.944,0.094-1.34,0.293l-7.102-7.109V372.86h-2.441v27.176l7.858,7.85
		c-0.162,0.369-0.237,0.779-0.237,1.195c0,1.814,1.447,3.258,3.263,3.258c1.783,0,3.257-1.443,3.257-3.258
		C503.073,407.292,501.599,405.843,499.815,405.843z M499.815,410.704c-0.893,0-1.632-0.713-1.632-1.623
		c0-0.898,0.741-1.641,1.632-1.641c0.889,0,1.633,0.742,1.633,1.641C501.449,409.993,500.706,410.704,499.815,410.704z"/>
	<path fill="#FFFFFF" d="M546.266,305.583c0.414,0.157,0.842,0.269,1.317,0.269c1.804,0,3.252-1.475,3.252-3.256
		c0-1.81-1.448-3.267-3.252-3.267c-1.82,0-3.268,1.457-3.268,3.267c0,0.418,0.103,0.848,0.252,1.227l-7.07,7.063h-26.178v2.442
		h27.196L546.266,305.583z M547.583,300.962c0.884,0,1.624,0.715,1.624,1.632c0,0.891-0.74,1.629-1.624,1.629
		c-0.897,0-1.633-0.739-1.633-1.629C545.949,301.678,546.685,300.962,547.583,300.962z"/>
	<path fill="#FFFFFF" d="M534.615,295.43h13.881c0.488,1.209,1.668,2.047,3.037,2.047c1.783,0,3.256-1.454,3.256-3.256
		c0-1.815-1.474-3.256-3.256-3.256c-1.369,0-2.549,0.838-3.037,2.052h-14.9l0,0h-0.006l-4.627,4.606h-17.639v2.439h18.634
		L534.615,295.43z M551.533,292.591c0.889,0,1.634,0.735,1.634,1.628c0,0.893-0.743,1.63-1.634,1.63c-0.92,0-1.634-0.738-1.634-1.63
		C549.899,293.326,550.613,292.591,551.533,292.591z"/>
	<path fill="#FFFFFF" d="M551.142,360.825c-0.373,0-0.758,0.094-1.088,0.207l-10.382-10.377H512.49v2.445h26.169l9.589,9.563
		c-0.224,0.443-0.367,0.898-0.367,1.42c0,1.809,1.474,3.258,3.261,3.258c1.811,0,3.268-1.449,3.268-3.258
		C554.407,362.302,552.954,360.825,551.142,360.825z M551.142,365.712c-0.889,0-1.638-0.713-1.638-1.629
		c0-0.893,0.747-1.629,1.638-1.629c0.916,0,1.629,0.736,1.629,1.629C552.77,364.999,552.058,365.712,551.142,365.712z"/>
	<path fill="#FFFFFF" d="M526.319,341.88c1.813,0,3.261-1.443,3.261-3.253c0-1.811-1.448-3.262-3.261-3.262
		c-1.365,0-2.527,0.842-3.01,2.014H512.49v2.454h10.819C523.792,341.042,524.956,341.88,526.319,341.88z M526.319,336.988
		c0.892,0,1.632,0.744,1.632,1.639c0,0.892-0.74,1.624-1.632,1.624c-0.89,0-1.631-0.732-1.631-1.624
		C524.688,337.734,525.43,336.988,526.319,336.988z"/>
	<path fill="#FFFFFF" d="M552.621,333.361c-1.372,0-2.56,0.846-3.044,2.029h-13.413l-11.241-11.248H512.49v2.445h11.41
		l11.273,11.244h14.403c0.484,1.185,1.672,2.028,3.044,2.028c1.782,0,3.257-1.448,3.257-3.237
		C555.878,334.816,554.402,333.361,552.621,333.361z M552.621,338.229c-0.922,0-1.634-0.707-1.634-1.605
		c0-0.916,0.712-1.629,1.634-1.629c0.889,0,1.63,0.711,1.63,1.629C554.251,337.521,553.512,338.229,552.621,338.229z"/>
	<path fill="#FFFFFF" d="M394.227,295.585c-1.783,0-3.256,1.448-3.256,3.26c0,1.81,1.477,3.256,3.256,3.256
		c1.395,0,2.559-0.831,3.043-2.044h20.848v-2.438H397.27C396.785,296.43,395.621,295.585,394.227,295.585z M394.227,300.479
		c-0.89,0-1.629-0.742-1.629-1.632c0-0.888,0.741-1.629,1.629-1.629c0.923,0,1.633,0.743,1.633,1.629
		C395.859,299.737,395.15,300.479,394.227,300.479z"/>
	<path fill="#FFFFFF" d="M379.529,349.36c-0.377-0.156-0.807-0.27-1.263-0.27c-1.812,0-3.261,1.475-3.261,3.258
		c0,1.811,1.449,3.268,3.261,3.268c1.784,0,3.263-1.455,3.263-3.268c0-0.428-0.107-0.867-0.26-1.236l11.246-11.277h23.924v-2.454
		h-24.945L379.529,349.36z M378.267,353.983c-0.921,0-1.633-0.717-1.633-1.635c0-0.887,0.712-1.629,1.633-1.629
		c0.888,0,1.633,0.742,1.633,1.629C379.899,353.267,379.156,353.983,378.267,353.983z"/>
	<path fill="#FFFFFF" d="M396.203,347.188c0.168-0.408,0.297-0.871,0.297-1.355c0-1.787-1.475-3.266-3.261-3.266
		c-1.806,0-3.255,1.479-3.255,3.266c0,1.807,1.449,3.258,3.255,3.258c0.403,0,0.815-0.08,1.167-0.203l4.245,4.213h17.075v-2.445
		h-16.086L396.203,347.188z M393.24,347.464c-0.918,0-1.628-0.715-1.628-1.631c0-0.895,0.712-1.631,1.628-1.631
		c0.897,0,1.631,0.736,1.631,1.631C394.871,346.749,394.138,347.464,393.24,347.464z"/>
	<path fill="#FFFFFF" d="M401.949,313.326h14.354v-2.449H400.93l-4.629,4.63h-21.375c-0.488-1.184-1.647-2.023-3.045-2.023
		c-1.778,0-3.254,1.452-3.254,3.256c0,1.78,1.475,3.267,3.254,3.267c1.397,0,2.557-0.875,3.045-2.06h22.394L401.949,313.326z
		 M371.881,318.369c-0.891,0-1.627-0.736-1.627-1.629c0-0.921,0.736-1.632,1.627-1.632c0.924,0,1.634,0.711,1.634,1.632
		C373.515,317.635,372.803,318.369,371.881,318.369z"/>
	<path fill="#FFFFFF" d="M380.456,322.098c-1.81,0-3.259,1.468-3.259,3.265c0,1.809,1.447,3.258,3.259,3.258
		c1.372,0,2.527-0.838,3.018-2.033h34.646v-2.445h-34.646C382.983,322.927,381.828,322.098,380.456,322.098z M380.456,326.98
		c-0.891,0-1.629-0.715-1.629-1.62c0-0.9,0.738-1.639,1.629-1.639c0.896,0,1.63,0.738,1.63,1.639
		C382.086,326.266,381.352,326.98,380.456,326.98z"/>
</g>
<g>
	<path fill="#F28D3A" d="M434.543,280.666v-6.42c0-0.502,0.203-0.995,0.55-1.351c0.381-0.369,0.87-0.549,1.351-0.549h1.345
		c0.512,0,0.99,0.18,1.345,0.549c0.352,0.354,0.553,0.839,0.553,1.351v6.42H434.543z"/>
	<path fill="#F28D3A" d="M447.808,280.666v-6.42c0-0.502,0.205-0.995,0.558-1.351c0.35-0.369,0.826-0.549,1.342-0.549h1.346
		c0.514,0,0.967,0.18,1.345,0.549c0.349,0.354,0.552,0.848,0.552,1.351v6.42H447.808z"/>
	<path fill="#F28D3A" d="M461.078,280.666v-6.42c0-0.512,0.177-0.995,0.554-1.351c0.35-0.369,0.834-0.549,1.34-0.549h1.345
		c0.488,0,0.972,0.18,1.324,0.549c0.374,0.354,0.55,0.839,0.55,1.351v6.42H461.078z"/>
	<path fill="#F28D3A" d="M474.314,280.666v-6.42c0-0.512,0.208-0.995,0.553-1.351c0.378-0.369,0.837-0.549,1.346-0.549h1.345
		c0.506,0,1.001,0.18,1.349,0.549c0.349,0.354,0.555,0.848,0.555,1.351v6.42H474.314z"/>
	<path fill="#F28D3A" d="M487.581,280.666v-6.42c0-0.512,0.208-0.995,0.558-1.351c0.345-0.369,0.832-0.549,1.345-0.549h1.345
		c0.507,0,0.962,0.18,1.343,0.549c0.35,0.354,0.555,0.839,0.555,1.351v6.42H487.581z"/>
	<path fill="#F28D3A" d="M492.727,370.042v6.451c0,0.518-0.206,0.967-0.555,1.346c-0.381,0.346-0.835,0.557-1.344,0.557h-1.344
		c-0.513,0-1-0.203-1.345-0.557c-0.35-0.379-0.559-0.828-0.559-1.346v-6.451H492.727z"/>
	<path fill="#F28D3A" d="M479.463,370.042v6.451c0,0.518-0.206,0.967-0.555,1.346c-0.348,0.346-0.843,0.557-1.349,0.557h-1.345
		c-0.509,0-0.969-0.213-1.346-0.557c-0.345-0.379-0.553-0.828-0.553-1.346v-6.451H479.463z"/>
	<path fill="#F28D3A" d="M466.19,370.042v6.451c0,0.518-0.175,0.967-0.549,1.346c-0.353,0.346-0.837,0.557-1.324,0.557h-1.345
		c-0.507,0-0.991-0.213-1.34-0.557c-0.379-0.379-0.553-0.828-0.553-1.346v-6.451H466.19z"/>
	<path fill="#F28D3A" d="M452.946,370.042v6.451c0,0.518-0.202,0.967-0.551,1.346c-0.378,0.354-0.83,0.557-1.345,0.557h-1.346
		c-0.514,0-0.99-0.213-1.348-0.557c-0.345-0.379-0.552-0.832-0.552-1.346v-6.451H452.946z"/>
	<path fill="#F28D3A" d="M439.684,370.042v6.451c0,0.518-0.199,0.967-0.553,1.346c-0.354,0.354-0.834,0.557-1.346,0.557h-1.344
		c-0.482,0-0.97-0.203-1.342-0.557c-0.352-0.379-0.561-0.828-0.561-1.346v-6.451H439.684z"/>
	<path fill="#F28D3A" d="M508.321,296.292h6.45c0.512,0,0.962,0.173,1.346,0.552c0.349,0.352,0.557,0.833,0.557,1.339v1.32
		c0,0.515-0.208,1.002-0.557,1.347c-0.384,0.381-0.834,0.558-1.346,0.558h-6.45V296.292L508.321,296.292z"/>
	<path fill="#F28D3A" d="M508.321,309.527h6.45c0.512,0,0.962,0.205,1.346,0.558c0.349,0.372,0.557,0.833,0.557,1.344v1.347
		c0,0.512-0.208,0.996-0.557,1.348c-0.384,0.339-0.834,0.549-1.346,0.549h-6.45V309.527L508.321,309.527z"/>
	<path fill="#F28D3A" d="M508.321,322.798h6.45c0.512,0,0.972,0.209,1.346,0.551c0.349,0.352,0.557,0.838,0.557,1.347v1.351
		c0,0.5-0.208,0.959-0.563,1.342c-0.369,0.354-0.828,0.549-1.34,0.549h-6.45V322.798L508.321,322.798z"/>
	<path fill="#F28D3A" d="M508.321,336.039h6.45c0.512,0,0.962,0.207,1.34,0.557c0.354,0.373,0.563,0.865,0.563,1.35v1.343
		c0,0.504-0.208,0.988-0.563,1.338c-0.378,0.381-0.828,0.561-1.34,0.561h-6.45V336.039L508.321,336.039z"/>
	<path fill="#F28D3A" d="M508.321,349.31h6.45c0.512,0,0.962,0.201,1.34,0.557c0.354,0.346,0.563,0.828,0.563,1.338v1.348
		c0,0.51-0.208,0.994-0.557,1.338c-0.384,0.357-0.834,0.557-1.346,0.557h-6.45V349.31L508.321,349.31z"/>
	<path fill="#F28D3A" d="M418.944,354.446h-6.422c-0.514,0-0.994-0.197-1.343-0.557c-0.379-0.344-0.588-0.828-0.588-1.336v-1.35
		c0-0.508,0.209-0.992,0.588-1.338c0.349-0.355,0.827-0.557,1.343-0.557h6.422V354.446z"/>
	<path fill="#F28D3A" d="M418.944,341.187h-6.422c-0.514,0-0.994-0.18-1.343-0.564c-0.379-0.346-0.588-0.83-0.588-1.342v-1.335
		c0-0.484,0.209-0.979,0.588-1.35c0.349-0.35,0.827-0.559,1.343-0.559h6.422V341.187z"/>
	<path fill="#F28D3A" d="M418.944,327.936h-6.422c-0.514,0-0.994-0.195-1.343-0.549c-0.379-0.383-0.588-0.842-0.588-1.352v-1.339
		c0-0.509,0.209-0.995,0.588-1.347c0.349-0.343,0.827-0.551,1.343-0.551h6.422V327.936z"/>
	<path fill="#F28D3A" d="M418.944,314.674h-6.422c-0.514,0-0.994-0.209-1.343-0.548c-0.379-0.353-0.588-0.838-0.588-1.349v-1.347
		c0-0.509,0.209-0.97,0.588-1.343c0.349-0.353,0.827-0.558,1.343-0.558h6.422V314.674z"/>
	<path fill="#F28D3A" d="M418.944,301.408h-6.422c-0.514,0-0.994-0.177-1.343-0.558c-0.379-0.345-0.588-0.832-0.588-1.347v-1.32
		c0-0.506,0.209-0.987,0.588-1.339c0.349-0.38,0.827-0.552,1.343-0.552h6.422V301.408z"/>
</g>
<path fill="#293A4D" d="M507.698,292.675l-11.381-11.363c-0.34-0.368-1.042-0.646-1.538-0.646h-62.293
	c-0.5,0-1.196,0.28-1.535,0.646l-11.386,11.363c-0.337,0.363-0.62,1.036-0.62,1.533v62.324c0,0.475,0.283,1.17,0.62,1.506
	l11.386,11.387c0.339,0.346,1.035,0.617,1.535,0.617h62.293c0.496,0,1.198-0.271,1.538-0.617l11.381-11.387
	c0.345-0.334,0.623-1.029,0.623-1.506v-62.324C508.321,293.711,508.043,293.039,507.698,292.675z"/>
<polygon fill="#A7B83D" points="503.864,355.56 493.837,365.587 433.432,365.587 423.428,355.56 423.428,295.148 433.432,285.15 
	493.837,285.15 503.864,295.148 "/>
<polygon fill="#CFDC74" points="490.949,290.316 436.321,290.316 428.563,298.04 428.563,352.696 436.321,360.423 490.949,360.423 
	498.699,352.696 498.699,298.04 "/>
<path fill="#FFFFFF" d="M451.043,318.595v-0.833c0-0.283,0.058-0.464,0.182-0.617c0.098-0.106,0.227-0.184,0.424-0.184
	c0.182,0,0.317,0.081,0.441,0.184c0.099,0.151,0.145,0.333,0.145,0.617v3.345c0,0.288-0.046,0.484-0.145,0.621
	c-0.124,0.108-0.258,0.193-0.441,0.193c-0.176,0-0.299-0.085-0.395-0.181c-0.127-0.103-0.186-0.297-0.209-0.554
	c-0.04-0.8-0.485-1.531-1.299-2.133c-1.103-0.839-2.372-1.277-3.773-1.277c-0.913,0-1.783,0.21-2.594,0.629
	c-0.631,0.303-1.097,0.649-1.477,1.084c-0.613,0.731-1.123,1.545-1.485,2.475c-0.263,0.656-0.409,1.407-0.409,2.245v2.11
	c0,1.762,0.664,3.338,1.962,4.648c1.272,1.332,2.79,1.967,4.494,1.967c1.028,0,1.942-0.227,2.761-0.648
	c0.813-0.459,1.602-1.15,2.367-2.049c0.171-0.203,0.336-0.293,0.545-0.293c0.176,0,0.301,0.037,0.395,0.166
	c0.122,0.096,0.166,0.24,0.166,0.387c0,0.227-0.205,0.557-0.601,1.008c-0.784,0.871-1.658,1.518-2.642,1.973
	c-0.961,0.457-1.961,0.664-2.966,0.664c-0.866,0-1.733-0.162-2.648-0.486c-0.67-0.262-1.232-0.563-1.694-0.922
	c-0.428-0.332-0.978-0.902-1.647-1.717c-0.638-0.822-1.094-1.578-1.337-2.25c-0.242-0.709-0.348-1.469-0.348-2.299v-2.441
	c0-1.177,0.311-2.361,0.963-3.612c0.625-1.209,1.488-2.168,2.584-2.822c1.096-0.675,2.277-1,3.567-1
	C447.904,316.591,449.629,317.279,451.043,318.595z M460.698,326.826v5.631h4.106c0.283,0,0.492,0.078,0.632,0.182
	c0.117,0.102,0.164,0.254,0.164,0.443c0,0.15-0.045,0.311-0.164,0.414c-0.14,0.133-0.349,0.182-0.632,0.182h-6.908
	c-0.289,0-0.501-0.049-0.609-0.182c-0.141-0.105-0.193-0.264-0.193-0.414c0-0.188,0.055-0.342,0.193-0.443
	c0.108-0.104,0.32-0.182,0.609-0.182h1.608V318.17h-1.608c-0.289,0-0.501-0.045-0.609-0.167c-0.141-0.103-0.193-0.264-0.193-0.424
	c0-0.188,0.055-0.35,0.193-0.446c0.108-0.103,0.32-0.173,0.609-0.173h6.979c1.641,0,2.981,0.493,4.004,1.465
	c1.046,0.958,1.568,2.123,1.568,3.405c0,0.778-0.154,1.471-0.507,2.096c-0.33,0.605-0.73,1.096-1.211,1.443
	c-0.726,0.539-1.469,0.935-2.204,1.187c-0.555,0.164-1.252,0.27-2.074,0.27H460.698L460.698,326.826z M460.698,325.618h3.818
	c0.906,0,1.733-0.181,2.511-0.588c0.758-0.389,1.325-0.875,1.698-1.443c0.349-0.572,0.531-1.175,0.531-1.757
	c0-0.935-0.414-1.768-1.225-2.534c-0.81-0.753-1.813-1.126-3.063-1.126h-4.273v7.447L460.698,325.618L460.698,325.618z
	 M486.658,318.172v10.029c0,1.674-0.586,3.084-1.708,4.223c-1.115,1.137-2.47,1.717-4.065,1.717c-1.064,0-2.001-0.229-2.828-0.699
	c-0.833-0.465-1.546-1.156-2.122-2.129c-0.571-0.922-0.866-1.982-0.866-3.113v-10.027h-1.015c-0.289,0-0.465-0.046-0.608-0.168
	c-0.107-0.103-0.191-0.265-0.191-0.424c0-0.188,0.085-0.349,0.206-0.463c0.129-0.09,0.307-0.156,0.596-0.156h4.442
	c0.284,0,0.465,0.069,0.602,0.173c0.117,0.097,0.169,0.258,0.169,0.446c0,0.159-0.051,0.32-0.169,0.424
	c-0.135,0.12-0.317,0.167-0.602,0.167h-2.231v10.028c0,1.299,0.457,2.443,1.354,3.359c0.921,0.912,1.991,1.377,3.217,1.377
	c0.792,0,1.525-0.189,2.159-0.537c0.669-0.355,1.235-0.904,1.707-1.672c0.497-0.752,0.743-1.6,0.743-2.525v-10.029h-2.211
	c-0.284,0-0.498-0.045-0.603-0.167c-0.137-0.103-0.194-0.265-0.194-0.424c0-0.188,0.059-0.35,0.194-0.446
	c0.106-0.103,0.317-0.173,0.603-0.173h4.42c0.284,0,0.491,0.07,0.628,0.173c0.114,0.098,0.173,0.258,0.173,0.446
	c0,0.159-0.057,0.321-0.173,0.424c-0.137,0.121-0.345,0.167-0.628,0.167H486.658L486.658,318.172L486.658,318.172z"/>
</svg>
