<?xml version="1.0" encoding="utf-8"?>
<!-- Generator: Adobe Illustrator 16.0.0, SVG Export Plug-In . SVG Version: 6.00 Build 0)  -->
<!DOCTYPE svg PUBLIC "-//W3C//DTD SVG 1.1//EN" "http://www.w3.org/Graphics/SVG/1.1/DTD/svg11.dtd">
<svg version="1.1" id="Livello_1" xmlns="http://www.w3.org/2000/svg" xmlns:xlink="http://www.w3.org/1999/xlink" x="0px" y="0px"
	 width="900px" height="650px" viewBox="0 0 900 650" enable-background="new 0 0 900 650" xml:space="preserve">
<rect x="1.453" fill="#CBBBA0" width="900" height="650"/>
<circle fill="#F28D3A" cx="462.433" cy="325.36" r="170.626"/>
<path fill="#EE7526" d="M631.246,350.129l-78.023-78.023c-0.99-0.988-2.267-1.472-3.557-1.472H406.852
	c-1.283,0-2.593,0.483-3.581,1.472c-0.992,0.991-1.472,2.273-1.472,3.583v11.633h-45.537c-1.896,0-3.475,1.578-3.475,3.501v85.808
	c0,0.719,0.216,1.387,0.587,1.949l117.194,117.199C552.704,491.918,619.628,429.998,631.246,350.129z"/>
<path fill="#364A5E" d="M554.721,366.932c0,1.291-0.493,2.59-1.478,3.576c-0.992,0.998-2.283,1.482-3.581,1.482H406.861
	c-1.293,0-2.591-0.484-3.587-1.482c-0.978-0.986-1.474-2.285-1.474-3.576v-91.26c0-1.298,0.496-2.589,1.474-3.581
	c0.996-0.978,2.294-1.475,3.587-1.475h142.801c1.298,0,2.589,0.499,3.581,1.475c0.984,0.992,1.478,2.281,1.478,3.581V366.932
	L554.721,366.932z"/>
<path fill="#293A4D" d="M479.977,274.587c0,0.955-0.769,1.727-1.713,1.727c-0.957,0-1.719-0.774-1.719-1.727
	c0-0.951,0.762-1.709,1.719-1.709C479.209,272.877,479.977,273.636,479.977,274.587z"/>
<path fill="#5E6E7E" d="M478.964,274.592c0,0.39-0.318,0.706-0.7,0.706c-0.39,0-0.702-0.316-0.702-0.706
	c0-0.384,0.314-0.691,0.702-0.691C478.648,273.9,478.964,274.208,478.964,274.592z"/>
<path fill="#CEE2F2" d="M572.065,374.953c-2.725,3.146-6.76,5.145-11.248,5.145H395.704c-4.484,0-8.519-2-11.242-5.145H572.065z"/>
<path fill="#F3F9FE" d="M572.061,374.967H384.462v-2.123c0-0.221,0.085-0.438,0.254-0.605c0.163-0.166,0.384-0.25,0.599-0.25
	h185.894c0.222,0,0.438,0.084,0.605,0.25c0.161,0.168,0.247,0.385,0.247,0.605V374.967z"/>
<path fill="#B8D1E6" d="M495.686,372.492c0,0.258-0.098,0.514-0.3,0.717c-0.193,0.188-0.446,0.285-0.706,0.285h-32.835
	c-0.261,0-0.517-0.098-0.705-0.285c-0.202-0.203-0.298-0.459-0.298-0.717v-0.502h34.844V372.492L495.686,372.492z"/>
<rect x="409.761" y="278.403" fill="#FFFFFF" width="136.993" height="85.618"/>
<rect x="415.459" y="283.198" fill="#F28D3A" width="37.896" height="11.364"/>
<g>
	<rect x="459.312" y="283.198" fill="#E1EFFA" width="82.649" height="11.364"/>
	<rect x="414.552" y="347.303" fill="#E1EFFA" width="127.405" height="3.744"/>
	<rect x="414.552" y="355.492" fill="#E1EFFA" width="127.405" height="3.74"/>
</g>
<g>
	<rect x="414.552" y="321.247" fill="#CFDC74" width="37.895" height="21.619"/>
	<rect x="459.312" y="321.247" fill="#CFDC74" width="37.896" height="21.619"/>
	<rect x="504.063" y="321.247" fill="#CFDC74" width="37.897" height="21.619"/>
</g>
<rect x="414.552" y="299.015" fill="#B8D1E6" width="127.405" height="17.789"/>
<path fill="#30455C" d="M501.097,371.99h-94.235c-1.299,0-2.595-0.494-3.585-1.482c-0.972-0.99-1.483-2.287-1.483-3.584v-80.843
	h7.968v77.962h83.385L501.097,371.99z"/>
<path fill="#E2EFF9" d="M493.146,364.043h-83.385v-77.962h3.497c0.802,0,1.553,0.206,2.201,0.547v7.934h8.19l4.453,4.454h-13.547
	v17.778h31.326l4.454,4.453h-35.78v21.619h37.896v-19.503l6.861,6.859v12.644h12.658l4.437,4.439h-61.852v3.752h65.606l4.437,4.439
	h-70.045v3.734h73.78L493.146,364.043z"/>
<path fill="#E38430" d="M423.649,294.561h-8.19v-7.934c0.322,0.188,0.631,0.392,0.904,0.631l0.426,0.444L423.649,294.561z"/>
<polygon fill="#A2C4E1" points="445.882,316.793 414.554,316.793 414.554,299.015 428.103,299.015 "/>
<polygon fill="#B8D26F" points="452.451,323.362 452.451,342.865 414.554,342.865 414.554,321.247 450.335,321.247 "/>
<g>
	<polygon fill="#C8E0F6" points="480.161,351.057 414.554,351.057 414.554,347.303 476.405,347.303 	"/>
	<polygon fill="#C8E0F6" points="488.335,359.229 414.554,359.229 414.554,355.492 484.597,355.492 	"/>
</g>
<polygon fill="#B8D26F" points="471.97,342.865 459.312,342.865 459.312,330.222 "/>
<path fill="#364A5E" d="M352.801,290.802c0-1.912,1.56-3.48,3.475-3.48h56.979c1.916,0,3.48,1.568,3.48,3.48v85.825
	c0,1.914-1.564,3.471-3.48,3.471h-56.979c-1.917,0-3.475-1.557-3.475-3.471V290.802z"/>
<g>
	<path fill="#293A4D" d="M381.241,376.225c-0.854,0-1.549-0.699-1.549-1.549v-0.381c0-0.855,0.699-1.549,1.549-1.549h7.056
		c0.846,0,1.543,0.693,1.543,1.549v0.381c0,0.85-0.699,1.549-1.543,1.549H381.241z"/>
	<path fill="#293A4D" d="M384.76,293.446c-0.881,0-1.579-0.707-1.579-1.598c0-0.869,0.698-1.588,1.579-1.588
		c0.879,0,1.598,0.719,1.598,1.588C386.355,292.74,385.637,293.446,384.76,293.446z"/>
</g>
<path fill="#5E6E7E" d="M384.766,292.52c-0.369,0-0.664-0.295-0.664-0.668c0-0.363,0.295-0.662,0.664-0.662
	c0.363,0,0.665,0.301,0.665,0.662C385.433,292.224,385.131,292.52,384.766,292.52z"/>
<rect x="356.425" y="296.386" fill="#FFFFFF" width="56.681" height="72.485"/>
<rect x="360.57" y="300.533" fill="#F28D3A" width="22.181" height="8.583"/>
<g>
	<rect x="386.77" y="300.533" fill="#E1EFFA" width="22.18" height="8.583"/>
	<rect x="360.57" y="355.697" fill="#E1EFFA" width="48.375" height="2.826"/>
	<rect x="360.57" y="361.891" fill="#E1EFFA" width="48.375" height="2.83"/>
</g>
<g>
	<rect x="360.57" y="331.585" fill="#CFDC74" width="22.181" height="20.753"/>
	<rect x="386.77" y="331.585" fill="#CFDC74" width="22.18" height="20.753"/>
</g>
<rect x="360.57" y="312.493" fill="#B8D1E6" width="48.375" height="15.75"/>
<g>
	<path d="M196.594,105.204c-0.293-0.292-0.44-0.626-0.44-1v-53.04c0-0.426,0.146-0.772,0.44-1.04c0.293-0.266,0.626-0.4,1-0.4h18.64
		c3.2,0,6.16,0.788,8.88,2.36c2.72,1.574,4.867,3.72,6.44,6.44c1.572,2.72,2.36,5.68,2.36,8.88c0,3.254-0.788,6.228-2.36,8.92
		c-1.574,2.693-3.708,4.827-6.4,6.4c-2.693,1.574-5.667,2.36-8.92,2.36h-8c-0.64,0-1.134,0.12-1.48,0.36
		c-0.348,0.24-0.52,0.654-0.52,1.24v17.52c0,0.374-0.134,0.708-0.4,1c-0.268,0.293-0.614,0.44-1.04,0.44h-7.2
		C197.22,105.644,196.887,105.497,196.594,105.204z M216.234,74.844c2.026,0,3.772-0.72,5.24-2.16c1.466-1.44,2.2-3.2,2.2-5.28
		c0-2.026-0.733-3.76-2.2-5.2c-1.468-1.44-3.214-2.16-5.24-2.16h-8.08c-1.28,0-1.92,0.534-1.92,1.6v13.2H216.234z"/>
	<path d="M258.753,102.523c-4.347-2.56-7.787-6.04-10.32-10.44c-2.534-4.4-3.8-9.212-3.8-14.44c0-5.172,1.266-9.96,3.8-14.36
		c2.533-4.4,5.973-7.893,10.32-10.48c4.346-2.586,9.08-3.88,14.2-3.88c4,0,7.813,0.8,11.44,2.4c3.626,1.6,6.772,3.894,9.44,6.88
		c0.32,0.32,0.48,0.667,0.48,1.04c0,0.32-0.188,0.667-0.56,1.04c-1.12,0.907-2.24,1.854-3.36,2.84
		c-1.12,0.987-1.894,1.667-2.32,2.04c-0.32,0.32-0.694,0.48-1.12,0.48c-0.374,0-0.72-0.16-1.04-0.48
		c-1.708-1.866-3.68-3.292-5.92-4.28c-2.24-0.986-4.587-1.48-7.04-1.48c-3.2,0-6.174,0.828-8.92,2.48
		c-2.748,1.653-4.92,3.867-6.52,6.64c-1.6,2.774-2.4,5.814-2.4,9.12c0,3.308,0.8,6.348,2.4,9.12c1.6,2.773,3.772,4.987,6.52,6.64
		c2.746,1.654,5.72,2.48,8.92,2.48c2.292,0,4.506-0.453,6.64-1.36c2.132-0.906,4.052-2.212,5.76-3.92
		c0.533-0.426,1.12-0.64,1.76-0.64c0.532,0,0.96,0.16,1.28,0.48c0.533,0.428,1.28,1.054,2.24,1.88c0.96,0.827,1.786,1.56,2.48,2.2
		c0.586,0.48,0.88,1.067,0.88,1.76c0,0.427-0.16,0.8-0.48,1.12c-2.667,2.88-5.774,5.094-9.32,6.64
		c-3.547,1.547-7.293,2.32-11.24,2.32C267.833,106.364,263.1,105.083,258.753,102.523z"/>
	<path d="M341.232,104.963c-0.293-0.292-0.44-0.626-0.44-1v-52.72c0-0.426,0.146-0.772,0.44-1.04c0.292-0.266,0.626-0.4,1-0.4h35.84
		c0.426,0,0.772,0.134,1.04,0.4c0.266,0.268,0.4,0.614,0.4,1.04v6.72c0,0.374-0.134,0.708-0.4,1c-0.268,0.294-0.614,0.44-1.04,0.44
		h-25.84c-0.374,0-0.708,0.134-1,0.4c-0.293,0.268-0.44,0.614-0.44,1.04v11.76v0.24c0,0.48,0.106,0.813,0.32,1
		c0.212,0.188,0.72,0.28,1.52,0.28h20c0.372,0,0.692,0.12,0.96,0.36c0.266,0.24,0.4,0.548,0.4,0.92v6.8c0,0.374-0.134,0.68-0.4,0.92
		c-0.268,0.24-0.588,0.36-0.96,0.36h-20.08c-0.694,0-1.16,0.2-1.4,0.6c-0.24,0.4-0.36,0.814-0.36,1.24v8.48
		c0,0.534,0.146,0.987,0.44,1.36c0.292,0.374,0.893,0.56,1.8,0.56h25.6c0.372,0,0.706,0.147,1,0.44
		c0.292,0.294,0.44,0.654,0.44,1.08v6.72c0,0.374-0.134,0.708-0.4,1c-0.267,0.294-0.614,0.44-1.04,0.44h-36.4
		C341.858,105.403,341.524,105.257,341.232,104.963z"/>
	<path d="M443.95,105.324c-0.188-0.213-0.28-0.453-0.28-0.72v-43.36c0-0.48-0.2-0.92-0.6-1.32c-0.4-0.4-0.868-0.6-1.4-0.6h-13.44
		c-0.213,0-0.427-0.106-0.64-0.32c-0.214-0.212-0.32-0.426-0.32-0.64v-7.76c0-0.266,0.093-0.48,0.28-0.64
		c0.186-0.16,0.412-0.24,0.68-0.24h42.241c0.32,0,0.586,0.107,0.801,0.32c0.211,0.214,0.32,0.454,0.32,0.72v7.52
		c0,0.268-0.109,0.507-0.32,0.72c-0.215,0.214-0.48,0.32-0.801,0.32h-13.279c-0.535,0-0.988,0.188-1.361,0.56
		c-0.373,0.374-0.559,0.827-0.559,1.36v43.36c0,0.268-0.094,0.507-0.281,0.72c-0.188,0.213-0.439,0.32-0.76,0.32h-9.521
		C444.39,105.644,444.136,105.537,443.95,105.324z"/>
	<path d="M474.311,105.403c-0.16-0.212-0.213-0.452-0.16-0.72l14.16-53.84c0.107-0.32,0.307-0.6,0.602-0.84
		c0.291-0.24,0.625-0.36,1-0.36h16.639c0.32,0,0.641,0.107,0.961,0.32c0.318,0.214,0.531,0.48,0.639,0.8l14.16,53.84v0.24
		c0,0.587-0.268,0.88-0.799,0.88h-7.84c-0.32,0-0.654-0.12-1-0.36c-0.348-0.24-0.549-0.52-0.602-0.84l-3.92-14.88
		c-0.107-0.48-0.373-0.88-0.799-1.2c-0.428-0.32-0.881-0.48-1.361-0.48h-15.52c-0.48,0-0.934,0.16-1.359,0.48
		c-0.428,0.32-0.693,0.72-0.801,1.2l-3.92,14.8c-0.053,0.374-0.254,0.68-0.6,0.92c-0.348,0.24-0.68,0.36-1,0.36h-7.84
		C474.684,105.724,474.471,105.617,474.311,105.403z M503.512,79.403c0.531,0,0.945-0.186,1.238-0.56
		c0.293-0.373,0.387-0.8,0.281-1.28l-4.48-16.48c-0.053-0.426-0.293-0.8-0.719-1.12c-0.428-0.32-0.881-0.48-1.361-0.48h-0.48
		c-0.479,0-0.934,0.16-1.359,0.48c-0.428,0.32-0.668,0.694-0.719,1.12l-4.4,16.48l-0.08,0.4c0,0.428,0.133,0.774,0.4,1.04
		c0.266,0.268,0.639,0.4,1.119,0.4H503.512z"/>
	<path d="M533.512,104.043v-52.64c0-0.692,0.105-1.132,0.318-1.32c0.213-0.186,0.693-0.28,1.441-0.28h15.039
		c2.934,0,5.641,0.72,8.121,2.16c2.479,1.44,4.451,3.4,5.92,5.88c1.465,2.48,2.199,5.213,2.199,8.2c0,3.254-0.879,6.16-2.641,8.72
		c2.721,1.547,4.854,3.6,6.4,6.16c1.547,2.56,2.32,5.334,2.32,8.32c0,2.934-0.721,5.64-2.16,8.12s-3.414,4.454-5.92,5.92
		c-2.508,1.467-5.254,2.2-8.24,2.2l-20.719,0.08C534.203,105.563,533.512,105.057,533.512,104.043z M550.471,72.923
		c1.867,0,3.467-0.68,4.801-2.04c1.332-1.36,2-2.973,2-4.84c0-1.92-0.693-3.56-2.08-4.92c-1.389-1.36-3.014-2.04-4.881-2.04h-5.84
		c-1.119,0-1.68,0.72-1.68,2.16v9.68c0,1.334,0.666,2,2,2H550.471z M555.432,96.204c1.973,0,3.625-0.667,4.959-2
		c1.332-1.333,2-2.986,2-4.96c0-1.973-0.668-3.626-2-4.96c-1.334-1.333-2.986-2-4.959-2h-10.641c-1.334,0-2,0.667-2,2v10
		c0,1.333,0.666,2,2,2L555.432,96.204z"/>
	<path d="M585.391,105.164c-0.348-0.32-0.52-0.72-0.52-1.2v-52.72c0-0.426,0.172-0.813,0.52-1.16c0.348-0.346,0.732-0.52,1.16-0.52
		h8.24c0.48,0,0.881,0.174,1.199,0.52c0.32,0.348,0.48,0.734,0.48,1.16v42.16c0,0.428,0.16,0.814,0.48,1.16
		c0.32,0.348,0.693,0.52,1.119,0.52h19.361c0.48,0,0.879,0.16,1.199,0.48c0.32,0.32,0.48,0.694,0.48,1.12v7.28
		c0,0.48-0.16,0.88-0.48,1.2s-0.719,0.48-1.199,0.48h-30.881C586.123,105.644,585.738,105.483,585.391,105.164z"/>
	<path d="M632.75,104.963c-0.295-0.292-0.439-0.626-0.439-1v-52.72c0-0.426,0.145-0.772,0.439-1.04c0.293-0.266,0.625-0.4,1-0.4
		h35.84c0.426,0,0.771,0.134,1.039,0.4c0.268,0.268,0.4,0.614,0.4,1.04v6.72c0,0.374-0.133,0.708-0.4,1
		c-0.268,0.294-0.613,0.44-1.039,0.44h-25.84c-0.375,0-0.707,0.134-1,0.4c-0.295,0.268-0.439,0.614-0.439,1.04v11.76v0.24
		c0,0.48,0.105,0.813,0.318,1c0.213,0.188,0.721,0.28,1.521,0.28h20c0.371,0,0.691,0.12,0.959,0.36c0.266,0.24,0.4,0.548,0.4,0.92
		v6.8c0,0.374-0.135,0.68-0.4,0.92c-0.268,0.24-0.588,0.36-0.959,0.36h-20.08c-0.695,0-1.16,0.2-1.4,0.6s-0.359,0.814-0.359,1.24
		v8.48c0,0.534,0.145,0.987,0.439,1.36c0.293,0.374,0.893,0.56,1.799,0.56h25.602c0.371,0,0.705,0.147,1,0.44
		c0.291,0.294,0.439,0.654,0.439,1.08v6.72c0,0.374-0.135,0.708-0.4,1c-0.268,0.294-0.613,0.44-1.039,0.44h-36.4
		C633.375,105.403,633.043,105.257,632.75,104.963z"/>
	<path d="M701.068,105.324c-0.188-0.213-0.279-0.453-0.279-0.72v-43.36c0-0.48-0.201-0.92-0.6-1.32c-0.4-0.4-0.869-0.6-1.4-0.6
		H685.35c-0.215,0-0.428-0.106-0.641-0.32c-0.215-0.212-0.32-0.426-0.32-0.64v-7.76c0-0.266,0.092-0.48,0.279-0.64
		c0.188-0.16,0.414-0.24,0.682-0.24h42.238c0.32,0,0.588,0.107,0.801,0.32c0.213,0.214,0.32,0.454,0.32,0.72v7.52
		c0,0.268-0.107,0.507-0.32,0.72c-0.213,0.214-0.48,0.32-0.801,0.32h-13.279c-0.533,0-0.988,0.188-1.359,0.56
		c-0.375,0.374-0.561,0.827-0.561,1.36v43.36c0,0.268-0.094,0.507-0.279,0.72c-0.188,0.213-0.441,0.32-0.76,0.32h-9.521
		C701.508,105.644,701.256,105.537,701.068,105.324z"/>
</g>
</svg>
