<?xml version="1.0" encoding="utf-8"?>
<!-- Generator: Adobe Illustrator 16.0.0, SVG Export Plug-In . SVG Version: 6.00 Build 0)  -->
<!DOCTYPE svg PUBLIC "-//W3C//DTD SVG 1.1//EN" "http://www.w3.org/Graphics/SVG/1.1/DTD/svg11.dtd">
<svg version="1.1" id="Livello_1" xmlns="http://www.w3.org/2000/svg" xmlns:xlink="http://www.w3.org/1999/xlink" x="0px" y="0px"
	 width="900px" height="650px" viewBox="0 0 900 650" enable-background="new 0 0 900 650" xml:space="preserve">
<rect x="1.152" fill="#2FAC66" width="900" height="650"/>
<path fill="#F28D3A" d="M631.15,324.991c0,93.282-75.617,168.899-168.898,168.899c-93.279,0-168.896-75.617-168.896-168.899
	c0-93.283,75.617-168.897,168.896-168.897C555.533,156.094,631.15,231.708,631.15,324.991z"/>
<path fill="#EE7526" d="M629.371,349.391l-76.059-76.062l-3.791-3.789c-6.014-5.462-13.422-9.739-21.717-12.405L503.1,232.433
	c-2.438-2.437-5.814-3.957-9.504-3.957h-43.432h-34.673c-7.41,0-13.465,6.053-13.465,13.462v166.1c0,3.546,1.374,6.757,3.642,9.173
	l0.653,0.647l74.948,74.939C557.543,484.243,618.436,424.924,629.371,349.391z"/>
<path fill="#364A5E" d="M493.602,228.48h-78.125c-7.391,0-13.455,6.054-13.455,13.462v166.102c0,7.404,6.063,13.46,13.455,13.46
	H493.6c7.4,0,13.451-6.056,13.451-13.46V241.943C507.051,234.534,501,228.48,493.602,228.48z"/>
<rect x="409.641" y="257.653" fill="#CEE2F2" width="89.785" height="134.662"/>
<polygon fill="#F3F9FE" points="409.641,392.328 409.641,257.656 499.434,257.656 "/>
<path fill="#293A4D" d="M457.922,243.064c0,1.871-1.506,3.385-3.385,3.385c-1.865,0-3.385-1.514-3.385-3.385
	c0-1.869,1.52-3.387,3.385-3.387C456.416,239.678,457.922,241.195,457.922,243.064z"/>
<g>
	<path fill="#5E6E7E" d="M455.895,243.06c0,0.75-0.609,1.353-1.357,1.353c-0.744,0-1.354-0.603-1.354-1.353
		c0-0.744,0.609-1.357,1.354-1.357C455.285,241.704,455.895,242.316,455.895,243.06z"/>
	<path fill="#5E6E7E" d="M446.211,411.163c-2.038,0-3.691-1.653-3.691-3.696v-1.099c0-2.044,1.653-3.698,3.691-3.698h16.648
		c2.035,0,3.693,1.654,3.693,3.698v1.099c0,2.043-1.654,3.696-3.693,3.696H446.211z"/>
</g>
<path fill="#293A4D" d="M465.5,407.466c0,1.46-1.186,2.645-2.639,2.645h-16.648c-1.453,0-2.641-1.185-2.641-2.645v-1.098
	c0-1.449,1.188-2.646,2.641-2.646h16.648c1.453,0,2.639,1.197,2.639,2.646V407.466z"/>
<path fill="#C1D356" d="M565.668,304.417c0,27.818-25.934,50.376-57.904,50.376c-31.984,0-57.913-22.559-57.913-50.376
	c0-27.823,25.929-50.381,57.913-50.381C539.734,254.037,565.668,276.597,565.668,304.417z"/>
<path fill="#F3F9FE" d="M505.342,330.418c-7.787-0.605-13.611-3.7-17.613-7.859l4.986-6.883c2.799,3.105,7.184,5.977,12.627,6.813
	v-14.675c-7.787-1.955-15.953-4.763-15.953-14.589c0-7.709,6.201-13.831,15.953-14.66v-6.96h6.039v7.031
	c6.129,0.675,11.268,3.1,15.203,6.878l-4.988,6.581c-2.877-2.872-6.504-4.618-10.215-5.373v13.082
	c7.863,2.036,16.412,4.998,16.412,15.114c0,7.714-5.064,14.518-16.412,15.501v6.801h-6.039V330.418L505.342,330.418z
	 M505.342,298.22v-11.875c-4.236,0.529-6.883,2.881-6.883,6.202C498.459,295.5,501.338,297.004,505.342,298.22z M511.381,309.4
	v13.161c5.227-0.762,7.338-3.856,7.338-6.808C518.719,312.355,515.549,310.69,511.381,309.4z"/>
<polygon fill="#C1D356" points="448.436,361.222 475.918,346.287 463.365,333.735 "/>
<path fill="#DAE5A1" d="M461.307,300.125c-0.266,0-0.541-0.034-0.813-0.1c-1.887-0.446-3.053-2.338-2.604-4.222
	c3.07-12.936,13.225-24.209,27.17-30.155c1.785-0.765,3.846,0.065,4.607,1.846c0.758,1.792-0.072,3.845-1.854,4.609
	c-11.906,5.075-20.541,14.541-23.092,25.314C464.336,299.037,462.898,300.125,461.307,300.125z"/>
<g>
	<path d="M195.736,102.002c-4.294-1.332-7.32-2.8-9.08-4.4c-0.32-0.32-0.48-0.72-0.48-1.2c0-0.533,0.212-1.2,0.64-2
		c0.426-0.8,1.146-1.92,2.16-3.36c0.372-0.532,0.826-0.8,1.36-0.8c0.16,0,0.4,0.054,0.72,0.16c3.787,1.92,6.92,3.134,9.4,3.64
		c2.48,0.508,5.106,0.76,7.88,0.76c2.72,0,4.866-0.466,6.44-1.4c1.572-0.933,2.36-2.173,2.36-3.72c0-1.28-0.56-2.64-1.68-4.08
		c-0.694-0.906-1.8-1.666-3.32-2.28c-1.52-0.613-3.427-1.24-5.72-1.88c-0.268-0.053-0.96-0.24-2.08-0.56
		c-4.32-1.28-7.68-2.813-10.08-4.6c-2.4-1.786-4-4.04-4.8-6.76c-0.588-1.866-0.88-3.572-0.88-5.12c0-2.72,0.72-5.213,2.16-7.48
		c1.44-2.267,3.52-4.146,6.24-5.64c2.72-1.493,5.92-2.426,9.6-2.8c0.48-0.053,1.227-0.08,2.24-0.08c4.052,0,8.026,0.773,11.92,2.32
		c4.16,2.08,6,3.84,5.52,5.28c-0.32,0.8-0.947,1.8-1.88,3c-0.934,1.2-1.534,1.988-1.8,2.36c-0.16,0.214-0.4,0.32-0.72,0.32
		c-0.534,0-1.44-0.32-2.72-0.96c-1.708-0.8-3.12-1.306-4.24-1.52c-2.454-0.532-4.454-0.8-6-0.8c-1.708,0-3.44,0.293-5.2,0.88
		c-1.387,0.694-2.454,1.507-3.2,2.44c-0.748,0.934-1.12,1.908-1.12,2.92c0,1.494,0.746,2.8,2.24,3.92
		c1.653,1.174,3.426,2.16,5.32,2.96c1.892,0.8,4.012,1.628,6.36,2.48c2.56,0.96,4.626,1.828,6.2,2.6
		c1.572,0.774,2.866,1.8,3.88,3.08c1.066,1.014,1.96,2.454,2.68,4.32c0.72,1.868,1.08,3.654,1.08,5.36c0,2.987-0.8,5.574-2.4,7.76
		c-1.6,2.188-3.814,3.88-6.64,5.08c-2.827,1.2-6.08,1.8-9.76,1.8C204.229,104.002,200.029,103.336,195.736,102.002z"/>
	<path d="M239.936,103.803c-0.267-0.292-0.4-0.626-0.4-1v-53.04c0-0.373,0.133-0.706,0.4-1c0.267-0.292,0.586-0.44,0.96-0.44h7.84
		c0.532,0,0.933,0.268,1.2,0.8l12.16,20.16c0.053,0.107,0.2,0.268,0.44,0.48c0.24,0.214,0.546,0.32,0.92,0.32h0.16
		c0.373,0,0.652-0.12,0.84-0.36c0.187-0.24,0.307-0.413,0.36-0.52l12.08-20c0.373-0.586,0.8-0.88,1.28-0.88h7.92
		c0.373,0,0.692,0.147,0.96,0.44c0.266,0.294,0.4,0.627,0.4,1v53.04c0,0.374-0.134,0.708-0.4,1c-0.268,0.293-0.587,0.44-0.96,0.44
		h-7.84c-0.428,0-0.774-0.132-1.04-0.4c-0.268-0.266-0.4-0.613-0.4-1.04v-31.76c0-0.532-0.108-0.8-0.32-0.8
		c-0.214,0-0.454,0.214-0.72,0.64l-8.4,11.92c-0.48,0.694-0.894,1.147-1.24,1.36c-0.348,0.214-0.948,0.32-1.8,0.32h-1.36
		c-1.014,0-1.708-0.08-2.08-0.24c-0.374-0.16-0.747-0.506-1.12-1.04l-8.64-12.24c-0.32-0.48-0.56-0.72-0.72-0.72
		c-0.213,0-0.32,0.24-0.32,0.72v31.84c0,0.374-0.134,0.708-0.4,1c-0.268,0.293-0.614,0.44-1.04,0.44h-7.76
		C240.522,104.243,240.202,104.096,239.936,103.803z"/>
	<path d="M298.496,104.002c-0.16-0.212-0.214-0.452-0.16-0.72l14.16-53.84c0.106-0.32,0.306-0.6,0.6-0.84
		c0.292-0.24,0.626-0.36,1-0.36h16.64c0.32,0,0.64,0.107,0.96,0.32c0.32,0.214,0.533,0.48,0.64,0.8l14.16,53.84v0.24
		c0,0.587-0.268,0.88-0.8,0.88h-7.84c-0.32,0-0.654-0.12-1-0.36c-0.348-0.24-0.547-0.52-0.6-0.84l-3.92-14.88
		c-0.107-0.48-0.374-0.88-0.8-1.2c-0.428-0.32-0.88-0.48-1.36-0.48h-15.52c-0.48,0-0.934,0.16-1.36,0.48
		c-0.427,0.32-0.694,0.72-0.8,1.2l-3.92,14.8c-0.054,0.374-0.254,0.68-0.6,0.92c-0.348,0.24-0.68,0.36-1,0.36h-7.84
		C298.868,104.323,298.655,104.216,298.496,104.002z M327.695,78.002c0.533,0,0.946-0.186,1.24-0.56
		c0.292-0.373,0.386-0.8,0.28-1.28l-4.48-16.48c-0.054-0.426-0.293-0.8-0.72-1.12c-0.428-0.32-0.88-0.48-1.36-0.48h-0.48
		c-0.48,0-0.934,0.16-1.36,0.48c-0.427,0.32-0.667,0.694-0.72,1.12l-4.4,16.48l-0.08,0.4c0,0.428,0.132,0.774,0.4,1.04
		c0.266,0.268,0.64,0.4,1.12,0.4H327.695z"/>
	<path d="M358.135,103.883c-0.294-0.292-0.44-0.626-0.44-1v-53.2c0-0.373,0.146-0.706,0.44-1c0.292-0.292,0.652-0.44,1.08-0.44h16.8
		c3.306,0,6.36,0.788,9.16,2.36c2.8,1.574,5.012,3.72,6.64,6.44c1.626,2.72,2.44,5.708,2.44,8.96c0,2.774-0.64,5.36-1.92,7.76
		c-1.28,2.4-3.014,4.48-5.2,6.24c-0.32,0.268-0.48,0.614-0.48,1.04c0,0.16,0.026,0.294,0.08,0.4c0.053,0.107,0.08,0.188,0.08,0.24
		l9.28,20.72c0.16,0.374,0.24,0.72,0.24,1.04c0,0.587-0.347,0.88-1.04,0.88h-7.04c-0.587,0-1.027-0.054-1.32-0.16
		c-0.294-0.106-0.547-0.373-0.76-0.8l-8.4-18.72c-0.107-0.32-0.307-0.532-0.6-0.64c-0.294-0.106-0.814-0.186-1.56-0.24h-6.4
		c-0.8,0-1.347,0.107-1.64,0.32c-0.294,0.214-0.44,0.614-0.44,1.2v17.6c0,0.374-0.147,0.708-0.44,1
		c-0.294,0.293-0.654,0.44-1.08,0.44h-6.4C358.788,104.323,358.428,104.176,358.135,103.883z M376.015,73.443
		c2.08,0,3.866-0.733,5.36-2.2c1.493-1.466,2.24-3.212,2.24-5.24c0-2.08-0.748-3.84-2.24-5.28c-1.494-1.44-3.28-2.16-5.36-2.16
		h-7.44c-0.96,0-1.44,0.534-1.44,1.6v12c0,0.374,0.106,0.68,0.32,0.92c0.212,0.24,0.506,0.36,0.88,0.36H376.015z"/>
	<path d="M420.935,103.923c-0.188-0.213-0.279-0.453-0.279-0.72v-43.36c0-0.48-0.2-0.92-0.6-1.32c-0.4-0.4-0.868-0.6-1.4-0.6h-13.44
		c-0.214,0-0.427-0.106-0.64-0.32c-0.214-0.212-0.32-0.426-0.32-0.64v-7.76c0-0.266,0.093-0.48,0.28-0.64
		c0.187-0.16,0.412-0.24,0.68-0.24h42.241c0.318,0,0.586,0.107,0.799,0.32c0.213,0.214,0.32,0.454,0.32,0.72v7.52
		c0,0.268-0.107,0.507-0.32,0.72c-0.213,0.214-0.48,0.32-0.799,0.32h-13.281c-0.533,0-0.987,0.188-1.359,0.56
		c-0.374,0.374-0.561,0.827-0.561,1.36v43.36c0,0.268-0.094,0.507-0.279,0.72c-0.188,0.213-0.44,0.32-0.761,0.32h-9.521
		C421.375,104.243,421.121,104.136,420.935,103.923z"/>
	<path d="M461.733,103.803c-0.293-0.292-0.439-0.626-0.439-1v-53.04c0-0.426,0.146-0.772,0.439-1.04c0.293-0.266,0.627-0.4,1-0.4
		h18.641c3.201,0,6.16,0.788,8.881,2.36c2.719,1.574,4.865,3.72,6.439,6.44c1.572,2.72,2.359,5.68,2.359,8.88
		c0,3.254-0.787,6.228-2.359,8.92c-1.574,2.693-3.707,4.827-6.4,6.4c-2.693,1.574-5.668,2.36-8.92,2.36h-8
		c-0.641,0-1.133,0.12-1.48,0.36c-0.348,0.24-0.52,0.654-0.52,1.24v17.52c0,0.374-0.133,0.708-0.4,1
		c-0.268,0.293-0.613,0.44-1.039,0.44h-7.201C462.36,104.243,462.026,104.096,461.733,103.803z M481.374,73.443
		c2.027,0,3.773-0.72,5.24-2.16s2.199-3.2,2.199-5.28c0-2.026-0.732-3.76-2.199-5.2s-3.213-2.16-5.24-2.16h-8.08
		c-1.279,0-1.92,0.534-1.92,1.6v13.2H481.374z"/>
	<path d="M510.894,103.923c-0.213-0.213-0.32-0.48-0.32-0.8v-53.84c0-0.32,0.107-0.586,0.32-0.8c0.213-0.213,0.48-0.32,0.801-0.32
		h8.4c0.318,0,0.586,0.12,0.799,0.36c0.213,0.24,0.32,0.494,0.32,0.76v20.88c0,0.48,0.186,0.908,0.561,1.28
		c0.371,0.374,0.799,0.56,1.279,0.56h15.201c0.479,0,0.891-0.172,1.238-0.52c0.348-0.347,0.547-0.787,0.602-1.32v-20.88
		c0-0.266,0.105-0.52,0.318-0.76c0.213-0.24,0.48-0.36,0.801-0.36h8.4c0.32,0,0.586,0.107,0.799,0.32
		c0.213,0.213,0.32,0.48,0.32,0.8v53.84c0,0.32-0.107,0.587-0.32,0.8c-0.213,0.213-0.479,0.32-0.799,0.32h-8.4
		c-0.32,0-0.588-0.12-0.801-0.36c-0.213-0.24-0.318-0.493-0.318-0.76v-18.56c-0.055-0.532-0.254-0.972-0.602-1.32
		c-0.348-0.346-0.76-0.52-1.238-0.52h-15.201c-0.48,0-0.893,0.16-1.24,0.48s-0.547,0.748-0.6,1.28v18.64
		c0,0.268-0.107,0.52-0.32,0.76c-0.213,0.24-0.48,0.36-0.799,0.36h-8.4C511.374,104.243,511.106,104.136,510.894,103.923z"/>
	<path d="M568.694,95.483c-2.641-2.96-4.574-6.253-5.801-9.88l-0.16-0.4c-0.959-2.88-1.439-5.866-1.439-8.96
		c0-3.306,0.561-6.56,1.68-9.76c1.119-3.2,2.801-6.106,5.039-8.72c2.934-3.146,5.906-5.56,8.922-7.24
		c3.012-1.68,6.813-2.652,11.398-2.92h0.24c4.48-0.266,8.854,0.534,13.121,2.4c2.666,1.174,5.24,2.894,7.719,5.16
		c2.48,2.268,4.281,4.52,5.4,6.76c2.506,4.374,3.76,9.12,3.76,14.24c0,2.988-0.453,5.908-1.359,8.76c-0.908,2.854-2.24,5.507-4,7.96
		c-1.334,1.867-2.787,3.507-4.359,4.92c-1.574,1.414-3.508,2.734-5.801,3.96c-4.107,2.08-8.533,3.12-13.279,3.12
		c-4.055,0-7.92-0.8-11.602-2.4C574.493,100.776,571.333,98.443,568.694,95.483z M603.534,88.403c1.439-1.653,2.48-3.227,3.119-4.72
		c1.066-2.453,1.6-4.96,1.6-7.52c0-3.52-0.959-6.813-2.879-9.88c-1.92-3.066-4.561-5.346-7.92-6.84c-2.453-1.066-4.988-1.6-7.6-1.6
		c-2.348,0-4.602,0.427-6.762,1.28c-2.158,0.854-4.094,2.107-5.799,3.76l-1.359,1.44c-1.441,1.76-2.521,3.654-3.24,5.68
		c-0.721,2.028-1.08,4.108-1.08,6.24c0,2.667,0.559,5.24,1.68,7.72c1.119,2.48,2.746,4.574,4.879,6.28
		c3.467,2.88,7.414,4.32,11.842,4.32c2.932,0,5.68-0.64,8.238-1.92C600.333,91.47,602.095,90.057,603.534,88.403z"/>
	<path d="M629.093,103.763c-0.24-0.212-0.361-0.48-0.361-0.8v-53.52c0-0.32,0.121-0.586,0.361-0.8c0.24-0.212,0.52-0.32,0.84-0.32
		h8.16c0.371,0,0.666,0.188,0.879,0.56l18.961,32.08c0.586,1.067,1.066,1.6,1.439,1.6c0.426,0,0.641-0.586,0.641-1.76l-0.16-31.36
		c0-0.32,0.119-0.586,0.359-0.8c0.24-0.212,0.52-0.32,0.84-0.32h8.4c0.32,0,0.6,0.107,0.84,0.32c0.24,0.214,0.359,0.48,0.359,0.8
		v53.52c0,0.32-0.119,0.587-0.359,0.8c-0.24,0.214-0.52,0.32-0.84,0.32h-5.68c-0.961,0-1.627-0.08-2-0.24
		c-0.375-0.16-0.773-0.586-1.201-1.28l-20.158-32.08c-0.32-0.48-0.615-0.72-0.881-0.72c-0.428,0-0.641,0.374-0.641,1.12l0.16,32.08
		c0,0.32-0.119,0.587-0.359,0.8c-0.24,0.214-0.494,0.32-0.76,0.32h-8C629.612,104.083,629.333,103.977,629.093,103.763z"/>
	<path d="M684.052,103.563c-0.295-0.292-0.439-0.626-0.439-1v-52.72c0-0.426,0.145-0.772,0.439-1.04c0.293-0.266,0.625-0.4,1-0.4
		h35.84c0.426,0,0.771,0.134,1.039,0.4c0.268,0.268,0.4,0.614,0.4,1.04v6.72c0,0.374-0.133,0.708-0.4,1
		c-0.268,0.294-0.613,0.44-1.039,0.44h-25.84c-0.375,0-0.707,0.134-1,0.4c-0.295,0.268-0.439,0.614-0.439,1.04v11.76v0.24
		c0,0.48,0.105,0.813,0.318,1c0.213,0.188,0.721,0.28,1.521,0.28h20c0.371,0,0.691,0.12,0.959,0.36c0.266,0.24,0.4,0.548,0.4,0.92
		v6.8c0,0.374-0.135,0.68-0.4,0.92c-0.268,0.24-0.588,0.36-0.959,0.36h-20.08c-0.695,0-1.16,0.2-1.4,0.6s-0.359,0.814-0.359,1.24
		v8.48c0,0.534,0.145,0.987,0.439,1.36c0.293,0.374,0.893,0.56,1.799,0.56h25.602c0.371,0,0.705,0.147,1,0.44
		c0.291,0.294,0.439,0.654,0.439,1.08v6.72c0,0.374-0.135,0.708-0.4,1c-0.268,0.294-0.613,0.44-1.039,0.44h-36.4
		C684.677,104.002,684.345,103.856,684.052,103.563z"/>
</g>
</svg>
