<?xml version="1.0" encoding="utf-8"?>
<!-- Generator: Adobe Illustrator 16.0.0, SVG Export Plug-In . SVG Version: 6.00 Build 0)  -->
<!DOCTYPE svg PUBLIC "-//W3C//DTD SVG 1.1//EN" "http://www.w3.org/Graphics/SVG/1.1/DTD/svg11.dtd">
<svg version="1.1" id="Livello_1" xmlns="http://www.w3.org/2000/svg" xmlns:xlink="http://www.w3.org/1999/xlink" x="0px" y="0px"
	 width="2500px" height="2273px" viewBox="0 0 2500 2273" enable-background="new 0 0 2500 2273" xml:space="preserve">
<path d="M607.956,1115.91c0-104.545,25.757-193.938,77.271-268.182c51.515-74.243,121.969-130.303,211.364-168.182
	c81.818-34.849,182.575-59.849,302.272-75c40.908-4.546,107.574-10.607,200-18.183v-38.637c0-96.971-10.605-162.121-31.818-195.455
	c-31.818-45.454-81.818-68.182-150-68.182h-18.182c-50,4.546-93.183,20.455-129.547,47.728
	c-36.362,27.272-59.85,65.152-70.453,113.638c-6.063,30.302-21.215,47.727-45.454,52.271l-261.364-31.817
	c-25.759-6.063-38.636-19.697-38.636-40.909c0-4.545,0.757-9.849,2.271-15.909c25.757-134.848,89.014-234.848,189.772-300
	C946.211,43.94,1064.014,7.575,1198.863,0h56.818c172.729,0,307.576,44.698,404.545,134.091
	c15.211,15.221,29.266,31.554,42.047,48.864c12.877,17.425,23.104,32.954,30.682,46.591c7.574,13.637,14.395,33.334,20.455,59.091
	c6.059,25.757,10.604,43.563,13.637,53.409c3.029,9.848,5.303,31.061,6.816,63.636c1.516,32.575,2.273,51.895,2.273,57.955v550
	c0,39.393,5.682,75.379,17.045,107.955c11.363,32.575,22.348,56.061,32.955,70.456c10.604,14.393,28.029,37.5,52.271,69.316
	c9.09,13.637,13.637,25.756,13.637,36.363c0,12.121-6.063,22.729-18.182,31.818c-125.76,109.092-193.939,168.182-204.547,177.271
	c-18.182,13.637-40.15,15.152-65.908,4.547c-21.213-18.184-39.771-35.607-55.682-52.273s-27.271-28.787-34.092-36.363
	c-6.818-7.574-17.805-22.348-32.953-44.318c-15.152-21.971-25.76-36.742-31.818-44.316c-84.85,92.424-168.182,150-250,172.727
	c-51.517,15.152-115.152,22.729-190.909,22.729c-116.668,0-212.5-35.984-287.5-107.955S607.956,1247.729,607.956,1115.91z
	 M998.866,1070.457c0,59.09,14.771,106.438,44.317,142.045c29.545,35.605,69.318,53.408,119.318,53.408
	c4.545,0,10.983-0.758,19.317-2.271c8.332-1.518,14.014-2.271,17.046-2.271c63.637-16.666,112.877-57.576,147.727-122.729
	c16.666-28.79,29.166-60.229,37.5-94.319c8.332-34.092,12.877-61.742,13.637-82.953c0.756-21.212,1.137-56.063,1.137-104.546
	v-56.818c-87.881,0-154.546,6.062-200,18.182C1065.532,856.063,998.866,940.153,998.866,1070.457z"/>
<path fill="#F9A51B" d="M4.546,1763.908c7.575-12.121,19.695-12.88,36.363-2.271c378.786,219.697,790.909,329.545,1236.364,329.545
	c296.968,0,590.149-55.303,879.545-165.909c7.575-3.028,18.561-7.575,32.955-13.636c14.394-6.063,24.62-10.607,30.682-13.637
	c22.729-9.091,40.529-4.546,53.409,13.637c12.877,18.182,8.711,34.848-12.5,50c-27.271,19.697-62.123,42.425-104.546,68.182
	c-130.305,77.272-275.759,137.12-436.363,179.545C1559.848,2251.787,1403.03,2273,1250,2273
	c-236.362,0-459.85-41.289-670.453-123.864c-210.607-82.574-399.243-198.863-565.909-348.863C4.546,1792.698,0,1785.119,0,1777.545
	C0,1773,1.513,1768.453,4.546,1763.908z M2034.093,1802.545c3.028-6.062,7.573-12.12,13.636-18.183
	c37.878-25.757,74.241-43.182,109.091-52.271c57.575-15.152,113.638-23.484,168.183-25c15.149-1.517,29.545-0.757,43.183,2.271
	c68.182,6.063,109.091,17.425,122.728,34.091c6.06,9.092,9.091,22.729,9.091,40.909v15.909c0,53.029-14.396,115.529-43.183,187.5
	s-68.939,129.925-120.453,173.863c-7.577,6.062-14.396,9.092-20.455,9.092c-3.031,0-6.063-0.757-9.092-2.273
	c-9.091-4.545-11.363-12.879-6.818-25c56.061-131.816,84.093-223.482,84.093-275c0-16.666-3.032-28.787-9.093-36.362
	c-15.151-18.183-57.575-27.272-127.271-27.272c-25.759,0-56.063,1.517-90.909,4.545c-37.879,4.547-72.727,9.092-104.545,13.638
	c-9.092,0-15.151-1.517-18.182-4.546c-3.032-3.029-3.789-6.063-2.272-9.092C2031.818,1807.848,2032.575,1805.574,2034.093,1802.545z
	"/>
</svg>
