<?xml version="1.0" encoding="utf-8"?>
<!-- Generator: Adobe Illustrator 16.0.0, SVG Export Plug-In . SVG Version: 6.00 Build 0)  -->
<!DOCTYPE svg PUBLIC "-//W3C//DTD SVG 1.1//EN" "http://www.w3.org/Graphics/SVG/1.1/DTD/svg11.dtd">
<svg version="1.1" id="Livello_1" xmlns="http://www.w3.org/2000/svg" xmlns:xlink="http://www.w3.org/1999/xlink" x="0px" y="0px"
	 width="2500px" height="2273px" viewBox="0 0 2500 2273" enable-background="new 0 0 2500 2273" xml:space="preserve">
<path d="M4.546,1763.773c7.575-12.121,19.695-12.88,36.363-2.272c378.786,219.697,790.909,329.545,1236.364,329.545
	c296.968,0,590.149-55.303,879.545-165.909c7.575-3.029,18.56-7.575,32.955-13.636c14.393-6.062,24.62-10.607,30.682-13.637
	c22.728-9.091,40.529-4.546,53.409,13.637c12.877,18.182,8.711,34.848-12.5,50c-27.272,19.697-62.123,42.425-104.546,68.182
	c-130.305,77.272-275.759,137.12-436.363,179.545c-160.606,42.425-317.425,63.637-470.455,63.637
	c-236.363,0-459.85-41.289-670.454-123.864c-210.607-82.574-399.243-198.863-565.909-348.863C4.546,1792.561,0,1784.984,0,1777.408
	C0,1772.864,1.513,1768.318,4.546,1763.773z M688.636,1116.045c0-104.545,25.757-193.938,77.272-268.182
	c51.514-74.243,121.969-130.303,211.364-168.182c81.818-34.848,182.575-59.848,302.272-75c40.909-4.546,107.575-10.607,200-18.182
	v-38.637c0-96.971-10.606-162.121-31.818-195.455c-31.818-45.454-81.818-68.182-150-68.182h-18.182
	c-50,4.546-93.182,20.455-129.546,47.728c-36.363,27.272-59.85,65.152-70.454,113.637c-6.062,30.302-21.214,47.727-45.454,52.272
	l-261.364-31.818c-25.759-6.062-38.636-19.697-38.636-40.909c0-4.545,0.757-9.848,2.272-15.909
	c25.757-134.848,89.014-234.848,189.772-300c100.757-65.151,218.56-101.516,353.409-109.091h56.818
	c172.728,0,307.575,44.698,404.545,134.091c15.21,15.221,29.265,31.554,42.046,48.864c12.877,17.425,23.104,32.954,30.682,46.591
	c7.575,13.637,14.394,33.334,20.455,59.091c6.059,25.757,10.604,43.562,13.636,53.409c3.03,9.848,5.303,31.061,6.818,63.636
	c1.514,32.575,2.272,51.894,2.272,57.955v550c0,39.393,5.682,75.379,17.046,107.954c11.363,32.575,22.348,56.062,32.954,70.455
	c10.605,14.393,28.029,37.5,52.273,69.318c9.09,13.636,13.636,25.756,13.636,36.363c0,12.12-6.062,22.728-18.182,31.818
	c-125.759,109.091-193.94,168.182-204.546,177.272c-18.182,13.637-40.151,15.152-65.908,4.546
	c-21.214-18.183-39.773-35.607-55.683-52.273s-27.272-28.788-34.091-36.363s-17.805-22.348-32.954-44.318
	c-15.152-21.971-25.759-36.743-31.818-44.318c-84.85,92.425-168.182,150-250,172.728c-51.516,15.152-115.152,22.728-190.909,22.728
	c-116.668,0-212.5-35.984-287.5-107.955S688.636,1247.864,688.636,1116.045z M1079.546,1070.591
	c0,59.091,14.772,106.438,44.318,142.045c29.545,35.606,69.318,53.409,119.318,53.409c4.545,0,10.983-0.757,19.317-2.272
	c8.332-1.517,14.014-2.272,17.046-2.272c63.637-16.666,112.877-57.575,147.728-122.728c16.666-28.789,29.166-60.228,37.5-94.318
	c8.332-34.091,12.877-61.743,13.636-82.954c0.757-21.212,1.137-56.062,1.137-104.546v-56.818c-87.88,0-154.546,6.062-200,18.182
	C1146.212,856.198,1079.546,940.288,1079.546,1070.591z M2034.092,1802.408c3.029-6.061,7.574-12.12,13.636-18.182
	c37.878-25.757,74.241-43.182,109.091-52.272c57.575-15.152,113.637-23.484,168.182-25c15.15-1.516,29.546-0.757,43.183,2.272
	c68.182,6.062,109.091,17.425,122.728,34.091c6.059,9.091,9.09,22.728,9.09,40.909v15.909c0,53.029-14.395,115.529-43.182,187.5
	c-28.788,71.971-68.94,129.925-120.454,173.863c-7.577,6.062-14.396,9.092-20.454,9.092c-3.032,0-6.063-0.757-9.092-2.273
	c-9.091-4.545-11.363-12.879-6.818-25c56.06-131.817,84.092-223.483,84.092-275c0-16.666-3.032-28.788-9.092-36.363
	c-15.152-18.182-57.576-27.272-127.272-27.272c-25.759,0-56.062,1.516-90.909,4.545c-37.879,4.546-72.727,9.091-104.545,13.637
	c-9.092,0-15.152-1.516-18.182-4.546c-3.032-3.029-3.789-6.062-2.273-9.091C2031.818,1807.711,2032.575,1805.439,2034.092,1802.408z
	"/>
<path fill="#F9A51B" d="M4.546,1763.909c7.575-12.121,19.695-12.88,36.363-2.272c378.786,219.697,790.909,329.545,1236.364,329.545
	c296.968,0,590.149-55.303,879.545-165.909c7.575-3.029,18.56-7.575,32.955-13.636c14.393-6.062,24.62-10.607,30.682-13.637
	c22.728-9.091,40.529-4.546,53.409,13.637c12.877,18.182,8.711,34.848-12.5,50c-27.272,19.697-62.123,42.425-104.546,68.182
	c-130.305,77.272-275.759,137.12-436.363,179.545C1559.848,2251.788,1403.03,2273,1250,2273
	c-236.363,0-459.85-41.289-670.454-123.864c-210.607-82.574-399.243-198.863-565.909-348.863C4.546,1792.698,0,1785.12,0,1777.545
	C0,1773,1.513,1768.454,4.546,1763.909z M2034.092,1802.545c3.029-6.061,7.574-12.12,13.636-18.182
	c37.878-25.757,74.241-43.182,109.091-52.272c57.575-15.152,113.637-23.484,168.182-25c15.15-1.516,29.546-0.757,43.183,2.272
	c68.182,6.062,109.091,17.425,122.728,34.091c6.059,9.091,9.09,22.728,9.09,40.909v15.909c0,53.029-14.395,115.529-43.182,187.5
	c-28.788,71.971-68.94,129.925-120.454,173.863c-7.577,6.062-14.396,9.092-20.454,9.092c-3.032,0-6.063-0.757-9.092-2.273
	c-9.091-4.545-11.363-12.879-6.818-25c56.06-131.817,84.092-223.483,84.092-275c0-16.666-3.032-28.788-9.092-36.363
	c-15.152-18.182-57.576-27.272-127.272-27.272c-25.759,0-56.062,1.516-90.909,4.545c-37.879,4.546-72.727,9.091-104.545,13.637
	c-9.092,0-15.152-1.516-18.182-4.546c-3.032-3.029-3.789-6.062-2.273-9.091C2031.818,1807.848,2032.575,1805.575,2034.092,1802.545z
	"/>
</svg>
