<?xml version="1.0" encoding="utf-8"?>
<!-- Generator: Adobe Illustrator 16.0.0, SVG Export Plug-In . SVG Version: 6.00 Build 0)  -->
<!DOCTYPE svg PUBLIC "-//W3C//DTD SVG 1.1//EN" "http://www.w3.org/Graphics/SVG/1.1/DTD/svg11.dtd">
<svg version="1.1" id="Livello_1" xmlns="http://www.w3.org/2000/svg" xmlns:xlink="http://www.w3.org/1999/xlink" x="0px" y="0px"
	 width="900px" height="650px" viewBox="0 0 900 650" enable-background="new 0 0 900 650" xml:space="preserve">
<rect x="0" y="0" fill="#FFD700" width="900" height="650"/>
<path fill="#39B54A" d="M618.897,324.999c0,93.283-75.617,168.9-168.897,168.9c-93.279,0-168.896-75.617-168.896-168.9
	c0-93.282,75.617-168.896,168.896-168.896C543.28,156.102,618.897,231.717,618.897,324.999z"/>
<circle fill="#FFD15C" cx="449.792" cy="300.709" r="93.679"/>
<g>
	<path fill="#40596B" d="M373.901,355.514l-32.233,55.873l37.62-1.996l17.092,33.58l29.818-51.693
		C404.833,385.75,386.487,372.885,373.901,355.514z"/>
	<path fill="#40596B" d="M525.869,355.237c-12.494,17.416-30.84,30.328-52.158,35.947l29.911,51.787l17.092-33.58l37.62,1.996
		L525.869,355.237z"/>
</g>
<circle fill="#F8B64C" cx="449.792" cy="300.709" r="67.903"/>
<path fill="#FFFFFF" d="M496.33,293.371c2.09-2.043,0.929-5.62-1.951-6.038l-26.799-3.901c-1.161-0.186-2.136-0.882-2.647-1.95
	L452.95,257.19c-1.301-2.647-5.063-2.647-6.363,0l-11.936,24.291c-0.512,1.021-1.533,1.765-2.647,1.95l-26.799,3.901
	c-2.88,0.418-4.041,3.995-1.951,6.038l19.368,18.903c0.836,0.836,1.207,1.997,1.021,3.111l-4.552,26.66
	c-0.511,2.879,2.555,5.109,5.155,3.717l23.966-12.588c1.021-0.557,2.275-0.557,3.298,0l23.965,12.588
	c2.602,1.346,5.62-0.838,5.155-3.717l-4.598-26.66c-0.186-1.161,0.186-2.322,1.022-3.111L496.33,293.371z"/>
<g>
	<path d="M246.599,96.225c-0.728-0.78-0.208-1.82,1.508-4.264c0.416-0.521,0.832-0.624,1.353-0.416
		c5.564,2.86,8.684,2.86,11.232,2.86c5.044,0,7.228-2.652,4.628-5.98c-1.3-1.716-5.46-2.496-7.229-3.068
		c-5.46-1.612-8.632-3.796-9.672-7.384c-2.185-6.708,2.288-12.741,11.128-13.676c3.017-0.26,6.448,0.312,9.205,1.456
		c2.704,1.352,3.9,2.548,3.588,3.432c-0.416,0.988-1.664,2.496-2.393,3.484c-0.624,0.78-2.6-0.884-4.992-1.404
		c-2.028-0.416-4.316-0.988-7.28,0.052c-3.12,1.508-3.744,4.212-1.352,6.032c2.496,1.768,5.668,2.86,7.592,3.536
		c1.924,0.728,4.992,1.768,6.553,3.692c1.404,1.353,2.444,4.108,2.444,6.292c0,5.772-4.888,9.413-11.856,9.516
		C255.387,100.49,248.783,98.202,246.599,96.225z"/>
	<path d="M279.826,88.426l-0.104-0.26c-1.924-5.876-0.884-12.688,3.432-17.836c3.328-3.536,6.761-6.24,13.209-6.604h0.156
		c2.912-0.156,5.772,0.364,8.528,1.56c3.484,1.56,7.072,4.888,8.528,7.749c3.64,6.396,3.224,14.196-1.04,20.125
		c-1.612,2.288-3.484,4.108-6.604,5.772c-4.889,2.444-10.765,2.809-16.173,0.468C284.923,97.162,281.387,93.105,279.826,88.426z
		 M308.272,87.177c2.652-6.032,0-13.053-5.98-15.757c-4.472-1.976-9.672-1.092-13.104,2.236l-0.884,0.936
		c-4.212,5.148-3.588,12.688,1.456,16.849c3.692,3.12,8.84,3.692,13.053,1.561C305.724,91.338,307.544,88.893,308.272,87.177z"/>
	<path d="M323.245,99.606V65.129c0-0.521,0.416-0.937,0.937-0.937h12.116c6.396,0,11.492,5.148,11.492,11.493
		c0,6.396-5.096,11.493-11.492,11.493h-5.2c-0.78,0-1.3,0.208-1.3,1.04v11.388c0,0.52-0.416,0.936-0.937,0.936h-4.68
		C323.661,100.542,323.245,100.126,323.245,99.606z M336.298,80.521c2.652,0,4.836-2.132,4.836-4.836
		c0-2.652-2.184-4.784-4.836-4.784h-5.252c-0.884,0-1.248,0.364-1.248,1.04v8.581H336.298z"/>
	<path d="M355.433,99.658V65.076c0-0.52,0.468-0.936,0.988-0.936h10.921c6.552,0,11.856,5.096,11.856,11.544
		c0,3.692-1.872,6.917-4.628,9.1c-0.52,0.468-0.208,1.092-0.208,1.092l6.032,13.468c0.416,0.937,0.052,1.248-0.52,1.248h-4.576
		c-0.676,0-1.04,0-1.352-0.624c0,0-5.252-11.752-5.46-12.168c-0.156-0.416-0.416-0.521-1.404-0.572h-4.16
		c-0.988,0-1.352,0.208-1.352,0.988v11.44c0,0.52-0.468,0.936-0.988,0.936h-4.16C355.902,100.594,355.433,100.177,355.433,99.658z
		 M367.342,80.521c2.704,0,4.94-2.185,4.94-4.836c0-2.704-2.236-4.836-4.94-4.836h-4.836c-0.624,0-0.936,0.313-0.936,1.04v7.801
		c0,0.52,0.312,0.832,0.78,0.832H367.342z"/>
	<path d="M386.841,99.918l9.204-34.997c0.156-0.416,0.572-0.78,1.04-0.78h10.816c0.468,0,0.884,0.364,1.04,0.728l9.205,34.998
		c0.104,0.416-0.156,0.728-0.52,0.728h-5.096c-0.416,0-0.936-0.364-1.04-0.78l-2.548-9.672c-0.156-0.624-0.78-1.092-1.404-1.092
		h-10.088c-0.624,0-1.248,0.468-1.404,1.092l-2.548,9.62c-0.104,0.468-0.624,0.832-1.04,0.832h-5.096
		C386.997,100.594,386.737,100.282,386.841,99.918z M405.926,83.485c0.728,0,1.144-0.572,0.988-1.196l-2.912-10.712
		c-0.104-0.572-0.728-1.04-1.352-1.04h-0.312c-0.624,0-1.248,0.468-1.352,1.04l-2.86,10.712c-0.156,0.624,0.208,1.196,0.937,1.196
		H405.926z"/>
	<path d="M449.449,99.606V65.076c0-0.52,0.467-0.988,0.988-0.988h5.408c0.52,0,0.936,0.468,0.936,0.988v34.529
		c0,0.52-0.416,0.936-0.936,0.936h-5.408C449.916,100.542,449.449,100.126,449.449,99.606z"/>
	<path d="M503.32,99.398V76.621c0-0.936-0.52-1.092-0.988-0.26l-4.836,8.008c-0.469,0.729-0.104,1.456,0.779,1.456h1.561
		c0.52,0,1.041,0.468,1.041,1.04v3.952c0,0.572-0.469,1.092-1.041,1.092h-8.736c-0.623,0-1.248-0.52-1.299-1.092l-0.678-3.38
		c-0.154-0.624,0.053-1.612,0.365-2.184l13.053-20.073c0.416-0.52,1.248-0.988,1.924-0.988h3.9c0.623,0,1.143,0.468,1.143,1.092
		v18.981c0,0.884,0.625,1.56,1.457,1.56h1.664c0.623,0,1.092,0.468,1.092,1.04v3.952c0,0.572-0.469,1.092-1.092,1.092h-1.664
		c-0.832,0-1.457,0.676-1.457,1.508v5.98c0,0.624-0.52,1.092-1.143,1.092h-3.9C503.84,100.49,503.32,100.022,503.32,99.398z"/>
	<path d="M522.404,82.133c0-10.14,6.447-18.149,14.717-18.149c1.82,0,3.379,0.313,4.783,0.78h-0.051
		c0.727,0.416,0.936,0.936,0.57,1.508v0.052c0,0-1.143,2.34-1.715,3.38c-0.469,0.832-0.988,0.78-3.016,0.728
		c-5.773,0-9.309,6.188-9.309,12.429c0,6.604,4.055,11.7,9.309,11.7c5.408,0,9.152-6.292,9.152-12.116
		c0-1.872-0.416-4.212-0.988-5.772c-0.209-0.416-0.469-0.988,0.051-1.872c0,0,2.08-3.276,2.602-4.16
		c0.26-0.52,0.779-0.468,1.092,0.104c2.236,3.38,3.379,7.28,3.379,11.492c0,10.296-6.811,18.564-15.287,18.564
		C528.957,100.802,522.404,92.794,522.404,82.133z"/>
	<path d="M559.947,82.133c0-10.14,6.449-18.149,14.717-18.149c1.82,0,3.381,0.313,4.785,0.78h-0.053
		c0.729,0.416,0.936,0.936,0.572,1.508v0.052c0,0-1.145,2.34-1.717,3.38c-0.467,0.832-0.988,0.78-3.016,0.728
		c-5.771,0-9.309,6.188-9.309,12.429c0,6.604,4.057,11.7,9.309,11.7c5.408,0,9.152-6.292,9.152-12.116
		c0-1.872-0.416-4.212-0.988-5.772c-0.207-0.416-0.469-0.988,0.053-1.872c0,0,2.08-3.276,2.6-4.16
		c0.26-0.52,0.779-0.468,1.092,0.104c2.236,3.38,3.381,7.28,3.381,11.492c0,10.296-6.813,18.564-15.289,18.564
		C566.5,100.802,559.947,92.794,559.947,82.133z"/>
	<path d="M620.006,80.677v-3.536c0-0.52,0.416-0.884,0.885-0.884h2.443c2.393-7.176,9.1-12.376,16.953-12.376
		c5.252,0,9.932,2.288,13.209,5.928c0.311,0.313,0.311,0.729-0.053,1.04l-3.641,3.12c-0.156,0.156-0.676,0.416-1.039,0
		c-2.133-2.288-5.148-3.744-8.477-3.744c-4.316,0-8.113,2.444-10.088,6.032h9.047c0.469,0,0.832,0.364,0.832,0.884v3.536
		c0,0.468-0.363,0.832-0.832,0.832H620.89C620.422,81.509,620.006,81.145,620.006,80.677z M623.75,89.569h-2.859
		c-0.469,0-0.885-0.416-0.885-0.884v-3.536c0-0.468,0.416-0.884,0.885-0.884h18.355c0.469,0,0.832,0.416,0.832,0.884v3.536
		c0,0.468-0.363,0.884-0.832,0.884h-8.424c2.133,3.017,5.564,4.992,9.465,4.992c3.172,0,5.98-1.3,8.111-3.38
		c0.729-0.624,1.457-0.312,1.664-0.156c0.209,0.208,2.496,2.132,3.018,2.601c0.57,0.468,0.623,1.196,0.207,1.56
		c-3.225,3.536-7.852,5.721-13,5.721C632.799,100.906,626.402,96.225,623.75,89.569z"/>
</g>
</svg>
