<?xml version="1.0" encoding="utf-8"?>
<!-- Generator: Adobe Illustrator 16.0.0, SVG Export Plug-In . SVG Version: 6.00 Build 0)  -->
<!DOCTYPE svg PUBLIC "-//W3C//DTD SVG 1.1//EN" "http://www.w3.org/Graphics/SVG/1.1/DTD/svg11.dtd">
<svg version="1.1" id="Livello_1" xmlns="http://www.w3.org/2000/svg" xmlns:xlink="http://www.w3.org/1999/xlink" x="0px" y="0px"
	 width="900px" height="650px" viewBox="0 0 900 650" enable-background="new 0 0 900 650" xml:space="preserve">
<rect x="-0.208" y="0.001" fill="#C0C0C0" width="900" height="649.999"/>
<path fill="#39B54A" d="M618.897,323.693c0,93.283-75.617,168.9-168.897,168.9c-93.279,0-168.896-75.617-168.896-168.9
	c0-93.282,75.617-168.896,168.896-168.896C543.28,154.797,618.897,230.411,618.897,323.693z"/>
<circle fill="#C0C0C0" cx="449.792" cy="299.404" r="93.679"/>
<g>
	<path fill="#40596B" d="M373.901,354.208l-32.233,55.873l37.62-1.996l17.092,33.58l29.818-51.693
		C404.833,384.445,386.487,371.579,373.901,354.208z"/>
	<path fill="#40596B" d="M525.869,353.931c-12.494,17.416-30.84,30.328-52.158,35.947l29.911,51.787l17.092-33.58l37.62,1.996
		L525.869,353.931z"/>
</g>
<circle fill="#898989" cx="449.792" cy="299.404" r="67.902"/>
<path fill="#FFFFFF" d="M496.33,292.066c2.09-2.043,0.929-5.621-1.951-6.039l-26.799-3.9c-1.161-0.186-2.136-0.883-2.647-1.951
	l-11.982-24.291c-1.301-2.647-5.063-2.647-6.363,0l-11.936,24.291c-0.512,1.021-1.533,1.766-2.647,1.951l-26.799,3.9
	c-2.88,0.418-4.041,3.996-1.951,6.039l19.368,18.902c0.836,0.836,1.207,1.998,1.021,3.111l-4.552,26.66
	c-0.511,2.879,2.555,5.109,5.155,3.717l23.966-12.588c1.021-0.557,2.275-0.557,3.298,0l23.965,12.588
	c2.602,1.346,5.62-0.838,5.155-3.717l-4.598-26.66c-0.186-1.16,0.186-2.322,1.022-3.111L496.33,292.066z"/>
<g>
	<path d="M220.754,98.561V70.375c0-0.624-0.624-1.248-1.3-1.248h-8.736c-0.312,0-0.624-0.312-0.624-0.624v-5.044
		c0-0.312,0.26-0.572,0.624-0.572h27.457c0.416,0,0.728,0.313,0.728,0.676v4.888c0,0.364-0.312,0.676-0.728,0.676h-8.632
		c-0.676,0-1.248,0.572-1.248,1.248v28.186c0,0.364-0.26,0.676-0.676,0.676h-6.188C221.014,99.237,220.754,98.925,220.754,98.561z"
		/>
	<path d="M247.117,98.353V63.771c0-0.52,0.468-0.936,0.988-0.936h10.92c6.553,0,11.856,5.096,11.856,11.544
		c0,3.692-1.872,6.917-4.628,9.1c-0.52,0.468-0.208,1.092-0.208,1.092l6.032,13.468c0.416,0.937,0.052,1.248-0.52,1.248h-4.576
		c-0.676,0-1.04,0-1.352-0.624c0,0-5.252-11.752-5.46-12.168c-0.156-0.416-0.416-0.521-1.404-0.572h-4.16
		c-0.988,0-1.352,0.208-1.352,0.988v11.44c0,0.52-0.468,0.936-0.988,0.936h-4.16C247.585,99.288,247.117,98.872,247.117,98.353z
		 M259.025,79.216c2.704,0,4.94-2.185,4.94-4.836c0-2.704-2.236-4.836-4.94-4.836h-4.836c-0.624,0-0.936,0.313-0.936,1.04v7.801
		c0,0.52,0.312,0.832,0.78,0.832H259.025z"/>
	<path d="M278.525,98.613l9.204-34.997c0.155-0.416,0.571-0.78,1.04-0.78h10.816c0.468,0,0.884,0.364,1.04,0.728l9.204,34.998
		c0.104,0.416-0.156,0.728-0.52,0.728h-5.097c-0.416,0-0.937-0.364-1.04-0.78l-2.548-9.672c-0.156-0.624-0.78-1.092-1.404-1.092
		h-10.089c-0.623,0-1.248,0.468-1.403,1.092l-2.548,9.62c-0.104,0.468-0.625,0.832-1.041,0.832h-5.096
		C278.68,99.288,278.421,98.977,278.525,98.613z M297.609,82.18c0.729,0,1.145-0.572,0.988-1.196l-2.912-10.712
		c-0.104-0.572-0.729-1.04-1.352-1.04h-0.313c-0.624,0-1.248,0.468-1.352,1.04l-2.86,10.712c-0.156,0.624,0.208,1.196,0.936,1.196
		H297.609z"/>
	<path d="M353.873,98.093V75.316c0-0.936-0.521-1.092-0.988-0.26l-4.836,8.008c-0.469,0.729-0.104,1.456,0.779,1.456h1.561
		c0.52,0,1.04,0.468,1.04,1.04v3.952c0,0.572-0.468,1.092-1.04,1.092h-8.736c-0.624,0-1.248-0.52-1.3-1.092l-0.677-3.38
		c-0.155-0.624,0.053-1.612,0.364-2.184l13.053-20.073c0.416-0.52,1.248-0.988,1.924-0.988h3.9c0.624,0,1.144,0.468,1.144,1.092
		V82.96c0,0.884,0.625,1.56,1.457,1.56h1.664c0.623,0,1.092,0.468,1.092,1.04v3.952c0,0.572-0.469,1.092-1.092,1.092h-1.664
		c-0.832,0-1.457,0.676-1.457,1.508v5.98c0,0.624-0.52,1.092-1.144,1.092h-3.9C354.392,99.185,353.873,98.717,353.873,98.093z"/>
	<path d="M372.957,80.828c0-10.14,6.448-18.149,14.717-18.149c1.819,0,3.38,0.313,4.783,0.78h-0.052
		c0.729,0.416,0.937,0.936,0.572,1.508v0.052c0,0-1.144,2.34-1.716,3.38c-0.469,0.832-0.988,0.78-3.017,0.728
		c-5.772,0-9.308,6.188-9.308,12.429c0,6.604,4.056,11.7,9.308,11.7c5.408,0,9.152-6.292,9.152-12.116
		c0-1.872-0.416-4.212-0.987-5.772c-0.209-0.416-0.469-0.988,0.052-1.872c0,0,2.08-3.276,2.6-4.16
		c0.261-0.52,0.78-0.468,1.093,0.104c2.235,3.38,3.38,7.28,3.38,11.492c0,10.296-6.813,18.564-15.289,18.564
		C379.509,99.496,372.957,91.489,372.957,80.828z"/>
	<path d="M410.5,80.828c0-10.14,6.448-18.149,14.717-18.149c1.819,0,3.38,0.313,4.783,0.78h-0.052
		c0.729,0.416,0.937,0.936,0.572,1.508v0.052c0,0-1.144,2.34-1.716,3.38c-0.469,0.832-0.988,0.78-3.017,0.728
		c-5.772,0-9.308,6.188-9.308,12.429c0,6.604,4.056,11.7,9.308,11.7c5.408,0,9.152-6.292,9.152-12.116
		c0-1.872-0.416-4.212-0.987-5.772c-0.209-0.416-0.469-0.988,0.052-1.872c0,0,2.08-3.276,2.6-4.16
		c0.261-0.52,0.78-0.468,1.093,0.104c2.235,3.38,3.38,7.28,3.38,11.492c0,10.296-6.813,18.564-15.289,18.564
		C417.052,99.496,410.5,91.489,410.5,80.828z"/>
	<path d="M471.078,98.145v-34.27c0-0.52,0.416-0.936,0.936-0.936h23.297c0.521,0,0.937,0.416,0.937,0.936v4.368
		c0,0.52-0.416,0.936-0.937,0.936h-16.796c-0.521,0-0.937,0.416-0.937,0.936v7.645c0,0.676-0.052,0.988,1.196,0.988h13.001
		c0.468,0,0.884,0.364,0.884,0.832V84c0,0.468-0.416,0.832-0.884,0.832h-13.053c-1.092,0-1.145,0.936-1.145,1.196v5.512
		c0,0.52,0.104,1.248,1.456,1.248h16.641c0.521,0,0.937,0.468,0.937,0.988v4.368c0,0.52-0.416,0.936-0.937,0.936h-23.661
		C471.494,99.08,471.078,98.664,471.078,98.145z"/>
	<path d="M529.056,98.197v-3.9c0-0.988-0.052-2.132,1.925-3.536c5.044-3.172,12.845-8.736,14.093-12.636
		c0.728-2.288,0-5.044-1.561-6.812c-1.977-1.769-4.732-1.664-5.772-1.508c-1.56,0.364-3.016,0.988-5.044,2.808
		c-0.364,0.312-0.988,0.26-1.3,0.104c-0.884-0.624-2.496-1.404-3.433-1.976c-0.572-0.364-0.832-1.04-0.52-1.664
		c1.195-2.34,3.328-4.212,6.396-5.46c2.6-1.04,5.824-1.248,8.684-0.572c5.045,1.196,9.309,5.356,9.309,12.168
		c0,4.004-1.248,7.28-3.848,10.14c-2.652,2.964-5.564,4.889-8.269,6.448c-1.145,0.676-0.988,1.04,0.52,1.04l10.192-0.104
		c0.937,0,1.456,0.572,1.456,1.404v3.9c0,0.676-0.624,1.196-1.352,1.196h-20.489C529.369,99.237,529.056,98.925,529.056,98.197z"/>
	<path d="M560.049,80.828c0-10.14,6.448-18.149,14.717-18.149c1.819,0,3.38,0.313,4.783,0.78h-0.052
		c0.729,0.416,0.937,0.936,0.572,1.508v0.052c0,0-1.144,2.34-1.716,3.38c-0.469,0.832-0.988,0.78-3.017,0.728
		c-5.772,0-9.308,6.188-9.308,12.429c0,6.604,4.056,11.7,9.308,11.7c5.408,0,9.152-6.292,9.152-12.116
		c0-1.872-0.416-4.212-0.987-5.772c-0.209-0.416-0.469-0.988,0.052-1.872c0,0,2.08-3.276,2.6-4.16
		c0.261-0.52,0.78-0.468,1.093,0.104c2.235,3.38,3.38,7.28,3.38,11.492c0,10.296-6.813,18.564-15.289,18.564
		C566.6,99.496,560.049,91.489,560.049,80.828z"/>
	<path d="M597.592,80.828c0-10.14,6.448-18.149,14.717-18.149c1.819,0,3.38,0.313,4.783,0.78h-0.052
		c0.729,0.416,0.937,0.936,0.572,1.508v0.052c0,0-1.144,2.34-1.716,3.38c-0.469,0.832-0.988,0.78-3.017,0.728
		c-5.772,0-9.308,6.188-9.308,12.429c0,6.604,4.056,11.7,9.308,11.7c5.408,0,9.152-6.292,9.152-12.116
		c0-1.872-0.416-4.212-0.987-5.772c-0.209-0.416-0.469-0.988,0.052-1.872c0,0,2.08-3.276,2.6-4.16
		c0.261-0.52,0.78-0.468,1.093,0.104c2.235,3.38,3.38,7.28,3.38,11.492c0,10.296-6.813,18.564-15.289,18.564
		C604.143,99.496,597.592,91.489,597.592,80.828z"/>
	<path d="M657.65,79.372v-3.536c0-0.52,0.416-0.884,0.885-0.884h2.443c2.393-7.176,9.101-12.376,16.953-12.376
		c5.252,0,9.933,2.288,13.209,5.928c0.312,0.313,0.312,0.729-0.053,1.04l-3.64,3.12c-0.156,0.156-0.677,0.416-1.04,0
		c-2.133-2.288-5.148-3.744-8.477-3.744c-4.316,0-8.112,2.444-10.088,6.032h9.048c0.468,0,0.832,0.364,0.832,0.884v3.536
		c0,0.468-0.364,0.832-0.832,0.832h-18.356C658.066,80.204,657.65,79.84,657.65,79.372z M661.394,88.264h-2.859
		c-0.469,0-0.885-0.416-0.885-0.884v-3.536c0-0.468,0.416-0.884,0.885-0.884h18.356c0.468,0,0.832,0.416,0.832,0.884v3.536
		c0,0.468-0.364,0.884-0.832,0.884h-8.425c2.133,3.017,5.564,4.992,9.465,4.992c3.172,0,5.98-1.3,8.112-3.38
		c0.728-0.624,1.456-0.312,1.664-0.156c0.208,0.208,2.496,2.132,3.017,2.601c0.571,0.468,0.623,1.196,0.207,1.56
		c-3.224,3.536-7.852,5.721-13,5.721C670.443,99.601,664.047,94.92,661.394,88.264z"/>
</g>
</svg>
