<?xml version="1.0" encoding="utf-8"?>
<!-- Generator: Adobe Illustrator 16.0.0, SVG Export Plug-In . SVG Version: 6.00 Build 0)  -->
<!DOCTYPE svg PUBLIC "-//W3C//DTD SVG 1.1//EN" "http://www.w3.org/Graphics/SVG/1.1/DTD/svg11.dtd">
<svg version="1.1" id="Livello_1" xmlns="http://www.w3.org/2000/svg" xmlns:xlink="http://www.w3.org/1999/xlink" x="0px" y="0px"
	 width="900px" height="650px" viewBox="0 0 900 650" enable-background="new 0 0 900 650" xml:space="preserve">
<rect x="1.152" y="0" fill="#FFD700" width="900" height="650"/>
<path fill="#F28D3A" d="M631.15,324.99c0,93.282-75.617,168.899-168.897,168.899c-93.279,0-168.896-75.617-168.896-168.899
	s75.617-168.896,168.896-168.896C555.533,156.094,631.15,231.708,631.15,324.99z"/>
<path fill="#EE7526" d="M629.371,349.391l-76.059-76.062l-3.791-3.789c-6.014-5.462-13.422-9.739-21.717-12.405L503.1,232.433
	c-2.438-2.437-5.814-3.957-9.504-3.957h-43.433h-34.673c-7.41,0-13.465,6.053-13.465,13.462v166.1c0,3.547,1.374,6.758,3.642,9.174
	l0.653,0.646l74.948,74.939C557.544,484.242,618.436,424.924,629.371,349.391z"/>
<path fill="#364A5E" d="M493.602,228.48h-78.125c-7.392,0-13.455,6.055-13.455,13.462v166.103c0,7.403,6.063,13.46,13.455,13.46
	H493.6c7.399,0,13.451-6.057,13.451-13.46V241.943C507.052,234.534,501,228.48,493.602,228.48z"/>
<rect x="409.641" y="257.653" fill="#CEE2F2" width="89.785" height="134.662"/>
<polygon fill="#F3F9FE" points="409.641,392.327 409.641,257.656 499.434,257.656 "/>
<path fill="#293A4D" d="M457.923,243.064c0,1.871-1.507,3.385-3.386,3.385c-1.864,0-3.385-1.514-3.385-3.385
	c0-1.869,1.521-3.387,3.385-3.387C456.416,239.678,457.923,241.195,457.923,243.064z"/>
<g>
	<path fill="#5E6E7E" d="M455.895,243.06c0,0.75-0.609,1.354-1.357,1.354c-0.743,0-1.354-0.604-1.354-1.354
		c0-0.744,0.608-1.356,1.354-1.356C455.285,241.704,455.895,242.316,455.895,243.06z"/>
	<path fill="#5E6E7E" d="M446.212,411.162c-2.038,0-3.691-1.652-3.691-3.695v-1.1c0-2.044,1.653-3.697,3.691-3.697h16.647
		c2.035,0,3.693,1.653,3.693,3.697v1.1c0,2.043-1.654,3.695-3.693,3.695H446.212z"/>
</g>
<path fill="#293A4D" d="M465.5,407.466c0,1.46-1.186,2.645-2.639,2.645h-16.647c-1.453,0-2.642-1.185-2.642-2.645v-1.099
	c0-1.448,1.188-2.646,2.642-2.646h16.647c1.453,0,2.639,1.197,2.639,2.646V407.466z"/>
<path fill="#C1D356" d="M565.669,304.416c0,27.818-25.935,50.377-57.904,50.377c-31.984,0-57.913-22.56-57.913-50.377
	c0-27.822,25.929-50.38,57.913-50.38C539.734,254.037,565.669,276.597,565.669,304.416z"/>
<path fill="#F3F9FE" d="M505.343,330.418c-7.787-0.605-13.611-3.7-17.613-7.859l4.986-6.883c2.799,3.104,7.184,5.977,12.627,6.813
	v-14.675c-7.787-1.955-15.953-4.763-15.953-14.589c0-7.709,6.201-13.831,15.953-14.66v-6.96h6.039v7.031
	c6.129,0.675,11.268,3.1,15.202,6.878l-4.987,6.581c-2.877-2.872-6.504-4.618-10.215-5.373v13.082
	c7.862,2.036,16.412,4.998,16.412,15.114c0,7.714-5.064,14.518-16.412,15.501v6.801h-6.039V330.418L505.343,330.418z
	 M505.343,298.22v-11.875c-4.236,0.529-6.884,2.881-6.884,6.202C498.459,295.5,501.339,297.004,505.343,298.22z M511.382,309.4
	v13.161c5.227-0.762,7.338-3.856,7.338-6.808C518.719,312.355,515.55,310.69,511.382,309.4z"/>
<polygon fill="#C1D356" points="448.436,361.222 475.918,346.286 463.365,333.735 "/>
<path fill="#DAE5A1" d="M461.307,300.125c-0.267,0-0.541-0.034-0.813-0.101c-1.887-0.446-3.053-2.338-2.604-4.222
	c3.07-12.936,13.225-24.209,27.17-30.155c1.785-0.765,3.846,0.065,4.607,1.847c0.758,1.792-0.072,3.845-1.854,4.608
	c-11.906,5.075-20.541,14.541-23.092,25.314C464.337,299.036,462.898,300.125,461.307,300.125z"/>
<path fill="#0E9347" d="M504.943,588.021H404.124c-2.772,0-5.041-2.269-5.041-5.041v-55.45c0-2.772,2.269-5.041,5.041-5.041h100.819
	c2.773,0,5.041,2.269,5.041,5.041v55.45C509.984,585.752,507.717,588.021,504.943,588.021z"/>
<path fill="#0D8944" d="M492.342,567.857c-5.797,0-11.09,2.772-14.115,7.31c-2.52-1.26-5.293-2.268-8.57-2.268
	c-8.82,0-16.131,6.553-17.391,15.122h52.678c2.521,0,4.537-1.764,5.041-4.284C508.976,574.914,501.414,567.857,492.342,567.857z"/>
<path fill="#3BB54A" d="M494.861,582.98h-80.655c0-5.545-4.537-10.081-10.082-10.081v-35.287c5.545,0,10.082-4.537,10.082-10.082
	h80.655c0,5.545,4.537,10.082,10.082,10.082v35.287C499.398,572.899,494.861,577.435,494.861,582.98z"/>
<g>
	<path fill="#0E9347" d="M492.342,567.857c-5.797,0-11.09,2.772-14.115,7.31c-2.52-1.26-5.293-2.268-8.57-2.268
		c-7.057,0-13.105,4.032-15.879,10.081h41.084c0-5.545,4.285-9.83,9.83-10.082C501.414,569.873,497.131,567.857,492.342,567.857z"/>
	<ellipse fill="#0E9347" cx="454.533" cy="555.255" rx="20.164" ry="22.684"/>
	<circle fill="#0E9347" cx="424.288" cy="555.255" r="5.041"/>
	<circle fill="#0E9347" cx="484.779" cy="555.255" r="5.041"/>
</g>
<path fill="#89C763" d="M457.054,552.735h-5.041c-1.512,0-2.521-1.009-2.521-2.521c0-1.513,1.009-2.521,2.521-2.521h7.561
	c1.514,0,2.521-1.009,2.521-2.521s-1.008-2.521-2.521-2.521h-2.52c0-1.512-1.008-2.521-2.521-2.521c-1.512,0-2.52,1.009-2.52,2.521
	c-4.285,0-7.561,3.276-7.561,7.562s3.276,7.562,7.561,7.562h5.041c1.512,0,2.52,1.008,2.52,2.521c0,1.512-1.008,2.521-2.52,2.521
	h-7.561c-1.513,0-2.521,1.008-2.521,2.521c0,1.512,1.008,2.52,2.521,2.52h2.52c0,1.513,1.008,2.521,2.52,2.521
	c1.514,0,2.521-1.008,2.521-2.521c4.285,0,7.561-3.276,7.561-7.561C464.615,556.011,461.34,552.735,457.054,552.735z"/>
<circle fill="#FFCA5D" cx="464.615" cy="590.541" r="17.644"/>
<circle fill="#F6B545" cx="487.301" cy="585.5" r="17.644"/>
<path fill="#FFCB5B" d="M487.301,567.857c-9.83,0-17.645,7.814-17.645,17.644c0,9.83,7.814,17.644,17.645,17.644
	s17.643-7.813,17.643-17.644C504.943,575.671,497.131,567.857,487.301,567.857z M487.301,598.103
	c-7.059,0-12.604-5.545-12.604-12.603c0-7.057,5.545-12.602,12.604-12.602c7.057,0,12.602,5.545,12.602,12.602
	C499.902,592.558,494.357,598.103,487.301,598.103z"/>
<path fill="#F6B545" d="M487.301,602.892L487.301,602.892c9.83,0.252,17.643-7.813,17.643-17.392h-0.252
	c-1.26,0-2.268,1.009-2.52,2.269c-0.504,3.529-2.27,6.806-4.789,9.074c-2.018,2.017-4.789,3.276-7.814,3.78
	C488.308,600.623,487.301,601.632,487.301,602.892z"/>
<path fill="#FFE27A" d="M487.301,568.11L487.301,568.11c-9.83-0.253-17.645,7.813-17.645,17.391h0.252
	c1.262,0,2.27-1.008,2.521-2.269c0.504-3.528,2.268-6.805,4.789-9.073c2.016-2.017,4.789-3.276,7.813-3.781
	C486.293,570.378,487.301,569.369,487.301,568.11z"/>
<path fill="#F19920" d="M476.463,587.265c0-7.058,5.545-12.603,12.602-12.603c3.025,0,5.797,1.009,8.066,3.024
	c-2.521-3.024-5.797-4.788-9.83-4.788c-7.059,0-12.604,5.545-12.604,12.602c0,4.033,1.766,7.31,4.537,9.578
	C477.47,593.062,476.463,590.289,476.463,587.265z"/>
<path fill="#FFCB5B" d="M494.861,593.314c-0.252,0-0.504,0-0.756-0.252c-0.504-0.504-0.504-1.26,0-1.764
	c1.512-1.513,2.27-3.781,2.27-5.798c0-0.756,0.504-1.26,1.26-1.26s1.26,0.504,1.26,1.26c0,2.772-1.008,5.545-2.773,7.562
	C495.617,593.314,495.113,593.314,494.861,593.314z"/>
<g>
	<path fill="#F19920" d="M487.301,593.062c-1.512,0-2.521-1.008-2.521-2.521V580.46c0-1.513,1.01-2.521,2.521-2.521
		s2.52,1.008,2.52,2.521v10.081C489.82,592.054,488.812,593.062,487.301,593.062z"/>
	<path fill="#F19920" d="M496.627,600.371c-1.766-6.301-6.303-11.342-12.1-13.61c-1.008-5.798-4.789-10.838-9.578-13.862
		c-3.023,3.276-5.041,7.561-5.041,12.35c0,9.83,7.814,17.644,17.645,17.644C490.828,603.144,493.853,602.136,496.627,600.371z"/>
</g>
<g>
	<path fill="#E78825" d="M479.234,595.078c-1.764-2.269-3.023-5.041-3.023-8.065c0-3.528,1.512-6.806,4.031-9.073
		c-0.504-0.757-1.008-1.261-1.512-1.765c-2.52,2.269-4.033,5.545-4.033,9.326C474.697,589.533,476.463,592.81,479.234,595.078z"/>
	<path fill="#E78825" d="M484.779,587.013v3.528c0,1.513,1.01,2.521,2.521,2.521s2.52-1.008,2.52-2.521v-0.504
		C488.308,588.778,486.545,587.769,484.779,587.013z"/>
</g>
<path fill="#F6B545" d="M496.627,600.371c-0.506-1.765-1.01-3.276-2.018-4.789c-2.016,1.513-4.537,2.521-7.309,2.521
	c-7.059,0-12.604-5.545-12.604-12.603c0-3.78,1.514-7.058,4.033-9.326c-1.26-1.26-2.52-2.268-4.033-3.024
	c-3.023,3.276-5.041,7.562-5.041,12.351c0,9.83,7.814,17.644,17.645,17.644C490.828,603.144,493.853,602.136,496.627,600.371z"/>
<path fill="#F19920" d="M495.869,598.103c-1.764,1.261-4.031,2.017-6.301,2.521c-1.26,0.252-2.268,1.261-2.268,2.521l0,0
	c3.527,0,6.553-1.008,9.326-2.772C496.375,599.615,496.121,598.86,495.869,598.103z"/>
<path fill="#FFCB5B" d="M474.697,573.151c-3.023,3.276-5.041,7.562-5.041,12.35h0.252c1.262,0,2.27-1.008,2.521-2.269
	c0.504-3.528,2.268-6.553,4.537-8.821C476.211,574.158,475.455,573.655,474.697,573.151z"/>
<circle fill="#F6B545" cx="464.615" cy="590.541" r="17.644"/>
<path fill="#F19920" d="M462.095,603.144c0,1.765,0.252,3.276,0.756,5.041c0.504,0,1.26,0,1.764,0
	c9.83,0,17.645-7.813,17.645-17.644c0-1.764-0.252-3.276-0.756-5.041c-0.504,0-1.262,0-1.766,0
	C469.908,585.5,462.095,593.314,462.095,603.144z"/>
<path fill="#FFCB5B" d="M464.615,572.899c-9.83,0-17.643,7.813-17.643,17.643c0,9.83,7.813,17.644,17.643,17.644
	s17.645-7.813,17.645-17.644C482.26,580.712,474.445,572.899,464.615,572.899z M464.615,603.144
	c-7.057,0-12.602-5.545-12.602-12.603s5.545-12.603,12.602-12.603c7.059,0,12.604,5.545,12.604,12.603
	S471.674,603.144,464.615,603.144z"/>
<path fill="#F6B545" d="M464.615,607.933L464.615,607.933c9.83,0.252,17.645-7.813,17.645-17.392h-0.252
	c-1.262,0-2.27,1.009-2.521,2.269c-0.504,3.529-2.268,6.806-4.789,9.074c-2.016,2.017-4.789,3.276-7.813,3.78
	C465.625,605.664,464.615,606.672,464.615,607.933z"/>
<path fill="#FFE27A" d="M464.615,573.151L464.615,573.151c-9.83-0.252-17.643,7.813-17.643,17.391h0.253
	c1.26,0,2.268-1.008,2.52-2.269c0.504-3.528,2.269-6.805,4.789-9.073c2.018-2.017,4.789-3.276,7.814-3.781
	C463.607,575.418,464.615,574.41,464.615,573.151z"/>
<path fill="#F19920" d="M453.777,592.306c0-7.058,5.545-12.603,12.604-12.603c3.023,0,5.797,1.009,8.064,3.024
	c-2.52-3.024-5.797-4.788-9.83-4.788c-7.057,0-12.602,5.545-12.602,12.602c0,4.033,1.764,7.31,4.537,9.578
	C454.787,598.103,453.777,595.33,453.777,592.306z"/>
<path fill="#FFCB5B" d="M472.177,598.355c-0.252,0-0.504,0-0.756-0.252c-0.504-0.504-0.504-1.26,0-1.764
	c1.512-1.513,2.268-3.781,2.268-5.798c0-0.756,0.504-1.26,1.26-1.26c0.758,0,1.262,0.504,1.262,1.26c0,2.772-1.01,5.545-2.773,7.562
	C472.933,598.355,472.429,598.355,472.177,598.355z"/>
<path fill="#F19920" d="M464.615,598.103c-1.512,0-2.52-1.008-2.52-2.521v-10.081c0-1.513,1.008-2.521,2.52-2.521
	c1.514,0,2.521,1.008,2.521,2.521v10.081C467.136,597.095,466.129,598.103,464.615,598.103z"/>
<g>
	<path fill="#F6B545" d="M476.211,585.752c0.504,1.513,1.008,3.025,1.008,4.789c0,7.058-5.545,12.603-12.604,12.603
		c-0.756,0-1.764,0-2.52-0.252v0.252c0,1.765,0.252,3.276,0.756,5.041c0.504,0,1.26,0,1.764,0c9.83,0,17.645-7.813,17.645-17.644
		c0-1.764-0.252-3.276-0.756-5.041c-0.504,0-1.26,0-1.766,0C478.478,585.5,477.47,585.5,476.211,585.752z"/>
	<circle fill="#F6B545" cx="477.219" cy="605.664" r="17.644"/>
</g>
<path fill="#FFCB5B" d="M477.219,588.021c-9.83,0-17.645,7.813-17.645,17.644s7.814,17.644,17.645,17.644
	s17.643-7.813,17.643-17.644S487.049,588.021,477.219,588.021z M477.219,618.267c-7.059,0-12.604-5.545-12.604-12.603
	s5.545-12.603,12.604-12.603c7.057,0,12.602,5.545,12.602,12.603S484.275,618.267,477.219,618.267z"/>
<path fill="#F6B545" d="M477.219,623.056L477.219,623.056c9.83,0.252,17.643-7.813,17.643-17.392h-0.252
	c-1.26,0-2.268,1.009-2.52,2.269c-0.504,3.528-2.27,6.806-4.789,9.074c-2.018,2.016-4.789,3.276-7.814,3.78
	C478.226,620.787,477.219,621.795,477.219,623.056z"/>
<path fill="#FFE27A" d="M477.219,588.273L477.219,588.273c-9.83-0.252-17.645,7.814-17.645,17.392h0.252
	c1.262,0,2.27-1.008,2.521-2.269c0.504-3.528,2.268-6.805,4.789-9.073c2.016-2.017,4.789-3.277,7.813-3.781
	C476.211,590.541,477.219,589.533,477.219,588.273z"/>
<path fill="#F19920" d="M466.381,607.429c0-7.058,5.545-12.603,12.602-12.603c3.025,0,5.797,1.008,8.066,3.024
	c-2.521-3.024-5.797-4.789-9.83-4.789c-7.059,0-12.604,5.545-12.604,12.603c0,4.033,1.766,7.31,4.537,9.578
	C467.388,613.226,466.381,610.453,466.381,607.429z"/>
<path fill="#FFCB5B" d="M484.779,613.478c-0.252,0-0.504,0-0.756-0.252c-0.504-0.504-0.504-1.261,0-1.765
	c1.512-1.512,2.27-3.78,2.27-5.797c0-0.756,0.504-1.26,1.26-1.26s1.26,0.504,1.26,1.26c0,2.772-1.008,5.545-2.773,7.562
	C485.535,613.478,485.031,613.478,484.779,613.478z"/>
<path fill="#F19920" d="M477.219,613.226c-1.512,0-2.521-1.008-2.521-2.521v-10.082c0-1.512,1.01-2.521,2.521-2.521
	s2.52,1.009,2.52,2.521v10.082C479.738,612.218,478.73,613.226,477.219,613.226z"/>
<path fill="#0E9347" d="M680.803,588.02H579.985c-2.773,0-5.041-2.269-5.041-5.041v-55.45c0-2.772,2.268-5.041,5.041-5.041h100.818
	c2.773,0,5.041,2.269,5.041,5.041v55.45C685.844,585.751,683.577,588.02,680.803,588.02z"/>
<path fill="#0D8944" d="M668.202,567.856c-5.797,0-11.09,2.772-14.115,7.31c-2.52-1.26-5.293-2.268-8.57-2.268
	c-8.82,0-16.131,6.553-17.391,15.122h52.678c2.521,0,4.537-1.764,5.041-4.284C684.837,574.913,677.274,567.856,668.202,567.856z"/>
<path fill="#3BB54A" d="M670.721,582.979h-80.654c0-5.545-4.537-10.081-10.082-10.081v-35.287c5.545,0,10.082-4.537,10.082-10.082
	h80.654c0,5.545,4.537,10.082,10.082,10.082v35.287C675.259,572.898,670.721,577.434,670.721,582.979z"/>
<g>
	<path fill="#0E9347" d="M668.202,567.856c-5.797,0-11.09,2.772-14.115,7.31c-2.52-1.26-5.293-2.268-8.57-2.268
		c-7.057,0-13.105,4.032-15.879,10.081h41.084c0-5.545,4.285-9.83,9.83-10.082C677.274,569.872,672.991,567.856,668.202,567.856z"/>
	<ellipse fill="#0E9347" cx="630.393" cy="555.254" rx="20.164" ry="22.684"/>
	<circle fill="#0E9347" cx="600.149" cy="555.254" r="5.041"/>
	<circle fill="#0E9347" cx="660.639" cy="555.254" r="5.041"/>
</g>
<path fill="#89C763" d="M632.915,552.734h-5.041c-1.512,0-2.521-1.009-2.521-2.521c0-1.513,1.01-2.521,2.521-2.521h7.561
	c1.514,0,2.521-1.009,2.521-2.521s-1.008-2.521-2.521-2.521h-2.52c0-1.512-1.008-2.521-2.521-2.521c-1.512,0-2.52,1.009-2.52,2.521
	c-4.285,0-7.561,3.276-7.561,7.562s3.275,7.562,7.561,7.562h5.041c1.512,0,2.52,1.008,2.52,2.521c0,1.512-1.008,2.521-2.52,2.521
	h-7.561c-1.514,0-2.521,1.008-2.521,2.521c0,1.512,1.008,2.52,2.521,2.52h2.52c0,1.513,1.008,2.521,2.52,2.521
	c1.514,0,2.521-1.008,2.521-2.521c4.285,0,7.561-3.276,7.561-7.561C640.475,556.01,637.2,552.734,632.915,552.734z"/>
<circle fill="#FFCA5D" cx="640.475" cy="590.54" r="17.644"/>
<circle fill="#F6B545" cx="663.161" cy="585.499" r="17.644"/>
<path fill="#FFCB5B" d="M663.161,567.856c-9.83,0-17.645,7.814-17.645,17.644c0,9.83,7.814,17.644,17.645,17.644
	s17.643-7.813,17.643-17.644C680.803,575.67,672.991,567.856,663.161,567.856z M663.161,598.102
	c-7.059,0-12.604-5.545-12.604-12.603c0-7.057,5.545-12.602,12.604-12.602c7.057,0,12.602,5.545,12.602,12.602
	C675.762,592.557,670.218,598.102,663.161,598.102z"/>
<path fill="#F6B545" d="M663.161,602.891L663.161,602.891c9.83,0.252,17.643-7.813,17.643-17.392h-0.252
	c-1.26,0-2.268,1.009-2.52,2.269c-0.504,3.529-2.27,6.806-4.789,9.074c-2.018,2.017-4.789,3.276-7.814,3.78
	C664.169,600.622,663.161,601.631,663.161,602.891z"/>
<path fill="#FFE27A" d="M663.161,568.109L663.161,568.109c-9.83-0.253-17.645,7.813-17.645,17.391h0.252
	c1.262,0,2.27-1.008,2.521-2.269c0.504-3.528,2.268-6.805,4.789-9.073c2.016-2.017,4.789-3.276,7.813-3.781
	C662.153,570.377,663.161,569.368,663.161,568.109z"/>
<path fill="#F19920" d="M652.323,587.264c0-7.058,5.545-12.603,12.602-12.603c3.025,0,5.797,1.009,8.066,3.024
	c-2.521-3.024-5.797-4.788-9.83-4.788c-7.059,0-12.604,5.545-12.604,12.602c0,4.033,1.766,7.31,4.537,9.578
	C653.331,593.061,652.323,590.288,652.323,587.264z"/>
<path fill="#FFCB5B" d="M670.721,593.313c-0.252,0-0.504,0-0.756-0.252c-0.504-0.504-0.504-1.26,0-1.764
	c1.512-1.513,2.27-3.781,2.27-5.798c0-0.756,0.504-1.26,1.26-1.26s1.26,0.504,1.26,1.26c0,2.772-1.008,5.545-2.773,7.562
	C671.477,593.313,670.973,593.313,670.721,593.313z"/>
<g>
	<path fill="#F19920" d="M663.161,593.061c-1.512,0-2.521-1.008-2.521-2.521v-10.081c0-1.513,1.01-2.521,2.521-2.521
		s2.52,1.008,2.52,2.521v10.081C665.68,592.053,664.673,593.061,663.161,593.061z"/>
	<path fill="#F19920" d="M672.487,600.37c-1.766-6.301-6.303-11.342-12.1-13.61c-1.008-5.798-4.789-10.838-9.578-13.862
		c-3.023,3.276-5.041,7.561-5.041,12.35c0,9.83,7.814,17.644,17.645,17.644C666.688,603.143,669.714,602.135,672.487,600.37z"/>
</g>
<g>
	<path fill="#E78825" d="M655.094,595.077c-1.764-2.269-3.023-5.041-3.023-8.065c0-3.528,1.512-6.806,4.031-9.073
		c-0.504-0.757-1.008-1.261-1.512-1.765c-2.52,2.269-4.033,5.545-4.033,9.326C650.557,589.532,652.323,592.809,655.094,595.077z"/>
	<path fill="#E78825" d="M660.639,587.012v3.528c0,1.513,1.01,2.521,2.521,2.521s2.52-1.008,2.52-2.521v-0.504
		C664.169,588.777,662.405,587.768,660.639,587.012z"/>
</g>
<path fill="#F6B545" d="M672.487,600.37c-0.506-1.765-1.01-3.276-2.018-4.789c-2.016,1.513-4.537,2.521-7.309,2.521
	c-7.059,0-12.604-5.545-12.604-12.603c0-3.78,1.514-7.058,4.033-9.326c-1.26-1.26-2.52-2.268-4.033-3.024
	c-3.023,3.276-5.041,7.562-5.041,12.351c0,9.83,7.814,17.644,17.645,17.644C666.688,603.143,669.714,602.135,672.487,600.37z"/>
<path fill="#F19920" d="M671.729,598.102c-1.764,1.261-4.031,2.017-6.301,2.521c-1.26,0.252-2.268,1.261-2.268,2.521l0,0
	c3.527,0,6.553-1.008,9.326-2.772C672.235,599.615,671.981,598.859,671.729,598.102z"/>
<path fill="#FFCB5B" d="M650.557,573.15c-3.023,3.276-5.041,7.562-5.041,12.35h0.252c1.262,0,2.27-1.008,2.521-2.269
	c0.504-3.528,2.268-6.553,4.537-8.821C652.071,574.157,651.315,573.654,650.557,573.15z"/>
<circle fill="#F6B545" cx="640.475" cy="590.54" r="17.644"/>
<path fill="#F19920" d="M637.956,603.143c0,1.765,0.252,3.276,0.756,5.041c0.504,0,1.26,0,1.764,0
	c9.83,0,17.645-7.813,17.645-17.644c0-1.764-0.252-3.276-0.756-5.041c-0.504,0-1.262,0-1.766,0
	C645.768,585.499,637.956,593.313,637.956,603.143z"/>
<path fill="#FFCB5B" d="M640.475,572.898c-9.83,0-17.643,7.813-17.643,17.643c0,9.83,7.813,17.644,17.643,17.644
	s17.645-7.813,17.645-17.644C658.12,580.711,650.305,572.898,640.475,572.898z M640.475,603.143
	c-7.057,0-12.602-5.545-12.602-12.603s5.545-12.603,12.602-12.603c7.059,0,12.604,5.545,12.604,12.603
	S647.534,603.143,640.475,603.143z"/>
<path fill="#F6B545" d="M640.475,607.932L640.475,607.932c9.83,0.252,17.645-7.813,17.645-17.392h-0.252
	c-1.262,0-2.27,1.009-2.521,2.269c-0.504,3.529-2.268,6.806-4.789,9.074c-2.016,2.017-4.789,3.276-7.813,3.78
	C641.485,605.663,640.475,606.671,640.475,607.932z"/>
<path fill="#FFE27A" d="M640.475,573.15L640.475,573.15c-9.83-0.252-17.643,7.813-17.643,17.391h0.252
	c1.26,0,2.268-1.008,2.52-2.269c0.504-3.528,2.27-6.805,4.789-9.073c2.018-2.017,4.789-3.276,7.814-3.781
	C639.468,575.417,640.475,574.409,640.475,573.15z"/>
<path fill="#F19920" d="M629.637,592.305c0-7.058,5.545-12.603,12.604-12.603c3.023,0,5.797,1.009,8.064,3.024
	c-2.52-3.024-5.797-4.788-9.83-4.788c-7.057,0-12.602,5.545-12.602,12.602c0,4.033,1.764,7.31,4.537,9.578
	C630.647,598.102,629.637,595.329,629.637,592.305z"/>
<path fill="#FFCB5B" d="M648.038,598.354c-0.252,0-0.504,0-0.756-0.252c-0.504-0.504-0.504-1.26,0-1.764
	c1.512-1.513,2.268-3.781,2.268-5.798c0-0.756,0.504-1.26,1.26-1.26c0.758,0,1.262,0.504,1.262,1.26c0,2.772-1.01,5.545-2.773,7.562
	C648.794,598.354,648.29,598.354,648.038,598.354z"/>
<path fill="#F19920" d="M640.475,598.102c-1.512,0-2.52-1.008-2.52-2.521V585.5c0-1.513,1.008-2.521,2.52-2.521
	c1.514,0,2.521,1.008,2.521,2.521v10.081C642.997,597.094,641.989,598.102,640.475,598.102z"/>
<g>
	<path fill="#F6B545" d="M652.071,585.751c0.504,1.513,1.008,3.025,1.008,4.789c0,7.058-5.545,12.603-12.604,12.603
		c-0.756,0-1.764,0-2.52-0.252v0.252c0,1.765,0.252,3.276,0.756,5.041c0.504,0,1.26,0,1.764,0c9.83,0,17.645-7.813,17.645-17.644
		c0-1.764-0.252-3.276-0.756-5.041c-0.504,0-1.26,0-1.766,0C654.339,585.499,653.331,585.499,652.071,585.751z"/>
	<circle fill="#F6B545" cx="653.079" cy="605.663" r="17.644"/>
</g>
<path fill="#FFCB5B" d="M653.079,588.02c-9.83,0-17.645,7.813-17.645,17.644s7.814,17.644,17.645,17.644s17.643-7.813,17.643-17.644
	S662.909,588.02,653.079,588.02z M653.079,618.266c-7.059,0-12.604-5.545-12.604-12.603s5.545-12.603,12.604-12.603
	c7.057,0,12.602,5.545,12.602,12.603S660.135,618.266,653.079,618.266z"/>
<path fill="#F6B545" d="M653.079,623.055L653.079,623.055c9.83,0.252,17.643-7.813,17.643-17.392h-0.252
	c-1.26,0-2.268,1.009-2.52,2.269c-0.504,3.528-2.27,6.806-4.789,9.074c-2.018,2.016-4.789,3.276-7.814,3.78
	C654.087,620.786,653.079,621.794,653.079,623.055z"/>
<path fill="#FFE27A" d="M653.079,588.272L653.079,588.272c-9.83-0.252-17.645,7.814-17.645,17.392h0.252
	c1.262,0,2.27-1.008,2.521-2.269c0.504-3.528,2.268-6.805,4.789-9.073c2.016-2.017,4.789-3.277,7.813-3.781
	C652.071,590.54,653.079,589.532,653.079,588.272z"/>
<path fill="#F19920" d="M642.241,607.428c0-7.058,5.545-12.603,12.602-12.603c3.025,0,5.797,1.008,8.066,3.024
	c-2.521-3.024-5.797-4.789-9.83-4.789c-7.059,0-12.604,5.545-12.604,12.603c0,4.033,1.766,7.31,4.537,9.578
	C643.249,613.225,642.241,610.452,642.241,607.428z"/>
<path fill="#FFCB5B" d="M660.639,613.477c-0.252,0-0.504,0-0.756-0.252c-0.504-0.504-0.504-1.261,0-1.765
	c1.512-1.512,2.27-3.78,2.27-5.797c0-0.756,0.504-1.26,1.26-1.26s1.26,0.504,1.26,1.26c0,2.772-1.008,5.545-2.773,7.562
	C661.395,613.477,660.891,613.477,660.639,613.477z"/>
<path fill="#F19920" d="M653.079,613.225c-1.512,0-2.521-1.008-2.521-2.521v-10.082c0-1.512,1.01-2.521,2.521-2.521
	s2.52,1.009,2.52,2.521v10.082C655.598,612.217,654.591,613.225,653.079,613.225z"/>
<path fill="#0E9347" d="M343.765,588.02H242.947c-2.772,0-5.041-2.269-5.041-5.041v-55.45c0-2.772,2.269-5.041,5.041-5.041h100.819
	c2.773,0,5.041,2.269,5.041,5.041v55.45C348.806,585.751,346.539,588.02,343.765,588.02z"/>
<path fill="#0D8944" d="M331.164,567.856c-5.797,0-11.09,2.772-14.115,7.31c-2.52-1.26-5.293-2.268-8.57-2.268
	c-8.82,0-16.131,6.553-17.391,15.122h52.678c2.521,0,4.537-1.764,5.041-4.284C347.799,574.913,340.236,567.856,331.164,567.856z"/>
<path fill="#3BB54A" d="M333.683,582.979h-80.655c0-5.545-4.537-10.081-10.082-10.081v-35.287c5.545,0,10.082-4.537,10.082-10.082
	h80.655c0,5.545,4.537,10.082,10.082,10.082v35.287C338.22,572.898,333.683,577.434,333.683,582.979z"/>
<g>
	<path fill="#0E9347" d="M331.164,567.856c-5.797,0-11.09,2.772-14.115,7.31c-2.52-1.26-5.293-2.268-8.57-2.268
		c-7.057,0-13.105,4.032-15.879,10.081h41.084c0-5.545,4.285-9.83,9.83-10.082C340.236,569.872,335.953,567.856,331.164,567.856z"/>
	<ellipse fill="#0E9347" cx="293.355" cy="555.254" rx="20.164" ry="22.684"/>
	<circle fill="#0E9347" cx="263.111" cy="555.254" r="5.041"/>
	<circle fill="#0E9347" cx="323.601" cy="555.254" r="5.041"/>
</g>
<path fill="#89C763" d="M295.877,552.734h-5.041c-1.512,0-2.521-1.009-2.521-2.521c0-1.513,1.01-2.521,2.521-2.521h7.561
	c1.514,0,2.521-1.009,2.521-2.521s-1.008-2.521-2.521-2.521h-2.52c0-1.512-1.008-2.521-2.521-2.521c-1.512,0-2.52,1.009-2.52,2.521
	c-4.285,0-7.561,3.276-7.561,7.562s3.275,7.562,7.561,7.562h5.041c1.512,0,2.52,1.008,2.52,2.521c0,1.512-1.008,2.521-2.52,2.521
	h-7.561c-1.514,0-2.521,1.008-2.521,2.521c0,1.512,1.008,2.52,2.521,2.52h2.52c0,1.513,1.008,2.521,2.52,2.521
	c1.514,0,2.521-1.008,2.521-2.521c4.285,0,7.561-3.276,7.561-7.561C303.437,556.01,300.162,552.734,295.877,552.734z"/>
<circle fill="#FFCA5D" cx="303.437" cy="590.54" r="17.644"/>
<circle fill="#F6B545" cx="326.123" cy="585.499" r="17.644"/>
<path fill="#FFCB5B" d="M326.123,567.856c-9.83,0-17.645,7.814-17.645,17.644c0,9.83,7.814,17.644,17.645,17.644
	s17.643-7.813,17.643-17.644C343.765,575.67,335.953,567.856,326.123,567.856z M326.123,598.102
	c-7.059,0-12.604-5.545-12.604-12.603c0-7.057,5.545-12.602,12.604-12.602c7.057,0,12.602,5.545,12.602,12.602
	C338.724,592.557,333.179,598.102,326.123,598.102z"/>
<path fill="#F6B545" d="M326.123,602.891L326.123,602.891c9.83,0.252,17.643-7.813,17.643-17.392h-0.252
	c-1.26,0-2.268,1.009-2.52,2.269c-0.504,3.529-2.27,6.806-4.789,9.074c-2.018,2.017-4.789,3.276-7.814,3.78
	C327.131,600.622,326.123,601.631,326.123,602.891z"/>
<path fill="#FFE27A" d="M326.123,568.109L326.123,568.109c-9.83-0.253-17.645,7.813-17.645,17.391h0.252
	c1.262,0,2.27-1.008,2.521-2.269c0.504-3.528,2.268-6.805,4.789-9.073c2.016-2.017,4.789-3.276,7.813-3.781
	C325.115,570.377,326.123,569.368,326.123,568.109z"/>
<path fill="#F19920" d="M315.285,587.264c0-7.058,5.545-12.603,12.602-12.603c3.025,0,5.797,1.009,8.066,3.024
	c-2.521-3.024-5.797-4.788-9.83-4.788c-7.059,0-12.604,5.545-12.604,12.602c0,4.033,1.766,7.31,4.537,9.578
	C316.293,593.061,315.285,590.288,315.285,587.264z"/>
<path fill="#FFCB5B" d="M333.683,593.313c-0.252,0-0.504,0-0.756-0.252c-0.504-0.504-0.504-1.26,0-1.764
	c1.512-1.513,2.27-3.781,2.27-5.798c0-0.756,0.504-1.26,1.26-1.26s1.26,0.504,1.26,1.26c0,2.772-1.008,5.545-2.773,7.562
	C334.439,593.313,333.935,593.313,333.683,593.313z"/>
<g>
	<path fill="#F19920" d="M326.123,593.061c-1.512,0-2.521-1.008-2.521-2.521v-10.081c0-1.513,1.01-2.521,2.521-2.521
		s2.52,1.008,2.52,2.521v10.081C328.642,592.053,327.635,593.061,326.123,593.061z"/>
	<path fill="#F19920" d="M335.449,600.37c-1.766-6.301-6.303-11.342-12.1-13.61c-1.008-5.798-4.789-10.838-9.578-13.862
		c-3.023,3.276-5.041,7.561-5.041,12.35c0,9.83,7.814,17.644,17.645,17.644C329.65,603.143,332.676,602.135,335.449,600.37z"/>
</g>
<g>
	<path fill="#E78825" d="M318.056,595.077c-1.764-2.269-3.023-5.041-3.023-8.065c0-3.528,1.512-6.806,4.031-9.073
		c-0.504-0.757-1.008-1.261-1.512-1.765c-2.52,2.269-4.033,5.545-4.033,9.326C313.519,589.532,315.285,592.809,318.056,595.077z"/>
	<path fill="#E78825" d="M323.601,587.012v3.528c0,1.513,1.01,2.521,2.521,2.521s2.52-1.008,2.52-2.521v-0.504
		C327.131,588.777,325.367,587.768,323.601,587.012z"/>
</g>
<path fill="#F6B545" d="M335.449,600.37c-0.506-1.765-1.01-3.276-2.018-4.789c-2.016,1.513-4.537,2.521-7.309,2.521
	c-7.059,0-12.604-5.545-12.604-12.603c0-3.78,1.514-7.058,4.033-9.326c-1.26-1.26-2.52-2.268-4.033-3.024
	c-3.023,3.276-5.041,7.562-5.041,12.351c0,9.83,7.814,17.644,17.645,17.644C329.65,603.143,332.676,602.135,335.449,600.37z"/>
<path fill="#F19920" d="M334.691,598.102c-1.764,1.261-4.031,2.017-6.301,2.521c-1.26,0.252-2.268,1.261-2.268,2.521l0,0
	c3.527,0,6.553-1.008,9.326-2.772C335.197,599.615,334.943,598.859,334.691,598.102z"/>
<path fill="#FFCB5B" d="M313.519,573.15c-3.023,3.276-5.041,7.562-5.041,12.35h0.252c1.262,0,2.27-1.008,2.521-2.269
	c0.504-3.528,2.268-6.553,4.537-8.821C315.033,574.157,314.277,573.654,313.519,573.15z"/>
<circle fill="#F6B545" cx="303.437" cy="590.54" r="17.644"/>
<path fill="#F19920" d="M300.918,603.143c0,1.765,0.252,3.276,0.756,5.041c0.504,0,1.26,0,1.764,0
	c9.83,0,17.645-7.813,17.645-17.644c0-1.764-0.252-3.276-0.756-5.041c-0.504,0-1.262,0-1.766,0
	C308.73,585.499,300.918,593.313,300.918,603.143z"/>
<path fill="#FFCB5B" d="M303.437,572.898c-9.83,0-17.643,7.813-17.643,17.643c0,9.83,7.813,17.644,17.643,17.644
	s17.645-7.813,17.645-17.644C321.082,580.711,313.267,572.898,303.437,572.898z M303.437,603.143
	c-7.057,0-12.602-5.545-12.602-12.603s5.545-12.603,12.602-12.603c7.059,0,12.604,5.545,12.604,12.603
	S310.496,603.143,303.437,603.143z"/>
<path fill="#F6B545" d="M303.437,607.932L303.437,607.932c9.83,0.252,17.645-7.813,17.645-17.392h-0.252
	c-1.262,0-2.27,1.009-2.521,2.269c-0.504,3.529-2.268,6.806-4.789,9.074c-2.016,2.017-4.789,3.276-7.813,3.78
	C304.447,605.663,303.437,606.671,303.437,607.932z"/>
<path fill="#FFE27A" d="M303.437,573.15L303.437,573.15c-9.83-0.252-17.643,7.813-17.643,17.391h0.252
	c1.26,0,2.268-1.008,2.52-2.269c0.504-3.528,2.27-6.805,4.789-9.073c2.018-2.017,4.789-3.276,7.814-3.781
	C302.429,575.417,303.437,574.409,303.437,573.15z"/>
<path fill="#F19920" d="M292.599,592.305c0-7.058,5.545-12.603,12.604-12.603c3.023,0,5.797,1.009,8.064,3.024
	c-2.52-3.024-5.797-4.788-9.83-4.788c-7.057,0-12.602,5.545-12.602,12.602c0,4.033,1.764,7.31,4.537,9.578
	C293.609,598.102,292.599,595.329,292.599,592.305z"/>
<path fill="#FFCB5B" d="M311,598.354c-0.252,0-0.504,0-0.756-0.252c-0.504-0.504-0.504-1.26,0-1.764
	c1.512-1.513,2.268-3.781,2.268-5.798c0-0.756,0.504-1.26,1.26-1.26c0.758,0,1.262,0.504,1.262,1.26c0,2.772-1.01,5.545-2.773,7.562
	C311.756,598.354,311.252,598.354,311,598.354z"/>
<path fill="#F19920" d="M303.437,598.102c-1.512,0-2.52-1.008-2.52-2.521V585.5c0-1.513,1.008-2.521,2.52-2.521
	c1.514,0,2.521,1.008,2.521,2.521v10.081C305.959,597.094,304.951,598.102,303.437,598.102z"/>
<g>
	<path fill="#F6B545" d="M315.033,585.751c0.504,1.513,1.008,3.025,1.008,4.789c0,7.058-5.545,12.603-12.604,12.603
		c-0.756,0-1.764,0-2.52-0.252v0.252c0,1.765,0.252,3.276,0.756,5.041c0.504,0,1.26,0,1.764,0c9.83,0,17.645-7.813,17.645-17.644
		c0-1.764-0.252-3.276-0.756-5.041c-0.504,0-1.26,0-1.766,0C317.301,585.499,316.293,585.499,315.033,585.751z"/>
	<circle fill="#F6B545" cx="316.041" cy="605.663" r="17.644"/>
</g>
<path fill="#FFCB5B" d="M316.041,588.02c-9.83,0-17.645,7.813-17.645,17.644s7.814,17.644,17.645,17.644s17.643-7.813,17.643-17.644
	S325.871,588.02,316.041,588.02z M316.041,618.266c-7.059,0-12.604-5.545-12.604-12.603s5.545-12.603,12.604-12.603
	c7.057,0,12.602,5.545,12.602,12.603S323.097,618.266,316.041,618.266z"/>
<path fill="#F6B545" d="M316.041,623.055L316.041,623.055c9.83,0.252,17.643-7.813,17.643-17.392h-0.252
	c-1.26,0-2.268,1.009-2.52,2.269c-0.504,3.528-2.27,6.806-4.789,9.074c-2.018,2.016-4.789,3.276-7.814,3.78
	C317.049,620.786,316.041,621.794,316.041,623.055z"/>
<path fill="#FFE27A" d="M316.041,588.272L316.041,588.272c-9.83-0.252-17.645,7.814-17.645,17.392h0.252
	c1.262,0,2.27-1.008,2.521-2.269c0.504-3.528,2.268-6.805,4.789-9.073c2.016-2.017,4.789-3.277,7.813-3.781
	C315.033,590.54,316.041,589.532,316.041,588.272z"/>
<path fill="#F19920" d="M305.203,607.428c0-7.058,5.545-12.603,12.602-12.603c3.025,0,5.797,1.008,8.066,3.024
	c-2.521-3.024-5.797-4.789-9.83-4.789c-7.059,0-12.604,5.545-12.604,12.603c0,4.033,1.766,7.31,4.537,9.578
	C306.211,613.225,305.203,610.452,305.203,607.428z"/>
<path fill="#FFCB5B" d="M323.601,613.477c-0.252,0-0.504,0-0.756-0.252c-0.504-0.504-0.504-1.261,0-1.765
	c1.512-1.512,2.27-3.78,2.27-5.797c0-0.756,0.504-1.26,1.26-1.26s1.26,0.504,1.26,1.26c0,2.772-1.008,5.545-2.773,7.562
	C324.357,613.477,323.853,613.477,323.601,613.477z"/>
<path fill="#F19920" d="M316.041,613.225c-1.512,0-2.521-1.008-2.521-2.521v-10.082c0-1.512,1.01-2.521,2.521-2.521
	s2.52,1.009,2.52,2.521v10.082C318.56,612.217,317.552,613.225,316.041,613.225z"/>
<g>
	<path d="M286.938,92.582c-0.191-0.19-0.286-0.407-0.286-0.65v-34.58c0-0.277,0.095-0.502,0.286-0.676
		c0.19-0.173,0.407-0.26,0.65-0.26h21.788c0.277,0,0.502,0.087,0.676,0.26c0.173,0.174,0.26,0.399,0.26,0.676v4.42
		c0,0.243-0.087,0.46-0.26,0.65c-0.174,0.191-0.399,0.286-0.676,0.286h-14.3c-0.347,0-0.65,0.122-0.91,0.364
		c-0.26,0.243-0.39,0.555-0.39,0.936V70.3c0,0.347,0.13,0.65,0.39,0.91c0.26,0.26,0.563,0.39,0.91,0.39h9.672
		c0.346,0,0.641,0.13,0.884,0.39c0.242,0.26,0.364,0.581,0.364,0.962v4.16c0,0.382-0.122,0.702-0.364,0.962
		c-0.243,0.26-0.538,0.39-0.884,0.39H294.66c-0.243,0-0.46,0.087-0.65,0.26c-0.191,0.174-0.286,0.399-0.286,0.676v12.532
		c0,0.243-0.087,0.459-0.26,0.65c-0.174,0.191-0.399,0.286-0.676,0.286h-5.2C287.345,92.868,287.129,92.773,286.938,92.582z"/>
	<path d="M313.277,92.66c-0.104-0.138-0.139-0.294-0.104-0.468l9.204-34.996c0.069-0.208,0.199-0.39,0.39-0.546
		c0.19-0.156,0.407-0.234,0.65-0.234h10.816c0.208,0,0.416,0.07,0.624,0.208c0.208,0.139,0.346,0.312,0.416,0.52l9.204,34.996v0.156
		c0,0.382-0.174,0.572-0.52,0.572h-5.096c-0.208,0-0.425-0.078-0.65-0.234c-0.226-0.156-0.356-0.338-0.39-0.546l-2.548-9.672
		c-0.07-0.312-0.243-0.572-0.52-0.78c-0.278-0.208-0.572-0.312-0.884-0.312h-10.088c-0.312,0-0.607,0.104-0.884,0.312
		c-0.278,0.208-0.451,0.468-0.52,0.78l-2.548,9.62c-0.035,0.243-0.165,0.442-0.39,0.598c-0.226,0.156-0.442,0.234-0.65,0.234h-5.096
		C313.519,92.868,313.381,92.799,313.277,92.66z M332.257,75.76c0.346,0,0.615-0.121,0.806-0.364c0.19-0.242,0.251-0.52,0.182-0.832
		l-2.912-10.712c-0.035-0.277-0.191-0.52-0.468-0.728c-0.278-0.208-0.572-0.312-0.884-0.312h-0.312
		c-0.312,0-0.607,0.104-0.884,0.312c-0.278,0.208-0.434,0.451-0.468,0.728l-2.86,10.712l-0.052,0.26c0,0.278,0.086,0.503,0.26,0.676
		c0.173,0.174,0.416,0.26,0.728,0.26H332.257z"/>
	<path d="M356.723,91.36c-2.791-0.866-4.758-1.82-5.902-2.86c-0.208-0.208-0.312-0.468-0.312-0.78c0-0.346,0.138-0.78,0.416-1.3
		c0.277-0.52,0.745-1.248,1.404-2.184c0.242-0.346,0.537-0.52,0.884-0.52c0.104,0,0.26,0.035,0.468,0.104
		c2.461,1.248,4.498,2.037,6.11,2.366c1.612,0.33,3.319,0.494,5.122,0.494c1.768,0,3.163-0.303,4.186-0.91
		c1.022-0.606,1.534-1.412,1.534-2.418c0-0.832-0.364-1.716-1.092-2.652c-0.451-0.589-1.17-1.083-2.158-1.482
		c-0.988-0.398-2.228-0.806-3.718-1.222c-0.174-0.034-0.624-0.156-1.352-0.364c-2.808-0.832-4.992-1.828-6.552-2.99
		c-1.56-1.161-2.6-2.626-3.12-4.394c-0.382-1.213-0.572-2.322-0.572-3.328c0-1.768,0.468-3.388,1.404-4.862
		c0.936-1.473,2.288-2.695,4.056-3.666c1.768-0.97,3.848-1.577,6.24-1.82c0.312-0.034,0.797-0.052,1.456-0.052
		c2.634,0,5.217,0.503,7.748,1.508c2.704,1.352,3.9,2.496,3.588,3.432c-0.208,0.52-0.616,1.17-1.222,1.95
		c-0.607,0.78-0.997,1.292-1.17,1.534c-0.104,0.139-0.26,0.208-0.468,0.208c-0.347,0-0.936-0.208-1.768-0.624
		c-1.11-0.52-2.028-0.849-2.756-0.988c-1.595-0.346-2.895-0.52-3.9-0.52c-1.11,0-2.236,0.191-3.38,0.572
		c-0.902,0.451-1.595,0.98-2.08,1.586c-0.486,0.607-0.728,1.24-0.728,1.898c0,0.971,0.485,1.82,1.456,2.548
		c1.074,0.763,2.227,1.404,3.458,1.924c1.23,0.52,2.608,1.058,4.134,1.612c1.664,0.624,3.007,1.188,4.03,1.69
		c1.022,0.503,1.863,1.17,2.522,2.002c0.693,0.659,1.274,1.595,1.742,2.808c0.468,1.214,0.702,2.375,0.702,3.484
		c0,1.942-0.52,3.623-1.56,5.044c-1.04,1.422-2.479,2.522-4.316,3.302c-1.838,0.78-3.952,1.17-6.344,1.17
		C362.243,92.66,359.513,92.227,356.723,91.36z"/>
	<path d="M392.343,90.788c-2.826-1.664-5.062-3.926-6.708-6.786c-1.647-2.86-2.47-5.988-2.47-9.386c0-3.362,0.823-6.474,2.47-9.334
		c1.646-2.86,3.882-5.13,6.708-6.812c2.825-1.681,5.902-2.522,9.23-2.522c2.6,0,5.078,0.52,7.436,1.56
		c2.357,1.04,4.402,2.531,6.137,4.472c0.207,0.208,0.311,0.434,0.311,0.676c0,0.208-0.121,0.434-0.363,0.676
		c-0.729,0.59-1.457,1.205-2.184,1.846c-0.729,0.642-1.231,1.084-1.508,1.326c-0.208,0.208-0.451,0.312-0.728,0.312
		c-0.243,0-0.468-0.104-0.676-0.312c-1.11-1.213-2.392-2.14-3.848-2.782c-1.456-0.641-2.981-0.962-4.576-0.962
		c-2.08,0-4.013,0.538-5.798,1.612c-1.786,1.075-3.198,2.514-4.238,4.316c-1.04,1.803-1.56,3.779-1.56,5.928
		c0,2.15,0.52,4.126,1.56,5.928c1.04,1.803,2.452,3.242,4.238,4.316c1.785,1.075,3.718,1.612,5.798,1.612
		c1.49,0,2.929-0.294,4.316-0.884c1.386-0.589,2.634-1.438,3.744-2.548c0.346-0.277,0.728-0.416,1.144-0.416
		c0.346,0,0.624,0.104,0.832,0.312c0.346,0.278,0.832,0.685,1.457,1.222c0.623,0.538,1.16,1.014,1.611,1.43
		c0.381,0.312,0.572,0.694,0.572,1.144c0,0.278-0.104,0.52-0.313,0.728c-1.734,1.872-3.753,3.311-6.058,4.316
		c-2.306,1.006-4.741,1.508-7.306,1.508C398.244,93.284,395.168,92.452,392.343,90.788z"/>
	<path d="M425.154,92.53c-0.19-0.19-0.286-0.407-0.286-0.65V57.352c0-0.277,0.104-0.511,0.313-0.702
		c0.208-0.19,0.433-0.286,0.676-0.286h5.408c0.242,0,0.459,0.096,0.649,0.286c0.19,0.191,0.286,0.425,0.286,0.702V91.88
		c0,0.243-0.087,0.46-0.26,0.65c-0.174,0.191-0.399,0.286-0.676,0.286h-5.408C425.578,92.816,425.344,92.721,425.154,92.53z"/>
	<path d="M441.248,92.66c-0.104-0.138-0.139-0.294-0.104-0.468l9.204-34.996c0.069-0.208,0.199-0.39,0.391-0.546
		c0.189-0.156,0.406-0.234,0.649-0.234h10.816c0.208,0,0.416,0.07,0.624,0.208c0.208,0.139,0.346,0.312,0.416,0.52l9.204,34.996
		v0.156c0,0.382-0.174,0.572-0.521,0.572h-5.096c-0.208,0-0.425-0.078-0.65-0.234c-0.226-0.156-0.355-0.338-0.39-0.546l-2.548-9.672
		c-0.07-0.312-0.243-0.572-0.521-0.78s-0.571-0.312-0.884-0.312h-10.088c-0.313,0-0.607,0.104-0.884,0.312
		c-0.278,0.208-0.451,0.468-0.521,0.78l-2.548,9.62c-0.035,0.243-0.165,0.442-0.39,0.598c-0.227,0.156-0.442,0.234-0.65,0.234
		h-5.096C441.49,92.868,441.351,92.799,441.248,92.66z M460.227,75.76c0.347,0,0.615-0.121,0.807-0.364
		c0.189-0.242,0.251-0.52,0.182-0.832l-2.912-10.712c-0.035-0.277-0.19-0.52-0.468-0.728c-0.278-0.208-0.572-0.312-0.884-0.312
		h-0.313c-0.312,0-0.606,0.104-0.884,0.312s-0.434,0.451-0.468,0.728l-2.86,10.712l-0.052,0.26c0,0.278,0.086,0.503,0.26,0.676
		c0.173,0.174,0.416,0.26,0.729,0.26H460.227z"/>
	<path d="M501.359,92.66c-0.104-0.138-0.139-0.294-0.104-0.468l9.204-34.996c0.069-0.208,0.199-0.39,0.391-0.546
		c0.189-0.156,0.406-0.234,0.649-0.234h10.816c0.208,0,0.416,0.07,0.624,0.208c0.208,0.139,0.346,0.312,0.416,0.52l9.204,34.996
		v0.156c0,0.382-0.174,0.572-0.521,0.572h-5.096c-0.208,0-0.425-0.078-0.65-0.234c-0.226-0.156-0.355-0.338-0.39-0.546l-2.548-9.672
		c-0.07-0.312-0.243-0.572-0.521-0.78s-0.571-0.312-0.884-0.312h-10.088c-0.313,0-0.607,0.104-0.884,0.312
		c-0.278,0.208-0.451,0.468-0.521,0.78l-2.548,9.62c-0.035,0.243-0.165,0.442-0.39,0.598c-0.227,0.156-0.442,0.234-0.65,0.234
		h-5.096C501.601,92.868,501.463,92.799,501.359,92.66z M520.339,75.76c0.347,0,0.615-0.121,0.807-0.364
		c0.189-0.242,0.251-0.52,0.182-0.832l-2.912-10.712c-0.035-0.277-0.19-0.52-0.468-0.728c-0.278-0.208-0.572-0.312-0.884-0.312
		h-0.313c-0.312,0-0.606,0.104-0.884,0.312s-0.434,0.451-0.468,0.728l-2.86,10.712l-0.052,0.26c0,0.278,0.086,0.503,0.26,0.676
		c0.173,0.174,0.416,0.26,0.729,0.26H520.339z"/>
	<path d="M540.281,92.504c-0.226-0.208-0.338-0.468-0.338-0.78V57.456c0-0.277,0.112-0.528,0.338-0.754
		c0.225-0.225,0.477-0.338,0.754-0.338h5.356c0.312,0,0.571,0.113,0.779,0.338c0.208,0.226,0.313,0.477,0.313,0.754V84.86
		c0,0.278,0.104,0.529,0.312,0.754c0.208,0.226,0.45,0.338,0.729,0.338h12.584c0.312,0,0.572,0.104,0.779,0.312
		c0.208,0.208,0.313,0.451,0.313,0.728v4.732c0,0.312-0.104,0.572-0.313,0.78c-0.207,0.208-0.468,0.312-0.779,0.312h-20.072
		C540.758,92.816,540.506,92.712,540.281,92.504z"/>
	<path d="M571.481,92.608c-0.122-0.138-0.182-0.294-0.182-0.468V63.956c0-0.312-0.13-0.598-0.391-0.858
		c-0.26-0.26-0.563-0.39-0.91-0.39h-8.735c-0.139,0-0.278-0.069-0.416-0.208c-0.139-0.138-0.208-0.277-0.208-0.416V57.04
		c0-0.173,0.06-0.312,0.182-0.416c0.121-0.104,0.269-0.156,0.442-0.156h27.456c0.208,0,0.381,0.07,0.52,0.208
		c0.139,0.139,0.208,0.295,0.208,0.468v4.888c0,0.174-0.069,0.33-0.208,0.468c-0.139,0.139-0.312,0.208-0.52,0.208h-8.632
		c-0.348,0-0.643,0.122-0.885,0.364c-0.242,0.243-0.363,0.538-0.363,0.884V92.14c0,0.174-0.062,0.33-0.183,0.468
		c-0.122,0.139-0.286,0.208-0.494,0.208h-6.188C571.767,92.816,571.602,92.747,571.481,92.608z"/>
	<path d="M591.216,92.66c-0.104-0.138-0.139-0.294-0.104-0.468l9.204-34.996c0.069-0.208,0.199-0.39,0.391-0.546
		c0.189-0.156,0.406-0.234,0.649-0.234h10.816c0.208,0,0.416,0.07,0.624,0.208c0.208,0.139,0.346,0.312,0.416,0.52l9.204,34.996
		v0.156c0,0.382-0.174,0.572-0.521,0.572H616.8c-0.208,0-0.425-0.078-0.65-0.234c-0.226-0.156-0.355-0.338-0.39-0.546l-2.548-9.672
		c-0.07-0.312-0.243-0.572-0.521-0.78s-0.571-0.312-0.884-0.312h-10.088c-0.313,0-0.607,0.104-0.884,0.312
		c-0.278,0.208-0.451,0.468-0.521,0.78l-2.548,9.62c-0.035,0.243-0.165,0.442-0.39,0.598c-0.227,0.156-0.442,0.234-0.65,0.234
		h-5.096C591.458,92.868,591.319,92.799,591.216,92.66z M610.195,75.76c0.347,0,0.615-0.121,0.807-0.364
		c0.189-0.242,0.251-0.52,0.182-0.832l-2.912-10.712c-0.035-0.277-0.19-0.52-0.468-0.728c-0.278-0.208-0.572-0.312-0.884-0.312
		h-0.313c-0.312,0-0.606,0.104-0.884,0.312s-0.434,0.451-0.468,0.728l-2.86,10.712l-0.052,0.26c0,0.278,0.086,0.503,0.26,0.676
		c0.173,0.174,0.416,0.26,0.729,0.26H610.195z"/>
</g>
</svg>
