<?xml version="1.0" encoding="utf-8"?>
<!-- Generator: Adobe Illustrator 16.0.0, SVG Export Plug-In . SVG Version: 6.00 Build 0)  -->
<!DOCTYPE svg PUBLIC "-//W3C//DTD SVG 1.1//EN" "http://www.w3.org/Graphics/SVG/1.1/DTD/svg11.dtd">
<svg version="1.1" id="Livello_1" xmlns="http://www.w3.org/2000/svg" xmlns:xlink="http://www.w3.org/1999/xlink" x="0px" y="0px"
	 width="900px" height="650px" viewBox="0 0 900 650" enable-background="new 0 0 900 650" xml:space="preserve">
<rect x="0" y="0" fill="#CD7F32" width="900" height="650"/>
<path fill="#39B54A" d="M618.166,326.748c0,93.283-75.617,168.9-168.897,168.9c-93.279,0-168.896-75.617-168.896-168.9
	c0-93.282,75.617-168.896,168.896-168.896C542.549,157.852,618.166,233.466,618.166,326.748z"/>
<circle fill="#CD7F32" cx="449.061" cy="302.459" r="93.68"/>
<g>
	<path fill="#40596B" d="M373.17,357.264l-32.233,55.873l37.62-1.996l17.092,33.58l29.818-51.693
		C404.102,387.5,385.756,374.635,373.17,357.264z"/>
	<path fill="#40596B" d="M525.138,356.987c-12.494,17.416-30.84,30.328-52.158,35.947l29.91,51.787l17.092-33.58l37.621,1.996
		L525.138,356.987z"/>
</g>
<circle fill="#75663F" cx="449.061" cy="302.459" r="67.903"/>
<path fill="#FFFFFF" d="M495.599,295.12c2.09-2.043,0.928-5.62-1.951-6.038l-26.799-3.901c-1.162-0.186-2.137-0.882-2.648-1.95
	l-11.982-24.291c-1.301-2.647-5.062-2.647-6.363,0l-11.936,24.291c-0.512,1.021-1.533,1.765-2.647,1.95l-26.799,3.901
	c-2.88,0.418-4.041,3.995-1.951,6.038l19.368,18.903c0.836,0.836,1.207,1.997,1.021,3.111l-4.552,26.66
	c-0.511,2.879,2.555,5.109,5.155,3.717l23.966-12.588c1.021-0.557,2.275-0.557,3.297,0l23.965,12.588
	c2.602,1.346,5.621-0.838,5.156-3.717l-4.598-26.66c-0.186-1.161,0.186-2.322,1.021-3.111L495.599,295.12z"/>
<g>
	<path d="M242.149,98.034c-0.728-0.78-0.208-1.82,1.508-4.264c0.416-0.521,0.832-0.624,1.353-0.416
		c5.564,2.86,8.684,2.86,11.232,2.86c5.044,0,7.228-2.652,4.628-5.98c-1.3-1.716-5.46-2.496-7.229-3.068
		c-5.46-1.612-8.632-3.796-9.672-7.384c-2.185-6.708,2.288-12.741,11.128-13.676c3.017-0.26,6.448,0.312,9.205,1.456
		c2.704,1.352,3.9,2.548,3.588,3.432c-0.416,0.988-1.664,2.496-2.393,3.484c-0.624,0.78-2.6-0.884-4.992-1.404
		c-2.028-0.416-4.316-0.988-7.28,0.052c-3.12,1.508-3.744,4.212-1.352,6.032c2.496,1.768,5.668,2.86,7.592,3.536
		c1.924,0.728,4.992,1.768,6.553,3.692c1.404,1.353,2.444,4.108,2.444,6.292c0,5.772-4.888,9.413-11.856,9.516
		C250.937,102.299,244.333,100.01,242.149,98.034z"/>
	<path d="M275.377,90.234l-0.104-0.26c-1.924-5.876-0.884-12.688,3.432-17.836c3.328-3.536,6.761-6.24,13.209-6.604h0.155
		c2.912-0.156,5.772,0.364,8.529,1.56c3.483,1.56,7.072,4.888,8.527,7.749c3.641,6.396,3.225,14.196-1.039,20.125
		c-1.612,2.288-3.484,4.108-6.604,5.772c-4.889,2.444-10.765,2.809-16.173,0.468C280.473,98.97,276.937,94.914,275.377,90.234z
		 M303.822,88.986c2.652-6.032,0-13.053-5.98-15.757c-4.472-1.976-9.672-1.092-13.104,2.236l-0.884,0.936
		c-4.212,5.148-3.588,12.688,1.456,16.849c3.692,3.12,8.84,3.692,13.053,1.561C301.274,93.146,303.094,90.702,303.822,88.986z"/>
	<path d="M325.609,101.675V73.489c0-0.624-0.624-1.248-1.3-1.248h-8.736c-0.313,0-0.624-0.312-0.624-0.624v-5.044
		c0-0.312,0.26-0.572,0.624-0.572h27.457c0.416,0,0.729,0.313,0.729,0.676v4.888c0,0.364-0.313,0.676-0.729,0.676h-8.633
		c-0.676,0-1.248,0.572-1.248,1.248v28.186c0,0.364-0.26,0.676-0.676,0.676h-6.188C325.87,102.35,325.609,102.038,325.609,101.675z"
		/>
	<path d="M362.736,101.675V73.489c0-0.624-0.624-1.248-1.3-1.248H352.7c-0.313,0-0.624-0.312-0.624-0.624v-5.044
		c0-0.312,0.26-0.572,0.624-0.572h27.457c0.416,0,0.729,0.313,0.729,0.676v4.888c0,0.364-0.313,0.676-0.729,0.676h-8.633
		c-0.676,0-1.248,0.572-1.248,1.248v28.186c0,0.364-0.26,0.676-0.676,0.676h-6.188C362.997,102.35,362.736,102.038,362.736,101.675z
		"/>
	<path d="M385.927,90.234l-0.104-0.26c-1.925-5.876-0.884-12.688,3.432-17.836c3.328-3.536,6.761-6.24,13.209-6.604h0.155
		c2.912-0.156,5.772,0.364,8.529,1.56c3.483,1.56,7.072,4.888,8.527,7.749c3.641,6.396,3.225,14.196-1.039,20.125
		c-1.612,2.288-3.484,4.108-6.604,5.772c-4.889,2.444-10.765,2.809-16.173,0.468C391.024,98.97,387.488,94.914,385.927,90.234z
		 M414.373,88.986c2.652-6.032,0-13.053-5.98-15.757c-4.472-1.976-9.672-1.092-13.104,2.236l-0.884,0.936
		c-4.212,5.148-3.588,12.688,1.456,16.849c3.692,3.12,8.84,3.692,13.053,1.561C411.825,93.146,413.645,90.702,414.373,88.986z"/>
	<path d="M453.059,101.414V66.885c0-0.52,0.468-0.988,0.987-0.988h5.408c0.521,0,0.937,0.468,0.937,0.988v34.529
		c0,0.52-0.416,0.936-0.937,0.936h-5.408C453.527,102.35,453.059,101.934,453.059,101.414z"/>
	<path d="M494.397,101.31v-3.9c0-0.988-0.052-2.132,1.925-3.536c5.044-3.172,12.845-8.736,14.093-12.636
		c0.728-2.288,0-5.044-1.561-6.812c-1.977-1.769-4.732-1.664-5.772-1.508c-1.56,0.364-3.016,0.988-5.044,2.808
		c-0.364,0.312-0.988,0.26-1.3,0.104c-0.884-0.624-2.496-1.404-3.433-1.976c-0.572-0.364-0.832-1.04-0.52-1.664
		c1.195-2.34,3.328-4.212,6.396-5.46c2.6-1.04,5.824-1.248,8.684-0.572c5.045,1.196,9.309,5.356,9.309,12.168
		c0,4.004-1.248,7.28-3.848,10.14c-2.652,2.964-5.564,4.889-8.269,6.448c-1.145,0.676-0.988,1.04,0.52,1.04l10.192-0.104
		c0.937,0,1.456,0.572,1.456,1.404v3.9c0,0.676-0.624,1.196-1.352,1.196h-20.489C494.71,102.35,494.397,102.038,494.397,101.31z"/>
	<path d="M525.389,83.942c0-10.14,6.448-18.149,14.717-18.149c1.819,0,3.38,0.313,4.783,0.78h-0.052
		c0.729,0.416,0.937,0.936,0.572,1.508v0.052c0,0-1.144,2.34-1.716,3.38c-0.469,0.832-0.988,0.78-3.017,0.728
		c-5.772,0-9.308,6.188-9.308,12.429c0,6.604,4.056,11.7,9.308,11.7c5.408,0,9.152-6.292,9.152-12.116
		c0-1.872-0.416-4.212-0.987-5.772c-0.209-0.416-0.469-0.988,0.052-1.872c0,0,2.08-3.276,2.6-4.16
		c0.261-0.52,0.78-0.468,1.093,0.104c2.235,3.38,3.38,7.28,3.38,11.492c0,10.296-6.813,18.564-15.289,18.564
		C531.941,102.61,525.389,94.602,525.389,83.942z"/>
	<path d="M562.933,83.942c0-10.14,6.448-18.149,14.716-18.149c1.82,0,3.381,0.313,4.785,0.78h-0.053
		c0.729,0.416,0.937,0.936,0.572,1.508v0.052c0,0-1.145,2.34-1.716,3.38c-0.468,0.832-0.988,0.78-3.017,0.728
		c-5.771,0-9.309,6.188-9.309,12.429c0,6.604,4.057,11.7,9.309,11.7c5.408,0,9.152-6.292,9.152-12.116
		c0-1.872-0.416-4.212-0.988-5.772c-0.207-0.416-0.468-0.988,0.053-1.872c0,0,2.08-3.276,2.6-4.16c0.26-0.52,0.78-0.468,1.092,0.104
		c2.236,3.38,3.381,7.28,3.381,11.492c0,10.296-6.813,18.564-15.289,18.564C569.485,102.61,562.933,94.602,562.933,83.942z"/>
	<path d="M622.991,82.486v-3.536c0-0.52,0.416-0.884,0.885-0.884h2.443c2.393-7.176,9.101-12.376,16.953-12.376
		c5.252,0,9.933,2.288,13.209,5.928c0.312,0.313,0.312,0.729-0.053,1.04l-3.64,3.12c-0.156,0.156-0.677,0.416-1.04,0
		c-2.133-2.288-5.148-3.744-8.477-3.744c-4.316,0-8.112,2.444-10.088,6.032h9.048c0.468,0,0.832,0.364,0.832,0.884v3.536
		c0,0.468-0.364,0.832-0.832,0.832h-18.356C623.407,83.318,622.991,82.954,622.991,82.486z M626.735,91.378h-2.859
		c-0.469,0-0.885-0.416-0.885-0.884v-3.536c0-0.468,0.416-0.884,0.885-0.884h18.356c0.468,0,0.832,0.416,0.832,0.884v3.536
		c0,0.468-0.364,0.884-0.832,0.884h-8.425c2.133,3.017,5.564,4.992,9.465,4.992c3.172,0,5.98-1.3,8.112-3.38
		c0.728-0.624,1.456-0.312,1.664-0.156c0.208,0.208,2.496,2.132,3.017,2.601c0.571,0.468,0.623,1.196,0.207,1.56
		c-3.224,3.536-7.852,5.721-13,5.721C635.784,102.715,629.387,98.034,626.735,91.378z"/>
</g>
</svg>
