<?xml version="1.0" encoding="utf-8"?>
<!-- Generator: Adobe Illustrator 16.0.0, SVG Export Plug-In . SVG Version: 6.00 Build 0)  -->
<!DOCTYPE svg PUBLIC "-//W3C//DTD SVG 1.1//EN" "http://www.w3.org/Graphics/SVG/1.1/DTD/svg11.dtd">
<svg version="1.1" id="Livello_1" xmlns="http://www.w3.org/2000/svg" xmlns:xlink="http://www.w3.org/1999/xlink" x="0px" y="0px"
	 width="900px" height="650px" viewBox="0 0 900 650" enable-background="new 0 0 900 650" xml:space="preserve">
<rect x="1.461" y="0" fill="#FFD700" width="898.539" height="650"/>
<path fill="#39B54A" d="M618.897,324.999c0,93.283-75.617,168.9-168.897,168.9c-93.279,0-168.896-75.617-168.896-168.9
	c0-93.282,75.617-168.896,168.896-168.896C543.28,156.102,618.897,231.717,618.897,324.999z"/>
<circle fill="#FFD15C" cx="449.792" cy="300.709" r="93.679"/>
<g>
	<path fill="#40596B" d="M373.901,355.514l-32.233,55.873l37.62-1.996l17.092,33.58l29.818-51.693
		C404.833,385.75,386.487,372.885,373.901,355.514z"/>
	<path fill="#40596B" d="M525.869,355.237c-12.494,17.416-30.84,30.328-52.158,35.947l29.911,51.787l17.092-33.58l37.62,1.996
		L525.869,355.237z"/>
</g>
<circle fill="#F8B64C" cx="449.792" cy="300.709" r="67.903"/>
<path fill="#FFFFFF" d="M496.33,293.371c2.09-2.043,0.929-5.62-1.951-6.038l-26.799-3.901c-1.161-0.186-2.136-0.882-2.647-1.95
	L452.95,257.19c-1.301-2.647-5.063-2.647-6.363,0l-11.936,24.291c-0.512,1.021-1.533,1.765-2.647,1.95l-26.799,3.901
	c-2.88,0.418-4.041,3.995-1.951,6.038l19.368,18.903c0.836,0.836,1.207,1.997,1.021,3.111l-4.552,26.66
	c-0.511,2.879,2.555,5.109,5.155,3.717l23.966-12.588c1.021-0.557,2.275-0.557,3.298,0l23.965,12.588
	c2.602,1.346,5.62-0.838,5.155-3.717l-4.598-26.66c-0.186-1.161,0.186-2.322,1.022-3.111L496.33,293.371z"/>
<g>
	<path d="M156.426,96.247c-1.05-1.125-0.3-2.625,2.175-6.15c0.6-0.75,1.2-0.9,1.95-0.6c8.025,4.125,12.524,4.125,16.199,4.125
		c7.275,0,10.425-3.825,6.675-8.625c-1.875-2.475-7.875-3.6-10.424-4.425c-7.875-2.325-12.45-5.475-13.95-10.65
		c-3.15-9.674,3.3-18.374,16.049-19.724c4.35-0.375,9.3,0.45,13.274,2.1c3.9,1.95,5.625,3.675,5.175,4.95
		c-0.6,1.425-2.4,3.6-3.45,5.025c-0.9,1.125-3.75-1.275-7.2-2.025c-2.925-0.6-6.225-1.425-10.5,0.075c-4.5,2.175-5.4,6.075-1.95,8.7
		c3.6,2.55,8.174,4.125,10.949,5.1c2.775,1.05,7.2,2.55,9.45,5.325c2.025,1.95,3.525,5.925,3.525,9.075
		c0,8.324-7.05,13.574-17.099,13.724C169.1,102.396,159.575,99.096,156.426,96.247z"/>
	<path d="M204.35,84.997l-0.15-0.375c-2.775-8.475-1.275-18.299,4.95-25.724c4.8-5.1,9.75-9,19.049-9.524h0.225
		c4.2-0.225,8.325,0.525,12.3,2.25c5.024,2.25,10.199,7.05,12.299,11.175c5.25,9.225,4.65,20.474-1.5,29.024
		c-2.325,3.3-5.025,5.925-9.524,8.325c-7.05,3.524-15.524,4.05-23.324,0.675C211.7,97.596,206.6,91.747,204.35,84.997z
		 M245.374,83.197c3.825-8.699,0-18.824-8.625-22.724c-6.45-2.85-13.949-1.575-18.899,3.225l-1.275,1.35
		c-6.075,7.425-5.175,18.299,2.1,24.299c5.325,4.5,12.75,5.325,18.824,2.25C241.698,89.197,244.323,85.672,245.374,83.197z"/>
	<path d="M266.973,101.121V51.399c0-0.75,0.6-1.35,1.35-1.35h17.474c9.225,0,16.574,7.425,16.574,16.574
		c0,9.225-7.35,16.574-16.574,16.574h-7.5c-1.125,0-1.875,0.3-1.875,1.5v16.424c0,0.75-0.6,1.35-1.35,1.35h-6.75
		C267.573,102.471,266.973,101.871,266.973,101.121z M285.798,73.597c3.825,0,6.975-3.075,6.975-6.975
		c0-3.825-3.15-6.899-6.975-6.899h-7.575c-1.275,0-1.8,0.525-1.8,1.5v12.375H285.798z"/>
	<path d="M313.398,101.197V51.323c0-0.75,0.675-1.35,1.425-1.35h15.75c9.449,0,17.099,7.35,17.099,16.649
		c0,5.325-2.699,9.975-6.675,13.125c-0.75,0.675-0.3,1.575-0.3,1.575l8.7,19.424c0.6,1.35,0.074,1.8-0.75,1.8h-6.6
		c-0.976,0-1.5,0-1.95-0.9c0,0-7.575-16.949-7.875-17.549c-0.225-0.6-0.6-0.75-2.024-0.825h-6c-1.425,0-1.95,0.3-1.95,1.425v16.5
		c0,0.75-0.675,1.35-1.425,1.35h-6C314.073,102.547,313.398,101.947,313.398,101.197z M330.573,73.597
		c3.899,0,7.124-3.15,7.124-6.975c0-3.9-3.225-6.975-7.124-6.975h-6.975c-0.9,0-1.351,0.45-1.351,1.5v11.25
		c0,0.75,0.45,1.2,1.125,1.2H330.573z"/>
	<path d="M358.697,101.572l13.274-50.473c0.226-0.6,0.825-1.125,1.5-1.125h15.6c0.675,0,1.275,0.525,1.5,1.05l13.274,50.473
		c0.15,0.6-0.225,1.05-0.75,1.05h-7.35c-0.6,0-1.35-0.525-1.5-1.125l-3.675-13.95c-0.225-0.9-1.125-1.575-2.024-1.575h-14.55
		c-0.9,0-1.8,0.675-2.025,1.575l-3.675,13.875c-0.149,0.675-0.899,1.2-1.5,1.2h-7.35
		C358.923,102.547,358.548,102.096,358.697,101.572z M386.221,77.872c1.05,0,1.649-0.825,1.425-1.725l-4.2-15.45
		c-0.149-0.825-1.05-1.5-1.949-1.5h-0.45c-0.9,0-1.8,0.675-1.95,1.5l-4.125,15.45c-0.225,0.9,0.301,1.725,1.351,1.725H386.221z"/>
	<path d="M448.997,101.121V51.323c0-0.75,0.675-1.425,1.425-1.425h7.8c0.75,0,1.35,0.675,1.35,1.425v49.798
		c0,0.75-0.6,1.35-1.35,1.35h-7.8C449.672,102.471,448.997,101.871,448.997,101.121z"/>
	<path d="M526.695,100.822V67.973c0-1.35-0.75-1.575-1.425-0.375l-6.975,11.549c-0.676,1.05-0.15,2.1,1.125,2.1h2.249
		c0.75,0,1.5,0.675,1.5,1.5v5.7c0,0.825-0.675,1.575-1.5,1.575h-12.599c-0.9,0-1.8-0.75-1.875-1.575l-0.976-4.875
		c-0.225-0.9,0.075-2.325,0.525-3.15l18.824-28.949c0.6-0.75,1.8-1.425,2.774-1.425h5.625c0.9,0,1.65,0.675,1.65,1.575v27.374
		c0,1.275,0.899,2.25,2.1,2.25h2.4c0.899,0,1.574,0.675,1.574,1.5v5.7c0,0.825-0.675,1.575-1.574,1.575h-2.4
		c-1.2,0-2.1,0.975-2.1,2.175v8.625c0,0.9-0.75,1.575-1.65,1.575h-5.625C527.445,102.396,526.695,101.721,526.695,100.822z"/>
	<path d="M554.22,75.923c0-14.625,9.3-26.174,21.225-26.174c2.625,0,4.875,0.45,6.899,1.125h-0.075
		c1.051,0.6,1.351,1.35,0.825,2.175v0.075c0,0-1.649,3.375-2.475,4.875c-0.675,1.2-1.425,1.125-4.35,1.05
		c-8.325,0-13.425,8.925-13.425,17.924c0,9.525,5.85,16.875,13.425,16.875c7.8,0,13.199-9.075,13.199-17.475
		c0-2.7-0.6-6.075-1.425-8.325c-0.3-0.6-0.675-1.425,0.075-2.7c0,0,2.999-4.725,3.749-6c0.375-0.75,1.125-0.675,1.575,0.15
		c3.225,4.875,4.875,10.5,4.875,16.574c0,14.85-9.824,26.774-22.049,26.774C563.671,102.846,554.22,91.297,554.22,75.923z"/>
	<path d="M608.369,75.923c0-14.625,9.3-26.174,21.225-26.174c2.625,0,4.875,0.45,6.899,1.125h-0.075
		c1.051,0.6,1.351,1.35,0.825,2.175v0.075c0,0-1.649,3.375-2.475,4.875c-0.675,1.2-1.425,1.125-4.35,1.05
		c-8.325,0-13.425,8.925-13.425,17.924c0,9.525,5.85,16.875,13.425,16.875c7.8,0,13.199-9.075,13.199-17.475
		c0-2.7-0.6-6.075-1.425-8.325c-0.3-0.6-0.675-1.425,0.075-2.7c0,0,2.999-4.725,3.749-6c0.375-0.75,1.125-0.675,1.575,0.15
		c3.225,4.875,4.875,10.5,4.875,16.574c0,14.85-9.824,26.774-22.049,26.774C617.819,102.846,608.369,91.297,608.369,75.923z"/>
	<path d="M694.993,73.823v-5.1c0-0.75,0.6-1.275,1.274-1.275h3.525c3.449-10.35,13.124-17.85,24.449-17.85
		c7.574,0,14.324,3.3,19.049,8.55c0.45,0.45,0.45,1.05-0.075,1.5l-5.25,4.5c-0.225,0.225-0.975,0.6-1.5,0
		c-3.074-3.3-7.424-5.4-12.224-5.4c-6.226,0-11.7,3.525-14.55,8.7h13.05c0.675,0,1.199,0.525,1.199,1.275v5.1
		c0,0.675-0.524,1.2-1.199,1.2h-26.475C695.593,75.023,694.993,74.498,694.993,73.823z M700.392,86.647h-4.125
		c-0.675,0-1.274-0.6-1.274-1.275v-5.1c0-0.675,0.6-1.275,1.274-1.275h26.475c0.675,0,1.199,0.6,1.199,1.275v5.1
		c0,0.675-0.524,1.275-1.199,1.275h-12.149c3.074,4.35,8.024,7.2,13.649,7.2c4.574,0,8.624-1.875,11.699-4.875
		c1.05-0.9,2.1-0.45,2.399-0.225c0.301,0.3,3.601,3.075,4.351,3.75c0.824,0.675,0.899,1.725,0.3,2.25
		c-4.65,5.1-11.325,8.25-18.749,8.25C713.442,102.996,704.218,96.247,700.392,86.647z"/>
</g>
</svg>
