<?xml version="1.0" encoding="utf-8"?>
<!-- Generator: Adobe Illustrator 16.0.0, SVG Export Plug-In . SVG Version: 6.00 Build 0)  -->
<!DOCTYPE svg PUBLIC "-//W3C//DTD SVG 1.1//EN" "http://www.w3.org/Graphics/SVG/1.1/DTD/svg11.dtd">
<svg version="1.1" id="Livello_1" xmlns="http://www.w3.org/2000/svg" xmlns:xlink="http://www.w3.org/1999/xlink" x="0px" y="0px"
	 width="900px" height="650px" viewBox="0 0 900 650" enable-background="new 0 0 900 650" xml:space="preserve">
<rect x="0" y="0" fill="#C0C0C0" width="900" height="650"/>
<path fill="#F28D3A" d="M631.15,324.99c0,93.282-75.617,168.899-168.896,168.899S293.357,418.272,293.357,324.99
	c0-93.281,75.617-168.896,168.896-168.896S631.15,231.708,631.15,324.99z"/>
<path fill="#EE7526" d="M629.371,349.391l-76.059-76.062l-3.791-3.789c-6.014-5.462-13.422-9.739-21.717-12.405L503.1,232.433
	c-2.438-2.437-5.814-3.957-9.504-3.957h-43.434H415.49c-7.41,0-13.465,6.053-13.465,13.462v166.1c0,3.548,1.374,6.759,3.642,9.175
	l0.653,0.646l74.948,74.939C557.545,484.241,618.436,424.924,629.371,349.391z"/>
<path fill="#364A5E" d="M493.602,228.48h-78.125c-7.393,0-13.455,6.056-13.455,13.462v166.104c0,7.402,6.063,13.46,13.455,13.46
	H493.6c7.399,0,13.451-6.058,13.451-13.46V241.943C507.052,234.534,501,228.48,493.602,228.48z"/>
<rect x="409.641" y="257.653" fill="#CEE2F2" width="89.785" height="134.662"/>
<polygon fill="#F3F9FE" points="409.641,392.326 409.641,257.656 499.434,257.656 "/>
<path fill="#293A4D" d="M457.924,243.064c0,1.871-1.508,3.385-3.387,3.385c-1.863,0-3.385-1.514-3.385-3.385
	c0-1.869,1.521-3.387,3.385-3.387C456.416,239.678,457.924,241.195,457.924,243.064z"/>
<g>
	<path fill="#5E6E7E" d="M455.895,243.06c0,0.75-0.609,1.354-1.357,1.354c-0.742,0-1.354-0.604-1.354-1.354
		c0-0.744,0.608-1.355,1.354-1.355C455.285,241.704,455.895,242.316,455.895,243.06z"/>
	<path fill="#5E6E7E" d="M446.213,411.161c-2.038,0-3.691-1.651-3.691-3.694v-1.101c0-2.044,1.653-3.696,3.691-3.696h16.646
		c2.035,0,3.693,1.652,3.693,3.696v1.101c0,2.043-1.654,3.694-3.693,3.694H446.213z"/>
</g>
<path fill="#293A4D" d="M465.5,407.466c0,1.46-1.186,2.645-2.639,2.645h-16.646c-1.453,0-2.643-1.185-2.643-2.645v-1.1
	c0-1.447,1.188-2.646,2.643-2.646h16.646c1.453,0,2.639,1.197,2.639,2.646V407.466z"/>
<path fill="#C1D356" d="M565.67,304.415c0,27.818-25.936,50.378-57.904,50.378c-31.984,0-57.913-22.561-57.913-50.378
	c0-27.821,25.929-50.379,57.913-50.379C539.734,254.037,565.67,276.597,565.67,304.415z"/>
<path fill="#F3F9FE" d="M505.344,330.418c-7.787-0.605-13.611-3.7-17.613-7.859l4.986-6.883c2.799,3.104,7.184,5.977,12.627,6.813
	v-14.675c-7.787-1.955-15.953-4.763-15.953-14.589c0-7.709,6.201-13.831,15.953-14.66v-6.96h6.039v7.031
	c6.129,0.675,11.268,3.1,15.201,6.878l-4.986,6.581c-2.877-2.872-6.504-4.618-10.215-5.373v13.082
	c7.861,2.036,16.412,4.998,16.412,15.114c0,7.714-5.064,14.518-16.412,15.501v6.801h-6.039V330.418L505.344,330.418z
	 M505.344,298.22v-11.875c-4.236,0.529-6.885,2.881-6.885,6.202C498.459,295.5,501.34,297.004,505.344,298.22z M511.383,309.4
	v13.161c5.227-0.762,7.338-3.856,7.338-6.808C518.719,312.355,515.551,310.69,511.383,309.4z"/>
<polygon fill="#C1D356" points="448.436,361.222 475.918,346.285 463.365,333.735 "/>
<path fill="#DAE5A1" d="M461.307,300.125c-0.267,0-0.541-0.034-0.813-0.102c-1.887-0.446-3.053-2.338-2.604-4.222
	c3.07-12.936,13.225-24.209,27.17-30.155c1.785-0.765,3.846,0.065,4.607,1.848c0.758,1.792-0.072,3.845-1.854,4.607
	c-11.906,5.075-20.541,14.541-23.092,25.314C464.338,299.035,462.898,300.125,461.307,300.125z"/>
<path fill="#0E9347" d="M429.813,588.269H328.994c-2.771,0-5.041-2.269-5.041-5.041v-55.45c0-2.771,2.27-5.041,5.041-5.041h100.819
	c2.773,0,5.041,2.27,5.041,5.041v55.45C434.854,586,432.588,588.269,429.813,588.269z"/>
<path fill="#0D8944" d="M417.213,568.105c-5.797,0-11.09,2.772-14.115,7.31c-2.521-1.26-5.293-2.268-8.57-2.268
	c-8.819,0-16.131,6.553-17.391,15.122h52.678c2.521,0,4.537-1.764,5.041-4.284C433.846,575.161,426.284,568.105,417.213,568.105z"/>
<path fill="#3BB54A" d="M419.731,583.228h-80.655c0-5.545-4.537-10.081-10.082-10.081V537.86c5.545,0,10.082-4.537,10.082-10.082
	h80.655c0,5.545,4.537,10.082,10.082,10.082v35.287C424.268,573.147,419.731,577.683,419.731,583.228z"/>
<g>
	<path fill="#0E9347" d="M417.213,568.105c-5.797,0-11.09,2.772-14.115,7.31c-2.521-1.26-5.293-2.268-8.57-2.268
		c-7.057,0-13.104,4.032-15.879,10.081h41.084c0-5.545,4.285-9.83,9.83-10.082C426.284,570.12,422.002,568.105,417.213,568.105z"/>
	<ellipse fill="#0E9347" cx="379.403" cy="555.503" rx="20.164" ry="22.684"/>
	<circle fill="#0E9347" cx="349.158" cy="555.503" r="5.041"/>
	<circle fill="#0E9347" cx="409.649" cy="555.503" r="5.041"/>
</g>
<path fill="#89C763" d="M381.925,552.983h-5.041c-1.512,0-2.521-1.009-2.521-2.521c0-1.514,1.01-2.521,2.521-2.521h7.561
	c1.515,0,2.521-1.009,2.521-2.521c0-1.513-1.008-2.521-2.521-2.521h-2.52c0-1.512-1.008-2.521-2.521-2.521
	c-1.512,0-2.52,1.009-2.52,2.521c-4.285,0-7.562,3.276-7.562,7.563c0,4.285,3.276,7.562,7.562,7.562h5.041
	c1.512,0,2.52,1.008,2.52,2.521c0,1.512-1.008,2.521-2.52,2.521h-7.562c-1.513,0-2.521,1.008-2.521,2.521
	c0,1.512,1.008,2.52,2.521,2.52h2.521c0,1.513,1.008,2.521,2.52,2.521c1.515,0,2.521-1.009,2.521-2.521
	c4.285,0,7.561-3.275,7.561-7.561C389.485,556.259,386.211,552.983,381.925,552.983z"/>
<circle fill="#FFCA5D" cx="389.485" cy="590.789" r="17.644"/>
<circle fill="#F6B545" cx="412.172" cy="585.748" r="17.644"/>
<path fill="#FFCB5B" d="M412.172,568.105c-9.83,0-17.646,7.814-17.646,17.644c0,9.83,7.814,17.645,17.646,17.645
	s17.643-7.813,17.643-17.645C429.813,575.919,422.002,568.105,412.172,568.105z M412.172,598.351
	c-7.06,0-12.604-5.545-12.604-12.603s5.545-12.603,12.604-12.603c7.057,0,12.602,5.545,12.602,12.603
	C424.772,592.806,419.227,598.351,412.172,598.351z"/>
<path fill="#F6B545" d="M412.172,603.14L412.172,603.14c9.83,0.252,17.643-7.813,17.643-17.392h-0.252
	c-1.26,0-2.268,1.009-2.52,2.269c-0.505,3.529-2.271,6.806-4.789,9.074c-2.019,2.017-4.789,3.275-7.814,3.779
	C413.178,600.87,412.172,601.88,412.172,603.14z"/>
<path fill="#FFE27A" d="M412.172,568.358L412.172,568.358c-9.83-0.253-17.646,7.813-17.646,17.391h0.252
	c1.263,0,2.271-1.008,2.521-2.269c0.504-3.528,2.268-6.805,4.789-9.073c2.016-2.017,4.789-3.275,7.813-3.78
	C411.163,570.626,412.172,569.616,412.172,568.358z"/>
<path fill="#F19920" d="M401.334,587.513c0-7.058,5.545-12.604,12.602-12.604c3.025,0,5.797,1.01,8.066,3.024
	c-2.521-3.024-5.798-4.788-9.83-4.788c-7.06,0-12.604,5.545-12.604,12.602c0,4.033,1.767,7.311,4.537,9.578
	C402.341,593.31,401.334,590.536,401.334,587.513z"/>
<path fill="#FFCB5B" d="M419.731,593.562c-0.252,0-0.504,0-0.756-0.252c-0.504-0.504-0.504-1.26,0-1.764
	c1.512-1.514,2.27-3.781,2.27-5.798c0-0.757,0.505-1.261,1.261-1.261s1.26,0.504,1.26,1.261c0,2.771-1.008,5.545-2.773,7.562
	C420.487,593.562,419.983,593.562,419.731,593.562z"/>
<g>
	<path fill="#F19920" d="M412.172,593.31c-1.513,0-2.521-1.008-2.521-2.521v-10.081c0-1.514,1.011-2.521,2.521-2.521
		s2.52,1.008,2.52,2.521v10.081C414.69,592.302,413.682,593.31,412.172,593.31z"/>
	<path fill="#F19920" d="M421.498,600.618c-1.767-6.301-6.304-11.342-12.101-13.609c-1.008-5.798-4.789-10.838-9.578-13.862
		c-3.022,3.276-5.041,7.561-5.041,12.35c0,9.83,7.814,17.645,17.646,17.645C415.698,603.392,418.723,602.384,421.498,600.618z"/>
</g>
<g>
	<path fill="#E78825" d="M404.104,595.325c-1.764-2.269-3.022-5.041-3.022-8.064c0-3.528,1.512-6.807,4.03-9.073
		c-0.504-0.757-1.008-1.261-1.512-1.765c-2.52,2.269-4.033,5.545-4.033,9.325C399.567,589.781,401.334,593.058,404.104,595.325z"/>
	<path fill="#E78825" d="M409.649,587.261v3.528c0,1.513,1.01,2.521,2.521,2.521c1.511,0,2.52-1.008,2.52-2.521v-0.505
		C413.178,589.026,411.416,588.017,409.649,587.261z"/>
</g>
<path fill="#F6B545" d="M421.498,600.618c-0.507-1.765-1.011-3.275-2.019-4.789c-2.016,1.514-4.537,2.521-7.309,2.521
	c-7.06,0-12.604-5.545-12.604-12.604c0-3.779,1.515-7.058,4.033-9.325c-1.26-1.261-2.521-2.269-4.033-3.024
	c-3.022,3.276-5.041,7.563-5.041,12.351c0,9.83,7.814,17.645,17.646,17.645C415.698,603.392,418.723,602.384,421.498,600.618z"/>
<path fill="#F19920" d="M420.739,598.351c-1.764,1.261-4.03,2.017-6.301,2.521c-1.26,0.253-2.268,1.262-2.268,2.521l0,0
	c3.526,0,6.553-1.008,9.326-2.771C421.245,599.863,420.991,599.108,420.739,598.351z"/>
<path fill="#FFCB5B" d="M399.567,573.399c-3.022,3.276-5.041,7.563-5.041,12.35h0.252c1.263,0,2.271-1.008,2.521-2.269
	c0.504-3.528,2.268-6.553,4.537-8.821C401.082,574.406,400.325,573.903,399.567,573.399z"/>
<circle fill="#F6B545" cx="389.485" cy="590.789" r="17.644"/>
<path fill="#F19920" d="M386.966,603.392c0,1.765,0.252,3.276,0.756,5.041c0.504,0,1.26,0,1.764,0
	c9.83,0,17.646-7.813,17.646-17.644c0-1.765-0.252-3.276-0.756-5.041c-0.505,0-1.263,0-1.767,0
	C394.778,585.748,386.966,593.562,386.966,603.392z"/>
<path fill="#FFCB5B" d="M389.485,573.147c-9.83,0-17.643,7.813-17.643,17.643c0,9.83,7.813,17.645,17.643,17.645
	s17.646-7.813,17.646-17.645C407.131,580.96,399.315,573.147,389.485,573.147z M389.485,603.392
	c-7.057,0-12.602-5.545-12.602-12.604c0-7.058,5.545-12.603,12.602-12.603c7.06,0,12.604,5.545,12.604,12.603
	C402.09,597.847,396.545,603.392,389.485,603.392z"/>
<path fill="#F6B545" d="M389.485,608.181L389.485,608.181c9.83,0.252,17.646-7.813,17.646-17.393h-0.252
	c-1.263,0-2.271,1.01-2.521,2.27c-0.504,3.529-2.268,6.806-4.789,9.074c-2.016,2.017-4.789,3.275-7.813,3.779
	C390.495,605.911,389.485,606.92,389.485,608.181z"/>
<path fill="#FFE27A" d="M389.485,573.399L389.485,573.399c-9.83-0.252-17.643,7.813-17.643,17.391h0.253
	c1.26,0,2.268-1.008,2.52-2.269c0.504-3.528,2.27-6.805,4.789-9.073c2.019-2.017,4.789-3.275,7.814-3.78
	C388.477,575.666,389.485,574.657,389.485,573.399z"/>
<path fill="#F19920" d="M378.647,592.554c0-7.058,5.545-12.604,12.604-12.604c3.022,0,5.797,1.01,8.063,3.024
	c-2.52-3.024-5.797-4.788-9.83-4.788c-7.057,0-12.602,5.545-12.602,12.602c0,4.033,1.764,7.311,4.537,9.578
	C379.657,598.351,378.647,595.577,378.647,592.554z"/>
<path fill="#FFCB5B" d="M397.048,598.603c-0.252,0-0.504,0-0.756-0.252c-0.504-0.504-0.504-1.26,0-1.764
	c1.512-1.514,2.268-3.781,2.268-5.798c0-0.757,0.504-1.261,1.26-1.261c0.758,0,1.263,0.504,1.263,1.261
	c0,2.771-1.011,5.545-2.773,7.562C397.803,598.603,397.3,598.603,397.048,598.603z"/>
<path fill="#F19920" d="M389.485,598.351c-1.512,0-2.52-1.008-2.52-2.521v-10.081c0-1.514,1.008-2.521,2.52-2.521
	c1.515,0,2.521,1.008,2.521,2.521v10.081C392.007,597.343,391,598.351,389.485,598.351z"/>
<g>
	<path fill="#F6B545" d="M401.082,586c0.504,1.513,1.008,3.024,1.008,4.789c0,7.058-5.545,12.603-12.604,12.603
		c-0.756,0-1.764,0-2.52-0.252v0.252c0,1.765,0.252,3.276,0.756,5.041c0.504,0,1.26,0,1.764,0c9.83,0,17.646-7.813,17.646-17.644
		c0-1.765-0.252-3.276-0.756-5.041c-0.505,0-1.261,0-1.767,0C403.348,585.748,402.341,585.748,401.082,586z"/>
	<circle fill="#F6B545" cx="402.09" cy="605.912" r="17.644"/>
</g>
<path fill="#FFCB5B" d="M402.09,588.269c-9.83,0-17.646,7.813-17.646,17.644c0,9.831,7.814,17.645,17.646,17.645
	s17.643-7.813,17.643-17.645C419.732,596.082,411.92,588.269,402.09,588.269z M402.09,618.515c-7.06,0-12.604-5.545-12.604-12.604
	c0-7.058,5.545-12.603,12.604-12.603c7.057,0,12.602,5.545,12.602,12.603C414.691,612.97,409.145,618.515,402.09,618.515z"/>
<path fill="#F6B545" d="M402.09,623.304L402.09,623.304c9.83,0.252,17.643-7.813,17.643-17.393h-0.252c-1.26,0-2.268,1.01-2.52,2.27
	c-0.504,3.528-2.271,6.806-4.789,9.074c-2.019,2.016-4.789,3.275-7.814,3.779C403.096,621.034,402.09,622.043,402.09,623.304z"/>
<path fill="#FFE27A" d="M402.09,588.521L402.09,588.521c-9.83-0.252-17.646,7.814-17.646,17.392h0.252
	c1.263,0,2.271-1.008,2.521-2.269c0.504-3.528,2.268-6.805,4.789-9.073c2.016-2.017,4.789-3.276,7.813-3.78
	C401.082,590.789,402.09,589.781,402.09,588.521z"/>
<path fill="#F19920" d="M391.252,607.677c0-7.059,5.545-12.604,12.602-12.604c3.025,0,5.797,1.009,8.066,3.024
	c-2.521-3.024-5.797-4.789-9.83-4.789c-7.06,0-12.604,5.545-12.604,12.603c0,4.033,1.767,7.311,4.537,9.578
	C392.259,613.474,391.252,610.7,391.252,607.677z"/>
<path fill="#FFCB5B" d="M409.649,613.726c-0.252,0-0.504,0-0.756-0.252c-0.504-0.504-0.504-1.261,0-1.765
	c1.512-1.513,2.27-3.78,2.27-5.798c0-0.756,0.505-1.26,1.261-1.26s1.26,0.504,1.26,1.26c0,2.772-1.008,5.546-2.773,7.563
	C410.405,613.726,409.901,613.726,409.649,613.726z"/>
<path fill="#F19920" d="M402.09,613.474c-1.513,0-2.521-1.008-2.521-2.521v-10.081c0-1.513,1.011-2.521,2.521-2.521
	s2.52,1.009,2.52,2.521v10.081C404.608,612.466,403.6,613.474,402.09,613.474z"/>
<path fill="#0E9347" d="M595.105,588.018H494.287c-2.772,0-5.041-2.269-5.041-5.041v-55.45c0-2.771,2.269-5.041,5.041-5.041h100.818
	c2.772,0,5.041,2.27,5.041,5.041v55.45C600.146,585.748,597.879,588.018,595.105,588.018z"/>
<path fill="#0D8944" d="M582.504,567.854c-5.797,0-11.09,2.772-14.114,7.311c-2.521-1.261-5.293-2.269-8.57-2.269
	c-8.82,0-16.131,6.553-17.391,15.122h52.678c2.521,0,4.537-1.764,5.041-4.284C599.139,574.91,591.576,567.854,582.504,567.854z"/>
<path fill="#3BB54A" d="M585.023,582.977h-80.654c0-5.545-4.537-10.081-10.082-10.081v-35.287c5.545,0,10.082-4.537,10.082-10.082
	h80.654c0,5.545,4.537,10.082,10.082,10.082v35.287C589.561,572.896,585.023,577.432,585.023,582.977z"/>
<g>
	<path fill="#0E9347" d="M582.504,567.854c-5.797,0-11.09,2.772-14.114,7.311c-2.521-1.261-5.293-2.269-8.57-2.269
		c-7.057,0-13.105,4.032-15.879,10.081h41.084c0-5.545,4.285-9.83,9.83-10.082C591.576,569.869,587.293,567.854,582.504,567.854z"/>
	<ellipse fill="#0E9347" cx="544.695" cy="555.252" rx="20.164" ry="22.684"/>
	<circle fill="#0E9347" cx="514.451" cy="555.252" r="5.041"/>
	<circle fill="#0E9347" cx="574.941" cy="555.252" r="5.041"/>
</g>
<path fill="#89C763" d="M547.217,552.732h-5.041c-1.512,0-2.521-1.009-2.521-2.521c0-1.514,1.01-2.521,2.521-2.521h7.562
	c1.514,0,2.521-1.009,2.521-2.521c0-1.513-1.008-2.521-2.521-2.521h-2.521c0-1.512-1.008-2.521-2.521-2.521
	c-1.512,0-2.521,1.009-2.521,2.521c-4.284,0-7.561,3.276-7.561,7.563s3.275,7.562,7.561,7.562h5.041
	c1.513,0,2.521,1.008,2.521,2.521c0,1.512-1.008,2.521-2.521,2.521h-7.561c-1.514,0-2.521,1.008-2.521,2.521
	c0,1.512,1.009,2.52,2.521,2.52h2.52c0,1.513,1.009,2.521,2.521,2.521c1.514,0,2.521-1.009,2.521-2.521
	c4.285,0,7.562-3.276,7.562-7.561C554.777,556.008,551.502,552.732,547.217,552.732z"/>
<circle fill="#FFCA5D" cx="554.777" cy="590.538" r="17.644"/>
<circle fill="#F6B545" cx="577.463" cy="585.497" r="17.644"/>
<path fill="#FFCB5B" d="M577.463,567.854c-9.83,0-17.645,7.814-17.645,17.645c0,9.829,7.813,17.644,17.645,17.644
	s17.644-7.813,17.644-17.644C595.105,575.668,587.293,567.854,577.463,567.854z M577.463,598.1c-7.059,0-12.604-5.545-12.604-12.604
	c0-7.057,5.545-12.602,12.604-12.602c7.058,0,12.603,5.545,12.603,12.602C590.064,592.555,584.52,598.1,577.463,598.1z"/>
<path fill="#F6B545" d="M577.463,602.889L577.463,602.889c9.83,0.252,17.644-7.813,17.644-17.393h-0.252
	c-1.26,0-2.269,1.01-2.521,2.27c-0.504,3.529-2.27,6.806-4.789,9.074c-2.018,2.017-4.789,3.275-7.813,3.779
	C578.471,600.619,577.463,601.629,577.463,602.889z"/>
<path fill="#FFE27A" d="M577.463,568.107L577.463,568.107c-9.83-0.253-17.645,7.813-17.645,17.392h0.252
	c1.262,0,2.27-1.009,2.521-2.27c0.505-3.528,2.269-6.805,4.789-9.073c2.017-2.017,4.789-3.275,7.813-3.78
	C576.455,570.375,577.463,569.365,577.463,568.107z"/>
<path fill="#F19920" d="M566.625,587.262c0-7.059,5.545-12.604,12.603-12.604c3.024,0,5.797,1.01,8.065,3.024
	c-2.521-3.024-5.797-4.788-9.83-4.788c-7.059,0-12.604,5.545-12.604,12.602c0,4.033,1.766,7.311,4.537,9.578
	C567.633,593.059,566.625,590.285,566.625,587.262z"/>
<path fill="#FFCB5B" d="M585.023,593.311c-0.252,0-0.504,0-0.756-0.252c-0.504-0.504-0.504-1.26,0-1.764
	c1.512-1.514,2.27-3.781,2.27-5.799c0-0.756,0.504-1.26,1.26-1.26c0.757,0,1.261,0.504,1.261,1.26c0,2.772-1.008,5.546-2.773,7.563
	C585.779,593.311,585.275,593.311,585.023,593.311z"/>
<g>
	<path fill="#F19920" d="M577.463,593.059c-1.512,0-2.521-1.008-2.521-2.521v-10.08c0-1.514,1.01-2.521,2.521-2.521
		c1.512,0,2.521,1.008,2.521,2.521v10.08C579.982,592.051,578.975,593.059,577.463,593.059z"/>
	<path fill="#F19920" d="M586.789,600.367c-1.766-6.301-6.303-11.342-12.1-13.609c-1.008-5.798-4.789-10.838-9.578-13.862
		c-3.023,3.276-5.041,7.562-5.041,12.35c0,9.83,7.813,17.645,17.645,17.645C580.99,603.141,584.016,602.133,586.789,600.367z"/>
</g>
<g>
	<path fill="#E78825" d="M569.396,595.074c-1.765-2.269-3.023-5.041-3.023-8.064c0-3.528,1.513-6.807,4.031-9.073
		c-0.504-0.757-1.008-1.261-1.512-1.765c-2.521,2.269-4.033,5.545-4.033,9.326C564.859,589.53,566.625,592.807,569.396,595.074z"/>
	<path fill="#E78825" d="M574.941,587.01v3.527c0,1.514,1.01,2.521,2.521,2.521c1.512,0,2.521-1.008,2.521-2.521v-0.504
		C578.471,588.775,576.707,587.766,574.941,587.01z"/>
</g>
<path fill="#F6B545" d="M586.789,600.367c-0.506-1.765-1.01-3.275-2.018-4.789c-2.017,1.514-4.537,2.521-7.31,2.521
	c-7.059,0-12.604-5.545-12.604-12.604c0-3.779,1.514-7.058,4.033-9.325c-1.261-1.261-2.521-2.269-4.033-3.024
	c-3.023,3.276-5.041,7.563-5.041,12.352c0,9.829,7.813,17.644,17.645,17.644C580.99,603.141,584.016,602.133,586.789,600.367z"/>
<path fill="#F19920" d="M586.031,598.1c-1.764,1.261-4.031,2.017-6.301,2.521c-1.261,0.253-2.269,1.262-2.269,2.521l0,0
	c3.527,0,6.554-1.008,9.326-2.772C586.537,599.613,586.283,598.857,586.031,598.1z"/>
<path fill="#FFCB5B" d="M564.859,573.148c-3.023,3.276-5.041,7.563-5.041,12.351h0.252c1.262,0,2.27-1.009,2.521-2.27
	c0.505-3.528,2.269-6.553,4.537-8.821C566.373,574.155,565.617,573.652,564.859,573.148z"/>
<circle fill="#F6B545" cx="554.777" cy="590.538" r="17.644"/>
<path fill="#F19920" d="M552.258,603.141c0,1.765,0.253,3.276,0.757,5.041c0.504,0,1.26,0,1.764,0
	c9.83,0,17.645-7.813,17.645-17.645c0-1.764-0.252-3.275-0.756-5.041c-0.504,0-1.262,0-1.766,0
	C560.07,585.496,552.258,593.311,552.258,603.141z"/>
<path fill="#FFCB5B" d="M554.777,572.896c-9.83,0-17.644,7.813-17.644,17.644c0,9.829,7.813,17.644,17.644,17.644
	s17.645-7.813,17.645-17.644S564.607,572.896,554.777,572.896z M554.777,603.141c-7.058,0-12.603-5.545-12.603-12.604
	c0-7.058,5.545-12.603,12.603-12.603c7.059,0,12.604,5.545,12.604,12.603C567.381,597.596,561.836,603.141,554.777,603.141z"/>
<path fill="#F6B545" d="M554.777,607.93L554.777,607.93c9.83,0.252,17.645-7.813,17.645-17.393h-0.252
	c-1.262,0-2.27,1.01-2.521,2.27c-0.504,3.529-2.269,6.806-4.789,9.074c-2.016,2.017-4.789,3.275-7.813,3.779
	C555.787,605.66,554.777,606.669,554.777,607.93z"/>
<path fill="#FFE27A" d="M554.777,573.148L554.777,573.148c-9.83-0.252-17.644,7.813-17.644,17.392h0.252
	c1.261,0,2.269-1.009,2.521-2.27c0.504-3.528,2.271-6.805,4.789-9.073c2.018-2.017,4.789-3.275,7.813-3.78
	C553.77,575.414,554.777,574.406,554.777,573.148z"/>
<path fill="#F19920" d="M543.939,592.303c0-7.059,5.545-12.604,12.604-12.604c3.023,0,5.797,1.01,8.064,3.024
	c-2.521-3.024-5.797-4.788-9.83-4.788c-7.057,0-12.603,5.545-12.603,12.602c0,4.033,1.765,7.311,4.537,9.578
	C544.949,598.1,543.939,595.326,543.939,592.303z"/>
<path fill="#FFCB5B" d="M562.34,598.352c-0.252,0-0.504,0-0.756-0.252c-0.504-0.504-0.504-1.26,0-1.764
	c1.513-1.514,2.269-3.781,2.269-5.799c0-0.756,0.504-1.26,1.26-1.26c0.758,0,1.262,0.504,1.262,1.26c0,2.772-1.01,5.546-2.772,7.563
	C563.096,598.352,562.592,598.352,562.34,598.352z"/>
<path fill="#F19920" d="M554.777,598.1c-1.512,0-2.521-1.008-2.521-2.521v-10.08c0-1.514,1.009-2.521,2.521-2.521
	c1.514,0,2.521,1.008,2.521,2.521v10.08C557.299,597.092,556.291,598.1,554.777,598.1z"/>
<g>
	<path fill="#F6B545" d="M566.373,585.748c0.504,1.514,1.008,3.025,1.008,4.789c0,7.059-5.545,12.604-12.604,12.604
		c-0.756,0-1.764,0-2.521-0.252v0.252c0,1.765,0.252,3.276,0.756,5.041c0.505,0,1.261,0,1.765,0c9.83,0,17.645-7.813,17.645-17.645
		c0-1.764-0.252-3.275-0.756-5.041c-0.504,0-1.26,0-1.766,0C568.641,585.496,567.633,585.496,566.373,585.748z"/>
	<circle fill="#F6B545" cx="567.381" cy="605.661" r="17.644"/>
</g>
<path fill="#FFCB5B" d="M567.381,588.018c-9.83,0-17.645,7.813-17.645,17.644s7.813,17.645,17.645,17.645
	s17.644-7.813,17.644-17.645S577.211,588.018,567.381,588.018z M567.381,618.264c-7.059,0-12.604-5.545-12.604-12.604
	c0-7.058,5.545-12.603,12.604-12.603c7.058,0,12.603,5.545,12.603,12.603C579.983,612.719,574.437,618.264,567.381,618.264z"/>
<path fill="#F6B545" d="M567.381,623.053L567.381,623.053c9.83,0.252,17.644-7.813,17.644-17.393h-0.252
	c-1.26,0-2.269,1.01-2.521,2.27c-0.504,3.527-2.27,6.806-4.789,9.074c-2.018,2.016-4.789,3.275-7.813,3.779
	C568.389,620.783,567.381,621.792,567.381,623.053z"/>
<path fill="#FFE27A" d="M567.381,588.27L567.381,588.27c-9.83-0.252-17.645,7.814-17.645,17.392h0.252
	c1.262,0,2.27-1.008,2.521-2.269c0.505-3.528,2.269-6.805,4.789-9.073c2.017-2.017,4.789-3.276,7.813-3.78
	C566.373,590.537,567.381,589.53,567.381,588.27z"/>
<path fill="#F19920" d="M556.543,607.426c0-7.059,5.545-12.604,12.603-12.604c3.024,0,5.797,1.008,8.065,3.024
	c-2.521-3.024-5.797-4.789-9.83-4.789c-7.059,0-12.604,5.545-12.604,12.603c0,4.033,1.766,7.311,4.537,9.578
	C557.552,613.223,556.543,610.449,556.543,607.426z"/>
<path fill="#FFCB5B" d="M574.941,613.475c-0.252,0-0.504,0-0.756-0.252c-0.504-0.504-0.504-1.261,0-1.766
	c1.512-1.512,2.27-3.779,2.27-5.797c0-0.756,0.504-1.26,1.26-1.26c0.757,0,1.261,0.504,1.261,1.26c0,2.772-1.008,5.545-2.773,7.563
	C575.697,613.475,575.193,613.475,574.941,613.475z"/>
<path fill="#F19920" d="M567.381,613.223c-1.512,0-2.521-1.008-2.521-2.521v-10.082c0-1.512,1.01-2.521,2.521-2.521
	c1.512,0,2.521,1.009,2.521,2.521v10.082C569.9,612.215,568.893,613.223,567.381,613.223z"/>
<g>
	<path d="M267.569,92.556c-0.191-0.19-0.286-0.407-0.286-0.65v-34.58c0-0.277,0.095-0.502,0.286-0.676
		c0.19-0.173,0.407-0.26,0.65-0.26h21.788c0.277,0,0.502,0.087,0.676,0.26c0.173,0.174,0.26,0.399,0.26,0.676v4.42
		c0,0.243-0.087,0.46-0.26,0.65c-0.174,0.191-0.399,0.286-0.676,0.286h-14.3c-0.347,0-0.65,0.122-0.91,0.364
		c-0.26,0.243-0.39,0.555-0.39,0.936v6.292c0,0.347,0.13,0.65,0.39,0.91c0.26,0.26,0.563,0.39,0.91,0.39h9.672
		c0.346,0,0.641,0.13,0.884,0.39c0.242,0.26,0.364,0.581,0.364,0.962v4.16c0,0.382-0.122,0.702-0.364,0.962
		c-0.243,0.26-0.538,0.39-0.884,0.39h-10.088c-0.243,0-0.46,0.087-0.65,0.26c-0.191,0.174-0.286,0.399-0.286,0.676v12.532
		c0,0.243-0.087,0.459-0.26,0.65c-0.174,0.191-0.399,0.286-0.676,0.286h-5.2C267.976,92.842,267.76,92.747,267.569,92.556z"/>
	<path d="M293.907,92.634c-0.104-0.138-0.139-0.294-0.104-0.468l9.204-34.996c0.069-0.208,0.199-0.39,0.39-0.546
		c0.19-0.156,0.407-0.234,0.65-0.234h10.816c0.208,0,0.416,0.07,0.624,0.208c0.208,0.139,0.346,0.312,0.416,0.52l9.204,34.996v0.156
		c0,0.382-0.174,0.572-0.52,0.572h-5.096c-0.208,0-0.425-0.078-0.65-0.234c-0.226-0.156-0.356-0.338-0.39-0.546l-2.548-9.672
		c-0.07-0.312-0.243-0.572-0.52-0.78c-0.278-0.208-0.572-0.312-0.884-0.312h-10.088c-0.312,0-0.607,0.104-0.884,0.312
		c-0.278,0.208-0.451,0.468-0.52,0.78l-2.548,9.62c-0.035,0.243-0.165,0.442-0.39,0.598c-0.226,0.156-0.442,0.234-0.65,0.234h-5.096
		C294.15,92.842,294.011,92.773,293.907,92.634z M312.887,75.734c0.346,0,0.615-0.121,0.806-0.364
		c0.19-0.242,0.251-0.52,0.182-0.832l-2.912-10.712c-0.035-0.277-0.191-0.52-0.468-0.728c-0.278-0.208-0.572-0.312-0.884-0.312
		H309.3c-0.312,0-0.607,0.104-0.884,0.312c-0.278,0.208-0.434,0.451-0.468,0.728l-2.86,10.712l-0.052,0.26
		c0,0.278,0.086,0.503,0.26,0.676c0.173,0.174,0.416,0.26,0.728,0.26H312.887z"/>
	<path d="M337.354,91.334c-2.791-0.866-4.758-1.82-5.902-2.86c-0.208-0.208-0.312-0.468-0.312-0.78c0-0.346,0.138-0.78,0.416-1.3
		c0.277-0.52,0.745-1.248,1.404-2.184c0.242-0.346,0.537-0.52,0.884-0.52c0.104,0,0.26,0.035,0.468,0.104
		c2.461,1.248,4.498,2.037,6.11,2.366c1.612,0.33,3.319,0.494,5.122,0.494c1.768,0,3.163-0.303,4.186-0.91
		c1.022-0.606,1.534-1.412,1.534-2.418c0-0.832-0.364-1.716-1.092-2.652c-0.451-0.589-1.17-1.083-2.158-1.482
		c-0.988-0.398-2.228-0.806-3.718-1.222c-0.174-0.034-0.624-0.156-1.352-0.364c-2.808-0.832-4.992-1.828-6.552-2.99
		c-1.56-1.161-2.6-2.626-3.12-4.394c-0.382-1.213-0.572-2.322-0.572-3.328c0-1.768,0.468-3.388,1.404-4.862
		c0.936-1.473,2.288-2.695,4.056-3.666c1.768-0.97,3.848-1.577,6.24-1.82c0.312-0.034,0.797-0.052,1.456-0.052
		c2.634,0,5.217,0.503,7.748,1.508c2.704,1.352,3.9,2.496,3.588,3.432c-0.208,0.52-0.616,1.17-1.222,1.95
		c-0.607,0.78-0.997,1.292-1.17,1.534c-0.104,0.139-0.26,0.208-0.468,0.208c-0.347,0-0.936-0.208-1.768-0.624
		c-1.11-0.52-2.028-0.849-2.756-0.988c-1.595-0.346-2.895-0.52-3.9-0.52c-1.11,0-2.236,0.191-3.38,0.572
		c-0.902,0.451-1.595,0.98-2.08,1.586c-0.486,0.607-0.728,1.24-0.728,1.898c0,0.971,0.485,1.82,1.456,2.548
		c1.074,0.763,2.227,1.404,3.458,1.924c1.23,0.52,2.608,1.058,4.134,1.612c1.664,0.624,3.007,1.188,4.03,1.69
		c1.022,0.503,1.863,1.17,2.522,2.002c0.693,0.659,1.274,1.595,1.742,2.808c0.468,1.214,0.702,2.375,0.702,3.484
		c0,1.942-0.52,3.623-1.56,5.044c-1.04,1.422-2.479,2.522-4.316,3.302c-1.838,0.78-3.952,1.17-6.344,1.17
		C342.874,92.634,340.144,92.201,337.354,91.334z"/>
	<path d="M372.973,90.762c-2.826-1.664-5.062-3.926-6.708-6.786c-1.647-2.86-2.47-5.988-2.47-9.386c0-3.362,0.823-6.474,2.47-9.334
		c1.646-2.86,3.882-5.13,6.708-6.812c2.825-1.681,5.902-2.522,9.23-2.522c2.6,0,5.078,0.52,7.436,1.56
		c2.357,1.04,4.402,2.531,6.136,4.472c0.208,0.208,0.312,0.434,0.312,0.676c0,0.208-0.122,0.434-0.364,0.676
		c-0.728,0.59-1.456,1.205-2.184,1.846c-0.728,0.642-1.231,1.084-1.508,1.326c-0.208,0.208-0.451,0.312-0.728,0.312
		c-0.243,0-0.468-0.104-0.676-0.312c-1.11-1.213-2.392-2.14-3.848-2.782c-1.456-0.641-2.981-0.962-4.576-0.962
		c-2.08,0-4.013,0.538-5.798,1.612c-1.786,1.075-3.198,2.514-4.238,4.316c-1.04,1.803-1.56,3.779-1.56,5.928
		c0,2.15,0.52,4.126,1.56,5.928c1.04,1.803,2.452,3.242,4.238,4.316c1.785,1.075,3.718,1.612,5.798,1.612
		c1.49,0,2.929-0.294,4.316-0.884c1.386-0.589,2.634-1.438,3.744-2.548c0.346-0.277,0.728-0.416,1.144-0.416
		c0.346,0,0.624,0.104,0.832,0.312c0.346,0.278,0.832,0.685,1.456,1.222c0.624,0.538,1.161,1.014,1.612,1.43
		c0.381,0.312,0.572,0.694,0.572,1.144c0,0.278-0.104,0.52-0.312,0.728c-1.734,1.872-3.753,3.311-6.058,4.316
		c-2.306,1.006-4.741,1.508-7.306,1.508C378.875,93.258,375.799,92.426,372.973,90.762z"/>
	<path d="M405.785,92.504c-0.191-0.19-0.286-0.407-0.286-0.65V57.326c0-0.277,0.104-0.511,0.312-0.702
		c0.208-0.19,0.433-0.286,0.676-0.286h5.408c0.242,0,0.459,0.096,0.65,0.286c0.19,0.191,0.286,0.425,0.286,0.702v34.528
		c0,0.243-0.087,0.46-0.26,0.65c-0.174,0.191-0.399,0.286-0.676,0.286h-5.408C406.209,92.79,405.975,92.695,405.785,92.504z"/>
	<path d="M421.879,92.634c-0.104-0.138-0.139-0.294-0.104-0.468l9.204-34.996c0.069-0.208,0.199-0.39,0.39-0.546
		c0.19-0.156,0.407-0.234,0.65-0.234h10.816c0.208,0,0.416,0.07,0.624,0.208c0.208,0.139,0.346,0.312,0.416,0.52l9.203,34.996v0.156
		c0,0.382-0.174,0.572-0.52,0.572h-5.096c-0.208,0-0.425-0.078-0.65-0.234c-0.226-0.156-0.356-0.338-0.39-0.546l-2.548-9.672
		c-0.07-0.312-0.243-0.572-0.52-0.78c-0.278-0.208-0.572-0.312-0.884-0.312h-10.088c-0.312,0-0.607,0.104-0.884,0.312
		c-0.278,0.208-0.451,0.468-0.52,0.78l-2.548,9.62c-0.035,0.243-0.165,0.442-0.39,0.598c-0.226,0.156-0.442,0.234-0.65,0.234h-5.096
		C422.121,92.842,421.983,92.773,421.879,92.634z M440.859,75.734c0.346,0,0.615-0.121,0.806-0.364
		c0.19-0.242,0.251-0.52,0.182-0.832l-2.912-10.712c-0.035-0.277-0.191-0.52-0.468-0.728c-0.278-0.208-0.572-0.312-0.884-0.312
		h-0.312c-0.312,0-0.607,0.104-0.884,0.312c-0.278,0.208-0.434,0.451-0.468,0.728l-2.86,10.712l-0.052,0.26
		c0,0.278,0.086,0.503,0.26,0.676c0.173,0.174,0.416,0.26,0.728,0.26H440.859z"/>
	<path d="M482.769,92.504c-0.174-0.19-0.26-0.407-0.26-0.65V57.378c0-0.242,0.086-0.459,0.26-0.65
		c0.174-0.19,0.383-0.286,0.625-0.286h5.096c0.346,0,0.605,0.174,0.779,0.52l7.904,13.104c0.035,0.07,0.131,0.174,0.287,0.312
		c0.156,0.139,0.354,0.208,0.598,0.208h0.104c0.242,0,0.424-0.078,0.547-0.234c0.121-0.156,0.199-0.268,0.232-0.338l7.854-13
		c0.242-0.381,0.52-0.572,0.832-0.572h5.146c0.242,0,0.451,0.096,0.625,0.286c0.174,0.191,0.26,0.408,0.26,0.65v34.476
		c0,0.243-0.086,0.46-0.26,0.65c-0.174,0.191-0.383,0.286-0.625,0.286h-5.096c-0.277,0-0.502-0.086-0.676-0.26
		c-0.174-0.173-0.26-0.398-0.26-0.676V71.21c0-0.346-0.07-0.52-0.207-0.52c-0.141,0-0.295,0.139-0.469,0.416l-5.461,7.748
		c-0.311,0.451-0.58,0.746-0.805,0.884c-0.227,0.139-0.617,0.208-1.17,0.208h-0.885c-0.658,0-1.109-0.052-1.352-0.156
		s-0.486-0.329-0.729-0.676l-5.615-7.956c-0.209-0.312-0.365-0.468-0.469-0.468c-0.139,0-0.207,0.156-0.207,0.468v20.696
		c0,0.243-0.088,0.46-0.26,0.65c-0.174,0.191-0.4,0.286-0.678,0.286h-5.043C483.152,92.79,482.943,92.695,482.769,92.504z"/>
	<path d="M522.992,92.348c-0.191-0.19-0.287-0.407-0.287-0.65V57.43c0-0.277,0.096-0.502,0.287-0.676
		c0.189-0.173,0.406-0.26,0.65-0.26h23.295c0.277,0,0.502,0.087,0.676,0.26c0.174,0.174,0.26,0.399,0.26,0.676v4.368
		c0,0.243-0.086,0.46-0.26,0.65c-0.174,0.191-0.398,0.286-0.676,0.286h-16.795c-0.244,0-0.461,0.087-0.65,0.26
		c-0.191,0.174-0.287,0.399-0.287,0.676v7.644v0.156c0,0.312,0.07,0.529,0.209,0.65c0.139,0.122,0.467,0.182,0.988,0.182h13
		c0.242,0,0.449,0.078,0.623,0.234c0.174,0.156,0.26,0.356,0.26,0.598v4.42c0,0.243-0.086,0.442-0.26,0.598
		c-0.174,0.156-0.381,0.234-0.623,0.234h-13.053c-0.451,0-0.754,0.13-0.91,0.39c-0.156,0.26-0.234,0.529-0.234,0.806v5.512
		c0,0.347,0.096,0.642,0.287,0.884c0.189,0.243,0.58,0.364,1.17,0.364h16.639c0.242,0,0.459,0.096,0.65,0.286
		c0.191,0.191,0.287,0.425,0.287,0.702v4.368c0,0.243-0.088,0.459-0.26,0.65c-0.174,0.191-0.4,0.286-0.678,0.286h-23.658
		C523.398,92.634,523.181,92.539,522.992,92.348z"/>
	<path d="M557.31,92.14c-0.295-0.294-0.441-0.65-0.441-1.066V57.69c0-0.312,0.104-0.58,0.313-0.806
		c0.207-0.225,0.467-0.338,0.779-0.338h10.4c3.258,0,6.266,0.806,9.021,2.418c2.756,1.612,4.939,3.805,6.553,6.578
		c1.611,2.774,2.418,5.79,2.418,9.048c0,3.259-0.807,6.266-2.418,9.022c-1.613,2.756-3.797,4.94-6.553,6.552
		s-5.764,2.418-9.021,2.418h-9.984C557.961,92.582,557.605,92.435,557.31,92.14z M568.361,85.874c2.045,0,3.934-0.502,5.668-1.508
		c1.732-1.005,3.111-2.375,4.133-4.108c1.023-1.733,1.535-3.622,1.535-5.668c0-2.045-0.512-3.934-1.535-5.668
		c-1.021-1.733-2.4-3.111-4.133-4.134c-1.734-1.022-3.623-1.534-5.668-1.534h-4.16c-0.174,0-0.322,0.061-0.443,0.182
		c-0.121,0.122-0.182,0.269-0.182,0.442v21.996H568.361z"/>
	<path d="M594.49,92.504c-0.191-0.19-0.285-0.407-0.285-0.65V57.326c0-0.277,0.104-0.511,0.313-0.702
		c0.207-0.19,0.432-0.286,0.676-0.286h5.408c0.24,0,0.459,0.096,0.648,0.286c0.191,0.191,0.287,0.425,0.287,0.702v34.528
		c0,0.243-0.088,0.46-0.26,0.65c-0.174,0.191-0.4,0.286-0.676,0.286h-5.408C594.914,92.79,594.681,92.695,594.49,92.504z"/>
	<path d="M610.584,92.634c-0.104-0.138-0.139-0.294-0.104-0.468l9.205-34.996c0.068-0.208,0.197-0.39,0.389-0.546
		c0.191-0.156,0.408-0.234,0.65-0.234h10.816c0.207,0,0.416,0.07,0.623,0.208c0.209,0.139,0.346,0.312,0.416,0.52l9.205,34.996
		v0.156c0,0.382-0.174,0.572-0.521,0.572h-5.096c-0.207,0-0.424-0.078-0.648-0.234c-0.227-0.156-0.357-0.338-0.391-0.546
		l-2.549-9.672c-0.07-0.312-0.242-0.572-0.52-0.78s-0.572-0.312-0.885-0.312h-10.088c-0.311,0-0.605,0.104-0.883,0.312
		c-0.279,0.208-0.451,0.468-0.52,0.78l-2.549,9.62c-0.035,0.243-0.166,0.442-0.391,0.598c-0.225,0.156-0.441,0.234-0.65,0.234H611
		C610.826,92.842,610.689,92.773,610.584,92.634z M629.564,75.734c0.346,0,0.615-0.121,0.807-0.364
		c0.189-0.242,0.25-0.52,0.182-0.832l-2.912-10.712c-0.035-0.277-0.191-0.52-0.469-0.728s-0.57-0.312-0.883-0.312h-0.313
		c-0.313,0-0.607,0.104-0.885,0.312s-0.434,0.451-0.467,0.728l-2.861,10.712l-0.051,0.26c0,0.278,0.086,0.503,0.26,0.676
		c0.174,0.174,0.416,0.26,0.729,0.26H629.564z"/>
</g>
</svg>
