<?xml version="1.0" encoding="utf-8"?>
<!-- Generator: Adobe Illustrator 16.0.0, SVG Export Plug-In . SVG Version: 6.00 Build 0)  -->
<!DOCTYPE svg PUBLIC "-//W3C//DTD SVG 1.1//EN" "http://www.w3.org/Graphics/SVG/1.1/DTD/svg11.dtd">
<svg version="1.1" id="Layer_1" xmlns="http://www.w3.org/2000/svg" xmlns:xlink="http://www.w3.org/1999/xlink" x="0px" y="0px"
	 width="1200px" height="684px" viewBox="0 0 1200 684" enable-background="new 0 0 1200 684" xml:space="preserve">
<circle fill="#2FAC66" cx="600" cy="342" r="342"/>
<path fill="#2FAC66" d="M928.723,436.282L769.016,276.566l-2.523-2.514c-2.777-2.224-6.296-3.564-10.085-3.564h-13.126
	l-86.048-86.026c-0.055-0.049-0.092-0.112-0.14-0.165l-0.161-0.153c-0.539-0.629-1.131-1.221-1.754-1.765l-0.167-0.167
	c-0.048-0.026-0.096-0.065-0.134-0.099c-0.188-0.165-0.393-0.308-0.592-0.465c-0.242-0.188-0.488-0.373-0.731-0.548
	c-0.222-0.147-0.441-0.287-0.664-0.428c-0.253-0.16-0.507-0.318-0.78-0.469c-0.226-0.127-0.451-0.243-0.678-0.366
	c-0.28-0.141-0.561-0.283-0.844-0.41c-0.222-0.103-0.458-0.202-0.684-0.294c-0.308-0.123-0.63-0.232-0.938-0.338
	c-0.221-0.079-0.44-0.157-0.684-0.219c-0.328-0.105-0.673-0.182-1.021-0.268c-0.216-0.051-0.432-0.109-0.653-0.151
	c-0.377-0.078-0.783-0.129-1.178-0.178c-0.177-0.026-0.361-0.065-0.561-0.078c-0.581-0.059-1.184-0.09-1.775-0.09h-77.86
	c-10.082,0-18.327,8.219-18.327,18.231v31.967c0,0.828,0.085,1.635,0.188,2.436c0.026,0.212,0.067,0.416,0.103,0.629
	c0.116,0.726,0.273,1.44,0.5,2.138c0.017,0.062,0.017,0.127,0.037,0.197c0.236,0.726,0.526,1.43,0.845,2.12
	c0.089,0.213,0.197,0.421,0.3,0.629c0.292,0.572,0.609,1.132,0.958,1.676c0.065,0.09,0.104,0.191,0.167,0.283
	c0.018,0.024,0.037,0.048,0.037,0.072l0.031,0.03c1.319,1.916,2.979,3.571,4.894,4.874l0.026,0.013l13.919,13.924h-10.533
	c-1.502,0-2.979,0.226-4.457,0.752c-1.474,0.544-2.814,1.248-3.971,2.196l-13.146,10.517h-13.308l-16.166-16.166h-26.945v13.465
	l2.681,2.701h-31.13c-8.875,0-16.166,7.264-16.166,16.166v21.252c-4.679,0.567-8.311,4.558-8.311,9.374V459.47
	c0,4.802,3.632,8.8,8.311,9.344v21.278c0,4.036,1.501,7.743,3.968,10.559l1.484,1.473l181.082,181.09
	C768.586,673.775,889.749,572.426,928.723,436.282z"/>
<path fill="#F2F9FF" d="M756.39,270.485h-84.864l-13.163-10.527c-1.135-0.937-2.462-1.659-3.95-2.205
	c-1.474-0.518-2.966-0.753-4.466-0.753h-91.584c-1.488,0-2.969,0.236-4.446,0.753c-1.483,0.543-2.804,1.265-3.977,2.205
	l-13.126,10.527H451.93c-8.886,0-16.166,7.254-16.166,16.166v203.415c0,8.905,7.28,16.148,16.166,16.148h304.459
	c8.896,0,16.166-7.243,16.166-16.148V286.651C772.552,277.735,765.283,270.485,756.39,270.485z"/>
<rect x="435.761" y="307.834" fill="#FF8E31" width="336.802" height="161.048"/>
<polygon fill="#5D6D7E" points="672.022,455.601 695.072,416.946 705.309,433.81 691.731,456.58 "/>
<path fill="#34495E" d="M705.873,388.378c0,56.156-45.544,101.687-101.718,101.687c-56.181,0-101.71-45.53-101.71-101.687
	c0-56.19,45.529-101.728,101.71-101.728C660.329,286.651,705.873,332.188,705.873,388.378z"/>
<path fill="#B8D1E6" d="M695.111,388.378c0,50.215-40.729,90.917-90.955,90.917c-50.223,0-90.935-40.702-90.935-90.917
	c0-50.254,40.716-90.965,90.935-90.965C654.379,297.41,695.111,338.121,695.111,388.378z"/>
<path fill="#CEE2F2" d="M688.045,388.378c0,46.304-37.554,83.852-83.889,83.852c-46.316,0-83.875-37.548-83.875-83.852
	c0-46.352,37.559-83.91,83.875-83.91C650.489,304.465,688.045,342.024,688.045,388.378z"/>
<path fill="#B8D1E6" d="M641.68,388.378c0,20.697-16.817,37.493-37.524,37.493c-20.715,0-37.508-16.796-37.508-37.493
	c0-20.742,16.796-37.548,37.508-37.548C624.863,350.826,641.68,367.632,641.68,388.378z"/>
<g>
	<path fill="#F2F9FF" d="M560.098,379.117l-24.799-5.038c5.592-27.575,27.011-48.998,54.586-54.6l5.041,24.806
		C577.343,347.855,563.674,361.525,560.098,379.117z"/>
	<path fill="#F2F9FF" d="M630.53,452.771l-9.644-23.41c10.931-4.494,19.777-13.352,24.293-24.299l23.402,9.672
		C661.519,431.84,647.644,445.694,630.53,452.771z"/>
</g>
<path fill="#34495E" d="M481.333,459.448c0,5.191-4.24,9.412-9.418,9.412H436.88c-5.195,0-9.436-4.221-9.436-9.412V317.266
	c0-5.198,4.24-9.439,9.436-9.439h35.035c5.181,0,9.418,4.24,9.418,9.439V459.448z"/>
<path fill="#E1EFFA" d="M703.602,295.591c0,1.539,1.238,2.76,2.76,2.76h26.703c1.528,0,2.749-1.217,2.749-2.76v-12.862
	c0-1.532-1.217-2.767-2.749-2.767h-26.703c-1.519,0-2.76,1.234-2.76,2.767V295.591z"/>
<path fill="#B8D1E6" d="M733.062,279.962h-26.7c-1.519,0-2.76,1.234-2.76,2.767v12.862c0,1.539,1.238,2.76,2.76,2.76h26.703
	c1.528,0,2.749-1.217,2.749-2.76v-12.862C735.811,281.197,734.591,279.962,733.062,279.962z M734.667,295.591
	c0,0.896-0.722,1.611-1.604,1.611h-26.7c-0.882,0-1.606-0.711-1.606-1.611v-12.862c0-0.91,0.725-1.632,1.606-1.632h26.703
	c0.882,0,1.604,0.722,1.604,1.632v12.862H734.667z"/>
<path fill="#FF8E31" d="M500.581,289.144c0,3.721-3.006,6.741-6.737,6.741c-3.711,0-6.717-3.02-6.717-6.741
	c0-3.725,3.006-6.737,6.717-6.737C497.575,282.41,500.581,285.423,500.581,289.144z"/>
<rect x="587.311" y="246.23" fill="#5D6D7E" width="33.677" height="10.769"/>
<path fill="#34495E" d="M661.427,196.034c0-10.03-8.245-18.249-18.341-18.249H565.23c-10.076,0-18.335,8.219-18.335,18.249v31.952
	c0,10.024,8.259,18.243,18.335,18.243h77.853c10.096,0,18.341-8.219,18.341-18.243v-31.952H661.427z"/>
<path fill="#F2F9FF" d="M565.228,238.149c-5.656,0-10.246-4.566-10.246-10.162v-31.952c0-5.616,4.586-10.145,10.246-10.145h77.854
	c5.656,0,10.256,4.528,10.256,10.145v31.952c0,5.596-4.6,10.162-10.256,10.162H565.228z"/>
<rect x="486.445" y="267.786" fill="#5D6D7E" width="14.816" height="2.709"/>
<g>
	<rect x="480.369" y="254.312" fill="#34495E" width="26.945" height="13.468"/>
	<rect x="703.592" y="263.579" fill="#34495E" width="20.691" height="6.908"/>
</g>
<path fill="#B8D1E6" d="M658.359,259.957c-1.136-0.937-2.462-1.659-3.95-2.205c-1.474-0.518-2.966-0.753-4.466-0.753h-91.581
	c-1.488,0-2.969,0.236-4.446,0.753c-1.484,0.543-2.805,1.265-3.978,2.205l-13.125,10.527h134.713L658.359,259.957z"/>
</svg>
