<?xml version="1.0" encoding="utf-8"?>
<!-- Generator: Adobe Illustrator 16.0.0, SVG Export Plug-In . SVG Version: 6.00 Build 0)  -->
<!DOCTYPE svg PUBLIC "-//W3C//DTD SVG 1.1//EN" "http://www.w3.org/Graphics/SVG/1.1/DTD/svg11.dtd">
<svg version="1.1" id="Layer_1" xmlns="http://www.w3.org/2000/svg" xmlns:xlink="http://www.w3.org/1999/xlink" x="0px" y="0px"
	 width="1200px" height="684px" viewBox="0 0 1200 684" enable-background="new 0 0 1200 684" xml:space="preserve">
<g>
	<g>
		<circle fill="#2FAC66" cx="600" cy="342" r="342"/>
	</g>
	<path fill="#2FAC66" d="M942,342c0-17.801-1.363-35.283-3.983-52.351L777.859,130.036L421.386,553.315l126.761,126.776
		C565.056,682.664,582.373,684,600,684C788.881,684,942,530.88,942,342z"/>
	<g>
		<path fill="#32373B" d="M757.373,122.636H545.997c-8.31,0-16.278,3.301-22.153,9.176L419.749,235.906
			c-5.875,5.875-9.176,13.844-9.176,22.152v271.256c0,17.701,14.351,32.051,32.052,32.051h314.748
			c17.701,0,32.052-14.35,32.052-32.051V154.688C789.425,136.987,775.074,122.636,757.373,122.636z"/>
	</g>
	<g>
		<path fill="#2C3033" d="M757.373,122.636H597.697v438.728h159.676c17.701,0,32.052-14.351,32.052-32.052V154.688
			C789.425,136.987,775.074,122.636,757.373,122.636z"/>
	</g>
	<g>
		<rect x="701.909" y="122.636" fill="#D39346" width="29.939" height="76"/>
	</g>
	<g>
		<rect x="486" y="342" fill="#BDC3C7" width="228" height="152"/>
	</g>
	<g>
		<rect x="582.152" y="122.636" fill="#F9B65F" width="29.939" height="76"/>
	</g>
	<g>
		<rect x="597.697" y="342" fill="#A1A5A8" width="116.303" height="152"/>
	</g>
	<g>
		<rect x="597.697" y="122.636" fill="#D39346" width="14.395" height="76"/>
	</g>
	<g>
		<rect x="642.031" y="122.636" fill="#D39346" width="29.939" height="76"/>
	</g>
</g>
</svg>
