<?xml version="1.0" encoding="utf-8"?>
<!-- Generator: Adobe Illustrator 16.0.0, SVG Export Plug-In . SVG Version: 6.00 Build 0)  -->
<!DOCTYPE svg PUBLIC "-//W3C//DTD SVG 1.1//EN" "http://www.w3.org/Graphics/SVG/1.1/DTD/svg11.dtd">
<svg version="1.1" id="Livello_1" xmlns="http://www.w3.org/2000/svg" xmlns:xlink="http://www.w3.org/1999/xlink" x="0px" y="0px"
	 width="1200px" height="684px" viewBox="0 0 1200 684" enable-background="new 0 0 1200 684" xml:space="preserve">
<rect fill="#F4E55A" width="1200" height="684"/>
<g>
	<path d="M70.641,262.179l-0.884,12.48h-2.808l-0.832-12.48H70.641z M78.389,262.179l-0.884,12.48h-2.756l-0.884-12.48H78.389z"/>
	<path d="M84.966,297.488c-0.156-0.138-0.234-0.312-0.234-0.52V262.18c0-0.208,0.078-0.381,0.234-0.52
		c0.156-0.138,0.338-0.208,0.546-0.208h5.304c0.242,0,0.433,0.122,0.572,0.364l12.324,20.852c0.381,0.694,0.693,1.04,0.936,1.04
		c0.277,0,0.416-0.381,0.416-1.144l-0.104-20.384c0-0.208,0.078-0.381,0.234-0.52c0.156-0.138,0.338-0.208,0.546-0.208h5.46
		c0.208,0,0.39,0.07,0.546,0.208c0.156,0.139,0.234,0.312,0.234,0.52v34.788c0,0.208-0.078,0.382-0.234,0.52
		c-0.156,0.139-0.338,0.208-0.546,0.208h-3.692c-0.624,0-1.058-0.052-1.3-0.156c-0.243-0.104-0.503-0.381-0.78-0.832l-13.104-20.852
		c-0.208-0.312-0.399-0.468-0.572-0.468c-0.278,0-0.416,0.243-0.416,0.728l0.104,20.852c0,0.208-0.078,0.382-0.234,0.52
		c-0.156,0.139-0.321,0.208-0.494,0.208h-5.2C85.304,297.696,85.122,297.627,84.966,297.488z"/>
	<path d="M123.498,292.106c-1.716-1.924-2.973-4.064-3.77-6.422l-0.104-0.26c-0.624-1.872-0.936-3.813-0.936-5.824
		c0-2.149,0.364-4.264,1.092-6.344s1.82-3.969,3.276-5.668c1.906-2.045,3.839-3.614,5.798-4.706c1.958-1.092,4.428-1.724,7.41-1.898
		h0.156c2.912-0.173,5.754,0.347,8.528,1.56c1.733,0.763,3.406,1.881,5.018,3.354c1.612,1.474,2.782,2.938,3.51,4.394
		c1.629,2.843,2.444,5.928,2.444,9.256c0,1.942-0.295,3.84-0.884,5.694c-0.59,1.855-1.456,3.58-2.6,5.174
		c-0.867,1.214-1.812,2.28-2.834,3.198c-1.023,0.919-2.28,1.777-3.77,2.574c-2.67,1.352-5.547,2.028-8.632,2.028
		c-2.635,0-5.148-0.52-7.54-1.56C127.268,295.547,125.214,294.03,123.498,292.106z M146.144,287.504
		c0.936-1.074,1.612-2.097,2.028-3.068c0.693-1.594,1.04-3.224,1.04-4.888c0-2.288-0.624-4.428-1.872-6.422
		c-1.248-1.993-2.964-3.475-5.148-4.446c-1.595-0.693-3.242-1.04-4.94-1.04c-1.526,0-2.99,0.278-4.394,0.832
		c-1.404,0.555-2.661,1.37-3.77,2.444l-0.884,0.936c-0.936,1.144-1.638,2.375-2.106,3.692c-0.468,1.318-0.702,2.67-0.702,4.056
		c0,1.734,0.364,3.406,1.092,5.018c0.728,1.612,1.785,2.973,3.172,4.082c2.253,1.872,4.818,2.808,7.696,2.808
		c1.906,0,3.692-0.416,5.356-1.248C144.063,289.498,145.208,288.579,146.144,287.504z"/>
	<path d="M162.757,297.488c-0.156-0.138-0.234-0.312-0.234-0.52V262.18c0-0.208,0.078-0.381,0.234-0.52
		c0.156-0.138,0.338-0.208,0.546-0.208h5.304c0.242,0,0.433,0.122,0.572,0.364l12.324,20.852c0.381,0.694,0.693,1.04,0.936,1.04
		c0.277,0,0.416-0.381,0.416-1.144l-0.104-20.384c0-0.208,0.078-0.381,0.234-0.52c0.156-0.138,0.338-0.208,0.546-0.208h5.46
		c0.208,0,0.39,0.07,0.546,0.208c0.156,0.139,0.234,0.312,0.234,0.52v34.788c0,0.208-0.078,0.382-0.234,0.52
		c-0.156,0.139-0.338,0.208-0.546,0.208h-3.692c-0.624,0-1.058-0.052-1.3-0.156c-0.243-0.104-0.503-0.381-0.78-0.832l-13.104-20.852
		c-0.208-0.312-0.399-0.468-0.572-0.468c-0.278,0-0.416,0.243-0.416,0.728l0.104,20.852c0,0.208-0.078,0.382-0.234,0.52
		c-0.156,0.139-0.321,0.208-0.494,0.208h-5.2C163.095,297.696,162.913,297.627,162.757,297.488z"/>
	<path d="M228.433,295.772c-2.826-1.664-5.062-3.926-6.708-6.786c-1.647-2.86-2.47-5.988-2.47-9.386c0-3.362,0.823-6.474,2.47-9.334
		c1.646-2.86,3.882-5.13,6.708-6.812c2.825-1.681,5.902-2.522,9.23-2.522c2.6,0,5.078,0.52,7.436,1.56
		c2.357,1.04,4.402,2.531,6.136,4.472c0.208,0.208,0.312,0.434,0.312,0.676c0,0.208-0.122,0.434-0.364,0.676
		c-0.728,0.59-1.456,1.205-2.184,1.846c-0.728,0.642-1.231,1.084-1.508,1.326c-0.208,0.208-0.451,0.312-0.728,0.312
		c-0.243,0-0.468-0.104-0.676-0.312c-1.11-1.213-2.392-2.14-3.848-2.782c-1.456-0.641-2.981-0.962-4.576-0.962
		c-2.08,0-4.013,0.538-5.798,1.612c-1.786,1.075-3.198,2.514-4.238,4.316c-1.04,1.803-1.56,3.779-1.56,5.928
		c0,2.15,0.52,4.126,1.56,5.928c1.04,1.803,2.452,3.242,4.238,4.316c1.785,1.075,3.718,1.612,5.798,1.612
		c1.49,0,2.929-0.294,4.316-0.884c1.386-0.589,2.634-1.438,3.744-2.548c0.346-0.277,0.728-0.416,1.144-0.416
		c0.346,0,0.624,0.104,0.832,0.312c0.346,0.278,0.832,0.685,1.456,1.222c0.624,0.538,1.161,1.014,1.612,1.43
		c0.381,0.312,0.572,0.694,0.572,1.144c0,0.278-0.104,0.52-0.312,0.728c-1.734,1.872-3.753,3.311-6.058,4.316
		c-2.306,1.006-4.741,1.508-7.306,1.508C234.334,298.268,231.258,297.437,228.433,295.772z"/>
	<path d="M261.452,292.106c-1.716-1.924-2.973-4.064-3.77-6.422l-0.104-0.26c-0.624-1.872-0.936-3.813-0.936-5.824
		c0-2.149,0.364-4.264,1.092-6.344s1.82-3.969,3.276-5.668c1.906-2.045,3.839-3.614,5.798-4.706c1.958-1.092,4.428-1.724,7.41-1.898
		h0.156c2.912-0.173,5.754,0.347,8.528,1.56c1.733,0.763,3.406,1.881,5.018,3.354c1.612,1.474,2.782,2.938,3.51,4.394
		c1.629,2.843,2.444,5.928,2.444,9.256c0,1.942-0.295,3.84-0.884,5.694c-0.59,1.855-1.456,3.58-2.6,5.174
		c-0.867,1.214-1.812,2.28-2.834,3.198c-1.023,0.919-2.28,1.777-3.77,2.574c-2.67,1.352-5.547,2.028-8.632,2.028
		c-2.635,0-5.148-0.52-7.54-1.56C265.222,295.547,263.168,294.03,261.452,292.106z M284.098,287.504
		c0.936-1.074,1.612-2.097,2.028-3.068c0.693-1.594,1.04-3.224,1.04-4.888c0-2.288-0.624-4.428-1.872-6.422
		c-1.248-1.993-2.964-3.475-5.148-4.446c-1.595-0.693-3.242-1.04-4.94-1.04c-1.526,0-2.99,0.278-4.394,0.832
		c-1.404,0.555-2.661,1.37-3.77,2.444l-0.884,0.936c-0.936,1.144-1.638,2.375-2.106,3.692c-0.468,1.318-0.702,2.67-0.702,4.056
		c0,1.734,0.364,3.406,1.092,5.018c0.728,1.612,1.785,2.973,3.172,4.082c2.253,1.872,4.818,2.808,7.696,2.808
		c1.906,0,3.692-0.416,5.356-1.248C282.018,289.498,283.162,288.579,284.098,287.504z"/>
	<path d="M300.711,297.488c-0.156-0.138-0.234-0.312-0.234-0.52V262.18c0-0.208,0.078-0.381,0.234-0.52
		c0.156-0.138,0.338-0.208,0.546-0.208h5.304c0.242,0,0.433,0.122,0.572,0.364l12.324,20.852c0.381,0.694,0.693,1.04,0.936,1.04
		c0.277,0,0.416-0.381,0.416-1.144l-0.104-20.384c0-0.208,0.078-0.381,0.234-0.52c0.156-0.138,0.338-0.208,0.546-0.208h5.46
		c0.208,0,0.39,0.07,0.546,0.208c0.156,0.139,0.234,0.312,0.234,0.52v34.788c0,0.208-0.078,0.382-0.234,0.52
		c-0.156,0.139-0.338,0.208-0.546,0.208h-3.692c-0.624,0-1.058-0.052-1.3-0.156c-0.243-0.104-0.503-0.381-0.78-0.832l-13.104-20.852
		c-0.208-0.312-0.399-0.468-0.572-0.468c-0.278,0-0.416,0.243-0.416,0.728l0.104,20.852c0,0.208-0.078,0.382-0.234,0.52
		c-0.156,0.139-0.321,0.208-0.494,0.208h-5.2C301.049,297.696,300.867,297.627,300.711,297.488z"/>
	<path d="M346.472,297.592c-0.122-0.138-0.182-0.294-0.182-0.468V268.94c0-0.312-0.13-0.598-0.39-0.858
		c-0.26-0.26-0.564-0.39-0.91-0.39h-8.736c-0.139,0-0.278-0.069-0.416-0.208c-0.139-0.138-0.208-0.277-0.208-0.416v-5.044
		c0-0.173,0.06-0.312,0.182-0.416c0.121-0.104,0.269-0.156,0.442-0.156h27.456c0.208,0,0.381,0.07,0.52,0.208
		c0.138,0.139,0.208,0.295,0.208,0.468v4.888c0,0.174-0.07,0.33-0.208,0.468c-0.139,0.139-0.312,0.208-0.52,0.208h-8.632
		c-0.347,0-0.642,0.122-0.884,0.364c-0.243,0.243-0.364,0.538-0.364,0.884v28.184c0,0.174-0.061,0.33-0.182,0.468
		c-0.122,0.139-0.286,0.208-0.494,0.208h-6.188C346.758,297.8,346.593,297.731,346.472,297.592z"/>
	<path d="M373.563,297.514c-0.191-0.19-0.286-0.407-0.286-0.65v-34.528c0-0.277,0.104-0.511,0.312-0.702
		c0.208-0.19,0.433-0.286,0.676-0.286h5.408c0.242,0,0.459,0.096,0.65,0.286c0.19,0.191,0.286,0.425,0.286,0.702v34.528
		c0,0.243-0.087,0.46-0.26,0.65c-0.174,0.191-0.399,0.286-0.676,0.286h-5.408C373.988,297.8,373.754,297.705,373.563,297.514z"/>
	<path d="M391.347,297.488c-0.156-0.138-0.234-0.312-0.234-0.52V262.18c0-0.208,0.078-0.381,0.234-0.52
		c0.156-0.138,0.338-0.208,0.546-0.208h5.304c0.242,0,0.433,0.122,0.572,0.364l12.324,20.852c0.381,0.694,0.693,1.04,0.936,1.04
		c0.277,0,0.416-0.381,0.416-1.144l-0.104-20.384c0-0.208,0.078-0.381,0.234-0.52c0.156-0.138,0.338-0.208,0.546-0.208h5.46
		c0.208,0,0.39,0.07,0.546,0.208c0.156,0.139,0.234,0.312,0.234,0.52v34.788c0,0.208-0.078,0.382-0.234,0.52
		c-0.156,0.139-0.338,0.208-0.546,0.208h-3.692c-0.624,0-1.058-0.052-1.3-0.156c-0.243-0.104-0.503-0.381-0.78-0.832l-13.104-20.852
		c-0.208-0.312-0.399-0.468-0.572-0.468c-0.278,0-0.416,0.243-0.416,0.728l0.104,20.852c0,0.208-0.078,0.382-0.234,0.52
		c-0.156,0.139-0.321,0.208-0.494,0.208h-5.2C391.685,297.696,391.502,297.627,391.347,297.488z"/>
	<path d="M434.064,296.5c-1.976-1.144-3.554-2.695-4.732-4.654c-1.179-1.958-1.768-4.099-1.768-6.422v-23.036
		c0-0.277,0.095-0.511,0.286-0.702c0.19-0.19,0.407-0.286,0.65-0.286h4.992c0.242,0,0.459,0.096,0.65,0.286
		c0.19,0.191,0.286,0.425,0.286,0.702v23.036c0,1.699,0.589,3.146,1.768,4.342c1.178,1.196,2.617,1.794,4.316,1.794
		c1.282,0,2.487-0.277,3.614-0.832c1.126-0.554,2.019-1.3,2.678-2.236c0.658-0.936,0.988-1.958,0.988-3.068v-23.036
		c0-0.277,0.095-0.511,0.286-0.702c0.19-0.19,0.407-0.286,0.65-0.286h4.992c0.242,0,0.459,0.096,0.65,0.286
		c0.19,0.191,0.286,0.425,0.286,0.702v23.036c0,2.358-0.607,4.507-1.82,6.448c-1.214,1.942-2.895,3.484-5.044,4.628
		c-2.15,1.144-4.576,1.716-7.28,1.716C438.189,298.216,436.041,297.645,434.064,296.5z"/>
	<path d="M462.145,297.645c-0.104-0.138-0.139-0.294-0.104-0.468l9.204-34.996c0.069-0.208,0.199-0.39,0.39-0.546
		c0.19-0.156,0.407-0.234,0.65-0.234h10.816c0.208,0,0.416,0.07,0.624,0.208c0.208,0.139,0.346,0.312,0.416,0.52l9.204,34.996v0.156
		c0,0.382-0.174,0.572-0.52,0.572h-5.096c-0.208,0-0.425-0.078-0.65-0.234c-0.226-0.156-0.356-0.338-0.39-0.546l-2.548-9.672
		c-0.07-0.312-0.243-0.572-0.52-0.78c-0.278-0.208-0.572-0.312-0.884-0.312h-10.088c-0.312,0-0.607,0.104-0.884,0.312
		c-0.278,0.208-0.451,0.468-0.52,0.78l-2.548,9.62c-0.035,0.243-0.165,0.442-0.39,0.598c-0.226,0.156-0.442,0.234-0.65,0.234h-5.096
		C462.387,297.852,462.249,297.783,462.145,297.645z M481.125,280.744c0.346,0,0.615-0.121,0.806-0.364
		c0.19-0.242,0.251-0.52,0.182-0.832l-2.912-10.712c-0.035-0.277-0.191-0.52-0.468-0.728c-0.278-0.208-0.572-0.312-0.884-0.312
		h-0.312c-0.312,0-0.607,0.104-0.884,0.312c-0.278,0.208-0.434,0.451-0.468,0.728l-2.86,10.712l-0.052,0.26
		c0,0.278,0.086,0.503,0.26,0.676c0.173,0.174,0.416,0.26,0.728,0.26H481.125z"/>
	<path d="M500.91,297.566c-0.191-0.19-0.286-0.407-0.286-0.65v-34.58c0-0.242,0.095-0.459,0.286-0.65
		c0.19-0.19,0.424-0.286,0.702-0.286h10.92c2.149,0,4.134,0.512,5.954,1.534c1.82,1.023,3.258,2.418,4.316,4.186
		c1.057,1.768,1.586,3.71,1.586,5.824c0,1.803-0.416,3.484-1.248,5.044c-0.832,1.56-1.958,2.912-3.38,4.056
		c-0.208,0.174-0.312,0.399-0.312,0.676c0,0.104,0.017,0.191,0.052,0.26c0.034,0.07,0.052,0.122,0.052,0.156l6.032,13.468
		c0.104,0.243,0.156,0.468,0.156,0.676c0,0.382-0.226,0.572-0.676,0.572h-4.576c-0.382,0-0.668-0.035-0.858-0.104
		c-0.191-0.069-0.356-0.242-0.494-0.52l-5.46-12.168c-0.07-0.208-0.2-0.346-0.39-0.416c-0.191-0.069-0.529-0.121-1.014-0.156h-4.16
		c-0.52,0-0.876,0.07-1.066,0.208c-0.191,0.139-0.286,0.399-0.286,0.78v11.44c0,0.243-0.096,0.459-0.286,0.65
		c-0.191,0.191-0.425,0.286-0.702,0.286h-4.16C501.334,297.852,501.1,297.757,500.91,297.566z M512.532,277.78
		c1.352,0,2.513-0.476,3.484-1.43c0.97-0.953,1.456-2.088,1.456-3.406c0-1.352-0.486-2.496-1.456-3.432
		c-0.971-0.936-2.132-1.404-3.484-1.404h-4.836c-0.624,0-0.936,0.347-0.936,1.04v7.8c0,0.243,0.069,0.442,0.208,0.598
		c0.138,0.156,0.329,0.234,0.572,0.234H512.532z"/>
	<path d="M533.773,297.358c-0.191-0.19-0.286-0.407-0.286-0.65V262.44c0-0.277,0.095-0.502,0.286-0.676
		c0.19-0.173,0.407-0.26,0.65-0.26h23.296c0.277,0,0.502,0.087,0.676,0.26c0.173,0.174,0.26,0.399,0.26,0.676v4.368
		c0,0.243-0.087,0.46-0.26,0.65c-0.174,0.191-0.399,0.286-0.676,0.286h-16.796c-0.243,0-0.46,0.087-0.65,0.26
		c-0.191,0.174-0.286,0.399-0.286,0.676v7.644v0.156c0,0.312,0.069,0.529,0.208,0.65c0.138,0.122,0.468,0.182,0.988,0.182h13
		c0.242,0,0.45,0.078,0.624,0.234c0.173,0.156,0.26,0.356,0.26,0.598v4.42c0,0.243-0.087,0.442-0.26,0.598
		c-0.174,0.156-0.382,0.234-0.624,0.234h-13.052c-0.451,0-0.754,0.13-0.91,0.39c-0.156,0.26-0.234,0.529-0.234,0.806v5.512
		c0,0.347,0.095,0.642,0.286,0.884c0.19,0.243,0.581,0.364,1.17,0.364h16.64c0.242,0,0.459,0.096,0.65,0.286
		c0.19,0.191,0.286,0.425,0.286,0.702v4.368c0,0.243-0.087,0.459-0.26,0.65c-0.174,0.191-0.399,0.286-0.676,0.286h-23.66
		C534.181,297.645,533.964,297.549,533.773,297.358z"/>
	<path d="M588.867,297.645c-0.104-0.138-0.139-0.294-0.104-0.468l9.205-34.996c0.068-0.208,0.198-0.39,0.389-0.546
		c0.191-0.156,0.408-0.234,0.65-0.234h10.816c0.209,0,0.416,0.07,0.625,0.208c0.207,0.139,0.346,0.312,0.416,0.52l9.203,34.996
		v0.156c0,0.382-0.174,0.572-0.52,0.572h-5.096c-0.209,0-0.426-0.078-0.65-0.234c-0.227-0.156-0.355-0.338-0.391-0.546l-2.547-9.672
		c-0.07-0.312-0.244-0.572-0.521-0.78s-0.572-0.312-0.883-0.312h-10.088c-0.312,0-0.606,0.104-0.884,0.312
		c-0.278,0.208-0.451,0.468-0.52,0.78l-2.549,9.62c-0.035,0.243-0.165,0.442-0.39,0.598c-0.226,0.156-0.442,0.234-0.65,0.234h-5.096
		C589.109,297.852,588.971,297.783,588.867,297.645z M607.846,280.744c0.348,0,0.615-0.121,0.807-0.364
		c0.189-0.242,0.252-0.52,0.182-0.832l-2.912-10.712c-0.035-0.277-0.191-0.52-0.467-0.728c-0.279-0.208-0.572-0.312-0.885-0.312
		h-0.313c-0.311,0-0.605,0.104-0.883,0.312c-0.279,0.208-0.434,0.451-0.469,0.728l-2.86,10.712l-0.052,0.26
		c0,0.278,0.086,0.503,0.26,0.676c0.174,0.174,0.416,0.26,0.729,0.26H607.846z"/>
	<path d="M649.992,297.566c-0.191-0.19-0.287-0.407-0.287-0.65v-34.58c0-0.277,0.096-0.502,0.287-0.676
		c0.189-0.173,0.406-0.26,0.65-0.26h21.787c0.277,0,0.502,0.087,0.676,0.26c0.174,0.174,0.26,0.399,0.26,0.676v4.42
		c0,0.243-0.086,0.46-0.26,0.65c-0.174,0.191-0.398,0.286-0.676,0.286h-14.301c-0.346,0-0.648,0.122-0.91,0.364
		c-0.26,0.243-0.389,0.555-0.389,0.936v6.292c0,0.347,0.129,0.65,0.389,0.91c0.262,0.26,0.564,0.39,0.91,0.39h9.672
		c0.348,0,0.643,0.13,0.885,0.39c0.242,0.26,0.363,0.581,0.363,0.962v4.16c0,0.382-0.121,0.702-0.363,0.962
		c-0.242,0.26-0.537,0.39-0.885,0.39h-10.088c-0.242,0-0.459,0.087-0.648,0.26c-0.191,0.174-0.287,0.399-0.287,0.676v12.532
		c0,0.243-0.086,0.459-0.26,0.65c-0.174,0.191-0.398,0.286-0.676,0.286h-5.199C650.398,297.852,650.182,297.757,649.992,297.566z"/>
	<path d="M676.33,297.645c-0.104-0.138-0.139-0.294-0.104-0.468l9.203-34.996c0.068-0.208,0.199-0.39,0.391-0.546
		c0.189-0.156,0.406-0.234,0.648-0.234h10.816c0.209,0,0.416,0.07,0.625,0.208c0.207,0.139,0.346,0.312,0.416,0.52l9.203,34.996
		v0.156c0,0.382-0.174,0.572-0.52,0.572h-5.096c-0.209,0-0.426-0.078-0.65-0.234c-0.227-0.156-0.355-0.338-0.391-0.546l-2.547-9.672
		c-0.07-0.312-0.244-0.572-0.52-0.78c-0.279-0.208-0.572-0.312-0.885-0.312h-10.088c-0.313,0-0.607,0.104-0.885,0.312
		s-0.451,0.468-0.52,0.78l-2.549,9.62c-0.033,0.243-0.164,0.442-0.389,0.598c-0.227,0.156-0.443,0.234-0.65,0.234h-5.096
		C676.572,297.852,676.434,297.783,676.33,297.645z M695.311,280.744c0.346,0,0.613-0.121,0.805-0.364
		c0.191-0.242,0.252-0.52,0.182-0.832l-2.912-10.712c-0.033-0.277-0.189-0.52-0.467-0.728s-0.572-0.312-0.885-0.312h-0.311
		c-0.313,0-0.607,0.104-0.885,0.312s-0.434,0.451-0.469,0.728l-2.859,10.712l-0.053,0.26c0,0.278,0.086,0.503,0.26,0.676
		c0.174,0.174,0.416,0.26,0.729,0.26H695.311z"/>
	<path d="M715.096,297.566c-0.191-0.19-0.285-0.407-0.285-0.65v-34.58c0-0.242,0.094-0.459,0.285-0.65
		c0.189-0.19,0.424-0.286,0.701-0.286h10.92c2.15,0,4.135,0.512,5.955,1.534c1.82,1.023,3.258,2.418,4.316,4.186
		c1.057,1.768,1.586,3.71,1.586,5.824c0,1.803-0.416,3.484-1.248,5.044s-1.959,2.912-3.381,4.056
		c-0.207,0.174-0.313,0.399-0.313,0.676c0,0.104,0.018,0.191,0.053,0.26c0.035,0.07,0.053,0.122,0.053,0.156l6.031,13.468
		c0.104,0.243,0.156,0.468,0.156,0.676c0,0.382-0.227,0.572-0.676,0.572h-4.576c-0.383,0-0.668-0.035-0.857-0.104
		c-0.191-0.069-0.357-0.242-0.494-0.52l-5.461-12.168c-0.07-0.208-0.199-0.346-0.391-0.416c-0.189-0.069-0.527-0.121-1.014-0.156
		h-4.16c-0.52,0-0.875,0.07-1.064,0.208c-0.191,0.139-0.287,0.399-0.287,0.78v11.44c0,0.243-0.096,0.459-0.285,0.65
		c-0.191,0.191-0.426,0.286-0.703,0.286h-4.16C715.52,297.852,715.285,297.757,715.096,297.566z M726.717,277.78
		c1.354,0,2.514-0.476,3.484-1.43c0.971-0.953,1.457-2.088,1.457-3.406c0-1.352-0.486-2.496-1.457-3.432s-2.131-1.404-3.484-1.404
		h-4.836c-0.623,0-0.936,0.347-0.936,1.04v7.8c0,0.243,0.07,0.442,0.209,0.598c0.137,0.156,0.328,0.234,0.572,0.234H726.717z"/>
	<path d="M747.959,297.358c-0.191-0.19-0.285-0.407-0.285-0.65V262.44c0-0.277,0.094-0.502,0.285-0.676
		c0.189-0.173,0.406-0.26,0.65-0.26h23.295c0.277,0,0.502,0.087,0.676,0.26c0.174,0.174,0.262,0.399,0.262,0.676v4.368
		c0,0.243-0.088,0.46-0.262,0.65c-0.174,0.191-0.398,0.286-0.676,0.286h-16.795c-0.244,0-0.461,0.087-0.65,0.26
		c-0.191,0.174-0.285,0.399-0.285,0.676v7.644v0.156c0,0.312,0.068,0.529,0.207,0.65c0.139,0.122,0.469,0.182,0.988,0.182h13
		c0.242,0,0.449,0.078,0.623,0.234c0.174,0.156,0.262,0.356,0.262,0.598v4.42c0,0.243-0.088,0.442-0.262,0.598
		c-0.174,0.156-0.381,0.234-0.623,0.234h-13.053c-0.451,0-0.754,0.13-0.91,0.39c-0.156,0.26-0.232,0.529-0.232,0.806v5.512
		c0,0.347,0.094,0.642,0.285,0.884c0.189,0.243,0.58,0.364,1.17,0.364h16.641c0.242,0,0.459,0.096,0.648,0.286
		c0.191,0.191,0.287,0.425,0.287,0.702v4.368c0,0.243-0.088,0.459-0.26,0.65c-0.174,0.191-0.398,0.286-0.676,0.286h-23.66
		C748.365,297.645,748.148,297.549,747.959,297.358z"/>
	<path d="M829.313,301.804c-0.486,0-0.832-0.191-1.041-0.572l-2.236-3.276c-0.139-0.173-0.26-0.294-0.363-0.364
		c-0.104-0.069-0.277-0.069-0.52,0c-1.457,0.381-2.895,0.572-4.316,0.572c-2.531,0-5.01-0.554-7.436-1.664
		c-2.357-1.04-4.377-2.513-6.059-4.42c-1.682-1.906-2.955-4.125-3.822-6.656c-0.623-1.872-0.936-3.813-0.936-5.824
		c0-2.149,0.355-4.246,1.066-6.292c0.709-2.045,1.775-3.917,3.197-5.616c1.906-2.184,3.891-3.796,5.955-4.836
		c2.061-1.04,4.393-1.646,6.992-1.82c3.502-0.138,6.734,0.59,9.699,2.184c2.965,1.595,5.33,3.883,7.098,6.864
		c1.699,3.259,2.549,6.483,2.549,9.672c0,2.67-0.617,5.244-1.846,7.722c-1.232,2.479-3.025,4.776-5.383,6.89
		c-0.139,0.139-0.207,0.243-0.207,0.312c0,0.104,0.051,0.26,0.154,0.468l1.664,2.444c0.174,0.242,0.26,0.485,0.26,0.728
		c0,0.485-0.189,0.832-0.57,1.04l-3.172,2.236C829.867,301.734,829.623,301.804,829.313,301.804z M827.258,289.792
		c0.605-0.277,1.359-0.884,2.262-1.82s1.646-2.01,2.236-3.224c0.658-1.421,0.988-2.981,0.988-4.68c0-2.392-0.633-4.654-1.898-6.786
		s-2.973-3.7-5.121-4.706c-1.422-0.658-2.982-0.988-4.682-0.988c-1.732,0-3.404,0.364-5.018,1.092
		c-1.611,0.728-3.025,1.786-4.238,3.172c-0.9,1.11-1.586,2.323-2.053,3.64c-0.469,1.318-0.703,2.67-0.703,4.056
		c0,1.768,0.365,3.467,1.092,5.096c0.729,1.629,1.785,3.034,3.172,4.212c1.074,0.902,2.264,1.586,3.563,2.054
		c1.301,0.468,2.627,0.702,3.979,0.702c1.941,0,3.762-0.45,5.459-1.352C826.33,290.226,826.65,290.07,827.258,289.792z"/>
	<path d="M852.66,296.5c-1.977-1.144-3.555-2.695-4.732-4.654c-1.18-1.958-1.768-4.099-1.768-6.422v-23.036
		c0-0.277,0.094-0.511,0.285-0.702c0.189-0.19,0.408-0.286,0.65-0.286h4.992c0.242,0,0.459,0.096,0.65,0.286
		c0.189,0.191,0.285,0.425,0.285,0.702v23.036c0,1.699,0.59,3.146,1.768,4.342c1.178,1.196,2.617,1.794,4.316,1.794
		c1.281,0,2.486-0.277,3.613-0.832c1.127-0.554,2.02-1.3,2.68-2.236c0.658-0.936,0.986-1.958,0.986-3.068v-23.036
		c0-0.277,0.096-0.511,0.287-0.702c0.189-0.19,0.406-0.286,0.65-0.286h4.992c0.242,0,0.459,0.096,0.648,0.286
		c0.191,0.191,0.287,0.425,0.287,0.702v23.036c0,2.358-0.607,4.507-1.82,6.448c-1.215,1.942-2.895,3.484-5.045,4.628
		c-2.148,1.144-4.576,1.716-7.279,1.716C856.785,298.216,854.635,297.645,852.66,296.5z"/>
	<path d="M882.896,297.358c-0.191-0.19-0.285-0.407-0.285-0.65V262.44c0-0.277,0.094-0.502,0.285-0.676
		c0.189-0.173,0.408-0.26,0.65-0.26h23.295c0.277,0,0.504,0.087,0.678,0.26c0.172,0.174,0.26,0.399,0.26,0.676v4.368
		c0,0.243-0.088,0.46-0.26,0.65c-0.174,0.191-0.4,0.286-0.678,0.286h-16.795c-0.242,0-0.461,0.087-0.65,0.26
		c-0.191,0.174-0.285,0.399-0.285,0.676v7.644v0.156c0,0.312,0.068,0.529,0.207,0.65c0.139,0.122,0.469,0.182,0.988,0.182h13
		c0.242,0,0.449,0.078,0.625,0.234c0.172,0.156,0.26,0.356,0.26,0.598v4.42c0,0.243-0.088,0.442-0.26,0.598
		c-0.176,0.156-0.383,0.234-0.625,0.234h-13.053c-0.449,0-0.754,0.13-0.91,0.39c-0.154,0.26-0.232,0.529-0.232,0.806v5.512
		c0,0.347,0.094,0.642,0.285,0.884c0.189,0.243,0.58,0.364,1.17,0.364h16.641c0.242,0,0.459,0.096,0.65,0.286
		c0.189,0.191,0.285,0.425,0.285,0.702v4.368c0,0.243-0.086,0.459-0.26,0.65c-0.174,0.191-0.398,0.286-0.676,0.286h-23.66
		C883.305,297.645,883.086,297.549,882.896,297.358z"/>
	<path d="M917.58,297.488c-0.225-0.208-0.338-0.468-0.338-0.78V262.44c0-0.277,0.113-0.528,0.338-0.754
		c0.225-0.225,0.477-0.338,0.754-0.338h5.357c0.311,0,0.57,0.113,0.779,0.338c0.207,0.226,0.313,0.477,0.313,0.754v27.404
		c0,0.278,0.104,0.529,0.311,0.754c0.209,0.226,0.451,0.338,0.729,0.338h12.584c0.313,0,0.572,0.104,0.779,0.312
		c0.209,0.208,0.313,0.451,0.313,0.728v4.732c0,0.312-0.104,0.572-0.313,0.78c-0.207,0.208-0.467,0.312-0.779,0.312h-20.072
		C918.057,297.8,917.805,297.696,917.58,297.488z"/>
	<path d="M948.676,297.488c-0.227-0.208-0.338-0.468-0.338-0.78V262.44c0-0.277,0.111-0.528,0.338-0.754
		c0.225-0.225,0.477-0.338,0.754-0.338h5.355c0.313,0,0.572,0.113,0.779,0.338c0.209,0.226,0.313,0.477,0.313,0.754v27.404
		c0,0.278,0.104,0.529,0.313,0.754c0.207,0.226,0.449,0.338,0.729,0.338h12.584c0.311,0,0.572,0.104,0.779,0.312
		c0.207,0.208,0.313,0.451,0.313,0.728v4.732c0,0.312-0.105,0.572-0.313,0.78s-0.469,0.312-0.779,0.312H949.43
		C949.152,297.8,948.9,297.696,948.676,297.488z"/>
	<path d="M978.367,292.106c-1.717-1.924-2.973-4.064-3.77-6.422l-0.104-0.26c-0.625-1.872-0.938-3.813-0.938-5.824
		c0-2.149,0.365-4.264,1.092-6.344c0.729-2.08,1.82-3.969,3.277-5.668c1.906-2.045,3.838-3.614,5.797-4.706s4.43-1.724,7.41-1.898
		h0.156c2.912-0.173,5.754,0.347,8.527,1.56c1.734,0.763,3.406,1.881,5.02,3.354c1.611,1.474,2.781,2.938,3.51,4.394
		c1.629,2.843,2.443,5.928,2.443,9.256c0,1.942-0.295,3.84-0.885,5.694c-0.59,1.855-1.455,3.58-2.6,5.174
		c-0.867,1.214-1.811,2.28-2.834,3.198c-1.021,0.919-2.279,1.777-3.77,2.574c-2.67,1.352-5.547,2.028-8.633,2.028
		c-2.635,0-5.146-0.52-7.539-1.56C982.137,295.547,980.084,294.03,978.367,292.106z M1001.014,287.504
		c0.936-1.074,1.611-2.097,2.027-3.068c0.693-1.594,1.041-3.224,1.041-4.888c0-2.288-0.625-4.428-1.873-6.422
		c-1.248-1.993-2.963-3.475-5.148-4.446c-1.594-0.693-3.24-1.04-4.939-1.04c-1.525,0-2.99,0.278-4.395,0.832
		c-1.402,0.555-2.66,1.37-3.77,2.444l-0.883,0.936c-0.938,1.144-1.639,2.375-2.107,3.692c-0.467,1.318-0.701,2.67-0.701,4.056
		c0,1.734,0.363,3.406,1.092,5.018c0.729,1.612,1.785,2.973,3.172,4.082c2.254,1.872,4.818,2.808,7.695,2.808
		c1.906,0,3.693-0.416,5.357-1.248C998.934,289.498,1000.078,288.579,1001.014,287.504z"/>
	<path d="M1048.566,295.772c-2.826-1.664-5.063-3.926-6.709-6.786s-2.469-5.988-2.469-9.386c0-3.362,0.822-6.474,2.469-9.334
		c1.646-2.86,3.883-5.13,6.709-6.812c2.824-1.681,5.902-2.522,9.23-2.522c2.6,0,5.078,0.52,7.436,1.56s4.402,2.531,6.137,4.472
		c0.207,0.208,0.311,0.434,0.311,0.676c0,0.208-0.121,0.434-0.363,0.676c-0.729,0.59-1.457,1.205-2.184,1.846
		c-0.729,0.642-1.232,1.084-1.508,1.326c-0.209,0.208-0.451,0.312-0.729,0.312c-0.242,0-0.469-0.104-0.676-0.312
		c-1.109-1.213-2.393-2.14-3.848-2.782c-1.457-0.641-2.982-0.962-4.576-0.962c-2.08,0-4.014,0.538-5.799,1.612
		c-1.785,1.075-3.197,2.514-4.238,4.316c-1.039,1.803-1.559,3.779-1.559,5.928c0,2.15,0.52,4.126,1.559,5.928
		c1.041,1.803,2.453,3.242,4.238,4.316c1.785,1.075,3.719,1.612,5.799,1.612c1.49,0,2.928-0.294,4.314-0.884
		c1.387-0.589,2.635-1.438,3.744-2.548c0.348-0.277,0.729-0.416,1.145-0.416c0.346,0,0.625,0.104,0.832,0.312
		c0.346,0.278,0.832,0.685,1.457,1.222c0.623,0.538,1.16,1.014,1.611,1.43c0.381,0.312,0.572,0.694,0.572,1.144
		c0,0.278-0.104,0.52-0.313,0.728c-1.734,1.872-3.752,3.311-6.059,4.316c-2.305,1.006-4.74,1.508-7.305,1.508
		C1054.469,298.268,1051.391,297.437,1048.566,295.772z"/>
	<path d="M1079.48,297.592c-0.141-0.138-0.209-0.312-0.209-0.52v-34.996c0-0.208,0.068-0.381,0.209-0.52
		c0.137-0.138,0.311-0.208,0.52-0.208h5.459c0.209,0,0.381,0.078,0.521,0.234c0.137,0.156,0.207,0.321,0.207,0.494v13.572
		c0,0.312,0.121,0.59,0.363,0.832c0.242,0.243,0.521,0.364,0.832,0.364h9.881c0.313,0,0.58-0.112,0.807-0.338
		c0.225-0.225,0.354-0.511,0.389-0.858v-13.572c0-0.173,0.07-0.338,0.209-0.494c0.139-0.156,0.313-0.234,0.52-0.234h5.461
		c0.207,0,0.381,0.07,0.52,0.208c0.139,0.139,0.207,0.312,0.207,0.52v34.996c0,0.208-0.068,0.382-0.207,0.52
		c-0.139,0.139-0.313,0.208-0.52,0.208h-5.461c-0.207,0-0.381-0.078-0.52-0.234c-0.139-0.156-0.209-0.32-0.209-0.494v-12.064
		c-0.035-0.346-0.164-0.632-0.389-0.858c-0.227-0.225-0.494-0.338-0.807-0.338h-9.881c-0.311,0-0.58,0.104-0.805,0.312
		c-0.227,0.208-0.355,0.486-0.391,0.832v12.116c0,0.174-0.07,0.338-0.207,0.494c-0.141,0.156-0.313,0.234-0.521,0.234H1080
		C1079.791,297.8,1079.617,297.731,1079.48,297.592z"/>
	<path d="M1114.76,297.358c-0.191-0.19-0.285-0.407-0.285-0.65V262.44c0-0.277,0.094-0.502,0.285-0.676
		c0.189-0.173,0.408-0.26,0.65-0.26h23.295c0.277,0,0.504,0.087,0.678,0.26c0.172,0.174,0.26,0.399,0.26,0.676v4.368
		c0,0.243-0.088,0.46-0.26,0.65c-0.174,0.191-0.4,0.286-0.678,0.286h-16.795c-0.242,0-0.461,0.087-0.65,0.26
		c-0.191,0.174-0.285,0.399-0.285,0.676v7.644v0.156c0,0.312,0.068,0.529,0.207,0.65c0.139,0.122,0.469,0.182,0.988,0.182h13
		c0.242,0,0.449,0.078,0.625,0.234c0.172,0.156,0.26,0.356,0.26,0.598v4.42c0,0.243-0.088,0.442-0.26,0.598
		c-0.176,0.156-0.383,0.234-0.625,0.234h-13.053c-0.449,0-0.754,0.13-0.91,0.39c-0.154,0.26-0.232,0.529-0.232,0.806v5.512
		c0,0.347,0.094,0.642,0.285,0.884c0.189,0.243,0.58,0.364,1.17,0.364h16.641c0.242,0,0.459,0.096,0.65,0.286
		c0.189,0.191,0.285,0.425,0.285,0.702v4.368c0,0.243-0.086,0.459-0.26,0.65c-0.174,0.191-0.398,0.286-0.676,0.286h-23.66
		C1115.168,297.645,1114.949,297.549,1114.76,297.358z"/>
	<path d="M146.637,359.992c-0.139-0.139-0.208-0.313-0.208-0.52v-34.997c0-0.208,0.069-0.381,0.208-0.52
		c0.138-0.138,0.312-0.208,0.52-0.208h5.46c0.208,0,0.381,0.078,0.52,0.234c0.138,0.156,0.208,0.321,0.208,0.494v13.572
		c0,0.312,0.121,0.59,0.364,0.832c0.242,0.243,0.52,0.364,0.832,0.364h9.88c0.312,0,0.58-0.112,0.806-0.338
		c0.225-0.225,0.355-0.511,0.39-0.858v-13.572c0-0.173,0.069-0.338,0.208-0.494c0.138-0.156,0.312-0.234,0.52-0.234h5.46
		c0.208,0,0.381,0.07,0.52,0.208c0.138,0.139,0.208,0.312,0.208,0.52v34.997c0,0.207-0.07,0.381-0.208,0.52
		c-0.139,0.139-0.312,0.208-0.52,0.208h-5.46c-0.208,0-0.382-0.078-0.52-0.233c-0.139-0.156-0.208-0.32-0.208-0.494v-12.064
		c-0.035-0.346-0.165-0.633-0.39-0.857c-0.226-0.226-0.494-0.338-0.806-0.338h-9.88c-0.312,0-0.581,0.104-0.806,0.312
		c-0.226,0.208-0.356,0.485-0.39,0.831v12.117c0,0.174-0.07,0.338-0.208,0.494c-0.139,0.155-0.312,0.233-0.52,0.233h-5.46
		C146.949,360.2,146.775,360.131,146.637,359.992z"/>
	<path d="M179.761,360.045c-0.104-0.139-0.139-0.295-0.104-0.469l9.204-34.996c0.069-0.208,0.199-0.39,0.39-0.546
		c0.19-0.156,0.407-0.234,0.65-0.234h10.816c0.208,0,0.416,0.07,0.624,0.208c0.208,0.139,0.346,0.312,0.416,0.52l9.204,34.996v0.155
		c0,0.383-0.174,0.572-0.52,0.572h-5.096c-0.208,0-0.425-0.078-0.65-0.234c-0.226-0.155-0.356-0.338-0.39-0.545l-2.548-9.672
		c-0.07-0.313-0.243-0.572-0.52-0.781c-0.278-0.207-0.572-0.312-0.884-0.312h-10.088c-0.312,0-0.607,0.104-0.884,0.312
		c-0.278,0.209-0.451,0.469-0.52,0.781l-2.548,9.619c-0.035,0.243-0.165,0.442-0.39,0.598c-0.226,0.156-0.442,0.234-0.65,0.234
		h-5.096C180.003,360.252,179.865,360.184,179.761,360.045z M198.741,343.145c0.346,0,0.615-0.121,0.806-0.364
		c0.19-0.242,0.251-0.52,0.182-0.832l-2.912-10.712c-0.035-0.277-0.191-0.52-0.468-0.728c-0.278-0.208-0.572-0.312-0.884-0.312
		h-0.312c-0.312,0-0.607,0.104-0.884,0.312c-0.278,0.208-0.434,0.451-0.468,0.728l-2.86,10.712l-0.052,0.26
		c0,0.278,0.086,0.503,0.26,0.676c0.173,0.174,0.416,0.26,0.728,0.26H198.741z"/>
	<path d="M220.191,359.914c-0.191-0.189-0.286-0.406-0.286-0.65v-34.527c0-0.277,0.104-0.511,0.312-0.702
		c0.208-0.19,0.433-0.286,0.676-0.286h5.408c0.242,0,0.459,0.096,0.65,0.286c0.19,0.191,0.286,0.425,0.286,0.702v34.527
		c0,0.244-0.087,0.461-0.26,0.65c-0.174,0.191-0.399,0.286-0.676,0.286h-5.408C220.615,360.2,220.381,360.105,220.191,359.914z"/>
	<path d="M265.378,358.744c-2.791-0.866-4.758-1.82-5.902-2.859c-0.208-0.209-0.312-0.469-0.312-0.781
		c0-0.346,0.138-0.779,0.416-1.299c0.277-0.521,0.745-1.248,1.404-2.185c0.242-0.347,0.537-0.521,0.884-0.521
		c0.104,0,0.26,0.035,0.468,0.104c2.461,1.248,4.498,2.037,6.11,2.366c1.612,0.33,3.319,0.494,5.122,0.494
		c1.768,0,3.163-0.303,4.186-0.91c1.022-0.606,1.534-1.412,1.534-2.418c0-0.832-0.364-1.717-1.092-2.652
		c-0.451-0.589-1.17-1.083-2.158-1.482c-0.988-0.397-2.228-0.805-3.718-1.221c-0.174-0.035-0.624-0.156-1.352-0.365
		c-2.808-0.832-4.992-1.828-6.552-2.989s-2.6-2.626-3.12-4.394c-0.382-1.213-0.572-2.322-0.572-3.328
		c0-1.768,0.468-3.388,1.404-4.862c0.936-1.473,2.288-2.695,4.056-3.666c1.768-0.97,3.848-1.577,6.24-1.82
		c0.312-0.034,0.797-0.052,1.456-0.052c2.634,0,5.217,0.503,7.748,1.508c2.704,1.352,3.9,2.496,3.588,3.432
		c-0.208,0.52-0.616,1.17-1.222,1.95c-0.607,0.78-0.997,1.292-1.17,1.534c-0.104,0.139-0.26,0.208-0.468,0.208
		c-0.347,0-0.936-0.208-1.768-0.624c-1.11-0.52-2.028-0.849-2.756-0.988c-1.595-0.346-2.895-0.52-3.9-0.52
		c-1.11,0-2.236,0.191-3.38,0.572c-0.902,0.451-1.595,0.98-2.08,1.586c-0.486,0.607-0.728,1.24-0.728,1.898
		c0,0.971,0.485,1.82,1.456,2.548c1.074,0.763,2.227,1.404,3.458,1.924c1.23,0.52,2.608,1.058,4.134,1.612
		c1.664,0.624,3.007,1.188,4.03,1.69c1.022,0.503,1.863,1.17,2.522,2.002c0.693,0.658,1.274,1.595,1.742,2.809
		c0.468,1.213,0.702,2.374,0.702,3.483c0,1.942-0.52,3.623-1.56,5.044c-1.04,1.422-2.479,2.521-4.316,3.302
		c-1.838,0.78-3.952,1.171-6.344,1.171C270.898,360.045,268.168,359.611,265.378,358.744z"/>
	<path d="M294.445,359.758c-0.191-0.189-0.286-0.406-0.286-0.649V324.84c0-0.277,0.095-0.502,0.286-0.676
		c0.19-0.173,0.407-0.26,0.65-0.26h23.296c0.277,0,0.502,0.087,0.676,0.26c0.173,0.174,0.26,0.399,0.26,0.676v4.368
		c0,0.243-0.087,0.46-0.26,0.65c-0.174,0.191-0.399,0.286-0.676,0.286h-16.796c-0.243,0-0.46,0.087-0.65,0.26
		c-0.191,0.174-0.286,0.399-0.286,0.676v7.644v0.156c0,0.312,0.069,0.529,0.208,0.65c0.138,0.122,0.468,0.182,0.988,0.182h13
		c0.242,0,0.45,0.078,0.624,0.234c0.173,0.156,0.26,0.356,0.26,0.598v4.42c0,0.242-0.087,0.441-0.26,0.598
		c-0.174,0.156-0.382,0.234-0.624,0.234h-13.052c-0.451,0-0.754,0.129-0.91,0.389c-0.156,0.261-0.234,0.529-0.234,0.807v5.512
		c0,0.348,0.095,0.643,0.286,0.885c0.19,0.242,0.581,0.363,1.17,0.363h16.64c0.242,0,0.459,0.096,0.65,0.286
		c0.19,0.19,0.286,0.425,0.286,0.702v4.368c0,0.243-0.087,0.46-0.26,0.649c-0.174,0.191-0.399,0.287-0.676,0.287h-23.66
		C294.853,360.045,294.636,359.949,294.445,359.758z"/>
	<path d="M327.959,359.914c-0.174-0.189-0.26-0.406-0.26-0.65v-34.476c0-0.242,0.086-0.459,0.26-0.65
		c0.173-0.19,0.381-0.286,0.624-0.286h5.096c0.346,0,0.606,0.174,0.78,0.52l7.904,13.104c0.034,0.07,0.13,0.174,0.286,0.312
		c0.156,0.139,0.355,0.208,0.598,0.208h0.104c0.242,0,0.424-0.078,0.546-0.234c0.121-0.156,0.199-0.268,0.234-0.338l7.852-13
		c0.242-0.381,0.52-0.572,0.832-0.572h5.148c0.242,0,0.45,0.096,0.624,0.286c0.173,0.191,0.26,0.408,0.26,0.65v34.476
		c0,0.244-0.087,0.461-0.26,0.65c-0.174,0.191-0.382,0.286-0.624,0.286h-5.096c-0.278,0-0.503-0.086-0.676-0.26
		c-0.174-0.173-0.26-0.398-0.26-0.677V338.62c0-0.346-0.07-0.52-0.208-0.52c-0.139,0-0.295,0.139-0.468,0.416l-5.46,7.748
		c-0.312,0.451-0.581,0.746-0.806,0.885c-0.226,0.139-0.616,0.207-1.17,0.207h-0.884c-0.659,0-1.11-0.051-1.352-0.155
		c-0.243-0.104-0.486-0.329-0.728-0.676l-5.616-7.956c-0.208-0.312-0.364-0.468-0.468-0.468c-0.139,0-0.208,0.156-0.208,0.468
		v20.695c0,0.244-0.087,0.461-0.26,0.65c-0.174,0.191-0.399,0.286-0.676,0.286h-5.044C328.34,360.2,328.132,360.105,327.959,359.914
		z"/>
	<path d="M368.128,359.914c-0.191-0.189-0.286-0.406-0.286-0.65v-34.476c0-0.277,0.095-0.502,0.286-0.676
		c0.19-0.173,0.407-0.26,0.65-0.26h12.116c2.08,0,4.004,0.512,5.772,1.534c1.768,1.023,3.163,2.418,4.186,4.186
		c1.022,1.768,1.534,3.692,1.534,5.772c0,2.115-0.512,4.048-1.534,5.798c-1.023,1.751-2.41,3.138-4.16,4.161
		c-1.751,1.022-3.684,1.533-5.798,1.533h-5.2c-0.416,0-0.737,0.078-0.962,0.234c-0.226,0.156-0.338,0.425-0.338,0.806v11.388
		c0,0.244-0.087,0.461-0.26,0.65c-0.174,0.191-0.399,0.286-0.676,0.286h-4.68C368.535,360.2,368.318,360.105,368.128,359.914z
		 M380.894,340.18c1.317,0,2.452-0.468,3.406-1.404c0.953-0.936,1.43-2.08,1.43-3.432c0-1.317-0.477-2.444-1.43-3.38
		c-0.954-0.936-2.089-1.404-3.406-1.404h-5.252c-0.832,0-1.248,0.347-1.248,1.04v8.58H380.894z"/>
	<path d="M400.315,359.967c-0.191-0.191-0.286-0.408-0.286-0.65v-34.58c0-0.242,0.095-0.459,0.286-0.65
		c0.19-0.19,0.424-0.286,0.702-0.286h10.92c2.149,0,4.134,0.512,5.954,1.534c1.82,1.023,3.258,2.418,4.316,4.186
		c1.057,1.768,1.586,3.71,1.586,5.824c0,1.803-0.416,3.484-1.248,5.044c-0.832,1.56-1.958,2.913-3.38,4.056
		c-0.208,0.174-0.312,0.399-0.312,0.676c0,0.104,0.017,0.19,0.052,0.261c0.034,0.069,0.052,0.121,0.052,0.155l6.032,13.468
		c0.104,0.243,0.156,0.469,0.156,0.676c0,0.383-0.226,0.572-0.676,0.572h-4.576c-0.382,0-0.668-0.035-0.858-0.104
		c-0.191-0.069-0.356-0.242-0.494-0.52l-5.46-12.169c-0.07-0.208-0.2-0.346-0.39-0.415c-0.191-0.07-0.529-0.121-1.014-0.156h-4.16
		c-0.52,0-0.876,0.069-1.066,0.207c-0.191,0.14-0.286,0.399-0.286,0.78v11.44c0,0.242-0.096,0.459-0.286,0.65
		c-0.191,0.19-0.425,0.285-0.702,0.285h-4.16C400.74,360.252,400.506,360.157,400.315,359.967z M411.938,340.18
		c1.352,0,2.513-0.476,3.484-1.43c0.97-0.953,1.456-2.088,1.456-3.406c0-1.352-0.486-2.496-1.456-3.432
		c-0.971-0.936-2.132-1.404-3.484-1.404h-4.836c-0.624,0-0.936,0.347-0.936,1.04v7.8c0,0.243,0.069,0.442,0.208,0.598
		c0.138,0.156,0.329,0.234,0.572,0.234H411.938z"/>
	<path d="M433.179,359.758c-0.191-0.189-0.286-0.406-0.286-0.649V324.84c0-0.277,0.095-0.502,0.286-0.676
		c0.19-0.173,0.407-0.26,0.65-0.26h23.296c0.277,0,0.502,0.087,0.676,0.26c0.173,0.174,0.26,0.399,0.26,0.676v4.368
		c0,0.243-0.087,0.46-0.26,0.65c-0.174,0.191-0.399,0.286-0.676,0.286H440.33c-0.243,0-0.46,0.087-0.65,0.26
		c-0.191,0.174-0.286,0.399-0.286,0.676v7.644v0.156c0,0.312,0.069,0.529,0.208,0.65c0.138,0.122,0.468,0.182,0.988,0.182h13
		c0.242,0,0.45,0.078,0.624,0.234c0.173,0.156,0.26,0.356,0.26,0.598v4.42c0,0.242-0.087,0.441-0.26,0.598
		c-0.174,0.156-0.382,0.234-0.624,0.234h-13.052c-0.451,0-0.754,0.129-0.91,0.389c-0.156,0.261-0.234,0.529-0.234,0.807v5.512
		c0,0.348,0.095,0.643,0.286,0.885c0.19,0.242,0.581,0.363,1.17,0.363h16.64c0.242,0,0.459,0.096,0.65,0.286
		c0.19,0.19,0.286,0.425,0.286,0.702v4.368c0,0.243-0.087,0.46-0.26,0.649c-0.174,0.191-0.399,0.287-0.676,0.287h-23.66
		C433.586,360.045,433.37,359.949,433.179,359.758z"/>
	<path d="M489.286,359.967c-0.191-0.191-0.286-0.408-0.286-0.65v-34.58c0-0.277,0.095-0.502,0.286-0.676
		c0.19-0.173,0.407-0.26,0.65-0.26h21.788c0.277,0,0.502,0.087,0.676,0.26c0.173,0.174,0.26,0.399,0.26,0.676v4.42
		c0,0.243-0.087,0.46-0.26,0.65c-0.174,0.191-0.399,0.286-0.676,0.286h-14.3c-0.347,0-0.65,0.122-0.91,0.364
		c-0.26,0.243-0.39,0.555-0.39,0.936v6.292c0,0.347,0.13,0.65,0.39,0.91c0.26,0.26,0.563,0.39,0.91,0.39h9.672
		c0.346,0,0.641,0.13,0.884,0.39c0.242,0.26,0.364,0.581,0.364,0.962v4.16c0,0.382-0.122,0.702-0.364,0.962
		c-0.243,0.261-0.538,0.39-0.884,0.39h-10.088c-0.243,0-0.46,0.088-0.65,0.261c-0.191,0.174-0.286,0.399-0.286,0.676v12.532
		c0,0.242-0.087,0.459-0.26,0.65c-0.174,0.19-0.399,0.285-0.676,0.285h-5.2C489.693,360.252,489.476,360.157,489.286,359.967z"/>
	<path d="M515.625,360.045c-0.104-0.139-0.139-0.295-0.104-0.469l9.204-34.996c0.069-0.208,0.199-0.39,0.39-0.546
		c0.19-0.156,0.407-0.234,0.65-0.234h10.816c0.208,0,0.416,0.07,0.624,0.208c0.208,0.139,0.346,0.312,0.416,0.52l9.204,34.996v0.155
		c0,0.383-0.174,0.572-0.52,0.572h-5.096c-0.208,0-0.425-0.078-0.65-0.234c-0.226-0.155-0.356-0.338-0.39-0.545l-2.548-9.672
		c-0.07-0.313-0.243-0.572-0.52-0.781c-0.278-0.207-0.572-0.312-0.884-0.312h-10.088c-0.312,0-0.607,0.104-0.884,0.312
		c-0.278,0.209-0.451,0.469-0.52,0.781l-2.548,9.619c-0.035,0.243-0.165,0.442-0.39,0.598c-0.226,0.156-0.442,0.234-0.65,0.234
		h-5.096C515.867,360.252,515.729,360.184,515.625,360.045z M534.604,343.145c0.346,0,0.615-0.121,0.806-0.364
		c0.19-0.242,0.251-0.52,0.182-0.832l-2.912-10.712c-0.035-0.277-0.191-0.52-0.468-0.728c-0.278-0.208-0.572-0.312-0.884-0.312
		h-0.312c-0.312,0-0.607,0.104-0.884,0.312c-0.278,0.208-0.434,0.451-0.468,0.728l-2.86,10.712l-0.052,0.26
		c0,0.278,0.086,0.503,0.26,0.676c0.173,0.174,0.416,0.26,0.728,0.26H534.604z"/>
	<path d="M559.59,359.992c-0.122-0.139-0.182-0.294-0.182-0.468V331.34c0-0.312-0.13-0.598-0.39-0.858
		c-0.26-0.26-0.564-0.39-0.91-0.39h-8.736c-0.139,0-0.278-0.069-0.416-0.208c-0.139-0.138-0.208-0.277-0.208-0.416v-5.044
		c0-0.173,0.06-0.312,0.182-0.416c0.121-0.104,0.269-0.156,0.442-0.156h27.456c0.208,0,0.381,0.07,0.52,0.208
		c0.138,0.139,0.208,0.295,0.208,0.468v4.888c0,0.174-0.07,0.33-0.208,0.468c-0.139,0.139-0.312,0.208-0.52,0.208h-8.632
		c-0.347,0-0.642,0.122-0.884,0.364c-0.243,0.243-0.364,0.538-0.364,0.884v28.184c0,0.174-0.061,0.329-0.182,0.468
		c-0.122,0.139-0.286,0.208-0.494,0.208h-6.188C559.876,360.2,559.711,360.131,559.59,359.992z"/>
	<path d="M596.717,359.992c-0.121-0.139-0.182-0.294-0.182-0.468V331.34c0-0.312-0.13-0.598-0.39-0.858
		c-0.261-0.26-0.563-0.39-0.91-0.39H586.5c-0.139,0-0.278-0.069-0.416-0.208c-0.139-0.138-0.208-0.277-0.208-0.416v-5.044
		c0-0.173,0.06-0.312,0.182-0.416c0.121-0.104,0.269-0.156,0.442-0.156h27.455c0.209,0,0.381,0.07,0.52,0.208
		c0.139,0.139,0.209,0.295,0.209,0.468v4.888c0,0.174-0.07,0.33-0.209,0.468c-0.139,0.139-0.311,0.208-0.52,0.208h-8.631
		c-0.348,0-0.643,0.122-0.885,0.364c-0.242,0.243-0.363,0.538-0.363,0.884v28.184c0,0.174-0.063,0.329-0.182,0.468
		c-0.123,0.139-0.287,0.208-0.494,0.208h-6.189C597.004,360.2,596.838,360.131,596.717,359.992z"/>
	<path d="M623.496,354.506c-1.715-1.924-2.973-4.064-3.77-6.422l-0.104-0.26c-0.625-1.872-0.936-3.813-0.936-5.824
		c0-2.149,0.363-4.264,1.092-6.344s1.82-3.969,3.275-5.668c1.906-2.045,3.84-3.614,5.799-4.706c1.957-1.092,4.428-1.724,7.41-1.898
		h0.154c2.912-0.173,5.756,0.347,8.529,1.56c1.732,0.763,3.406,1.881,5.018,3.354c1.611,1.474,2.781,2.938,3.51,4.394
		c1.629,2.843,2.443,5.928,2.443,9.256c0,1.942-0.295,3.84-0.883,5.694c-0.59,1.854-1.457,3.58-2.6,5.174
		c-0.867,1.214-1.813,2.279-2.834,3.197c-1.023,0.92-2.281,1.777-3.771,2.574c-2.67,1.353-5.547,2.028-8.631,2.028
		c-2.635,0-5.148-0.521-7.541-1.56C627.268,357.947,625.213,356.43,623.496,354.506z M646.143,349.904
		c0.936-1.074,1.613-2.098,2.029-3.068c0.691-1.594,1.039-3.224,1.039-4.888c0-2.288-0.625-4.428-1.871-6.422
		c-1.248-1.993-2.965-3.475-5.148-4.446c-1.596-0.693-3.242-1.04-4.941-1.04c-1.525,0-2.988,0.278-4.393,0.832
		c-1.404,0.555-2.662,1.37-3.771,2.444l-0.883,0.936c-0.936,1.144-1.639,2.375-2.105,3.692c-0.469,1.318-0.703,2.67-0.703,4.056
		c0,1.734,0.365,3.406,1.092,5.018c0.729,1.613,1.785,2.974,3.172,4.082c2.254,1.873,4.818,2.809,7.697,2.809
		c1.906,0,3.691-0.416,5.355-1.248C644.063,351.898,645.207,350.979,646.143,349.904z"/>
	<path d="M691.199,358.744c-2.791-0.866-4.758-1.82-5.9-2.859c-0.209-0.209-0.313-0.469-0.313-0.781
		c0-0.346,0.139-0.779,0.416-1.299c0.277-0.521,0.744-1.248,1.404-2.185c0.242-0.347,0.537-0.521,0.883-0.521
		c0.104,0,0.26,0.035,0.469,0.104c2.461,1.248,4.498,2.037,6.109,2.366c1.613,0.33,3.32,0.494,5.123,0.494
		c1.768,0,3.162-0.303,4.186-0.91c1.021-0.606,1.533-1.412,1.533-2.418c0-0.832-0.363-1.717-1.092-2.652
		c-0.451-0.589-1.17-1.083-2.158-1.482c-0.988-0.397-2.227-0.805-3.717-1.221c-0.174-0.035-0.625-0.156-1.354-0.365
		c-2.807-0.832-4.99-1.828-6.551-2.989s-2.6-2.626-3.121-4.394c-0.381-1.213-0.57-2.322-0.57-3.328c0-1.768,0.467-3.388,1.402-4.862
		c0.938-1.473,2.289-2.695,4.057-3.666c1.768-0.97,3.848-1.577,6.24-1.82c0.313-0.034,0.797-0.052,1.455-0.052
		c2.635,0,5.219,0.503,7.748,1.508c2.705,1.352,3.9,2.496,3.588,3.432c-0.207,0.52-0.615,1.17-1.221,1.95
		c-0.607,0.78-0.998,1.292-1.17,1.534c-0.105,0.139-0.26,0.208-0.469,0.208c-0.348,0-0.936-0.208-1.768-0.624
		c-1.109-0.52-2.027-0.849-2.756-0.988c-1.596-0.346-2.895-0.52-3.9-0.52c-1.109,0-2.236,0.191-3.381,0.572
		c-0.9,0.451-1.594,0.98-2.08,1.586c-0.484,0.607-0.727,1.24-0.727,1.898c0,0.971,0.484,1.82,1.455,2.548
		c1.074,0.763,2.227,1.404,3.459,1.924c1.23,0.52,2.607,1.058,4.133,1.612c1.664,0.624,3.008,1.188,4.031,1.69
		c1.021,0.503,1.863,1.17,2.521,2.002c0.693,0.658,1.273,1.595,1.742,2.809c0.467,1.213,0.701,2.374,0.701,3.483
		c0,1.942-0.52,3.623-1.559,5.044c-1.041,1.422-2.48,2.521-4.316,3.302c-1.838,0.78-3.953,1.171-6.344,1.171
		C696.721,360.045,693.99,359.611,691.199,358.744z"/>
	<path d="M722.295,354.506c-1.715-1.924-2.973-4.064-3.77-6.422l-0.104-0.26c-0.625-1.872-0.936-3.813-0.936-5.824
		c0-2.149,0.363-4.264,1.092-6.344s1.82-3.969,3.275-5.668c1.906-2.045,3.84-3.614,5.799-4.706c1.957-1.092,4.428-1.724,7.41-1.898
		h0.154c2.912-0.173,5.756,0.347,8.529,1.56c1.732,0.763,3.406,1.881,5.018,3.354c1.611,1.474,2.781,2.938,3.51,4.394
		c1.629,2.843,2.443,5.928,2.443,9.256c0,1.942-0.295,3.84-0.883,5.694c-0.59,1.854-1.457,3.58-2.6,5.174
		c-0.867,1.214-1.813,2.279-2.834,3.197c-1.023,0.92-2.281,1.777-3.771,2.574c-2.67,1.353-5.547,2.028-8.631,2.028
		c-2.635,0-5.148-0.521-7.541-1.56C726.066,357.947,724.012,356.43,722.295,354.506z M744.941,349.904
		c0.936-1.074,1.613-2.098,2.029-3.068c0.691-1.594,1.039-3.224,1.039-4.888c0-2.288-0.625-4.428-1.871-6.422
		c-1.248-1.993-2.965-3.475-5.148-4.446c-1.596-0.693-3.242-1.04-4.941-1.04c-1.525,0-2.988,0.278-4.393,0.832
		c-1.404,0.555-2.662,1.37-3.771,2.444l-0.883,0.936c-0.936,1.144-1.639,2.375-2.105,3.692c-0.469,1.318-0.703,2.67-0.703,4.056
		c0,1.734,0.365,3.406,1.092,5.018c0.729,1.613,1.785,2.974,3.172,4.082c2.254,1.873,4.818,2.809,7.697,2.809
		c1.906,0,3.691-0.416,5.355-1.248C742.861,351.898,744.006,350.979,744.941,349.904z"/>
	<path d="M762.076,359.889c-0.227-0.209-0.338-0.469-0.338-0.78V324.84c0-0.277,0.111-0.528,0.338-0.754
		c0.225-0.225,0.475-0.338,0.754-0.338h5.355c0.313,0,0.572,0.113,0.779,0.338c0.209,0.226,0.313,0.477,0.313,0.754v27.404
		c0,0.277,0.104,0.529,0.313,0.754c0.207,0.227,0.449,0.338,0.729,0.338h12.584c0.311,0,0.57,0.104,0.779,0.313
		c0.207,0.207,0.313,0.451,0.313,0.728v4.732c0,0.312-0.105,0.571-0.313,0.78c-0.209,0.207-0.469,0.312-0.779,0.312H762.83
		C762.551,360.2,762.301,360.096,762.076,359.889z"/>
	<path d="M791.768,354.506c-1.717-1.924-2.973-4.064-3.771-6.422l-0.104-0.26c-0.623-1.872-0.936-3.813-0.936-5.824
		c0-2.149,0.363-4.264,1.092-6.344s1.82-3.969,3.275-5.668c1.906-2.045,3.84-3.614,5.799-4.706c1.957-1.092,4.428-1.724,7.41-1.898
		h0.156c2.912-0.173,5.754,0.347,8.527,1.56c1.732,0.763,3.406,1.881,5.018,3.354c1.613,1.474,2.783,2.938,3.51,4.394
		c1.629,2.843,2.445,5.928,2.445,9.256c0,1.942-0.295,3.84-0.885,5.694s-1.455,3.58-2.6,5.174c-0.867,1.214-1.813,2.279-2.834,3.197
		c-1.023,0.92-2.279,1.777-3.77,2.574c-2.67,1.353-5.547,2.028-8.633,2.028c-2.635,0-5.148-0.521-7.539-1.56
		C795.537,357.947,793.482,356.43,791.768,354.506z M814.412,349.904c0.938-1.074,1.613-2.098,2.029-3.068
		c0.693-1.594,1.039-3.224,1.039-4.888c0-2.288-0.623-4.428-1.871-6.422c-1.248-1.993-2.965-3.475-5.148-4.446
		c-1.596-0.693-3.242-1.04-4.939-1.04c-1.527,0-2.99,0.278-4.395,0.832c-1.404,0.555-2.66,1.37-3.77,2.444l-0.885,0.936
		c-0.936,1.144-1.639,2.375-2.105,3.692c-0.469,1.318-0.703,2.67-0.703,4.056c0,1.734,0.365,3.406,1.094,5.018
		c0.727,1.613,1.783,2.974,3.172,4.082c2.252,1.873,4.816,2.809,7.695,2.809c1.906,0,3.691-0.416,5.355-1.248
		C812.332,351.898,813.477,350.979,814.412,349.904z"/>
	<path d="M853.803,359.914c-0.191-0.189-0.285-0.406-0.285-0.65v-34.476c0-0.277,0.094-0.502,0.285-0.676
		c0.189-0.173,0.406-0.26,0.65-0.26h12.115c2.08,0,4.004,0.512,5.771,1.534c1.77,1.023,3.164,2.418,4.188,4.186
		c1.021,1.768,1.533,3.692,1.533,5.772c0,2.115-0.512,4.048-1.533,5.798c-1.023,1.751-2.41,3.138-4.16,4.161
		c-1.752,1.022-3.684,1.533-5.799,1.533h-5.199c-0.416,0-0.738,0.078-0.963,0.234s-0.338,0.425-0.338,0.806v11.388
		c0,0.244-0.086,0.461-0.26,0.65c-0.174,0.191-0.398,0.286-0.676,0.286h-4.68C854.209,360.2,853.992,360.105,853.803,359.914z
		 M866.568,340.18c1.318,0,2.453-0.468,3.406-1.404s1.43-2.08,1.43-3.432c0-1.317-0.477-2.444-1.43-3.38s-2.088-1.404-3.406-1.404
		h-5.252c-0.832,0-1.248,0.347-1.248,1.04v8.58H866.568z"/>
	<path d="M886.094,359.758c-0.191-0.189-0.285-0.406-0.285-0.649V324.84c0-0.277,0.094-0.502,0.285-0.676
		c0.189-0.173,0.408-0.26,0.65-0.26h23.295c0.277,0,0.504,0.087,0.678,0.26c0.172,0.174,0.26,0.399,0.26,0.676v4.368
		c0,0.243-0.088,0.46-0.26,0.65c-0.174,0.191-0.4,0.286-0.678,0.286h-16.795c-0.242,0-0.461,0.087-0.65,0.26
		c-0.191,0.174-0.285,0.399-0.285,0.676v7.644v0.156c0,0.312,0.068,0.529,0.207,0.65c0.139,0.122,0.469,0.182,0.988,0.182h13
		c0.242,0,0.449,0.078,0.625,0.234c0.172,0.156,0.26,0.356,0.26,0.598v4.42c0,0.242-0.088,0.441-0.26,0.598
		c-0.176,0.156-0.383,0.234-0.625,0.234h-13.053c-0.449,0-0.754,0.129-0.91,0.389c-0.154,0.261-0.232,0.529-0.232,0.807v5.512
		c0,0.348,0.094,0.643,0.285,0.885c0.189,0.242,0.58,0.363,1.17,0.363h16.641c0.242,0,0.459,0.096,0.65,0.286
		c0.189,0.19,0.285,0.425,0.285,0.702v4.368c0,0.243-0.086,0.46-0.26,0.649c-0.174,0.191-0.398,0.287-0.676,0.287h-23.66
		C886.502,360.045,886.283,359.949,886.094,359.758z"/>
	<path d="M919.842,359.967c-0.191-0.191-0.287-0.408-0.287-0.65v-34.58c0-0.242,0.096-0.459,0.287-0.65
		c0.189-0.19,0.424-0.286,0.701-0.286h10.92c2.15,0,4.135,0.512,5.955,1.534c1.82,1.023,3.258,2.418,4.316,4.186
		c1.057,1.768,1.586,3.71,1.586,5.824c0,1.803-0.416,3.484-1.248,5.044s-1.959,2.913-3.381,4.056
		c-0.207,0.174-0.313,0.399-0.313,0.676c0,0.104,0.018,0.19,0.053,0.261c0.033,0.069,0.053,0.121,0.053,0.155l6.031,13.468
		c0.104,0.243,0.156,0.469,0.156,0.676c0,0.383-0.227,0.572-0.676,0.572h-4.576c-0.383,0-0.668-0.035-0.859-0.104
		c-0.189-0.069-0.355-0.242-0.492-0.52l-5.461-12.169c-0.07-0.208-0.199-0.346-0.391-0.415c-0.189-0.07-0.527-0.121-1.014-0.156
		h-4.16c-0.52,0-0.875,0.069-1.066,0.207c-0.189,0.14-0.285,0.399-0.285,0.78v11.44c0,0.242-0.096,0.459-0.285,0.65
		c-0.191,0.19-0.426,0.285-0.703,0.285h-4.16C920.266,360.252,920.031,360.157,919.842,359.967z M931.463,340.18
		c1.354,0,2.514-0.476,3.484-1.43c0.971-0.953,1.457-2.088,1.457-3.406c0-1.352-0.486-2.496-1.457-3.432s-2.131-1.404-3.484-1.404
		h-4.836c-0.623,0-0.936,0.347-0.936,1.04v7.8c0,0.243,0.068,0.442,0.209,0.598c0.137,0.156,0.328,0.234,0.57,0.234H931.463z"/>
	<path d="M959.256,358.172c-2.824-1.664-5.061-3.926-6.707-6.785c-1.646-2.86-2.471-5.988-2.471-9.387
		c0-3.362,0.824-6.474,2.471-9.334c1.646-2.86,3.883-5.13,6.707-6.812c2.826-1.681,5.902-2.522,9.23-2.522
		c2.6,0,5.078,0.52,7.436,1.56s4.402,2.531,6.137,4.472c0.209,0.208,0.313,0.434,0.313,0.676c0,0.208-0.123,0.434-0.365,0.676
		c-0.727,0.59-1.455,1.205-2.184,1.846c-0.727,0.642-1.23,1.084-1.508,1.326c-0.207,0.208-0.451,0.312-0.729,0.312
		c-0.242,0-0.467-0.104-0.676-0.312c-1.109-1.213-2.391-2.14-3.848-2.782c-1.455-0.641-2.982-0.962-4.576-0.962
		c-2.08,0-4.012,0.538-5.797,1.612c-1.787,1.075-3.199,2.514-4.238,4.316c-1.041,1.803-1.561,3.779-1.561,5.928
		c0,2.15,0.52,4.126,1.561,5.928c1.039,1.803,2.451,3.242,4.238,4.316c1.785,1.075,3.717,1.611,5.797,1.611
		c1.49,0,2.93-0.293,4.316-0.883s2.635-1.438,3.744-2.549c0.346-0.277,0.729-0.416,1.145-0.416c0.346,0,0.623,0.104,0.832,0.313
		c0.346,0.277,0.832,0.686,1.455,1.222c0.625,0.538,1.162,1.015,1.611,1.431c0.383,0.312,0.572,0.693,0.572,1.144
		c0,0.278-0.104,0.521-0.311,0.728c-1.734,1.873-3.754,3.312-6.059,4.316c-2.307,1.006-4.74,1.508-7.307,1.508
		C965.158,360.668,962.082,359.836,959.256,358.172z"/>
	<path d="M990.17,359.992c-0.139-0.139-0.207-0.313-0.207-0.52v-34.997c0-0.208,0.068-0.381,0.207-0.52
		c0.139-0.138,0.313-0.208,0.52-0.208h5.461c0.207,0,0.381,0.078,0.52,0.234c0.139,0.156,0.209,0.321,0.209,0.494v13.572
		c0,0.312,0.121,0.59,0.363,0.832c0.242,0.243,0.52,0.364,0.832,0.364h9.879c0.313,0,0.58-0.112,0.807-0.338
		c0.225-0.225,0.355-0.511,0.391-0.858v-13.572c0-0.173,0.068-0.338,0.207-0.494c0.139-0.156,0.313-0.234,0.521-0.234h5.459
		c0.209,0,0.381,0.07,0.52,0.208c0.139,0.139,0.209,0.312,0.209,0.52v34.997c0,0.207-0.07,0.381-0.209,0.52s-0.311,0.208-0.52,0.208
		h-5.459c-0.209,0-0.383-0.078-0.521-0.233c-0.139-0.156-0.207-0.32-0.207-0.494v-12.064c-0.035-0.346-0.166-0.633-0.391-0.857
		c-0.227-0.226-0.494-0.338-0.807-0.338h-9.879c-0.313,0-0.582,0.104-0.807,0.312s-0.355,0.485-0.389,0.831v12.117
		c0,0.174-0.07,0.338-0.209,0.494c-0.139,0.155-0.313,0.233-0.52,0.233h-5.461C990.482,360.2,990.309,360.131,990.17,359.992z"/>
	<path d="M1025.451,359.758c-0.191-0.189-0.285-0.406-0.285-0.649V324.84c0-0.277,0.094-0.502,0.285-0.676
		c0.189-0.173,0.408-0.26,0.65-0.26h23.295c0.277,0,0.504,0.087,0.678,0.26c0.172,0.174,0.26,0.399,0.26,0.676v4.368
		c0,0.243-0.088,0.46-0.26,0.65c-0.174,0.191-0.4,0.286-0.678,0.286h-16.795c-0.242,0-0.461,0.087-0.65,0.26
		c-0.191,0.174-0.285,0.399-0.285,0.676v7.644v0.156c0,0.312,0.068,0.529,0.207,0.65c0.139,0.122,0.469,0.182,0.988,0.182h13
		c0.242,0,0.449,0.078,0.625,0.234c0.172,0.156,0.26,0.356,0.26,0.598v4.42c0,0.242-0.088,0.441-0.26,0.598
		c-0.176,0.156-0.383,0.234-0.625,0.234h-13.053c-0.449,0-0.754,0.129-0.91,0.389c-0.154,0.261-0.232,0.529-0.232,0.807v5.512
		c0,0.348,0.094,0.643,0.285,0.885c0.189,0.242,0.58,0.363,1.17,0.363h16.641c0.242,0,0.459,0.096,0.65,0.286
		c0.189,0.19,0.285,0.425,0.285,0.702v4.368c0,0.243-0.086,0.46-0.26,0.649c-0.174,0.191-0.398,0.287-0.676,0.287h-23.66
		C1025.859,360.045,1025.641,359.949,1025.451,359.758z"/>
	<path d="M1058.264,327.726c-0.191-0.19-0.287-0.407-0.287-0.65v-5.772c0-0.242,0.104-0.459,0.313-0.65
		c0.207-0.19,0.434-0.286,0.676-0.286h2.133c0.242,0,0.449,0.096,0.623,0.286c0.174,0.191,0.26,0.408,0.26,0.65v5.772
		c0,0.243-0.104,0.46-0.313,0.65c-0.207,0.191-0.434,0.286-0.676,0.286h-2.027C1058.688,328.012,1058.453,327.917,1058.264,327.726z
		"/>
	<path d="M252.17,422.158c-0.191-0.189-0.286-0.406-0.286-0.65V387.24c0-0.277,0.095-0.502,0.286-0.676
		c0.19-0.174,0.407-0.26,0.65-0.26h23.296c0.277,0,0.502,0.086,0.676,0.26c0.173,0.174,0.26,0.398,0.26,0.676v4.367
		c0,0.244-0.087,0.461-0.26,0.65c-0.174,0.191-0.399,0.287-0.676,0.287h-16.796c-0.243,0-0.46,0.086-0.65,0.26
		c-0.191,0.174-0.286,0.398-0.286,0.676v7.645v0.154c0,0.313,0.069,0.529,0.208,0.65c0.138,0.123,0.468,0.182,0.988,0.182h13
		c0.242,0,0.45,0.078,0.624,0.234c0.173,0.156,0.26,0.355,0.26,0.598v4.42c0,0.244-0.087,0.443-0.26,0.6
		c-0.174,0.154-0.382,0.232-0.624,0.232h-13.052c-0.451,0-0.754,0.131-0.91,0.391c-0.156,0.26-0.234,0.529-0.234,0.807v5.512
		c0,0.348,0.095,0.643,0.286,0.885c0.19,0.242,0.581,0.363,1.17,0.363h16.64c0.242,0,0.459,0.096,0.65,0.285
		c0.19,0.191,0.286,0.426,0.286,0.703v4.367c0,0.244-0.087,0.461-0.26,0.65c-0.174,0.191-0.399,0.285-0.676,0.285h-23.66
		C252.578,422.443,252.361,422.35,252.17,422.158z"/>
	<path d="M284.981,390.127c-0.191-0.191-0.286-0.408-0.286-0.65v-5.772c0-0.242,0.104-0.459,0.312-0.649
		c0.208-0.191,0.433-0.287,0.676-0.287h2.132c0.242,0,0.45,0.096,0.624,0.287c0.173,0.19,0.26,0.407,0.26,0.649v5.772
		c0,0.242-0.104,0.459-0.312,0.65c-0.208,0.189-0.434,0.285-0.676,0.285h-2.028C285.406,390.412,285.172,390.316,284.981,390.127z"
		/>
	<path d="M318.677,422.289c-0.226-0.209-0.338-0.469-0.338-0.781V387.24c0-0.277,0.112-0.527,0.338-0.754
		c0.225-0.225,0.476-0.338,0.754-0.338h5.356c0.312,0,0.572,0.113,0.78,0.338c0.208,0.227,0.312,0.477,0.312,0.754v27.404
		c0,0.277,0.104,0.529,0.312,0.754s0.45,0.338,0.728,0.338h12.584c0.312,0,0.572,0.104,0.78,0.313
		c0.208,0.207,0.312,0.451,0.312,0.727v4.732c0,0.313-0.104,0.572-0.312,0.781c-0.208,0.207-0.468,0.311-0.78,0.311h-20.072
		C319.153,422.6,318.902,422.496,318.677,422.289z"/>
	<path d="M347.563,422.443c-0.104-0.137-0.139-0.293-0.104-0.467l9.204-34.996c0.069-0.209,0.199-0.391,0.39-0.547
		c0.19-0.154,0.407-0.232,0.65-0.232h10.816c0.208,0,0.416,0.068,0.624,0.207s0.346,0.313,0.416,0.52l9.204,34.996v0.156
		c0,0.383-0.174,0.572-0.52,0.572h-5.096c-0.208,0-0.425-0.078-0.65-0.234c-0.226-0.156-0.356-0.338-0.39-0.545l-2.548-9.674
		c-0.07-0.311-0.243-0.57-0.52-0.779c-0.278-0.207-0.572-0.313-0.884-0.313h-10.088c-0.312,0-0.607,0.105-0.884,0.313
		c-0.278,0.209-0.451,0.469-0.52,0.779l-2.548,9.621c-0.035,0.242-0.165,0.441-0.39,0.598c-0.226,0.156-0.442,0.234-0.65,0.234
		h-5.096C347.805,422.652,347.667,422.584,347.563,422.443z M366.542,405.545c0.346,0,0.615-0.121,0.806-0.365
		c0.19-0.242,0.251-0.52,0.182-0.832l-2.912-10.711c-0.035-0.277-0.191-0.521-0.468-0.729c-0.278-0.209-0.572-0.313-0.884-0.313
		h-0.312c-0.312,0-0.607,0.104-0.884,0.313c-0.278,0.207-0.434,0.451-0.468,0.729l-2.86,10.711l-0.052,0.26
		c0,0.279,0.086,0.504,0.26,0.676c0.173,0.174,0.416,0.262,0.728,0.262H366.542z"/>
	<path d="M416.904,420.572c-2.826-1.664-5.062-3.926-6.708-6.787c-1.647-2.859-2.47-5.986-2.47-9.385
		c0-3.363,0.823-6.475,2.47-9.334c1.646-2.859,3.882-5.131,6.708-6.813c2.825-1.68,5.902-2.521,9.23-2.521
		c2.6,0,5.078,0.52,7.436,1.561c2.357,1.039,4.402,2.529,6.136,4.471c0.208,0.209,0.312,0.434,0.312,0.676
		c0,0.209-0.122,0.434-0.364,0.676c-0.728,0.59-1.456,1.205-2.184,1.848c-0.728,0.641-1.231,1.084-1.508,1.326
		c-0.208,0.207-0.451,0.311-0.728,0.311c-0.243,0-0.468-0.104-0.676-0.311c-1.11-1.215-2.392-2.141-3.848-2.783
		c-1.456-0.641-2.981-0.961-4.576-0.961c-2.08,0-4.013,0.537-5.798,1.611c-1.786,1.074-3.198,2.514-4.238,4.316
		s-1.56,3.779-1.56,5.928c0,2.15,0.52,4.125,1.56,5.928s2.452,3.242,4.238,4.316c1.785,1.074,3.718,1.611,5.798,1.611
		c1.49,0,2.929-0.293,4.316-0.883c1.386-0.59,2.634-1.439,3.744-2.549c0.346-0.277,0.728-0.416,1.144-0.416
		c0.346,0,0.624,0.104,0.832,0.313c0.346,0.277,0.832,0.684,1.456,1.221c0.624,0.539,1.161,1.016,1.612,1.432
		c0.381,0.311,0.572,0.693,0.572,1.143c0,0.279-0.104,0.52-0.312,0.729c-1.734,1.871-3.753,3.311-6.058,4.316
		c-2.306,1.006-4.741,1.508-7.306,1.508C422.806,423.068,419.729,422.236,416.904,420.572z"/>
	<path d="M449.923,416.906c-1.716-1.924-2.973-4.064-3.77-6.422l-0.104-0.26c-0.624-1.873-0.936-3.814-0.936-5.824
		c0-2.148,0.364-4.264,1.092-6.344s1.82-3.969,3.276-5.668c1.906-2.045,3.839-3.615,5.798-4.707c1.958-1.092,4.428-1.723,7.41-1.897
		h0.156c2.912-0.173,5.754,0.347,8.528,1.56c1.733,0.764,3.406,1.881,5.018,3.354c1.612,1.475,2.782,2.939,3.51,4.395
		c1.629,2.844,2.444,5.928,2.444,9.256c0,1.941-0.295,3.84-0.884,5.695c-0.59,1.854-1.456,3.578-2.6,5.174
		c-0.867,1.213-1.812,2.279-2.834,3.197c-1.023,0.92-2.28,1.777-3.77,2.574c-2.67,1.352-5.547,2.027-8.632,2.027
		c-2.635,0-5.148-0.52-7.54-1.559C453.693,420.348,451.64,418.83,449.923,416.906z M472.569,412.305
		c0.936-1.074,1.612-2.098,2.028-3.068c0.693-1.594,1.04-3.225,1.04-4.889c0-2.287-0.624-4.428-1.872-6.422
		c-1.248-1.992-2.964-3.475-5.148-4.445c-1.595-0.693-3.242-1.041-4.94-1.041c-1.526,0-2.99,0.279-4.394,0.832
		c-1.404,0.555-2.661,1.371-3.77,2.445l-0.884,0.936c-0.936,1.145-1.638,2.375-2.106,3.691c-0.468,1.318-0.702,2.67-0.702,4.057
		c0,1.734,0.364,3.406,1.092,5.018s1.785,2.973,3.172,4.082c2.253,1.873,4.818,2.809,7.696,2.809c1.906,0,3.692-0.416,5.356-1.248
		C470.489,414.299,471.633,413.379,472.569,412.305z"/>
	<path d="M493.707,421.145c-2.791-0.867-4.758-1.82-5.902-2.861c-0.208-0.207-0.312-0.467-0.312-0.779
		c0-0.346,0.138-0.779,0.416-1.301c0.277-0.52,0.745-1.246,1.404-2.184c0.242-0.346,0.537-0.52,0.884-0.52
		c0.104,0,0.26,0.035,0.468,0.104c2.461,1.248,4.498,2.037,6.11,2.367c1.612,0.33,3.319,0.494,5.122,0.494
		c1.768,0,3.163-0.305,4.186-0.91c1.022-0.607,1.534-1.412,1.534-2.418c0-0.832-0.364-1.717-1.092-2.652
		c-0.451-0.59-1.17-1.084-2.158-1.482c-0.988-0.398-2.228-0.807-3.718-1.223c-0.174-0.033-0.624-0.154-1.352-0.363
		c-2.808-0.832-4.992-1.828-6.552-2.99c-1.56-1.16-2.6-2.625-3.12-4.395c-0.382-1.213-0.572-2.32-0.572-3.328
		c0-1.768,0.468-3.387,1.404-4.861c0.936-1.473,2.288-2.695,4.056-3.666s3.848-1.576,6.24-1.82c0.312-0.033,0.797-0.051,1.456-0.051
		c2.634,0,5.217,0.502,7.748,1.508c2.704,1.352,3.9,2.496,3.588,3.432c-0.208,0.52-0.616,1.17-1.222,1.949
		c-0.607,0.781-0.997,1.293-1.17,1.535c-0.104,0.139-0.26,0.207-0.468,0.207c-0.347,0-0.936-0.207-1.768-0.623
		c-1.11-0.52-2.028-0.85-2.756-0.988c-1.595-0.346-2.895-0.52-3.9-0.52c-1.11,0-2.236,0.189-3.38,0.572
		c-0.902,0.449-1.595,0.979-2.08,1.586c-0.486,0.605-0.728,1.238-0.728,1.896c0,0.971,0.485,1.82,1.456,2.549
		c1.074,0.764,2.227,1.404,3.458,1.924c1.23,0.52,2.608,1.059,4.134,1.611c1.664,0.625,3.007,1.189,4.03,1.691
		c1.022,0.502,1.863,1.17,2.522,2.002c0.693,0.658,1.274,1.594,1.742,2.807c0.468,1.215,0.702,2.375,0.702,3.484
		c0,1.941-0.52,3.623-1.56,5.045s-2.479,2.521-4.316,3.301c-1.838,0.781-3.952,1.17-6.344,1.17
		C499.227,422.443,496.497,422.012,493.707,421.145z"/>
	<path d="M520.097,422.443c-0.104-0.137-0.139-0.293-0.104-0.467l9.204-34.996c0.069-0.209,0.199-0.391,0.39-0.547
		c0.19-0.154,0.407-0.232,0.65-0.232h10.816c0.208,0,0.416,0.068,0.624,0.207s0.346,0.313,0.416,0.52l9.204,34.996v0.156
		c0,0.383-0.174,0.572-0.52,0.572h-5.096c-0.208,0-0.425-0.078-0.65-0.234c-0.226-0.156-0.356-0.338-0.39-0.545l-2.548-9.674
		c-0.07-0.311-0.243-0.57-0.52-0.779c-0.278-0.207-0.572-0.313-0.884-0.313h-10.088c-0.312,0-0.607,0.105-0.884,0.313
		c-0.278,0.209-0.451,0.469-0.52,0.779l-2.548,9.621c-0.035,0.242-0.165,0.441-0.39,0.598c-0.226,0.156-0.442,0.234-0.65,0.234
		h-5.096C520.339,422.652,520.201,422.584,520.097,422.443z M539.077,405.545c0.346,0,0.615-0.121,0.806-0.365
		c0.19-0.242,0.251-0.52,0.182-0.832l-2.912-10.711c-0.035-0.277-0.191-0.521-0.468-0.729c-0.278-0.209-0.572-0.313-0.884-0.313
		h-0.312c-0.312,0-0.607,0.104-0.884,0.313c-0.278,0.207-0.434,0.451-0.468,0.729l-2.86,10.711l-0.052,0.26
		c0,0.279,0.086,0.504,0.26,0.676c0.173,0.174,0.416,0.262,0.728,0.262H539.077z"/>
	<path d="M581.274,422.314c-0.191-0.191-0.286-0.408-0.286-0.65v-34.477c0-0.277,0.095-0.502,0.286-0.676
		c0.19-0.172,0.407-0.26,0.65-0.26h12.116c2.08,0,4.003,0.512,5.772,1.533c1.768,1.023,3.163,2.418,4.186,4.188
		c1.021,1.768,1.533,3.691,1.533,5.771c0,2.115-0.512,4.047-1.533,5.799c-1.023,1.75-2.41,3.137-4.16,4.158
		c-1.752,1.023-3.685,1.535-5.798,1.535h-5.2c-0.416,0-0.737,0.078-0.962,0.234c-0.226,0.156-0.338,0.424-0.338,0.805v11.389
		c0,0.242-0.087,0.459-0.26,0.65c-0.174,0.191-0.399,0.285-0.676,0.285h-4.68C581.681,422.6,581.464,422.506,581.274,422.314z
		 M594.04,402.58c1.317,0,2.453-0.469,3.406-1.404s1.43-2.08,1.43-3.432c0-1.316-0.477-2.443-1.43-3.381
		c-0.953-0.936-2.089-1.402-3.406-1.402h-5.252c-0.832,0-1.248,0.346-1.248,1.039v8.58H594.04z"/>
	<path d="M613.564,422.314c-0.189-0.191-0.285-0.408-0.285-0.65v-34.527c0-0.277,0.104-0.512,0.313-0.703
		c0.207-0.189,0.432-0.285,0.676-0.285h5.408c0.242,0,0.459,0.096,0.65,0.285c0.189,0.191,0.285,0.426,0.285,0.703v34.527
		c0,0.242-0.088,0.459-0.26,0.65c-0.174,0.191-0.398,0.285-0.676,0.285h-5.408C613.99,422.6,613.756,422.506,613.564,422.314z"/>
	<path d="M638.031,421.301c-1.977-1.145-3.555-2.695-4.732-4.654c-1.18-1.959-1.768-4.1-1.768-6.422v-23.037
		c0-0.277,0.094-0.51,0.285-0.701c0.189-0.189,0.406-0.285,0.65-0.285h4.992c0.242,0,0.459,0.096,0.648,0.285
		c0.191,0.191,0.287,0.424,0.287,0.701v23.037c0,1.699,0.59,3.145,1.768,4.342c1.178,1.195,2.617,1.793,4.316,1.793
		c1.281,0,2.486-0.275,3.613-0.832c1.127-0.553,2.02-1.299,2.678-2.234c0.658-0.938,0.988-1.959,0.988-3.068v-23.037
		c0-0.277,0.096-0.51,0.287-0.701c0.189-0.189,0.406-0.285,0.65-0.285h4.99c0.242,0,0.459,0.096,0.65,0.285
		c0.191,0.191,0.287,0.424,0.287,0.701v23.037c0,2.357-0.607,4.506-1.82,6.447c-1.215,1.941-2.895,3.484-5.045,4.629
		c-2.148,1.143-4.576,1.715-7.279,1.715C642.156,423.016,640.006,422.443,638.031,421.301z"/>
	<path d="M695.205,421.145c-2.791-0.867-4.758-1.82-5.902-2.861c-0.209-0.207-0.313-0.467-0.313-0.779
		c0-0.346,0.139-0.779,0.416-1.301c0.277-0.52,0.746-1.246,1.404-2.184c0.242-0.346,0.537-0.52,0.883-0.52
		c0.105,0,0.262,0.035,0.469,0.104c2.461,1.248,4.498,2.037,6.109,2.367c1.613,0.33,3.32,0.494,5.123,0.494
		c1.768,0,3.162-0.305,4.186-0.91c1.021-0.607,1.535-1.412,1.535-2.418c0-0.832-0.365-1.717-1.094-2.652
		c-0.449-0.59-1.17-1.084-2.156-1.482c-0.988-0.398-2.229-0.807-3.719-1.223c-0.174-0.033-0.625-0.154-1.352-0.363
		c-2.809-0.832-4.992-1.828-6.553-2.99c-1.561-1.16-2.6-2.625-3.119-4.395c-0.383-1.213-0.572-2.32-0.572-3.328
		c0-1.768,0.467-3.387,1.404-4.861c0.936-1.473,2.287-2.695,4.055-3.666c1.77-0.971,3.848-1.576,6.24-1.82
		c0.313-0.033,0.797-0.051,1.457-0.051c2.633,0,5.217,0.502,7.748,1.508c2.703,1.352,3.898,2.496,3.588,3.432
		c-0.209,0.52-0.617,1.17-1.223,1.949c-0.607,0.781-0.996,1.293-1.17,1.535c-0.104,0.139-0.26,0.207-0.469,0.207
		c-0.346,0-0.936-0.207-1.768-0.623c-1.109-0.52-2.027-0.85-2.756-0.988c-1.596-0.346-2.895-0.52-3.9-0.52
		c-1.109,0-2.236,0.189-3.379,0.572c-0.902,0.449-1.596,0.979-2.08,1.586c-0.486,0.605-0.729,1.238-0.729,1.896
		c0,0.971,0.484,1.82,1.455,2.549c1.074,0.764,2.229,1.404,3.459,1.924s2.607,1.059,4.135,1.611
		c1.664,0.625,3.006,1.189,4.029,1.691c1.021,0.502,1.863,1.17,2.521,2.002c0.693,0.658,1.273,1.594,1.742,2.807
		c0.469,1.215,0.703,2.375,0.703,3.484c0,1.941-0.521,3.623-1.561,5.045c-1.041,1.422-2.479,2.521-4.316,3.301
		c-1.838,0.781-3.951,1.17-6.344,1.17C700.725,422.443,697.994,422.012,695.205,421.145z"/>
	<path d="M724.271,422.158c-0.191-0.189-0.285-0.406-0.285-0.65V387.24c0-0.277,0.094-0.502,0.285-0.676s0.408-0.26,0.65-0.26
		h23.297c0.275,0,0.502,0.086,0.676,0.26c0.172,0.174,0.26,0.398,0.26,0.676v4.367c0,0.244-0.088,0.461-0.26,0.65
		c-0.174,0.191-0.4,0.287-0.676,0.287h-16.797c-0.242,0-0.459,0.086-0.65,0.26s-0.285,0.398-0.285,0.676v7.645v0.154
		c0,0.313,0.068,0.529,0.207,0.65c0.139,0.123,0.469,0.182,0.988,0.182h13c0.242,0,0.451,0.078,0.625,0.234
		c0.172,0.156,0.26,0.355,0.26,0.598v4.42c0,0.244-0.088,0.443-0.26,0.6c-0.174,0.154-0.383,0.232-0.625,0.232h-13.051
		c-0.451,0-0.756,0.131-0.91,0.391c-0.156,0.26-0.234,0.529-0.234,0.807v5.512c0,0.348,0.094,0.643,0.285,0.885
		s0.58,0.363,1.17,0.363h16.641c0.242,0,0.459,0.096,0.65,0.285c0.189,0.191,0.285,0.426,0.285,0.703v4.367
		c0,0.244-0.086,0.461-0.26,0.65c-0.174,0.191-0.398,0.285-0.676,0.285h-23.66C724.68,422.443,724.463,422.35,724.271,422.158z"/>
	<path d="M757.785,422.314c-0.174-0.191-0.26-0.408-0.26-0.65v-34.477c0-0.242,0.086-0.459,0.26-0.648
		c0.174-0.191,0.381-0.287,0.623-0.287h5.098c0.346,0,0.605,0.174,0.779,0.52l7.904,13.105c0.033,0.068,0.129,0.174,0.285,0.311
		c0.156,0.139,0.355,0.209,0.598,0.209h0.105c0.242,0,0.424-0.078,0.545-0.234s0.199-0.268,0.234-0.338l7.852-13
		c0.242-0.381,0.52-0.572,0.832-0.572h5.148c0.242,0,0.449,0.096,0.623,0.287c0.174,0.189,0.262,0.406,0.262,0.648v34.477
		c0,0.242-0.088,0.459-0.262,0.65s-0.381,0.285-0.623,0.285h-5.096c-0.277,0-0.504-0.086-0.676-0.26
		c-0.174-0.172-0.26-0.398-0.26-0.676V401.02c0-0.346-0.07-0.52-0.209-0.52s-0.295,0.139-0.469,0.416l-5.459,7.748
		c-0.313,0.451-0.58,0.746-0.807,0.885c-0.225,0.139-0.615,0.207-1.17,0.207h-0.883c-0.66,0-1.111-0.053-1.354-0.156
		s-0.484-0.328-0.727-0.676l-5.617-7.955c-0.207-0.313-0.363-0.469-0.467-0.469c-0.139,0-0.209,0.156-0.209,0.469v20.695
		c0,0.242-0.086,0.459-0.26,0.65s-0.398,0.285-0.676,0.285h-5.045C758.166,422.6,757.959,422.506,757.785,422.314z"/>
	<path d="M797.955,422.314c-0.191-0.191-0.287-0.408-0.287-0.65v-34.477c0-0.277,0.096-0.502,0.287-0.676
		c0.189-0.172,0.406-0.26,0.648-0.26h12.117c2.08,0,4.004,0.512,5.771,1.533c1.768,1.023,3.164,2.418,4.186,4.188
		c1.023,1.768,1.535,3.691,1.535,5.771c0,2.115-0.512,4.047-1.535,5.799c-1.021,1.75-2.41,3.137-4.16,4.158
		c-1.75,1.023-3.684,1.535-5.797,1.535h-5.201c-0.416,0-0.736,0.078-0.961,0.234c-0.227,0.156-0.338,0.424-0.338,0.805v11.389
		c0,0.242-0.088,0.459-0.26,0.65c-0.174,0.191-0.4,0.285-0.676,0.285h-4.682C798.361,422.6,798.145,422.506,797.955,422.314z
		 M810.721,402.58c1.316,0,2.451-0.469,3.406-1.404c0.953-0.936,1.43-2.08,1.43-3.432c0-1.316-0.477-2.443-1.43-3.381
		c-0.955-0.936-2.09-1.402-3.406-1.402h-5.252c-0.832,0-1.248,0.346-1.248,1.039v8.58H810.721z"/>
	<path d="M830.299,422.289c-0.227-0.209-0.338-0.469-0.338-0.781V387.24c0-0.277,0.111-0.527,0.338-0.754
		c0.225-0.225,0.477-0.338,0.754-0.338h5.355c0.313,0,0.572,0.113,0.779,0.338c0.209,0.227,0.313,0.477,0.313,0.754v27.404
		c0,0.277,0.104,0.529,0.313,0.754c0.207,0.225,0.449,0.338,0.729,0.338h12.584c0.311,0,0.572,0.104,0.779,0.313
		c0.207,0.207,0.313,0.451,0.313,0.727v4.732c0,0.313-0.105,0.572-0.313,0.781c-0.207,0.207-0.469,0.311-0.779,0.311h-20.072
		C830.775,422.6,830.523,422.496,830.299,422.289z"/>
	<path d="M862.9,422.314c-0.189-0.191-0.285-0.408-0.285-0.65v-34.527c0-0.277,0.104-0.512,0.313-0.703
		c0.207-0.189,0.432-0.285,0.676-0.285h5.408c0.242,0,0.459,0.096,0.648,0.285c0.191,0.191,0.287,0.426,0.287,0.703v34.527
		c0,0.242-0.088,0.459-0.26,0.65c-0.174,0.191-0.4,0.285-0.676,0.285h-5.408C863.324,422.6,863.092,422.506,862.9,422.314z"/>
	<path d="M886.664,420.572c-2.824-1.664-5.061-3.926-6.707-6.787c-1.646-2.859-2.471-5.986-2.471-9.385
		c0-3.363,0.824-6.475,2.471-9.334s3.883-5.131,6.707-6.813c2.826-1.68,5.902-2.521,9.23-2.521c2.6,0,5.078,0.52,7.436,1.561
		c2.357,1.039,4.402,2.529,6.137,4.471c0.209,0.209,0.313,0.434,0.313,0.676c0,0.209-0.123,0.434-0.365,0.676
		c-0.727,0.59-1.455,1.205-2.184,1.848c-0.727,0.641-1.23,1.084-1.508,1.326c-0.207,0.207-0.451,0.311-0.729,0.311
		c-0.242,0-0.467-0.104-0.676-0.311c-1.109-1.215-2.391-2.141-3.848-2.783c-1.455-0.641-2.982-0.961-4.576-0.961
		c-2.08,0-4.012,0.537-5.797,1.611c-1.787,1.074-3.199,2.514-4.238,4.316c-1.041,1.803-1.561,3.779-1.561,5.928
		c0,2.15,0.52,4.125,1.561,5.928c1.039,1.803,2.451,3.242,4.238,4.316c1.785,1.074,3.717,1.611,5.797,1.611
		c1.49,0,2.93-0.293,4.316-0.883s2.635-1.439,3.744-2.549c0.346-0.277,0.729-0.416,1.145-0.416c0.346,0,0.623,0.104,0.832,0.313
		c0.346,0.277,0.832,0.684,1.455,1.221c0.625,0.539,1.162,1.016,1.611,1.432c0.383,0.311,0.572,0.693,0.572,1.143
		c0,0.279-0.104,0.52-0.311,0.729c-1.734,1.871-3.754,3.311-6.059,4.316c-2.307,1.006-4.74,1.508-7.307,1.508
		C892.566,423.068,889.49,422.236,886.664,420.572z"/>
	<path d="M917.916,422.158c-0.191-0.189-0.285-0.406-0.285-0.65V387.24c0-0.277,0.094-0.502,0.285-0.676
		c0.189-0.174,0.408-0.26,0.65-0.26h23.295c0.277,0,0.504,0.086,0.678,0.26c0.172,0.174,0.26,0.398,0.26,0.676v4.367
		c0,0.244-0.088,0.461-0.26,0.65c-0.174,0.191-0.4,0.287-0.678,0.287h-16.795c-0.242,0-0.461,0.086-0.65,0.26
		c-0.191,0.174-0.285,0.398-0.285,0.676v7.645v0.154c0,0.313,0.068,0.529,0.207,0.65c0.139,0.123,0.469,0.182,0.988,0.182h13
		c0.242,0,0.449,0.078,0.625,0.234c0.172,0.156,0.26,0.355,0.26,0.598v4.42c0,0.244-0.088,0.443-0.26,0.6
		c-0.176,0.154-0.383,0.232-0.625,0.232h-13.053c-0.449,0-0.754,0.131-0.91,0.391c-0.154,0.26-0.232,0.529-0.232,0.807v5.512
		c0,0.348,0.094,0.643,0.285,0.885c0.189,0.242,0.58,0.363,1.17,0.363h16.641c0.242,0,0.459,0.096,0.65,0.285
		c0.189,0.191,0.285,0.426,0.285,0.703v4.367c0,0.244-0.086,0.461-0.26,0.65c-0.174,0.191-0.398,0.285-0.676,0.285h-23.66
		C918.324,422.443,918.105,422.35,917.916,422.158z"/>
	<path d="M953.197,421.404c-0.799-0.797-1.197-1.732-1.197-2.809c0-1.109,0.391-2.063,1.17-2.859
		c0.781-0.797,1.725-1.195,2.834-1.195s2.063,0.398,2.861,1.195c0.797,0.797,1.195,1.75,1.195,2.859s-0.398,2.055-1.195,2.834
		c-0.799,0.781-1.752,1.17-2.861,1.17C954.93,422.6,953.994,422.201,953.197,421.404z M953.197,412.148
		c-0.209-0.209-0.33-0.469-0.365-0.781l-0.416-23.814c0-0.313,0.105-0.572,0.313-0.781c0.209-0.207,0.469-0.311,0.781-0.311h5.043
		c0.313,0,0.572,0.104,0.779,0.311c0.209,0.209,0.313,0.469,0.313,0.781l-0.416,23.814c-0.035,0.313-0.156,0.572-0.363,0.781
		c-0.209,0.207-0.469,0.313-0.781,0.313h-4.107C953.664,412.461,953.404,412.355,953.197,412.148z"/>
	<path d="M971.916,386.979l-0.883,12.48h-2.809l-0.832-12.48H971.916z M979.666,386.979l-0.885,12.48h-2.756l-0.885-12.48H979.666z"
		/>
</g>
<g>
	<path d="M988.352,422.75c-0.031-0.031-0.049-0.07-0.049-0.111v-5.977c0-0.047,0.018-0.088,0.055-0.121
		c0.035-0.033,0.074-0.049,0.117-0.049h0.936c0.041,0,0.08,0.016,0.113,0.049c0.031,0.033,0.049,0.074,0.049,0.121v5.977
		c0,0.041-0.016,0.08-0.045,0.111c-0.031,0.033-0.07,0.051-0.117,0.051h-0.936C988.426,422.801,988.385,422.783,988.352,422.75z"/>
	<path d="M991.139,422.773c-0.02-0.023-0.025-0.051-0.02-0.082l1.594-6.057c0.012-0.035,0.035-0.066,0.068-0.094
		c0.031-0.027,0.07-0.041,0.111-0.041h1.873c0.035,0,0.072,0.012,0.107,0.037c0.035,0.023,0.061,0.053,0.072,0.09l1.592,6.057v0.027
		c0,0.066-0.029,0.098-0.09,0.098h-0.881c-0.037,0-0.074-0.014-0.113-0.039c-0.039-0.027-0.061-0.059-0.066-0.096L994.945,421
		c-0.012-0.053-0.043-0.1-0.09-0.135c-0.049-0.035-0.1-0.055-0.154-0.055h-1.746c-0.053,0-0.104,0.02-0.152,0.055
		c-0.047,0.035-0.078,0.082-0.09,0.135l-0.441,1.666c-0.006,0.041-0.027,0.076-0.066,0.104c-0.039,0.025-0.076,0.039-0.113,0.039
		h-0.881C991.18,422.809,991.156,422.797,991.139,422.773z M994.424,419.848c0.059,0,0.105-0.02,0.139-0.063
		c0.033-0.041,0.043-0.09,0.031-0.145l-0.504-1.854c-0.006-0.047-0.033-0.09-0.08-0.125c-0.049-0.037-0.1-0.055-0.154-0.055h-0.053
		c-0.055,0-0.105,0.018-0.154,0.055c-0.047,0.035-0.074,0.078-0.08,0.125l-0.496,1.854l-0.008,0.045
		c0,0.049,0.014,0.088,0.045,0.117c0.029,0.031,0.072,0.045,0.125,0.045H994.424z"/>
	<path d="M997.785,422.746c-0.027-0.023-0.041-0.055-0.041-0.09v-6.021c0-0.035,0.014-0.064,0.041-0.09
		c0.027-0.023,0.059-0.035,0.094-0.035h0.918c0.043,0,0.076,0.021,0.1,0.063l2.133,3.609c0.066,0.119,0.119,0.18,0.162,0.18
		c0.047,0,0.072-0.066,0.072-0.197l-0.018-3.529c0-0.035,0.012-0.064,0.039-0.09c0.027-0.023,0.059-0.035,0.096-0.035h0.943
		c0.037,0,0.068,0.012,0.096,0.035c0.027,0.025,0.041,0.055,0.041,0.09v6.021c0,0.035-0.014,0.066-0.041,0.09
		s-0.059,0.037-0.096,0.037h-0.639c-0.107,0-0.182-0.01-0.225-0.027c-0.041-0.02-0.086-0.066-0.135-0.145l-2.268-3.609
		c-0.037-0.053-0.07-0.08-0.1-0.08c-0.049,0-0.072,0.041-0.072,0.125l0.018,3.609c0,0.035-0.012,0.066-0.039,0.09
		s-0.057,0.037-0.086,0.037h-0.9C997.844,422.783,997.813,422.77,997.785,422.746z"/>
	<path d="M1007.689,422.75c-0.031-0.031-0.045-0.07-0.045-0.111v-5.967c0-0.043,0.014-0.08,0.045-0.113
		c0.029-0.033,0.066-0.049,0.107-0.049h0.883c0.059,0,0.104,0.029,0.135,0.09l1.367,2.268c0.006,0.012,0.023,0.029,0.051,0.055
		c0.025,0.023,0.061,0.035,0.104,0.035h0.018c0.041,0,0.072-0.014,0.094-0.041c0.021-0.025,0.035-0.045,0.041-0.059l1.359-2.25
		c0.041-0.064,0.09-0.098,0.143-0.098h0.893c0.041,0,0.076,0.016,0.107,0.049c0.029,0.033,0.045,0.07,0.045,0.113v5.967
		c0,0.041-0.016,0.08-0.045,0.111c-0.031,0.033-0.066,0.051-0.107,0.051H1012c-0.049,0-0.088-0.016-0.117-0.045
		c-0.029-0.031-0.045-0.07-0.045-0.117v-3.574c0-0.059-0.012-0.09-0.035-0.09c-0.025,0-0.051,0.025-0.082,0.072l-0.945,1.342
		c-0.053,0.078-0.1,0.129-0.139,0.152s-0.107,0.037-0.203,0.037h-0.152c-0.115,0-0.191-0.01-0.234-0.027
		c-0.041-0.018-0.084-0.057-0.125-0.117l-0.973-1.377c-0.037-0.055-0.063-0.082-0.082-0.082c-0.023,0-0.035,0.027-0.035,0.082v3.582
		c0,0.041-0.016,0.08-0.045,0.111c-0.029,0.033-0.068,0.051-0.117,0.051h-0.873C1007.756,422.801,1007.719,422.783,1007.689,422.75z
		"/>
	<path d="M1014.83,422.75c-0.033-0.031-0.049-0.07-0.049-0.111v-5.977c0-0.047,0.018-0.088,0.053-0.121
		c0.037-0.033,0.076-0.049,0.117-0.049h0.936c0.043,0,0.08,0.016,0.113,0.049s0.049,0.074,0.049,0.121v5.977
		c0,0.041-0.014,0.08-0.045,0.111c-0.029,0.033-0.068,0.051-0.117,0.051h-0.936C1014.904,422.801,1014.863,422.783,1014.83,422.75z"
		/>
	<path d="M1017.908,422.746c-0.027-0.023-0.041-0.055-0.041-0.09v-6.021c0-0.035,0.014-0.064,0.041-0.09
		c0.027-0.023,0.059-0.035,0.094-0.035h0.918c0.043,0,0.076,0.021,0.1,0.063l2.133,3.609c0.066,0.119,0.119,0.18,0.162,0.18
		c0.047,0,0.072-0.066,0.072-0.197l-0.018-3.529c0-0.035,0.012-0.064,0.039-0.09c0.027-0.023,0.059-0.035,0.096-0.035h0.943
		c0.037,0,0.068,0.012,0.096,0.035c0.027,0.025,0.041,0.055,0.041,0.09v6.021c0,0.035-0.014,0.066-0.041,0.09
		s-0.059,0.037-0.096,0.037h-0.639c-0.107,0-0.182-0.01-0.225-0.027c-0.041-0.02-0.086-0.066-0.135-0.145l-2.268-3.609
		c-0.037-0.053-0.07-0.08-0.1-0.08c-0.049,0-0.072,0.041-0.072,0.125l0.018,3.609c0,0.035-0.012,0.066-0.039,0.09
		s-0.057,0.037-0.086,0.037h-0.9C1017.967,422.783,1017.936,422.77,1017.908,422.746z"/>
	<path d="M1024.1,422.746c-0.027-0.023-0.039-0.055-0.039-0.09v-6.021c0-0.035,0.012-0.064,0.039-0.09
		c0.027-0.023,0.059-0.035,0.096-0.035h0.918c0.041,0,0.074,0.021,0.098,0.063l2.133,3.609c0.066,0.119,0.121,0.18,0.162,0.18
		c0.049,0,0.072-0.066,0.072-0.197l-0.018-3.529c0-0.035,0.014-0.064,0.041-0.09c0.027-0.023,0.059-0.035,0.094-0.035h0.945
		c0.035,0,0.068,0.012,0.094,0.035c0.027,0.025,0.041,0.055,0.041,0.09v6.021c0,0.035-0.014,0.066-0.041,0.09
		c-0.025,0.023-0.059,0.037-0.094,0.037h-0.639c-0.107,0-0.184-0.01-0.225-0.027c-0.043-0.02-0.088-0.066-0.135-0.145l-2.27-3.609
		c-0.035-0.053-0.068-0.08-0.098-0.08c-0.049,0-0.072,0.041-0.072,0.125l0.018,3.609c0,0.035-0.014,0.066-0.041,0.09
		s-0.055,0.037-0.086,0.037h-0.898C1024.158,422.783,1024.127,422.77,1024.1,422.746z"/>
	<path d="M1030.463,422.75c-0.033-0.031-0.049-0.07-0.049-0.111v-5.977c0-0.047,0.018-0.088,0.053-0.121
		c0.037-0.033,0.076-0.049,0.117-0.049h0.936c0.043,0,0.08,0.016,0.113,0.049s0.049,0.074,0.049,0.121v5.977
		c0,0.041-0.014,0.08-0.045,0.111c-0.029,0.033-0.068,0.051-0.117,0.051h-0.936C1030.537,422.801,1030.496,422.783,1030.463,422.75z
		"/>
	<path d="M1034.414,422.549c-0.482-0.15-0.824-0.316-1.021-0.496c-0.037-0.035-0.055-0.08-0.055-0.135
		c0-0.061,0.023-0.135,0.072-0.225s0.129-0.217,0.244-0.379c0.041-0.059,0.092-0.09,0.152-0.09c0.018,0,0.045,0.006,0.08,0.02
		c0.426,0.215,0.779,0.352,1.059,0.408s0.574,0.086,0.887,0.086c0.305,0,0.547-0.053,0.725-0.158
		c0.176-0.104,0.266-0.244,0.266-0.418c0-0.145-0.064-0.297-0.189-0.459c-0.078-0.102-0.203-0.188-0.373-0.256
		c-0.172-0.07-0.387-0.141-0.645-0.213c-0.029-0.006-0.107-0.025-0.234-0.063c-0.486-0.145-0.863-0.316-1.133-0.518
		c-0.271-0.201-0.451-0.453-0.541-0.76c-0.066-0.211-0.1-0.402-0.1-0.576c0-0.307,0.082-0.586,0.244-0.842
		c0.162-0.254,0.396-0.467,0.701-0.635c0.307-0.168,0.666-0.271,1.08-0.314c0.055-0.006,0.139-0.01,0.252-0.01
		c0.457,0,0.904,0.088,1.342,0.262c0.469,0.234,0.674,0.432,0.621,0.594c-0.037,0.09-0.107,0.203-0.211,0.338
		c-0.105,0.135-0.174,0.223-0.203,0.266c-0.018,0.023-0.045,0.035-0.082,0.035c-0.059,0-0.162-0.035-0.305-0.107
		c-0.193-0.09-0.352-0.146-0.477-0.172c-0.277-0.059-0.502-0.09-0.676-0.09c-0.191,0-0.387,0.033-0.586,0.1
		c-0.156,0.078-0.275,0.17-0.359,0.275c-0.084,0.104-0.125,0.213-0.125,0.328c0,0.168,0.084,0.314,0.252,0.441
		c0.186,0.131,0.385,0.242,0.598,0.332s0.451,0.184,0.715,0.279c0.289,0.107,0.521,0.205,0.697,0.293
		c0.178,0.086,0.324,0.201,0.438,0.346c0.119,0.113,0.221,0.275,0.301,0.486c0.082,0.209,0.123,0.41,0.123,0.604
		c0,0.336-0.092,0.627-0.271,0.873s-0.428,0.436-0.746,0.57s-0.684,0.203-1.098,0.203
		C1035.369,422.773,1034.896,422.699,1034.414,422.549z"/>
</g>
</svg>
