<?xml version="1.0" encoding="utf-8"?>
<!-- Generator: Adobe Illustrator 16.0.0, SVG Export Plug-In . SVG Version: 6.00 Build 0)  -->
<!DOCTYPE svg PUBLIC "-//W3C//DTD SVG 1.1//EN" "http://www.w3.org/Graphics/SVG/1.1/DTD/svg11.dtd">
<svg version="1.1" id="Livello_1" xmlns="http://www.w3.org/2000/svg" xmlns:xlink="http://www.w3.org/1999/xlink" x="0px" y="0px"
	 width="900px" height="650px" viewBox="0 0 900 650" enable-background="new 0 0 900 650" xml:space="preserve">
<rect y="0" fill="#2FAC66" width="900" height="650"/>
<path fill="#F28D3A" d="M622.216,319.478c0,97.615-79.135,176.75-176.75,176.75c-97.618,0-176.75-79.135-176.75-176.75
	c0-97.621,79.132-176.75,176.75-176.75C543.081,142.728,622.216,221.856,622.216,319.478z"/>
<path fill="#EE7526" d="M620.352,345.012l-79.595-79.601l-3.97-3.964c-6.295-5.716-14.039-10.193-22.728-12.98l-25.851-25.854
	c-2.549-2.549-6.081-4.14-9.948-4.14h-45.447h-36.285c-7.753,0-14.09,6.334-14.09,14.087v173.824c0,3.712,1.438,7.072,3.812,9.598
	l0.682,0.679l78.431,78.428C545.187,486.136,608.913,424.055,620.352,345.012z"/>
<path fill="#364A5E" d="M478.272,218.479h-81.758c-7.736,0-14.082,6.334-14.082,14.087v173.824c0,7.745,6.346,14.086,14.082,14.086
	h81.758c7.744,0,14.074-6.341,14.074-14.086V232.567C492.347,224.814,486.017,218.479,478.272,218.479z"/>
<rect x="390.407" y="249.008" fill="#CEE2F2" width="93.959" height="140.922"/>
<polygon fill="#F3F9FE" points="390.407,389.941 390.407,249.011 484.372,249.011 "/>
<path fill="#293A4D" d="M440.932,233.741c0,1.959-1.577,3.544-3.542,3.544c-1.95,0-3.541-1.585-3.541-3.544
	c0-1.957,1.591-3.544,3.541-3.544C439.355,230.196,440.932,231.784,440.932,233.741z"/>
<g>
	<path fill="#5E6E7E" d="M438.812,233.735c0,0.786-0.639,1.418-1.421,1.418c-0.776,0-1.418-0.633-1.418-1.418
		c0-0.777,0.642-1.421,1.418-1.421C438.173,232.316,438.812,232.958,438.812,233.735z"/>
	<path fill="#5E6E7E" d="M428.677,409.659c-2.132,0-3.863-1.737-3.863-3.872v-1.15c0-2.135,1.731-3.873,3.863-3.873h17.425
		c2.129,0,3.864,1.738,3.864,3.873v1.15c0,2.135-1.732,3.872-3.864,3.872H428.677z"/>
</g>
<path fill="#293A4D" d="M448.86,405.781c0,1.53-1.24,2.773-2.759,2.773H428.68c-1.521,0-2.765-1.243-2.765-2.773v-1.145
	c0-1.514,1.243-2.768,2.765-2.768h17.422c1.522,0,2.759,1.254,2.759,2.768V405.781z"/>
<path fill="#C1D356" d="M553.69,297.945c0,29.116-27.14,52.717-60.597,52.717c-33.474,0-60.608-23.602-60.608-52.717
	s27.134-52.72,60.608-52.72C526.551,245.225,553.69,268.832,553.69,297.945z"/>
<path fill="#F3F9FE" d="M490.557,325.156c-8.153-0.639-14.24-3.872-18.435-8.225l5.219-7.203c2.935,3.25,7.52,6.254,13.216,7.131
	V301.5c-8.147-2.045-16.691-4.982-16.691-15.267c0-8.066,6.49-14.473,16.691-15.342v-7.284h6.323v7.359
	c6.409,0.708,11.789,3.242,15.908,7.198l-5.218,6.887c-3.015-3.003-6.813-4.833-10.69-5.621v13.688
	c8.228,2.131,17.169,5.23,17.169,15.816c0,8.076-5.294,15.193-17.169,16.229v7.111h-6.323V325.156L490.557,325.156z M490.557,291.46
	v-12.428c-4.431,0.552-7.198,3.015-7.198,6.49C483.358,288.612,486.368,290.189,490.557,291.46z M496.88,303.16v13.771
	c5.466-0.797,7.676-4.033,7.676-7.123C504.556,306.253,501.241,304.51,496.88,303.16z"/>
<polygon fill="#C1D356" points="431.007,357.394 459.764,341.762 446.628,328.626 "/>
<path fill="#DAE5A1" d="M444.477,293.454c-0.279,0-0.567-0.034-0.852-0.104c-1.977-0.469-3.193-2.445-2.728-4.419
	c3.216-13.538,13.844-25.336,28.435-31.555c1.87-0.803,4.027,0.069,4.821,1.93c0.794,1.876-0.069,4.024-1.939,4.824
	c-12.456,5.311-21.489,15.215-24.164,26.49C447.644,292.315,446.139,293.454,444.477,293.454z"/>
</svg>
