<?xml version="1.0" encoding="utf-8"?>
<!-- Generator: Adobe Illustrator 16.0.0, SVG Export Plug-In . SVG Version: 6.00 Build 0)  -->
<!DOCTYPE svg PUBLIC "-//W3C//DTD SVG 1.1//EN" "http://www.w3.org/Graphics/SVG/1.1/DTD/svg11.dtd">
<svg version="1.1" id="Capa_1" xmlns="http://www.w3.org/2000/svg" xmlns:xlink="http://www.w3.org/1999/xlink" x="0px" y="0px"
	 width="1200px" height="684px" viewBox="0 0 1200 684" enable-background="new 0 0 1200 684" xml:space="preserve">
<circle fill="#2FAC66" cx="600" cy="342" r="342"/>
<path fill="#32AAC6" d="M479.758,149.611c6.184,75.582,57.716,191.701,120.242,191.701s114.06-116.12,120.243-191.701H479.758z"/>
<path fill="#1589AD" d="M598.626,341.312c62.526,0,115.434-116.12,121.617-191.701H593.129"/>
<path fill="#EFB143" d="M494.874,218.321C515.487,280.16,553.965,341.312,600,341.312c44.662,0,83.14-61.151,104.439-122.991
	H494.874z"/>
<path fill="#E28413" d="M603.436,341.312c41.914,0,81.078-61.151,101.691-122.991H558.775"/>
<path fill="#32AAC6" d="M736.047,138.617c0,5.497-6.185,10.993-11.681,10.993H475.635c-5.497,0-11.681-5.497-11.681-10.993l0,0
	c0-5.497,5.497-9.62,11.681-9.62h249.418C730.55,128.997,736.047,133.12,736.047,138.617L736.047,138.617z"/>
<path fill="#1589AD" d="M736.047,138.617L736.047,138.617c0,6.184-5.497,10.993-11.681,10.993H475.635
	c-6.184,0-11.681-4.81-11.681-10.993l0,0"/>
<path fill="#E28413" d="M720.243,534.388C714.06,458.806,662.527,342.687,600,342.687S485.942,458.806,479.758,534.388H720.243z"/>
<path fill="#EFB143" d="M601.375,342.687c-62.527,0-115.434,116.119-121.617,191.701h127.113"/>
<path fill="#1589AD" d="M705.127,465.677C684.514,403.84,646.723,342.687,600,342.687c-44.662,0-83.139,61.152-104.439,122.99
	H705.127z"/>
<path fill="#32AAC6" d="M600,342.687c-48.097,0-84.514,61.152-105.126,122.99h146.353"/>
<path fill="#1589AD" d="M463.954,544.695c0-6.184,5.497-10.307,11.681-10.307h248.731c6.184,0,11.681,4.123,11.681,10.307l0,0
	c0,6.184-5.497,10.307-11.681,10.307H475.635C469.451,555.002,463.954,550.879,463.954,544.695L463.954,544.695z"/>
<path fill="#32AAC6" d="M463.954,545.381L463.954,545.381c0-6.184,5.497-10.992,11.681-10.992h248.731
	c6.184,0,11.681,4.809,11.681,10.992l0,0"/>
<path fill="#EFB143" d="M606.871,432.697c0,4.123-2.749,6.871-6.871,6.871l0,0c-4.123,0-6.871-3.436-6.871-6.871v-92.072
	c0-4.123,2.748-6.871,6.871-6.871l0,0c4.122,0,6.871,3.436,6.871,6.871V432.697z"/>
<path fill="#E28413" d="M600,333.754L600,333.754c4.122,0,6.871,3.436,6.871,6.871v96.195c0,4.121-3.436,6.869-6.871,6.869l0,0"/>
<circle fill="#EFB143" cx="600" cy="445.752" r="15.803"/>
<path fill="#E28413" d="M610.994,434.758c6.184,6.184,6.184,15.805,0,21.988c-6.185,6.184-15.804,6.184-21.988,0"/>
</svg>
