<?xml version="1.0" encoding="utf-8"?>
<!-- Generator: Adobe Illustrator 16.0.0, SVG Export Plug-In . SVG Version: 6.00 Build 0)  -->
<!DOCTYPE svg PUBLIC "-//W3C//DTD SVG 1.1//EN" "http://www.w3.org/Graphics/SVG/1.1/DTD/svg11.dtd">
<svg version="1.1" id="Capa_1" xmlns="http://www.w3.org/2000/svg" xmlns:xlink="http://www.w3.org/1999/xlink" x="0px" y="0px"
	 width="1200px" height="684px" viewBox="0 0 1200 684" enable-background="new 0 0 1200 684" xml:space="preserve">
<circle fill="#2FAC66" cx="600" cy="342" r="342"/>
<g>
	<path d="M840.385,494.968l-18.116-43.696c-2.459-5.928-9.26-8.742-15.193-6.286c-5.926,2.459-8.741,9.257-6.282,15.191
		l7.367,17.772l-39.286-16.257V288.434c0-4.886-3.052-9.25-7.646-10.923l-149.604-54.5v-38.071l13.604,13.605
		c2.271,2.271,5.246,3.404,8.224,3.404c2.972,0,5.948-1.135,8.22-3.404c4.538-4.541,4.538-11.899,0-16.438l-33.452-33.449
		c-4.541-4.538-11.896-4.541-16.437,0l-33.452,33.449c-4.538,4.539-4.538,11.897,0,16.438c4.539,4.538,11.901,4.54,16.443,0
		l13.604-13.605v38.071l-149.604,54.501c-4.593,1.673-7.646,6.038-7.646,10.923v173.257l-39.287,16.257l7.367-17.772
		c2.461-5.932-0.354-12.732-6.283-15.191c-5.937-2.46-12.733,0.356-15.191,6.286l-18.116,43.696c-1.183,2.849-1.183,6.051-0.003,8.9
		c1.18,2.848,3.443,5.112,6.292,6.291l43.698,18.114c1.455,0.604,2.964,0.89,4.445,0.89c4.561,0,8.889-2.7,10.744-7.178
		c2.458-5.928-0.355-12.729-6.288-15.189l-17.772-7.368l41.801-17.3l153.49,55.916c0,0,2.188,0.703,3.992,0.703
		c1.806,0,3.96-0.703,3.96-0.703l153.488-55.916l41.803,17.3l-17.776,7.368c-5.928,2.46-8.741,9.259-6.286,15.189
		c1.855,4.477,6.184,7.178,10.742,7.178c1.484,0,2.99-0.285,4.446-0.89l43.7-18.114c2.848-1.179,5.109-3.442,6.291-6.291
		C841.567,501.017,841.567,497.816,840.385,494.968z M588.376,510.519L474.33,468.975l114.046-46.243V510.519z M588.376,397.663
		l-134.001,54.086V306.356l134.001,54.082V397.663z M588.376,335.37l-114.091-46.051l114.091-41.563V335.37z M611.624,247.756
		l114.093,41.563L611.624,335.37V247.756z M611.624,510.519v-87.787l114.047,46.243L611.624,510.519z M745.625,451.749
		l-134.001-54.086v-37.224l134.003-54.083v145.392H745.625z"/>
</g>
</svg>
