<?xml version="1.0" encoding="utf-8"?>
<!-- Generator: Adobe Illustrator 16.0.0, SVG Export Plug-In . SVG Version: 6.00 Build 0)  -->
<!DOCTYPE svg PUBLIC "-//W3C//DTD SVG 1.1//EN" "http://www.w3.org/Graphics/SVG/1.1/DTD/svg11.dtd">
<svg version="1.1" id="Capa_1" xmlns="http://www.w3.org/2000/svg" xmlns:xlink="http://www.w3.org/1999/xlink" x="0px" y="0px"
	 width="1200px" height="684px" viewBox="0 0 1200 684" enable-background="new 0 0 1200 684" xml:space="preserve">
<circle fill="#2FAC66" cx="600" cy="342" r="342"/>
<g>
	<g transform="translate(1 13)">
		<path fill="#AAB1BA" d="M758.811,335.963c0-19.497-15.319-34.817-34.817-34.817c-19.497,0-34.817,15.32-34.817,34.817
			c0,19.498,15.319,34.818,34.817,34.818S758.811,355.461,758.811,335.963L758.811,335.963z M800.592,259.365v222.832
			c0,15.318-12.535,27.854-27.854,27.854H424.565c-15.319,0-27.854-12.535-27.854-27.854V259.365
			c0-15.32,12.534-27.854,27.854-27.854h41.781h194.977h41.78h41.78h27.854C788.057,231.511,800.592,244.045,800.592,259.365
			L800.592,259.365z"/>
		<polygon fill="#ECF4F7" points="438.492,468.269 647.396,468.269 647.396,273.292 438.492,273.292 		"/>
		<path fill="#FFD0A1" d="M723.993,301.147c19.498,0,34.817,15.319,34.817,34.818c0,19.498-15.319,34.816-34.817,34.816
			c-19.497,0-34.817-15.318-34.817-34.816C689.176,316.466,704.496,301.147,723.993,301.147L723.993,301.147z"/>
		<path fill="#FFE079" d="M542.944,363.818c4.178,0,6.963,3.481,6.963,6.963c0,3.48-2.785,6.963-6.963,6.963
			c-4.178,0-6.963-3.482-6.963-6.963C535.981,367.3,538.766,363.818,542.944,363.818"/>
		<path fill="#FFD0A1" d="M487.236,217.585l6.964-13.927c4.874-10.445,11.141-13.927,20.89-13.927h111.416
			c9.748,0,16.016,2.784,20.89,13.927l13.928,27.854H466.345C480.273,231.511,487.236,217.585,487.236,217.585z M703.103,231.511
			h41.78v-13.928h-41.78V231.511z"/>
	</g>
	<path fill="#51565F" d="M773.739,526.531H425.565c-17.408,0-31.335-13.927-31.335-31.335V272.365
		c0-17.409,13.927-31.335,31.335-31.335h41.781c11.838,0,17.408-11.838,18.106-11.838l6.963-13.927
		c5.571-11.141,12.534-16.017,23.675-16.017h111.416c10.445,0,18.104,2.785,24.372,16.017l3.481,6.963
		c0.696,1.393,0,3.482-1.393,4.875c-1.394,0.696-3.482,0-4.874-1.393l-3.482-6.963c-4.873-10.446-9.052-11.838-18.104-11.838H516.09
		c-7.66,0-13.23,2.089-17.409,11.838l-6.963,13.927c0,0.696-8.355,16.017-23.675,16.017h-41.78
		c-13.23,0-24.373,11.141-24.373,24.372v222.831c0,13.23,11.142,24.373,24.373,24.373h348.173c13.23,0,24.372-11.142,24.372-24.373
		V273.062c0-13.231-11.142-24.372-24.372-24.372H746.58c-2.089,0-3.482-1.393-3.482-3.482v-10.445h-34.816v10.445
		c0,2.089-1.394,3.482-3.482,3.482H509.823c-2.089,0-3.482-1.393-3.482-3.482c0-2.089,1.393-3.482,3.482-3.482h191.495v-11.142
		c0-2.088,1.394-3.481,3.482-3.481h41.78c2.089,0,3.483,1.393,3.483,3.481v10.446h24.372c17.407,0,31.335,13.927,31.335,31.335
		v222.832C805.073,512.605,791.147,526.531,773.739,526.531z M648.396,484.751H439.492c-2.089,0-3.482-1.394-3.482-3.481V286.292
		c0-2.089,1.393-3.482,3.482-3.482h208.904c2.089,0,3.481,1.393,3.481,3.482v194.977
		C651.877,483.359,650.485,484.751,648.396,484.751z M442.973,477.787h201.94V289.774h-201.94V477.787z M752.848,456.898h-13.927
		c-2.089,0-3.483-1.394-3.483-3.482c0-2.09,1.395-3.482,3.483-3.482h13.927c2.089,0,3.482,1.393,3.482,3.482
		C756.329,455.505,754.937,456.898,752.848,456.898z M711.067,456.898H697.14c-2.089,0-3.482-1.394-3.482-3.482
		c0-2.09,1.394-3.482,3.482-3.482h13.927c2.09,0,3.482,1.393,3.482,3.482C714.548,455.505,713.156,456.898,711.067,456.898z
		 M550.907,442.97H536.98c-2.089,0-3.481-1.395-3.481-3.482c0-2.09,1.393-3.482,3.481-3.482h13.927c2.089,0,3.482,1.393,3.482,3.482
		C554.389,441.576,552.996,442.97,550.907,442.97z M752.848,429.045h-13.927c-2.089,0-3.483-1.395-3.483-3.483
		s1.395-3.481,3.483-3.481h13.927c2.089,0,3.482,1.393,3.482,3.481C756.329,427.65,754.937,429.045,752.848,429.045z
		 M711.067,429.045H697.14c-2.089,0-3.482-1.395-3.482-3.483s1.394-3.481,3.482-3.481h13.927c2.09,0,3.482,1.393,3.482,3.481
		C714.548,427.65,713.156,429.045,711.067,429.045z M578.761,415.116c-2.089,0-3.483-1.394-3.483-3.481v-13.928
		c0-2.088,1.395-3.481,3.483-3.481s3.481,1.394,3.481,3.481v13.928C582.242,413.722,580.85,415.116,578.761,415.116z
		 M509.126,415.116c-2.089,0-3.481-1.394-3.481-3.481v-13.928c0-2.088,1.393-3.481,3.481-3.481s3.482,1.394,3.482,3.481v13.928
		C512.608,413.722,511.215,415.116,509.126,415.116z M606.615,394.226c-2.09,0-3.482-1.393-3.482-3.482v-13.928
		c0-2.088,1.393-3.48,3.482-3.48c2.089,0,3.481,1.393,3.481,3.48v13.928C610.096,392.834,608.704,394.226,606.615,394.226z
		 M543.944,394.226c-5.571,0-10.445-4.875-10.445-10.445c0-5.571,4.874-10.445,10.445-10.445c5.572,0,10.445,4.874,10.445,10.445
		C554.389,389.351,549.514,394.226,543.944,394.226z M543.944,380.299c-2.089,0-3.481,1.393-3.481,3.482
		c0,2.089,1.393,3.481,3.481,3.481s3.482-1.393,3.482-3.481C547.426,381.691,546.032,380.299,543.944,380.299z M481.273,394.226
		c-2.089,0-3.482-1.393-3.482-3.482v-13.928c0-2.088,1.393-3.48,3.482-3.48s3.482,1.393,3.482,3.48v13.928
		C484.754,392.834,483.362,394.226,481.273,394.226z M724.993,387.262c-20.891,0-38.299-17.408-38.299-38.298
		c0-20.891,17.408-38.299,38.299-38.299c20.89,0,38.299,17.408,38.299,38.299C763.292,369.854,745.883,387.262,724.993,387.262z
		 M724.993,317.628c-17.408,0-31.336,13.927-31.336,31.335c0,17.409,13.928,31.336,31.336,31.336
		c17.409,0,31.336-13.927,31.336-31.336C756.329,331.555,742.403,317.628,724.993,317.628z M578.761,373.336
		c-2.089,0-3.483-1.393-3.483-3.482v-13.926c0-2.09,1.395-3.482,3.483-3.482s3.481,1.393,3.481,3.482v13.926
		C582.242,371.943,580.85,373.336,578.761,373.336z M509.126,373.336c-2.089,0-3.481-1.393-3.481-3.482v-13.926
		c0-2.09,1.393-3.482,3.481-3.482s3.482,1.393,3.482,3.482v13.926C512.608,371.943,511.215,373.336,509.126,373.336z
		 M550.907,331.555H536.98c-2.089,0-3.481-1.393-3.481-3.482s1.393-3.482,3.481-3.482h13.927c2.089,0,3.482,1.393,3.482,3.482
		S552.996,331.555,550.907,331.555z M752.848,199.946c-0.696,0-1.394,0-2.089-0.696c-1.394-0.696-2.09-2.089-2.09-2.785
		c0-0.696,0-1.393,0.696-2.089l13.928-24.373c0.695-1.393,2.785-2.089,4.874-1.393c1.394,0.696,2.089,2.089,2.089,2.785
		c0,0.696,0,1.393-0.695,2.089l-13.927,24.373C754.937,199.249,754.24,199.946,752.848,199.946z M697.14,199.946
		c-1.394,0-2.089-0.696-2.785-2.089l-13.928-24.372c0-0.696-0.695-1.393-0.695-2.089c0-1.393,0.695-2.089,2.089-2.785
		c1.393-0.696,3.481-0.696,4.874,1.393l13.928,24.372c0,0.696,0.695,1.393,0.695,2.089c0,1.393-0.695,2.089-2.089,2.785
		C698.533,199.249,697.836,199.946,697.14,199.946z M724.993,192.285c-2.089,0-3.481-1.393-3.481-3.482v-27.854
		c0-2.089,1.393-3.482,3.481-3.482s3.482,1.393,3.482,3.482v27.854C728.476,190.893,727.082,192.285,724.993,192.285z"/>
</g>
</svg>
