<?xml version="1.0" encoding="utf-8"?>
<!-- Generator: Adobe Illustrator 16.0.0, SVG Export Plug-In . SVG Version: 6.00 Build 0)  -->
<!DOCTYPE svg PUBLIC "-//W3C//DTD SVG 1.1//EN" "http://www.w3.org/Graphics/SVG/1.1/DTD/svg11.dtd">
<svg version="1.1" id="Capa_1" xmlns="http://www.w3.org/2000/svg" xmlns:xlink="http://www.w3.org/1999/xlink" x="0px" y="0px"
	 width="1200px" height="684px" viewBox="0 0 1200 684" enable-background="new 0 0 1200 684" xml:space="preserve">
<circle fill="#2FAC66" cx="600" cy="342" r="342"/>
<g>
	<path fill="#303C42" d="M825.945,191.371c0-41.53-33.786-75.316-75.313-75.316s-75.313,33.786-75.313,75.316
		c0,36.022,53.368,108.927,65.873,125.521c-0.002,5.361,0,10.623-0.13,15.454c-0.137,5.195,3.963,9.523,9.166,9.663
		c0.084,0,0.165,0,0.258,0c5.076,0,9.269-4.054,9.405-9.165c0.128-4.957,0.126-10.367,0.128-15.88
		C772.442,300.484,825.945,227.434,825.945,191.371z"/>
	<path fill="#EF5350" d="M750.631,134.885c31.148,0,56.487,25.336,56.487,56.486c0,23.967-35.793,78.155-56.487,106.626
		c-20.695-28.471-56.484-82.66-56.484-106.626C694.147,160.222,719.483,134.885,750.631,134.885z"/>
	<g>
		<path fill="#303C42" d="M769.46,191.371c0-10.381-8.45-18.829-18.829-18.829s-18.826,8.447-18.826,18.829
			c0,10.379,8.447,18.826,18.826,18.826C761.01,210.2,769.46,201.75,769.46,191.371z"/>
		<path fill="#303C42" d="M629.633,455.359c-4.873-1.895-10.297,0.523-12.183,5.379c-4.22,10.904-9.496,23.617-16.612,35.267
			c-2.713,4.439-1.306,10.231,3.127,12.943c1.535,0.939,3.228,1.381,4.9,1.381c3.17,0,6.271-1.603,8.043-4.507
			c7.891-12.926,13.58-26.605,18.103-38.279C636.888,462.694,634.479,457.241,629.633,455.359z"/>
		<path fill="#303C42" d="M576.549,524.063c-9.434,7.475-20.152,13.101-32.785,17.209c-4.946,1.607-7.649,6.923-6.041,11.868
			c1.297,3.972,4.984,6.5,8.955,6.5c0.966,0,1.949-0.146,2.915-0.458c14.59-4.744,27.589-11.595,38.649-20.355
			c4.073-3.236,4.764-9.156,1.537-13.23C586.524,521.535,580.613,520.808,576.549,524.063z"/>
		<path fill="#303C42" d="M662.224,387.389c-15.538,8.817-24.169,24.122-29.319,34.863c-2.252,4.688-0.273,10.315,4.414,12.557
			c1.314,0.636,2.703,0.929,4.064,0.929c3.509,0,6.877-1.966,8.494-5.341c6.538-13.634,13.211-21.847,21.65-26.646
			c4.516-2.564,6.105-8.311,3.529-12.835C672.503,386.395,666.776,384.804,662.224,387.389z"/>
		<path fill="#303C42" d="M734.063,366.601c-3.097,4.578-9.439,10.877-28.629,12.596c-5.175,0.471-9.001,5.039-8.531,10.223
			c0.441,4.893,4.551,8.569,9.369,8.569c0.285,0,0.569-0.01,0.855-0.037c20.383-1.829,34.291-8.634,42.53-20.797
			c2.914-4.302,1.785-10.159-2.52-13.072C742.862,361.187,736.988,362.301,734.063,366.601z"/>
		<path fill="#303C42" d="M509.336,549.237c29.707-31.679,90.666-104.557,90.666-169.579c0-63.345-49.627-112.974-112.973-112.974
			c-63.344,0-112.973,49.629-112.973,112.974c0,84.075,102.16,181.603,106.51,185.711c1.811,1.721,4.137,2.576,6.463,2.576
			c6.857,0,13.377-0.24,19.555-0.709c5.186-0.396,9.074-4.909,8.679-10.094C514.981,553.431,512.578,550.536,509.336,549.237z"/>
	</g>
	<path fill="#EF5350" d="M487.03,545.254c-22.238-22.689-94.143-101.057-94.143-165.596c0-52.792,41.353-94.145,94.143-94.145
		s94.145,41.353,94.145,94.145C581.174,444.197,509.27,522.564,487.03,545.254z"/>
	<circle fill="#303C42" cx="487.03" cy="379.657" r="56.486"/>
	<circle fill="#FFFFFF" cx="487.03" cy="379.657" r="37.658"/>
	<path opacity="0.1" enable-background="new    " d="M468.201,398.486c0-20.77,16.889-37.657,37.657-37.657
		c5.513,0,10.712,1.257,15.435,3.394C515.379,351.155,502.285,342,487.03,342c-20.768,0-37.658,16.889-37.658,37.658
		c0,15.255,9.153,28.35,22.223,34.263C469.458,409.198,468.201,403.999,468.201,398.486z"/>
	
		<linearGradient id="SVGID_1_" gradientUnits="userSpaceOnUse" x1="-945.2375" y1="1198.6228" x2="-942.6965" y2="1199.8077" gradientTransform="matrix(124.9998 0 0 124.9998 118578.1016 -149579.9844)">
		<stop  offset="0" style="stop-color:#FFFFFF;stop-opacity:0.2"/>
		<stop  offset="1" style="stop-color:#FFFFFF;stop-opacity:0"/>
	</linearGradient>
	<path display="none" fill="url(#SVGID_1_)" d="M750.631,116.055c-41.527,0-75.313,33.786-75.313,75.316
		c0,36.022,53.368,108.927,65.873,125.521c-0.002,5.361,0,10.623-0.13,15.454c-0.137,5.195,3.963,9.523,9.166,9.663h0.258
		c5.076,0,9.269-4.054,9.405-9.165c0.128-4.957,0.126-10.367,0.128-15.88c12.424-16.479,65.927-89.529,65.927-125.593
		C825.945,149.841,792.158,116.055,750.631,116.055z M629.633,455.359c-4.873-1.895-10.297,0.523-12.183,5.379
		c-4.22,10.904-9.496,23.617-16.612,35.267c-2.713,4.439-1.306,10.231,3.127,12.943c1.535,0.939,3.228,1.381,4.9,1.381
		c3.17,0,6.271-1.603,8.043-4.507c7.891-12.926,13.58-26.605,18.103-38.279C636.888,462.694,634.479,457.241,629.633,455.359z
		 M576.549,524.063c-9.434,7.475-20.152,13.101-32.785,17.209c-4.946,1.607-7.649,6.923-6.041,11.868
		c1.297,3.972,4.984,6.5,8.955,6.5c0.966,0,1.949-0.146,2.915-0.458c14.59-4.744,27.589-11.595,38.649-20.355
		c4.073-3.236,4.764-9.156,1.537-13.23C586.524,521.535,580.613,520.808,576.549,524.063z M662.224,387.389
		c-15.538,8.817-24.169,24.122-29.319,34.863c-2.252,4.688-0.273,10.315,4.414,12.557c1.314,0.636,2.703,0.929,4.064,0.929
		c3.509,0,6.877-1.966,8.494-5.341c6.538-13.634,13.211-21.847,21.65-26.646c4.516-2.564,6.105-8.311,3.529-12.835
		C672.503,386.395,666.776,384.804,662.224,387.389z M734.063,366.601c-3.097,4.578-9.439,10.877-28.629,12.596
		c-5.175,0.471-9.001,5.039-8.531,10.223c0.441,4.893,4.551,8.569,9.369,8.569c0.285,0,0.569-0.01,0.855-0.037
		c20.383-1.829,34.291-8.634,42.53-20.797c2.914-4.302,1.785-10.159-2.52-13.072C742.862,361.187,736.988,362.301,734.063,366.601z
		 M509.336,549.237c29.707-31.679,90.666-104.557,90.666-169.579c0-63.345-49.627-112.974-112.973-112.974
		c-63.344,0-112.973,49.629-112.973,112.974c0,84.075,102.16,181.603,106.51,185.711c1.811,1.721,4.137,2.576,6.463,2.576
		c6.857,0,13.377-0.24,19.555-0.709c5.186-0.396,9.074-4.909,8.679-10.094C514.981,553.431,512.578,550.536,509.336,549.237z"/>
</g>
</svg>
