<?xml version="1.0" encoding="utf-8"?>
<!-- Generator: Adobe Illustrator 16.0.0, SVG Export Plug-In . SVG Version: 6.00 Build 0)  -->
<!DOCTYPE svg PUBLIC "-//W3C//DTD SVG 1.1//EN" "http://www.w3.org/Graphics/SVG/1.1/DTD/svg11.dtd">
<svg version="1.1" id="Capa_1" xmlns="http://www.w3.org/2000/svg" xmlns:xlink="http://www.w3.org/1999/xlink" x="0px" y="0px"
	 width="1200px" height="684px" viewBox="0 0 1200 684" enable-background="new 0 0 1200 684" xml:space="preserve">
<circle fill="#2FAC66" cx="600" cy="342" r="342"/>
<polygon fill="#64798A" points="460.721,498.214 441.928,498.214 441.928,204.578 395.237,204.578 395.237,185.785 460.721,185.785 
	"/>
<path fill="#99C443" d="M460.721,227.925v231.918h55.49v38.371h233.063v-38.371h44.57c6.031,0,10.92-4.89,10.92-10.921V238.845
	c0-6.031-4.889-10.921-10.92-10.921H460.721z"/>
<g>
	<path fill="#FCD462" d="M561.839,492.678L561.839,492.678c-3.016,0-5.461-2.444-5.461-5.46v-16.381
		c0-3.016,2.445-5.461,5.461-5.461l0,0c3.015,0,5.46,2.445,5.46,5.461v16.381C567.299,490.234,564.855,492.678,561.839,492.678z"/>
	<path fill="#FCD462" d="M590.2,492.678L590.2,492.678c-3.016,0-5.461-2.444-5.461-5.46v-16.381c0-3.016,2.444-5.461,5.461-5.461
		l0,0c3.015,0,5.46,2.445,5.46,5.461v16.381C595.66,490.234,593.216,492.678,590.2,492.678z"/>
	<path fill="#FCD462" d="M618.561,492.678L618.561,492.678c-3.015,0-5.46-2.444-5.46-5.46v-16.381c0-3.016,2.445-5.461,5.46-5.461
		l0,0c3.016,0,5.461,2.445,5.461,5.461v16.381C624.022,490.234,621.577,492.678,618.561,492.678z"/>
	<path fill="#FCD462" d="M646.923,492.678L646.923,492.678c-3.016,0-5.461-2.444-5.461-5.46v-16.381
		c0-3.016,2.445-5.461,5.461-5.461l0,0c3.015,0,5.46,2.445,5.46,5.461v16.381C652.383,490.234,649.94,492.678,646.923,492.678z"/>
	<path fill="#FCD462" d="M675.283,492.678L675.283,492.678c-3.015,0-5.46-2.444-5.46-5.46v-16.381c0-3.016,2.445-5.461,5.46-5.461
		l0,0c3.016,0,5.461,2.445,5.461,5.461v16.381C680.744,490.234,678.3,492.678,675.283,492.678z"/>
	<path fill="#FCD462" d="M703.646,492.678L703.646,492.678c-3.016,0-5.461-2.444-5.461-5.46v-16.381
		c0-3.016,2.445-5.461,5.461-5.461l0,0c3.015,0,5.46,2.445,5.46,5.461v16.381C709.106,490.234,706.661,492.678,703.646,492.678z"/>
</g>
<text transform="matrix(1 0 0 1 540.594 363.0681)" font-family="'LEIXO-Regular'" font-size="82">gpu</text>
</svg>
