<?xml version="1.0" encoding="utf-8"?>
<!-- Generator: Adobe Illustrator 16.0.0, SVG Export Plug-In . SVG Version: 6.00 Build 0)  -->
<!DOCTYPE svg PUBLIC "-//W3C//DTD SVG 1.1//EN" "http://www.w3.org/Graphics/SVG/1.1/DTD/svg11.dtd">
<svg version="1.1" id="Capa_1" xmlns="http://www.w3.org/2000/svg" xmlns:xlink="http://www.w3.org/1999/xlink" x="0px" y="0px"
	 width="1200px" height="684px" viewBox="0 0 1200 684" enable-background="new 0 0 1200 684" xml:space="preserve">
<circle fill="#2FAC66" cx="600" cy="342" r="342"/>
<g>
	<g>
		<rect x="431.817" y="222.319" fill="#FFFFFF" width="336.367" height="206.995"/>
	</g>
	<g>
		<rect x="431.817" y="222.319" fill="#FF4F19" width="336.367" height="51.749"/>
	</g>
	<g>
		<path fill="#5C546A" d="M764.249,196.444H435.74c-16.431,0-29.798,13.335-29.798,29.728v235.484c0,3.576,2.894,6.469,6.469,6.469
			H787.59c3.575,0,6.469-2.893,6.469-6.469V226.172C794.059,209.78,780.686,196.444,764.249,196.444z M431.817,422.845V228.787
			c0-3.572,2.896-6.468,6.469-6.468h323.429c3.572,0,6.469,2.896,6.469,6.468v194.059c0,3.572-2.896,6.468-6.469,6.468H438.286
			C434.714,429.313,431.817,426.418,431.817,422.845z"/>
	</g>
	<g>
		<path fill="#B9BBC1" d="M800.527,455.187H399.474c-3.576,0-6.469,2.894-6.469,6.469l0,0c0,14.283,11.617,25.9,25.899,25.9h362.191
			c14.282,0,25.898-11.617,25.898-25.9l0,0C806.995,458.081,804.103,455.187,800.527,455.187z"/>
	</g>
	<g>
		<g>
			<path fill="#FFD200" d="M509.441,254.661h-45.28c-3.576,0-6.469-2.893-6.469-6.469c0-3.575,2.893-6.469,6.469-6.469h45.28
				c3.575,0,6.468,2.894,6.468,6.469C515.909,251.768,513.016,254.661,509.441,254.661z"/>
		</g>
	</g>
	<g>
		<g>
			<path fill="#FFFFFF" d="M625.875,254.661h-6.469c-3.575,0-6.469-2.893-6.469-6.469c0-3.575,2.894-6.469,6.469-6.469h6.469
				c3.576,0,6.469,2.894,6.469,6.469C632.344,251.768,629.451,254.661,625.875,254.661z"/>
		</g>
	</g>
	<g>
		<g>
			<path fill="#FFFFFF" d="M658.218,254.661h-6.469c-3.575,0-6.469-2.893-6.469-6.469c0-3.575,2.894-6.469,6.469-6.469h6.469
				c3.575,0,6.469,2.894,6.469,6.469C664.687,251.768,661.793,254.661,658.218,254.661z"/>
		</g>
	</g>
	<g>
		<g>
			<path fill="#FFFFFF" d="M690.561,254.661h-6.469c-3.575,0-6.469-2.893-6.469-6.469c0-3.575,2.894-6.469,6.469-6.469h6.469
				c3.575,0,6.469,2.894,6.469,6.469C697.03,251.768,694.136,254.661,690.561,254.661z"/>
		</g>
	</g>
	<g>
		<g>
			<path fill="#FFFFFF" d="M722.905,254.661h-6.469c-3.576,0-6.469-2.893-6.469-6.469c0-3.575,2.893-6.469,6.469-6.469h6.469
				c3.574,0,6.469,2.894,6.469,6.469C729.373,251.768,726.479,254.661,722.905,254.661z"/>
		</g>
	</g>
	<g>
		<path fill="#53DCFF" d="M574.126,409.908H464.16c-3.572,0-6.469-2.896-6.469-6.469V299.942c0-3.572,2.896-6.469,6.469-6.469
			h109.966c3.572,0,6.469,2.896,6.469,6.469v103.498C580.595,407.011,577.698,409.908,574.126,409.908z"/>
	</g>
	<g>
		<g>
			<path fill="#FF4F19" d="M729.373,306.41H606.469c-3.575,0-6.469-2.893-6.469-6.469c0-3.575,2.894-6.469,6.469-6.469h122.904
				c3.574,0,6.469,2.894,6.469,6.469C735.842,303.517,732.948,306.41,729.373,306.41z"/>
		</g>
	</g>
	<g>
		<g>
			<path fill="#B9BBC1" d="M658.218,358.159h-51.749c-3.575,0-6.469-2.894-6.469-6.469s2.894-6.468,6.469-6.468h51.749
				c3.575,0,6.469,2.893,6.469,6.468S661.793,358.159,658.218,358.159z"/>
		</g>
	</g>
	<g>
		<g>
			<path fill="#B9BBC1" d="M658.218,384.033h-51.749c-3.575,0-6.469-2.893-6.469-6.469c0-3.574,2.894-6.469,6.469-6.469h51.749
				c3.575,0,6.469,2.895,6.469,6.469C664.687,381.14,661.793,384.033,658.218,384.033z"/>
		</g>
	</g>
	<g>
		<g>
			<path fill="#B9BBC1" d="M658.218,409.908h-51.749c-3.575,0-6.469-2.893-6.469-6.469s2.894-6.469,6.469-6.469h51.749
				c3.575,0,6.469,2.893,6.469,6.469S661.793,409.908,658.218,409.908z"/>
		</g>
	</g>
	<g>
		<g>
			<path fill="#B9BBC1" d="M735.842,358.159h-51.75c-3.575,0-6.469-2.894-6.469-6.469s2.894-6.468,6.469-6.468h51.75
				c3.574,0,6.468,2.893,6.468,6.468S739.416,358.159,735.842,358.159z"/>
		</g>
	</g>
	<g>
		<g>
			<path fill="#B9BBC1" d="M735.842,384.033h-51.75c-3.575,0-6.469-2.893-6.469-6.469c0-3.574,2.894-6.469,6.469-6.469h51.75
				c3.574,0,6.468,2.895,6.468,6.469C742.31,381.14,739.416,384.033,735.842,384.033z"/>
		</g>
	</g>
	<g>
		<g>
			<path fill="#B9BBC1" d="M735.842,409.908h-51.75c-3.575,0-6.469-2.893-6.469-6.469s2.894-6.469,6.469-6.469h51.75
				c3.574,0,6.468,2.893,6.468,6.469S739.416,409.908,735.842,409.908z"/>
		</g>
	</g>
	<g>
		<g>
			<path fill="#E9001E" d="M690.561,332.285h-84.092c-3.575,0-6.469-2.894-6.469-6.469c0-3.576,2.894-6.469,6.469-6.469h84.092
				c3.575,0,6.469,2.893,6.469,6.469C697.03,329.391,694.136,332.285,690.561,332.285z"/>
		</g>
	</g>
	<g>
		<path fill="#8B8996" d="M574.126,468.125h51.749c7.145,0,12.938-5.793,12.938-12.938h-77.624
			C561.189,462.334,566.981,468.125,574.126,468.125z"/>
	</g>
</g>
</svg>
