<?xml version="1.0" encoding="utf-8"?>
<!-- Generator: Adobe Illustrator 16.0.0, SVG Export Plug-In . SVG Version: 6.00 Build 0)  -->
<!DOCTYPE svg PUBLIC "-//W3C//DTD SVG 1.1//EN" "http://www.w3.org/Graphics/SVG/1.1/DTD/svg11.dtd">
<svg version="1.1" id="Layer_1" xmlns="http://www.w3.org/2000/svg" xmlns:xlink="http://www.w3.org/1999/xlink" x="0px" y="0px"
	 width="1200px" height="684px" viewBox="0 0 1200 684" enable-background="new 0 0 1200 684" xml:space="preserve">
<path fill="#2FAC66" d="M942,342c0,188.887-153.119,342-342,342c-188.883,0-342-153.113-342-342C258,153.111,411.117,0,600,0
	C788.881,0,942,153.111,942,342z"/>
<path fill="#FEC573" d="M636.551,113.295l-250.831,250.83c-2.616,2.615-2.616,6.857,0,9.473l33.709,33.709l260.305-260.302
	l-33.709-33.709C643.408,110.678,639.166,110.678,636.551,113.295z"/>
<path fill="#EFAF5B" d="M636.551,113.295l-32.993,32.992c2.616-2.616,6.858-2.616,9.474,0l33.711,33.709l32.992-32.992
	l-33.709-33.709C643.408,110.678,639.166,110.678,636.551,113.295z"/>
<path fill="#DFEAEF" d="M755.508,204.287c-4.744,4.744-12.436,4.744-17.18,0l0,0c-4.746-4.745-4.746-12.438,0-17.181l5.451-5.452
	l-57.27-57.271c-2.42-2.42-6.346-2.42-8.768,0L396.808,405.317c-2.421,2.42-2.421,6.346,0,8.768l57.27,57.27l5.452-5.453
	c4.745-4.744,12.438-4.744,17.182,0l0,0c4.744,4.746,4.744,12.438,0,17.182l-5.453,5.453l57.27,57.27c2.421,2.42,6.347,2.42,8.768,0
	l195.983-195.984l30.865-30.865l12.979-12.979l41.107-41.104c2.42-2.422,2.42-6.347,0-8.769l-57.271-57.27L755.508,204.287z"/>
<path fill="#BFCFD6" d="M738.326,187.107l5.453-5.452l-57.27-57.271c-2.42-2.42-6.346-2.42-8.768,0l-32.992,32.993
	c2.42-2.42,6.346-2.42,8.768,0l131.721,131.721c2.42,2.421,2.42,6.346,0,8.768l32.992-32.993c2.422-2.421,2.422-6.346,0-8.767
	l-57.27-57.271l-5.453,5.453c-4.744,4.744-12.436,4.744-17.18,0C733.582,199.543,733.582,191.852,738.326,187.107z"/>
<g>
	<path fill="#FFD9A6" d="M473.676,300.536c1.309,1.309,3.024,1.962,4.74,1.962c1.715,0,3.432-0.653,4.74-1.962
		c2.618-2.618,2.618-6.863,0-9.481l-12.185-12.184l0,0l-9.48,9.48l0,0L473.676,300.536z"/>
	<path fill="#FFD9A6" d="M500.867,280.049c1.715,0,3.432-0.655,4.74-1.964c2.618-2.618,2.618-6.862,0-9.48l-12.185-12.184
		l-9.48,9.48l12.185,12.184C497.436,279.394,499.151,280.049,500.867,280.049z"/>
	<path fill="#FFD9A6" d="M460.706,313.506l-12.184-12.184l-9.48,9.48l12.184,12.184c1.309,1.309,3.025,1.963,4.74,1.963
		c1.716,0,3.431-0.654,4.74-1.963C463.325,320.367,463.325,316.123,460.706,313.506z"/>
	<path fill="#FFD9A6" d="M415.806,358.406l-12.184-12.184l-9.481,9.48l12.184,12.184c1.309,1.309,3.024,1.963,4.74,1.963
		s3.431-0.654,4.74-1.963C418.423,365.268,418.423,361.024,415.806,358.406z"/>
	<path fill="#FFD9A6" d="M528.058,246.154l-12.185-12.184l-9.48,9.481l12.184,12.183c1.31,1.31,3.025,1.964,4.741,1.964
		s3.432-0.654,4.74-1.964C530.676,253.017,530.677,248.772,528.058,246.154z"/>
	<path fill="#FFD9A6" d="M635.572,145.346c1.715,0,3.432-0.655,4.74-1.963c2.617-2.618,2.617-6.863,0-9.481l-12.184-12.184
		l-9.482,9.48l12.184,12.184C632.138,144.691,633.853,145.346,635.572,145.346z"/>
	<path fill="#FFD9A6" d="M608.381,165.832c1.309,1.309,3.023,1.963,4.74,1.963c1.715,0,3.432-0.654,4.74-1.963
		c2.617-2.617,2.617-6.863,0-9.48l-12.185-12.184l0,0l-9.48,9.48l0,0L608.381,165.832z"/>
	<path fill="#FFD9A6" d="M433.516,347.4c1.715,0,3.432-0.654,4.741-1.963c2.619-2.618,2.619-6.863,0-9.48l-12.184-12.185l0,0
		l-9.48,9.481l0,0l12.183,12.184C430.084,346.745,431.8,347.4,433.516,347.4z"/>
	<path fill="#FFD9A6" d="M545.768,235.148c1.716,0,3.432-0.654,4.741-1.963c2.618-2.618,2.618-6.863,0-9.48l-12.185-12.185l0,0
		l-9.48,9.48l0,0l12.184,12.185C542.336,234.493,544.052,235.148,545.768,235.148z"/>
	<path fill="#FFD9A6" d="M583.225,166.619l-9.48,9.48l12.184,12.184c1.309,1.31,3.024,1.964,4.74,1.964s3.432-0.655,4.74-1.964
		c2.619-2.618,2.619-6.862,0-9.481L583.225,166.619z"/>
	<path fill="#FFD9A6" d="M572.959,201.253l-12.184-12.185l-9.48,9.481l12.184,12.184c1.309,1.309,3.025,1.963,4.74,1.963
		c1.716,0,3.432-0.654,4.74-1.963C575.577,208.116,575.577,203.87,572.959,201.253z"/>
</g>
<g>
	<path fill="#BABABA" d="M641.267,235.91c-2.617-2.619-6.861-2.619-9.48,0l-8.25,8.25c-2.617,2.617-2.619,6.861,0,9.48
		c1.309,1.31,3.025,1.963,4.74,1.963s3.432-0.654,4.74-1.963l8.25-8.249C643.885,242.774,643.885,238.529,641.267,235.91z"/>
	<path fill="#BABABA" d="M662.029,256.673c-2.617-2.619-6.863-2.618-9.48,0l-8.252,8.249c-2.617,2.618-2.617,6.862,0,9.48
		c1.311,1.31,3.027,1.964,4.742,1.964s3.432-0.655,4.74-1.964l8.25-8.249C664.648,263.535,664.648,259.291,662.029,256.673z"/>
	<path fill="#BABABA" d="M682.791,277.434c-2.617-2.618-6.863-2.618-9.48,0l-8.25,8.25c-2.619,2.618-2.619,6.863,0,9.48
		c1.309,1.31,3.023,1.964,4.74,1.964c1.715,0,3.432-0.654,4.74-1.964l8.25-8.25C685.41,284.297,685.41,280.053,682.791,277.434z"/>
	<path fill="#BABABA" d="M703.552,298.196c-2.617-2.617-6.863-2.617-9.48,0l-8.25,8.251c-2.619,2.617-2.619,6.862,0,9.48
		c1.309,1.309,3.023,1.963,4.74,1.963c1.715,0,3.432-0.654,4.74-1.963l8.25-8.251C706.172,305.059,706.172,300.815,703.552,298.196z
		"/>
	<path fill="#BABABA" d="M690.888,186.289c-2.619-2.617-6.863-2.617-9.48,0l-7.246,7.246c-2.619,2.617-2.619,6.863,0,9.48
		c1.309,1.309,3.025,1.963,4.74,1.963c1.717,0,3.432-0.654,4.74-1.963l7.246-7.246C693.506,193.153,693.506,188.907,690.888,186.289
		z"/>
	<path fill="#BABABA" d="M711.65,207.051c-2.617-2.619-6.863-2.618-9.48,0l-7.246,7.245c-2.617,2.619-2.617,6.863,0,9.48
		c1.309,1.311,3.025,1.964,4.74,1.964c1.717,0,3.432-0.654,4.742-1.964l7.244-7.245C714.269,213.914,714.269,209.669,711.65,207.051
		z"/>
	<path fill="#BABABA" d="M732.412,227.813c-2.617-2.619-6.861-2.617-9.48,0l-7.244,7.245c-2.619,2.619-2.619,6.863,0,9.481
		c1.309,1.31,3.023,1.964,4.74,1.964c1.715,0,3.432-0.655,4.74-1.964l7.244-7.245C735.029,234.676,735.029,230.431,732.412,227.813z
		"/>
	<path fill="#BABABA" d="M736.447,265.301c1.309,1.311,3.025,1.964,4.74,1.964c1.717,0,3.432-0.655,4.74-1.964l7.246-7.245
		c2.619-2.618,2.619-6.862,0-9.481c-2.617-2.618-6.861-2.618-9.48,0l-7.246,7.246C733.83,258.438,733.83,262.684,736.447,265.301z"
		/>
	<path fill="#BABABA" d="M545.864,338.017c-1.715,0-3.432-0.655-4.74-1.964c-2.619-2.618-2.618-6.863,0-9.48l8.25-8.25
		c2.618-2.618,6.863-2.618,9.48,0c2.619,2.619,2.618,6.863,0,9.48l-8.25,8.25C549.297,337.362,547.579,338.017,545.864,338.017z"/>
	<path fill="#BABABA" d="M566.627,358.778c-1.715,0-3.432-0.654-4.74-1.963c-2.619-2.617-2.619-6.863,0-9.48l8.25-8.25
		c2.618-2.617,6.863-2.617,9.481,0c2.618,2.618,2.618,6.863,0,9.48l-8.25,8.25C570.057,358.123,568.343,358.778,566.627,358.778z"/>
	<path fill="#BABABA" d="M587.387,379.539c-1.715,0-3.432-0.654-4.74-1.963c-2.618-2.619-2.618-6.863,0-9.48l8.251-8.252
		c2.618-2.617,6.862-2.617,9.48,0c2.618,2.619,2.618,6.863,0,9.48l-8.25,8.252C590.819,378.885,589.103,379.539,587.387,379.539z"/>
	<path fill="#BABABA" d="M608.152,400.301c-1.717,0-3.433-0.654-4.741-1.963c-2.619-2.619-2.619-6.863,0-9.48l8.251-8.252
		c2.617-2.617,6.863-2.617,9.48,0c2.619,2.619,2.619,6.863,0,9.482l-8.25,8.25C611.584,399.647,609.867,400.301,608.152,400.301z"/>
	<path fill="#BABABA" d="M596.49,287.391c-1.716,0-3.432-0.654-4.74-1.963c-2.619-2.618-2.619-6.863,0-9.481l7.245-7.245
		c2.617-2.618,6.863-2.618,9.481,0c2.619,2.617,2.619,6.862,0,9.48l-7.246,7.246C599.921,286.737,598.205,287.391,596.49,287.391z"
		/>
	<path fill="#BABABA" d="M617.254,308.153c-1.717,0-3.432-0.654-4.74-1.963c-2.619-2.617-2.619-6.862,0-9.48l7.244-7.247
		c2.619-2.617,6.863-2.618,9.482,0c2.617,2.618,2.617,6.862,0,9.481l-7.246,7.246C620.685,307.498,618.969,308.153,617.254,308.153z
		"/>
	<path fill="#BABABA" d="M638.015,328.914c-1.715,0-3.432-0.653-4.74-1.963c-2.619-2.617-2.619-6.862,0-9.48l7.246-7.246
		c2.617-2.618,6.861-2.619,9.48,0c2.617,2.617,2.617,6.861,0,9.48l-7.246,7.246C641.447,328.261,639.73,328.914,638.015,328.914z"/>
	<path fill="#BABABA" d="M658.777,349.676c-1.715,0-3.432-0.654-4.74-1.963c-2.619-2.617-2.619-6.862,0-9.48l7.246-7.246
		c2.617-2.617,6.861-2.617,9.48,0c2.619,2.618,2.619,6.863,0,9.481l-7.246,7.245C662.209,349.022,660.492,349.676,658.777,349.676z"
		/>
	<path fill="#BABABA" d="M463.452,420.428c-1.715,0-3.432-0.654-4.74-1.963c-2.618-2.619-2.617-6.863,0-9.482l8.251-8.248
		c2.618-2.619,6.862-2.619,9.48,0s2.617,6.863,0,9.48l-8.251,8.25C466.884,419.772,465.168,420.428,463.452,420.428z"/>
	<path fill="#BABABA" d="M484.214,441.19c-1.715,0-3.431-0.656-4.74-1.965c-2.618-2.617-2.618-6.861,0-9.48l8.251-8.25
		c2.618-2.617,6.863-2.617,9.481,0c2.617,2.617,2.617,6.863,0,9.48l-8.252,8.25C487.645,440.533,485.929,441.19,484.214,441.19z"/>
	<path fill="#BABABA" d="M504.976,461.951c-1.715,0-3.432-0.654-4.74-1.965c-2.618-2.617-2.618-6.861,0-9.48l8.25-8.25
		c2.618-2.617,6.863-2.617,9.481,0s2.618,6.863,0,9.48l-8.251,8.25C508.409,461.297,506.692,461.951,504.976,461.951z"/>
	<path fill="#BABABA" d="M525.738,482.713c-1.715,0-3.432-0.654-4.74-1.963c-2.618-2.619-2.618-6.863,0-9.482l8.251-8.25
		c2.617-2.617,6.862-2.617,9.48,0c2.618,2.619,2.618,6.863,0,9.48l-8.251,8.252C529.17,482.059,527.454,482.713,525.738,482.713z"/>
	<path fill="#BABABA" d="M514.078,369.801c-1.715,0-3.432-0.652-4.74-1.963c-2.617-2.617-2.619-6.861,0-9.48l7.245-7.246
		c2.618-2.617,6.863-2.619,9.481,0c2.617,2.617,2.618,6.861,0,9.48l-7.245,7.246C517.51,369.149,515.794,369.801,514.078,369.801z"
		/>
	<path fill="#BABABA" d="M534.841,390.565c-1.716,0-3.432-0.654-4.741-1.963c-2.617-2.619-2.618-6.863,0-9.482l7.246-7.246
		c2.617-2.617,6.863-2.619,9.48,0c2.618,2.617,2.618,6.861,0,9.48l-7.245,7.248C538.272,389.91,536.555,390.565,534.841,390.565z"/>
	<path fill="#BABABA" d="M555.603,411.326c-1.716,0-3.432-0.654-4.741-1.963c-2.618-2.619-2.618-6.863,0-9.48l7.246-7.246
		c2.618-2.619,6.863-2.619,9.48,0c2.619,2.617,2.619,6.861,0,9.48l-7.245,7.246C559.034,410.67,557.317,411.326,555.603,411.326z"/>
	<path fill="#BABABA" d="M576.364,432.088c-1.715,0-3.432-0.654-4.74-1.963c-2.619-2.619-2.619-6.863,0-9.48l7.246-7.246
		c2.617-2.619,6.862-2.619,9.48,0c2.618,2.617,2.618,6.863,0,9.48l-7.246,7.246C579.797,431.432,578.079,432.088,576.364,432.088z"
		/>
</g>
<g>
	<path fill="#53BBF3" d="M508.354,357.373l76.885,76.885c2.24,2.24,2.24,5.873,0,8.115l-34.262,34.26
		c-2.239,2.24-5.874,2.24-8.113,0l-76.885-76.885c-2.241-2.24-2.241-5.873,0-8.113l34.261-34.262
		C502.48,355.133,506.113,355.133,508.354,357.373z"/>
	<path fill="#53BBF3" d="M590.765,274.962l76.887,76.884c2.238,2.24,2.238,5.873,0,8.115l-34.262,34.26
		c-2.24,2.242-5.875,2.242-8.113,0l-76.887-76.883c-2.24-2.24-2.24-5.874,0-8.114l34.262-34.262
		C584.891,272.722,588.524,272.722,590.765,274.962z"/>
	<path fill="#53BBF3" d="M673.177,192.552l76.885,76.885c2.24,2.24,2.24,5.874,0,8.113l-34.262,34.262
		c-2.238,2.24-5.871,2.24-8.113,0l-76.885-76.885c-2.24-2.24-2.24-5.873,0-8.114l34.262-34.261
		C667.306,190.311,670.937,190.311,673.177,192.552z"/>
</g>
<g>
	<path fill="#359EE0" d="M500.24,357.373l-17.131,17.131l84.999,85l17.131-17.131c2.24-2.242,2.24-5.875,0-8.115l-76.885-76.885
		C506.113,355.133,502.48,355.133,500.24,357.373z"/>
	<path fill="#359EE0" d="M582.665,274.949l-17.131,17.131l84.999,84.998l17.131-17.131c2.24-2.24,2.24-5.873,0-8.113l-76.885-76.885
		C588.538,272.708,584.905,272.708,582.665,274.949z"/>
	<path fill="#359EE0" d="M665.062,192.552l-17.131,17.131l85,84.999l17.131-17.132c2.24-2.239,2.24-5.872,0-8.113l-76.885-76.885
		C670.937,190.311,667.306,190.311,665.062,192.552z"/>
</g>
</svg>
