<?xml version="1.0" encoding="utf-8"?>
<!-- Generator: Adobe Illustrator 16.0.0, SVG Export Plug-In . SVG Version: 6.00 Build 0)  -->
<!DOCTYPE svg PUBLIC "-//W3C//DTD SVG 1.1//EN" "http://www.w3.org/Graphics/SVG/1.1/DTD/svg11.dtd">
<svg version="1.1" id="Capa_1" xmlns="http://www.w3.org/2000/svg" xmlns:xlink="http://www.w3.org/1999/xlink" x="0px" y="0px"
	 width="1200px" height="684px" viewBox="0 0 1200 684" enable-background="new 0 0 1200 684" xml:space="preserve">
<circle fill="#2FAC66" cx="600" cy="342" r="342"/>
<path fill="#415F6F" d="M826.305,442.01l17.525-9.906c-1.145-6.477-2.669-12.954-4.953-19.431h-20.192l-11.049-19.43l10.287-17.524
	c-4.191-4.953-8.764-9.905-14.097-14.098l-17.525,9.905l-19.431-11.429v-20.192c-0.382,0-0.762-0.381-1.522-0.381
	c-5.715-1.905-11.812-3.809-17.906-4.953l-10.287,17.525h-22.479l-9.905-17.525c-6.478,1.145-12.953,2.667-19.43,4.953v20.192
	l-19.432,11.049l-17.523-10.287c-4.953,4.19-9.906,8.763-14.098,14.097l9.905,17.525l-11.429,19.43h-20.192
	c-2.286,6.478-4.19,12.573-5.334,19.05l17.525,10.286v22.479l-17.525,9.904c1.144,6.477,2.667,12.953,4.952,19.431h20.192
	l11.049,19.431l-10.287,17.525c4.191,4.952,8.764,9.905,14.097,14.095l17.526-9.905l19.43,11.431v20.191
	c0.381,0,0.762,0.382,1.523,0.382c5.715,1.903,11.811,3.81,17.906,4.952l10.287-17.524h22.479l9.904,17.524
	c6.477-1.144,12.953-2.667,19.431-4.952v-20.192l19.431-11.049l17.524,10.286c4.953-4.189,9.906-8.762,14.097-14.096l-9.904-17.524
	l11.429-19.432h20.192c2.284-6.477,4.189-12.571,5.334-19.049l-17.525-10.287V442.01z M725.726,518.969
	c-36.574,0-66.673-29.717-66.673-66.291s29.717-66.674,66.673-66.674c36.574,0,66.672,29.718,66.672,66.291
	C792.398,488.87,762.3,518.969,725.726,518.969z"/>
<path fill="#415F6F" d="M622.098,330.38c0-7.238-0.382-14.858-1.524-22.097l-21.715-4.572l-8.002-23.619l14.858-16.764
	c-3.43-6.477-7.619-12.573-12.19-18.288l-21.336,7.239l-18.667-16.382l4.571-22.097c-6.478-3.811-12.953-7.239-19.812-9.906
	l-14.478,16.763l-24.384-4.953l-7.238-21.335c-7.238,0-14.857,0.382-22.098,1.524l-4.57,21.715l-23.621,8.001l-16.764-14.859
	c-6.477,3.43-12.572,7.62-18.287,12.191l7.238,21.334l-16.381,18.67l-22.098-4.572c-3.809,6.478-7.238,12.954-9.905,19.812
	l16.763,14.858l-4.952,24.384l-21.337,6.857c0,7.239,0.382,14.859,1.522,22.096l22.097,4.572l8.002,23.621l-14.858,16.763
	c3.43,6.478,7.62,12.572,12.19,18.288l21.336-7.238l18.668,16.382l-4.952,22.098c6.476,3.81,12.953,7.239,19.811,9.905
	l14.858-16.763l24.383,4.951l7.238,21.336c7.238,0,14.857-0.382,22.097-1.523l4.572-21.716l23.621-8.001l16.763,14.857
	c6.477-3.429,12.573-7.619,18.288-12.19l-7.239-21.335l16.382-18.668l22.099,4.57c3.809-6.476,7.238-12.953,9.904-19.811
	l-16.763-14.858l4.952-24.383L622.098,330.38L622.098,330.38z M489.133,400.863c-40.767,0-73.911-33.146-73.911-73.911
	c0-40.765,33.146-73.912,73.911-73.912c40.765,0,73.91,33.146,73.91,73.912S529.899,400.863,489.133,400.863z"/>
<path fill="#415F6F" d="M798.113,219.134l16.002-6.478c-0.381-5.716-1.144-11.43-2.286-17.145l-17.145-2.286l-7.238-17.906
	l10.668-13.715c-3.048-4.953-6.477-9.524-10.287-13.715l-16.002,6.477l-15.238-11.811l2.285-17.146l-1.144-0.762
	c-4.953-2.286-9.905-4.572-14.856-6.097l-10.669,13.716l-19.05-2.668l-6.477-16.382c-5.715,0.382-11.43,0.763-17.145,1.904
	l-2.285,17.146l-18.289,7.619l-13.715-10.667c-4.953,3.049-9.523,6.477-13.714,10.286l6.477,16.003l-11.812,15.238l-17.145-2.286
	c-2.667,4.953-4.951,10.287-6.857,16.001l13.715,10.668l-2.666,19.05l-16.002,6.477c0.381,5.715,1.145,11.429,2.285,17.146
	l17.145,2.285l7.238,17.906l-10.668,13.714c3.049,4.954,6.478,9.525,10.287,13.716l16.002-6.477l15.24,11.812l-2.287,17.144
	l1.145,0.763c4.952,2.286,9.905,4.571,14.857,6.097l10.668-13.716l19.049,2.668l6.478,16.002c5.715-0.382,11.43-0.764,17.145-2.286
	l2.285-17.146l17.906-7.238l13.716,10.668c4.952-3.048,9.523-6.477,13.716-10.286l-6.477-16.001l11.81-15.239l17.146,2.286
	c2.667-4.954,4.952-10.287,6.856-16.002l-13.716-10.667L798.113,219.134z M710.865,275.518c-32.765,0-59.053-26.288-59.053-59.054
	c0-32.765,26.288-59.053,59.053-59.053c32.767,0,59.053,26.288,59.053,59.053C769.918,249.23,743.632,275.518,710.865,275.518z"/>
</svg>
