<?xml version="1.0" encoding="utf-8"?>
<!-- Generator: Adobe Illustrator 16.0.0, SVG Export Plug-In . SVG Version: 6.00 Build 0)  -->
<!DOCTYPE svg PUBLIC "-//W3C//DTD SVG 1.1//EN" "http://www.w3.org/Graphics/SVG/1.1/DTD/svg11.dtd">
<svg version="1.1" id="Capa_1" xmlns="http://www.w3.org/2000/svg" xmlns:xlink="http://www.w3.org/1999/xlink" x="0px" y="0px"
	 width="1200px" height="684px" viewBox="0 0 1200 684" enable-background="new 0 0 1200 684" xml:space="preserve">
<circle fill="#2FAC66" cx="600" cy="342" r="342"/>
<g>
	<polygon fill="#5D6D7E" points="658.381,410.76 665.639,418.027 674.125,426.459 677.384,429.75 694.32,412.808 675.335,393.805 	
		"/>
	<path fill="#FF8E31" d="M711.574,412.707l58.419,58.406c4.394,4.373,7.118,10.461,7.111,17.152c0,6.706-2.719,12.787-7.111,17.176
		c-4.381,4.377-10.454,7.083-17.153,7.083c-6.701,0-12.767-2.706-17.157-7.095l-58.419-58.408L711.574,412.707z"/>
	<path fill="#FEC979" d="M703.52,420.773L703.52,420.773l4.739-4.758l58.426,58.424c3.699,3.696,5.729,8.602,5.719,13.826
		c0,5.248-2.03,10.162-5.719,13.853c-0.666,0.655-1.525,0.979-2.375,0.979c-0.863,0-1.727-0.322-2.385-0.988
		c-1.302-1.308-1.302-3.432,0-4.733c2.438-2.429,3.77-5.675,3.77-9.112c0.004-3.426-1.328-6.646-3.759-9.065L703.52,420.773z"/>
	<g>
		<path fill="#34495E" d="M677.267,447.017l34.309-34.312l-2.559-2.567c-1.545-1.554-3.657-2.5-6.008-2.5
			c-2.358,0-4.474,0.944-6.011,2.479l-22.307,22.323c-1.531,1.52-2.49,3.643-2.49,6.001c0,2.336,0.959,4.479,2.49,6L677.267,447.017
			z"/>
		<path fill="#34495E" d="M481.796,326.906c0-60.571,49.104-109.687,109.686-109.687c60.577,0,109.688,49.113,109.679,109.687
			c0.012,60.58-49.104,109.676-109.679,109.695C530.905,436.582,481.796,387.486,481.796,326.906z"/>
	</g>
	<path fill="#5D6D7E" d="M591.482,424.721c54.004,0,97.805-43.794,97.805-97.818c0-54.003-43.801-97.811-97.805-97.811
		c-54.017,0-97.817,43.805-97.817,97.811C493.663,380.929,537.462,424.721,591.482,424.721z"/>
	<path fill="#E1EFFA" d="M591.482,416.886c49.678,0,89.981-40.273,89.981-89.984c0-49.681-40.304-89.977-89.981-89.977
		c-49.69,0-89.981,40.292-89.981,89.977C501.504,376.613,541.787,416.886,591.482,416.886z"/>
	<g>
		<path fill="#FFFFFF" d="M593.841,251.696c-1.529-2.27-4.157-3.695-7.06-3.526c-12.421,0.751-24.153,4.252-34.885,10.473
			c-3.778,2.218-5.071,7.093-2.875,10.874c2.199,3.756,7.073,5.09,10.842,2.854c8.561-4.934,17.922-7.737,27.854-8.34
			c4.359-0.226,7.719-3.989,7.438-8.349C595.116,254.159,594.612,252.806,593.841,251.696z"/>
		<path fill="#FFFFFF" d="M542.903,277.782c-0.421-0.64-0.972-1.212-1.579-1.722c-3.409-2.786-8.402-2.245-11.159,1.151
			c-8.105,9.954-13.679,21.903-16.144,34.608c-2.91,15.091-1.388,30.531,4.396,44.706c1.689,4.076,6.327,5.99,10.374,4.319
			c4.063-1.652,5.992-6.271,4.336-10.355c-4.619-11.284-5.815-23.623-3.478-35.659c1.922-10.146,6.377-19.675,12.849-27.613
			C544.744,284.463,544.806,280.578,542.903,277.782z"/>
	</g>
</g>
</svg>
