<?xml version="1.0" encoding="utf-8"?>
<!-- Generator: Adobe Illustrator 16.0.0, SVG Export Plug-In . SVG Version: 6.00 Build 0)  -->
<!DOCTYPE svg PUBLIC "-//W3C//DTD SVG 1.1//EN" "http://www.w3.org/Graphics/SVG/1.1/DTD/svg11.dtd">
<svg version="1.1" id="Livello_1" xmlns="http://www.w3.org/2000/svg" xmlns:xlink="http://www.w3.org/1999/xlink" x="0px" y="0px"
	 width="900px" height="650px" viewBox="0 0 900 650" enable-background="new 0 0 900 650" xml:space="preserve">
<rect x="0" y="0" fill="#226DC6" width="900" height="650"/>
<circle fill="#242E3D" cx="462.434" cy="325.001" r="169.683"/>
<path fill="#3F4A5A" d="M595.168,219.301c-0.188-0.235-0.38-0.471-0.567-0.704h-18.693v-19.745c-0.231-0.21-0.468-0.416-0.7-0.624
	v20.368H519.35V198.09h55.703c-0.266-0.233-0.528-0.471-0.794-0.703H519.35v-20.508h25.902c-0.422-0.234-0.838-0.473-1.261-0.704
	H519.35v-11.063c-0.236-0.084-0.472-0.166-0.707-0.249v11.313h-55.854v-20.506h10.47c-3.58-0.225-7.188-0.354-10.823-0.354
	c-3.639,0-7.245,0.128-10.825,0.354h10.472v20.506h-55.854v-11.313c-0.234,0.082-0.471,0.165-0.706,0.249v11.064h-24.646
	c-0.422,0.231-0.839,0.47-1.259,0.704h25.904v20.508h-54.911c-0.266,0.232-0.53,0.47-0.794,0.703h55.706v20.506h-55.854v-20.373
	c-0.233,0.209-0.473,0.415-0.703,0.625v19.748h-18.698c-0.188,0.233-0.379,0.469-0.566,0.704h19.265v20.508h-33.3
	c-0.138,0.234-0.28,0.467-0.417,0.704h33.714v20.505h-43.72c-0.097,0.233-0.192,0.469-0.287,0.704h44.008v20.507h-50.771
	c-0.06,0.233-0.121,0.469-0.18,0.705h50.95v20.505h-54.854c-0.028,0.233-0.053,0.47-0.081,0.705h54.934v20.506h-56.206
	c0,0.117-0.004,0.232-0.004,0.352c0,0.117,0.004,0.233,0.004,0.354h56.207v20.505h-54.935c0.028,0.233,0.05,0.471,0.081,0.705
	h54.853v20.506h-50.949c0.06,0.234,0.12,0.471,0.181,0.706h50.771v20.503h-44.009c0.095,0.236,0.19,0.471,0.287,0.705h43.72v20.508
	h-33.712c0.137,0.234,0.279,0.469,0.417,0.704h33.296v20.503h-19.263c0.188,0.236,0.378,0.47,0.566,0.705h18.695v19.747
	c0.231,0.211,0.471,0.417,0.704,0.626v-20.373h55.855v20.508h-55.704c0.267,0.233,0.528,0.472,0.794,0.705h54.91v20.503h-25.905
	c0.42,0.235,0.838,0.477,1.26,0.705h24.646v11.063c0.232,0.086,0.471,0.166,0.706,0.252v-11.315h55.854v20.854
	c0.118,0,0.234,0.004,0.353,0.004c0.119,0,0.234-0.004,0.354-0.004v-20.854h55.854v11.313c0.234-0.084,0.472-0.164,0.707-0.25
	v-11.063h24.643c0.423-0.229,0.84-0.47,1.26-0.705h-25.901v-20.503h54.906c0.266-0.231,0.529-0.47,0.794-0.703h-55.7v-20.508h55.856
	v20.367c0.233-0.207,0.47-0.413,0.701-0.622v-19.745h18.693c0.188-0.234,0.38-0.469,0.566-0.705h-19.261v-20.505h33.294
	c0.139-0.233,0.28-0.468,0.417-0.702h-33.711v-20.508h43.718c0.097-0.234,0.193-0.471,0.288-0.705h-44.006v-20.505h50.769
	c0.061-0.233,0.12-0.47,0.182-0.704h-50.949v-20.508h54.852c0.028-0.234,0.054-0.469,0.082-0.705h-54.934v-20.503h56.204
	c0-0.119,0.005-0.235,0.005-0.354c0-0.117-0.004-0.232-0.005-0.352h-56.204v-20.506h54.934c-0.028-0.234-0.053-0.472-0.082-0.704
	h-54.852v-20.505h50.951c-0.062-0.235-0.122-0.471-0.183-0.704h-50.769v-20.507h44.006c-0.096-0.236-0.19-0.472-0.288-0.705h-43.718
	v-20.505h33.712c-0.136-0.236-0.279-0.469-0.417-0.704h-33.295v-20.507h19.259V219.301L595.168,219.301z M518.642,218.596h-55.855
	v-20.506h55.855V218.596L518.642,218.596z M462.078,240.512v20.505h-55.854v-20.505H462.078z M406.225,239.808v-20.508h55.854
	v20.508H406.225z M462.078,261.721v20.507h-55.854v-20.507H462.078z M462.078,282.933v20.505h-55.854v-20.505H462.078z
	 M462.078,304.143v20.507h-55.854v-20.507H462.078L462.078,304.143z M462.078,325.354v20.505h-55.854v-20.505H462.078z
	 M462.078,346.564v20.506h-55.854v-20.506H462.078z M462.078,367.774v20.505h-55.854v-20.505H462.078z M462.078,388.984v20.508
	h-55.854v-20.508H462.078z M462.078,410.195v20.504h-55.854v-20.504H462.078z M462.785,410.195h55.855v20.504h-55.855V410.195
	L462.785,410.195z M462.785,409.492v-20.508h55.855v20.508H462.785z M462.785,388.279v-20.505h55.855v20.505H462.785z
	 M462.785,367.07v-20.506h55.855v20.506H462.785L462.785,367.07z M462.785,345.859v-20.505h55.855v20.505H462.785z M462.785,324.65
	v-20.507h55.855v20.507H462.785z M462.785,303.438v-20.505h55.855v20.505H462.785z M462.785,282.229v-20.507h55.855v20.507H462.785
	L462.785,282.229z M462.785,261.017v-20.505h55.855v20.505H462.785z M462.785,239.808v-20.508h55.855v20.508H462.785z
	 M518.642,176.879v20.508h-55.855v-20.508H518.642z M406.225,176.879h55.854v20.508h-55.854V176.879z M406.225,198.091h55.854
	v20.506h-55.854V198.091z M349.66,219.301h55.855v20.508H349.66V219.301L349.66,219.301z M349.66,240.512h55.855v20.505H349.66
	V240.512L349.66,240.512z M349.66,261.721h55.855v20.507H349.66V261.721L349.66,261.721z M349.66,282.933h55.855v20.505H349.66
	V282.933L349.66,282.933z M349.66,304.143h55.855v20.507H349.66V304.143L349.66,304.143z M349.66,325.354h55.855v20.505H349.66
	V325.354L349.66,325.354z M349.66,346.564h55.855v20.506H349.66V346.564L349.66,346.564z M349.66,367.774h55.855v20.505H349.66
	V367.774L349.66,367.774z M349.66,388.984h55.855v20.508H349.66V388.984L349.66,388.984z M349.66,430.699v-20.504h55.855v20.504
	H349.66z M406.225,431.406h55.854v20.506h-55.854V431.406z M406.225,473.122v-20.506h55.854v20.506H406.225L406.225,473.122z
	 M518.642,473.122h-55.855v-20.506h55.855V473.122L518.642,473.122z M518.642,451.912h-55.855v-20.506h55.855V451.912
	L518.642,451.912z M575.204,430.699h-55.856v-20.504h55.856V430.699L575.204,430.699z M575.204,409.492h-55.856v-20.508h55.856
	V409.492L575.204,409.492z M575.204,388.279h-55.856v-20.505h55.856V388.279L575.204,388.279z M575.204,367.07h-55.856v-20.506
	h55.856V367.07L575.204,367.07z M575.204,345.859h-55.856v-20.505h55.856V345.859L575.204,345.859z M575.204,324.65h-55.856v-20.507
	h55.856V324.65L575.204,324.65z M575.204,303.438h-55.856v-20.505h55.856V303.438L575.204,303.438z M575.204,282.229h-55.856
	v-20.507h55.856V282.229L575.204,282.229z M575.204,261.017h-55.856v-20.505h55.856V261.017L575.204,261.017z M575.204,239.808
	h-55.856v-20.508h55.856V239.808L575.204,239.808z"/>
<g>
	<rect x="263.833" y="333.787" fill="#56BFCE" width="14.646" height="16.348"/>
	<rect x="270.42" y="324.512" fill="#56BFCE" width="1.464" height="25.625"/>
	<rect x="283.969" y="320.123" fill="#56BFCE" width="14.64" height="13.542"/>
	<rect x="290.557" y="317.561" fill="#56BFCE" width="1.463" height="22.813"/>
</g>
<g>
	<rect x="304.104" y="338.424" fill="#ED6D43" width="14.644" height="8.789"/>
	<rect x="310.691" y="329.149" fill="#ED6D43" width="1.467" height="34.657"/>
	<rect x="324.238" y="343.06" fill="#ED6D43" width="14.646" height="18.058"/>
	<rect x="330.824" y="340.373" fill="#ED6D43" width="1.467" height="24.621"/>
	<rect x="344.37" y="344.77" fill="#ED6D43" width="14.645" height="2.682"/>
	<rect x="350.956" y="343.06" fill="#ED6D43" width="1.472" height="7.204"/>
	<rect x="364.504" y="347.697" fill="#ED6D43" width="14.643" height="40.879"/>
	<rect x="371.09" y="344.77" fill="#ED6D43" width="1.469" height="68.701"/>
	<rect x="384.636" y="386.262" fill="#ED6D43" width="14.646" height="6.221"/>
	<rect x="391.223" y="384.545" fill="#ED6D43" width="1.471" height="24.525"/>
</g>
<g>
	<rect x="404.77" y="378.634" fill="#56BFCE" width="14.644" height="17.391"/>
	<rect x="411.363" y="369.359" fill="#56BFCE" width="1.465" height="32.281"/>
	<rect x="424.909" y="310.851" fill="#56BFCE" width="14.645" height="78.58"/>
	<rect x="431.496" y="290.406" fill="#56BFCE" width="1.466" height="99.482"/>
	<rect x="445.044" y="300.597" fill="#56BFCE" width="14.641" height="39.539"/>
	<rect x="451.637" y="296.084" fill="#56BFCE" width="1.463" height="50.766"/>
</g>
<g>
	<rect x="465.184" y="305.35" fill="#ED6D43" width="14.641" height="20.01"/>
	<rect x="471.763" y="305.35" fill="#ED6D43" width="1.462" height="36.614"/>
	<rect x="485.309" y="310.842" fill="#ED6D43" width="14.645" height="25.632"/>
	<rect x="491.902" y="308.411" fill="#ED6D43" width="1.467" height="31.738"/>
</g>
<g>
	<rect x="505.448" y="281.56" fill="#56BFCE" width="14.645" height="44.904"/>
	<rect x="512.035" y="272.286" fill="#56BFCE" width="1.466" height="60.525"/>
	<rect x="525.581" y="271.066" fill="#56BFCE" width="14.646" height="16.72"/>
	<rect x="532.166" y="261.792" fill="#56BFCE" width="1.472" height="42.587"/>
	<rect x="545.714" y="268.744" fill="#56BFCE" width="14.643" height="9.151"/>
	<rect x="552.301" y="264.72" fill="#56BFCE" width="1.47" height="15.987"/>
	<rect x="565.847" y="251.049" fill="#56BFCE" width="14.645" height="32.949"/>
	<rect x="572.44" y="236.533" fill="#56BFCE" width="1.471" height="52.35"/>
</g>
<g>
	<rect x="585.987" y="260.571" fill="#ED6D43" width="14.642" height="12.692"/>
	<rect x="592.573" y="254.716" fill="#ED6D43" width="1.465" height="35.146"/>
	<rect x="606.119" y="287.051" fill="#ED6D43" width="14.643" height="6.223"/>
	<rect x="612.704" y="284.729" fill="#ED6D43" width="1.467" height="13.791"/>
</g>
<g>
	<rect x="626.253" y="280.457" fill="#56BFCE" width="14.64" height="32.948"/>
	<rect x="632.847" y="277.893" fill="#56BFCE" width="1.463" height="40.638"/>
	<rect x="646.385" y="255.936" fill="#56BFCE" width="14.646" height="31.479"/>
	<rect x="652.979" y="249.466" fill="#56BFCE" width="1.464" height="54.541"/>
</g>
<path fill="#FFFFFF" d="M393.848,390.744c-0.44-0.098-0.876-0.215-1.312-0.349c-2.222-0.703-4.181-1.712-5.996-3.093l0.643-0.842
	c1.709,1.311,3.563,2.268,5.669,2.93c0.406,0.126,0.818,0.23,1.226,0.326L393.848,390.744z M401.935,390.648l-0.221-1.03
	c2.407-0.513,4.909-1.458,7.239-2.743l0.512,0.933C407.045,389.128,404.444,390.113,401.935,390.648z M415.842,382.906l-0.757-0.731
	c1.806-1.858,3.311-3.894,4.604-6.23l0.921,0.514C419.275,378.877,417.715,380.984,415.842,382.906z M381.012,381.485
	c-0.692-0.905-1.375-1.843-2.064-2.8c-0.845-1.164-1.712-2.361-2.645-3.562l0.832-0.647c0.939,1.214,1.813,2.416,2.668,3.59
	c0.684,0.951,1.36,1.881,2.047,2.781L381.012,381.485z M371.035,369.349c-1.959-1.776-4.01-3.284-6.28-4.615l0.54-0.913
	c2.327,1.371,4.438,2.924,6.445,4.742L371.035,369.349z M423.742,369.094l-0.999-0.333c0.671-2.012,1.252-4.044,1.869-6.193
	l0.393-1.375l1.021,0.291l-0.396,1.373C425.008,365.021,424.426,367.064,423.742,369.094z M357.687,361.42
	c-2.496-0.938-5.071-1.713-7.488-2.426l0.29-1.012c2.442,0.717,5.038,1.494,7.568,2.444L357.687,361.42z M342.606,356.664
	c-2.803-0.948-5.149-1.908-7.388-3.016l0.472-0.949c2.193,1.09,4.501,2.032,7.257,2.971L342.606,356.664z M428.422,353.984
	l-0.99-0.365c0.986-2.664,2.059-5.045,3.282-7.277l0.921,0.511C430.441,349.037,429.385,351.373,428.422,353.984z M328.346,349.584
	c-2.063-1.402-4.133-2.982-6.33-4.83l0.676-0.809c2.174,1.82,4.217,3.379,6.249,4.768L328.346,349.584z M270.866,342.246
	l-0.895-0.56c0.074-0.126,1.903-3.038,4.955-6.329l0.771,0.719C272.725,339.291,270.888,342.212,270.866,342.246z M435.928,340.299
	l-0.84-0.641c1.584-2.073,3.352-4.096,5.257-6.005l0.747,0.745C439.217,336.277,437.479,338.259,435.928,340.299z M316.059,339.51
	c-2.01-1.813-3.98-3.563-5.979-5.13l0.651-0.827c2.024,1.585,4.008,3.353,6.033,5.178L316.059,339.51z M281.543,330.907
	l-0.604-0.863c2.479-1.718,4.947-2.852,7.352-3.357l0.22,1.028C286.246,328.201,283.9,329.273,281.543,330.907z M303.526,330.17
	c-2.374-1.164-4.779-1.938-7.352-2.364l0.167-1.039c2.68,0.441,5.181,1.246,7.646,2.461L303.526,330.17z M446.956,329.166
	l-0.654-0.828c2.04-1.614,4.229-3.169,6.501-4.604l0.565,0.894C451.128,326.045,448.966,327.572,446.956,329.166z M460.221,320.758
	l-0.475-0.939c2.42-1.213,4.874-2.291,7.3-3.205l0.376,0.992C465.024,318.506,462.6,319.565,460.221,320.758z M474.916,315.249
	l-0.26-1.023c2.502-0.652,4.898-1.2,7.729-1.813l0.223,1.028C479.79,314.054,477.405,314.603,474.916,315.249z M490.34,311.725
	l-0.242-1.025c2.869-0.681,5.281-1.334,7.604-2.059l0.32,1.004C495.669,310.382,493.231,311.04,490.34,311.725z M505.494,306.94
	l-0.4-0.978c2.35-0.979,4.745-2.1,7.122-3.335l0.485,0.936C510.303,304.816,507.878,305.951,505.494,306.94z M519.523,299.424
	l-0.603-0.864c1.853-1.299,3.776-2.778,6.236-4.799l0.672,0.813C523.345,296.61,521.399,298.109,519.523,299.424z M631.752,293.881
	c-1.899,0-3.697-0.249-5.494-0.764l0.292-1.019c2.248,0.646,4.493,0.859,6.977,0.647c0.216-0.019,0.423-0.044,0.63-0.07l0.157,1.04
	c-0.231,0.038-0.463,0.062-0.696,0.082C632.984,293.855,632.363,293.881,631.752,293.881z M641.652,290.301l-0.655-0.826
	c1.807-1.433,3.603-3.335,5.332-5.65l0.847,0.635C645.389,286.844,643.53,288.81,641.652,290.301z M619.049,289.547
	c-1.86-1.297-3.75-2.877-6.124-5.131l0.729-0.77c2.337,2.217,4.186,3.768,5.998,5.035L619.049,289.547z M531.899,289.479
	l-0.684-0.808c1.873-1.572,3.91-3.271,6.131-5.034l0.656,0.825C535.793,286.216,533.762,287.909,531.899,289.479z M544.297,279.702
	l-0.62-0.853c2.163-1.549,4.376-3.046,6.59-4.438l0.565,0.891C548.637,276.687,546.438,278.171,544.297,279.702z M607.268,278.862
	c-1.653-1.61-3.639-3.496-5.819-5.3l0.67-0.817c2.214,1.828,4.219,3.735,5.884,5.357L607.268,278.862z M651.443,277.691
	l-0.927-0.501c1.727-3.213,2.688-5.684,2.7-5.706l0.982,0.379C654.164,271.965,653.21,274.416,651.443,277.691z M557.651,271.371
	l-0.481-0.942c2.425-1.226,4.888-2.289,7.326-3.17l0.356,0.998C562.451,269.114,560.027,270.163,557.651,271.371z M595.043,269.058
	c-0.643-0.37-1.3-0.728-1.976-1.061c-1.592-0.795-3.337-1.423-5.184-1.871l0.242-1.025c1.929,0.463,3.75,1.121,5.41,1.95
	c0.692,0.344,1.372,0.713,2.032,1.095L595.043,269.058z M572.394,266.147l-0.207-1.035c2.72-0.538,5.397-0.831,7.962-0.861
	l0.007,1.056C577.659,265.335,575.049,265.618,572.394,266.147z"/>
<g>
	<path d="M174.768,102.163c-4.347-2.56-7.787-6.04-10.32-10.439c-2.533-4.4-3.8-9.212-3.8-14.44c0-5.172,1.267-9.96,3.8-14.36
		c2.533-4.399,5.974-7.893,10.32-10.479c4.346-2.586,9.08-3.88,14.2-3.88c4,0,7.813,0.8,11.44,2.399
		c3.626,1.601,6.771,3.895,9.439,6.88c0.32,0.32,0.48,0.668,0.48,1.04c0,0.32-0.188,0.667-0.561,1.04
		c-1.12,0.907-2.24,1.854-3.359,2.841c-1.12,0.986-1.895,1.667-2.32,2.04c-0.32,0.319-0.694,0.479-1.12,0.479
		c-0.374,0-0.72-0.16-1.04-0.479c-1.708-1.866-3.68-3.292-5.92-4.28c-2.24-0.986-4.587-1.48-7.04-1.48c-3.2,0-6.174,0.828-8.92,2.48
		c-2.748,1.652-4.92,3.867-6.521,6.64c-1.6,2.774-2.399,5.814-2.399,9.12c0,3.308,0.8,6.348,2.399,9.12
		c1.601,2.773,3.772,4.987,6.521,6.64c2.746,1.654,5.72,2.48,8.92,2.48c2.292,0,4.506-0.453,6.64-1.36
		c2.133-0.906,4.053-2.212,5.761-3.92c0.532-0.426,1.119-0.64,1.76-0.64c0.532,0,0.96,0.16,1.28,0.479
		c0.532,0.429,1.279,1.055,2.239,1.88c0.96,0.827,1.786,1.561,2.48,2.2c0.586,0.48,0.88,1.067,0.88,1.76
		c0,0.428-0.16,0.801-0.48,1.12c-2.667,2.88-5.773,5.095-9.319,6.641c-3.547,1.547-7.293,2.319-11.24,2.319
		C183.848,106.003,179.114,104.723,174.768,102.163z"/>
	<path d="M222.688,104.923c-0.294-0.292-0.439-0.626-0.439-1V50.723c0-0.373,0.146-0.706,0.439-1c0.292-0.292,0.652-0.44,1.08-0.44
		h16.8c3.307,0,6.36,0.788,9.16,2.36c2.8,1.573,5.013,3.72,6.641,6.439c1.626,2.721,2.439,5.708,2.439,8.96
		c0,2.774-0.64,5.36-1.92,7.761c-1.28,2.399-3.014,4.479-5.2,6.239c-0.319,0.269-0.479,0.614-0.479,1.04
		c0,0.16,0.025,0.294,0.08,0.4c0.053,0.106,0.08,0.188,0.08,0.24l9.279,20.72c0.16,0.374,0.24,0.72,0.24,1.04
		c0,0.587-0.347,0.88-1.04,0.88h-7.04c-0.587,0-1.027-0.054-1.32-0.16c-0.294-0.105-0.547-0.373-0.76-0.8l-8.399-18.72
		c-0.107-0.32-0.308-0.532-0.601-0.641c-0.294-0.105-0.813-0.186-1.56-0.239h-6.4c-0.8,0-1.347,0.106-1.64,0.319
		c-0.294,0.214-0.44,0.614-0.44,1.2v17.6c0,0.374-0.146,0.708-0.439,1c-0.294,0.293-0.654,0.44-1.08,0.44h-6.4
		C223.34,105.363,222.98,105.217,222.688,104.923z M240.567,74.483c2.08,0,3.866-0.733,5.36-2.2c1.493-1.466,2.24-3.212,2.24-5.24
		c0-2.08-0.748-3.84-2.24-5.279c-1.494-1.44-3.28-2.16-5.36-2.16h-7.439c-0.96,0-1.44,0.534-1.44,1.6v12
		c0,0.374,0.106,0.68,0.32,0.92c0.212,0.24,0.506,0.36,0.88,0.36H240.567z"/>
	<path d="M275.646,104.844c-0.294-0.293-0.439-0.627-0.439-1v-53.12c0-0.427,0.16-0.786,0.479-1.08c0.32-0.292,0.667-0.44,1.04-0.44
		h8.32c0.373,0,0.706,0.147,1,0.44c0.292,0.294,0.439,0.653,0.439,1.08v53.12c0,0.373-0.134,0.707-0.399,1
		c-0.269,0.293-0.614,0.439-1.04,0.439h-8.32C276.299,105.283,275.939,105.137,275.646,104.844z"/>
	<path d="M303.245,104.844c-0.293-0.293-0.439-0.627-0.439-1v-53.04c0-0.427,0.146-0.772,0.439-1.04c0.293-0.267,0.626-0.4,1-0.4
		h18.641c3.2,0,6.16,0.788,8.88,2.36c2.72,1.573,4.867,3.72,6.439,6.439s2.36,5.68,2.36,8.88c0,3.254-0.788,6.229-2.36,8.92
		c-1.573,2.693-3.708,4.827-6.399,6.4c-2.693,1.574-5.667,2.36-8.92,2.36h-8c-0.641,0-1.134,0.12-1.48,0.359
		c-0.348,0.24-0.52,0.654-0.52,1.24v17.521c0,0.373-0.134,0.707-0.4,1c-0.268,0.293-0.614,0.439-1.04,0.439h-7.2
		C303.871,105.283,303.538,105.137,303.245,104.844z M322.886,74.483c2.025,0,3.771-0.72,5.239-2.16c1.467-1.44,2.2-3.2,2.2-5.28
		c0-2.025-0.732-3.76-2.2-5.2c-1.468-1.439-3.214-2.159-5.239-2.159h-8.08c-1.28,0-1.92,0.533-1.92,1.6v13.2H322.886z"/>
	<path d="M365.166,104.963c-0.188-0.213-0.279-0.452-0.279-0.72v-43.36c0-0.479-0.2-0.92-0.601-1.319
		c-0.399-0.4-0.867-0.601-1.399-0.601h-13.44c-0.213,0-0.427-0.105-0.64-0.319c-0.214-0.212-0.32-0.427-0.32-0.641v-7.76
		c0-0.266,0.093-0.479,0.28-0.64c0.186-0.16,0.412-0.24,0.68-0.24h42.24c0.32,0,0.586,0.107,0.8,0.32
		c0.212,0.214,0.32,0.454,0.32,0.72v7.52c0,0.269-0.108,0.508-0.32,0.721c-0.214,0.214-0.479,0.319-0.8,0.319h-13.28
		c-0.534,0-0.986,0.188-1.359,0.561c-0.374,0.374-0.561,0.827-0.561,1.359v43.36c0,0.269-0.094,0.507-0.28,0.72
		c-0.188,0.213-0.439,0.32-0.76,0.32h-9.52C365.606,105.283,365.353,105.177,365.166,104.963z"/>
	<path d="M406.365,96.523c-2.64-2.96-4.574-6.253-5.8-9.88l-0.16-0.4c-0.96-2.88-1.439-5.866-1.439-8.96
		c0-3.306,0.56-6.56,1.68-9.76s2.8-6.106,5.04-8.72c2.933-3.146,5.906-5.561,8.92-7.24c3.012-1.681,6.813-2.652,11.4-2.92h0.239
		c4.48-0.267,8.854,0.534,13.12,2.399c2.667,1.174,5.24,2.895,7.721,5.16c2.479,2.269,4.278,4.521,5.399,6.76
		c2.506,4.374,3.76,9.12,3.76,14.24c0,2.988-0.454,5.908-1.359,8.76c-0.907,2.854-2.239,5.508-4,7.96
		c-1.333,1.867-2.788,3.508-4.36,4.921c-1.574,1.413-3.508,2.733-5.8,3.96c-4.107,2.079-8.534,3.119-13.28,3.119
		c-4.054,0-7.92-0.8-11.6-2.399C412.165,101.817,409.006,99.483,406.365,96.523z M441.205,89.443c1.44-1.653,2.48-3.228,3.12-4.72
		c1.066-2.453,1.601-4.96,1.601-7.521c0-3.52-0.96-6.813-2.88-9.88c-1.921-3.066-4.561-5.346-7.921-6.84
		c-2.453-1.066-4.987-1.601-7.6-1.601c-2.348,0-4.6,0.428-6.76,1.28c-2.16,0.854-4.094,2.107-5.8,3.76l-1.36,1.44
		c-1.44,1.76-2.52,3.654-3.24,5.68c-0.72,2.028-1.08,4.108-1.08,6.24c0,2.667,0.561,5.24,1.681,7.72
		c1.12,2.48,2.746,4.574,4.88,6.28c3.466,2.88,7.413,4.32,11.84,4.32c2.933,0,5.68-0.641,8.24-1.92
		C438.006,92.511,439.766,91.097,441.205,89.443z"/>
	<path d="M504.646,50.323c0,0.268-0.027,0.48-0.08,0.64l-14.56,53.28c-0.107,0.428-0.294,0.708-0.562,0.84
		c-0.268,0.134-0.668,0.2-1.199,0.2h-9.841c-0.534,0-0.947-0.066-1.239-0.2c-0.295-0.132-0.493-0.412-0.601-0.84l-14.479-53.28
		c-0.056-0.159-0.08-0.399-0.08-0.72c0-0.692,0.346-1.04,1.039-1.04h7.28c0.586,0,1.025,0.067,1.319,0.2
		c0.292,0.134,0.493,0.414,0.601,0.84c1.013,3.788,2.691,9.974,5.039,18.561s4.134,15.228,5.36,19.92
		c0.267,0.96,0.479,1.439,0.64,1.439c0.213,0,0.428-0.479,0.642-1.439c1.227-4.692,3.012-11.333,5.358-19.92
		c2.348-8.587,4.026-14.772,5.041-18.561c0.159-0.426,0.387-0.706,0.681-0.84c0.292-0.133,0.706-0.2,1.239-0.2h7.359
		C504.298,49.203,504.646,49.577,504.646,50.323z"/>
	<path d="M508.646,105.043c-0.16-0.212-0.214-0.452-0.16-0.72l14.16-53.84c0.106-0.32,0.306-0.601,0.601-0.84
		c0.292-0.24,0.625-0.36,1-0.36h16.64c0.319,0,0.641,0.107,0.961,0.32c0.319,0.214,0.532,0.479,0.64,0.8l14.16,53.84v0.24
		c0,0.587-0.268,0.88-0.8,0.88h-7.84c-0.32,0-0.654-0.12-1-0.36c-0.349-0.239-0.548-0.52-0.602-0.84l-3.92-14.88
		c-0.106-0.479-0.374-0.88-0.8-1.2c-0.428-0.319-0.881-0.479-1.36-0.479h-15.521c-0.479,0-0.935,0.16-1.359,0.479
		c-0.428,0.32-0.692,0.721-0.8,1.2l-3.92,14.8c-0.054,0.374-0.254,0.681-0.601,0.92c-0.349,0.24-0.681,0.36-1,0.36h-7.841
		C509.018,105.363,508.805,105.257,508.646,105.043z M537.846,79.043c0.532,0,0.945-0.186,1.24-0.56
		c0.292-0.373,0.386-0.8,0.278-1.28l-4.479-16.479c-0.053-0.427-0.293-0.801-0.719-1.12c-0.429-0.32-0.882-0.48-1.361-0.48h-0.479
		c-0.479,0-0.934,0.16-1.359,0.48c-0.428,0.319-0.667,0.693-0.72,1.12l-4.399,16.479l-0.08,0.4c0,0.428,0.133,0.773,0.399,1.04
		c0.267,0.268,0.64,0.399,1.119,0.399H537.846z"/>
	<path d="M568.525,104.803c-0.348-0.32-0.52-0.721-0.52-1.2V50.883c0-0.426,0.172-0.813,0.52-1.159
		c0.346-0.347,0.732-0.521,1.16-0.521h8.24c0.479,0,0.88,0.174,1.198,0.521c0.32,0.348,0.48,0.733,0.48,1.159v42.16
		c0,0.429,0.16,0.814,0.479,1.16c0.319,0.348,0.691,0.521,1.119,0.521h19.36c0.479,0,0.88,0.159,1.2,0.479
		c0.319,0.32,0.479,0.694,0.479,1.12v7.28c0,0.479-0.16,0.88-0.479,1.2c-0.32,0.319-0.722,0.479-1.2,0.479h-30.88
		C569.258,105.283,568.87,105.123,568.525,104.803z"/>
	<path d="M622.645,103.283c-3.039-1.76-5.467-4.146-7.279-7.16c-1.813-3.012-2.721-6.306-2.721-9.88V50.803
		c0-0.427,0.146-0.786,0.44-1.08c0.292-0.292,0.626-0.44,1-0.44h7.681c0.372,0,0.705,0.147,1,0.44
		c0.292,0.294,0.439,0.653,0.439,1.08v35.439c0,2.614,0.905,4.84,2.721,6.68c1.813,1.841,4.024,2.761,6.639,2.761
		c1.973,0,3.827-0.427,5.562-1.28c1.731-0.854,3.105-2,4.119-3.44c1.014-1.439,1.521-3.013,1.521-4.72V50.803
		c0-0.427,0.146-0.786,0.438-1.08c0.294-0.292,0.628-0.44,1-0.44h7.681c0.373,0,0.707,0.147,1,0.44
		c0.293,0.294,0.439,0.653,0.439,1.08v35.439c0,3.627-0.934,6.935-2.8,9.92c-1.867,2.988-4.454,5.36-7.76,7.12
		c-3.309,1.76-7.041,2.64-11.201,2.64C628.99,105.923,625.686,105.043,622.645,103.283z"/>
	<path d="M683.806,104.963c-0.188-0.213-0.28-0.452-0.28-0.72v-43.36c0-0.479-0.2-0.92-0.6-1.319c-0.4-0.4-0.868-0.601-1.4-0.601
		h-13.438c-0.215,0-0.429-0.105-0.642-0.319c-0.213-0.212-0.32-0.427-0.32-0.641v-7.76c0-0.266,0.095-0.479,0.281-0.64
		s0.412-0.24,0.681-0.24h42.238c0.32,0,0.587,0.107,0.802,0.32c0.212,0.214,0.318,0.454,0.318,0.72v7.52
		c0,0.269-0.106,0.508-0.318,0.721c-0.215,0.214-0.48,0.319-0.802,0.319h-13.278c-0.534,0-0.988,0.188-1.36,0.561
		c-0.374,0.374-0.56,0.827-0.56,1.359v43.36c0,0.269-0.095,0.507-0.28,0.72c-0.188,0.213-0.44,0.32-0.76,0.32h-9.521
		C684.244,105.283,683.991,105.177,683.806,104.963z"/>
	<path d="M724.685,104.603c-0.294-0.292-0.439-0.626-0.439-1V50.883c0-0.426,0.146-0.771,0.439-1.04
		c0.293-0.266,0.626-0.399,1-0.399h35.84c0.427,0,0.772,0.134,1.04,0.399c0.268,0.269,0.4,0.614,0.4,1.04v6.721
		c0,0.374-0.135,0.708-0.4,1c-0.268,0.294-0.613,0.439-1.04,0.439h-25.84c-0.374,0-0.707,0.135-1,0.4
		c-0.294,0.268-0.439,0.614-0.439,1.04v11.76v0.24c0,0.479,0.105,0.813,0.319,1c0.213,0.188,0.721,0.28,1.521,0.28h20
		c0.371,0,0.691,0.119,0.96,0.359c0.266,0.24,0.398,0.548,0.398,0.92v6.8c0,0.374-0.134,0.681-0.398,0.921
		c-0.269,0.239-0.589,0.359-0.96,0.359h-20.08c-0.694,0-1.16,0.2-1.4,0.601c-0.24,0.399-0.359,0.813-0.359,1.239v8.48
		c0,0.534,0.146,0.987,0.439,1.36c0.293,0.374,0.893,0.56,1.8,0.56h25.601c0.372,0,0.706,0.147,1,0.44
		c0.293,0.294,0.439,0.653,0.439,1.079v6.721c0,0.374-0.134,0.708-0.398,1c-0.269,0.294-0.614,0.439-1.04,0.439h-36.4
		C725.311,105.043,724.978,104.897,724.685,104.603z"/>
</g>
</svg>
