<?xml version="1.0" encoding="utf-8"?>
<!-- Generator: Adobe Illustrator 16.0.0, SVG Export Plug-In . SVG Version: 6.00 Build 0)  -->
<!DOCTYPE svg PUBLIC "-//W3C//DTD SVG 1.1//EN" "http://www.w3.org/Graphics/SVG/1.1/DTD/svg11.dtd">
<svg version="1.1" id="Livello_1" xmlns="http://www.w3.org/2000/svg" xmlns:xlink="http://www.w3.org/1999/xlink" x="0px" y="0px"
	 width="1200px" height="684px" viewBox="0 0 1200 684" enable-background="new 0 0 1200 684" xml:space="preserve">
<rect x="1.398" y="0.303" fill="#F9F9F9" width="1200" height="684"/>
<rect x="651.782" y="258.927" display="none" fill="#2C3E50" width="58.343" height="6.646"/>
<g>
	<path d="M232.739,339.8c0-17.423,13.904-31.591,31.063-31.591c9.152,0,17.336,3.96,22.968,10.208
		c0.528,0.616,0.528,1.32-0.088,1.848l-6.335,5.456c-0.264,0.264-1.144,0.792-1.848,0c-3.696-3.959-8.888-6.512-14.696-6.512
		c-11.087,0-20.151,9.24-20.151,20.591c0,11.352,9.064,20.592,20.151,20.592c5.456,0,10.384-2.201,14.08-5.896
		c1.232-1.057,2.552-0.616,2.904-0.264c0.352,0.352,4.312,3.695,5.192,4.576c0.968,0.791,1.144,2.023,0.44,2.727
		c-5.632,6.072-13.64,9.856-22.616,9.856C246.642,371.391,232.739,357.312,232.739,339.8z"/>
	<path d="M300.146,350.095l-0.176-0.439c-3.256-9.944-1.496-21.471,5.808-30.183c5.632-5.984,11.439-10.56,22.351-11.176h0.264
		c4.928-0.264,9.768,0.616,14.432,2.64c5.896,2.64,11.968,8.271,14.432,13.111c6.16,10.824,5.456,24.023-1.76,34.055
		c-2.728,3.873-5.896,6.952-11.175,9.768c-8.272,4.137-18.216,4.752-27.367,0.793C308.77,364.88,302.786,358.015,300.146,350.095z
		 M348.281,347.984c4.488-10.208,0-22.087-10.12-26.663c-7.567-3.344-16.367-1.848-22.175,3.784l-1.496,1.584
		c-7.127,8.711-6.072,21.471,2.464,28.511c6.248,5.28,14.959,6.247,22.087,2.64C343.969,355.023,347.049,350.888,348.281,347.984z"
		/>
	<path d="M374.504,369.015v-58.342c0-0.88,0.704-1.584,1.496-1.584h8.624c0.528,0,1.056,0.352,1.32,0.88l13.375,22.175
		c0,0,0.528,0.88,1.496,0.88h0.176c0.968,0,1.32-0.968,1.32-0.968l13.288-21.999c0.352-0.528,0.704-0.968,1.408-0.968h8.712
		c0.792,0,1.496,0.704,1.496,1.584v58.342c0,0.88-0.704,1.584-1.496,1.584h-8.624c-0.968,0-1.584-0.704-1.584-1.584V334.08
		c0-1.056-0.44-1.232-1.144-0.176l-9.24,13.111c-0.968,1.408-1.408,1.849-3.344,1.849h-1.496c-2.288,0-2.728-0.265-3.52-1.408
		l-9.504-13.463c-0.704-1.056-1.144-1.056-1.144,0v35.023c0,0.88-0.704,1.584-1.584,1.584H376
		C375.208,370.599,374.504,369.895,374.504,369.015z"/>
	<path d="M444.287,369.015v-58.43c0-0.88,0.792-1.672,1.672-1.672h9.152c0.88,0,1.584,0.792,1.584,1.672v58.43
		c0,0.88-0.704,1.584-1.584,1.584h-9.152C445.079,370.599,444.287,369.895,444.287,369.015z"/>
	<path d="M474.47,369.191v-58.87c0-0.704,0.616-1.232,1.32-1.232h8.976c0.528,0,0.704,0.176,0.968,0.616l20.855,35.287
		c1.32,2.376,2.288,2.288,2.288-0.176l-0.176-34.495c0-0.704,0.616-1.232,1.32-1.232h9.24c0.704,0,1.32,0.528,1.32,1.232v58.87
		c0,0.704-0.616,1.232-1.32,1.232h-6.248c-1.936,0-2.552-0.088-3.52-1.672l-22.175-35.287c-0.792-1.232-1.672-0.968-1.672,0.44
		l0.176,35.287c0,0.704-0.616,1.232-1.232,1.232h-8.8C475.086,370.424,474.47,369.895,474.47,369.191z"/>
	<path d="M533.077,339.8c0-17.688,14.255-31.943,31.943-31.943c1.408,0,2.64,0.088,3.96,0.264c1.056,0.088,1.672,1.056,1.496,2.112
		l-1.408,7.656c-0.176,1.056-1.056,1.496-2.024,1.408c-0.704-0.088-1.32-0.088-2.024-0.088c-11.352,0-20.591,9.24-20.591,20.591
		c0,11.352,9.24,20.592,20.591,20.592c8.8,0,15.4-5.545,18.392-13.377H572.06c-0.968,0-1.76-0.791-1.76-1.76v-6.423
		c0-0.968,0.792-1.76,1.76-1.76h18.744c2.816,0,4.399,0.968,4.399,2.728c0,17.688-12.496,31.944-30.183,31.944
		S533.077,357.488,533.077,339.8z"/>
	<path d="M644.925,363.296c-1.232-1.319-0.353-3.08,2.552-7.216c0.704-0.88,1.408-1.057,2.288-0.704
		c9.415,4.84,14.695,4.84,19.007,4.84c8.536,0,12.232-4.487,7.832-10.12c-2.2-2.903-9.239-4.223-12.231-5.191
		c-9.24-2.728-14.607-6.424-16.367-12.496c-3.696-11.352,3.871-21.56,18.831-23.143c5.104-0.44,10.912,0.528,15.575,2.464
		c4.576,2.288,6.601,4.312,6.072,5.808c-0.704,1.672-2.816,4.224-4.048,5.896c-1.056,1.32-4.4-1.496-8.448-2.376
		c-3.432-0.704-7.304-1.672-12.319,0.088c-5.28,2.552-6.336,7.128-2.288,10.208c4.224,2.992,9.592,4.84,12.848,5.984
		c3.256,1.232,8.448,2.992,11.088,6.248c2.376,2.289,4.136,6.952,4.136,10.648c0,9.768-8.271,15.928-20.063,16.104
		C659.796,370.511,648.62,366.639,644.925,363.296z"/>
	<path d="M701.156,350.095l-0.176-0.439c-3.256-9.944-1.496-21.471,5.808-30.183c5.632-5.984,11.44-10.56,22.352-11.176h0.265
		c4.928-0.264,9.768,0.616,14.431,2.64c5.896,2.64,11.968,8.271,14.432,13.111c6.16,10.824,5.456,24.023-1.76,34.055
		c-2.728,3.873-5.896,6.952-11.176,9.768c-8.271,4.137-18.215,4.752-27.367,0.793C709.78,364.88,703.796,358.015,701.156,350.095z
		 M749.29,347.984c4.488-10.208,0-22.087-10.119-26.663c-7.568-3.344-16.368-1.848-22.176,3.784l-1.496,1.584
		c-7.128,8.711-6.071,21.471,2.464,28.511c6.248,5.28,14.96,6.247,22.088,2.64C744.979,355.023,748.059,350.888,749.29,347.984z"/>
	<path d="M775.778,350.095l-0.176-0.439c-3.256-9.944-1.496-21.471,5.808-30.183c5.632-5.984,11.44-10.56,22.352-11.176h0.265
		c4.928-0.264,9.768,0.616,14.431,2.64c5.896,2.64,11.968,8.271,14.432,13.111c6.16,10.824,5.456,24.023-1.76,34.055
		c-2.728,3.873-5.896,6.952-11.176,9.768c-8.271,4.137-18.215,4.752-27.367,0.793C784.402,364.88,778.418,358.015,775.778,350.095z
		 M823.912,347.984c4.488-10.208,0-22.087-10.119-26.663c-7.568-3.344-16.368-1.848-22.176,3.784l-1.496,1.584
		c-7.128,8.711-6.071,21.471,2.464,28.511c6.248,5.28,14.96,6.247,22.088,2.64C819.601,355.023,822.681,350.888,823.912,347.984z"/>
	<path d="M848.201,369.191v-58.87c0-0.704,0.616-1.232,1.32-1.232h8.976c0.527,0,0.704,0.176,0.968,0.616l20.855,35.287
		c1.319,2.376,2.288,2.288,2.288-0.176l-0.177-34.495c0-0.704,0.616-1.232,1.32-1.232h9.24c0.703,0,1.319,0.528,1.319,1.232v58.87
		c0,0.704-0.616,1.232-1.319,1.232h-6.248c-1.937,0-2.552-0.088-3.521-1.672l-22.175-35.287c-0.792-1.232-1.672-0.968-1.672,0.44
		l0.176,35.287c0,0.704-0.616,1.232-1.232,1.232h-8.799C848.818,370.424,848.201,369.895,848.201,369.191z"/>
	<path d="M905.93,365.847c0-3.871,2.991-6.951,6.775-6.951s6.775,3.08,6.775,6.951c0,3.784-2.991,6.775-6.775,6.775
		S905.93,369.632,905.93,365.847z"/>
	<path d="M930.04,365.847c0-3.871,2.991-6.951,6.775-6.951s6.775,3.08,6.775,6.951c0,3.784-2.991,6.775-6.775,6.775
		S930.04,369.632,930.04,365.847z"/>
	<path d="M954.152,365.847c0-3.871,2.991-6.951,6.775-6.951s6.775,3.08,6.775,6.951c0,3.784-2.991,6.775-6.775,6.775
		S954.152,369.632,954.152,365.847z"/>
</g>
</svg>
