<?xml version="1.0" encoding="utf-8"?>
<!-- Generator: Adobe Illustrator 16.0.0, SVG Export Plug-In . SVG Version: 6.00 Build 0)  -->
<!DOCTYPE svg PUBLIC "-//W3C//DTD SVG 1.1//EN" "http://www.w3.org/Graphics/SVG/1.1/DTD/svg11.dtd">
<svg version="1.1" id="Livello_1" xmlns="http://www.w3.org/2000/svg" xmlns:xlink="http://www.w3.org/1999/xlink" x="0px" y="0px"
	 width="900px" height="650px" viewBox="0 0 900 650" enable-background="new 0 0 900 650" xml:space="preserve">
<rect x="0" y="0" fill="#BF1B42" width="900" height="650"/>
<path fill="#005C83" d="M462.178,155.582c93.563,0,169.417,75.851,169.417,169.418c0,93.564-75.854,169.417-169.417,169.417
	c-93.567,0-169.419-75.854-169.419-169.417C292.759,231.432,368.611,155.582,462.178,155.582z"/>
<path fill="#00263F" d="M475.803,493.877c87.191-6.949,155.792-79.9,155.792-168.876c0-1.763-0.039-3.517-0.094-5.265
	l-50.507-50.512l-23.831,4.385l-8.769-8.766l-46.616,18.401l24.135,24.129l-60.785,4.407l-42.558-42.556l-23.146,5.066l-9.448-9.447
	l-46.616,18.401l34.836,34.838l-42.848,3.106l58.188,58.19l-13.898,18.326L475.803,493.877z"/>
<path fill="#FFDC00" d="M544.716,397.705h-17.869c0-34.566-28.245-74.744-64.669-74.744c-36.422,0-64.671,40.178-64.671,74.744
	h-17.869c0-43.719,35.3-92.612,82.54-92.612C509.415,305.093,544.716,353.986,544.716,397.705z"/>
<path fill="#FFC000" d="M462.178,305.093c-0.073,0-0.146,0.003-0.223,0.003v17.868c0.076,0,0.149-0.006,0.223-0.006
	c36.424,0,64.669,40.18,64.669,74.746h17.869C544.716,353.986,509.415,305.093,462.178,305.093z"/>
<rect x="375.952" y="264.843" fill="#FFDC00" width="14.017" height="48.542"/>
<rect x="343.36" y="269.224" fill="#FF6838" width="79.209" height="14.018"/>
<rect x="534.378" y="264.843" fill="#FFC000" width="14.017" height="48.542"/>
<rect x="501.784" y="269.224" fill="#AE4E32" width="79.21" height="14.018"/>
<path fill="#FFFFFF" d="M589.003,299.574H335.348v21.614h42.776c9.276,0,17.526,5.898,20.522,14.679l0,0
	c2.996,8.781,11.245,14.686,20.52,14.686h86.016c9.277,0,17.529-5.904,20.526-14.686l0,0c2.992-8.78,11.244-14.679,20.516-14.679
	h42.779V299.574L589.003,299.574z"/>
<path fill="#E0E0E0" d="M461.955,299.574v50.979h43.231c9.272,0,17.524-5.904,20.521-14.686c2.992-8.78,11.244-14.679,20.521-14.679
	h42.773v-21.614H461.955z"/>
<g>
	<path d="M344.546,103.064c-0.448-0.447-0.671-0.988-0.671-1.62V50.726c0-0.474,0.158-0.881,0.474-1.224
		c0.316-0.342,0.711-0.514,1.185-0.514h15.8c4.95,0,9.52,1.225,13.707,3.673c4.187,2.449,7.505,5.781,9.954,9.994
		c2.449,4.214,3.673,8.796,3.673,13.746c0,4.951-1.225,9.52-3.673,13.707c-2.449,4.187-5.767,7.505-9.954,9.954
		c-4.187,2.449-8.757,3.673-13.707,3.673h-15.168C345.534,103.735,344.993,103.511,344.546,103.064z M361.334,93.544
		c3.107,0,5.977-0.763,8.611-2.291c2.633-1.527,4.727-3.607,6.281-6.241c1.553-2.633,2.331-5.503,2.331-8.611
		c0-3.107-0.778-5.977-2.331-8.611c-1.554-2.633-3.647-4.726-6.281-6.28c-2.634-1.553-5.504-2.331-8.611-2.331h-6.32
		c-0.264,0-0.488,0.093-0.671,0.276c-0.186,0.186-0.277,0.409-0.277,0.672v33.417H361.334z"/>
	<path d="M400.873,103.696c-0.29-0.289-0.435-0.619-0.435-0.987V50.173c0-0.368,0.145-0.697,0.435-0.988
		c0.289-0.289,0.644-0.434,1.066-0.434h16.59c3.265,0,6.281,0.777,9.045,2.33c2.765,1.554,4.95,3.674,6.557,6.36
		c1.606,2.686,2.41,5.636,2.41,8.848c0,2.739-0.632,5.293-1.896,7.663c-1.264,2.37-2.976,4.424-5.135,6.162
		c-0.316,0.264-0.474,0.606-0.474,1.027c0,0.158,0.026,0.29,0.079,0.395c0.052,0.106,0.079,0.185,0.079,0.237l9.164,20.461
		c0.158,0.369,0.237,0.711,0.237,1.027c0,0.58-0.343,0.869-1.027,0.869h-6.952c-0.58,0-1.015-0.053-1.303-0.158
		c-0.29-0.105-0.541-0.368-0.75-0.79l-8.295-18.486c-0.106-0.316-0.304-0.526-0.593-0.632c-0.29-0.105-0.804-0.184-1.541-0.237
		h-6.32c-0.79,0-1.331,0.106-1.62,0.316c-0.29,0.211-0.435,0.606-0.435,1.185v17.38c0,0.369-0.146,0.698-0.435,0.987
		c-0.29,0.29-0.646,0.435-1.066,0.435h-6.32C401.517,104.13,401.162,103.986,400.873,103.696z M418.53,73.636
		c2.054,0,3.818-0.723,5.293-2.172c1.474-1.448,2.212-3.172,2.212-5.175c0-2.054-0.738-3.792-2.212-5.214
		c-1.475-1.422-3.239-2.133-5.293-2.133h-7.347c-0.948,0-1.422,0.527-1.422,1.58v11.85c0,0.369,0.105,0.672,0.316,0.909
		c0.21,0.237,0.5,0.355,0.869,0.355H418.53z"/>
	<path d="M454.277,95.401c-2.606-2.923-4.516-6.174-5.727-9.757l-0.158-0.395c-0.948-2.844-1.422-5.793-1.422-8.848
		c0-3.265,0.553-6.478,1.658-9.638c1.106-3.16,2.766-6.03,4.978-8.611c2.896-3.107,5.831-5.491,8.808-7.149
		c2.975-1.659,6.729-2.62,11.258-2.884h0.238c4.424-0.263,8.74,0.527,12.955,2.37c2.633,1.159,5.174,2.857,7.623,5.096
		c2.449,2.239,4.227,4.463,5.332,6.675c2.477,4.319,3.715,9.006,3.715,14.062c0,2.95-0.449,5.833-1.344,8.65
		c-0.896,2.818-2.213,5.439-3.949,7.861c-1.318,1.844-2.754,3.463-4.307,4.858c-1.555,1.396-3.463,2.699-5.727,3.91
		c-4.057,2.054-8.428,3.081-13.115,3.081c-4.002,0-7.82-0.79-11.455-2.37C460.005,100.628,456.884,98.323,454.277,95.401z
		 M488.681,88.409c1.422-1.632,2.449-3.186,3.082-4.661c1.053-2.421,1.58-4.898,1.58-7.426c0-3.476-0.949-6.728-2.844-9.756
		c-1.896-3.028-4.504-5.28-7.822-6.755c-2.422-1.053-4.924-1.58-7.504-1.58c-2.318,0-4.543,0.422-6.676,1.264
		c-2.133,0.843-4.043,2.082-5.729,3.713l-1.342,1.422c-1.422,1.738-2.488,3.608-3.199,5.609c-0.712,2.002-1.067,4.056-1.067,6.162
		c0,2.634,0.554,5.174,1.659,7.624c1.105,2.449,2.711,4.517,4.818,6.201c3.424,2.844,7.32,4.266,11.693,4.266
		c2.895,0,5.607-0.632,8.137-1.896C485.521,91.438,487.259,90.042,488.681,88.409z"/>
	<path d="M513.921,103.577c-0.236-0.21-0.355-0.474-0.355-0.79V49.936c0-0.316,0.119-0.579,0.355-0.79
		c0.236-0.21,0.514-0.316,0.83-0.316h8.057c0.369,0,0.658,0.186,0.869,0.553l18.725,31.679c0.578,1.054,1.053,1.58,1.422,1.58
		c0.42,0,0.631-0.579,0.631-1.738l-0.158-30.968c0-0.316,0.119-0.579,0.355-0.79c0.238-0.21,0.514-0.316,0.83-0.316h8.295
		c0.316,0,0.592,0.106,0.83,0.316c0.236,0.211,0.355,0.474,0.355,0.79v52.851c0,0.316-0.119,0.58-0.355,0.79
		c-0.238,0.211-0.514,0.316-0.83,0.316h-5.609c-0.947,0-1.607-0.079-1.975-0.237c-0.369-0.158-0.764-0.579-1.186-1.264
		l-19.908-31.679c-0.314-0.474-0.605-0.711-0.869-0.711c-0.422,0-0.631,0.369-0.631,1.106l0.158,31.679
		c0,0.316-0.119,0.58-0.355,0.79c-0.238,0.211-0.488,0.316-0.75,0.316h-7.9C514.435,103.893,514.157,103.788,513.921,103.577z"/>
	<path d="M569.775,103.616c-0.291-0.289-0.434-0.618-0.434-0.987V50.173c0-0.421,0.156-0.776,0.473-1.066
		c0.316-0.289,0.658-0.435,1.027-0.435h8.217c0.367,0,0.697,0.146,0.986,0.435c0.289,0.29,0.436,0.646,0.436,1.066v52.456
		c0,0.369-0.133,0.699-0.396,0.987c-0.264,0.29-0.605,0.435-1.025,0.435h-8.217C570.419,104.051,570.064,103.906,569.775,103.616z"
		/>
</g>
</svg>
