<?xml version="1.0" encoding="utf-8"?>
<!-- Generator: Adobe Illustrator 16.0.0, SVG Export Plug-In . SVG Version: 6.00 Build 0)  -->
<!DOCTYPE svg PUBLIC "-//W3C//DTD SVG 1.1//EN" "http://www.w3.org/Graphics/SVG/1.1/DTD/svg11.dtd">
<svg version="1.1" id="Livello_1" xmlns="http://www.w3.org/2000/svg" xmlns:xlink="http://www.w3.org/1999/xlink" x="0px" y="0px"
	 width="900px" height="650px" viewBox="0 0 900 650" enable-background="new 0 0 900 650" xml:space="preserve">
<rect x="0" y="0" fill="#BF1B42" width="900" height="650"/>
<path fill="#005C83" d="M462.178,155.582c93.563,0,169.417,75.851,169.417,169.418c0,93.563-75.854,169.416-169.417,169.416
	c-93.567,0-169.419-75.854-169.419-169.416C292.759,231.432,368.611,155.582,462.178,155.582z"/>
<path fill="#00263F" d="M475.803,493.877c87.19-6.949,155.792-79.9,155.792-168.876c0-1.764-0.039-3.518-0.094-5.266l-50.508-50.512
	l-23.831,4.385l-8.769-8.766l-46.616,18.401l24.135,24.128l-60.784,4.407l-42.559-42.556l-23.146,5.066l-9.447-9.447l-46.616,18.401
	l34.836,34.838l-42.848,3.105l58.188,58.19l-13.897,18.325L475.803,493.877z"/>
<path fill="#FFDC00" d="M544.717,397.704h-17.869c0-34.565-28.245-74.743-64.669-74.743c-36.422,0-64.672,40.178-64.672,74.743
	h-17.868c0-43.719,35.3-92.611,82.54-92.611C509.416,305.093,544.717,353.986,544.717,397.704z"/>
<path fill="#FFC000" d="M462.178,305.093c-0.073,0-0.146,0.003-0.224,0.003v17.868c0.076,0,0.149-0.007,0.224-0.007
	c36.424,0,64.669,40.181,64.669,74.746h17.869C544.717,353.986,509.416,305.093,462.178,305.093z"/>
<rect x="375.952" y="264.843" fill="#FFDC00" width="14.018" height="48.542"/>
<rect x="343.36" y="269.224" fill="#FF6838" width="79.209" height="14.019"/>
<rect x="534.379" y="264.843" fill="#FFC000" width="14.017" height="48.542"/>
<rect x="501.784" y="269.224" fill="#AE4E32" width="79.21" height="14.019"/>
<path fill="#FFFFFF" d="M589.004,299.573H335.348v21.614h42.775c9.276,0,17.526,5.898,20.522,14.679l0,0
	c2.996,8.781,11.245,14.687,20.52,14.687h86.017c9.276,0,17.529-5.904,20.525-14.687l0,0c2.992-8.779,11.244-14.679,20.517-14.679
	h42.779V299.573L589.004,299.573z"/>
<path fill="#E0E0E0" d="M461.955,299.573v50.979h43.231c9.271,0,17.524-5.904,20.521-14.687
	c2.992-8.779,11.244-14.679,20.521-14.679h42.773v-21.614H461.955z"/>
</svg>
