<?xml version="1.0" encoding="utf-8"?>
<!-- Generator: Adobe Illustrator 16.0.0, SVG Export Plug-In . SVG Version: 6.00 Build 0)  -->
<!DOCTYPE svg PUBLIC "-//W3C//DTD SVG 1.1//EN" "http://www.w3.org/Graphics/SVG/1.1/DTD/svg11.dtd">
<svg version="1.1" id="Livello_1" xmlns="http://www.w3.org/2000/svg" xmlns:xlink="http://www.w3.org/1999/xlink" x="0px" y="0px"
	 width="900px" height="650px" viewBox="0 0 900 650" enable-background="new 0 0 900 650" xml:space="preserve">
<rect x="1.453" y="0" fill="#8D90CE" width="900" height="650"/>
<circle fill="#4A3ADD" cx="462.433" cy="325.36" r="170.626"/>
<path fill="#364A5E" d="M538.891,366.573c0,1.291-0.493,2.59-1.479,3.576c-0.989,0.998-2.28,1.48-3.581,1.48h-142.8
	c-1.293,0-2.591-0.482-3.587-1.48c-0.979-0.986-1.477-2.285-1.477-3.576v-91.259c0-1.298,0.496-2.589,1.477-3.581
	c0.996-0.979,2.294-1.475,3.587-1.475h142.801c1.301,0,2.592,0.497,3.581,1.475c0.984,0.992,1.479,2.281,1.479,3.581
	L538.891,366.573L538.891,366.573z"/>
<path fill="#293A4D" d="M464.147,274.23c0,0.955-0.771,1.728-1.713,1.728c-0.957,0-1.719-0.772-1.719-1.728
	c0-0.951,0.762-1.709,1.719-1.709C463.382,272.52,464.147,273.279,464.147,274.23z"/>
<path fill="#5E6E7E" d="M463.135,274.235c0,0.391-0.318,0.706-0.7,0.706c-0.393,0-0.702-0.315-0.702-0.706
	c0-0.384,0.314-0.69,0.702-0.69C462.818,273.543,463.135,273.851,463.135,274.235z"/>
<path fill="#CEE2F2" d="M556.235,374.594c-2.725,3.146-6.76,5.146-11.248,5.146H379.874c-4.481,0-8.519-2-11.242-5.146H556.235z"/>
<path fill="#F3F9FE" d="M556.231,374.61H368.631v-2.123c0-0.223,0.085-0.438,0.255-0.604c0.162-0.166,0.386-0.25,0.601-0.25h185.895
	c0.224,0,0.438,0.084,0.604,0.25c0.161,0.168,0.247,0.385,0.247,0.604L556.231,374.61L556.231,374.61z"/>
<path fill="#B8D1E6" d="M479.856,372.133c0,0.26-0.098,0.516-0.3,0.719c-0.193,0.188-0.446,0.283-0.706,0.283h-32.835
	c-0.261,0-0.52-0.099-0.705-0.283c-0.202-0.203-0.298-0.459-0.298-0.719v-0.502h34.844V372.133L479.856,372.133z"/>
<rect x="393.931" y="278.046" fill="#FFFFFF" width="136.993" height="85.618"/>
<rect x="399.629" y="282.841" fill="#F28D3A" width="37.896" height="11.364"/>
<g>
	<rect x="443.482" y="282.841" fill="#E1EFFA" width="82.649" height="11.364"/>
	<rect x="398.722" y="346.946" fill="#E1EFFA" width="127.402" height="3.744"/>
	<rect x="398.722" y="355.133" fill="#E1EFFA" width="127.402" height="3.739"/>
</g>
<g>
	<rect x="398.722" y="320.888" fill="#CFDC74" width="37.895" height="21.62"/>
	<rect x="443.482" y="320.888" fill="#CFDC74" width="37.896" height="21.62"/>
	<rect x="488.233" y="320.888" fill="#CFDC74" width="37.897" height="21.62"/>
</g>
<rect x="398.722" y="298.657" fill="#B8D1E6" width="127.402" height="17.789"/>
<path fill="#30455C" d="M485.267,371.633h-94.235c-1.299,0-2.595-0.494-3.585-1.48c-0.972-0.99-1.483-2.287-1.483-3.584v-80.843
	h7.971v77.962h83.385L485.267,371.633z"/>
<path fill="#E2EFF9" d="M477.316,363.686h-83.385v-77.961h3.494c0.805,0,1.556,0.206,2.201,0.547v7.935h8.19l4.453,4.453h-13.547
	v17.778h31.326l4.452,4.451h-35.778v21.62h37.896v-19.503l6.861,6.858v12.646h12.658l4.437,4.438h-61.852v3.752h65.604l4.438,4.438
	H398.72v3.733h73.778L477.316,363.686z"/>
<path fill="#E38430" d="M407.819,294.204h-8.19v-7.935c0.322,0.188,0.632,0.393,0.904,0.631l0.426,0.444L407.819,294.204z"/>
<polygon fill="#A2C4E1" points="430.053,316.436 398.724,316.436 398.724,298.657 412.273,298.657 "/>
<polygon fill="#B8D26F" points="436.621,323.005 436.621,342.508 398.724,342.508 398.724,320.888 434.508,320.888 "/>
<g>
	<polygon fill="#C8E0F6" points="464.331,350.698 398.724,350.698 398.724,346.946 460.575,346.946 	"/>
	<polygon fill="#C8E0F6" points="472.508,358.87 398.724,358.87 398.724,355.133 468.767,355.133 	"/>
</g>
<polygon fill="#B8D26F" points="456.14,342.508 443.482,342.508 443.482,329.865 "/>
</svg>
