<?xml version="1.0" encoding="utf-8"?>
<!-- Generator: Adobe Illustrator 16.0.0, SVG Export Plug-In . SVG Version: 6.00 Build 0)  -->
<!DOCTYPE svg PUBLIC "-//W3C//DTD SVG 1.1//EN" "http://www.w3.org/Graphics/SVG/1.1/DTD/svg11.dtd">
<svg version="1.1" id="Livello_1" xmlns="http://www.w3.org/2000/svg" xmlns:xlink="http://www.w3.org/1999/xlink" x="0px" y="0px"
	 width="900px" height="650px" viewBox="0 0 900 650" enable-background="new 0 0 900 650" xml:space="preserve">
<rect x="1.152" y="0" fill="#2FAC66" width="900" height="650"/>
<path fill="#F28D3A" d="M631.15,324.99c0,93.282-75.617,168.899-168.897,168.899c-93.279,0-168.896-75.617-168.896-168.899
	s75.617-168.896,168.896-168.896C555.533,156.094,631.15,231.708,631.15,324.99z"/>
<path fill="#EE7526" d="M629.371,349.391l-76.059-76.062l-3.791-3.789c-6.014-5.462-13.422-9.739-21.717-12.405L503.1,232.433
	c-2.438-2.437-5.814-3.957-9.504-3.957h-43.433h-34.673c-7.41,0-13.465,6.053-13.465,13.462v166.1c0,3.547,1.374,6.758,3.642,9.174
	l0.653,0.646l74.948,74.939C557.544,484.242,618.436,424.924,629.371,349.391z"/>
<path fill="#364A5E" d="M493.602,228.48h-78.125c-7.392,0-13.455,6.055-13.455,13.462v166.103c0,7.403,6.063,13.46,13.455,13.46
	H493.6c7.399,0,13.451-6.057,13.451-13.46V241.943C507.052,234.534,501,228.48,493.602,228.48z"/>
<rect x="409.641" y="257.653" fill="#CEE2F2" width="89.785" height="134.662"/>
<polygon fill="#F3F9FE" points="409.641,392.327 409.641,257.656 499.434,257.656 "/>
<path fill="#293A4D" d="M457.923,243.064c0,1.871-1.507,3.385-3.386,3.385c-1.864,0-3.385-1.514-3.385-3.385
	c0-1.869,1.521-3.387,3.385-3.387C456.416,239.678,457.923,241.195,457.923,243.064z"/>
<g>
	<path fill="#5E6E7E" d="M455.895,243.06c0,0.75-0.609,1.354-1.357,1.354c-0.743,0-1.354-0.604-1.354-1.354
		c0-0.744,0.608-1.356,1.354-1.356C455.285,241.704,455.895,242.316,455.895,243.06z"/>
	<path fill="#5E6E7E" d="M446.212,411.162c-2.038,0-3.691-1.652-3.691-3.695v-1.1c0-2.044,1.653-3.697,3.691-3.697h16.647
		c2.035,0,3.693,1.653,3.693,3.697v1.1c0,2.043-1.654,3.695-3.693,3.695H446.212z"/>
</g>
<path fill="#293A4D" d="M465.5,407.466c0,1.46-1.186,2.645-2.639,2.645h-16.647c-1.453,0-2.642-1.185-2.642-2.645v-1.099
	c0-1.448,1.188-2.646,2.642-2.646h16.647c1.453,0,2.639,1.197,2.639,2.646V407.466z"/>
<path fill="#C1D356" d="M565.669,304.416c0,27.818-25.935,50.377-57.904,50.377c-31.984,0-57.913-22.56-57.913-50.377
	c0-27.822,25.929-50.38,57.913-50.38C539.734,254.037,565.669,276.597,565.669,304.416z"/>
<path fill="#F3F9FE" d="M505.343,330.418c-7.787-0.605-13.611-3.7-17.613-7.859l4.986-6.883c2.799,3.104,7.184,5.977,12.627,6.813
	v-14.675c-7.787-1.955-15.953-4.763-15.953-14.589c0-7.709,6.201-13.831,15.953-14.66v-6.96h6.039v7.031
	c6.129,0.675,11.268,3.1,15.202,6.878l-4.987,6.581c-2.877-2.872-6.504-4.618-10.215-5.373v13.082
	c7.862,2.036,16.412,4.998,16.412,15.114c0,7.714-5.064,14.518-16.412,15.501v6.801h-6.039V330.418L505.343,330.418z
	 M505.343,298.22v-11.875c-4.236,0.529-6.884,2.881-6.884,6.202C498.459,295.5,501.339,297.004,505.343,298.22z M511.382,309.4
	v13.161c5.227-0.762,7.338-3.856,7.338-6.808C518.719,312.355,515.55,310.69,511.382,309.4z"/>
<polygon fill="#C1D356" points="448.436,361.222 475.918,346.286 463.365,333.735 "/>
<path fill="#DAE5A1" d="M461.307,300.125c-0.267,0-0.541-0.034-0.813-0.101c-1.887-0.446-3.053-2.338-2.604-4.222
	c3.07-12.936,13.225-24.209,27.17-30.155c1.785-0.765,3.846,0.065,4.607,1.847c0.758,1.792-0.072,3.845-1.854,4.608
	c-11.906,5.075-20.541,14.541-23.092,25.314C464.337,299.036,462.898,300.125,461.307,300.125z"/>
</svg>
