<?xml version="1.0" encoding="utf-8"?>
<!-- Generator: Adobe Illustrator 16.0.0, SVG Export Plug-In . SVG Version: 6.00 Build 0)  -->
<!DOCTYPE svg PUBLIC "-//W3C//DTD SVG 1.1//EN" "http://www.w3.org/Graphics/SVG/1.1/DTD/svg11.dtd">
<svg version="1.1" id="Livello_1" xmlns="http://www.w3.org/2000/svg" xmlns:xlink="http://www.w3.org/1999/xlink" x="0px" y="0px"
	 width="900px" height="650px" viewBox="0 0 900 650" enable-background="new 0 0 900 650" xml:space="preserve">
<rect x="0" y="0" fill="#2260BA" width="900" height="650"/>
<circle fill="#25AECE" cx="462.046" cy="325" r="169.526"/>
<path fill="#364A5E" d="M416.892,264.394c0-2.701,2.205-4.916,4.909-4.916h80.481c2.705,0,4.916,2.215,4.916,4.916v121.226
	c0,2.703-2.211,4.902-4.916,4.902h-80.481c-2.706,0-4.909-2.199-4.909-4.902V264.394z"/>
<g>
	<path fill="#293A4D" d="M457.062,385.051c-1.205,0-2.188-0.986-2.188-2.188v-0.538c0-1.209,0.987-2.189,2.188-2.189h9.967
		c1.197,0,2.178,0.979,2.178,2.189v0.538c0,1.2-0.981,2.188-2.178,2.188H457.062z"/>
	<path fill="#293A4D" d="M462.035,268.128c-1.248,0-2.229-0.999-2.229-2.257c0-1.228,0.981-2.243,2.229-2.243
		c1.24,0,2.256,1.016,2.256,2.243C464.287,267.131,463.273,268.128,462.035,268.128z"/>
</g>
<path fill="#5E6E7E" d="M462.043,266.821c-0.522,0-0.938-0.417-0.938-0.943c0-0.514,0.416-0.937,0.938-0.937
	c0.511,0,0.939,0.429,0.939,0.937C462.984,266.402,462.556,266.821,462.043,266.821z"/>
<rect x="422.011" y="272.281" fill="#FFFFFF" width="80.063" height="102.38"/>
<rect x="427.866" y="278.137" fill="#F28D3A" width="31.329" height="12.123"/>
<g>
	<rect x="464.873" y="278.137" fill="#E1EFFA" width="31.328" height="12.123"/>
	<rect x="427.866" y="356.056" fill="#E1EFFA" width="68.327" height="3.992"/>
	<rect x="427.866" y="364.805" fill="#E1EFFA" width="68.327" height="3.997"/>
</g>
<g>
	<rect x="427.866" y="322" fill="#CFDC74" width="31.329" height="29.312"/>
	<rect x="464.873" y="322" fill="#CFDC74" width="31.328" height="29.312"/>
</g>
<rect x="427.866" y="295.03" fill="#B8D1E6" width="68.327" height="22.247"/>
</svg>
