<?xml version="1.0" encoding="utf-8"?>
<!-- Generator: Adobe Illustrator 16.0.0, SVG Export Plug-In . SVG Version: 6.00 Build 0)  -->
<!DOCTYPE svg PUBLIC "-//W3C//DTD SVG 1.1//EN" "http://www.w3.org/Graphics/SVG/1.1/DTD/svg11.dtd">
<svg version="1.1" id="Livello_1" xmlns="http://www.w3.org/2000/svg" xmlns:xlink="http://www.w3.org/1999/xlink" x="0px" y="0px"
	 width="900px" height="650px" viewBox="0 0 900 650" enable-background="new 0 0 900 650" xml:space="preserve">
<rect x="0" y="0" fill="#2260BA" width="900" height="650"/>
<circle fill="#25AECE" cx="462.045" cy="325" r="169.526"/>
<path fill="#364A5E" d="M416.892,264.394c0-2.701,2.205-4.916,4.909-4.916h80.482c2.705,0,4.916,2.215,4.916,4.916V385.62
	c0,2.703-2.211,4.902-4.916,4.902h-80.482c-2.706,0-4.909-2.199-4.909-4.902V264.394z"/>
<g>
	<path fill="#293A4D" d="M457.062,385.051c-1.205,0-2.188-0.986-2.188-2.187v-0.538c0-1.209,0.988-2.19,2.188-2.19h9.967
		c1.197,0,2.178,0.979,2.178,2.19v0.538c0,1.2-0.982,2.187-2.178,2.187H457.062z"/>
	<path fill="#293A4D" d="M462.035,268.128c-1.248,0-2.23-0.999-2.23-2.257c0-1.227,0.982-2.243,2.23-2.243
		c1.24,0,2.256,1.016,2.256,2.243C464.287,267.131,463.273,268.128,462.035,268.128z"/>
</g>
<path fill="#5E6E7E" d="M462.043,266.821c-0.523,0-0.939-0.417-0.939-0.944c0-0.513,0.416-0.936,0.939-0.936
	c0.51,0,0.939,0.428,0.939,0.936C462.984,266.402,462.556,266.821,462.043,266.821z"/>
<rect x="422.011" y="272.281" fill="#FFFFFF" width="80.063" height="102.38"/>
<rect x="427.866" y="278.137" fill="#F28D3A" width="31.329" height="12.123"/>
<g>
	<rect x="464.873" y="278.137" fill="#E1EFFA" width="31.328" height="12.123"/>
	<rect x="427.866" y="356.056" fill="#E1EFFA" width="68.327" height="3.992"/>
	<rect x="427.866" y="364.805" fill="#E1EFFA" width="68.327" height="3.997"/>
</g>
<g>
	<rect x="427.866" y="322" fill="#CFDC74" width="31.329" height="29.312"/>
	<rect x="464.873" y="322" fill="#CFDC74" width="31.328" height="29.312"/>
</g>
<rect x="427.866" y="295.03" fill="#B8D1E6" width="68.327" height="22.247"/>
<g>
	<path d="M327.729,103.278V59.917c0-0.96-0.96-1.92-2-1.92h-13.44c-0.48,0-0.96-0.48-0.96-0.96v-7.76c0-0.48,0.4-0.88,0.96-0.88
		h42.241c0.64,0,1.12,0.48,1.12,1.04v7.52c0,0.56-0.48,1.04-1.12,1.04h-13.28c-1.04,0-1.92,0.88-1.92,1.92v43.361
		c0,0.56-0.4,1.04-1.04,1.04h-9.521C328.13,104.318,327.729,103.838,327.729,103.278z"/>
	<path d="M358.209,103.358l14.161-53.841c0.24-0.64,0.88-1.2,1.6-1.2h16.64c0.72,0,1.36,0.56,1.6,1.12l14.16,53.841
		c0.16,0.64-0.24,1.12-0.8,1.12h-7.84c-0.64,0-1.44-0.56-1.6-1.2l-3.92-14.88c-0.24-0.96-1.2-1.68-2.16-1.68H374.53
		c-0.96,0-1.92,0.72-2.16,1.68l-3.92,14.8c-0.16,0.72-0.96,1.28-1.6,1.28h-7.84C358.449,104.398,358.05,103.918,358.209,103.358z
		 M387.57,78.077c1.12,0,1.76-0.88,1.52-1.84l-4.48-16.48c-0.16-0.88-1.12-1.6-2.08-1.6h-0.48c-0.96,0-1.92,0.72-2.08,1.6
		l-4.4,16.48c-0.24,0.96,0.32,1.84,1.44,1.84H387.57z"/>
	<path d="M417.569,102.718V50.076c0-1.36,0.24-1.6,1.76-1.6h15.041c8.96,0,16.24,7.2,16.24,16.24c0,3.12-0.879,6.16-2.64,8.72
		c5.521,3.12,8.72,8.561,8.72,14.48c0,8.96-7.2,16.16-16.32,16.24l-20.72,0.08C418.209,104.238,417.569,103.758,417.569,102.718z
		 M434.53,71.597c3.68,0,6.8-3.12,6.8-6.88c0-3.84-3.2-6.96-6.96-6.96h-5.84c-1.12,0-1.68,0.72-1.68,2.16v9.68c0,1.28,0.72,2,2,2
		H434.53z M439.49,94.877c3.92,0,6.96-3.04,6.96-6.96s-3.04-6.96-6.96-6.96h-10.64c-1.28,0-2,0.72-2,2v10c0,1.28,0.72,2,2,2
		L439.49,94.877z"/>
	<path d="M468.929,102.637V49.916c0-0.88,0.8-1.68,1.68-1.68h8.24c0.96,0,1.68,0.8,1.68,1.68v42.161c0,0.88,0.721,1.68,1.601,1.68
		h19.36c0.96,0,1.68,0.72,1.68,1.6v7.28c0,0.96-0.72,1.68-1.68,1.68h-30.881C469.729,104.318,468.929,103.597,468.929,102.637z"/>
	<path d="M516.369,102.637V49.916c0-0.8,0.64-1.44,1.439-1.44h35.841c0.801,0,1.44,0.64,1.44,1.44v6.72c0,0.8-0.64,1.44-1.44,1.44
		h-25.84c-0.801,0-1.44,0.64-1.44,1.44v11.76c0,1.04-0.08,1.52,1.84,1.52h20.001c0.72,0,1.359,0.56,1.359,1.28v6.8
		c0,0.72-0.64,1.28-1.359,1.28h-20.081c-1.68,0-1.76,1.44-1.76,1.84v8.48c0,0.8,0.16,1.92,2.24,1.92h25.601
		c0.8,0,1.439,0.72,1.439,1.52v6.72c0,0.8-0.64,1.44-1.439,1.44h-36.401C517.009,104.077,516.369,103.438,516.369,102.637z"/>
	<path d="M584.847,103.278V59.917c0-0.96-0.96-1.92-2-1.92h-13.44c-0.48,0-0.96-0.48-0.96-0.96v-7.76c0-0.48,0.399-0.88,0.96-0.88
		h42.241c0.64,0,1.119,0.48,1.119,1.04v7.52c0,0.56-0.479,1.04-1.119,1.04h-13.28c-1.04,0-1.921,0.88-1.921,1.92v43.361
		c0,0.56-0.399,1.04-1.04,1.04h-9.52C585.247,104.318,584.847,103.838,584.847,103.278z"/>
</g>
</svg>
