<?xml version="1.0" encoding="utf-8"?>
<!-- Generator: Adobe Illustrator 16.0.0, SVG Export Plug-In . SVG Version: 6.00 Build 0)  -->
<!DOCTYPE svg PUBLIC "-//W3C//DTD SVG 1.1//EN" "http://www.w3.org/Graphics/SVG/1.1/DTD/svg11.dtd">
<svg version="1.1" id="Livello_1" xmlns="http://www.w3.org/2000/svg" xmlns:xlink="http://www.w3.org/1999/xlink" x="0px" y="0px"
	 width="900px" height="650px" viewBox="0 0 900 650" enable-background="new 0 0 900 650" xml:space="preserve">
<rect x="0" y="0" fill="#F39200" width="900" height="650"/>
<circle fill="#314A9A" cx="462.256" cy="325" r="169.781"/>
<path fill="#273581" d="M630.709,345.883l-83.127-83.121l-1.212-1.215c-1.505-1.233-3.419-1.986-5.527-1.986H383.674
	c-4.802,0-8.734,3.929-8.734,8.731v96.048c0,1.891,0.607,3.662,1.673,5.092l1.965,1.963l119.54,119.557
	C568.006,475.92,621.871,417.881,630.709,345.883z"/>
<g>
	<rect x="459.335" y="373.065" fill="#110A17" width="5.823" height="17.463"/>
	<rect x="407.682" y="389.805" fill="#110A17" width="109.135" height="5.822"/>
</g>
<path fill="#1D1D1B" d="M469.676,392.713c0,4.1-3.324,7.426-7.42,7.426c-4.098,0-7.422-3.326-7.422-7.426
	c0-4.096,3.322-7.42,7.422-7.42C466.351,385.293,469.676,388.617,469.676,392.713z"/>
<path fill="#F69F1C" d="M549.57,364.344c0,4.799-3.931,8.73-8.733,8.73H383.671c-4.805,0-8.731-3.93-8.731-8.73V268.29
	c0-4.802,3.927-8.727,8.731-8.727h157.166c4.801,0,8.733,3.925,8.733,8.727V364.344z"/>
<path fill="#EEE862" d="M540.837,259.563H383.671c-4.805,0-8.731,3.925-8.731,8.727v48.02h174.628v-48.02
	C549.57,263.488,545.637,259.563,540.837,259.563z"/>
<path fill="#061B28" d="M539.769,357.535c0,4.158-3.372,7.529-7.532,7.529H391.853c-4.159,0-7.532-3.371-7.532-7.529v-82.853
	c0-4.158,3.373-7.531,7.532-7.531h140.384c4.16,0,7.532,3.373,7.532,7.531V357.535z"/>
<g>
	<path d="M159.1,103.323V59.962c0-0.96-0.96-1.92-2-1.92h-13.44c-0.48,0-0.96-0.48-0.96-0.96v-7.76c0-0.48,0.4-0.88,0.96-0.88
		h42.241c0.64,0,1.12,0.48,1.12,1.04v7.52c0,0.56-0.48,1.04-1.12,1.04h-13.28c-1.04,0-1.92,0.88-1.92,1.92v43.361
		c0,0.56-0.4,1.04-1.04,1.04h-9.521C159.501,104.363,159.1,103.883,159.1,103.323z"/>
	<path d="M241.34,50.042l-14.56,53.281c-0.24,0.88-0.8,1.04-1.76,1.04h-9.84c-0.96,0-1.6-0.16-1.84-1.04l-14.48-53.281
		c-0.32-0.96,0-1.76,0.96-1.76h7.28c1.04,0,1.68,0.16,1.92,1.04c0,0,9.84,36.081,10.4,38.48c0.08,0.32,0.4,1.44,0.64,1.44
		c0.24,0,0.4-0.48,0.64-1.44c0.56-2.4,10.4-38.48,10.4-38.48c0.32-0.88,0.88-1.04,1.92-1.04h7.36
		C241.5,48.282,241.5,49.242,241.34,50.042z"/>
	<path d="M287.498,102.683V49.962c0-0.8,0.64-1.44,1.44-1.44h35.841c0.8,0,1.44,0.64,1.44,1.44v6.72c0,0.8-0.64,1.44-1.44,1.44
		h-25.841c-0.8,0-1.44,0.64-1.44,1.44v11.76c0,1.04-0.08,1.52,1.84,1.52h20c0.72,0,1.36,0.56,1.36,1.28v6.8
		c0,0.72-0.64,1.28-1.36,1.28h-20.08c-1.68,0-1.76,1.44-1.76,1.84v8.48c0,0.8,0.16,1.92,2.24,1.92h25.601c0.8,0,1.44,0.72,1.44,1.52
		v6.72c0,0.8-0.64,1.44-1.44,1.44h-36.401C288.137,104.123,287.498,103.483,287.498,102.683z"/>
	<path d="M373.976,97.723c-1.12-1.2-0.32-2.8,2.32-6.56c0.64-0.8,1.28-0.96,2.08-0.64c8.56,4.4,13.36,4.4,17.28,4.4
		c7.76,0,11.121-4.08,7.121-9.2c-2-2.64-8.4-3.84-11.121-4.72c-8.4-2.48-13.28-5.84-14.88-11.36
		c-3.36-10.32,3.52-19.601,17.121-21.041c4.64-0.4,9.92,0.48,14.16,2.24c4.16,2.08,6.001,3.92,5.521,5.28
		c-0.64,1.52-2.56,3.84-3.68,5.36c-0.96,1.2-4-1.36-7.681-2.16c-3.12-0.64-6.64-1.52-11.2,0.08c-4.8,2.32-5.76,6.48-2.08,9.28
		c3.84,2.72,8.721,4.4,11.681,5.44c2.96,1.12,7.68,2.72,10.08,5.68c2.16,2.08,3.76,6.32,3.76,9.68c0,8.88-7.52,14.48-18.24,14.64
		C387.496,104.283,377.336,100.763,373.976,97.723z"/>
	<path d="M426.855,102.923V49.882c0-0.8,0.641-1.44,1.36-1.44h7.84c0.48,0,0.96,0.32,1.2,0.8l12.16,20.16c0,0,0.48,0.8,1.36,0.8
		h0.16c0.88,0,1.2-0.88,1.2-0.88l12.08-20c0.319-0.48,0.64-0.88,1.279-0.88h7.921c0.72,0,1.359,0.64,1.359,1.44v53.042
		c0,0.8-0.64,1.44-1.359,1.44h-7.841c-0.88,0-1.439-0.64-1.439-1.44V71.162c0-0.96-0.4-1.12-1.04-0.16l-8.4,11.92
		c-0.88,1.28-1.28,1.68-3.04,1.68h-1.36c-2.08,0-2.479-0.24-3.2-1.28l-8.64-12.24c-0.64-0.96-1.04-0.96-1.04,0v31.841
		c0,0.8-0.64,1.44-1.44,1.44h-7.76C427.496,104.363,426.855,103.723,426.855,102.923z"/>
	<path d="M485.655,103.403l14.16-53.841c0.24-0.64,0.88-1.2,1.601-1.2h16.641c0.72,0,1.359,0.56,1.6,1.12l14.16,53.841
		c0.16,0.64-0.24,1.12-0.8,1.12h-7.84c-0.641,0-1.44-0.56-1.601-1.2l-3.92-14.88c-0.24-0.96-1.2-1.68-2.16-1.68h-15.521
		c-0.96,0-1.92,0.72-2.16,1.68l-3.92,14.8c-0.16,0.72-0.96,1.28-1.6,1.28h-7.841C485.895,104.443,485.495,103.963,485.655,103.403z
		 M515.015,78.122c1.12,0,1.761-0.88,1.521-1.84l-4.48-16.48c-0.159-0.88-1.12-1.6-2.08-1.6h-0.479c-0.96,0-1.92,0.72-2.08,1.6
		l-4.4,16.48c-0.24,0.96,0.32,1.84,1.44,1.84H515.015z"/>
	<path d="M545.014,103.003V49.802c0-0.8,0.72-1.44,1.52-1.44h16.801c10.08,0,18.24,7.84,18.24,17.761c0,5.68-2.88,10.64-7.12,14
		c-0.8,0.72-0.32,1.68-0.32,1.68l9.28,20.721c0.641,1.44,0.08,1.92-0.8,1.92h-7.04c-1.04,0-1.6,0-2.08-0.96
		c0,0-8.08-18.081-8.4-18.721c-0.239-0.64-0.64-0.8-2.16-0.88h-6.399c-1.521,0-2.08,0.32-2.08,1.52v17.601
		c0,0.8-0.721,1.44-1.521,1.44h-6.4C545.734,104.443,545.014,103.803,545.014,103.003z M563.335,73.562
		c4.16,0,7.601-3.36,7.601-7.44c0-4.16-3.44-7.44-7.601-7.44h-7.44c-0.96,0-1.439,0.48-1.439,1.6v12c0,0.8,0.479,1.28,1.2,1.28
		H563.335z"/>
	<path d="M607.975,103.323V59.962c0-0.96-0.96-1.92-2-1.92h-13.44c-0.48,0-0.96-0.48-0.96-0.96v-7.76c0-0.48,0.399-0.88,0.96-0.88
		h42.241c0.64,0,1.119,0.48,1.119,1.04v7.52c0,0.56-0.479,1.04-1.119,1.04h-13.28c-1.04,0-1.921,0.88-1.921,1.92v43.361
		c0,0.56-0.399,1.04-1.04,1.04h-9.52C608.375,104.363,607.975,103.883,607.975,103.323z"/>
	<path d="M699.494,103.323V59.962c0-0.96-0.96-1.92-2-1.92h-13.44c-0.48,0-0.96-0.48-0.96-0.96v-7.76c0-0.48,0.399-0.88,0.96-0.88
		h42.241c0.64,0,1.119,0.48,1.119,1.04v7.52c0,0.56-0.479,1.04-1.119,1.04h-13.28c-1.04,0-1.921,0.88-1.921,1.92v43.361
		c0,0.56-0.399,1.04-1.04,1.04h-9.52C699.893,104.363,699.494,103.883,699.494,103.323z"/>
	<path d="M781.733,50.042l-14.561,53.281c-0.239,0.88-0.8,1.04-1.76,1.04h-9.84c-0.96,0-1.601-0.16-1.84-1.04l-14.48-53.281
		c-0.32-0.96,0-1.76,0.96-1.76h7.28c1.04,0,1.68,0.16,1.92,1.04c0,0,9.84,36.081,10.4,38.48c0.08,0.32,0.399,1.44,0.64,1.44
		s0.4-0.48,0.64-1.44c0.561-2.4,10.4-38.48,10.4-38.48c0.32-0.88,0.88-1.04,1.92-1.04h7.36
		C781.893,48.282,781.893,49.242,781.733,50.042z"/>
</g>
</svg>
