<?xml version="1.0" encoding="utf-8"?>
<!-- Generator: Adobe Illustrator 16.0.0, SVG Export Plug-In . SVG Version: 6.00 Build 0)  -->
<!DOCTYPE svg PUBLIC "-//W3C//DTD SVG 1.1//EN" "http://www.w3.org/Graphics/SVG/1.1/DTD/svg11.dtd">
<svg version="1.1" id="Livello_1" xmlns="http://www.w3.org/2000/svg" xmlns:xlink="http://www.w3.org/1999/xlink" x="0px" y="0px"
	 width="900px" height="650px" viewBox="0 0 900 650" enable-background="new 0 0 900 650" xml:space="preserve">
<rect x="0" y="0" fill="#F39200" width="900" height="650"/>
<circle fill="#314A9A" cx="462.257" cy="325" r="169.781"/>
<path fill="#273581" d="M630.709,345.883l-83.127-83.121l-1.212-1.215c-1.505-1.233-3.419-1.986-5.526-1.986h-157.17
	c-4.802,0-8.733,3.929-8.733,8.731v96.048c0,1.891,0.606,3.662,1.673,5.092l1.965,1.963l119.54,119.557
	C568.007,475.92,621.871,417.881,630.709,345.883z"/>
<g>
	<rect x="459.336" y="373.065" fill="#110A17" width="5.822" height="17.463"/>
	<rect x="407.682" y="389.805" fill="#110A17" width="109.135" height="5.822"/>
</g>
<path fill="#1D1D1B" d="M469.677,392.713c0,4.1-3.324,7.426-7.42,7.426c-4.099,0-7.423-3.326-7.423-7.426
	c0-4.097,3.322-7.42,7.423-7.42C466.351,385.293,469.677,388.616,469.677,392.713z"/>
<path fill="#F69F1C" d="M549.57,364.344c0,4.799-3.931,8.729-8.732,8.729H383.671c-4.805,0-8.73-3.93-8.73-8.729V268.29
	c0-4.803,3.927-8.728,8.73-8.728h157.167c4.801,0,8.732,3.925,8.732,8.728V364.344L549.57,364.344z"/>
<path fill="#EEE862" d="M540.838,259.563H383.671c-4.805,0-8.73,3.925-8.73,8.728v48.02h174.628v-48.02
	C549.57,263.488,545.637,259.563,540.838,259.563z"/>
<path fill="#061B28" d="M539.769,357.534c0,4.158-3.372,7.529-7.532,7.529H391.853c-4.159,0-7.532-3.371-7.532-7.529v-82.853
	c0-4.158,3.373-7.531,7.532-7.531h140.384c4.16,0,7.532,3.373,7.532,7.531V357.534z"/>
</svg>
