<?xml version="1.0" encoding="utf-8"?>
<!-- Generator: Adobe Illustrator 16.0.0, SVG Export Plug-In . SVG Version: 6.00 Build 0)  -->
<!DOCTYPE svg PUBLIC "-//W3C//DTD SVG 1.1//EN" "http://www.w3.org/Graphics/SVG/1.1/DTD/svg11.dtd">
<svg version="1.1" id="Livello_1" xmlns="http://www.w3.org/2000/svg" xmlns:xlink="http://www.w3.org/1999/xlink" x="0px" y="0px"
	 width="300px" height="60px" viewBox="0 0 300 60" enable-background="new 0 0 300 60" xml:space="preserve">
<g>
	<path fill="#2E3E50" d="M300,57.248c0,1.52-2.493,2.752-5.572,2.752H5.572C2.495,60,0,58.768,0,57.248V2.751
		C0,1.231,2.495,0,5.572,0h288.855C297.507,0,300,1.231,300,2.751V57.248z"/>
	<g>
		<path fill="#2E3E50" d="M297.589,56.583c-0.505,1.856-11.936,0.917-12.979,0.917c-9.238,0-18.477,0-27.715,0
			c-29.325,0-58.649,0-87.975,0c-52.571,0-105.143,0-157.715,0c-1.695,0-3.39,0-5.085,0c-4.025,0-3.62-0.417-3.62-3.927
			c0-14.467,0-28.934,0-43.4c0-2.1,0-4.199,0-6.298C2.5,2.097,3.621,2.5,5.687,2.5c1.278,0,2.557,0,3.835,0
			c7.292,0,14.584,0,21.876,0c59.91,0,119.82,0,179.73,0c23.665,0,47.331,0,70.996,0c4.076,0,8.153,0,12.229,0
			c2.093,0,3.146-0.39,3.146,1.375c0,2.34,0,4.681,0,7.021c0,7.693,0,15.386,0,23.079c0,7.758,0,15.516,0,23.273
			c0,3.225,5,3.225,5,0c0-12.025,0-24.051,0-36.077c0-5.766,0-11.531,0-17.297c0-4.594-3.961-6.375-8.236-6.375
			c-14.371,0-28.741,0-43.112,0c-61.674,0-123.348,0-185.022,0c-19.035,0-38.07,0-57.105,0c-1.137,0-2.273,0-3.411,0
			C0.293-2.5-2.5,0.046-2.5,4.985c0,14.2,0,28.4,0,42.6c0,3.061-1.137,8.793,0.541,11.656c1.73,2.953,5.583,3.259,8.681,3.259
			c5.62,0,11.24,0,16.86,0c25.48,0,50.96,0,76.44,0c58.452,0,116.903,0,175.354,0c5.118,0,10.236,0,15.354,0
			c4.222,0,10.314,0.435,11.681-4.587C303.258,54.797,298.435,53.476,297.589,56.583z"/>
	</g>
</g>
<g>
	<path fill="#FFFFFF" d="M11.032,48.295c-0.412-0.412-0.617-0.869-0.617-1.373c0-0.273,0.091-0.594,0.274-0.961l2.195-3.91
		c0.274-0.502,0.686-0.754,1.235-0.754c0.319,0,0.663,0.115,1.029,0.342c1.143,0.596,2.195,1.053,3.156,1.373
		c0.182,0.092,0.331,0.287,0.446,0.584c0.114,0.297,0.125,0.561,0.035,0.789c-0.137,0.504-0.823,2.4-2.059,5.693
		c-0.137,0.32-0.366,0.539-0.686,0.652c-0.32,0.115-0.617,0.104-0.892-0.035C13.228,49.918,11.855,49.117,11.032,48.295z
		 M24.617,59.203c0,0-0.149-0.148-0.446-0.445c-0.298-0.299-0.446-0.676-0.446-1.133v-3.018c0-0.551-0.08-1.1-0.24-1.648
		c-0.161-0.549-0.217-0.959-0.171-1.234c0.137-0.73,0.332-1.668,0.583-2.813c0.25-1.143,0.468-2.127,0.651-2.951
		c0.091-0.41,0.251-0.695,0.48-0.857c0.229-0.158,0.571-0.24,1.029-0.24l3.019,0.07c1.966,0,3.51-0.355,4.631-1.064
		c1.12-0.709,1.681-1.635,1.681-2.779c0-1.051-0.412-2.08-1.235-3.086c-0.458-0.641-1.225-1.143-2.299-1.51
		c-1.075-0.365-2.459-0.709-4.15-1.029l-2.196-0.549c-2.927-0.869-5.317-1.896-7.169-3.088c-1.852-1.188-3.442-2.926-4.768-5.213
		l-0.137-0.274c-0.916-1.601-1.441-3.315-1.578-5.146c-0.092-2.744,0.8-5.26,2.676-7.547c1.875-2.287,4.459-3.979,7.753-5.077
		c0.96-0.274,1.44-0.892,1.44-1.853V3.356c0-0.457,0.148-0.834,0.446-1.132c0.297-0.297,0.651-0.446,1.063-0.446h3.979
		c0.412,0,0.777,0.149,1.098,0.446c0.319,0.298,0.48,0.675,0.48,1.132v2.745c0,0.549,0.137,0.926,0.412,1.132
		c0.274,0.206,0.799,0.355,1.578,0.446C35.205,8,37.332,8.617,39.162,9.531c1.829,0.961,3.156,1.808,3.979,2.539
		c0.594,0.458,0.892,1.007,0.892,1.646c0,0.184-0.046,0.412-0.137,0.687c-0.458,1.006-1.464,2.516-3.019,4.527
		c-0.274,0.321-0.686,0.48-1.235,0.48c-0.412,0-0.801-0.091-1.166-0.274c-1.51-0.731-2.974-1.326-4.391-1.784
		c-1.784-0.502-3.293-0.754-4.528-0.754c-1.189,0-2.584,0.274-4.185,0.823c-0.915,0.411-1.624,0.983-2.126,1.715
		c-0.504,0.732-0.755,1.465-0.755,2.195c0,1.007,0.412,1.853,1.235,2.539c0.777,0.549,1.635,1.006,2.573,1.372
		c0.937,0.366,2.207,0.801,3.808,1.304l1.715,0.549c2.607,0.96,4.803,1.841,6.586,2.641c1.784,0.801,3.132,1.706,4.048,2.709
		c1.235,1.373,2.024,2.734,2.367,4.084c0.343,1.35,0.514,2.777,0.514,4.287c0,3.477-1.281,6.289-3.842,8.439
		c-2.562,2.15-5.741,3.498-9.537,4.047c-0.778,0.137-1.166,0.504-1.166,1.098v3.225c0,0.412-0.149,0.777-0.446,1.098
		c-0.298,0.32-0.675,0.48-1.132,0.48h-3.979C24.822,59.203,24.617,59.203,24.617,59.203z"/>
	<path fill="#FFFFFF" d="M55.935,38.725c-0.206-0.207-0.309-0.447-0.309-0.721V7.13c0-0.274,0.103-0.515,0.309-0.72
		c0.206-0.206,0.446-0.309,0.72-0.309h7.135c0.274,0,0.515,0.103,0.721,0.309c0.206,0.206,0.309,0.446,0.309,0.72v30.874
		c0,0.273-0.103,0.514-0.309,0.721c-0.206,0.205-0.446,0.309-0.721,0.309h-7.135C56.381,39.033,56.141,38.93,55.935,38.725z
		 M81.526,53.818c-0.252-0.252-0.377-0.537-0.377-0.859V36.426c0-0.365-0.115-0.662-0.343-0.893
		c-0.229-0.229-0.526-0.342-0.892-0.342h-8.576c-0.32,0-0.607-0.127-0.857-0.379c-0.252-0.25-0.377-0.537-0.377-0.857v-5.832
		c0-0.365,0.125-0.662,0.377-0.892c0.25-0.229,0.537-0.343,0.857-0.343h8.576c0.365,0,0.662-0.126,0.892-0.378
		c0.229-0.25,0.343-0.537,0.343-0.857V7.336c0-0.32,0.125-0.606,0.377-0.858c0.25-0.25,0.537-0.377,0.857-0.377h6.998
		c0.319,0,0.605,0.126,0.857,0.377c0.251,0.252,0.377,0.538,0.377,0.858v45.623c0,0.322-0.115,0.607-0.343,0.859
		c-0.229,0.252-0.526,0.377-0.892,0.377h-6.998C82.063,54.195,81.776,54.07,81.526,53.818z"/>
	<path fill="#FFFFFF" d="M158.503,53.818c-0.252-0.252-0.378-0.537-0.378-0.859V29.016c0-0.366,0.126-0.675,0.378-0.927
		c0.251-0.251,0.537-0.377,0.857-0.377h15.162c1.738,0,3.235-0.617,4.494-1.853c1.257-1.235,1.887-2.721,1.887-4.46
		c0-1.783-0.63-3.293-1.887-4.527c-1.259-1.235-2.756-1.853-4.494-1.853H159.36c-0.32,0-0.606-0.126-0.857-0.378
		c-0.252-0.25-0.378-0.56-0.378-0.926V7.404c0-0.365,0.126-0.674,0.378-0.926c0.251-0.25,0.537-0.377,0.857-0.377h15.162
		c2.744,0,5.283,0.686,7.615,2.059c2.333,1.371,4.186,3.235,5.558,5.591c1.372,2.356,2.059,4.905,2.059,7.649
		c0,2.745-0.687,5.283-2.059,7.616c-1.372,2.332-3.225,4.185-5.558,5.556c-2.332,1.373-4.871,2.059-7.615,2.059h-7.272
		c-0.504,0-0.847,0.068-1.029,0.207c-0.183,0.137-0.274,0.41-0.274,0.822v15.299c0,0.367-0.126,0.664-0.377,0.893
		c-0.252,0.23-0.561,0.344-0.927,0.344h-5.282C159.04,54.195,158.754,54.07,158.503,53.818z"/>
	<path fill="#FFFFFF" d="M200.353,14.231c-0.251-0.251-0.377-0.56-0.377-0.927v-5.9c0-0.365,0.126-0.663,0.377-0.892
		c0.251-0.229,0.537-0.343,0.858-0.343h31.834c0.365,0,0.674,0.126,0.926,0.377c0.251,0.252,0.377,0.538,0.377,0.857v5.9
		c0,0.321-0.126,0.618-0.377,0.893c-0.252,0.274-0.561,0.411-0.926,0.411h-31.834C200.89,14.608,200.604,14.483,200.353,14.231z
		 M200.353,53.818c-0.251-0.252-0.377-0.537-0.377-0.859V21.263c0-0.365,0.126-0.662,0.377-0.892
		c0.251-0.229,0.537-0.344,0.858-0.344h5.831c0.366,0,0.663,0.115,0.893,0.344c0.228,0.229,0.343,0.526,0.343,0.892v4.939
		c0,0.87,0.594,1.304,1.783,1.304h17.29c0.319,0,0.594,0.103,0.823,0.309c0.228,0.206,0.343,0.47,0.343,0.789v5.9
		c0,0.32-0.115,0.584-0.343,0.789c-0.229,0.207-0.504,0.309-0.823,0.309h-17.495c-1.053,0-1.578,0.48-1.578,1.441v7.479
		c0,0.32,0.137,0.617,0.411,0.891c0.274,0.275,0.571,0.412,0.893,0.412h23.601c0.365,0,0.663,0.115,0.892,0.344
		s0.344,0.525,0.344,0.893v5.898c0,0.322-0.115,0.607-0.344,0.859s-0.526,0.377-0.892,0.377h-31.971
		C200.89,54.195,200.604,54.07,200.353,53.818z"/>
	<path fill="#FFFFFF" d="M247.383,53.955c-0.412-0.207-0.71-0.469-0.892-0.789c-0.184-0.32-0.515-0.926-0.995-1.818
		s-0.789-1.52-0.926-1.887c-0.138-0.275-0.206-0.549-0.206-0.824c0-0.549,0.274-1.098,0.823-1.646
		c4.436-4.801,8.93-9.695,13.481-14.682c4.551-4.985,7.672-8.415,9.364-10.291c0.229-0.229,0.525-0.344,0.893-0.344
		c0.365,0,0.64,0.115,0.823,0.344l4.871,4.254c0.229,0.229,0.343,0.526,0.343,0.892c0,0.366-0.114,0.663-0.343,0.892l-16.672,16.878
		c-0.458,0.457-0.686,0.801-0.686,1.027c0,0.367,0.456,0.551,1.372,0.551l21.268-0.207c0.366,0,0.663,0.115,0.893,0.344
		c0.229,0.229,0.343,0.525,0.343,0.891v5.42c0,0.322-0.114,0.607-0.343,0.859c-0.229,0.252-0.526,0.377-0.893,0.377h-31.284
		C248.206,54.24,247.794,54.16,247.383,53.955z M245.016,13.614c-0.252-0.251-0.377-0.537-0.377-0.858V7.404
		c0-0.365,0.125-0.674,0.377-0.926c0.251-0.25,0.537-0.377,0.857-0.377h34.029c0.32,0,0.606,0.126,0.858,0.377
		c0.251,0.252,0.377,0.561,0.377,0.926v5.351c0,0.321-0.114,0.607-0.343,0.858c-0.229,0.252-0.526,0.377-0.893,0.377h-34.029
		C245.553,13.991,245.267,13.866,245.016,13.614z"/>
</g>
<line fill="none" x1="82.135" y1="5.906" x2="119.566" y2="5.906"/>
<g>
	<g>
		<ellipse fill="#C797C4" cx="124.169" cy="30.619" rx="25.177" ry="23.312"/>
		<g>
			<path fill="#B069A8" d="M149.346,30.617c0,12.875-11.271,23.313-25.176,23.313c-0.675,0-1.344-0.025-2.006-0.074
				c12.967-0.945,23.17-10.988,23.17-23.238c0-12.249-10.203-22.291-23.17-23.238c0.662-0.048,1.331-0.074,2.006-0.074
				C138.074,7.306,149.346,17.744,149.346,30.617z"/>
			<ellipse fill="#B069A8" cx="124.189" cy="35.288" rx="10.068" ry="8.08"/>
		</g>
		<path fill="#C797C4" d="M112.295,7.083c-3.201-0.162-11.572,0.08-15.82,6.45c-0.287,0.432-0.299,0.995-0.025,1.438
			c0.935,1.522,3.615,5.052,9.4,7.364c0.077,0.029,0.154,0.061,0.232,0.09c6.479,2.514,7.367-9.88,7.484-13.963
			C113.587,7.731,113.023,7.12,112.295,7.083z"/>
		<path fill="#B069A8" d="M113.566,8.46c-0.117,4.083-1.006,16.479-7.486,13.963c-0.037-0.016-0.076-0.029-0.115-0.047
			c3.629-1.92,4.226-10.622,4.32-13.917c0.019-0.65-0.43-1.207-1.043-1.345c1.228-0.086,2.288-0.069,3.055-0.032
			C113.023,7.121,113.587,7.733,113.566,8.46z"/>
		<path fill="#C797C4" d="M136.896,7.083c3.202-0.162,11.575,0.08,15.821,6.45c0.287,0.432,0.299,0.995,0.025,1.438
			c-0.936,1.522-3.615,5.052-9.402,7.364c-0.076,0.029-0.152,0.061-0.23,0.09c-6.479,2.514-7.367-9.88-7.484-13.964
			C135.605,7.731,136.168,7.12,136.896,7.083z"/>
		<path fill="#B069A8" d="M152.742,14.97c-0.936,1.522-3.615,5.052-9.4,7.364c-0.077,0.03-0.154,0.061-0.232,0.09
			c-0.741,0.289-1.41,0.381-2.014,0.311c4.592-2.264,6.82-5.226,7.658-6.586c0.271-0.444,0.262-1.006-0.027-1.438
			c-3.322-4.985-9.171-6.217-13.093-6.439c0.071-0.643,0.597-1.154,1.262-1.188c3.202-0.161,11.573,0.08,15.821,6.45
			C153.006,13.964,153.016,14.528,152.742,14.97z"/>
		<path fill="#010202" d="M124.16,44.221c6.023,0,10.923-4.006,10.923-8.932c0-4.928-4.899-8.936-10.923-8.936
			c-6.022,0-10.923,4.008-10.923,8.936C113.237,40.215,118.138,44.221,124.16,44.221z M124.16,28.063
			c5.08,0,9.213,3.241,9.213,7.226c0,3.982-4.133,7.223-9.213,7.223c-5.079,0-9.211-3.24-9.211-7.223
			C114.949,31.305,119.081,28.063,124.16,28.063z"/>
		<path fill="#010202" d="M121.455,37.699c0.472,0,0.855-0.383,0.855-0.854V33.73c0-0.473-0.384-0.854-0.855-0.854
			c-0.473,0-0.855,0.381-0.855,0.854v3.115C120.6,37.316,120.982,37.699,121.455,37.699z"/>
		<path fill="#010202" d="M126.867,37.699c0.471,0,0.854-0.383,0.854-0.854V33.73c0-0.473-0.383-0.854-0.854-0.854
			c-0.474,0-0.856,0.381-0.856,0.854v3.115C126.011,37.316,126.394,37.699,126.867,37.699z"/>
		<circle fill="#010202" cx="115.503" cy="24.68" r="1.545"/>
		<circle fill="#010202" cx="133.605" cy="24.68" r="1.545"/>
		<path fill="#010202" d="M153.396,13.058c-0.479-0.725-1.035-1.404-1.643-2.019c-0.336-0.335-0.875-0.337-1.211-0.004
			c-0.336,0.332-0.338,0.873-0.006,1.208c0.533,0.538,1.016,1.131,1.438,1.763c0.105,0.155,0.107,0.359,0.01,0.516
			c-0.84,1.366-3.396,4.784-8.99,7.017c-0.074,0.029-0.148,0.059-0.223,0.088c-1.049,0.408-1.928,0.362-2.683-0.141
			c-1.237-0.82-2.23-2.884-2.872-5.966c-0.566-2.729-0.724-5.611-0.766-7.085c-0.008-0.266,0.194-0.485,0.46-0.498
			c2.171-0.11,6.379-0.019,10.145,1.834c0.424,0.209,0.938,0.035,1.146-0.391c0.209-0.423,0.033-0.936-0.391-1.145
			c-4.111-2.022-8.648-2.125-10.986-2.007c-1.183,0.06-2.117,1.072-2.084,2.255c0.002,0.017,0.002,0.034,0.002,0.05
			c-3.293-1.364-6.888-2.083-10.603-2.083c-3.399,0-6.7,0.604-9.76,1.752c-0.108-1.059-0.983-1.919-2.07-1.975
			c-2.324-0.118-6.835-0.016-10.938,1.984c-0.424,0.206-0.601,0.719-0.394,1.143c0.207,0.425,0.719,0.602,1.144,0.394
			c3.757-1.832,7.942-1.922,10.102-1.813c0.265,0.014,0.466,0.231,0.458,0.498c-0.041,1.474-0.199,4.355-0.766,7.085
			c-0.641,3.082-1.635,5.146-2.871,5.966c-0.756,0.503-1.634,0.549-2.684,0.141c-0.074-0.029-0.149-0.059-0.223-0.088
			c-5.595-2.233-8.15-5.651-8.99-7.016c-0.098-0.158-0.094-0.362,0.01-0.516c0.438-0.657,0.942-1.27,1.499-1.824
			c0.335-0.333,0.337-0.875,0.002-1.208c-0.331-0.336-0.874-0.337-1.208-0.004c-0.639,0.633-1.215,1.336-1.717,2.087
			c-0.471,0.708-0.487,1.636-0.043,2.36c0.623,1.015,2.1,3.049,4.836,5.01c-1.58,3.151-2.42,6.61-2.42,10.189
			c0,6.469,2.717,12.545,7.65,17.111c4.913,4.553,11.442,7.057,18.382,7.057c8.429,0,16.374-3.816,21.253-10.205
			c0.287-0.377,0.215-0.914-0.16-1.201c-0.375-0.285-0.912-0.215-1.199,0.162c-4.558,5.969-11.994,9.533-19.894,9.533
			c-13.41,0-24.32-10.074-24.32-22.457c0-3.289,0.773-6.417,2.157-9.236c1.029,0.623,2.201,1.217,3.527,1.747
			c0.08,0.032,0.16,0.063,0.239,0.093c0.678,0.265,1.327,0.396,1.945,0.396c0.825,0,1.597-0.236,2.303-0.705
			c3.138-2.082,4.073-8.384,4.331-12.836c3.004-1.229,6.326-1.914,9.817-1.914c3.836,0,7.465,0.827,10.695,2.293
			c0.288,4.425,1.257,10.434,4.308,12.457c0.707,0.469,1.476,0.705,2.302,0.705c0.618,0,1.269-0.132,1.946-0.396
			c0.079-0.03,0.159-0.061,0.238-0.093c1.049-0.419,1.998-0.878,2.859-1.358c1.268,2.716,1.973,5.707,1.973,8.85
			c0,3.15-0.691,6.195-2.059,9.053c-0.202,0.426-0.022,0.938,0.403,1.141c0.427,0.203,0.938,0.023,1.142-0.402
			c1.475-3.09,2.225-6.385,2.225-9.793c0-3.414-0.762-6.717-2.201-9.75c3.148-2.09,4.801-4.358,5.473-5.449
			C153.889,14.693,153.871,13.766,153.396,13.058z"/>
	</g>
	<path fill="#010202" d="M142.704,47.557c-1.178,1.109-2.451,2.098-3.802,2.967c-0.751-0.219-1.502-0.439-2.249-0.668
		c7.142-3.977,11.904-11.23,11.827-19.466c-0.017-1.818-0.277-3.583-0.739-5.273c0.664,0.33,1.329,0.655,1.994,0.979
		c0.284,1.397,0.444,2.826,0.457,4.277C150.253,36.842,147.593,42.943,142.704,47.557z"/>
	<path fill="#010202" d="M101.833,8.722c-0.171-0.17-0.268-0.375-0.322-0.589c-1.329,0.687-2.667,1.65-3.922,2.712
		c0.198,0.091,0.375,0.213,0.506,0.365c0.322,0.372,0.401,0.79,0.324,1.192c0.324-0.284,0.655-0.561,0.994-0.831
		c1.208-0.959,2.325-1.672,3.324-2.135C102.423,9.221,102.117,9.002,101.833,8.722z"/>
	<path fill="#010202" d="M151.239,11.456c0.1-0.219,0.259-0.381,0.44-0.506c-1.105-1.007-2.474-1.928-3.906-2.734
		c-0.016,0.216-0.07,0.425-0.167,0.601c-0.237,0.432-0.602,0.649-1.005,0.718c0.379,0.205,0.754,0.418,1.124,0.642
		c1.32,0.799,2.376,1.6,3.157,2.375C150.976,12.183,151.075,11.82,151.239,11.456z"/>
</g>
</svg>
