<?xml version="1.0" encoding="utf-8"?>
<!-- Generator: Adobe Illustrator 16.0.0, SVG Export Plug-In . SVG Version: 6.00 Build 0)  -->
<!DOCTYPE svg PUBLIC "-//W3C//DTD SVG 1.1//EN" "http://www.w3.org/Graphics/SVG/1.1/DTD/svg11.dtd">
<svg version="1.1" id="Livello_1" xmlns="http://www.w3.org/2000/svg" xmlns:xlink="http://www.w3.org/1999/xlink" x="0px" y="0px"
	 width="150px" height="60px" viewBox="0 0 150 60" enable-background="new 0 0 150 60" xml:space="preserve">
<path fill="#2E3E50" d="M152.5,57.248c0,1.52-1.294,2.752-2.894,2.752H-0.357c-1.597,0-2.893-1.232-2.893-2.752V2.751
	C-3.25,1.231-1.954,0-0.357,0h149.963c1.6,0,2.894,1.231,2.894,2.751V57.248z"/>
<g>
	<path fill="#FFFFFF" d="M5.198,47.997c-0.412-0.411-0.617-0.868-0.617-1.372c0-0.274,0.091-0.594,0.274-0.961l2.195-3.91
		c0.274-0.503,0.686-0.755,1.235-0.755c0.319,0,0.663,0.115,1.029,0.343c1.143,0.596,2.195,1.053,3.156,1.373
		c0.182,0.092,0.331,0.286,0.446,0.583c0.114,0.298,0.125,0.561,0.035,0.789c-0.137,0.504-0.823,2.401-2.059,5.694
		c-0.137,0.32-0.366,0.538-0.686,0.651c-0.32,0.115-0.617,0.104-0.892-0.034C7.394,49.621,6.021,48.82,5.198,47.997z M18.783,58.906
		c0,0-0.149-0.149-0.446-0.446c-0.298-0.298-0.446-0.676-0.446-1.132V54.31c0-0.55-0.08-1.099-0.24-1.647
		c-0.161-0.549-0.217-0.96-0.171-1.234c0.137-0.731,0.332-1.669,0.583-2.813c0.25-1.143,0.468-2.126,0.651-2.95
		c0.091-0.411,0.251-0.696,0.48-0.857c0.229-0.159,0.571-0.24,1.029-0.24l3.019,0.069c1.966,0,3.51-0.354,4.631-1.063
		c1.12-0.709,1.681-1.635,1.681-2.779c0-1.051-0.412-2.08-1.235-3.087c-0.458-0.64-1.225-1.143-2.299-1.51
		c-1.075-0.365-2.459-0.708-4.15-1.028l-2.196-0.549c-2.927-0.869-5.317-1.897-7.169-3.088c-1.852-1.188-3.442-2.927-4.768-5.214
		L7.6,26.043c-0.916-1.601-1.441-3.315-1.578-5.146c-0.092-2.744,0.8-5.26,2.676-7.547c1.875-2.287,4.459-3.979,7.753-5.077
		c0.96-0.274,1.44-0.892,1.44-1.853V3.059c0-0.457,0.148-0.834,0.446-1.132c0.297-0.297,0.651-0.446,1.063-0.446h3.979
		c0.412,0,0.777,0.149,1.098,0.446c0.319,0.298,0.48,0.675,0.48,1.132v2.745c0,0.549,0.137,0.926,0.412,1.132
		c0.274,0.206,0.799,0.355,1.578,0.446c2.424,0.321,4.551,0.938,6.381,1.852c1.829,0.961,3.156,1.808,3.979,2.539
		c0.594,0.458,0.892,1.007,0.892,1.646c0,0.184-0.046,0.412-0.137,0.687c-0.458,1.006-1.464,2.516-3.019,4.527
		c-0.274,0.321-0.686,0.48-1.235,0.48c-0.412,0-0.801-0.091-1.166-0.274c-1.51-0.731-2.974-1.326-4.391-1.784
		c-1.784-0.502-3.293-0.754-4.528-0.754c-1.189,0-2.584,0.274-4.185,0.823c-0.915,0.411-1.624,0.983-2.126,1.715
		c-0.504,0.732-0.755,1.465-0.755,2.195c0,1.007,0.412,1.853,1.235,2.539c0.777,0.549,1.635,1.006,2.573,1.372
		c0.937,0.366,2.207,0.801,3.808,1.304l1.715,0.549c2.607,0.96,4.803,1.841,6.586,2.641c1.784,0.801,3.132,1.705,4.048,2.71
		c1.235,1.372,2.024,2.734,2.367,4.083c0.343,1.35,0.514,2.778,0.514,4.287c0,3.477-1.281,6.29-3.842,8.439
		c-2.562,2.15-5.741,3.499-9.537,4.048c-0.778,0.137-1.166,0.504-1.166,1.098v3.225c0,0.411-0.149,0.777-0.446,1.098
		c-0.298,0.319-0.675,0.48-1.132,0.48H19.4C18.988,58.906,18.783,58.906,18.783,58.906z"/>
	<path fill="#FFFFFF" d="M108.383,53.657c-0.412-0.206-0.71-0.469-0.892-0.789c-0.184-0.319-0.515-0.926-0.995-1.818
		c-0.48-0.892-0.789-1.52-0.926-1.887c-0.138-0.274-0.206-0.549-0.206-0.823c0-0.549,0.274-1.098,0.823-1.646
		c4.436-4.802,8.93-9.696,13.481-14.682c4.551-4.985,7.672-8.415,9.364-10.291c0.229-0.229,0.525-0.344,0.893-0.344
		c0.365,0,0.64,0.115,0.823,0.344l4.871,4.254c0.229,0.229,0.343,0.526,0.343,0.892c0,0.366-0.114,0.663-0.343,0.892l-16.672,16.878
		c-0.458,0.457-0.686,0.801-0.686,1.028c0,0.367,0.456,0.55,1.372,0.55l21.268-0.206c0.366,0,0.663,0.114,0.893,0.343
		c0.229,0.229,0.343,0.526,0.343,0.892v5.42c0,0.321-0.114,0.607-0.343,0.858c-0.229,0.252-0.526,0.377-0.893,0.377h-31.284
		C109.206,53.942,108.794,53.863,108.383,53.657z M106.016,13.316c-0.252-0.251-0.377-0.537-0.377-0.858V7.107
		c0-0.365,0.125-0.674,0.377-0.926c0.251-0.25,0.537-0.377,0.857-0.377h34.029c0.32,0,0.606,0.126,0.858,0.377
		c0.251,0.252,0.377,0.561,0.377,0.926v5.351c0,0.321-0.114,0.607-0.343,0.858c-0.229,0.252-0.526,0.377-0.893,0.377h-34.029
		C106.553,13.693,106.267,13.568,106.016,13.316z"/>
</g>
<g>
	<g>
		<ellipse fill="#C797C4" cx="71.669" cy="29.985" rx="25.177" ry="23.312"/>
		<g>
			<path fill="#B069A8" d="M96.846,29.983c0,12.875-11.271,23.312-25.176,23.312c-0.675,0-1.344-0.025-2.006-0.074
				c12.967-0.945,23.17-10.988,23.17-23.238c0-12.249-10.203-22.291-23.17-23.238c0.662-0.048,1.331-0.074,2.006-0.074
				C85.574,6.671,96.846,17.11,96.846,29.983z"/>
			<ellipse fill="#B069A8" cx="71.689" cy="34.653" rx="10.068" ry="8.079"/>
		</g>
		<path fill="#C797C4" d="M59.795,6.449c-3.201-0.162-11.572,0.08-15.82,6.45c-0.287,0.432-0.299,0.995-0.025,1.438
			c0.935,1.522,3.615,5.052,9.4,7.364c0.077,0.029,0.154,0.061,0.232,0.09c6.479,2.514,7.367-9.88,7.484-13.963
			C61.087,7.097,60.523,6.486,59.795,6.449z"/>
		<path fill="#B069A8" d="M61.066,7.826c-0.117,4.083-1.006,16.479-7.486,13.963c-0.037-0.016-0.076-0.029-0.115-0.047
			c3.629-1.92,4.226-10.622,4.32-13.917c0.019-0.65-0.43-1.207-1.043-1.345c1.228-0.086,2.288-0.069,3.055-0.032
			C60.523,6.487,61.087,7.099,61.066,7.826z"/>
		<path fill="#C797C4" d="M84.396,6.449c3.202-0.162,11.575,0.08,15.821,6.45c0.287,0.432,0.299,0.995,0.025,1.438
			c-0.936,1.522-3.615,5.052-9.402,7.364c-0.076,0.029-0.152,0.061-0.23,0.09c-6.479,2.514-7.367-9.88-7.484-13.964
			C83.105,7.097,83.668,6.486,84.396,6.449z"/>
		<path fill="#B069A8" d="M100.242,14.336c-0.936,1.522-3.615,5.052-9.4,7.364c-0.077,0.03-0.154,0.061-0.232,0.09
			c-0.741,0.289-1.41,0.381-2.014,0.311c4.592-2.264,6.82-5.226,7.658-6.586c0.271-0.444,0.262-1.006-0.027-1.438
			c-3.322-4.985-9.171-6.217-13.093-6.439c0.071-0.643,0.597-1.154,1.262-1.188c3.202-0.161,11.573,0.08,15.821,6.45
			C100.506,13.33,100.516,13.894,100.242,14.336z"/>
		<path fill="#010202" d="M71.66,43.586c6.023,0,10.923-4.006,10.923-8.932c0-4.927-4.899-8.935-10.923-8.935
			c-6.022,0-10.923,4.008-10.923,8.935C60.737,39.58,65.638,43.586,71.66,43.586z M71.66,27.429c5.08,0,9.213,3.241,9.213,7.225
			c0,3.982-4.133,7.223-9.213,7.223c-5.079,0-9.211-3.24-9.211-7.223C62.449,30.67,66.581,27.429,71.66,27.429z"/>
		<path fill="#010202" d="M68.955,37.064c0.472,0,0.855-0.383,0.855-0.854v-3.115c0-0.473-0.384-0.854-0.855-0.854
			c-0.473,0-0.855,0.381-0.855,0.854v3.115C68.1,36.682,68.482,37.064,68.955,37.064z"/>
		<path fill="#010202" d="M74.367,37.064c0.471,0,0.854-0.383,0.854-0.854v-3.115c0-0.473-0.383-0.854-0.854-0.854
			c-0.474,0-0.856,0.381-0.856,0.854v3.115C73.511,36.682,73.894,37.064,74.367,37.064z"/>
		<circle fill="#010202" cx="63.003" cy="24.045" r="1.545"/>
		<circle fill="#010202" cx="81.105" cy="24.045" r="1.545"/>
		<path fill="#010202" d="M100.896,12.423c-0.479-0.725-1.035-1.404-1.643-2.019c-0.336-0.335-0.875-0.337-1.211-0.004
			c-0.336,0.332-0.338,0.873-0.006,1.208c0.533,0.538,1.016,1.131,1.438,1.763c0.105,0.155,0.107,0.359,0.01,0.516
			c-0.84,1.366-3.396,4.784-8.99,7.017c-0.074,0.029-0.148,0.059-0.223,0.088c-1.049,0.408-1.928,0.362-2.683-0.141
			c-1.237-0.82-2.23-2.884-2.872-5.966c-0.566-2.729-0.724-5.611-0.766-7.085c-0.008-0.266,0.194-0.485,0.46-0.498
			c2.171-0.11,6.379-0.019,10.145,1.834c0.424,0.209,0.938,0.035,1.146-0.391c0.209-0.423,0.033-0.936-0.391-1.145
			c-4.111-2.022-8.648-2.125-10.986-2.007c-1.183,0.06-2.117,1.072-2.084,2.255c0.002,0.017,0.002,0.034,0.002,0.05
			c-3.293-1.364-6.888-2.083-10.603-2.083c-3.399,0-6.7,0.604-9.76,1.752c-0.108-1.059-0.983-1.919-2.07-1.975
			c-2.324-0.118-6.835-0.016-10.938,1.984c-0.424,0.206-0.601,0.719-0.394,1.143c0.207,0.425,0.719,0.602,1.144,0.394
			c3.757-1.832,7.942-1.922,10.102-1.813c0.265,0.014,0.466,0.231,0.458,0.498c-0.041,1.474-0.199,4.355-0.766,7.085
			c-0.641,3.082-1.635,5.146-2.871,5.966c-0.756,0.503-1.634,0.549-2.684,0.141c-0.074-0.029-0.149-0.059-0.223-0.088
			c-5.595-2.233-8.15-5.651-8.99-7.016c-0.098-0.158-0.094-0.362,0.01-0.516c0.438-0.657,0.942-1.27,1.499-1.824
			c0.335-0.333,0.337-0.875,0.002-1.208c-0.331-0.336-0.874-0.337-1.208-0.004c-0.639,0.633-1.215,1.336-1.717,2.087
			c-0.471,0.708-0.487,1.636-0.043,2.36c0.623,1.015,2.1,3.049,4.836,5.01c-1.58,3.151-2.42,6.61-2.42,10.189
			c0,6.468,2.717,12.544,7.65,17.111C58.171,51.646,64.7,54.15,71.64,54.15c8.429,0,16.374-3.816,21.253-10.205
			c0.287-0.377,0.215-0.914-0.16-1.201c-0.375-0.285-0.912-0.215-1.199,0.162c-4.558,5.969-11.994,9.533-19.894,9.533
			c-13.41,0-24.32-10.074-24.32-22.457c0-3.289,0.773-6.417,2.157-9.236c1.029,0.623,2.201,1.217,3.527,1.747
			c0.08,0.032,0.16,0.063,0.239,0.093c0.678,0.265,1.327,0.396,1.945,0.396c0.825,0,1.597-0.236,2.303-0.705
			c3.138-2.082,4.073-8.384,4.331-12.836c3.004-1.229,6.326-1.914,9.817-1.914c3.836,0,7.465,0.827,10.695,2.293
			c0.288,4.425,1.257,10.434,4.308,12.457c0.707,0.469,1.476,0.705,2.302,0.705c0.618,0,1.269-0.132,1.946-0.396
			c0.079-0.03,0.159-0.061,0.238-0.093c1.049-0.419,1.998-0.878,2.859-1.358c1.268,2.716,1.973,5.707,1.973,8.85
			c0,3.15-0.691,6.195-2.059,9.052c-0.202,0.426-0.022,0.938,0.403,1.141c0.427,0.203,0.938,0.023,1.142-0.402
			c1.475-3.09,2.225-6.385,2.225-9.792c0-3.414-0.762-6.717-2.201-9.75c3.148-2.09,4.801-4.358,5.473-5.449
			C101.389,14.059,101.371,13.132,100.896,12.423z"/>
	</g>
	<path fill="#010202" d="M90.204,46.922c-1.178,1.109-2.451,2.099-3.802,2.967c-0.751-0.218-1.502-0.439-2.249-0.667
		c7.142-3.977,11.904-11.23,11.827-19.466c-0.017-1.818-0.277-3.583-0.739-5.273c0.664,0.33,1.329,0.655,1.994,0.979
		c0.284,1.397,0.444,2.826,0.457,4.277C97.753,36.207,95.093,42.309,90.204,46.922z"/>
	<path fill="#010202" d="M49.333,8.087c-0.171-0.17-0.268-0.375-0.322-0.589c-1.329,0.687-2.667,1.65-3.922,2.712
		c0.198,0.091,0.375,0.213,0.506,0.365c0.322,0.372,0.401,0.79,0.324,1.192c0.324-0.284,0.655-0.561,0.994-0.831
		c1.208-0.959,2.325-1.672,3.324-2.135C49.923,8.587,49.617,8.368,49.333,8.087z"/>
	<path fill="#010202" d="M98.739,10.822c0.1-0.219,0.259-0.381,0.44-0.506c-1.105-1.007-2.474-1.928-3.906-2.734
		c-0.016,0.216-0.07,0.425-0.167,0.601c-0.237,0.432-0.602,0.649-1.005,0.718c0.379,0.205,0.754,0.418,1.124,0.642
		c1.32,0.799,2.376,1.6,3.157,2.375C98.476,11.549,98.575,11.186,98.739,10.822z"/>
</g>
</svg>
