<?xml version="1.0" encoding="utf-8"?>
<!-- Generator: Adobe Illustrator 16.0.0, SVG Export Plug-In . SVG Version: 6.00 Build 0)  -->
<!DOCTYPE svg PUBLIC "-//W3C//DTD SVG 1.1//EN" "http://www.w3.org/Graphics/SVG/1.1/DTD/svg11.dtd">
<svg version="1.1" id="Livello_1" xmlns="http://www.w3.org/2000/svg" xmlns:xlink="http://www.w3.org/1999/xlink" x="0px" y="0px"
	 width="900px" height="650px" viewBox="0 0 900 650" enable-background="new 0 0 900 650" xml:space="preserve">
<rect x="0.32" y="0" fill="#CD7F32" width="900" height="650"/>
<path fill="#39B54A" d="M618.166,326.748c0,93.283-75.617,168.9-168.897,168.9c-93.279,0-168.896-75.617-168.896-168.9
	c0-93.282,75.616-168.896,168.896-168.896C542.549,157.852,618.166,233.467,618.166,326.748z"/>
<circle fill="#BA712F" cx="449.061" cy="302.459" r="93.68"/>
<g>
	<path fill="#40596B" d="M373.17,357.264l-32.233,55.873l37.62-1.996l17.092,33.58l29.818-51.693
		C404.102,387.5,385.756,374.635,373.17,357.264z"/>
	<path fill="#40596B" d="M525.138,356.987c-12.494,17.416-30.84,30.328-52.158,35.947l29.91,51.787l17.092-33.58l37.621,1.996
		L525.138,356.987z"/>
</g>
<circle fill="#75663F" cx="449.061" cy="302.459" r="67.903"/>
<path fill="#FFFFFF" d="M495.599,295.12c2.09-2.043,0.928-5.62-1.951-6.038l-26.799-3.9c-1.162-0.187-2.137-0.882-2.648-1.95
	l-11.981-24.291c-1.301-2.647-5.063-2.647-6.363,0l-11.936,24.291c-0.513,1.021-1.533,1.765-2.647,1.95l-26.799,3.9
	c-2.88,0.418-4.041,3.995-1.951,6.038l19.368,18.903c0.836,0.836,1.207,1.997,1.021,3.111l-4.552,26.659
	c-0.511,2.879,2.555,5.109,5.155,3.718l23.966-12.589c1.021-0.557,2.275-0.557,3.297,0l23.965,12.589
	c2.603,1.346,5.621-0.839,5.156-3.718l-4.598-26.659c-0.187-1.161,0.186-2.322,1.021-3.111L495.599,295.12z"/>
</svg>
