<?xml version="1.0" encoding="utf-8"?>
<!-- Generator: Adobe Illustrator 16.0.0, SVG Export Plug-In . SVG Version: 6.00 Build 0)  -->
<!DOCTYPE svg PUBLIC "-//W3C//DTD SVG 1.1//EN" "http://www.w3.org/Graphics/SVG/1.1/DTD/svg11.dtd">
<svg version="1.1" id="Livello_1" xmlns="http://www.w3.org/2000/svg" xmlns:xlink="http://www.w3.org/1999/xlink" x="0px" y="0px"
	 width="900px" height="650px" viewBox="0 0 900 650" enable-background="new 0 0 900 650" xml:space="preserve">
<rect x="1.461" y="0" fill="#FFD700" width="898.539" height="650"/>
<path fill="#39B54A" d="M618.897,324.999c0,93.283-75.617,168.9-168.896,168.9s-168.896-75.617-168.896-168.9
	c0-93.281,75.617-168.896,168.896-168.896C543.28,156.102,618.897,231.718,618.897,324.999z"/>
<circle fill="#FFD15C" cx="449.791" cy="300.709" r="93.679"/>
<g>
	<path fill="#40596B" d="M373.901,355.514l-32.232,55.873l37.619-1.996l17.093,33.58l29.817-51.693
		C404.832,385.75,386.487,372.885,373.901,355.514z"/>
	<path fill="#40596B" d="M525.868,355.237c-12.493,17.416-30.84,30.328-52.157,35.947l29.91,51.787l17.093-33.58l37.62,1.996
		L525.868,355.237z"/>
</g>
<circle fill="#F8B64C" cx="449.791" cy="300.709" r="67.903"/>
<path fill="#FFFFFF" d="M496.329,293.371c2.091-2.043,0.93-5.62-1.95-6.038l-26.8-3.9c-1.161-0.187-2.136-0.882-2.646-1.95
	l-11.983-24.292c-1.301-2.647-5.063-2.647-6.362,0l-11.937,24.291c-0.512,1.021-1.533,1.765-2.646,1.95l-26.8,3.9
	c-2.88,0.418-4.04,3.995-1.95,6.038l19.367,18.903c0.836,0.836,1.207,1.997,1.021,3.111l-4.552,26.659
	c-0.511,2.879,2.555,5.109,5.154,3.718l23.967-12.589c1.021-0.557,2.274-0.557,3.298,0l23.965,12.589
	c2.602,1.346,5.62-0.839,5.155-3.718l-4.599-26.659c-0.186-1.161,0.187-2.322,1.022-3.111L496.329,293.371z"/>
</svg>
