<?xml version="1.0" encoding="utf-8"?>
<!-- Generator: Adobe Illustrator 16.0.0, SVG Export Plug-In . SVG Version: 6.00 Build 0)  -->
<!DOCTYPE svg PUBLIC "-//W3C//DTD SVG 1.1//EN" "http://www.w3.org/Graphics/SVG/1.1/DTD/svg11.dtd">
<svg version="1.1" id="Livello_1" xmlns="http://www.w3.org/2000/svg" xmlns:xlink="http://www.w3.org/1999/xlink" x="0px" y="0px"
	 width="150px" height="60px" viewBox="0 0 150 60" enable-background="new 0 0 150 60" xml:space="preserve">
<path fill="#2E3E50" d="M250.411,81.383c0,2.826-2.559,5.117-5.719,5.117H-51.824c-3.159,0-5.72-2.291-5.72-5.117V-19.953
	c0-2.826,2.561-5.116,5.72-5.116h296.517c3.16,0,5.719,2.29,5.719,5.116V81.383z"/>
<g>
	<g>
		<g>
			<path fill="#E6007E" d="M90.409,51.754c0,0-0.211,0.012-0.63,0.035c-0.421,0.023-0.801-0.119-1.141-0.422l-2.25-2.014
				c-0.409-0.367-0.872-0.674-1.388-0.92c-0.517-0.246-0.86-0.479-1.034-0.695c-0.453-0.59-1.023-1.359-1.708-2.311
				c-0.685-0.949-1.271-1.766-1.764-2.453c-0.246-0.342-0.353-0.65-0.319-0.93c0.034-0.275,0.202-0.586,0.508-0.926l2.064-2.203
				c1.311-1.467,2.075-2.854,2.295-4.162c0.219-1.307-0.098-2.342-0.951-3.105c-0.783-0.701-1.824-1.08-3.124-1.137
				c-0.781-0.086-1.668,0.15-2.657,0.706c-0.988,0.559-2.167,1.361-3.534,2.408l-1.872,1.27c-2.601,1.604-4.959,2.697-7.082,3.285
				c-2.121,0.588-4.476,0.613-7.065,0.076l-0.295-0.08c-1.804-0.385-3.431-1.137-4.887-2.254c-2.106-1.762-3.387-4.104-3.84-7.027
				c-0.455-2.923,0.008-5.978,1.385-9.163c0.436-0.898,0.296-1.668-0.42-2.309l-2.505-2.242c-0.341-0.305-0.522-0.666-0.546-1.087
				c-0.024-0.42,0.103-0.783,0.377-1.09l2.653-2.966c0.274-0.307,0.628-0.48,1.064-0.521c0.436-0.039,0.823,0.092,1.164,0.396
				l2.045,1.83c0.409,0.366,0.782,0.516,1.118,0.448s0.798-0.36,1.385-0.879c1.854-1.593,3.732-2.766,5.634-3.521
				c1.935-0.722,3.451-1.146,4.545-1.272c0.737-0.137,1.346,0.007,1.822,0.434c0.137,0.122,0.275,0.309,0.42,0.56
				c0.443,1.012,0.897,2.769,1.361,5.269c0.056,0.419-0.101,0.832-0.466,1.241c-0.274,0.307-0.602,0.536-0.982,0.686
				c-1.551,0.638-2.971,1.332-4.258,2.083c-1.563,0.994-2.757,1.951-3.58,2.872c-0.794,0.887-1.52,2.109-2.178,3.668
				c-0.304,0.956-0.35,1.865-0.14,2.729s0.589,1.539,1.133,2.026c0.751,0.671,1.655,0.928,2.716,0.772
				c0.928-0.214,1.84-0.548,2.738-1.003c0.897-0.454,2.067-1.11,3.51-1.969l1.554-0.912c2.453-1.303,4.574-2.352,6.359-3.147
				s3.358-1.198,4.718-1.21c1.846-0.006,3.388,0.314,4.621,0.958c1.235,0.645,2.414,1.469,3.539,2.475
				c2.591,2.318,3.833,5.149,3.727,8.492c-0.105,3.342-1.219,6.611-3.342,9.805c-0.416,0.672-0.401,1.205,0.041,1.602l2.403,2.15
				c0.307,0.273,0.479,0.629,0.521,1.064c0.039,0.436-0.093,0.824-0.396,1.164l-2.653,2.965
				C90.547,51.6,90.409,51.754,90.409,51.754z M73.222,54.604c-0.581,0.033-1.06-0.119-1.435-0.455
				c-0.205-0.182-0.381-0.463-0.532-0.844l-1.45-4.244c-0.192-0.539-0.106-1.014,0.26-1.424c0.213-0.238,0.527-0.416,0.942-0.539
				c1.206-0.453,2.248-0.934,3.127-1.436c0.19-0.074,0.435-0.057,0.732,0.057s0.502,0.279,0.61,0.5
				c0.284,0.438,1.241,2.215,2.872,5.33c0.146,0.316,0.156,0.633,0.028,0.947s-0.335,0.527-0.62,0.641
				C75.896,54.051,74.384,54.539,73.222,54.604z"/>
		</g>
		<path fill="#2E3E50" d="M61.195,78.921c3.725,3.33,9.444,3.014,12.775-0.711l40.215-44.949c3.33-3.725,3.014-9.444-0.709-12.776
			L86.928-3.267c-3.724-3.332-9.443-3.013-12.775,0.71L33.937,42.394c-3.331,3.723-3.013,9.443,0.711,12.773L61.195,78.921z"/>
	</g>
	<g>
		<circle fill="#FFFFFF" cx="65.584" cy="25.757" r="2.482"/>
		<circle cx="66.081" cy="26.268" r="1.021"/>
	</g>
	<g>
		<ellipse fill="#E6007E" cx="72.554" cy="34.028" rx="6.465" ry="3.799"/>
	</g>
	<g>
		<circle fill="#FFFFFF" cx="79.522" cy="25.757" r="2.481"/>
		<circle cx="79.027" cy="26.268" r="1.021"/>
	</g>
	<circle fill="#FFFFFF" cx="69.087" cy="34.028" r="1.021"/>
	<circle fill="#FFFFFF" cx="76.02" cy="34.028" r="1.021"/>
	<line fill="none" x1="30.635" y1="6.067" x2="68.066" y2="6.067"/>
</g>
<g>
	<path fill="#FFFFFF" d="M5.198,47.997c-0.412-0.411-0.617-0.868-0.617-1.372c0-0.274,0.091-0.594,0.274-0.961l2.195-3.91
		c0.274-0.503,0.686-0.755,1.235-0.755c0.319,0,0.663,0.115,1.029,0.343c1.143,0.596,2.195,1.053,3.156,1.373
		c0.182,0.092,0.331,0.286,0.446,0.583c0.114,0.298,0.125,0.561,0.035,0.789c-0.137,0.504-0.823,2.401-2.059,5.694
		c-0.137,0.32-0.366,0.538-0.686,0.651c-0.32,0.115-0.617,0.104-0.892-0.034C7.394,49.621,6.021,48.82,5.198,47.997z M18.783,58.906
		c0,0-0.149-0.149-0.446-0.446c-0.298-0.298-0.446-0.676-0.446-1.132V54.31c0-0.55-0.08-1.099-0.24-1.647
		c-0.161-0.549-0.217-0.96-0.171-1.234c0.137-0.731,0.332-1.669,0.583-2.813c0.25-1.143,0.468-2.126,0.651-2.95
		c0.091-0.411,0.251-0.696,0.48-0.857c0.229-0.159,0.571-0.24,1.029-0.24l3.019,0.069c1.966,0,3.51-0.354,4.631-1.063
		c1.12-0.709,1.681-1.635,1.681-2.779c0-1.051-0.412-2.08-1.235-3.087c-0.458-0.64-1.225-1.143-2.299-1.51
		c-1.075-0.365-2.459-0.708-4.15-1.028l-2.196-0.549c-2.927-0.869-5.317-1.897-7.169-3.088c-1.852-1.188-3.442-2.927-4.768-5.214
		L7.6,26.043c-0.916-1.601-1.441-3.315-1.578-5.146c-0.092-2.744,0.8-5.26,2.676-7.547c1.875-2.287,4.459-3.979,7.753-5.077
		c0.96-0.274,1.44-0.892,1.44-1.853V3.059c0-0.457,0.148-0.834,0.446-1.132c0.297-0.297,0.651-0.446,1.063-0.446h3.979
		c0.412,0,0.777,0.149,1.098,0.446c0.319,0.298,0.48,0.675,0.48,1.132v2.745c0,0.549,0.137,0.926,0.412,1.132
		c0.274,0.206,0.799,0.355,1.578,0.446c2.424,0.321,4.551,0.938,6.381,1.852c1.829,0.961,3.156,1.808,3.979,2.539
		c0.594,0.458,0.892,1.007,0.892,1.646c0,0.184-0.046,0.412-0.137,0.687c-0.458,1.006-1.464,2.516-3.019,4.527
		c-0.274,0.321-0.686,0.48-1.235,0.48c-0.412,0-0.801-0.091-1.166-0.274c-1.51-0.731-2.974-1.326-4.391-1.784
		c-1.784-0.502-3.293-0.754-4.528-0.754c-1.189,0-2.584,0.274-4.185,0.823c-0.915,0.411-1.624,0.983-2.126,1.715
		c-0.504,0.732-0.755,1.465-0.755,2.195c0,1.007,0.412,1.853,1.235,2.539c0.777,0.549,1.635,1.006,2.573,1.372
		c0.937,0.366,2.207,0.801,3.808,1.304l1.715,0.549c2.607,0.96,4.803,1.841,6.586,2.641c1.784,0.801,3.132,1.705,4.048,2.71
		c1.235,1.372,2.024,2.734,2.367,4.083c0.343,1.35,0.514,2.778,0.514,4.287c0,3.477-1.281,6.29-3.842,8.439
		c-2.562,2.15-5.741,3.499-9.537,4.048c-0.778,0.137-1.166,0.504-1.166,1.098v3.225c0,0.411-0.149,0.777-0.446,1.098
		c-0.298,0.319-0.675,0.48-1.132,0.48H19.4C18.988,58.906,18.783,58.906,18.783,58.906z"/>
	<path fill="#E6007E" d="M50.341,40.21c-1.509-3.361-2.264-6.849-2.264-10.462c0-2.836,0.468-5.614,1.406-8.336
		c0.937-2.721,2.344-5.203,4.22-7.444c2.24-2.744,4.871-4.859,7.89-6.346c3.019-1.486,6.197-2.321,9.537-2.505h0.137
		c0.365,0,0.674,0.138,0.926,0.412c0.25,0.274,0.4,0.617,0.446,1.029v5.969c0,0.869-0.48,1.35-1.441,1.44
		c-2.058,0.184-4.025,0.767-5.9,1.75c-1.876,0.983-3.454,2.298-4.734,3.944c-2.47,3.019-3.705,6.427-3.705,10.223
		c0,2.288,0.48,4.494,1.441,6.621c0.96,2.126,2.333,3.944,4.116,5.454c3.019,2.47,6.403,3.704,10.154,3.704
		c2.287,0,4.483-0.479,6.586-1.44c2.104-0.96,3.887-2.355,5.352-4.185c1.234-1.464,2.161-3.076,2.779-4.837
		c0.617-1.761,0.926-3.556,0.926-5.386c0-2.607-0.572-5.031-1.715-7.272c-0.23-0.457-0.344-0.915-0.344-1.372
		c0-0.594,0.274-1.12,0.823-1.578c0.366-0.229,1.074-0.709,2.127-1.44c1.052-0.731,1.716-1.189,1.989-1.373
		c0.365-0.228,0.709-0.343,1.029-0.343c0.731,0,1.28,0.343,1.646,1.029c2.195,3.842,3.293,7.982,3.293,12.418
		c0,2.882-0.48,5.684-1.44,8.404c-0.96,2.722-2.378,5.204-4.253,7.444c-2.242,2.881-5.043,5.089-8.404,6.62
		c-3.362,1.533-6.873,2.299-10.532,2.299c-2.881,0-5.672-0.492-8.37-1.476c-2.699-0.982-5.1-2.412-7.204-4.288
		C54.022,46.465,51.851,43.572,50.341,40.21z"/>
	<path fill="#FFFFFF" d="M108.383,53.657c-0.412-0.206-0.71-0.469-0.892-0.789c-0.184-0.319-0.515-0.926-0.995-1.818
		c-0.48-0.892-0.789-1.52-0.926-1.887c-0.138-0.274-0.206-0.549-0.206-0.823c0-0.549,0.274-1.098,0.823-1.646
		c4.436-4.802,8.93-9.696,13.481-14.682c4.551-4.985,7.672-8.415,9.364-10.291c0.229-0.229,0.525-0.344,0.893-0.344
		c0.365,0,0.64,0.115,0.823,0.344l4.871,4.254c0.229,0.229,0.343,0.526,0.343,0.892c0,0.366-0.114,0.663-0.343,0.892l-16.672,16.878
		c-0.458,0.457-0.686,0.801-0.686,1.028c0,0.367,0.456,0.55,1.372,0.55l21.268-0.206c0.366,0,0.663,0.114,0.893,0.343
		c0.229,0.229,0.343,0.526,0.343,0.892v5.42c0,0.321-0.114,0.607-0.343,0.858c-0.229,0.252-0.526,0.377-0.893,0.377h-31.284
		C109.206,53.942,108.794,53.863,108.383,53.657z M106.016,13.316c-0.252-0.251-0.377-0.537-0.377-0.858V7.107
		c0-0.365,0.125-0.674,0.377-0.926c0.251-0.25,0.537-0.377,0.857-0.377h34.029c0.32,0,0.606,0.126,0.858,0.377
		c0.251,0.252,0.377,0.561,0.377,0.926v5.351c0,0.321-0.114,0.607-0.343,0.858c-0.229,0.252-0.526,0.377-0.893,0.377h-34.029
		C106.553,13.693,106.267,13.568,106.016,13.316z"/>
</g>
</svg>
