<?xml version="1.0" encoding="utf-8"?>
<!-- Generator: Adobe Illustrator 16.0.0, SVG Export Plug-In . SVG Version: 6.00 Build 0)  -->
<!DOCTYPE svg PUBLIC "-//W3C//DTD SVG 1.1//EN" "http://www.w3.org/Graphics/SVG/1.1/DTD/svg11.dtd">
<svg version="1.1" id="Livello_1" xmlns="http://www.w3.org/2000/svg" xmlns:xlink="http://www.w3.org/1999/xlink" x="0px" y="0px"
	 width="300px" height="60px" viewBox="0 0 300 60" enable-background="new 0 0 300 60" xml:space="preserve">
<path fill="#2E3E50" d="M302.579,77.896c0,2.549-2.56,4.615-5.72,4.615H0.343c-3.159,0-5.72-2.066-5.72-4.615v-91.401
	c0-2.549,2.561-4.614,5.72-4.614h296.516c3.16,0,5.72,2.065,5.72,4.614V77.896z"/>
<g>
	<g>
		<path fill="#E6007E" d="M141.909,51.592c0,0-0.211,0.012-0.63,0.035c-0.421,0.023-0.801-0.117-1.141-0.422l-2.25-2.012
			c-0.409-0.367-0.872-0.674-1.388-0.92c-0.517-0.246-0.86-0.479-1.034-0.695c-0.453-0.59-1.023-1.361-1.708-2.311
			s-1.271-1.768-1.764-2.453c-0.246-0.342-0.353-0.652-0.319-0.93c0.034-0.275,0.202-0.586,0.508-0.928l2.064-2.203
			c1.311-1.465,2.075-2.852,2.295-4.16c0.219-1.309-0.098-2.344-0.951-3.105c-0.783-0.702-1.824-1.081-3.124-1.138
			c-0.781-0.086-1.668,0.15-2.657,0.707c-0.988,0.557-2.167,1.359-3.534,2.406l-1.872,1.271c-2.601,1.602-4.959,2.697-7.082,3.283
			c-2.121,0.588-4.476,0.615-7.065,0.078l-0.295-0.082c-1.804-0.385-3.431-1.137-4.887-2.254c-2.106-1.762-3.387-4.104-3.84-7.026
			c-0.455-2.923,0.008-5.978,1.385-9.163c0.436-0.898,0.296-1.668-0.42-2.309l-2.505-2.242c-0.341-0.305-0.522-0.666-0.546-1.087
			c-0.024-0.42,0.103-0.783,0.377-1.09l2.653-2.966c0.274-0.307,0.628-0.48,1.064-0.521c0.436-0.039,0.823,0.092,1.164,0.396
			l2.045,1.83c0.409,0.366,0.782,0.516,1.118,0.448s0.798-0.36,1.385-0.879c1.854-1.593,3.732-2.766,5.634-3.521
			c1.935-0.722,3.451-1.146,4.545-1.272c0.737-0.137,1.346,0.007,1.822,0.434c0.137,0.122,0.275,0.309,0.42,0.56
			c0.443,1.012,0.897,2.769,1.361,5.269c0.056,0.419-0.101,0.832-0.466,1.241c-0.274,0.307-0.602,0.536-0.982,0.686
			c-1.551,0.638-2.971,1.332-4.258,2.083c-1.563,0.994-2.757,1.951-3.58,2.872c-0.794,0.887-1.52,2.109-2.178,3.668
			c-0.304,0.956-0.35,1.865-0.14,2.729s0.589,1.539,1.133,2.026c0.751,0.671,1.655,0.928,2.716,0.772
			c0.928-0.214,1.84-0.548,2.738-1.003c0.897-0.454,2.067-1.11,3.51-1.969l1.554-0.912c2.453-1.303,4.574-2.352,6.359-3.147
			s3.358-1.198,4.718-1.21c1.846-0.006,3.388,0.314,4.621,0.958c1.235,0.645,2.414,1.469,3.539,2.475
			c2.591,2.318,3.833,5.149,3.727,8.491c-0.105,3.344-1.219,6.611-3.342,9.807c-0.416,0.672-0.401,1.205,0.041,1.602l2.403,2.15
			c0.307,0.273,0.479,0.629,0.521,1.064c0.039,0.434-0.093,0.822-0.396,1.164l-2.653,2.965
			C142.047,51.439,141.909,51.592,141.909,51.592z M124.722,54.443c-0.581,0.031-1.06-0.119-1.435-0.455
			c-0.205-0.184-0.381-0.465-0.532-0.846l-1.45-4.244c-0.192-0.539-0.106-1.014,0.26-1.422c0.213-0.238,0.527-0.418,0.942-0.539
			c1.206-0.455,2.248-0.936,3.127-1.438c0.19-0.074,0.435-0.055,0.732,0.057c0.298,0.113,0.502,0.281,0.61,0.5
			c0.284,0.439,1.241,2.215,2.872,5.332c0.146,0.314,0.156,0.631,0.028,0.945c-0.128,0.316-0.335,0.529-0.62,0.643
			C127.396,53.889,125.884,54.379,124.722,54.443z"/>
	</g>
	<path fill="#2E3E50" d="M112.695,78.76c3.725,3.33,9.444,3.014,12.775-0.711L165.686,33.1c3.33-3.725,3.014-9.444-0.709-12.776
		L138.428-3.428c-3.724-3.332-9.443-3.013-12.775,0.71L85.437,42.232c-3.331,3.723-3.013,9.443,0.711,12.773L112.695,78.76z"/>
</g>
<g>
	<path fill="#FFFFFF" d="M11.032,48.295c-0.412-0.412-0.617-0.869-0.617-1.373c0-0.273,0.091-0.594,0.274-0.961l2.195-3.91
		c0.274-0.502,0.686-0.754,1.235-0.754c0.319,0,0.663,0.115,1.029,0.342c1.143,0.596,2.195,1.053,3.156,1.373
		c0.182,0.092,0.331,0.287,0.446,0.584c0.114,0.297,0.125,0.561,0.035,0.789c-0.137,0.504-0.823,2.4-2.059,5.693
		c-0.137,0.32-0.366,0.539-0.686,0.652c-0.32,0.115-0.617,0.104-0.892-0.035C13.228,49.918,11.855,49.117,11.032,48.295z
		 M24.617,59.203c0,0-0.149-0.148-0.446-0.445c-0.298-0.299-0.446-0.676-0.446-1.133v-3.018c0-0.551-0.08-1.1-0.24-1.648
		c-0.161-0.549-0.217-0.959-0.171-1.234c0.137-0.73,0.332-1.668,0.583-2.813c0.25-1.143,0.468-2.127,0.651-2.951
		c0.091-0.41,0.251-0.695,0.48-0.857c0.229-0.158,0.571-0.24,1.029-0.24l3.019,0.07c1.966,0,3.51-0.355,4.631-1.064
		c1.12-0.709,1.681-1.635,1.681-2.779c0-1.051-0.412-2.08-1.235-3.086c-0.458-0.641-1.225-1.143-2.299-1.51
		c-1.075-0.365-2.459-0.709-4.15-1.029l-2.196-0.549c-2.927-0.869-5.317-1.896-7.169-3.088c-1.852-1.188-3.442-2.926-4.768-5.213
		l-0.137-0.274c-0.916-1.601-1.441-3.315-1.578-5.146c-0.092-2.744,0.8-5.26,2.676-7.547c1.875-2.287,4.459-3.979,7.753-5.077
		c0.96-0.274,1.44-0.892,1.44-1.853V3.356c0-0.457,0.148-0.834,0.446-1.132c0.297-0.297,0.651-0.446,1.063-0.446h3.979
		c0.412,0,0.777,0.149,1.098,0.446c0.319,0.298,0.48,0.675,0.48,1.132v2.745c0,0.549,0.137,0.926,0.412,1.132
		c0.274,0.206,0.799,0.355,1.578,0.446C35.205,8,37.332,8.617,39.162,9.531c1.829,0.961,3.156,1.808,3.979,2.539
		c0.594,0.458,0.892,1.007,0.892,1.646c0,0.184-0.046,0.412-0.137,0.687c-0.458,1.006-1.464,2.516-3.019,4.527
		c-0.274,0.321-0.686,0.48-1.235,0.48c-0.412,0-0.801-0.091-1.166-0.274c-1.51-0.731-2.974-1.326-4.391-1.784
		c-1.784-0.502-3.293-0.754-4.528-0.754c-1.189,0-2.584,0.274-4.185,0.823c-0.915,0.411-1.624,0.983-2.126,1.715
		c-0.504,0.732-0.755,1.465-0.755,2.195c0,1.007,0.412,1.853,1.235,2.539c0.777,0.549,1.635,1.006,2.573,1.372
		c0.937,0.366,2.207,0.801,3.808,1.304l1.715,0.549c2.607,0.96,4.803,1.841,6.586,2.641c1.784,0.801,3.132,1.706,4.048,2.709
		c1.235,1.373,2.024,2.734,2.367,4.084c0.343,1.35,0.514,2.777,0.514,4.287c0,3.477-1.281,6.289-3.842,8.439
		c-2.562,2.15-5.741,3.498-9.537,4.047c-0.778,0.137-1.166,0.504-1.166,1.098v3.225c0,0.412-0.149,0.777-0.446,1.098
		c-0.298,0.32-0.675,0.48-1.132,0.48h-3.979C24.822,59.203,24.617,59.203,24.617,59.203z"/>
	<path fill="#FFFFFF" d="M55.935,38.725c-0.206-0.207-0.309-0.447-0.309-0.721V7.13c0-0.274,0.103-0.515,0.309-0.72
		c0.206-0.206,0.446-0.309,0.72-0.309h7.135c0.274,0,0.515,0.103,0.721,0.309c0.206,0.206,0.309,0.446,0.309,0.72v30.874
		c0,0.273-0.103,0.514-0.309,0.721c-0.206,0.205-0.446,0.309-0.721,0.309h-7.135C56.381,39.033,56.141,38.93,55.935,38.725z
		 M81.526,53.818c-0.252-0.252-0.377-0.537-0.377-0.859V36.426c0-0.365-0.115-0.662-0.343-0.893
		c-0.229-0.229-0.526-0.342-0.892-0.342h-8.576c-0.32,0-0.607-0.127-0.857-0.379c-0.252-0.25-0.377-0.537-0.377-0.857v-5.832
		c0-0.365,0.125-0.662,0.377-0.892c0.25-0.229,0.537-0.343,0.857-0.343h8.576c0.365,0,0.662-0.126,0.892-0.378
		c0.229-0.25,0.343-0.537,0.343-0.857V7.336c0-0.32,0.125-0.606,0.377-0.858c0.25-0.25,0.537-0.377,0.857-0.377h6.998
		c0.319,0,0.605,0.126,0.857,0.377c0.251,0.252,0.377,0.538,0.377,0.858v45.623c0,0.322-0.115,0.607-0.343,0.859
		c-0.229,0.252-0.526,0.377-0.892,0.377h-6.998C82.063,54.195,81.776,54.07,81.526,53.818z"/>
	<path fill="#E6007E" d="M102.142,40.508c-1.509-3.361-2.264-6.85-2.264-10.462c0-2.836,0.468-5.614,1.406-8.336
		c0.937-2.721,2.344-5.203,4.22-7.444c2.24-2.744,4.871-4.859,7.89-6.346s6.197-2.321,9.536-2.505h0.138
		c0.365,0,0.674,0.138,0.926,0.412c0.251,0.274,0.4,0.617,0.446,1.029v5.969c0,0.869-0.48,1.35-1.44,1.44
		c-2.059,0.184-4.025,0.767-5.9,1.75c-1.876,0.983-3.454,2.298-4.734,3.944c-2.47,3.019-3.705,6.427-3.705,10.223
		c0,2.289,0.48,4.494,1.441,6.621c0.96,2.127,2.333,3.945,4.116,5.455c3.019,2.469,6.403,3.703,10.154,3.703
		c2.286,0,4.481-0.479,6.586-1.439c2.104-0.961,3.887-2.355,5.352-4.186c1.235-1.463,2.161-3.076,2.778-4.836
		c0.618-1.762,0.927-3.557,0.927-5.386c0-2.607-0.572-5.031-1.716-7.272c-0.229-0.457-0.343-0.915-0.343-1.372
		c0-0.594,0.274-1.12,0.823-1.578c0.365-0.229,1.074-0.709,2.127-1.44c1.052-0.731,1.715-1.189,1.989-1.373
		c0.366-0.228,0.709-0.343,1.029-0.343c0.731,0,1.28,0.343,1.646,1.029c2.195,3.842,3.294,7.982,3.294,12.418
		c0,2.882-0.48,5.683-1.441,8.404c-0.96,2.723-2.379,5.205-4.254,7.445c-2.241,2.881-5.042,5.088-8.404,6.619
		c-3.361,1.533-6.872,2.299-10.531,2.299c-2.881,0-5.672-0.492-8.37-1.475c-2.699-0.982-5.1-2.412-7.204-4.289
		C105.823,46.762,103.651,43.869,102.142,40.508z"/>
	<path fill="#FFFFFF" d="M158.503,53.818c-0.252-0.252-0.378-0.537-0.378-0.859V29.016c0-0.366,0.126-0.675,0.378-0.927
		c0.251-0.251,0.537-0.377,0.857-0.377h15.162c1.738,0,3.235-0.617,4.494-1.853c1.257-1.235,1.887-2.721,1.887-4.46
		c0-1.783-0.63-3.293-1.887-4.527c-1.259-1.235-2.756-1.853-4.494-1.853H159.36c-0.32,0-0.606-0.126-0.857-0.378
		c-0.252-0.25-0.378-0.56-0.378-0.926V7.404c0-0.365,0.126-0.674,0.378-0.926c0.251-0.25,0.537-0.377,0.857-0.377h15.162
		c2.744,0,5.283,0.686,7.615,2.059c2.333,1.371,4.186,3.235,5.558,5.591c1.372,2.356,2.059,4.905,2.059,7.649
		c0,2.745-0.687,5.283-2.059,7.616c-1.372,2.332-3.225,4.185-5.558,5.556c-2.332,1.373-4.871,2.059-7.615,2.059h-7.272
		c-0.504,0-0.847,0.068-1.029,0.207c-0.183,0.137-0.274,0.41-0.274,0.822v15.299c0,0.367-0.126,0.664-0.377,0.893
		c-0.252,0.23-0.561,0.344-0.927,0.344h-5.282C159.04,54.195,158.754,54.07,158.503,53.818z"/>
	<path fill="#FFFFFF" d="M200.353,14.231c-0.251-0.251-0.377-0.56-0.377-0.927v-5.9c0-0.365,0.126-0.663,0.377-0.892
		c0.251-0.229,0.537-0.343,0.858-0.343h31.834c0.365,0,0.674,0.126,0.926,0.377c0.251,0.252,0.377,0.538,0.377,0.857v5.9
		c0,0.321-0.126,0.618-0.377,0.893c-0.252,0.274-0.561,0.411-0.926,0.411h-31.834C200.89,14.608,200.604,14.483,200.353,14.231z
		 M200.353,53.818c-0.251-0.252-0.377-0.537-0.377-0.859V21.263c0-0.365,0.126-0.662,0.377-0.892
		c0.251-0.229,0.537-0.344,0.858-0.344h5.831c0.366,0,0.663,0.115,0.893,0.344c0.228,0.229,0.343,0.526,0.343,0.892v4.939
		c0,0.87,0.594,1.304,1.783,1.304h17.29c0.319,0,0.594,0.103,0.823,0.309c0.228,0.206,0.343,0.47,0.343,0.789v5.9
		c0,0.32-0.115,0.584-0.343,0.789c-0.229,0.207-0.504,0.309-0.823,0.309h-17.495c-1.053,0-1.578,0.48-1.578,1.441v7.479
		c0,0.32,0.137,0.617,0.411,0.891c0.274,0.275,0.571,0.412,0.893,0.412h23.601c0.365,0,0.663,0.115,0.892,0.344
		s0.344,0.525,0.344,0.893v5.898c0,0.322-0.115,0.607-0.344,0.859s-0.526,0.377-0.892,0.377h-31.971
		C200.89,54.195,200.604,54.07,200.353,53.818z"/>
	<path fill="#FFFFFF" d="M247.383,53.955c-0.412-0.207-0.71-0.469-0.892-0.789c-0.184-0.32-0.515-0.926-0.995-1.818
		s-0.789-1.52-0.926-1.887c-0.138-0.275-0.206-0.549-0.206-0.824c0-0.549,0.274-1.098,0.823-1.646
		c4.436-4.801,8.93-9.695,13.481-14.682c4.551-4.985,7.672-8.415,9.364-10.291c0.229-0.229,0.525-0.344,0.893-0.344
		c0.365,0,0.64,0.115,0.823,0.344l4.871,4.254c0.229,0.229,0.343,0.526,0.343,0.892c0,0.366-0.114,0.663-0.343,0.892l-16.672,16.878
		c-0.458,0.457-0.686,0.801-0.686,1.027c0,0.367,0.456,0.551,1.372,0.551l21.268-0.207c0.366,0,0.663,0.115,0.893,0.344
		c0.229,0.229,0.343,0.525,0.343,0.891v5.42c0,0.322-0.114,0.607-0.343,0.859c-0.229,0.252-0.526,0.377-0.893,0.377h-31.284
		C248.206,54.24,247.794,54.16,247.383,53.955z M245.016,13.614c-0.252-0.251-0.377-0.537-0.377-0.858V7.404
		c0-0.365,0.125-0.674,0.377-0.926c0.251-0.25,0.537-0.377,0.857-0.377h34.029c0.32,0,0.606,0.126,0.858,0.377
		c0.251,0.252,0.377,0.561,0.377,0.926v5.351c0,0.321-0.114,0.607-0.343,0.858c-0.229,0.252-0.526,0.377-0.893,0.377h-34.029
		C245.553,13.991,245.267,13.866,245.016,13.614z"/>
</g>
<g>
	<circle fill="#FFFFFF" cx="117.084" cy="25.596" r="2.482"/>
	<circle cx="117.581" cy="26.107" r="1.021"/>
</g>
<g>
	<ellipse fill="#E6007E" cx="124.054" cy="33.867" rx="6.465" ry="3.799"/>
</g>
<g>
	<circle fill="#FFFFFF" cx="131.022" cy="25.596" r="2.481"/>
	<circle cx="130.527" cy="26.107" r="1.021"/>
</g>
<circle fill="#FFFFFF" cx="120.587" cy="33.867" r="1.021"/>
<circle fill="#FFFFFF" cx="127.52" cy="33.867" r="1.021"/>
<line fill="none" x1="82.135" y1="5.906" x2="119.566" y2="5.906"/>
</svg>
