<?xml version="1.0" encoding="utf-8"?>
<!-- Generator: Adobe Illustrator 16.0.0, SVG Export Plug-In . SVG Version: 6.00 Build 0)  -->
<!DOCTYPE svg PUBLIC "-//W3C//DTD SVG 1.1//EN" "http://www.w3.org/Graphics/SVG/1.1/DTD/svg11.dtd">
<svg version="1.1" id="Livello_1" xmlns="http://www.w3.org/2000/svg" xmlns:xlink="http://www.w3.org/1999/xlink" x="0px" y="0px"
	 width="900px" height="650px" viewBox="0 0 900 650" enable-background="new 0 0 900 650" xml:space="preserve">
<rect x="1.453" y="0" fill="#8D90CE" width="900" height="650"/>
<circle fill="#4A3ADD" cx="462.433" cy="325.36" r="170.626"/>
<path fill="#364A5E" d="M538.891,366.574c0,1.291-0.493,2.59-1.479,3.576c-0.99,0.998-2.281,1.48-3.581,1.48h-142.8
	c-1.293,0-2.591-0.482-3.587-1.48c-0.979-0.986-1.476-2.285-1.476-3.576v-91.259c0-1.298,0.496-2.589,1.476-3.581
	c0.996-0.979,2.294-1.475,3.587-1.475h142.801c1.3,0,2.591,0.497,3.581,1.475c0.984,0.992,1.479,2.281,1.479,3.581L538.891,366.574
	L538.891,366.574z"/>
<path fill="#293A4D" d="M464.147,274.23c0,0.955-0.771,1.727-1.713,1.727c-0.957,0-1.719-0.772-1.719-1.727
	c0-0.951,0.762-1.709,1.719-1.709C463.381,272.52,464.147,273.279,464.147,274.23z"/>
<path fill="#5E6E7E" d="M463.135,274.235c0,0.39-0.318,0.706-0.7,0.706c-0.392,0-0.702-0.316-0.702-0.706
	c0-0.384,0.314-0.691,0.702-0.691C462.818,273.543,463.135,273.851,463.135,274.235z"/>
<path fill="#CEE2F2" d="M556.235,374.594c-2.725,3.146-6.76,5.146-11.248,5.146H379.874c-4.482,0-8.519-2-11.242-5.146H556.235z"/>
<path fill="#F3F9FE" d="M556.231,374.61H368.631v-2.123c0-0.223,0.085-0.438,0.254-0.605c0.163-0.166,0.386-0.25,0.601-0.25h185.894
	c0.224,0,0.438,0.084,0.605,0.25c0.161,0.168,0.247,0.385,0.247,0.605V374.61z"/>
<path fill="#B8D1E6" d="M479.856,372.133c0,0.26-0.098,0.516-0.3,0.719c-0.193,0.188-0.446,0.283-0.706,0.283h-32.835
	c-0.261,0-0.519-0.098-0.705-0.283c-0.202-0.203-0.298-0.459-0.298-0.719v-0.502h34.844V372.133L479.856,372.133z"/>
<rect x="393.931" y="278.046" fill="#FFFFFF" width="136.993" height="85.619"/>
<rect x="399.629" y="282.841" fill="#F28D3A" width="37.896" height="11.364"/>
<g>
	<rect x="443.482" y="282.841" fill="#E1EFFA" width="82.649" height="11.364"/>
	<rect x="398.722" y="346.946" fill="#E1EFFA" width="127.403" height="3.744"/>
	<rect x="398.722" y="355.133" fill="#E1EFFA" width="127.403" height="3.74"/>
</g>
<g>
	<rect x="398.722" y="320.888" fill="#CFDC74" width="37.895" height="21.62"/>
	<rect x="443.482" y="320.888" fill="#CFDC74" width="37.896" height="21.62"/>
	<rect x="488.233" y="320.888" fill="#CFDC74" width="37.897" height="21.62"/>
</g>
<rect x="398.722" y="298.658" fill="#B8D1E6" width="127.403" height="17.789"/>
<path fill="#30455C" d="M485.267,371.633h-94.235c-1.299,0-2.595-0.494-3.585-1.48c-0.972-0.99-1.483-2.287-1.483-3.584v-80.843
	h7.97v77.962h83.385L485.267,371.633z"/>
<path fill="#E2EFF9" d="M477.316,363.686h-83.385v-77.961h3.495c0.804,0,1.555,0.206,2.201,0.547v7.934h8.19l4.453,4.454h-13.547
	v17.778h31.326l4.453,4.451h-35.779v21.62h37.896v-19.503l6.861,6.859v12.645h12.658l4.437,4.439h-61.852v3.752h65.604l4.438,4.438
	h-70.045v3.734h73.779L477.316,363.686z"/>
<path fill="#E38430" d="M407.819,294.204h-8.19v-7.934c0.322,0.188,0.631,0.392,0.904,0.631l0.426,0.444L407.819,294.204z"/>
<polygon fill="#A2C4E1" points="430.053,316.436 398.724,316.436 398.724,298.658 412.273,298.658 "/>
<polygon fill="#B8D26F" points="436.621,323.005 436.621,342.508 398.724,342.508 398.724,320.888 434.507,320.888 "/>
<g>
	<polygon fill="#C8E0F6" points="464.331,350.699 398.724,350.699 398.724,346.946 460.575,346.946 	"/>
	<polygon fill="#C8E0F6" points="472.507,358.871 398.724,358.871 398.724,355.133 468.767,355.133 	"/>
</g>
<polygon fill="#B8D26F" points="456.14,342.508 443.482,342.508 443.482,329.865 "/>
<g>
	<path d="M185.736,103.865V50.823c0-0.8,0.64-1.44,1.44-1.44h18.64c9.84,0,17.681,7.92,17.681,17.681
		c0,9.84-7.84,17.68-17.681,17.68h-8c-1.2,0-2,0.32-2,1.6v17.521c0,0.8-0.64,1.44-1.44,1.44h-7.2
		C186.376,105.304,185.736,104.664,185.736,103.865z M205.816,74.504c4.08,0,7.44-3.28,7.44-7.44c0-4.08-3.36-7.36-7.44-7.36h-8.08
		c-1.36,0-1.92,0.56-1.92,1.6v13.2H205.816z"/>
	<path d="M234.216,77.304c0-15.84,12.64-28.721,28.321-28.721c8,0,15.52,3.36,20.88,9.28c0.64,0.72,0.56,1.52-0.08,2.08
		c-1.84,1.52-5.6,4.8-5.68,4.88c-0.64,0.64-1.6,0.64-2.16,0c-3.44-3.68-8.08-5.76-12.96-5.76c-9.84,0-17.841,8.24-17.841,18.241
		c0,10,8,18.24,17.841,18.24c4.64,0,9.04-1.92,12.4-5.28c0.96-0.8,2.4-0.88,3.04-0.16c0.32,0.24,3.92,3.28,4.72,4.08
		c0.96,0.8,1.2,2.16,0.4,2.88c-5.36,5.76-12.72,8.96-20.56,8.96C246.856,106.025,234.216,93.224,234.216,77.304z"/>
	<path d="M330.294,103.865V50.823c0-0.8,0.64-1.44,1.44-1.44h18.64c9.84,0,17.681,7.92,17.681,17.681
		c0,9.84-7.84,17.68-17.681,17.68h-8c-1.2,0-2,0.32-2,1.6v17.521c0,0.8-0.64,1.44-1.44,1.44h-7.2
		C330.934,105.304,330.294,104.664,330.294,103.865z M350.374,74.504c4.08,0,7.44-3.28,7.44-7.44c0-4.08-3.36-7.36-7.44-7.36h-8.08
		c-1.36,0-1.92,0.56-1.92,1.6v13.2H350.374z"/>
	<path d="M379.734,86.664l-0.16-0.4c-2.96-9.04-1.36-19.521,5.28-27.44c5.12-5.44,10.4-9.6,20.32-10.16h0.24
		c4.48-0.24,8.88,0.56,13.12,2.4c5.36,2.4,10.88,7.52,13.121,11.92c5.6,9.84,4.96,21.84-1.6,30.96c-2.48,3.52-5.36,6.32-10.16,8.88
		c-7.521,3.76-16.561,4.32-24.881,0.72C387.574,100.104,382.134,93.864,379.734,86.664z M423.494,84.744
		c4.081-9.28,0-20.081-9.2-24.24c-6.88-3.041-14.88-1.68-20.16,3.44l-1.36,1.44c-6.48,7.92-5.52,19.521,2.24,25.92
		c5.68,4.8,13.601,5.68,20.081,2.4C419.574,91.144,422.375,87.384,423.494,84.744z"/>
	<path d="M446.053,103.945V50.743c0-0.8,0.72-1.44,1.52-1.44h16.8c10.08,0,18.24,7.84,18.24,17.761c0,5.68-2.879,10.64-7.119,14
		c-0.801,0.72-0.32,1.68-0.32,1.68l9.28,20.721c0.64,1.44,0.08,1.92-0.8,1.92h-7.041c-1.039,0-1.6,0-2.08-0.96
		c0,0-8.08-18.081-8.399-18.721c-0.24-0.64-0.64-0.8-2.16-0.88h-6.4c-1.521,0-2.08,0.32-2.08,1.52v17.601
		c0,0.8-0.72,1.44-1.521,1.44h-6.399C446.773,105.385,446.053,104.744,446.053,103.945z M464.373,74.504
		c4.16,0,7.601-3.36,7.601-7.44c0-4.16-3.44-7.44-7.601-7.44h-7.439c-0.961,0-1.44,0.48-1.44,1.6v12c0,0.8,0.479,1.28,1.2,1.28
		H464.373z"/>
	<path d="M509.013,104.264V60.904c0-0.96-0.961-1.92-2-1.92h-13.44c-0.479,0-0.96-0.48-0.96-0.96v-7.76c0-0.48,0.4-0.88,0.96-0.88
		h42.241c0.639,0,1.119,0.48,1.119,1.04v7.52c0,0.56-0.48,1.04-1.119,1.04h-13.281c-1.039,0-1.92,0.88-1.92,1.92v43.361
		c0,0.56-0.4,1.04-1.039,1.04h-9.521C509.414,105.304,509.013,104.824,509.013,104.264z"/>
	<path d="M539.494,104.344l14.16-53.841c0.24-0.64,0.879-1.2,1.6-1.2h16.641c0.721,0,1.359,0.56,1.6,1.12l14.16,53.841
		c0.16,0.64-0.24,1.12-0.799,1.12h-7.84c-0.641,0-1.441-0.56-1.602-1.2l-3.92-14.88c-0.24-0.96-1.199-1.68-2.16-1.68h-15.52
		c-0.961,0-1.92,0.72-2.16,1.68l-3.92,14.8c-0.16,0.72-0.961,1.28-1.6,1.28h-7.842C539.734,105.385,539.334,104.905,539.494,104.344
		z M568.853,79.064c1.121,0,1.762-0.88,1.521-1.84l-4.48-16.48c-0.16-0.88-1.121-1.6-2.08-1.6h-0.48c-0.959,0-1.92,0.72-2.08,1.6
		l-4.4,16.48c-0.24,0.96,0.32,1.84,1.441,1.84H568.853z"/>
	<path d="M607.013,104.264V60.904c0-0.96-0.959-1.92-2-1.92h-13.439c-0.48,0-0.961-0.48-0.961-0.96v-7.76
		c0-0.48,0.4-0.88,0.961-0.88h42.24c0.641,0,1.119,0.48,1.119,1.04v7.52c0,0.56-0.479,1.04-1.119,1.04h-13.279
		c-1.041,0-1.922,0.88-1.922,1.92v43.361c0,0.56-0.398,1.04-1.039,1.04h-9.52C607.414,105.304,607.013,104.824,607.013,104.264z"/>
	<path d="M648.533,103.865V50.743c0-0.8,0.721-1.52,1.52-1.52h8.32c0.801,0,1.439,0.72,1.439,1.52v53.121
		c0,0.8-0.639,1.44-1.439,1.44h-8.32C649.254,105.304,648.533,104.664,648.533,103.865z"/>
	<path d="M676.213,103.624V50.903c0-0.88,0.801-1.68,1.68-1.68h8.24c0.961,0,1.68,0.8,1.68,1.68v42.161
		c0,0.88,0.721,1.68,1.602,1.68h19.359c0.961,0,1.68,0.72,1.68,1.6v7.28c0,0.96-0.719,1.68-1.68,1.68h-30.881
		C677.013,105.304,676.213,104.584,676.213,103.624z"/>
	<path d="M726.451,103.865V50.743c0-0.8,0.721-1.52,1.52-1.52h8.32c0.801,0,1.439,0.72,1.439,1.52v53.121
		c0,0.8-0.639,1.44-1.439,1.44h-8.32C727.172,105.304,726.451,104.664,726.451,103.865z"/>
</g>
</svg>
